<svg width="45" height="45" viewBox="0 0 45 45" fill="none" xmlns="http://www.w3.org/2000/svg">
<g clip-path="url(#clip0)">
<path fill-rule="evenodd" clip-rule="evenodd" d="M22.5 0.000747681C34.9277 0.000747681 45 10.0729 45 22.5006C45 34.9282 34.9277 45.0004 22.5 45.0004C10.0723 45.0004 0 34.9282 0 22.5006C0 10.0729 10.0723 0.000747681 22.5 0.000747681Z" fill="#2E974C"/>
<path fill-rule="evenodd" clip-rule="evenodd" d="M22.4996 0C18.1942 0 14.1527 1.11802 10.7335 3.21487C10.7933 3.48332 10.8821 3.82775 10.9683 4.04332C10.7398 4.43004 10.6174 4.86902 10.635 5.34362L10.5992 6.57415C10.5816 6.71478 10.6 6.83854 10.6176 6.97917L10.916 9.14084C11.6015 13.8869 23.6073 18.4926 28.7928 20.268C28.7225 20.4086 28.6702 20.5487 28.6174 20.7069C27.4221 24.451 25.031 30.1821 24.7146 34.0141C24.4861 36.8442 24.8734 40.043 25.8754 41.625C26.503 42.6206 27.4607 43.6844 28.3158 44.318C35.0842 42.5468 40.5254 37.7765 43.2264 31.4397C42.3836 27.5201 40.7604 24.3985 36.896 21.7446C35.3843 20.6899 33.1349 19.5119 31.6056 19.1779C31.6584 19.0725 31.7108 18.9491 31.7636 18.8437C31.7987 18.7206 31.8342 18.5975 31.8517 18.4745C32.8537 12.6913 33.24 9.72059 30.0408 3.97259C29.8173 3.08791 28.2954 1.48741 26.7322 0.318109C25.3289 0.0441868 23.9831 0 22.4996 0ZM19.8806 0.457333C19.3884 1.10772 16.8923 1.89842 16.031 2.2324C14.8181 2.70701 13.113 4.18426 12.9372 2.39131C15.152 1.52999 17.3845 0.984672 19.8806 0.457333V0.457333ZM23.4666 1.03772H23.6953C24.3281 1.03772 26.1038 2.76051 26.262 3.37573L13.2192 8.80656L12.9023 6.64489L12.9546 5.23898C14.8707 5.08077 22.3943 1.03772 23.4666 1.03772V1.03772ZM27.7909 4.53554L27.8617 4.79908L29.4788 7.71749C27.264 7.85811 18.5796 12.7094 16.9273 12.7094C16.4702 12.7094 14.5548 10.8456 14.379 10.1776L27.7909 4.53554ZM29.9352 9.28133L30.4448 12.2521C29.6187 12.6915 23.4497 15.5038 22.7641 15.5038C22.1313 15.5038 20.1266 14.3087 19.2653 14.1153L19.3011 13.7287L29.9352 9.28133ZM30.2171 14.3265L29.566 18.0879L25.3473 16.6287L25.3657 16.3128L30.2171 14.3265ZM30.8324 21.3929C32.3617 21.4808 36.2633 23.8539 37.0016 24.8558L28.6174 28.3536L30.8324 21.3929ZM38.1624 26.2443L40.1129 28.7577L27.1931 34.1895C27.1931 29.8301 28.8985 30.4635 31.6231 29.0396C33.6621 27.985 36.1233 27.3166 38.1624 26.2443ZM40.764 30.4456L41.2204 33.2932L27.1931 39.0942C27.0701 38.5668 26.9644 38.5488 26.9644 37.916V36.7562C26.9644 35.7542 32.5191 33.8909 33.6617 33.4163C35.4898 32.6604 39.0765 30.8323 40.764 30.4456ZM39.3397 35.8241C38.865 37.5643 32.0625 42.592 29.7598 42.592C29.1446 42.592 28.195 41.2032 28.195 40.6231L39.3397 35.8241ZM28.0894 36.3163H28.1078H28.0894Z" fill="white"/>
</g>
<defs>
<clipPath id="clip0">
<rect width="45" height="45" fill="white"/>
</clipPath>
</defs>
</svg>
