<?xml version="1.0" encoding="utf-8"?>
<!-- Generator: Adobe Illustrator 16.0.3, SVG Export Plug-In . SVG Version: 6.00 Build 0)  -->
<!DOCTYPE svg PUBLIC "-//W3C//DTD SVG 1.1//EN" "http://www.w3.org/Graphics/SVG/1.1/DTD/svg11.dtd">
<svg version="1.1" id="Layer_1" xmlns="http://www.w3.org/2000/svg" xmlns:xlink="http://www.w3.org/1999/xlink" x="0px" y="0px"
	 width="45px" height="45px" viewBox="0 0 45 45" enable-background="new 0 0 45 45" xml:space="preserve">
<path fill="#3770B4" d="M22.5,0C34.928,0,45,10.059,45,22.49C45,34.923,34.928,45,22.5,45S0,34.923,0,22.49
	C0,10.059,10.072,0,22.5,0z"/>
<path fill="#FFFFFF" d="M15.592,12.31c0,0.51-0.053,1.372,0.175,1.829c0.035,0.07,0.035,0.105,0.088,0.193
	c0.07,0.124,0.141,0.211,0.229,0.316c0.264,0.299,0.65,0.51,1.055,0.598c0.65,0.158,0.527-0.193,0.527,0.792v2.25
	c0,0.387-0.123,0.493-0.299,0.827c-0.246,0.457-0.686,1.319-0.914,1.706l-1.055,1.97c-0.141,0.281-0.369,0.669-0.528,0.967
	c-0.263,0.493-0.509,0.985-0.791,1.46l-1.037,1.969c-0.334,0.564-0.598,1.145-0.932,1.707c-0.035,0.088-0.07,0.158-0.123,0.245
	c-0.018,0.036-0.053,0.071-0.07,0.106l-0.193,0.387c-0.087,0.158-0.176,0.316-0.264,0.492c-0.176,0.316-0.369,0.65-0.528,0.967
	c-0.14,0.316-0.351,0.844-0.351,1.179c0,0.422-0.018,0.792,0.193,1.178c0.087,0.176,0.211,0.353,0.352,0.493
	c0.229,0.229,0.527,0.369,0.826,0.474l0.352,0.089c0.439,0.053,0.246,0.07,0.808,0.07c6.064,0,12.146,0,18.212,0
	c0.509,0,0.721-0.018,1.194-0.123c0.316-0.071,0.65-0.211,0.897-0.387c0.456-0.335,0.686-0.616,0.896-1.161
	c0.088-0.211,0.105-0.476,0.105-0.703c0-0.071-0.07-0.493-0.088-0.563c-0.07-0.211-0.105-0.334-0.192-0.51l-0.229-0.457
	c-0.141-0.264-0.597-1.002-0.756-1.301c-0.176-0.316-0.351-0.58-0.509-0.88l-0.247-0.422l-0.245-0.44l-0.511-0.861
	c-0.088-0.141-0.175-0.299-0.245-0.439c-0.018-0.035-0.053-0.07-0.053-0.105c-0.035-0.035-0.053-0.053-0.071-0.105l-0.632-1.09
	c-0.089-0.141-0.177-0.299-0.247-0.422c-0.245-0.457-0.51-0.861-0.756-1.318l-1.511-2.603c-0.282-0.51-0.599-1.002-0.88-1.513
	l-0.141-0.229c-0.088-0.158-0.193-0.281-0.193-0.475v-1.372c0-0.211-0.018-0.405-0.018-0.598c0-0.176,0.018-0.387,0.018-0.581
	c0-0.175-0.018-0.475,0-0.598c0.105-0.053,0.352,0.018,0.809-0.141c0.458-0.176,0.756-0.493,1.003-0.879
	c0.105-0.158,0.228-0.563,0.228-0.756v-1.354c0-0.211-0.104-0.493-0.175-0.668c-0.229-0.493-0.686-0.879-1.196-1.02
	c-0.053-0.018-0.316-0.07-0.369-0.07h-9.879c-0.053,0-0.334,0.053-0.369,0.07c-0.158,0.053-0.334,0.123-0.457,0.211
	c-0.158,0.088-0.263,0.176-0.387,0.316c-0.105,0.106-0.211,0.247-0.281,0.387c-0.018,0.035-0.018,0.035-0.035,0.07
	c-0.018,0.053-0.018,0.035-0.035,0.088C15.68,11.711,15.592,12.099,15.592,12.31z M30.34,28.065h-3.727v1.601h4.641l0.352,0.58
	c0.229,0.404,0.511,0.826,0.703,1.23l0.264,0.475c0.018,0.053,0.035,0.158,0.071,0.247c-0.018-0.054-0.018,0.017,0,0.087
	c0,0-0.018,0.035-0.018,0.054c-0.054,0.141-0.089,0.158-0.265,0.299c-0.053,0.035-0.158,0.07-0.228,0.07
	c-0.317,0.07-0.493,0.07-0.809,0.07c-6.065,0-12.147,0-18.212,0c-0.088,0-0.158,0.018-0.247,0c-0.087,0-0.175-0.018-0.263-0.035
	l-0.123-0.018c-0.035-0.018-0.088-0.053-0.123-0.07c0-0.07,0-0.281,0-0.387c0.035-0.054,0.123-0.282,0.193-0.422
	c0.141-0.299,0.298-0.581,0.457-0.862c0.105-0.176,0.193-0.352,0.281-0.527l0.176-0.334c0.035-0.035,0.052-0.088,0.087-0.141
	c0.036-0.053,0.071-0.123,0.106-0.176c0.316-0.563,0.581-1.16,0.914-1.724l1.09-2.022c0.246-0.457,0.509-0.967,0.773-1.459
	c0.193-0.352,0.386-0.686,0.563-1.038l0.984-1.864c0.352-0.563,0.633-1.161,0.949-1.741c0.334-0.615,0.51-0.914,0.51-1.67v-2.25
	c0-1.39-0.246-2.374-1.898-2.515c-0.036-0.018-0.106-0.035-0.124-0.053c0,0.018-0.035-0.053-0.07-0.124
	c-0.018-0.158,0.018-0.756,0.018-1.037c0.018,0.018,0.018,0.018,0.018,0s0.018-0.053,0.035-0.088
	c0.035-0.018,0.087-0.035,0.124-0.035c-0.054,0.018-0.018,0,0.018,0l9.527,0.018c-0.018,0,0.018,0,0.035,0.018
	c0.035,0.053,0.07,0.105,0.07,0.158l-0.018,1.038l0,0c0-0.018-0.035,0.053-0.07,0.088c-0.351,0.035-0.527,0.018-0.861,0.158
	l-0.861,0.352l-0.193,0.897c-0.088,0.369-0.053,0.65-0.053,1.002l-0.018,0.211h-3.375v1.6h3.393v0.739
	c-0.018,0.563,0.158,0.915,0.439,1.372l0.141,0.229l0.018,0.053h-3.99V21.7h4.922l1.372,2.392h-3.938v1.6h4.851
	c0.053,0.088,0.105,0.176,0.176,0.281l0.598,1.021c0.018,0.035,0.053,0.087,0.088,0.157c0.105,0.194,0.194,0.317,0.265,0.459
	L30.34,28.065z"/>
</svg>
