<?xml version="1.0" encoding="utf-8"?>
<!-- Generator: Adobe Illustrator 16.0.3, SVG Export Plug-In . SVG Version: 6.00 Build 0)  -->
<!DOCTYPE svg PUBLIC "-//W3C//DTD SVG 1.1//EN" "http://www.w3.org/Graphics/SVG/1.1/DTD/svg11.dtd">
<svg version="1.1" id="Layer_1" xmlns="http://www.w3.org/2000/svg" xmlns:xlink="http://www.w3.org/1999/xlink" x="0px" y="0px"
	 width="45px" height="45px" viewBox="0 0 45 45" enable-background="new 0 0 45 45" xml:space="preserve">
<g>
	<path fill="#8CC63F" d="M10.711,2.256C7.832,2.973,5.47,4.697,4.15,7.049C0.156,14.18-3.458,26.816,5.935,36.193
		c11.209,11.188,31.812,8.656,35.545,2.918c6.797-10.459,3.695-30.255-8.797-35.73C24.493-0.21,15.76,0.998,10.711,2.256z"/>
	<ellipse fill="#FFFFFF" cx="24.69" cy="23.444" rx="17.039" ry="16.837"/>
	<g>
		<path fill="#202020" d="M36.185,10.479c0.021-0.007,0.037-0.016,0.059-0.034C36.214,10.454,36.194,10.465,36.185,10.479z"/>
		<path fill="#202020" d="M28.856,6.401l0.107-0.007C28.897,6.384,28.871,6.39,28.856,6.401z"/>
		<path fill="#202020" d="M39.282,14.284c-0.01-0.002-0.014,0-0.022-0.001c0.042,0.063,0.093,0.152,0.169,0.296
			c0,0-0.033-0.072-0.07-0.148C39.325,14.357,39.282,14.284,39.282,14.284z"/>
		<path fill="#202020" d="M11.729,11.135l0.08-0.086C11.771,11.087,11.745,11.107,11.729,11.135z"/>
		<path fill="#202020" d="M21.38,6.164c-0.026,0.033-0.081,0.057-0.134,0.075C21.315,6.229,21.371,6.212,21.38,6.164z"/>
		<path fill="#202020" d="M39.202,17.073c0,0,0.011-0.038,0.02-0.076c0.012-0.037,0.021-0.075,0.021-0.075
			C39.201,16.939,39.183,16.996,39.202,17.073z"/>
		<path fill="#202020" d="M40.699,21.386c0.008-0.006,0.013-0.008,0.021-0.015C40.711,21.365,40.705,21.374,40.699,21.386z"/>
		<path fill="#202020" d="M40.786,19.53c-0.02-0.036-0.044-0.079-0.071-0.12C40.731,19.464,40.749,19.534,40.786,19.53z"/>
		<path fill="#202020" d="M40.677,19.354c0.014,0.019,0.024,0.037,0.038,0.057C40.705,19.377,40.692,19.35,40.677,19.354z"/>
		<path fill="#202020" d="M42.358,23.621c0.009-0.145-0.061-0.271-0.117-0.403L42.358,23.621z"/>
		<path fill="#202020" d="M7.38,26.523l-0.046-0.022C7.354,26.525,7.37,26.531,7.38,26.523z"/>
		<path fill="#202020" d="M41.549,23.412l0.022-0.099C41.553,23.351,41.549,23.383,41.549,23.412z"/>
		<path fill="#202020" d="M37.858,15.088c-0.149-0.061-0.205-0.336-0.277-0.287C37.669,14.904,37.718,15.102,37.858,15.088z"/>
		<path fill="#202020" d="M11.688,28.495l0.038,0.071C11.708,28.531,11.699,28.511,11.688,28.495z"/>
		<path fill="#202020" d="M41.549,23.412l-0.026,0.111c0.022-0.008,0.033-0.021,0.052-0.031
			C41.558,23.467,41.549,23.439,41.549,23.412z"/>
		<path fill="#202020" d="M18.583,39.114c-0.002,0-0.002,0-0.006-0.003c-0.014,0.003-0.024,0.003-0.038,0.003H18.583z"/>
		<path fill="#202020" d="M19.436,39.557c-0.069-0.013-0.132-0.023-0.205-0.035C19.335,39.563,19.392,39.564,19.436,39.557z"/>
		<path fill="#202020" d="M42.244,23.218l-0.069-0.23C42.187,23.073,42.214,23.145,42.244,23.218z"/>
		<path fill="#202020" d="M29.599,39.654c-0.031,0.011-0.062,0.022-0.088,0.033C29.55,39.678,29.578,39.667,29.599,39.654z"/>
		<path fill="#202020" d="M22.085,6.096c0.024,0.004,0.055,0.002,0.083,0.005C22.173,6.078,22.167,6.065,22.085,6.096z"/>
		<polygon fill="#202020" points="16.964,10.443 16.961,10.443 16.963,10.445 		"/>
		<path fill="#202020" d="M17.175,10.188c-0.1,0.029-0.185,0.158-0.211,0.253C17.047,10.392,17.114,10.324,17.175,10.188z"/>
		<path fill="#202020" d="M16.367,10.764c0.014-0.005,0.022-0.007,0.037-0.012C16.389,10.755,16.378,10.759,16.367,10.764z"/>
		<polygon fill="#202020" points="22.27,8.605 22.269,8.597 22.266,8.605 		"/>
		<path fill="#202020" d="M21.054,8.881c-0.026-0.01-0.06-0.015-0.094-0.015C20.982,8.877,21.016,8.884,21.054,8.881z"/>
		<polygon fill="#202020" points="14.161,12.918 14.159,12.913 14.155,12.918 		"/>
		<path fill="#202020" d="M10.748,23.215c-0.055-0.552-0.075-1.173-0.071-1.805c0.033-0.629,0.094-1.261,0.26-1.783
			c-0.137-0.275-0.036-0.615,0.021-0.967l0.255,0.036l0.021-0.299c0.114-0.089-0.027,0.224,0.129,0.058l-0.114-0.154
			c0.047,0.005,0.118-0.168,0.189-0.275c0.071-0.105,0.123-0.146,0.121,0.109c0,0,0.023-0.066,0.067-0.161
			c0.036-0.097,0.093-0.229,0.145-0.357c0.049-0.13,0.115-0.257,0.161-0.352c0.044-0.095,0.071-0.159,0.071-0.159
			c0.116-0.22-0.136-0.221,0.052-0.438c0.092-0.018-0.002,0.108,0.09,0.129c0.276-0.323,0.276-0.588,0.288-0.849
			c0.002-0.134,0.003-0.268,0.034-0.405c0.035-0.138,0.108-0.277,0.241-0.43l-0.011,0.074c0.019-0.147,0.168-0.355,0.146-0.377
			c-0.272-0.056,0.028,0.19-0.228,0.313c-0.167-0.131,0.071-0.316-0.071-0.39c0.175-0.112,0.143-0.269,0.23-0.409
			c0.267-0.154,0.461-0.517,0.725-0.583c0.036-0.145-0.019-0.39,0.174-0.621c0.27-0.05,0.083,0.139,0.33-0.031l-0.059-0.115
			c0.18-0.156,0.179-0.104,0.215-0.06c0.185-0.175,0.022-0.274,0.311-0.437l-0.046,0.204c0.141-0.192,0.227-0.243,0.479-0.459
			c0.04,0.056-0.06,0.142-0.142,0.193c0.258,0.009,0.166-0.264,0.258-0.312c-0.06-0.022-0.248,0.112-0.247-0.05
			c0.139-0.091,0.161-0.349,0.348-0.319l-0.061,0.204c0.204-0.288,0.036-0.236,0.382-0.447c-0.013,0.022,0.015,0.038,0.023,0.063
			c0.104-0.269,0.447-0.367,0.764-0.562l-0.036,0.066c0.097-0.118,0.101-0.252,0.173-0.293c-0.215,0.064-0.189,0.002-0.275-0.08
			c0.35,0,0.231-0.432,0.7-0.583c0.031,0.063-0.021,0.191-0.168,0.198c-0.021,0.258,0.06,0.405-0.117,0.638
			c0.115-0.138,0.273-0.264,0.285-0.171l-0.061-0.187c0.084-0.061,0.164-0.093,0.232-0.136c-0.026-0.126-0.295-0.052-0.123-0.25
			c0.208-0.2,0.231,0.09,0.222-0.007c0.295-0.25,0.03-0.252,0.393-0.379c-0.023,0.032-0.071,0.095-0.109,0.095
			c0.263-0.068,0.567-0.334,0.739-0.164c-0.012,0.063,0.017,0.127-0.08,0.153L17.984,9.86c-0.175,0.273,0.2-0.146,0.211,0.075
			c-0.073-0.099,0.266-0.241,0.433-0.282l-0.112-0.104c0.333-0.603,0.092,0.262,0.567-0.004c0.282-0.212-0.137,0.011,0.021-0.156
			c0.231-0.061,0.355,0.022,0.652-0.155c0.114,0.022,0.321,0.032,0.391,0.175c0.084-0.063,0.238-0.093,0.376-0.132
			c0.137-0.034,0.266-0.07,0.301-0.16c-0.379-0.035-0.282,0.25-0.735,0.185l0.062-0.181c0.268-0.088,0.604-0.255,0.814-0.254
			c-0.047-0.018-0.074-0.051-0.061-0.089c0.38-0.17,0.467-0.328,0.87-0.376c0.08,0.125-0.155,0.151-0.318,0.201
			c0.279,0.06,0.264-0.062,0.673-0.08c0.045,0.116-0.268,0.033-0.287,0.166c0,0,0.105-0.034,0.211-0.061
			c0.107-0.027,0.213-0.056,0.213-0.056c-0.001,0.007,0.002,0.015,0.004,0.023c0.026-0.207,0.333-0.05,0.59-0.135
			c0.635-0.084,0.709-0.35,1.063-0.541c0.104,0.047,0.133,0.097,0.098,0.15c-0.166-0.078-0.135-0.009-0.188,0.048
			c0.219-0.041,0.493,0.171,0.374,0.259c0.343-0.068-0.129-0.105,0.078-0.174l0.476,0.002c-0.057-0.104-0.226-0.121,0.022-0.207
			c0.211-0.037,0.313-0.005,0.586,0.007c-0.042,0.049,0.082,0.16-0.12,0.148c0.13,0.043,0.334,0.052,0.42-0.046
			c-0.146-0.05-0.023-0.073,0.111-0.095c0.132-0.021,0.281-0.05,0.172-0.141l0.298,0.119c-0.071-0.008-0.083,0.061-0.183,0.033
			c0.07,0.165,0.25-0.026,0.354-0.033c0.107,0.033,0.375,0.088,0.393,0.151c0.101-0.032,0.326,0.029,0.354,0.115
			c0.146-0.015,0.026-0.1,0.074-0.146c0,0,0.116,0.022,0.235,0.047c0.117,0.022,0.236,0.046,0.236,0.046
			c0.012,0.093,0.005,0.337-0.072,0.357c0.193-0.049,0.114-0.243,0.383-0.187c-0.187,0.131,0.318,0.206,0.058,0.354
			c0.12,0.161,0.544,0.235,0.787,0.265c0.177-0.09-0.229-0.144-0.179-0.272c0.666,0.131,0.826-0.226,1.291,0.001l-0.114-0.077
			c0.331,0.027,0.292,0.027,0.511-0.018c-0.145,0.135,0.172,0.551,0.66,0.718c0.076-0.061-0.199-0.268-0.07-0.358l0.334,0.117
			c0.018,0.022-0.031,0.033-0.08,0.034c0.316,0.069,0.434,0.436,0.602,0.3l0.164,0.361l-0.062-0.148
			C32,9.593,32.327,9.721,32.409,9.734c0.357,0.092,0.441,0.217,0.545,0.408c-0.016-0.092-0.064-0.31,0.193-0.185
			c-0.154,0.234,0.446,0.398,0.354,0.512c0.099,0.061,0.209,0.246,0.289,0.157l-0.117,0.131c0.164-0.178,0.502,0.055,0.776,0.218
			c-0.264,0.215,0.295,0.188,0.208,0.505c0.19-0.132,0.483,0.29,0.655,0.186c0.19,0.151,0.022,0.29,0.022,0.383l0.142,0.016
			c0.008,0.079,0.09,0.196,0.188,0.323c0.097,0.129,0.202,0.273,0.265,0.391l0.322,0.042l-0.004,0.126
			c0.064-0.004,0.225,0.13,0.195-0.013l0.08,0.107c0.174-0.131,0.174,0.104,0.427,0.248c0.013,0.07-0.04,0.091-0.101,0.063
			c0.084,0.106-0.041,0.132-0.054,0.232c-0.021-0.112,0.617,0.138,0.466-0.207c0.055-0.072,0.244,0.057,0.299,0.186l-0.108,0.178
			l0.264,0.01c0.152,0.154,0.103,0.299,0.183,0.45c-0.116-0.136-0.539-0.095-0.274,0.256c-0.158-0.174-0.313-0.2-0.419-0.273
			c0.046,0.078,0.061,0.123-0.092,0.061c0.25,0.236,0.164,0.021,0.386,0.277c-0.16,0.084-0.146,0.188-0.041,0.464l-0.009-0.251
			c0.023-0.003,0.044,0,0.063,0.009c-0.029-0.08-0.021-0.116,0.026-0.166c0.032,0.055,0.397,0.21,0.343,0.313
			c0.045-0.435,0.512,0.394,0.534,0.126c0.067,0.009,0.202,0.214,0.134,0.277c-0.262-0.184-0.068,0.285-0.201,0.303
			c0.1,0.069,0.002-0.257,0.133-0.165c0.1,0.142,0.068,0.301,0.059,0.411l-0.063-0.047l0.051,0.266c0.101,0,0.017-0.291,0.168-0.099
			c-0.004,0.073,0.152,0.267,0.082,0.291c-0.164-0.049-0.27,0.094-0.394-0.069c0.044,0.07,0.136,0.222,0.214,0.322
			c0.079,0.104,0.159,0.159,0.186,0.025l0.078,0.186c0.017-0.144-0.012-0.525,0.183-0.163l-0.032,0.011l0.244,0.207l-0.029,0.147
			c0.041-0.02,0.101,0.005,0.137,0.104c-0.041,0.046-0.024,0.146-0.092,0.165c0.121,0.28,0.201,0.227,0.262,0.245
			c0.074,0.156,0.068,0.228-0.064,0.188c0.061,0.227,0.211,0.606,0.176,0.785c0.164,0.276,0.019-0.073,0.185,0.069
			c-0.116,0.175-0.067,0.425,0.022,0.7c0.075,0.275,0.219,0.569,0.278,0.818c0.242-0.188,0.056,0.131,0.315,0.183
			c-0.105-0.093-0.117,0.513-0.276,0.084l0.076,0.265c-0.116,0.202-0.192-0.423-0.345-0.116c0.067,0.29,0.375,0.45,0.326,0.818
			c-0.207-0.1,0.092,0.267-0.129,0.199c-0.072-0.068-0.065-0.167-0.096-0.264l-0.025,0.064c0.006,0.659,0.244,0.169,0.403,0.507
			c0.06,0.404-0.125,0.327-0.215,0.354c-0.036,0.065-0.001,0.265,0.052,0.369c-0.123-0.241,0.11-0.461,0.234-0.352
			c-0.213,0.189-0.004,0.604,0.087,0.72c0.211-0.594,0.011-0.405,0.226-0.974c-0.074-0.073-0.271-0.047-0.214-0.384
			c0.115,0.2,0.108-0.023,0.136-0.085c-0.105,0.074-0.068-0.228-0.131-0.323c0.079-0.104,0.288,0.174,0.288-0.174l-0.272-0.031
			c0.025-0.138,0.205,0.032,0.104-0.242c0.158,0.133,0.21-0.077,0.302,0.304c0.17-0.493-0.226-0.692-0.388-1.024
			c0.024,0.033,0.062,0.031,0.081,0.063c-0.082-0.063-0.102-0.2-0.143-0.299c0.008-0.243,0.164,0.158,0.215,0.085
			c0,0-0.02-0.095-0.043-0.188c-0.023-0.094-0.049-0.188-0.049-0.188c0.007-0.01,0.012-0.012,0.018-0.014
			c-0.063-0.091-0.105-0.179-0.05-0.229c0.112,0.093,0.21,0.117,0.296,0.179l-0.275-0.358c0.1,0.022,0.053-0.363,0.201-0.097
			l-0.211-0.578l0.159-0.1c-0.071-0.134-0.106-0.127-0.077,0.049c-0.021-0.219-0.602-0.781-0.229-0.792
			c-0.152-0.205-0.24-0.346-0.317-0.504c-0.077-0.16-0.162-0.332-0.328-0.576c0.343,0.344-0.028-0.553,0.246-0.149
			c-0.05-0.289-0.247-0.265-0.379-0.445c-0.027-0.216,0.171-0.214,0.337-0.039l-0.198-0.202l0.031-0.011l-0.198-0.161
			c-0.029-0.259,0.139-0.13,0.031-0.362l-0.166,0.025l-0.01-0.191c-0.026,0.09-0.133-0.023-0.238-0.177l0.029-0.013l-0.141-0.179
			c0.205,0.14-0.078-0.189,0.071-0.161c-0.099-0.164-0.104-0.166-0.321-0.442l-0.057,0.109c-0.332-0.323,0.126-0.105-0.082-0.409
			l-0.086,0.087c-0.071-0.271-0.225-0.441-0.389-0.579c-0.164-0.138-0.317-0.257-0.393-0.45c0.165,0.156,0.244,0.025,0.211,0.043
			c-0.121-0.119-0.271-0.288-0.439-0.444c-0.163-0.156-0.331-0.31-0.514-0.383c0.045-0.209,0.064-0.267-0.136-0.583
			c-0.2-0.181-0.245-0.191-0.38-0.178c-0.07-0.11-0.211-0.23-0.325-0.335c-0.116-0.102-0.21-0.186-0.167-0.237
			c-0.117,0.037-0.164-0.163-0.33-0.189l0.01-0.061l-0.065,0.108c-0.077-0.254-0.265-0.334-0.444-0.42
			c-0.181-0.084-0.359-0.164-0.482-0.388l0.084,0.018l-0.191-0.071c0.01-0.062,0.092-0.043,0.141-0.093c0,0-0.185-0.133-0.367-0.269
			c-0.192-0.127-0.381-0.252-0.381-0.252l0.101,0.171c-0.167-0.091-0.345-0.06-0.49-0.237c0.205,0.019,0.144-0.022,0.03-0.087
			c-0.117-0.063-0.277-0.143-0.268-0.218l0.199,0.056c-0.242-0.121-0.242-0.121-0.287-0.005c-0.324-0.128-0.086-0.323-0.44-0.354
			c0,0,0.05,0.025,0.103,0.055c0.049,0.027,0.1,0.057,0.1,0.057c0.023,0.095-0.168,0.1-0.305,0.031
			c-0.023-0.032-0.093-0.128,0.021-0.091c-0.267-0.078-0.603-0.323-0.739-0.321c-0.117-0.095-0.038-0.153,0.051-0.148
			c-0.587-0.136-0.23-0.138-0.82-0.259l0.033-0.062l-0.219,0.004l-0.215-0.238l0.066,0.12c-0.186-0.06-0.314-0.054-0.52-0.161
			l0.12-0.067c-0.539-0.118-0.55-0.365-1.101-0.364c-0.029-0.027,0.059-0.038,0.104-0.042c-0.512,0.025-0.306-0.277-0.837-0.194
			c0.038-0.026-0.005-0.081,0.024-0.105l-0.235,0.016l0.046-0.131L28.45,6.446l-0.108-0.163l-0.101,0.05
			c-0.188-0.296-0.557-0.173-0.858-0.403l0.032,0.179c-0.219,0.064-0.445,0.068-0.676,0.041c-0.229-0.021-0.469-0.067-0.713-0.123
			c-0.244-0.062-0.496-0.1-0.752-0.134c-0.254-0.033-0.508-0.034-0.76,0.017l0.014-0.139l-0.409,0.172
			c-0.229-0.103,0.129-0.12,0.057-0.189c-0.444,0.092-0.173,0.213-0.684,0.286c-0.271-0.073,0.081-0.107,0.206-0.166
			c-0.484,0.092-1.178,0.257-1.528,0.23c-0.004,0.021-0.023,0.048-0.003,0.052c-0.305,0.118-0.737,0.118-1.08,0.212
			c-0.008-0.065,0.075-0.093,0.162-0.125c-0.126,0.02-0.308,0.015-0.4,0.103L20.958,6.2c-0.137,0.021-0.33,0.08-0.495,0.132
			c-0.165,0.052-0.308,0.084-0.36,0.025c0.049,0.043,0.064,0.145-0.165,0.201c-0.193-0.175-0.586,0.274-0.982,0.284
			c0.023-0.062,0.287-0.158,0.211-0.137c-0.203,0.006-0.33,0.152-0.457,0.275l0.017-0.097c0,0-0.197,0.105-0.392,0.21
			c-0.202,0.103-0.388,0.221-0.388,0.221c-0.209-0.14-0.746,0.358-0.759,0.202c-0.286,0.133,0.279-0.034-0.066,0.163
			c-0.136-0.03-0.303,0.197-0.352,0.068l0.027-0.033l-0.243,0.134l0.092-0.197c-0.21,0.13-0.288,0.34-0.25,0.433
			c-0.235,0.044-0.485,0.252-0.636,0.201l0.056-0.071c-0.257,0.188-0.532,0.25-0.784,0.323c-0.25,0.077-0.468,0.173-0.606,0.407
			c-0.044,0.007-0.063-0.023,0.007-0.067c0,0-0.083,0.054-0.166,0.109c-0.081,0.058-0.165,0.115-0.165,0.115l0.015-0.138
			l-0.424,0.522l-0.038-0.06c-0.359,0.248-0.854,0.715-1.242,1.114l0.038-0.08c-0.363,0.492-0.466,0.366-0.726,0.733
			c-0.002-0.023,0.002-0.04,0.011-0.053c0,0-0.071,0.07-0.134,0.146c-0.067,0.074-0.131,0.148-0.131,0.148l0.006-0.108
			c-0.081,0.314-0.716,0.512-0.494,0.454c-0.055,0.173-0.172,0.444-0.132,0.534c-0.266,0.343-0.143,0.025-0.353,0.206
			c-0.194,0.251-0.125,0.361-0.429,0.671l-0.055-0.045c-0.101,0.172-0.124,0.302-0.271,0.539l0.021-0.086
			c-0.124,0.447-0.48,0.378-0.396,0.829c-0.154,0.134-0.273,0.472-0.397,0.392c-0.186,0.537-0.331,0.948-0.497,1.477
			c-0.253-0.003-0.028,0.116-0.283,0.38l0.126,0.021c-0.265,0.727-0.852,1.5-0.988,2.37l-0.127-0.003l0.094,0.198
			c-0.258,0.902-0.445,2.112-0.473,2.861c0.065,0.248,0.188,0.619,0.163,1.005l-0.02-0.042c0.041,0.335,0.083,0.679,0.127,1.029
			c0.022,0.176,0.033,0.354,0.05,0.531c0.019,0.18,0.032,0.36,0.037,0.543c-0.059-0.037-0.085,0.039-0.129-0.037
			c0.159,0.156,0.064,0.428,0.093,0.584l0.059-0.199c0.158,0.189,0.097,0.49,0.025,0.621c0,0,0.048,0.072,0.098,0.15
			c0.052,0.069,0.104,0.147,0.104,0.147c-0.008,0.024-0.019,0.062-0.038,0.069l0.078,0.041l-0.119,0.209
			c0.051,0.068,0.194,0.486,0.394,0.574c-0.044,0.043,0.001,0.346-0.095,0.123c0,0,0.071,0.301,0.152,0.586
			c0.088,0.289,0.176,0.575,0.176,0.575l-0.011-0.198c0.117-0.066,0.304,0.252,0.322,0.442c-0.187-0.198-0.174,0.038-0.219,0.165
			c0.123,0.129,0.051-0.165,0.147-0.113c0.16,0.161,0.353,0.549,0.352,0.664l-0.097-0.093c0.161,0.241,0.015,0.438,0.143,0.688
			c0.194,0.188,0.208,0.392,0.369,0.254c0.208,0.297-0.066,0.185-0.027,0.297c0.084,0.056,0.17,0.199,0.23,0.344
			c0.065,0.145,0.098,0.286,0.069,0.346c0.189,0.012,0.285,0.232,0.377,0.438c0.095,0.208,0.179,0.406,0.308,0.365l0.039,0.33
			c0.067-0.022,0.23-0.07,0.397,0.111c0.072,0.221-0.064,0.253-0.08,0.348l0.305-0.022c0.135,0.298,0.331,0.594,0.542,0.896
			c0.229,0.291,0.468,0.59,0.74,0.868c0.527,0.574,1.121,1.099,1.617,1.642c0.55,0.356,1.285,0.742,1.914,1.16l-0.088-0.021
			c0,0,0.15,0.115,0.305,0.225c0.16,0.11,0.313,0.213,0.313,0.213s-0.107-0.095-0.211-0.185c-0.107-0.092-0.207-0.19-0.207-0.19
			c0.156,0.065,0.296,0.073,0.434,0.16c0.652,0.497,1.613,1.106,2.632,1.328c0.727-0.059,0.328,0.391,1.008,0.391
			c-0.063,0.018-0.092,0.043-0.153,0.063c0.692,0.102,1.07,0.146,1.777,0.114c-0.141,0.276,0.44,0.073,0.349,0.212l0.075-0.107
			c0.134,0.098,0.488,0.18,0.42,0.252c0,0,0.081-0.023,0.164-0.049c0.08-0.023,0.165-0.057,0.165-0.057l0.01,0.121
			c0.198,0.021,0.513,0.05,0.806,0.08c0.291,0.021,0.556,0.08,0.654,0.213c0.506-0.07,1.149-0.082,1.825-0.116
			c0.336-0.013,0.68-0.039,1.019-0.056c0.342-0.024,0.675-0.063,0.987-0.082c0.16-0.123,0.514-0.202,0.793-0.252
			c0,0,0.082,0.023,0.164,0.039c0.082,0.022,0.164,0.035,0.164,0.035c0.274-0.115,0.537-0.346,0.818-0.328
			c0.002,0.021-0.008,0.022-0.023,0.043c0.275-0.115,0.572-0.108,0.789-0.314c0.307-0.093,0.634-0.113,0.586,0.043
			c-0.023-0.117,0.142-0.16,0.309-0.188c0.169-0.022,0.352-0.022,0.352-0.022s0.063-0.022,0.178-0.065
			c0.117-0.033,0.289-0.104,0.5-0.19c0.215-0.091,0.484-0.188,0.775-0.329c0.301-0.137,0.633-0.299,0.993-0.486
			c1.443-0.753,3.281-2.045,4.808-3.803c0.766-0.872,1.451-1.854,2.002-2.872c0.553-1.017,0.971-2.069,1.244-3.071
			c0.556-2.009,0.515-3.789,0.215-4.741c-0.117-0.134-0.189-0.481-0.338-0.351c-0.041-0.267,0.18-0.39,0.057-0.438
			c-0.09,0.36-0.311-0.111-0.477,0.237l-0.023-0.225c-0.086-0.045,0.091,0.302-0.068,0.244l0.229,0.069
			c-0.04,0.18-0.09,0.277-0.17,0.338c0.089,0.17,0.392,0.301,0.221,0.704l-0.007-0.114c-0.019,0.335-0.164,0.19-0.207,0.253
			l0.008-0.07c0,0-0.034,0.07-0.071,0.133c-0.031,0.071-0.07,0.131-0.07,0.131c0.1-0.207-0.066-0.565-0.063-0.384
			c-0.094,0.386,0.063-0.098,0.069,0.201c-0.001,0.185-0.121,0.116-0.191,0.108l-0.031,0.322c-0.106-0.022,0.031-0.209-0.096-0.096
			l0.063,0.417c-0.27,0.029,0.057,0.453-0.228,0.599c-0.013-0.301-0.095,0.01-0.172-0.055c0,0-0.026,0.174-0.056,0.346
			c-0.039,0.17-0.072,0.347-0.072,0.347c-0.055,0.062-0.04-0.199-0.053-0.091c-0.104,0.115,0.016,0.227-0.006,0.3
			c-0.075,0.043-0.133,0.508-0.305,0.442c-0.255,0.42,0.17,0.252-0.072,0.648c-0.117,0.023,0.09-0.343-0.078-0.188l-0.115,0.443
			c-0.038-0.064-0.139-0.143-0.063-0.3c-0.133,0.278-0.281,0.519-0.445,0.715c-0.163,0.207-0.318,0.39-0.485,0.565
			c-0.317,0.348-0.606,0.684-0.819,1.188c-0.191,0.069-0.02-0.138-0.037-0.266c-0.125,0.376-0.32,0.58-0.545,0.755
			c-0.219,0.163-0.443,0.31-0.633,0.575l0.079,0.068c-0.103,0.069-0.196,0.144-0.291,0.221c-0.098,0.074-0.188,0.16-0.278,0.248
			c-0.176,0.18-0.353,0.359-0.533,0.55c-0.352,0.377-0.727,0.759-1.148,1.051l0.141-0.024c-0.029,0.168-0.203,0.33-0.305,0.475
			c-0.055-0.023-0.057-0.251-0.257-0.023c0.071-0.012,0.196-0.066,0.203-0.004c-0.431,0.195-1.009,0.569-1.665,0.942
			c-0.652,0.389-1.402,0.757-2.094,0.981c-0.879,0.432-1.873,0.715-2.875,0.893c-1.004,0.175-2.012,0.244-2.977,0.277
			c0.293-0.022,0.17,0.244-0.055,0.19c-0.305-0.224-0.563-0.207-0.829-0.187c-0.263,0.015-0.539,0.06-0.828-0.129
			c-0.28-0.002-0.555-0.021-0.816-0.082c-0.26-0.058-0.516-0.117-0.764-0.207c-0.121-0.033-0.248-0.068-0.372-0.104
			c-0.121-0.034-0.246-0.068-0.369-0.1c-0.254-0.051-0.505-0.094-0.779-0.098l0.022-0.119c-0.127-0.104-0.199-0.023-0.354-0.072
			l0.02-0.027c-0.167-0.091-0.375-0.148-0.561-0.201c-0.182-0.063-0.349-0.115-0.434-0.188l-0.072,0.115
			c-0.212-0.08-0.064-0.144-0.305-0.17l0.036-0.064l-0.305-0.006c0.071-0.108-0.071-0.172-0.245-0.252
			c-0.167-0.075-0.369-0.16-0.419-0.25c-0.277-0.111-0.819-0.313-1.154-0.623c0.001-0.143-0.436-0.473-0.665-0.73
			c-0.544-0.392-1.285-1.033-1.808-1.701l-0.114,0.115c0,0-0.039-0.04-0.078-0.081c-0.042-0.034-0.075-0.077-0.075-0.077
			c0.027-0.022,0.024-0.058,0.06-0.037c0.035-0.25-0.372-0.365-0.393-0.576c-0.053,0.178,0.079,0.137,0.159,0.24
			c0.055,0.189-0.181,0.146-0.273-0.098l0.029-0.018l-0.167-0.092c0.091-0.086,0.047-0.25,0.138-0.334
			c-0.235-0.281-0.444-0.512-0.662-0.746c-0.197-0.248-0.406-0.482-0.551-0.847c0.164,0.013-0.287-0.468,0.006-0.437
			c-0.272-0.373-0.148,0.148-0.393,0.024c-0.051-0.116-0.167-0.208-0.097-0.268c0.077,0.026,0.093-0.155,0.16-0.07
			c0,0-0.037-0.069-0.073-0.134c-0.037-0.068-0.071-0.135-0.071-0.135c0.01-0.029,0.066,0.021,0.091,0.039
			c-0.369-0.525-0.257-1.062-0.541-1.537c-0.098-0.021,0.036,0.211-0.061,0.205c-0.327-0.485,0.007-0.508-0.233-0.985l0.143,0.074
			c-0.117-0.144-0.247-0.194-0.203-0.482c0.129-0.069,0.161,0.207,0.257,0.313c-0.045-0.176-0.162-0.635-0.262-0.475
			c-0.086-0.209,0.023-0.313,0.041-0.437c-0.035,0-0.06,0.216-0.148,0.101c0.034-0.313-0.036-0.783-0.043-1.158
			c0.033,0.002,0.083-0.024,0.107,0.002C10.48,23.605,10.794,23.619,10.748,23.215z"/>
		<path fill="#202020" d="M22.434,8.6l-0.165,0.006c0.007,0.03,0.005,0.066-0.064,0.112L22.434,8.6z"/>
		<path fill="#202020" d="M15.465,11.552c-0.01,0.022-0.019,0.041-0.023,0.066C15.473,11.588,15.473,11.569,15.465,11.552z"/>
		<path fill="#202020" d="M14.273,12.95c0.071-0.113-0.04-0.057-0.113-0.035C14.182,12.938,14.208,12.958,14.273,12.95z"/>
		<path fill="#202020" d="M26.812,8.141c-0.031,0.012-0.051,0.027-0.049,0.057C26.803,8.177,26.813,8.159,26.812,8.141z"/>
		<path fill="#202020" d="M37.101,14.006c-0.002-0.016-0.012-0.029-0.015-0.05C37.084,13.971,37.088,13.984,37.101,14.006z"/>
		<path fill="#202020" d="M36.854,13.353c-0.022-0.026-0.054-0.054-0.106-0.091C36.78,13.312,36.819,13.337,36.854,13.353z"/>
		<path fill="#202020" d="M23.834,8.119c-0.044,0.008-0.088,0.021-0.123,0.053C23.778,8.164,23.812,8.144,23.834,8.119z"/>
		<path fill="#202020" d="M36.631,13.178l-0.103-0.137c-0.008,0.006-0.016,0.01-0.023,0.017L36.631,13.178z"/>
		<path fill="#202020" d="M37.211,14.185c-0.034-0.056-0.084-0.127-0.112-0.179C37.12,14.093,37.155,14.147,37.211,14.185z"/>
		<path fill="#202020" d="M31.224,9.139c-0.006,0-0.011-0.003-0.02-0.004C31.06,9.135,31.147,9.146,31.224,9.139z"/>
		<path fill="#202020" d="M35.946,12.798c-0.004-0.006-0.01-0.013-0.014-0.019l-0.064-0.01L35.946,12.798z"/>
		<path fill="#202020" d="M37.582,14.801c-0.021-0.025-0.038-0.047-0.067-0.055c0.01,0.022,0.022,0.052,0.036,0.087
			C37.565,14.814,37.574,14.806,37.582,14.801z"/>
		<path fill="#202020" d="M33.386,10.531c0.071-0.018,0.106-0.039,0.119-0.06C33.458,10.443,33.415,10.445,33.386,10.531z"/>
	</g>
	<path fill="#202020" d="M20.813,11.531c0.161,0.246,0.304,0.496,0.451,0.746c0.152,0.249,0.295,0.5,0.437,0.753
		c0.281,0.504,0.554,1.011,0.82,1.521c0.266,0.509,0.521,1.023,0.775,1.538c0.25,0.514,0.497,1.03,0.733,1.552
		c0.246,0.518,0.473,1.04,0.705,1.562c0.233,0.521,0.449,1.048,0.679,1.573l0.647,1.584l0.623,1.592l-1.219-0.836l0.792-0.024
		c0.263-0.005,0.529-0.021,0.793-0.019c0.529,0.002,1.056-0.008,1.587,0.014l0.793,0.021l0.791,0.027
		c0.264,0.009,0.53,0.024,0.793,0.042l0.793,0.052c0.531,0.043,1.057,0.088,1.588,0.146c0.262,0.023,0.528,0.068,0.793,0.102
		c0.263,0.023,0.529,0.07,0.795,0.107c0.529,0.078,1.058,0.169,1.586,0.271c0.266,0.052,0.533,0.111,0.795,0.161
		c0.266,0.068,0.531,0.127,0.796,0.207c-0.263,0.084-0.527,0.157-0.79,0.221c-0.262,0.07-0.527,0.13-0.788,0.189
		c-0.53,0.115-1.056,0.219-1.584,0.305c-0.261,0.045-0.526,0.094-0.789,0.127c-0.265,0.039-0.53,0.08-0.791,0.113
		c-0.53,0.07-1.056,0.129-1.584,0.187l-0.792,0.069c-0.264,0.022-0.527,0.045-0.791,0.062l-0.793,0.054l-0.793,0.034
		c-0.529,0.026-1.055-0.16-1.584-0.147c-0.262,0.011-0.529-0.188-0.79-0.188h-0.79h-0.936l-0.281-0.645l-0.545-1.521l-0.52-1.581
		c-0.164-0.547-0.334-1.065-0.493-1.615c-0.156-0.549-0.313-1.083-0.458-1.637c-0.154-0.552-0.293-1.1-0.434-1.653
		c-0.131-0.558-0.266-1.111-0.391-1.672c-0.125-0.56-0.241-1.121-0.349-1.688c-0.053-0.283-0.106-0.567-0.152-0.854
		C20.899,12.104,20.849,11.82,20.813,11.531z"/>
</g>
</svg>
