<?xml version="1.0" encoding="utf-8"?>
<!-- Generator: Adobe Illustrator 16.0.3, SVG Export Plug-In . SVG Version: 6.00 Build 0)  -->
<!DOCTYPE svg PUBLIC "-//W3C//DTD SVG 1.1//EN" "http://www.w3.org/Graphics/SVG/1.1/DTD/svg11.dtd">
<svg version="1.1" id="Layer_1" xmlns="http://www.w3.org/2000/svg" xmlns:xlink="http://www.w3.org/1999/xlink" x="0px" y="0px"
	 width="45px" height="45px" viewBox="0 0 45 45" enable-background="new 0 0 45 45" xml:space="preserve">
<path fill="#3C3C3C" d="M19.245,0c2.157,0,4.313,0,6.47,0c0.678,0.321,0.957,0.858,1.018,1.592c0.094,1.049,0.242,2.091,0.365,3.136
	c0.021,0.275,0.105,0.438,0.414,0.522c1.307,0.36,2.551,0.884,3.729,1.551c0.152,0.088,0.259,0.091,0.408-0.031
	c0.977-0.774,1.955-1.536,2.938-2.304c0.5-0.395,1.292-0.383,1.722,0.039c1.359,1.356,2.719,2.718,4.078,4.081
	c0.543,0.548,0.567,1.27,0.09,1.87c-0.759,0.958-1.504,1.917-2.246,2.887c-0.064,0.085-0.086,0.271-0.037,0.363
	c0.67,1.206,1.191,2.477,1.572,3.799c0.072,0.246,0.193,0.346,0.438,0.372c0.917,0.096,1.828,0.216,2.744,0.313
	c0.827,0.088,1.669,0.144,2.053,1.07c0,2.157,0,4.313,0,6.47c-0.317,0.676-0.856,0.953-1.591,1.022
	c-1.067,0.09-2.115,0.241-3.17,0.372c-0.252,0.021-0.396,0.104-0.473,0.37c-0.375,1.33-0.901,2.594-1.574,3.799
	c-0.049,0.088-0.021,0.282,0.047,0.368c0.75,0.98,1.509,1.941,2.271,2.91c0.448,0.563,0.413,1.313-0.095,1.814
	c-1.265,1.27-2.522,2.546-3.78,3.815c-0.758,0.763-1.39,0.814-2.23,0.17c-0.902-0.705-1.811-1.412-2.711-2.126
	c-0.15-0.112-0.258-0.153-0.438-0.047c-1.188,0.677-2.448,1.192-3.764,1.56c-0.25,0.071-0.347,0.196-0.37,0.441
	c-0.1,0.916-0.213,1.827-0.313,2.74c-0.092,0.827-0.146,1.67-1.068,2.059c-2.16,0-4.313,0-6.473,0
	c-0.675-0.321-0.957-0.864-1.017-1.592c-0.091-1.065-0.246-2.113-0.368-3.17c-0.024-0.25-0.106-0.396-0.373-0.47
	c-1.33-0.368-2.594-0.902-3.807-1.568c-0.088-0.049-0.279-0.022-0.361,0.043c-0.98,0.748-1.944,1.507-2.912,2.271
	c-0.566,0.448-1.305,0.429-1.818-0.086c-1.337-1.33-2.669-2.675-3.994-4.008c-0.542-0.545-0.57-1.271-0.097-1.872
	c0.757-0.956,1.505-1.917,2.246-2.89c0.065-0.086,0.093-0.278,0.042-0.366c-0.675-1.222-1.2-2.499-1.586-3.836
	c-0.065-0.225-0.178-0.305-0.395-0.327c-0.93-0.104-1.853-0.225-2.775-0.32c-0.836-0.082-1.668-0.152-2.056-1.068
	c0-2.158,0-4.316,0-6.468c0.328-0.689,0.894-0.958,1.635-1.02c1.046-0.086,2.087-0.244,3.134-0.354
	c0.255-0.026,0.396-0.104,0.471-0.376c0.371-1.316,0.887-2.577,1.56-3.766c0.108-0.18,0.076-0.285-0.045-0.438
	c-0.751-0.945-1.488-1.9-2.236-2.852c-0.479-0.605-0.458-1.321,0.09-1.87C5.936,7.269,7.255,5.945,8.586,4.62
	c0.558-0.554,1.273-0.568,1.897-0.071c0.947,0.75,1.898,1.491,2.856,2.227c0.085,0.064,0.277,0.09,0.367,0.041
	c1.207-0.664,2.471-1.195,3.804-1.57c0.276-0.077,0.349-0.223,0.371-0.475c0.117-1.058,0.28-2.109,0.37-3.17
	C18.291,0.86,18.57,0.314,19.245,0z M22.492,33.745c6.188-0.043,11.23-4.918,11.238-11.24c0.006-6.306-5.033-11.228-11.222-11.249
	C16.28,11.235,11.258,16.25,11.238,22.49C11.215,28.685,16.281,33.749,22.492,33.745z"/>
</svg>
