<?xml version="1.0" encoding="utf-8"?>
<!-- Generator: Adobe Illustrator 16.0.3, SVG Export Plug-In . SVG Version: 6.00 Build 0)  -->
<!DOCTYPE svg PUBLIC "-//W3C//DTD SVG 1.1//EN" "http://www.w3.org/Graphics/SVG/1.1/DTD/svg11.dtd">
<svg version="1.1" id="Layer_1" xmlns="http://www.w3.org/2000/svg" xmlns:xlink="http://www.w3.org/1999/xlink" x="0px" y="0px"
	 width="45px" height="45px" viewBox="0 0 45 45" enable-background="new 0 0 45 45" xml:space="preserve">
<path fill="#C4127C" d="M22.5,0C34.928,0,45,10.076,45,22.508C45,34.924,34.928,45,22.5,45S0,34.924,0,22.508
	C0,10.076,10.072,0,22.5,0z"/>
<path fill="#FFFFFF" d="M35.561,15.123c-1.705,1.53-3.867,2.479-6.486,2.849c-0.281,0.897-0.668,2.304-1.195,4.203
	c-0.51,1.986-0.773,3.376-0.773,4.168c0,0.826,0.316,1.248,0.932,1.248c0.949,0,1.811-0.668,2.584-2.022
	c0.896,0.615,2.303,1.53,4.201,2.761c-2.408,3.482-5.221,5.188-8.402,5.17c-1.318-0.035-2.479-0.439-3.48-1.248
	c-1.002-0.844-1.512-1.882-1.512-3.147c0-1.319,0.299-3.289,0.879-5.892c0.333-1.529,0.755-3.271,1.3-5.205h-2.813
	c-0.474,2.058-0.861,3.676-1.125,4.836c-0.475,1.706-0.95,3.148-1.406,4.309c-1.09,2.831-2.549,5.117-4.395,6.858
	c-0.756-0.826-2.127-2.163-4.096-3.975c1.354-1.055,2.548-2.919,3.621-5.574c0.861-2.251,1.406-4.467,1.652-6.683
	c-1.195,0.369-2.303,0.968-3.322,1.776l-2.286-4.871c1.23-0.914,2.531-1.495,3.92-1.776c0.65-0.07,2.092-0.105,4.307-0.105
	c1.669,0,3.27,0.018,4.763,0.035l4.201,0.07c2.408,0,4.131-0.633,5.168-1.917L35.561,15.123z"/>
</svg>
