<?xml version="1.0" encoding="utf-8"?>
<!-- Generator: Adobe Illustrator 16.0.3, SVG Export Plug-In . SVG Version: 6.00 Build 0)  -->
<!DOCTYPE svg PUBLIC "-//W3C//DTD SVG 1.1//EN" "http://www.w3.org/Graphics/SVG/1.1/DTD/svg11.dtd">
<svg version="1.1" id="Layer_1" xmlns="http://www.w3.org/2000/svg" xmlns:xlink="http://www.w3.org/1999/xlink" x="0px" y="0px"
	 width="45px" height="45px" viewBox="0 0 45 45" enable-background="new 0 0 45 45" xml:space="preserve">
<path fill="#8CC63F" d="M44.23,40.469L31.736,27.88c2.061-2.891,3.283-6.42,3.283-10.242C35.018,7.914,27.16,0,17.508,0
	C7.855,0,0,7.914,0,17.638c0,9.727,7.853,17.641,17.508,17.641c3.965,0,7.609-1.351,10.547-3.595L40.5,44.222
	c1.029,1.037,2.697,1.037,3.729,0C45.257,43.188,45.257,41.505,44.23,40.469z M25.251,28.859c-2.2,1.543-4.864,2.458-7.744,2.458
	c-7.479,0-13.578-6.137-13.578-13.681c0-7.542,6.091-13.679,13.578-13.679c7.486,0,13.582,6.137,13.582,13.679
	c0,2.728-0.806,5.264-2.173,7.397C27.945,26.537,26.706,27.837,25.251,28.859z"/>
</svg>
