<?xml version="1.0" encoding="utf-8"?>
<!-- Generator: Adobe Illustrator 16.0.3, SVG Export Plug-In . SVG Version: 6.00 Build 0)  -->
<!DOCTYPE svg PUBLIC "-//W3C//DTD SVG 1.1//EN" "http://www.w3.org/Graphics/SVG/1.1/DTD/svg11.dtd">
<svg version="1.1" id="Layer_1" xmlns="http://www.w3.org/2000/svg" xmlns:xlink="http://www.w3.org/1999/xlink" x="0px" y="0px"
	 width="45px" height="45px" viewBox="0 0 45 45" enable-background="new 0 0 45 45" xml:space="preserve">
<path fill="#3C3C3C" d="M44.229,40.468L31.736,27.88c2.059-2.892,3.281-6.421,3.281-10.241C35.016,7.913,27.16,0,17.506,0
	C7.854,0,0,7.913,0,17.639c0,9.724,7.853,17.638,17.506,17.638c3.965,0,7.61-1.35,10.547-3.594L40.5,44.223
	c1.027,1.036,2.695,1.036,3.729,0C45.258,43.188,45.258,41.505,44.229,40.468z M25.251,28.857c-2.201,1.543-4.865,2.459-7.745,2.459
	c-7.481,0-13.577-6.135-13.577-13.681c0-7.543,6.092-13.678,13.577-13.678c7.486,0,13.582,6.137,13.582,13.678
	c0,2.728-0.807,5.264-2.175,7.397C27.947,26.536,26.704,27.837,25.251,28.857z"/>
</svg>
