<?xml version="1.0" encoding="utf-8"?>
<!-- Generator: Adobe Illustrator 16.0.3, SVG Export Plug-In . SVG Version: 6.00 Build 0)  -->
<!DOCTYPE svg PUBLIC "-//W3C//DTD SVG 1.1//EN" "http://www.w3.org/Graphics/SVG/1.1/DTD/svg11.dtd">
<svg version="1.1" id="Layer_1" xmlns="http://www.w3.org/2000/svg" xmlns:xlink="http://www.w3.org/1999/xlink" x="0px" y="0px"
	 width="45px" height="45px" viewBox="0 0 45 45" enable-background="new 0 0 45 45" xml:space="preserve">
<g>
	<path fill="#FFFFFF" d="M12.954,44.114c-0.072-0.024-0.142-0.048-0.214-0.077c-9.758-3.781-7.282-16.99-5.936-21.554
		C10.371,10.404,18.501-1.121,25.176,0.087c0.761,0.141,1.423,0.415,2.001,0.807c-4.896,0.582-11.338,6.271-14.825,14.923
		C8.283,25.886,5.394,38.197,8.876,40.168c-1.495-3.195-1.177-8.031,1.754-15.294c4.845-12.009,18-24.435,23.846-22.171
		c5.85,2.268,6.739,13.951,1.889,25.962c-4.844,12.008-16.593,18.139-22.443,15.869C13.585,44.406,13.263,44.266,12.954,44.114"/>
</g>
</svg>
