<?xml version="1.0" encoding="utf-8"?>
<!-- Generator: Adobe Illustrator 16.0.3, SVG Export Plug-In . SVG Version: 6.00 Build 0)  -->
<!DOCTYPE svg PUBLIC "-//W3C//DTD SVG 1.1//EN" "http://www.w3.org/Graphics/SVG/1.1/DTD/svg11.dtd">
<svg version="1.1" id="Layer_1" xmlns="http://www.w3.org/2000/svg" xmlns:xlink="http://www.w3.org/1999/xlink" x="0px" y="0px"
	 width="45px" height="45px" viewBox="0 0 45 45" enable-background="new 0 0 45 45" xml:space="preserve">
<g>
	<path fill="#3C3C3C" d="M23.001,26.545"/>
	<path fill="#3C3C3C" d="M18,3v12.001c0,1.657-1.344,3-3.001,3h-12c-1.656,0-2.999-1.343-2.999-3C0,13.343,1.343,12,2.999,12H12V3
		c0-1.656,1.343-3,3-3C16.658,0.001,18,1.344,18,3z"/>
	<path fill="#3C3C3C" d="M42.001,18h-12c-1.657,0-3.002-1.344-3.002-3V3c0-1.656,1.343-3,3-3c1.655,0,2.999,1.344,2.999,3v9.002H42
		c1.656,0,2.999,1.343,2.999,3C45,16.658,43.657,18,42.001,18z"/>
	<path fill="#3C3C3C" d="M26.999,42.001V30c0-1.657,1.343-2.999,3-2.999h11.999c1.656,0,2.999,1.342,2.999,2.999
		c0,1.658-1.343,3-2.999,3h-9v9.001c0,1.656-1.344,2.999-2.999,2.999S26.999,43.657,26.999,42.001z"/>
	<path fill="#3C3C3C" d="M3,27.001h12c1.658,0,3,1.342,3,2.999v12.001C18,43.657,16.658,45,15,45c-1.655,0-3-1.343-3-2.999V33H3
		c-1.657,0-3-1.342-3-3C0.001,28.343,1.345,27.001,3,27.001z"/>
</g>
</svg>
