<?xml version="1.0" encoding="utf-8"?>
<!-- Generator: Adobe Illustrator 16.0.3, SVG Export Plug-In . SVG Version: 6.00 Build 0)  -->
<!DOCTYPE svg PUBLIC "-//W3C//DTD SVG 1.1//EN" "http://www.w3.org/Graphics/SVG/1.1/DTD/svg11.dtd">
<svg version="1.1" id="Layer_1" xmlns="http://www.w3.org/2000/svg" xmlns:xlink="http://www.w3.org/1999/xlink" x="0px" y="0px"
	 width="45px" height="45px" viewBox="0 0 45 45" enable-background="new 0 0 45 45" xml:space="preserve">
<g>
	<path fill="#FFFFFF" d="M44.935,18.874c-0.038-0.651-0.047-1.304-0.111-1.952c-0.063-0.64-0.094-1.282-0.163-1.922
		c-0.061-0.573-0.099-1.15-0.188-1.718c-0.094-0.591-0.254-1.172-0.427-1.748c-0.228-0.758-0.544-1.465-1.008-2.107
		c-0.253-0.35-0.569-0.633-0.896-0.906c-0.596-0.497-1.276-0.841-2.016-1.063c-0.37-0.111-0.753-0.174-1.141-0.22
		c-0.343-0.04-0.688-0.065-1.03-0.111c-0.338-0.045-0.682-0.046-1.023-0.066c-0.411-0.025-0.826-0.01-1.235-0.072
		c-0.029-0.004-0.059-0.005-0.088-0.003c-0.489,0.03-0.976-0.041-1.464-0.051c-1.101-0.023-2.199-0.108-3.301-0.127
		c-1.436-0.024-2.87-0.056-4.306-0.09c-0.063-0.001-0.19,0.081-0.197-0.082c-2.567,0-5.135,0-7.702,0
		c0.006,0.131-0.095,0.083-0.153,0.084c-0.484,0.011-0.967,0.017-1.451,0.024c-1.927,0.028-3.853,0.076-5.778,0.159
		c-0.691,0.03-1.382,0.056-2.073,0.086c-0.688,0.03-1.377,0.069-2.063,0.131C6.391,7.185,5.655,7.21,4.946,7.42
		c-1.689,0.501-2.962,1.484-3.667,3.141c-0.427,1.004-0.717,2.046-0.852,3.124c-0.129,1.038-0.195,2.083-0.272,3.127
		c-0.223,2.995-0.15,5.994-0.117,8.991c0.018,1.597,0.168,3.188,0.32,4.78c0.107,1.129,0.349,2.223,0.708,3.299
		c0.691,2.064,2.142,3.248,4.233,3.688c1.113,0.236,2.244,0.34,3.38,0.398c2.444,0.127,4.891,0.195,7.337,0.238
		c1.399,0.023,2.799,0.051,4.199,0.076c0.403,0.006,0.806,0.006,1.209,0.014c0.058,0,0.149-0.045,0.162,0.07
		c0.836,0,1.672,0,2.508,0c0.031-0.133,0.14-0.068,0.208-0.07c0.857-0.014,1.715-0.014,2.573-0.029
		c2.483-0.041,4.967-0.096,7.448-0.209c1.56-0.07,3.121-0.107,4.671-0.303c2.481-0.314,4.167-1.617,4.968-4.021
		c0.373-1.119,0.61-2.262,0.679-3.438c0.038-0.652,0.123-1.3,0.146-1.953c0.018-0.479,0.065-0.957,0.087-1.436
		c0.013-0.29,0.044-0.581,0.06-0.872c0.002-0.036-0.008-0.095,0.065-0.079c0-2.304,0-4.607,0-6.91
		C44.884,19.025,44.938,18.932,44.935,18.874z M17.863,28.314c0-4.203,0-8.378,0-12.584c4.036,2.105,8.051,4.198,12.102,6.311
		C25.912,24.143,21.895,26.225,17.863,28.314z"/>
</g>
</svg>
