<?xml version="1.0" encoding="utf-8"?>
<!-- Generator: Adobe Illustrator 16.0.3, SVG Export Plug-In . SVG Version: 6.00 Build 0)  -->
<!DOCTYPE svg PUBLIC "-//W3C//DTD SVG 1.1//EN" "http://www.w3.org/Graphics/SVG/1.1/DTD/svg11.dtd">
<svg version="1.1" id="Layer_1" xmlns="http://www.w3.org/2000/svg" xmlns:xlink="http://www.w3.org/1999/xlink" x="0px" y="0px"
	 width="45px" height="45px" viewBox="0 0 45 45" enable-background="new 0 0 45 45" xml:space="preserve">
<path fill="#BCBEC0" d="M5.778,0.002h33.447C42.402,0.002,45,2.601,45,5.778v33.447c0,3.176-2.598,5.772-5.775,5.772H5.778
	C2.601,44.998,0,42.4,0,39.225V5.778C0,2.601,2.601,0.002,5.778,0.002z M32.781,4.999c-1.115,0-2.025,0.915-2.025,2.029v4.846
	c0,1.117,0.91,2.027,2.025,2.027h5.086c1.113,0,2.025-0.91,2.025-2.027V7.028c0-1.114-0.912-2.029-2.025-2.029H32.781z
	 M39.913,19.03h-3.96c0.375,1.227,0.579,2.519,0.579,3.863c0,7.483-6.265,13.552-13.99,13.552c-7.724,0-13.988-6.068-13.988-13.552
	c0-1.345,0.206-2.637,0.58-3.863H5.002v19.01c0,0.983,0.804,1.784,1.788,1.784h31.335c0.984,0,1.788-0.801,1.788-1.784V19.03z
	 M22.542,13.646c-4.989,0-9.036,3.919-9.036,8.758c0,4.834,4.047,8.757,9.036,8.757c4.991,0,9.039-3.923,9.039-8.757
	C31.581,17.565,27.533,13.646,22.542,13.646z"/>
</svg>
