<?xml version="1.0" encoding="utf-8"?>
<!-- Generator: Adobe Illustrator 16.0.3, SVG Export Plug-In . SVG Version: 6.00 Build 0)  -->
<!DOCTYPE svg PUBLIC "-//W3C//DTD SVG 1.1//EN" "http://www.w3.org/Graphics/SVG/1.1/DTD/svg11.dtd">
<svg version="1.1" id="Layer_1" xmlns="http://www.w3.org/2000/svg" xmlns:xlink="http://www.w3.org/1999/xlink" x="0px" y="0px"
	 width="45px" height="45px" viewBox="0 0 45 45" enable-background="new 0 0 45 45" xml:space="preserve">
<path fill="#BCBEC0" d="M45,8.543c-1.654,0.735-3.436,1.231-5.303,1.454c1.906-1.142,3.371-2.951,4.06-5.107
	c-1.78,1.058-3.757,1.827-5.86,2.241c-1.687-1.795-4.086-2.916-6.742-2.916c-5.098,0-9.231,4.134-9.231,9.232
	c0,0.725,0.081,1.428,0.239,2.104c-7.673-0.384-14.475-4.059-19.03-9.647C2.339,7.27,1.884,8.855,1.884,10.547
	c0,3.202,1.629,6.03,4.105,7.684c-1.512-0.046-2.936-0.464-4.181-1.155v0.116c0,4.473,3.183,8.205,7.405,9.054
	c-0.774,0.21-1.592,0.324-2.432,0.324c-0.594,0-1.174-0.06-1.738-0.168c1.175,3.668,4.584,6.337,8.624,6.412
	c-3.158,2.478-7.138,3.953-11.466,3.953c-0.745,0-1.479-0.045-2.201-0.129c4.084,2.615,8.938,4.146,14.154,4.146
	c16.981,0,26.266-14.064,26.266-26.268c0-0.399-0.01-0.797-0.023-1.196C42.195,12.021,43.76,10.396,45,8.543z"/>
</svg>
