<?xml version="1.0" encoding="utf-8"?>
<!-- Generator: Adobe Illustrator 16.0.3, SVG Export Plug-In . SVG Version: 6.00 Build 0)  -->
<!DOCTYPE svg PUBLIC "-//W3C//DTD SVG 1.1//EN" "http://www.w3.org/Graphics/SVG/1.1/DTD/svg11.dtd">
<svg version="1.1" id="Warstwa_1" xmlns="http://www.w3.org/2000/svg" xmlns:xlink="http://www.w3.org/1999/xlink" x="0px" y="0px"
	 width="145px" height="134px" viewBox="0.096 -0.009 145 134" enable-background="new 0.096 -0.009 145 134" xml:space="preserve">
<g>
	<path fill="#D3DFE8" d="M39.165,3.993c13.389-1.947,16.618,8.299,47.258,17.939c30.513,9.576,41.498,3.862,50.803,14.236
		c11.996,13.342,5.824,36.197-0.032,48.006c-13.896,28.026-46.34,34.728-48.144,35.079c-36.432,6.927-81.442-15.512-88.089-50.528
		C-4.515,39.903,16.945,7.249,39.165,3.993z"/>
	<path fill="#01497C" d="M63.474,128.288c-0.348,0-0.664,0-1.012,0c-9.844-0.127-18.993-2.298-27.127-6.384
		C19.952,114.147,7.354,98.794,2.543,81.749c-3.134-11.012-2.469-21.003,1.835-28.088c3.545-5.842,8.167-7.438,15.827-10.087
		c6.71-2.331,15.921-5.522,28.741-13.215c11.869-7.118,18.738-13.215,24.31-18.098c6.963-6.129,11.142-9.863,19.371-10.055
		c18.93-0.447,34.439,18.609,40.611,29.94c15.194,27.834,0.316,55.795-0.317,56.977c-4.083,7.469-10.16,14.586-17.598,20.556
		c-7.249,5.809-15.859,10.564-24.848,13.788C81.643,126.628,72.306,128.288,63.474,128.288z M4.537,53.724l0.126,0.064
		C0.39,60.81-0.242,70.704,2.859,81.653c4.812,16.949,17.315,32.239,32.667,39.962c8.958,4.501,18.611,6.513,28.298,6.513
		c28.297,0,56.849-17.11,68.846-39.167c0.632-1.181,15.415-28.982,0.315-56.688C126.907,21.134,111.777,2.493,93.26,2.493
		c-0.221,0-0.443,0-0.633,0c-8.103,0.192-12.281,3.863-19.18,9.959c-5.255,4.629-12.471,11.012-24.342,18.131
		c-12.851,7.724-22.062,10.917-28.772,13.247c-7.597,2.617-12.187,4.213-15.668,9.959L4.537,53.724z"/>
	<path fill="#01497C" d="M68.476,134c-13.421,0-27.665-6.32-35.736-11.363C4.885,105.178,3.176,74.056,3.145,72.748
		C2.385,55.48,9.918,36.615,23.339,22.316c6.363-6.768,13.611-12.163,21.557-15.992c8.45-4.086,17.282-6.225,26.272-6.32
		C80.315-0.092,90,1.951,99.211,5.94c8.578,3.735,16.397,8.97,22.538,15.13c7.945,7.979,12.313,16.662,12.249,24.515h-0.158h0.158
		c-0.031,6.703-3.228,10.182-8.546,15.991c-4.653,5.076-11.015,12.002-18.168,24.515c-6.616,11.586-9.433,20.013-11.712,26.812
		c-2.849,8.522-4.589,13.662-11.648,17.524C79.207,132.948,73.92,134,68.476,134z M71.831,0.259c-0.222,0-0.443,0-0.664,0
		C53.726,0.45,36.823,8.366,23.561,22.475C10.203,36.711,2.67,55.48,3.43,72.685c0.063,1.307,1.74,32.27,29.469,49.635
		c11.268,7.053,34.692,16.629,50.866,7.756c6.964-3.831,8.672-8.938,11.522-17.365c2.152-6.447,5.095-15.257,11.743-26.844
		c7.153-12.544,13.548-19.502,18.201-24.578c5.254-5.746,8.419-9.193,8.45-15.768c0.033-7.756-4.271-16.375-12.186-24.291
		C108.549,8.239,89.588,0.259,71.831,0.259z"/>
</g>
</svg>
