<?xml version="1.0" encoding="utf-8"?>
<!-- Generator: Adobe Illustrator 16.0.3, SVG Export Plug-In . SVG Version: 6.00 Build 0)  -->
<!DOCTYPE svg PUBLIC "-//W3C//DTD SVG 1.1//EN" "http://www.w3.org/Graphics/SVG/1.1/DTD/svg11.dtd">
<svg version="1.1" id="Warstwa_1" xmlns="http://www.w3.org/2000/svg" xmlns:xlink="http://www.w3.org/1999/xlink" x="0px" y="0px"
	 width="154px" height="154px" viewBox="0 0 154 154" enable-background="new 0 0 154 154" xml:space="preserve">
<g>
	<path fill="#D4DCDF" d="M90.375,0.194c5.547,0.475,33.885,3.799,50.05,31.848c15.121,26.245,13.695,63.823-0.792,78.638
		c-13.152,13.393-28.749-0.349-49.035,15.829c-14.168,11.333-12.172,22.541-22.695,26.371
		c-19.051,6.966-53.474-19.627-61.208-50.209C-4.97,56.513,42.925-3.858,90.375,0.194z"/>
	<path fill="#012A4A" d="M86.286,150.505c-23.107,0-47.958-14.655-64.916-38.272C5.427,90.008,0.007,64.649,6.948,44.42l0.159,0.063
		L6.948,44.42c2.537-7.44,13.187-32.355,43.14-40.902C63.781-0.408,80.201-0.344,95.13,3.676
		c14.646,3.925,26.056,11.112,31.351,19.691c4.722,7.693,3.295,14.246,1.646,21.875c-1.743,8.073-3.74,17.222,1.902,29.473
		c3.707,8.073,8.463,12.473,12.267,15.987c4.058,3.769,7.29,6.743,7.894,12.442c0.729,6.806-2.694,14.814-9.637,22.539
		c-6.087,6.808-14.58,12.98-23.898,17.443c-10.049,4.813-20.51,7.376-30.209,7.409C86.382,150.505,86.318,150.505,86.286,150.505z
		 M71.833,0.954c-7.544,0-14.93,0.949-21.681,2.88C20.356,12.351,9.77,37.139,7.233,44.547c-6.91,20.134-1.521,45.396,14.392,67.525
		c16.894,23.521,41.649,38.117,64.661,38.117c0.063,0,0.096,0,0.159,0c21.935-0.064,42.854-12.475,53.854-24.727
		c6.878-7.66,10.27-15.574,9.541-22.285c-0.604-5.605-3.771-8.518-7.798-12.253c-3.835-3.546-8.59-7.946-12.33-16.083
		c-5.674-12.378-3.677-21.559-1.935-29.695c1.648-7.535,3.043-14.057-1.615-21.654c-5.262-8.515-16.61-15.638-31.158-19.532
		C87.491,1.966,79.598,0.954,71.833,0.954z"/>
	<path fill="#012A4A" d="M107.207,138.635c-5.864,0-10.557-2.597-15.785-5.509c-7.227-4.021-15.405-8.548-28.813-6.713
		c-8.812,1.203-14.39,4.464-18.859,7.092c-4.787,2.786-8.559,5.002-14.201,3.958c-6.72-1.268-13.408-6.87-18.796-15.734
		c-4.754-7.787-8.241-17.697-9.794-27.891c-1.712-11.018-1.11-21.749,1.647-31.025C9.23,40.652,30.499,21.056,58.108,11.654
		c25.928-8.833,51.792-6.648,69.164,5.857c6.402,4.59,27.197,21.971,26.722,53.09c-0.222,14.247-5.041,29.918-13.187,42.993
		c-8.021,12.852-18.193,21.686-27.957,24.248C110.82,138.381,108.95,138.635,107.207,138.635z M68.568,125.654
		c10.048,0,16.862,3.767,22.979,7.186c6.753,3.77,12.585,6.997,21.206,4.719c9.668-2.564,19.779-11.334,27.767-24.123
		c8.146-13.043,12.934-28.651,13.123-42.834c0.478-30.961-20.222-48.247-26.593-52.836C109.742,5.322,84.004,3.169,58.172,11.939
		C30.658,21.31,9.452,40.811,2.859,62.876c-6.275,20.99-0.443,44.574,8.115,58.663c5.356,8.77,11.949,14.311,18.605,15.574
		c5.516,1.046,9.256-1.139,14.01-3.893c4.501-2.629,10.08-5.921,18.987-7.123C64.669,125.781,66.698,125.654,68.568,125.654z"/>
</g>
</svg>
