<?xml version="1.0" encoding="utf-8"?>
<!-- Generator: Adobe Illustrator 16.0.3, SVG Export Plug-In . SVG Version: 6.00 Build 0)  -->
<!DOCTYPE svg PUBLIC "-//W3C//DTD SVG 1.1//EN" "http://www.w3.org/Graphics/SVG/1.1/DTD/svg11.dtd">
<svg version="1.1" id="Layer_1" xmlns="http://www.w3.org/2000/svg" xmlns:xlink="http://www.w3.org/1999/xlink" x="0px" y="0px"
	 width="11.999px" height="12.001px" viewBox="0 0 11.999 12.001" enable-background="new 0 0 11.999 12.001" xml:space="preserve">
<g>
	<path fill="#3E3C3C" d="M4.733,11.801c-0.042-0.012-0.107-0.026-0.192-0.042c-0.085-0.014-0.192-0.031-0.321-0.055
		c-0.006,0-0.034-0.006-0.082-0.016c-0.049-0.01-0.109-0.023-0.179-0.045c-0.07-0.021-0.144-0.047-0.22-0.082
		c-0.076-0.037-0.146-0.08-0.207-0.135c-0.013-0.006-0.039-0.018-0.079-0.032c-0.04-0.016-0.083-0.032-0.132-0.054
		c-0.049-0.021-0.094-0.038-0.133-0.053c-0.04-0.016-0.066-0.023-0.078-0.029C3,11.218,2.895,11.16,2.793,11.09
		c-0.101-0.071-0.198-0.146-0.29-0.223c-0.091-0.078-0.18-0.157-0.266-0.238C2.152,10.549,2.073,10.475,2,10.404
		c-0.294-0.268-0.557-0.55-0.79-0.847C0.979,9.262,0.779,8.936,0.614,8.579C0.48,8.296,0.373,8.033,0.294,7.8
		C0.214,7.565,0.152,7.335,0.11,7.106C0.067,6.877,0.039,6.641,0.023,6.398C0.008,6.155,0,5.876,0,5.563V4.895
		c0.08-0.339,0.171-0.658,0.275-0.958c0.104-0.3,0.231-0.585,0.381-0.858s0.322-0.535,0.518-0.783c0.196-0.25,0.425-0.49,0.688-0.72
		c0.19-0.179,0.385-0.334,0.586-0.463c0.202-0.131,0.42-0.25,0.652-0.357C3.119,0.75,3.145,0.74,3.178,0.721
		c0.034-0.019,0.072-0.034,0.11-0.049c0.04-0.014,0.075-0.028,0.105-0.04c0.032-0.012,0.053-0.02,0.064-0.027
		c0.019,0,0.064-0.005,0.138-0.013c0.073-0.008,0.116-0.013,0.128-0.013c0.019-0.013,0.055-0.038,0.11-0.076
		c0.055-0.039,0.089-0.064,0.101-0.075c0.007,0,0.026-0.003,0.06-0.009C4.029,0.413,4.064,0.404,4.1,0.396
		C4.138,0.388,4.17,0.38,4.201,0.374c0.03-0.006,0.049-0.013,0.055-0.018c0.024-0.006,0.08-0.02,0.165-0.04
		C4.507,0.295,4.6,0.273,4.697,0.249c0.099-0.023,0.191-0.044,0.28-0.067c0.088-0.02,0.145-0.03,0.17-0.03
		c0.049-0.019,0.138-0.034,0.266-0.049c0.129-0.014,0.266-0.028,0.414-0.04C5.973,0.05,6.109,0.039,6.241,0.026
		C6.373,0.015,6.471,0.006,6.531,0h0.11c0.03,0,0.062,0.001,0.095,0.005c0.034,0.003,0.062,0.004,0.08,0.004
		C6.951,0.015,7.073,0.02,7.184,0.026C7.294,0.033,7.409,0.05,7.532,0.08c0.172,0.042,0.346,0.081,0.523,0.116
		c0.177,0.036,0.352,0.065,0.522,0.089c0.043,0.018,0.113,0.05,0.214,0.099C8.894,0.43,9,0.483,9.113,0.544
		c0.113,0.059,0.221,0.115,0.318,0.167c0.098,0.054,0.165,0.093,0.201,0.116c0.019,0.012,0.064,0.055,0.141,0.13
		c0.077,0.074,0.163,0.156,0.254,0.244c0.092,0.089,0.181,0.178,0.267,0.267c0.085,0.089,0.149,0.157,0.192,0.206
		c0.007,0.012,0.024,0.039,0.055,0.08c0.03,0.042,0.064,0.09,0.104,0.146s0.079,0.111,0.119,0.165
		c0.04,0.052,0.073,0.097,0.098,0.133c0.221,0.327,0.4,0.649,0.545,0.97c0.143,0.32,0.26,0.645,0.346,0.974
		c0.084,0.329,0.146,0.667,0.186,1.014c0.039,0.348,0.061,0.709,0.061,1.082v0.035c-0.012,0.102-0.025,0.238-0.042,0.414
		c-0.015,0.175-0.03,0.35-0.045,0.521c-0.017,0.172-0.028,0.327-0.04,0.463c-0.014,0.136-0.021,0.217-0.027,0.241
		c-0.043,0.303-0.11,0.59-0.199,0.862c-0.088,0.273-0.196,0.544-0.324,0.812c-0.115,0.142-0.211,0.26-0.281,0.357
		c-0.07,0.1-0.141,0.193-0.214,0.286c-0.074,0.091-0.16,0.193-0.255,0.302c-0.094,0.11-0.223,0.249-0.388,0.415
		c-0.215,0.155-0.443,0.297-0.686,0.427c-0.241,0.132-0.488,0.244-0.745,0.34c-0.257,0.094-0.521,0.168-0.787,0.222
		C7.7,11.987,7.44,12.01,7.184,11.997c-0.024,0-0.067,0-0.126,0c-0.057,0-0.122-0.003-0.192-0.006
		c-0.07-0.004-0.135-0.006-0.193-0.01c-0.057-0.002-0.097-0.002-0.121-0.002c-0.012-0.012-0.034-0.023-0.064-0.037
		c-0.031-0.01-0.052-0.016-0.064-0.016c-0.012,0-0.039,0.002-0.082,0.008c-0.044,0.007-0.092,0.012-0.145,0.021
		c-0.052,0.008-0.101,0.018-0.146,0.023s-0.073,0.006-0.085,0c-0.025,0-0.082-0.006-0.171-0.016
		c-0.089-0.008-0.184-0.021-0.287-0.035c-0.104-0.016-0.203-0.025-0.291-0.039c-0.089-0.012-0.142-0.021-0.161-0.025H4.963
		L4.733,11.801z M3.532,5.686c0.006,0.167,0.021,0.33,0.046,0.49s0.07,0.317,0.137,0.472c0,0.012,0.015,0.045,0.047,0.098
		c0.03,0.054,0.045,0.085,0.045,0.099c0.025,0.077,0.048,0.16,0.073,0.248c0.025,0.089,0.05,0.18,0.079,0.268
		c0.027,0.089,0.06,0.176,0.096,0.258C4.091,7.7,4.138,7.774,4.193,7.841C4.21,7.858,4.241,7.888,4.284,7.933
		c0.042,0.044,0.085,0.09,0.128,0.135C4.456,8.11,4.495,8.151,4.532,8.19c0.036,0.038,0.061,0.063,0.074,0.067
		c0.006,0.006,0.026,0.022,0.06,0.045c0.033,0.024,0.073,0.048,0.119,0.075c0.047,0.026,0.092,0.056,0.138,0.085
		s0.084,0.052,0.115,0.063l0.093,0.063c0.018,0.012,0.057,0.038,0.118,0.079C5.31,8.71,5.346,8.73,5.358,8.73
		C5.371,8.743,5.401,8.754,5.45,8.769c0.048,0.016,0.088,0.023,0.119,0.023c0.129,0.061,0.224,0.093,0.288,0.103
		c0.063,0.009,0.119,0.009,0.165,0c0.046-0.01,0.094-0.019,0.146-0.028C6.22,8.858,6.303,8.865,6.413,8.882
		c0.006,0,0.027-0.003,0.063-0.006C6.514,8.872,6.554,8.87,6.596,8.865C6.64,8.858,6.682,8.853,6.725,8.847s0.076-0.014,0.102-0.02
		c0.287-0.039,0.557-0.136,0.808-0.283c0.25-0.148,0.467-0.332,0.653-0.552c0.187-0.221,0.334-0.466,0.438-0.735
		C8.829,6.986,8.88,6.712,8.88,6.435c0-0.019,0-0.092,0.004-0.22c0.004-0.126,0.019-0.35,0.043-0.67
		c0-0.155-0.033-0.306-0.098-0.454c-0.064-0.149-0.12-0.3-0.168-0.454c-0.087-0.238-0.228-0.438-0.42-0.602
		C8.05,3.873,7.851,3.723,7.643,3.587c-0.129-0.083-0.248-0.153-0.354-0.21C7.181,3.321,7.073,3.275,6.963,3.239
		c-0.11-0.035-0.227-0.062-0.346-0.08C6.499,3.141,6.364,3.13,6.211,3.124C6.07,3.117,5.949,3.116,5.844,3.119
		C5.741,3.122,5.618,3.138,5.478,3.168c-0.152,0.029-0.312,0.07-0.479,0.123C4.834,3.346,4.677,3.412,4.527,3.493
		c-0.15,0.08-0.284,0.176-0.403,0.289C4.004,3.894,3.917,4.025,3.862,4.173L3.707,4.601c-0.038,0.048-0.07,0.116-0.101,0.204
		c-0.032,0.09-0.055,0.187-0.074,0.291C3.513,5.198,3.504,5.302,3.504,5.407C3.504,5.51,3.513,5.603,3.532,5.686z"/>
</g>
</svg>
