<?xml version="1.0" encoding="utf-8"?>
<!-- Generator: Adobe Illustrator 16.0.3, SVG Export Plug-In . SVG Version: 6.00 Build 0)  -->
<!DOCTYPE svg PUBLIC "-//W3C//DTD SVG 1.1//EN" "http://www.w3.org/Graphics/SVG/1.1/DTD/svg11.dtd">
<svg version="1.1" id="Layer_1" xmlns="http://www.w3.org/2000/svg" xmlns:xlink="http://www.w3.org/1999/xlink" x="0px" y="0px"
	 width="52px" height="26px" viewBox="0 0 52 26" enable-background="new 0 0 52 26" xml:space="preserve">
<g>
	<g>
		<path fill="#231F20" d="M3.158,5.297C3.054,5.316,3.092,5.102,3.076,5.063C3.248,5.111,3.154,5.352,3.158,5.297z"/>
		<polygon fill="#231F20" points="4.862,5.781 4.833,5.694 5.084,5.907 		"/>
		<path fill="#231F20" d="M6.459,5.777C6.307,6.142,5.88,5.719,5.596,5.848L5.549,5.931L5.421,5.638
			C5.766,5.685,6.215,5.879,6.459,5.777z"/>
		<path fill="#231F20" d="M7.309,4.991C7.256,5.133,7.493,5.113,7.11,5.035C7.125,5.02,7.135,5.011,7.145,5
			C7.18,5.001,7.227,5.001,7.309,4.991z"/>
		<path fill="#231F20" d="M7.145,5C6.978,4.989,7.256,4.88,7.145,5L7.145,5z"/>
		<path fill="#231F20" d="M7.921,5.081L7.7,4.954c0.047-0.083,0.244-0.102,0.171-0.163C8.097,4.86,8.05,4.943,7.921,5.081z"/>
		<path fill="#231F20" d="M8.131,5.346L8.017,5.292C8.038,5.257,8.068,5.245,8.131,5.346z"/>
		<path fill="#231F20" d="M7.774,5.179l0.243,0.113C7.986,5.351,7.982,5.469,7.906,5.251C7.925,5.359,7.876,5.256,7.774,5.179z"/>
		<path fill="#231F20" d="M7.636,5.235C7.512,5.314,7.351,5.364,7.573,5.49C7.15,5.44,7.212,5.184,7.636,5.235z"/>
		<path fill="#231F20" d="M6.54,6.154L6.374,6.259L6.23,6.137C6.302,6.199,6.55,6.039,6.54,6.154z"/>
		<path fill="#231F20" d="M9.3,4.892C9.313,4.97,9.225,5.098,9.209,5.197L9.045,5.108C9.13,5.056,9.289,5.007,9.3,4.892z"/>
		<path fill="#231F20" d="M9.209,5.197l0.244,0.133C9.235,5.346,9.195,5.282,9.209,5.197z"/>
		<polygon fill="#231F20" points="8.171,5.75 7.769,5.47 8.249,5.753 		"/>
		<polygon fill="#231F20" points="10.233,4.883 10.095,4.704 10.343,4.974 		"/>
		<path fill="#231F20" d="M10.852,4.914c-0.102-0.148,0.143-0.251,0.033-0.342c0.168,0.026,0.313,0.153,0.44,0.267
			C11.189,4.776,11.043,4.792,10.852,4.914z"/>
		<path fill="#231F20" d="M11.544,5.007c-0.068-0.036-0.139-0.099-0.218-0.168C11.4,4.875,11.471,4.924,11.544,5.007z"/>
		<path fill="#231F20" d="M9.87,5.292c0.019-0.047,0.055-0.169,0.192-0.221L9.967,5.288C9.937,5.29,9.904,5.291,9.87,5.292z"/>
		<path fill="#231F20" d="M9.963,5.296l0.004-0.008c0.103-0.006,0.176-0.009,0.207-0.012C10.147,5.279,10.085,5.285,9.963,5.296z"/>
		<path fill="#231F20" d="M9.845,6.5H9.87C9.86,6.5,9.855,6.5,9.845,6.5z"/>
		<path fill="#231F20" d="M8.811,5.552C8.956,5.674,9.255,5.805,8.966,5.99C8.862,5.842,9.028,5.736,8.811,5.552z"/>
		<path fill="#231F20" d="M9.726,5.564l-0.259,0.05c0.004-0.058,0.051-0.141-0.02-0.202L9.726,5.564z"/>
		<polygon fill="#231F20" points="9.853,5.634 9.726,5.564 9.823,5.547 		"/>
		<path fill="#231F20" d="M11.098,5.21c0.112,0.096,0.235,0.104,0.373,0.118c-0.147,0.044-0.301,0.066-0.447,0.066
			C11.005,5.326,10.939,5.203,11.098,5.21z"/>
		<path fill="#231F20" d="M10.547,5.271l0.025,0.013C10.556,5.302,10.544,5.308,10.547,5.271z"/>
		<polygon fill="#231F20" points="12.837,5.327 12.814,5.367 12.809,5.329 		"/>
		<path fill="#231F20" d="M11,5.434c-0.112,0.042-0.179-0.012-0.241-0.079c0.081,0.022,0.171,0.036,0.266,0.039
			C11.034,5.425,11.035,5.445,11,5.434z"/>
		<path fill="#231F20" d="M11.924,5.108c-0.057,0.046-0.124,0.084-0.193,0.12C11.788,5.159,11.904,5.052,11.924,5.108z"/>
		<path fill="#231F20" d="M10.609,5.224l-0.017-0.01C10.629,5.167,10.625,5.19,10.609,5.224z"/>
		<path fill="#231F20" d="M10.609,5.224c0.057,0.031,0.103,0.084,0.149,0.132c-0.069-0.016-0.132-0.04-0.187-0.072
			C10.587,5.269,10.598,5.245,10.609,5.224z"/>
		<path fill="#231F20" d="M13.251,6.725c-0.02-0.203-0.314-0.389-0.567-0.173c-0.249-0.15-0.086-0.814,0.131-1.185
			c0.009,0.088,0.009,0.169,0.266,0.289c-0.091,0.109-0.568,0.257-0.353,0.44c0.339,0.104,0.278-0.072,0.443-0.178
			c-0.14,0.251,0.432,0.365,0.359,0.735l-0.299-0.13C13.224,6.58,13.334,6.671,13.251,6.725z"/>
		<path fill="#231F20" d="M12.326,5.386l-0.106-0.024c0.121-0.035,0.207-0.116,0.366-0.274c0.177,0.099,0.213,0.174,0.224,0.241
			l-0.52,0.028L12.326,5.386z"/>
		<path fill="#231F20" d="M11.746,5.362c0.084,0.219,0.338,0.312,0.182,0.549c-0.311-0.015-0.217-0.183-0.403-0.278
			c0.501,0.055-0.143-0.122,0.219-0.247c-0.1-0.037-0.187-0.048-0.271-0.058c0.091-0.026,0.179-0.06,0.259-0.1l-0.01,0.014
			l-0.003-0.001v0.004c-0.022,0.027-0.028,0.043-0.005,0.027l0.01,0.005c0.005,0.031,0.014,0.057,0.023,0.083
			c0.146-0.046,0.024-0.057-0.023-0.083l-0.005-0.032l0.003-0.002l0.499,0.119C12.114,5.393,11.981,5.386,11.746,5.362z"/>
		<path fill="#231F20" d="M9.232,6.462c0.017-0.02,0.016-0.035,0.017-0.051C9.281,6.438,9.294,6.456,9.232,6.462z"/>
		<path fill="#231F20" d="M9.437,6.329c-0.034-0.03-0.065-0.118-0.184-0.096c-0.104,0.066,0,0.105-0.005,0.178
			c-0.072-0.059-0.25-0.158-0.026-0.264l0.035,0.03c0.203-0.076,0.461-0.35,0.427-0.38C9.624,5.995,9.572,6.136,9.437,6.329z"/>
		<path fill="#231F20" d="M10.606,5.901l0.418,0.108l-0.213,0.189l0.012-0.113C10.586,6.13,10.636,5.99,10.606,5.901z"/>
		<polygon fill="#231F20" points="12.885,5.217 12.83,4.986 13.071,5.313 		"/>
		<polygon fill="#231F20" points="13.427,5.246 13.406,5.043 13.551,5.166 		"/>
		<path fill="#231F20" d="M13.077,23.371l-0.123-0.058C13.013,23.331,13.052,23.351,13.077,23.371z"/>
		<path fill="#231F20" d="M13.965,23.357l0.021,0.1C13.946,23.402,13.928,23.362,13.965,23.357z"/>
		<path fill="#231F20" d="M20.795,13.752c0.188,0.179,0.481,0.378,0.254,0.356l-0.22-0.055
			C20.867,13.929,20.844,13.834,20.795,13.752z"/>
		<path fill="#231F20" d="M19.476,22.863l-0.067-0.057c0.076-0.037,0.146-0.072,0.212-0.104
			C19.575,22.752,19.527,22.807,19.476,22.863z"/>
		<path fill="#231F20" d="M18.562,22.809c0-0.003,0.143,0.161,0.143,0.166C18.655,22.929,18.607,22.872,18.562,22.809z"/>
		<path fill="#231F20" d="M8.229,23.138l-0.142-0.226C8.311,22.913,8.212,23.026,8.229,23.138z"/>
		<path fill="#231F20" d="M19.851,5.327c0.313-0.085,0.555-0.123,0.744-0.133C20.162,5.321,19.799,5.511,19.851,5.327z"/>
		<path fill="#231F20" d="M13.427,25.716c-0.074-0.04-0.107-0.085-0.104-0.135C13.399,25.619,13.442,25.661,13.427,25.716z"/>
		<path fill="#231F20" d="M20.869,5.668c-0.021-0.026-0.033-0.061-0.052-0.09c0.021-0.125,0.04-0.252,0.05-0.382
			c-0.077-0.006-0.168-0.008-0.271-0.002c0.12-0.036,0.243-0.067,0.357-0.082C20.978,5.244,20.966,5.429,20.869,5.668z"/>
		<path fill="#231F20" d="M2.744,13.749c-0.01-0.014-0.015-0.028-0.026-0.04C2.748,13.704,2.749,13.723,2.744,13.749z"/>
		<path fill="#231F20" d="M0.515,8.628c-0.014,0.05-0.014,0.132-0.018,0.21C0.482,8.799,0.484,8.736,0.515,8.628z"/>
		<path fill="#231F20" d="M15.608,5.149C15.494,5.134,15.59,5.124,15.608,5.149L15.608,5.149z"/>
		<path fill="#231F20" d="M15.051,6.023c0.023,0.025,0.042,0.056,0.044,0.107C15.085,6.077,15.069,6.043,15.051,6.023z"/>
		<path fill="#231F20" d="M21.318,7.973v0.01C21.318,7.961,21.318,7.965,21.318,7.973z"/>
		<path fill="#231F20" d="M15.435,5.25c0.044-0.027,0.093-0.05,0.146-0.066C15.558,5.202,15.514,5.223,15.435,5.25z"/>
		<path fill="#231F20" d="M15.458,5.146c-0.039,0.009-0.069,0.015-0.1,0.021C15.344,5.129,15.357,5.106,15.458,5.146z"/>
		<path fill="#231F20" d="M15.768,5.162c-0.065-0.004-0.126,0.006-0.187,0.022c0.023-0.015,0.032-0.027,0.026-0.035
			C15.642,5.152,15.691,5.155,15.768,5.162z"/>
		<path fill="#231F20" d="M2.152,22.979l-0.02-0.01C2.224,22.87,2.209,22.907,2.152,22.979z"/>
		<polygon fill="#231F20" points="18.502,16.744 18.511,16.731 18.518,16.748 		"/>
		<path fill="#231F20" d="M18.337,17.157c0.274-0.176,0.242-0.276,0.182-0.409l0.639,0.137L18.337,17.157z"/>
		<path fill="#231F20" d="M10.952,23.308l0.291-0.199c-0.351-0.325-0.604-0.214-0.332-0.492c0.041,0.691,1.128,0.071,1.168,0.761
			l0.191-0.146c-0.056,0.008-0.065-0.033-0.117-0.025c0.37-0.332,0.276,0.499,0.755,0.401c0.167-0.054,0.283-0.154,0.169-0.236
			l0.371,0.171c0.11-0.013,0.082-0.134-0.024-0.12l0.567,0.055l-0.006-0.02c0.083,0.108,0.266,0.276,0.354,0.348
			c0.146-0.1-0.072-0.073-0.035-0.16l0.315,0.168c0.127-0.18-0.134-0.354-0.351-0.327c0.293-0.691,0.261,0.174,0.896-0.23
			l-0.298-0.086c0.19-0.394,0.423-0.252,0.757-0.495c-0.079,0.127-0.671,0.615-0.329,0.788c0.096-0.053,0.223-0.077,0.406,0.062
			c0.002-0.246,0.182-0.185,0.406-0.171l-0.015-0.326c0.243,0.095,0.224,0.26,0.367,0.407c0.27-0.033,0.326-0.285,0.391-0.498
			c0.433-0.051-0.301,0.405,0.214,0.467c0.179-0.063,0.333-0.06,0.495-0.019c0.069,0.056,0.163,0.129,0.278,0.223
			c0.084-0.113-0.08-0.201-0.065-0.294c-0.008,0,0.18,0.26,0.187,0.26c0.025-0.006-0.02-0.086-0.04-0.126
			c0.135,0.102,0.145,0.326,0.376,0.414c0.256,0.308,0.096-0.295,0.291-0.22c0.013-0.019,0.045-0.016,0.104,0.007
			c-0.092-0.132-0.2-0.158-0.326-0.291c0.268-0.004,0.194-0.012,0.555-0.072c0-0.012-0.214-0.321-0.214-0.31
			c0.244,0.244,0.534,0.161,0.771-0.111c0.117,0.104,0.222,0.213,0.271,0.284l0.175-0.513c-0.053-0.064-0.165-0.009-0.301,0.067
			c0.026-0.031,0.054-0.062,0.077-0.088c-0.12-0.168-0.308-0.075-0.49,0.032c0.064,0.051,0.134,0.105,0.201,0.16
			c-0.198,0.09-0.417,0.118-0.606,0.061c0.037-0.01,0.069-0.043,0.087-0.083c-0.054,0.013-0.103,0.018-0.134,0.004
			c-0.035-0.016,0.037-0.031,0.121-0.076l-0.363-0.077l0.145-0.011l-0.229-0.6c0.365-0.433,0.905-0.809,1.054-1.494
			c-0.266,0.17-0.436,0.036-0.751,0.046c0.334,0.187-0.142,0.531-0.072,0.887c-0.037-0.186-0.187-0.145-0.238-0.098l0.304-0.634
			c-0.259,0.014-0.194-0.136-0.301-0.301c0.509,0.125,0.341-0.474,0.497-0.732c-0.172-0.015-0.348,0.046-0.306,0.362
			c-0.383-0.349,0.599-0.449,0.273-0.791c-0.005,0.077,0.022,0.118-0.065,0.149c0.151-0.181,0.032-0.619-0.117-0.517l-0.004,0.077
			c-0.06-0.511-0.004-1.554,0.431-1.631c-0.058-0.004-0.522,0.067-0.611,0.098l1.458-0.911c-0.373,0.081-1.258-0.228-1.469,0.196
			c-0.052-0.121-0.114-0.271,0.018-0.528c0.052,0.083,0.537,0.207,0.571,0.094c-0.415-0.311-0.221-0.217-0.574-0.6
			c0.08,0.125,0.663-0.014,0.645-0.211c-0.088,0.031-0.577-0.017-0.637,0.056l0.571-0.488c-0.102,0.121-0.484,0.021-0.646-0.089
			c0.111,0.052-0.011-0.422,0.045-0.553l0.133,0.207c-0.087-0.552,0.807-0.545,0.776-1.093c-0.119,0.066-0.729,0.164-0.801-0.114
			c0.294-0.128,1.41-0.566,1.636-1.051l-0.166-0.093l0.19-0.372c-0.441,0.231-1.37,0.882-1.732,1.237
			c-0.132-0.208-0.196-0.058-0.182-0.368c-0.158-0.108-0.238,0.169-0.249,0.26l-0.101-0.72c0.343,0.031,0.344-0.55,0.628-0.523
			l-0.354,0.782c0.342,0.033,0.971-0.453,0.911-0.963c-0.137-0.129-0.609,0.098-0.724,0.087c0.118-0.066,0.226-0.484,0.142-0.531
			l-0.184,0.216c-0.128-0.285,0.455-0.464,0.128-0.806c-0.022-0.118-0.441-0.352-0.239-0.372c0.392,0.191,1.601,0.23,1.894,0.102
			c-0.026-0.042-0.374-0.619-0.566-0.753C19.34,9.35,18.914,9.835,18.651,9.67c0.094-0.008,0.21-0.114,0.247-0.16
			c-0.081-0.123-0.29,0.051-0.248-0.217c0.348-0.045-0.029-0.547,0.294-0.127c0.099-0.263-0.072-0.28-0.058-0.589
			c0.226,0.092,0.764-0.244,0.863-0.593c-0.089,0.036-0.203,0.001-0.257-0.011c-0.029-0.532-0.188-0.695-0.191-1.126
			c-0.028,0.014-0.059,0.009-0.094,0.01c-0.132,0.064-0.261,0.143-0.305,0.24c0.009-0.061,0.061-0.179-0.059-0.187
			c-0.462,0.3,0.217,0.046-0.259,0.406c0.17-0.201-0.04-0.278-0.154-0.404c0.231-0.312,0.5-0.06,0.532,0.066
			c0.423-0.429,0.423-0.879-0.213-1.078c-0.516-0.107-0.333,0.277-0.406,0.216c-0.947,0.075-0.813-0.751-1.458-0.44
			c-0.258,0.273-0.012,0.544-0.068,0.742c0.341,0.104,0.521-0.174,0.753-0.163l-0.284,0.129c0.109,0.09,0.331,0.16,0.466,0.081
			c-0.23,0.246-1.33,0.047-1.938,0.275c-0.107-0.092-0.293-0.188-0.206-0.297l0.191,0.039c0.177-0.221-0.36-0.306-0.116-0.409
			c-0.259-0.155-0.546-0.399-0.907-0.275L14.71,6.111c0.007-0.092,0.235-0.187,0.336-0.091c-0.149-0.139-0.555,0.422-0.719,0.014
			l0.253-0.216c-0.259-0.158-0.577-0.489-0.897-0.39c0.146-0.309,0.074,0.035,0.302-0.326c-0.197,0.449,0.819-0.019,0.504,0.453
			c0.233-0.417,0.404-0.176,0.709-0.534c-0.009,0.103-0.107,0.197,0.161,0.146c0.013,0.03,0.041,0.068,0.061,0.091l0.017-0.007
			l-0.015,0.012c0.012,0.015,0.012,0.019-0.005,0.004c-0.064,0.044-0.117,0.099-0.137,0.156c0.131,0.236,0.561,0.229,0.706,0.352
			c0.159-0.05-0.067-0.118,0.02-0.229l0.217,0.183c0.021-0.229,0.424-0.379,0.047-0.514l0.338-0.01
			c0.2-0.128,0.476-0.179,0.644-0.083c0.16-0.049,0.403,0.254,0.265,0.075c-0.054,0,0.852,0.142,0.825,0.142l0.022-0.057
			c0.816-0.026,1.343,0.292,2.345,0.076c0.027,0.078,0.064,0.151,0.11,0.221c-0.058,0.349-0.128,0.683-0.063,1.12l0.197-0.012
			c-0.068,0.401,0.197,1.129-0.009,1.341c0.135,0.083,0.208,0.266,0.245,0.48c0.037,0.121,0.038,0.262,0.025,0.41
			c-0.027,0.293-0.106,0.607-0.059,0.806l-0.259,0.015c0.015,0.275-0.059,0.538-0.162,0.878l-0.229-0.021
			c-0.188,0.293,0.162,0.754,0.139,1.218c0.087-0.031,0.065-0.149,0.012-0.232c0.516,0.555-0.375,1.17,0.001,1.672
			c-0.084,0.125-0.055,0.216,0.002,0.305c0-0.012,0.006-0.022,0.012-0.031c0.004,0.013,0.004,0.031,0.004,0.051
			c0.038,0.057,0.085,0.113,0.12,0.175c-0.056-0.053-0.101-0.103-0.121-0.146c-0.005,0.097-0.034,0.243-0.091,0.388l0.246,0.061
			c-0.003,0.013-0.005,0.019-0.008,0.033c0.09,0.141-0.116,0.113-0.301,0.038c-0.039,0.071-0.09,0.139-0.148,0.189
			c0.397,0.115-0.133,0.377,0.29,0.534c-0.206,0.097-0.155,0.722-0.589,0.799c0.057,0.004,0.084,0.048,0.087-0.031
			c0.05,0.16,0.1,0.321-0.022,0.464l0.311,0.068l-0.419,0.35c0.19,0.213,0.3,0.301,0.541,0.09c-0.369,0.51-0.14,0.413-0.504,0.847
			l0.2-0.021c-0.007,0.155-0.278,0.403-0.111,0.496c0.383,0.346,0.054,1.713,0.41,2.603c-0.595-0.172,0.266,0.414-0.193,0.448
			c0.139,0.053,0.219,0.177,0.34,0.033c-0.138,0.453,0.223,0.681-0.165,0.994c0.141,0.052,0.206-0.098,0.289-0.051
			c-0.029,0.036-0.121,0.145-0.038,0.191c0.083,0.046,0.118-0.066,0.179-0.138c-0.023,0.463-0.456,0.511-0.861,0.544
			c0.191,0.251,0.164,0.489-0.102,0.63c0.133,0.127,0.271,0.37,0.319-0.026c0.019,0.205,0.195,1.535-0.131,1.327
			c0.082,0.127,0.023,0.327-0.014,0.351c0.012,0.214,0.019,0.35,0.025,0.451c-0.166,0.009-0.297,0.012-0.591-0.007l0.089-0.053
			c-0.494-0.393-0.435-0.088-0.842-0.135l0.032,0.04c-0.753,0.282-0.379-0.136-1.179,0.187l0.029-0.243
			c-0.124-0.526-0.604,0.31-0.992,0.109l0.137-0.141c-0.206-0.179-0.576,0.715-0.783,0.781c-0.046,0.046,0.071,0.073,0.135,0.106
			c-0.544,0.31-0.071-0.319-0.476-0.394c-0.074,0.173,0.096,0.438-0.177,0.471c-0.135,0.14-0.789-0.561-1.161-0.229
			c0.083-0.133,0.165-0.267-0.024-0.366c-0.287-0.047-0.778,0.503-1.037,0.084c-0.037,0.036-0.051,0.07-0.052,0.104
			c-0.222-0.107-0.716-0.18-0.849-0.406c-0.203,0.843-1.367-0.41-1.362,0.367l-0.678-0.041l0.019,0.079
			c-0.433,0.051-0.587-0.135-0.738-0.321c-0.1,0.053-0.027,0.125-0.019,0.166C9.062,25.581,9,25.548,8.47,25.161l-0.056,0.253
			c-0.144-0.147-0.914,0.395-1.533,0.101c0.005,0.028,0.018,0.078,0.067,0.113c-0.698-0.296-1.671,0.699-1.925-0.219l-0.461-0.227
			c0.596-0.072-0.088-0.399,0.156-0.553c-0.234-0.053-0.604,0.277-0.317,0.325l0.046-0.046c0.104,0.479-0.741,0.17-0.725,0.496
			L3.03,25.414l-0.821,0.04c-0.575,0.043-1.156,0.084-1.723,0.125c-0.044-0.555-0.082-1.138-0.09-1.733c0,0,0.373,0.021,0.373,0.022
			l-0.022-0.518c-0.087-0.112-0.291-0.129-0.276,0.285c-0.211-0.168,0.177-0.737,0.259-0.732c-0.152-0.769-0.435,0.346-0.444,0.118
			l0.029-0.357l0.042,0.078c0.153-0.272,0.314-0.223,0.296-0.571c-0.075-0.207-0.23-0.106-0.244-0.188
			c-0.027,0.001-0.04-0.026-0.011-0.126l-0.031-0.48l0.293,0.192c0.145-0.214-0.015-0.454,0.318-0.231
			c-0.515-0.327-0.186-1.8-0.344-2c0.215-0.3,0.21-0.596,0.185-0.962c0.061,0.091,0.392,0.146,0.351-0.17
			c-0.682,0.114-0.296-0.579-0.787-0.834c0.326,0.228,0.081-0.897,0.543-0.54C0.87,16.568,0.67,16.815,0.51,16.615
			c0.265-0.628-0.171-1.383-0.083-2.158c0.089-0.012,0.228,0.117,0.36-0.049l-0.448-0.409c0.044-0.153,0.518-0.141,0.207-0.42
			c0.075,0.039,0.189,0.098,0.216-0.005C0.327,12.054,1.12,10.47,0.3,8.927c0.174,0.209,0.191,0.07,0.198-0.089
			c0.041,0.104,0.221-0.002,0.343,0.018L0.504,8.21c0.335-0.118,0.022-0.692,0.344-0.76L0.789,7.654
			C1.17,7.382,1.635,8.035,2.122,7.995C1.691,8.3,2.762,8.798,2.145,9.298c0.099,0.111,0.157-0.094,0.27-0.035
			C2.206,9.39,2.162,9.543,2.255,9.826l0.052-0.032C2.257,10.59,2.463,10.932,2.6,11.827L2.359,11.76
			c0.032,0.193,0.108,0.234,0.169,0.323c-0.367,0.22-0.021-0.54-0.425-0.34c0.491,0.255,0.008,1.357,0.565,1.528
			c0.004,0.296-0.279-0.087-0.275,0.209l0.15,0.078l-0.194,0.076c0.032,0.192,0.221,0.291,0.348,0.299
			c-0.015-0.048,0.036-0.135,0.047-0.185C2.922,14,2.683,14.458,2.741,14.544l-0.093-0.283c-0.141,0.807,0.057,1.791-0.25,2.572
			l-0.114-0.06c-0.21,0.595,0.125,0.477,0.027,1.131l0.027-0.024c-0.113,0.132-0.17,0.306-0.157,0.484
			c0.133-0.165,0.258,0.311,0.405,0.095c-0.225,0.646-0.176,0.319-0.599,0.746l0.189,0.098c-0.172,0.146-0.261,0.157-0.311,0.483
			c0.161-0.267,0.288,0.209,0.502-0.092c0.413,0.686-0.418,1.019,0.187,1.333c-0.522,0.313-0.29-0.593-0.402-0.418
			c-0.17-0.147-0.39,0.26-0.338,0.475c0.011,0.22,0.669,0.372,0.659,0.923c-0.002-0.055,0.036-0.059,0.035-0.112
			c0.133,0.206-0.181,0.403,0.036,0.656c-0.316,0.144,0.017,0.171-0.386,0.265c0,0,0.024-0.084,0.047-0.167
			c0.022-0.116,0.046-0.233,0.046-0.233c-0.052,0.161-0.196,0.259-0.3,0.386c-0.102,0.132-0.163,0.321-0.048,0.464
			c0.081-0.065,0.188-0.207,0.248-0.285c0.119,0.048-0.078,0.208,0.043,0.249c0.404-0.203,0.088-0.414,0.395-0.595
			c0.17,0.032-0.292,0.315,0.146,0.15c-0.279,0.109-0.261,0.19-0.227,0.246c0.034,0.064,0.085,0.091-0.128,0.335l0.241-0.18
			c-0.039,0.049-0.152,0.193-0.146,0.244c0-0.009,0.313-0.339,0.313-0.328c-0.157,0.18-0.05,0.174,0.037,0.134
			c0.1-0.061,0.169-0.11,0.154-0.051c-0.16-0.006-0.296,0.252-0.533,0.43c-0.014,0.012-0.026,0.017-0.038,0.019l-0.016,0.035
			c0.167,0.275,0.745-0.646,0.858-0.532c-0.005-0.033-0.195,0.146-0.194,0.258c0.09-0.05,0.199-0.144,0.256-0.271
			c0.149,0.052-0.083,0.249-0.035,0.398c0.153-0.295,0.027,0.119,0.318,0.214l0.002-0.246c0.631-0.158,0.167,0.512,0.736,0.322
			l-0.24-0.341l0.297,0.088l-0.063-0.279c0.323,0.207,0.424,0.152,0.74,0.074c-0.073,0.174,0.041,0.446,0.322,0.454
			c0.191-0.146-0.107-0.234,0.288-0.198c-0.088-0.153-0.187-0.347-0.359-0.12c-0.019-0.081-0.088-0.154-0.107-0.234
			c0.205-0.167,0.516-0.038,0.661-0.036c-0.055,0.011-0.122,0.022-0.155,0.058l0.575,0.341c0.091-0.092,0.019-0.166-0.052-0.238
			c0.117,0.025,0.197,0.139,0.368,0.16c-0.045-0.199-0.034-0.405-0.276-0.5l0.547,0.221c0.037-0.085,0.282-0.236,0.211-0.312
			c0.303-0.116,0.746,0.388,1.149,0.232c0.02,0.04,0.062,0.076,0.146,0.104c0.38-0.045,0.715-0.29,1.164-0.016l0.255-0.358
			c0.352,0.082-0.344,0.451,0.24,0.587c0.415,0.113,0.154-0.306,0.301-0.405c0.205,0.18,0.563,0.547,0.945,0.256
			C11.168,23.281,11.069,23.334,10.952,23.308z M15.286,23.467c-0.084-0.052-0.251-0.212-0.313-0.066
			C15.069,23.682,15.143,23.548,15.286,23.467z M19.004,22.232c-0.08,0.063-0.04,0.159,0.053,0.269
			C19.076,22.421,19.066,22.332,19.004,22.232z M16.869,5.349l0.009,0.011C17.065,5.265,17,5.303,16.869,5.349z M16.48,5.456
			c-0.04-0.035-0.037-0.068-0.021-0.103c0.027,0.062,0.114,0.066,0.214,0.048C16.646,5.466,16.596,5.511,16.48,5.456z M0.499,21.94
			l0.064,0.074C0.634,21.845,0.571,21.893,0.499,21.94z"/>
		<path fill="#231F20" d="M18.668,22.82c0.042,0.021,0.088,0.035,0.135,0.047C18.76,22.881,18.713,22.869,18.668,22.82z"/>
		<path fill="#231F20" d="M8.257,23.179l-0.012,0.002c-0.008-0.014-0.013-0.028-0.015-0.043L8.257,23.179z"/>
		<path fill="#231F20" d="M18.525,9.516c0.035,0.08,0.081,0.124,0.126,0.154C18.591,9.673,18.541,9.637,18.525,9.516z"/>
		<path fill="#231F20" d="M14.419,5.039l0.249,0.063c-0.12-0.012-0.163,0.042-0.225,0.082C14.448,5.125,14.496,5.042,14.419,5.039z"
			/>
		<path fill="#231F20" d="M12.255,6.559c-0.035-0.031-0.077-0.003-0.111-0.035l0.009-0.113C12.307,6.418,12.417,6.51,12.255,6.559z"
			/>
		<path fill="#231F20" d="M14.187,5.854c-0.021,0.208-0.175,0.137-0.352,0.099c0.012,0.001,0.021,0.002,0.033,0
			C13.816,5.664,14.003,5.759,14.187,5.854z"/>
		<path fill="#231F20" d="M13.797,5.946c-0.055-0.01-0.109-0.015-0.162-0.005C13.616,5.824,13.701,5.917,13.797,5.946z"/>
		<path fill="#231F20" d="M15.986,5.318c-0.083,0.054-0.052-0.264-0.099-0.179C15.796,4.875,16.44,5.458,15.986,5.318z"/>
		<polygon fill="#231F20" points="14.046,6.536 14.108,6.28 14.207,6.486 		"/>
		<path fill="#231F20" d="M15.426,6.348l-0.279,0.071c0.003-0.042-0.031-0.067-0.077-0.087C15.242,6.323,15.43,6.273,15.426,6.348z"
			/>
		<path fill="#231F20" d="M15.069,6.332c-0.088,0.005-0.173,0-0.224-0.042C14.894,6.292,14.999,6.3,15.069,6.332z"/>
		<polygon fill="#231F20" points="14.428,6.613 14.51,6.559 14.707,6.541 		"/>
		<path fill="#231F20" d="M18.526,6.299l0.298,0.073c-0.02,0.087-0.136,0.14-0.231,0.106C18.549,6.417,18.439,6.384,18.526,6.299z"
			/>
		<path fill="#231F20" d="M17.502,6.998c0.086-0.053,0.079-0.11,0.125-0.193L17.621,7.12C17.629,7.12,17.512,6.998,17.502,6.998z"/>
		<path fill="#231F20" d="M18.164,7.071C18.162,7.16,18.329,7.324,18.1,7.304C18.129,7.217,17.937,7.144,18.164,7.071z"/>
		<polygon fill="#231F20" points="19.391,9.986 19.396,9.909 19.915,9.919 		"/>
		<path fill="#231F20" d="M18.15,14.029c-0.124-0.361,0.321-0.086,0.166-0.412c0.123-0.084,0.127,0.266,0.232,0.18
			C18.42,14.014,18.493,14.129,18.15,14.029z"/>
		<path fill="#231F20" d="M18.549,13.797c0.021-0.035,0.045-0.072,0.079-0.111C18.595,13.749,18.571,13.778,18.549,13.797z"/>
		<polygon fill="#231F20" points="0.236,7.777 0.128,7.546 0.302,7.696 		"/>
		<path fill="#231F20" d="M0.62,7.333L0.29,7.277l0.3-0.139C0.574,7.191,0.546,7.292,0.62,7.333z"/>
		<path fill="#231F20" d="M15.93,22.801l0.018,0.079c-0.035,0.086-0.09,0.092-0.2,0.105L15.93,22.801z"/>
		<polygon fill="#231F20" points="12.784,23.048 12.84,23.042 12.737,23.34 		"/>
		<path fill="#231F20" d="M10.144,22.666c0.109-0.013,0.234,0.055,0.343,0.042C10.254,22.653,10.116,23.039,10.144,22.666z"/>
	</g>
</g>
<g>
	<path fill="#80B641" d="M47.776,3.972c-0.012-0.013-0.026-0.029-0.047-0.051C47.746,3.944,47.761,3.96,47.776,3.972z"/>
	<path fill="#80B641" d="M45.723,5.993l-0.004-0.049C45.709,5.964,45.713,5.979,45.723,5.993z"/>
	<path fill="#80B641" d="M48.948,2.709l0.009,0.014c0.018-0.02,0.042-0.046,0.082-0.089L48.948,2.709z"/>
	<path fill="#80B641" d="M41.672,10.601l0.021-0.032C41.682,10.582,41.67,10.586,41.672,10.601z"/>
	<path fill="#80B641" d="M44.1,7.895c0.015,0.028,0.011,0.05,0.006,0.071C44.124,7.951,44.131,7.932,44.1,7.895z"/>
	<path fill="#80B641" d="M50.586,2.964l-0.103-0.027C50.515,2.965,50.559,2.981,50.586,2.964z"/>
	<path fill="#80B641" d="M51.34,1.287l-0.02-0.011C51.325,1.284,51.332,1.286,51.34,1.287z"/>
	<path fill="#80B641" d="M50.633,1.569c-0.002,0.018,0,0.043,0.003,0.068C50.646,1.619,50.661,1.598,50.633,1.569z"/>
	<path fill="#80B641" d="M50.639,1.673l-0.004-0.036C50.63,1.65,50.627,1.662,50.639,1.673z"/>
	<path fill="#80B641" d="M29.799,9.298c-0.03-0.041-0.11-0.019-0.183-0.007L29.799,9.298z"/>
	<path fill="#80B641" d="M38.292,15.035l-0.023-0.036C38.272,15.016,38.281,15.026,38.292,15.035z"/>
	<path fill="#80B641" d="M29.158,9.88l-0.009-0.042C29.146,9.86,29.15,9.873,29.158,9.88z"/>
	<path fill="#80B641" d="M50.226,3.888c0.042,0.105-0.107,0.111-0.036,0.174C50.211,4.008,50.311,3.997,50.226,3.888z"/>
	<path fill="#80B641" d="M40.308,18.445l-0.016,0.031C40.302,18.464,40.307,18.454,40.308,18.445z"/>
	<path fill="#80B641" d="M29.158,9.88l0.01,0.048l0.026-0.045C29.178,9.888,29.166,9.887,29.158,9.88z"/>
	<polygon fill="#80B641" points="36.829,16.53 36.829,16.53 36.837,16.513 	"/>
	<path fill="#80B641" d="M36.877,16.344l0.019-0.026C36.9,16.305,36.891,16.32,36.877,16.344z"/>
	<path fill="#80B641" d="M29.615,9.292l-0.104-0.004C29.537,9.3,29.575,9.298,29.615,9.292z"/>
	<path fill="#80B641" d="M35,14.391l0.028,0.014C35.021,14.394,35.011,14.389,35,14.391z"/>
	<path fill="#80B641" d="M44.282,7.746c0.011,0,0.021-0.005,0.032-0.008C44.299,7.721,44.286,7.712,44.282,7.746z"/>
	<polygon fill="#80B641" points="44.829,11.325 44.828,11.325 44.83,11.326 	"/>
	<path fill="#80B641" d="M44.813,11.146c-0.04,0.016-0.021,0.106,0.016,0.179C44.852,11.293,44.858,11.251,44.813,11.146z"/>
	<path fill="#80B641" d="M44.635,11.502l0.017-0.003C44.644,11.498,44.638,11.499,44.635,11.502z"/>
	<polygon fill="#80B641" points="46.252,9.655 46.245,9.648 46.251,9.656 	"/>
	<path fill="#80B641" d="M45.972,10.058c-0.02-0.006-0.037-0.006-0.053-0.003C45.939,10.061,45.957,10.063,45.972,10.058z"/>
	<polygon fill="#80B641" points="44.111,12.66 44.108,12.658 44.108,12.66 	"/>
	<path fill="#80B641" d="M41.891,16.834c0.234-0.409,0.446-1.021,0.762-1.351c-0.089-0.215-0.007-0.336,0.047-0.483l0.207,0.167
		l0.009-0.155c0.09,0.015-0.019,0.108,0.108,0.106l-0.095-0.148c0.077,0.057,0.234-0.208,0.253,0.084l0.284-0.378
		c0.068-0.079-0.128-0.198-0.01-0.248c0.072,0.034,0.015,0.07,0.091,0.127c0.354-0.146-0.143-0.669,0.141-0.847l0.01,0.046
		c-0.02-0.092,0.05-0.17,0.022-0.197c-0.224-0.146,0.073,0.146-0.104,0.117c-0.162-0.158-0.017-0.18-0.147-0.29
		c0.105-0.006,0.037-0.128,0.067-0.189c0.172,0.005,0.194-0.192,0.376-0.142c-0.02-0.092-0.147-0.291-0.083-0.392
		c0.182,0.051,0.113,0.13,0.231,0.081l-0.086-0.104c0.072-0.063,0.09-0.025,0.134,0.02c0.065-0.078-0.083-0.189,0.056-0.234
		l0.052,0.143c0.02-0.109,0.059-0.125,0.146-0.222c0.054,0.053,0.019,0.092-0.02,0.108c0.187,0.073,0.01-0.154,0.049-0.171
		c-0.049-0.029-0.123,0.026-0.191-0.096c0.056-0.036-0.049-0.23,0.093-0.164l0.051,0.142c0.006-0.177-0.078-0.168,0.053-0.259
		c0.002,0.013,0.029,0.032,0.047,0.053c-0.065-0.192,0.125-0.193,0.221-0.301l0.009,0.046c0.002-0.077-0.065-0.182-0.039-0.201
		c-0.106,0.016-0.121-0.028-0.219-0.107c0.226,0.058-0.085-0.303,0.117-0.36c0.054,0.053,0.095,0.148,0.007,0.134
		c0.128,0.199,0.263,0.331,0.274,0.488c0.003-0.089,0.028-0.174,0.087-0.097l-0.14-0.156c0.021-0.037,0.049-0.054,0.068-0.079
		c-0.086-0.102-0.208-0.077-0.215-0.211c0.015-0.131,0.191,0.096,0.132,0.021c0.028-0.173-0.128-0.198,0.008-0.266
		c0.004,0.023,0.014,0.069-0.008,0.065c0.123-0.026,0.123-0.226,0.325-0.083c0.032,0.05,0.086,0.102,0.047,0.119l-0.027-0.026
		c0.066,0.21,0.02-0.108,0.165,0.07c-0.104-0.084,0.005-0.178,0.062-0.213l-0.125-0.085c-0.208-0.479,0.216,0.211,0.3,0.001
		c0.005-0.177-0.062,0.012-0.092-0.126c0.074-0.056,0.195,0.009,0.227-0.143c0.067,0.011,0.172,0.005,0.302,0.114
		c-0.002-0.112,0.205-0.146,0.109-0.294c-0.189,0.015,0.049,0.23-0.212,0.211l-0.096-0.148c0.074-0.084,0.098-0.256,0.188-0.277
		c-0.033-0.009-0.069-0.032-0.09-0.064c0.05-0.17-0.046-0.319,0.084-0.409c0.125,0.086,0.051,0.141,0.021,0.203
		c0.15,0.001,0.069-0.078,0.2-0.169c0.104,0.083-0.069,0.079,0.017,0.181l0.072-0.166l0.021,0.018
		c-0.15-0.169,0.093-0.092,0.107-0.221c0.151-0.198-0.048-0.43-0.097-0.661c0.066,0.01,0.115,0.04,0.147,0.09
		c-0.11-0.017-0.046,0.026-0.016,0.083c0.033-0.083,0.272-0.001,0.311,0.097c0.033-0.15-0.116-0.04-0.118-0.152l0.121-0.137
		c-0.098-0.06-0.154-0.024-0.162-0.159c0.025-0.085,0.064-0.101,0.133-0.179c0.032,0.05,0.148,0.09,0.096,0.148
		c0.062-0.012,0.113-0.071,0.05-0.17c-0.146,0.022,0.04-0.216-0.143-0.267l0.146-0.022c-0.018,0.02,0.037,0.073-0.003,0.089
		c0.148,0.09,0.02-0.108,0.032-0.151c0.049-0.009,0.123-0.083,0.178-0.045c-0.014-0.062,0.067-0.106,0.143-0.061
		c0.007-0.066-0.081-0.079-0.113-0.129l0.121-0.137c0.077,0.057,0.283,0.223,0.293,0.269c-0.024-0.115-0.194-0.209-0.125-0.287
		c0.101,0.172,0.189-0.014,0.3,0.203c0.137,0.043,0.235-0.097,0.255-0.205c-0.074-0.145-0.123,0.025-0.231-0.081
		c0.119-0.248-0.18-0.541-0.01-0.647l-0.061,0.012c0.009-0.154,0.015-0.13-0.037-0.272c0.118,0.152,0.455,0.228,0.544,0.042
		c-0.06-0.077-0.199-0.031-0.29-0.157l0.059-0.125c0.017,0.002,0.031,0.035,0.039,0.064c0.022-0.139,0.313-0.013,0.171-0.188
		l0.275,0.087l-0.115-0.04c-0.059-0.075,0-0.2-0.01-0.247c0.005-0.178,0.094-0.164,0.227-0.143
		c-0.071-0.033-0.236-0.104-0.194-0.208c0.224,0.204,0.218-0.104,0.332,0.004c0.023-0.037,0.139-0.035,0.049-0.123l0.135,0.132
		c-0.189-0.185-0.086-0.302-0.048-0.43c0.249,0.262,0.059-0.125,0.332,0.051c-0.167-0.181,0.057-0.235-0.083-0.391
		c0.047-0.082,0.209,0.077,0.28,0.11L49.221,5c0.112,0.039,0.229-0.089,0.349-0.12l-0.101-0.22l0.094,0.037
		c-0.031-0.049-0.007-0.135-0.096-0.148l0.041-0.033c-0.171-0.161-0.004-0.102-0.016-0.252c0.042,0.006,0.08,0.049,0.09,0.088
		c0.033-0.04,0.108,0.059,0.184,0.089c-0.067-0.011-0.199-0.432-0.361-0.391c-0.077-0.057-0.079-0.169-0.018-0.182l0.175,0.117
		l-0.128-0.198c0.025-0.084,0.145-0.021,0.202-0.057c-0.03,0.062,0.212,0.39,0.31,0.249c-0.033,0.091,0.027,0.205,0.032,0.271
		c0.027-0.023,0.053-0.024,0.086,0.081c0.032-0.151-0.069-0.123-0.009-0.247c0.135,0.132,0.202,0.144,0.319,0.094l-0.154-0.023
		c-0.015-0.019-0.023-0.035-0.028-0.047c-0.035,0.012-0.062,0-0.12-0.042c0.017-0.02-0.081-0.28,0.017-0.221
		c-0.296-0.09-0.028-0.338-0.21-0.389c-0.031-0.049,0.016-0.13,0.091-0.075c0.039,0.185,0.208,0.078,0.295,0.18
		c-0.015-0.069-0.156-0.024-0.175-0.117c0.03-0.061,0.146-0.021,0.211-0.011l0.01,0.046l0.124-0.025
		c-0.06-0.077-0.177-0.028-0.157-0.136c0.044,0.007,0.064-0.101,0.118-0.048c0.069,0.123,0.216,0.212,0.192,0.297
		c0.03-0.063,0.14-0.246-0.042-0.296l0.052-0.059c-0.089-0.014-0.278,0.001-0.202-0.143l0.027,0.027l-0.04-0.184l0.101,0.027
		c-0.036-0.031-0.059-0.074-0.032-0.105c0.048,0.03,0.088,0.014,0.142,0.067c0.064-0.102-0.012-0.158-0.044-0.207
		c0.03-0.063,0.075-0.056,0.138,0.044c0.073-0.056,0.15-0.2,0.261-0.183c0.011-0.154-0.044-0.006-0.096-0.149
		c0.307,0.137,0.335-0.237,0.423-0.423c-0.245-0.149,0.009-0.065-0.163-0.27c0.041,0.095,0.278-0.002,0.234,0.192l0.041-0.105
		c0.16,0.048-0.018,0.22,0.209,0.277c0.064-0.101-0.122-0.375,0.04-0.416c0.123,0.174,0.015-0.131,0.16,0.047
		c0.037,0.073-0.003,0.089-0.015,0.131l0.044,0.007c0.199-0.169-0.133-0.222-0.154-0.424c0.075-0.145,0.193,0.007,0.271,0.064
		c0.044,0.006,0.068-0.079,0.054-0.147c0.034,0.161-0.202,0.057-0.271-0.064C51.939,1.372,51.881,1.096,51.839,1
		c-0.317,0.017-0.103,0.118-0.426,0.112c0.037,0.073,0.194,0.208,0.054,0.253c-0.028-0.133-0.089-0.074-0.127-0.078
		c0.104,0.062-0.017,0.104-0.003,0.169c-0.094-0.037-0.16-0.247-0.274-0.176l0.194,0.209c-0.062,0.012-0.14-0.156-0.154-0.024
		c-0.074-0.146-0.18-0.139-0.126-0.286c-0.282-0.022-0.063,0.301-0.069,0.478c-0.005-0.023-0.031-0.049-0.037-0.073
		c0.037,0.073,0.003,0.112-0.009,0.155c-0.102,0.028-0.052-0.142-0.124-0.176l-0.081,0.121c-0.009-0.004-0.013-0.007-0.018-0.011
		c0.006,0.056,0.003,0.103-0.057,0.066c-0.042-0.095-0.101-0.171-0.138-0.244l0.054,0.253C50.44,1.672,50.305,1.74,50.32,1.609
		l-0.105,0.207l-0.153-0.113c-0.007,0.066,0.02,0.092,0.076,0.056c-0.079,0.032,0.042,0.496-0.211,0.212
		c0.01,0.247-0.074,0.255-0.131,0.491c-0.031-0.249-0.278,0.001-0.233-0.192c-0.123,0.025,0.017,0.181-0.008,0.266
		c-0.105,0.006-0.223-0.146-0.226-0.258l0.007,0.135l-0.027-0.027l0.03,0.139c-0.128,0.002-0.153-0.113-0.227-0.058l0.113,0.128
		l-0.11-0.017c0.071,0.034,0.064,0.1,0.034,0.162L49.12,2.713l-0.024,0.085c-0.028-0.132-0.071,0.034-0.138-0.076
		c-0.047,0.049-0.046,0.052-0.098,0.171l0.098,0.061c-0.023,0.196-0.131-0.11-0.216-0.012l0.103,0.083
		c-0.278,0.001-0.099,0.341-0.288,0.355c0.025-0.084-0.101-0.171-0.074-0.145c-0.037,0.128-0.18,0.261-0.136,0.468
		c-0.17-0.093-0.219-0.123-0.359-0.079c-0.047,0.082-0.042,0.105,0.022,0.205c-0.109,0.022-0.128,0.23-0.234,0.141
		c0.069,0.091-0.065,0.05-0.025,0.152l-0.049-0.03l0.103,0.083c-0.315-0.071-0.038,0.328-0.325,0.284l-0.01-0.046l-0.002,0.089
		c-0.049-0.03-0.059-0.076-0.113-0.129l-0.207,0.235l0.111,0.017c-0.03,0.062,0.039,0.184-0.067,0.19
		c-0.071-0.234-0.069,0.079-0.194-0.008l0.002-0.089c-0.046,0.082-0.046,0.082,0.057,0.165c-0.038,0.127-0.236-0.104-0.197,0.08
		l0.052-0.059c0.071,0.034,0.118,0.152,0.083,0.192c-0.022-0.004-0.088-0.014-0.077-0.057c-0.02,0.108-0.154,0.176-0.14,0.245
		c-0.062,0.014-0.121-0.063-0.131-0.109c-0.034,0.239-0.073,0.055-0.109,0.295l-0.054-0.054l0.025,0.116l-0.178-0.028l0.094,0.037
		c-0.03,0.062-0.016,0.131-0.094,0.164l-0.063-0.1C46.201,5.797,46,5.654,46.009,5.901c-0.022-0.004-0.032-0.05-0.037-0.073
		c0.031,0.25-0.222-0.034-0.163,0.242c-0.021-0.033-0.067-0.05-0.086-0.077l0.008,0.109l-0.108-0.105l0.127,0.198l-0.143-0.067
		L45.644,6.2c-0.263-0.13-0.17,0.107-0.396,0.05l0.152,0.112c0.125,0.487-0.544,0.36-0.61,0.751l-0.108-0.105l0.048,0.229
		c-0.133-0.021-0.069-0.122-0.14-0.155c-0.027,0.174,0.128,0.198,0.057,0.365c-0.128,0.002-0.064-0.099-0.079-0.168
		c-0.042,0.179-0.123,0.425-0.254,0.46c0.014,0.016,0.029,0.04,0.039,0.041c-0.015,0.132-0.15,0.2-0.214,0.301
		C44.09,8.031,44.099,8,44.106,7.966c-0.032,0.028-0.103,0.043-0.072,0.119l-0.07-0.123c-0.074,0.055-0.091,0.275-0.216,0.189
		c0.05,0.03,0.131,0.109,0.079,0.168c-0.197-0.12-0.057,0.236-0.224,0.254c-0.032-0.049,0.015-0.131-0.002-0.112
		c-0.083,0.009-0.037,0.128-0.018,0.22l-0.059-0.076l-0.082,0.321c-0.197-0.12-0.141,0.245-0.253,0.116
		c-0.069,0.079,0.128-0.002,0.068,0.122c-0.093-0.037-0.037,0.127-0.145,0.022l-0.004-0.023L43.06,9.247l-0.074-0.146
		c-0.024,0.085,0.05,0.231,0.131,0.31c-0.106,0.005-0.121,0.137-0.241,0.074l-0.01-0.047c-0.084,0.21-0.512,0.009-0.426,0.313
		c-0.023-0.004-0.05-0.03-0.033-0.05L42.322,9.8l-0.063-0.1l-0.003,0.289L42.2,9.937c-0.108,0.094-0.214,0.3-0.308,0.463
		l-0.009-0.046c-0.035,0.239-0.17,0.107-0.197,0.281c-0.012-0.018-0.015-0.027-0.015-0.034l-0.078,0.108l-0.036-0.072
		c0.061,0.187-0.325,0.083-0.187,0.126c0.02,0.092,0.026,0.228,0.085,0.303c-0.081,0.121-0.093-0.037-0.194-0.008
		c-0.069,0.079,0.017,0.181-0.119,0.249l-0.054-0.053c-0.03,0.062-0.015,0.131-0.062,0.213l-0.01-0.046
		c0.027,0.227-0.277,0.002-0.104,0.317c-0.083,0.01-0.12,0.137-0.229,0.031c-0.04,0.216-0.094,0.364-0.161,0.554
		c-0.201-0.143-0.012,0.043-0.184,0.038l0.103,0.083c-0.145,0.223-0.569,0.246-0.704,0.515l-0.104-0.084l0.073,0.145
		c-0.233,0.209-0.515,0.499-0.665,0.697c0.002,0.113,0.046,0.319-0.066,0.392l-0.005-0.024c-0.079,0.232-0.18,0.462-0.384,0.608
		c-0.032-0.05-0.076-0.057-0.086-0.103c0.074,0.146-0.081,0.121-0.116,0.16l0.111,0.018c0.051,0.142-0.099,0.141-0.192,0.104
		l0.04,0.185c-0.015-0.003-0.036-0.008-0.053-0.021l0.041,0.063l-0.165-0.07c0.01,0.046-0.045,0.193,0.052,0.343
		c-0.049-0.03-0.146,0.021-0.121-0.063l-0.281,0.289l0.084-0.009c0.103,0.083,0.093,0.237,0.01,0.247
		c-0.03-0.139-0.136-0.133-0.229-0.17c0.02,0.092,0.116,0.041,0.152,0.112c0.024,0.115-0.029,0.263-0.096,0.252l-0.015-0.068
		c-0.02,0.108-0.217-0.011-0.264,0.069c0.03,0.14-0.081,0.122,0.099,0.261c-0.038,0.128-0.143-0.066-0.183-0.051
		c0.052,0.111-0.118,0.224-0.192,0.13c0.231,0.247-0.11-0.053,0.075,0.166l-0.109-0.117c0.046,0.064,0.147,0.21,0.152,0.254
		c-0.059-0.057-0.129-0.181-0.175-0.247l0.149,0.266c-0.206-0.225-0.187,0.083-0.276-0.21c-0.004,0.055-0.009,0.123-0.013,0.188
		c-0.01,0.05-0.028,0.072-0.041,0.023l0.005-0.049l-0.013-0.133l0.002,0.2c-0.008,0.04-0.02,0.109-0.027,0.095
		c-0.03-0.214,0.001-0.396-0.083-0.275c-0.169,0.298,0.117-0.302-0.009-0.089c0.017-0.027,0.041-0.068,0.058-0.098
		c-0.07,0.083-0.109,0.123-0.268,0.229c0.109-0.119,0.104-0.123,0.085-0.112c-0.027,0-0.087-0.009-0.02-0.059l-0.103,0.08
		c0.023-0.095-0.033-0.203,0.042-0.258l-0.176,0.044l0.087-0.104c-0.077-0.104-0.335-0.235-0.192-0.484
		c-0.35-0.097-0.639-0.523-0.866-0.865c-0.113,0.036-0.196-0.047-0.264-0.107l0.046-0.19c-0.095-0.035-0.299,0.035-0.285-0.104
		c0.013-0.013,0.024-0.02,0.035-0.021c-0.084-0.049-0.085-0.179-0.245-0.139c-0.063-0.084-0.07-0.223,0.054-0.307
		c-0.189,0.186-0.118-0.193-0.118-0.193s-3.046-4.51-4.892-4.454c-0.119,0.061-0.257,0.031-0.334,0.179
		c-0.095-0.036,0.037-0.235-0.065-0.154c0.023,0.159-0.26,0.216-0.291,0.427l-0.075-0.037c-0.075,0.055,0.144,0.005,0.014,0.113
		l0.184-0.16c0.017,0.076,0.004,0.14-0.038,0.217c0.105-0.023,0.36-0.234,0.354-0.02l-0.036-0.02
		c0.083,0.083-0.062,0.169-0.073,0.217l-0.016-0.022l-0.02,0.165c0.007-0.117-0.211-0.067-0.159-0.028
		c0.045,0.157,0.017-0.07,0.107-0.012c0.052,0.041-0.051,0.122-0.105,0.174l0.083,0.083c-0.081,0.079-0.047-0.063-0.097,0.058
		l0.18,0.024c-0.18,0.23,0.202,0.022,0.059,0.271c-0.117-0.032-0.061,0.077-0.136,0.131l0.182,0.187
		c-0.011,0.048-0.106,0.012-0.07,0.032c-0.022,0.095,0.102,0.011,0.118,0.032c-0.04,0.074,0.129,0.145-0.006,0.278
		c0.028,0.227,0.215-0.119,0.249,0.085c-0.065,0.101-0.105-0.08-0.14,0.063l0.142,0.098c-0.049,0.029-0.151,0.111-0.176,0.044
		c0.198,0.461-0.06,1.093,0.325,1.301c-0.056,0.146-0.092,0.035-0.183,0.068c0.328,0.1,0.074,0.546,0.256,0.732l0.082-0.08
		c-0.006,0.532,0.427,0.712,0.595,1.13l0.022-0.095c0.113-0.037,0.181,0.024,0.26,0.039c-0.033,0.049-0.2,0.139-0.089,0.194
		c0.012-0.048,0.008-0.116,0.056-0.146c0.027,0.482,0.566,0.995,0.847,1.538c0.575,0.533,0.979,1.339,1.532,1.873
		c-0.083-0.083,0.144-0.248,0.157-0.134c-0.169,0.527,0.33,0.261,0.269,0.684c0.1,0.057,0.173,0.138,0.236,0.228l0.087,0.14
		l0.176,0.251c0.235,0.331,0.502,0.658,0.842,0.774l-0.051,0.145c0.051,0.153,0.114,0.084,0.201,0.164l-0.018,0.036
		c0.178,0.282,0.458,0.398,0.547,0.601l0.05-0.173c0.113,0.112,0.027,0.21,0.164,0.236l-0.021,0.09l0.165-0.027
		c-0.065,0.328,0.31,0.392,0.382,0.658c0.155,0.107,0.427,0.247,0.643,0.578c0.003,0.02,0.008,0.04,0.017,0.063
		c0.065,0.091,0.294-0.208,0.455-0.319c0.317-0.48,0.747-1.131,1.17-1.617l-0.082-0.175l0.096-0.147
		c0.016,0.041,0.039,0.043,0.032,0.083c0.174,0.091,0.208-0.378,0.353-0.371c-0.135-0.076-0.085,0.073-0.147,0.149
		c-0.125,0.031-0.128-0.237,0.024-0.301l0.018,0.037l0.026-0.184c0.082,0.112,0.187,0.074,0.273,0.179
		c0.167-0.249,0.272-0.499,0.379-0.731c0.052-0.113,0.111-0.232,0.17-0.333c0.031-0.063,0.072-0.123,0.13-0.175
		c0.091,0.126,0.107-0.205,0.26,0.018c0.041-0.215-0.173-0.115-0.257-0.307c0.035-0.039,0.015-0.13,0.091-0.074
		c0.031,0.062,0.142,0.072,0.134,0.121l0.06-0.113c0.022,0.004,0.032,0.05,0.037,0.072c0.042-0.306,0.396-0.249,0.421-0.535
		c-0.059-0.075-0.074,0.056-0.133-0.021c-0.002-0.313,0.247-0.051,0.276-0.313l0.069,0.123c-0.024-0.115-0.088-0.215,0.057-0.237
		c0.125,0.088,0.035,0.162,0.054,0.254c0.052-0.059,0.141-0.245,0.002-0.288c0.02-0.109,0.141-0.046,0.202-0.059
		c-0.027-0.026-0.128,0.003-0.147-0.09c0.14-0.044,0.256-0.206,0.359-0.322c0.027,0.027,0.076,0.057,0.081,0.08
		C41.576,16.763,41.819,17,41.891,16.834z"/>
	<path fill="#80B641" d="M46.308,9.62l-0.056,0.035c0.025,0.023,0.052,0.051,0.062,0.099L46.308,9.62z"/>
	<path fill="#80B641" d="M44.443,11.958c0.004,0.015,0.008,0.028,0.017,0.046C44.465,11.986,44.455,11.971,44.443,11.958z"/>
	<path fill="#80B641" d="M44.206,12.721c0.007-0.064-0.051-0.055-0.095-0.061C44.133,12.682,44.161,12.706,44.206,12.721z"/>
	<path fill="#80B641" d="M47.026,7.99c0.004,0.018,0.015,0.037,0.04,0.057C47.054,8.017,47.041,8,47.026,7.99z"/>
	<path fill="#80B641" d="M49.914,3.5c-0.01,0-0.015,0-0.028,0C49.896,3.5,49.906,3.5,49.914,3.5z"/>
	<path fill="#80B641" d="M49.582,4.351c-0.008,0.01-0.014,0.026-0.016,0.057C49.587,4.395,49.587,4.373,49.582,4.351z"/>
	<path fill="#80B641" d="M46.386,8.938c-0.007,0.018-0.009,0.039,0.006,0.071C46.406,8.986,46.398,8.961,46.386,8.938z"/>
	<path fill="#80B641" d="M49.559,4.474l-0.051,0.042c0.007,0.007,0.012,0.012,0.021,0.021L49.559,4.474z"/>
	<path fill="#80B641" d="M49.977,4.249c-0.019,0.017-0.04,0.044-0.063,0.053C49.964,4.304,49.98,4.284,49.977,4.249z"/>
	<path fill="#80B641" d="M47.912,6.479l-0.001,0.008C47.928,6.571,47.927,6.527,47.912,6.479z"/>
	<polygon fill="#80B641" points="49.58,4.877 49.571,4.88 49.59,4.924 	"/>
	<path fill="#80B641" d="M50.19,4.062c-0.005,0.013-0.007,0.026,0.001,0.045c0.011-0.006,0.021-0.011,0.035-0.019
		C50.211,4.077,50.2,4.069,50.19,4.062z"/>
	<path fill="#80B641" d="M48.674,5.849c-0.031-0.053-0.055-0.084-0.076-0.104C48.586,5.764,48.597,5.792,48.674,5.849z"/>
</g>
</svg>
