<?xml version="1.0" encoding="utf-8"?>
<!-- Generator: Adobe Illustrator 16.0.3, SVG Export Plug-In . SVG Version: 6.00 Build 0)  -->
<!DOCTYPE svg PUBLIC "-//W3C//DTD SVG 1.1//EN" "http://www.w3.org/Graphics/SVG/1.1/DTD/svg11.dtd">
<svg version="1.1" id="Layer_1" xmlns="http://www.w3.org/2000/svg" xmlns:xlink="http://www.w3.org/1999/xlink" x="0px" y="0px"
	 width="45px" height="45px" viewBox="0 0 45 45" enable-background="new 0 0 45 45" xml:space="preserve">
<path fill="#3C3C3C" d="M27.051,22.499L44.059,5.494c1.256-1.257,1.256-3.296,0-4.553c-1.257-1.255-3.297-1.255-4.556,0.001
	L22.5,17.948L5.494,0.942c-1.258-1.255-3.295-1.255-4.552,0c-1.257,1.256-1.257,3.294,0,4.552l17.005,17.005L0.942,39.505
	c-1.257,1.259-1.257,3.296,0,4.554c1.256,1.256,3.294,1.256,4.551-0.002L22.5,27.05l17.009,17.009c1.255,1.256,3.293,1.256,4.55,0
	c1.256-1.258,1.256-3.295,0-4.554L27.051,22.499z"/>
</svg>
