<?xml version="1.0" encoding="utf-8"?>
<!-- Generator: Adobe Illustrator 16.0.3, SVG Export Plug-In . SVG Version: 6.00 Build 0)  -->
<!DOCTYPE svg PUBLIC "-//W3C//DTD SVG 1.1//EN" "http://www.w3.org/Graphics/SVG/1.1/DTD/svg11.dtd">
<svg version="1.1" id="Layer_1" xmlns="http://www.w3.org/2000/svg" xmlns:xlink="http://www.w3.org/1999/xlink" x="0px" y="0px"
	 width="45px" height="45px" viewBox="0 0 45 45" enable-background="new 0 0 45 45" xml:space="preserve">
<path fill="#8CC63F" d="M27.052,22.5L44.057,5.494c1.258-1.257,1.258-3.296,0-4.553c-1.255-1.256-3.295-1.256-4.553,0.001
	L22.5,17.948L5.495,0.941c-1.258-1.256-3.296-1.256-4.552,0c-1.257,1.256-1.257,3.294,0,4.552L17.948,22.5L0.943,39.507
	c-1.257,1.257-1.257,3.296,0,4.554c1.254,1.254,3.293,1.254,4.55-0.002L22.5,27.051L39.509,44.06c1.255,1.255,3.293,1.255,4.548,0
	c1.258-1.258,1.258-3.296,0-4.554L27.052,22.5z"/>
</svg>
