<?xml version="1.0" encoding="utf-8"?>
<!-- Generator: Adobe Illustrator 16.0.3, SVG Export Plug-In . SVG Version: 6.00 Build 0)  -->
<!DOCTYPE svg PUBLIC "-//W3C//DTD SVG 1.1//EN" "http://www.w3.org/Graphics/SVG/1.1/DTD/svg11.dtd">
<svg version="1.1" xmlns="http://www.w3.org/2000/svg" xmlns:xlink="http://www.w3.org/1999/xlink" x="0px" y="0px" width="45px"
	 height="45px" viewBox="0 0 45 45" enable-background="new 0 0 45 45" xml:space="preserve">
<g id="Layer_1">
	<g>
		<path fill="#80B742" d="M42.25,11.125c0,0-3.375-14.125-18.375-8.25S-1.846,18.925,5.125,30c5.838,9.275,27,14.5,32.958,13.834
			C44.32,43.137,46,23,42.25,11.125z M32.674,21.566c-0.039,0.142-0.112,0.27-0.217,0.381c-1.761,1.855-3.62,3.684-5.42,5.451
			c-0.514,0.504-1.026,1.009-1.538,1.514c-1.741,1.722-4.078,3.952-6.699,5.931c-0.155,0.116-0.319,0.176-0.488,0.176
			c-0.233,0-0.455-0.116-0.614-0.321c-0.037-0.025-0.074-0.053-0.109-0.087c-0.94-0.87-1.795-1.843-2.621-2.782
			c-0.753-0.855-1.531-1.74-2.365-2.539c-0.261-0.249-0.34-0.585-0.216-0.906c0.015-0.289,0.181-0.534,0.461-0.677
			c0.938-0.473,1.883-1.019,2.893-1.668l0.027-0.015c0.158-0.128,0.344-0.198,0.527-0.198c0.162,0,0.399,0.054,0.608,0.308
			l1.801,2.188c3.536-3.137,6.906-6.423,10.862-10.377c0.074-0.075,0.159-0.134,0.259-0.182c0.133-0.083,0.305-0.132,0.474-0.132
			c0.304,0,0.569,0.16,0.729,0.441c0.479,0.848,1.009,1.705,1.615,2.618C32.833,20.975,32.844,21.292,32.674,21.566z"/>
	</g>
	<path fill="#3E3C3C" d="M31.026,18.07c-0.159-0.281-0.425-0.441-0.729-0.441c-0.169,0-0.341,0.05-0.474,0.132
		c-0.1,0.047-0.185,0.107-0.259,0.182c-3.956,3.955-7.326,7.241-10.862,10.377l-1.801-2.188c-0.209-0.254-0.446-0.308-0.608-0.308
		c-0.184,0-0.37,0.07-0.527,0.198l-0.027,0.015c-1.009,0.649-1.955,1.195-2.893,1.668c-0.28,0.143-0.446,0.388-0.461,0.677
		c-0.124,0.321-0.044,0.657,0.216,0.906c0.834,0.799,1.612,1.684,2.365,2.539c0.826,0.939,1.681,1.912,2.621,2.782
		c0.036,0.034,0.072,0.062,0.109,0.087c0.159,0.205,0.381,0.321,0.614,0.321c0.169,0,0.333-0.06,0.488-0.176
		c2.622-1.979,4.958-4.209,6.699-5.931c0.512-0.505,1.024-1.01,1.538-1.514c1.8-1.768,3.659-3.596,5.42-5.451
		c0.104-0.111,0.178-0.239,0.217-0.381c0.17-0.274,0.159-0.592-0.032-0.878C32.035,19.774,31.506,18.917,31.026,18.07z
		 M27.031,25.25c-0.691,0.682-1.47,1.564-2.156,2.25c-1.938,1.939-4.021,3.911-6.375,5.75c-0.752-0.741-1.564-1.893-2.252-2.671
		c-0.523-0.595-1.063-1.206-1.622-1.791c0.471-0.26,1.247-0.759,1.749-1.069l1.688,2.375c0.209,0.255,0.369,0.281,0.531,0.281
		c0.201,0,0.366-0.069,0.531-0.219c0.054-0.031,0.455-0.459,0.5-0.5c3.78-3.311,6.912-6.733,10.281-10.094
		c0.215,0.354,0.923,1.403,1.188,1.813C29.815,22.707,28.326,23.973,27.031,25.25z"/>
	<g>
		<g>
			<path fill="#3E3C3C" d="M36.409,8.45l0.005-0.083c0.016-0.342-0.097-0.673-0.301-0.887c-0.179-0.188-0.418-0.283-0.71-0.283
				h-4.906l-0.003-0.221c-0.004-0.296-0.005-0.591-0.005-0.887c0-0.099-0.013-0.196-0.042-0.309L30.44,5.749l0.001-0.033
				c0.017-0.342-0.095-0.675-0.299-0.89c-0.179-0.188-0.419-0.284-0.711-0.284c-0.927,0-1.854-0.003-2.781-0.008l-0.218,0
				l-0.005-0.217c-0.018-0.964-0.08-1.768-0.194-2.529c-0.074-0.487-0.589-0.778-1.043-0.778l-0.063,0.001l-0.054-0.006L20.739,1
				c-0.322,0-0.587,0.121-0.768,0.35c-0.218,0.276-0.297,0.684-0.207,1.066l0.016,0.066l-0.024,0.063
				c-0.049,0.132-0.074,0.263-0.074,0.391v1.499l-0.229-0.007c-0.943-0.028-1.887-0.062-2.831-0.107l-0.046-0.001
				c-0.089,0-0.177,0.012-0.278,0.039l-0.029,0.008l-0.03,0l0,0c-0.527,0-1.08,0.333-1.087,1.063
				c-0.004,0.374-0.019,0.748-0.041,1.119l-0.013,0.208l-0.208,0c-1.62,0.005-3.353,0.035-5.056,0.218
				C9.774,6.98,9.722,6.995,9.668,7.009l-0.067,0.01c-0.532,0-1.063,0.328-1.063,1.062v4.204c0,0.236,0.059,0.445,0.176,0.619
				l0.037,0.056v0.068C8.75,22.473,8.717,31.002,8.325,39.736c-0.004,0.105,0.006,0.212,0.034,0.33l0.01,0.045l-0.008,0.046
				c-0.053,0.292-0.006,0.559,0.132,0.75c0.125,0.175,0.321,0.283,0.582,0.322c8.548,1.268,16.981,1.371,26.33,1.372
				c0.677,0,0.897-0.515,0.962-0.736l0.014-0.049l0.035-0.038c0.173-0.19,0.261-0.435,0.261-0.725V9.188
				c0-0.265-0.072-0.491-0.214-0.673L36.409,8.45z M20.875,2.219h4.415l0.02,0.373c0.026,0.507,0.041,1.016,0.043,1.523l0.004,0.399
				l-1.435-0.016c-0.888-0.008-1.773-0.017-2.658-0.033l-0.388-0.007L20.875,2.219L20.875,2.219z M16.299,11.956
				c0.087-0.765,0.171-2.619,0.238-4.109c0.03-0.686,0.058-1.285,0.079-1.648l0.017-0.276l0.24,0.012
				c4.083,0.202,8.117,0.234,11.871,0.24h0.242l0.002,0.281c0.016,1.756,0.056,4.867,0.146,5.965l0.026,0.324l-0.282-0.013
				c-2.145-0.101-4.326-0.172-6.437-0.24c-1.97-0.063-3.939-0.127-5.908-0.215l-0.27-0.013L16.299,11.956z M10.313,10.792
				l-0.083-1.938l0.083-0.229c1.371-0.101,3.396-0.417,4.417,0.063l0.139,0.28L14.835,9.22c-0.009,0.079-0.021,0.667-0.031,1.141
				c-0.016,0.77-0.025,1.144-0.037,1.235c-0.028,0.205-0.021,0.408,0.022,0.602l0.009,0.044l-0.008,0.044
				c-0.067,0.367,0.025,0.762,0.239,1.031c0.183,0.229,0.446,0.358,0.761,0.373c2.236,0.103,4.513,0.163,6.714,0.221
				c2.203,0.059,4.482,0.119,6.723,0.222l0.058,0.001c0.319,0,0.525-0.121,0.664-0.272c0.19-0.079,0.355-0.219,0.453-0.407
				c0.009-0.019,0.018-0.038,0.026-0.058c0.018-0.044,0.037-0.09,0.048-0.139c0.02-0.091,0.029-0.182,0.044-0.272
				c0.138-0.184,0.209-0.392,0.184-0.594c-0.021-0.165-0.037-0.774-0.058-1.617c-0.012-0.492-0.024-1.001-0.035-1.124L30.719,9
				l4.313-0.094l0.219,31.969c-0.375,0.416-0.875,0.334-0.875,0.334c-8.396-0.006-16.168,0.018-23.875-1.042l-0.333-0.917
				L9.75,38.834c0.368-8.616,0.813-17.375,0.813-26.896C10.563,11.938,10.333,11.229,10.313,10.792z"/>
		</g>
	</g>
</g>
<g id="Layer_2">
</g>
</svg>
