<?xml version="1.0" encoding="utf-8"?>
<!-- Generator: Adobe Illustrator 16.0.3, SVG Export Plug-In . SVG Version: 6.00 Build 0)  -->
<!DOCTYPE svg PUBLIC "-//W3C//DTD SVG 1.1//EN" "http://www.w3.org/Graphics/SVG/1.1/DTD/svg11.dtd">
<svg version="1.1" id="Layer_1" xmlns="http://www.w3.org/2000/svg" xmlns:xlink="http://www.w3.org/1999/xlink" x="0px" y="0px"
	 width="45px" height="45px" viewBox="0 0 45 45" enable-background="new 0 0 45 45" xml:space="preserve">
<g>
	<path opacity="0.7" fill="#E53225" enable-background="new    " d="M26.184,11.001c0,0-15.823,11.478-17.104,29.813
		c0,0,25.979,4.457,35.922-0.743C45,40.07,38.958,19.466,26.184,11.001"/>
	<g>
		<g>
			<path fill="#3C3C3C" d="M37.052,27.038c0.021,0.005,0.048,0.001,0.073-0.007C37.093,27.024,37.068,27.028,37.052,27.038z"/>
			<path fill="#3C3C3C" d="M32.732,18.595l0.086,0.082C32.777,18.617,32.754,18.597,32.732,18.595z"/>
			<path fill="#3C3C3C" d="M39.717,32.067c-0.011-0.005-0.016-0.003-0.021-0.005c0.041,0.076,0.099,0.183,0.189,0.352L39.717,32.067
				z"/>
			<path fill="#3C3C3C" d="M20.04,6.771l0.108-0.201C20.098,6.658,20.061,6.713,20.04,6.771z"/>
			<path fill="#3C3C3C" d="M28.764,11.342c-0.046-0.021-0.09-0.07-0.127-0.121C28.67,11.289,28.708,11.342,28.764,11.342z"/>
			<path fill="#3C3C3C" d="M39.775,35.275l0.02-0.186C39.756,35.11,39.738,35.18,39.775,35.275z"/>
			<path fill="#3C3C3C" d="M43.059,40.138c0.004-0.006,0.015-0.009,0.018-0.021C43.059,40.114,43.059,40.126,43.059,40.138z"/>
			<path fill="#3C3C3C" d="M42.322,38.017c-0.031-0.038-0.077-0.079-0.122-0.122C42.234,37.952,42.279,38.027,42.322,38.017z"/>
			<path fill="#3C3C3C" d="M42.135,37.837c0.021,0.021,0.042,0.037,0.064,0.058C42.174,37.858,42.15,37.827,42.135,37.837z"/>
			<path fill="#3C3C3C" d="M43.387,42.697c0.192,0,0.354-0.069,0.526-0.132L43.387,42.697z"/>
			<path fill="#3C3C3C" d="M11.105,23.468l-0.022-0.047C11.077,23.456,11.09,23.467,11.105,23.468z"/>
			<path fill="#3C3C3C" d="M43.607,41.903l0.139,0.019C43.693,41.907,43.648,41.901,43.607,41.903z"/>
			<path fill="#3C3C3C" d="M37.988,32.716c-0.178-0.107-0.235-0.453-0.323-0.413C37.764,32.451,37.818,32.701,37.988,32.716z"/>
			<path fill="#3C3C3C" d="M12.938,28.261l-0.047,0.1C12.917,28.313,12.929,28.284,12.938,28.261z"/>
			<path fill="#3C3C3C" d="M43.607,41.903l-0.156-0.019c0.018,0.017,0.029,0.023,0.048,0.043
				C43.532,41.915,43.57,41.907,43.607,41.903z"/>
			<path fill="#3C3C3C" d="M1.348,41.747c0.003-0.004,0.003-0.004,0.006-0.01c0.004-0.021,0.005-0.033,0.008-0.058L1.348,41.747z"/>
			<path fill="#3C3C3C" d="M0.216,43.528c0.046-0.113,0.093-0.224,0.146-0.346C0.24,43.387,0.213,43.477,0.216,43.528z"/>
			<path fill="#3C3C3C" d="M43.913,42.565l0.296-0.072C44.104,42.503,44.004,42.534,43.913,42.565z"/>
			<path fill="#3C3C3C" d="M15.559,43.679c-0.042,0.005-0.08,0.009-0.116,0.017C15.492,43.694,15.53,43.689,15.559,43.679z"/>
			<path fill="#3C3C3C" d="M29.093,12.035c0.003,0.024,0.017,0.059,0.021,0.089C29.143,12.124,29.159,12.109,29.093,12.035z"/>
			<polygon fill="#3C3C3C" points="23.607,7.935 23.605,7.932 23.605,7.935 			"/>
			<path fill="#3C3C3C" d="M23.743,7.916c-0.021-0.084-0.095-0.063-0.136,0.021C23.633,7.981,23.665,7.99,23.743,7.916z"/>
			<path fill="#3C3C3C" d="M23.424,7.512c0.003,0.016,0.008,0.025,0.014,0.042C23.436,7.534,23.427,7.521,23.424,7.512z"/>
			<polygon fill="#3C3C3C" points="26.262,12.856 26.273,12.854 26.26,12.854 			"/>
			<path fill="#3C3C3C" d="M25.443,11.466c0.005-0.03-0.002-0.069-0.014-0.11C25.423,11.384,25.427,11.423,25.443,11.466z"/>
			<polygon fill="#3C3C3C" points="22.771,8.815 22.767,8.813 22.767,8.815 			"/>
			<path fill="#3C3C3C" d="M16.736,21.792c0.658-1.363,1.385-3.174,2.146-4.482c-0.045-0.364,0.17-0.786,0.35-1.229l0.291,0.054
				l0.105-0.386c0.153-0.111-0.098,0.293,0.14,0.073l-0.093-0.196c0.107,0.01,0.541-0.885,0.417-0.219l0.73-1.375
				c0.169-0.3-0.126-0.26,0.117-0.57c0.112-0.04-0.013,0.142,0.097,0.148c0.734-0.937,0.108-1.355,0.727-2.251l-0.008,0.093
				c0.016-0.188,0.186-0.488,0.151-0.506c-0.332,0.021,0.057,0.226-0.254,0.454c-0.209-0.111,0.066-0.406-0.11-0.451
				c0.197-0.19,0.14-0.366,0.229-0.563c0.316-0.274,0.462-0.779,0.769-0.96c0.004-0.09-0.019-0.216-0.032-0.332
				c-0.044-0.063-0.067-0.146-0.031-0.226c0.207,0.008,0.141,0.118,0.258,0.043l-0.1-0.11c0.073-0.089,0.094-0.041,0.139,0.015
				c0.052-0.088-0.08-0.254,0.05-0.31c0,0,0.012,0.053,0.02,0.105c0.015,0.049,0.023,0.101,0.023,0.101
				c0.014-0.141,0.052-0.156,0.122-0.266c0.029,0.108,0.007,0.144-0.023,0.15c0.132,0.191,0.016-0.215,0.05-0.231
				c-0.022-0.076,0.322-0.01,0.285-0.238c0.049-0.039,0.53-0.449,0.53-0.267v0.28c0-0.313-0.422-0.354-0.306-0.457
				c-0.004,0.026-0.201,0.084-0.194,0.136c0.021-0.317-0.007-0.345,0.06-0.376c0.021,0.067-0.002,0.138,0.021,0.187l-0.053,0.04
				c0.037-0.027,0.06-0.216,0.082-0.154c-0.058-0.257-0.045-0.309-0.043-0.567c0.043,0.301,0.076,0.236,0.142,0.188
				c0.06-0.053,0.144-0.078,0.217,0.185c-0.03,0.108-0.095,0.187-0.118-0.024c-0.109,0.276-0.156,0.599-0.234,0.682
				c0.045-0.031,0.105,0.007,0.07,0.148l0.061-0.328c0.029,0.043,0.053,0.103,0.072,0.143c0.061-0.173-0.008-0.463,0.106-0.446
				c0.123,0.075-0.026,0.401,0.021,0.289c0.158,0.105,0.152-0.2,0.256,0.117c-0.024-0.003-0.069-0.003-0.069-0.048
				c0.047,0.257,0.265,0.379,0.113,0.646c-0.054,0.026-0.104,0.095-0.115,0.026l0.026-0.034c-0.196,0.037,0.099,0.068-0.082,0.229
				c0.088-0.13,0.166,0.069,0.187,0.156l0.115-0.119c0.581,0.05-0.284,0.145-0.071,0.382c0.324,0.348-0.044-0.158,0.199,0.032
				c0.122,0.272,0.045,0.425,0.329,0.781c0.002,0.128,0.047,0.38-0.108,0.464c0.199,0.206,0.328,0.736,0.569,0.806
				c-0.086-0.459-0.403-0.328-0.453-0.879l0.237,0.063c0.176,0.326,0.494,0.703,0.564,0.95c0.006-0.059,0.033-0.098,0.086-0.08
				c0.322,0.433,0.563,0.498,0.769,0.964c-0.114,0.118-0.237-0.152-0.364-0.336c0.049,0.336,0.165,0.305,0.372,0.768
				c-0.114,0.075-0.165-0.302-0.323-0.302l0.324,0.475c-0.011,0.002-0.02,0.008-0.023,0.015c0.256-0.02,0.194,0.383,0.434,0.659
				c0.408,0.718,0.763,0.707,1.167,1.03c0.002,0.13-0.038,0.185-0.115,0.161c-0.003-0.217-0.063-0.153-0.151-0.193
				c0.156,0.232,0.088,0.615-0.076,0.519c0.283,0.356,0.035-0.188,0.236,0.022l0.287,0.529c0.074-0.109-0.007-0.303,0.236-0.066
				c0.16,0.218,0.201,0.335,0.365,0.64c-0.076-0.021-0.11,0.16-0.236-0.065c0.041,0.16,0.166,0.39,0.323,0.433
				c-0.087-0.368,0.405,0.5,0.44,0.187l0.084,0.369c-0.037-0.074-0.119-0.056-0.16-0.175c-0.114,0.162,0.199,0.248,0.281,0.357
				c0.034,0.13,0.194,0.436,0.145,0.483c0.107,0.087,0.211,0.355,0.15,0.438c0.121,0.143,0.117-0.032,0.2-0.01l0.281,0.529
				c-0.074,0.065-0.313,0.214-0.392,0.151c0.201,0.163,0.318-0.041,0.48,0.263c-0.281-0.1,0.086,0.452-0.273,0.289
				c-0.035,0.226,0.25,0.715,0.453,0.965c0.236,0.109-0.088-0.323,0.069-0.366c0.489,0.734,0.922,0.615,1.171,1.199l-0.042-0.16
				c0.279,0.314,0.238,0.283,0.483,0.435c-0.237-0.022-0.27,0.592,0.1,1.147c0.118,0.012-0.006-0.392,0.194-0.357l0.245,0.371
				c0,0.033-0.057,0.004-0.107-0.035c0.257,0.313,0.122,0.729,0.396,0.739l-0.069,0.456l0.035-0.188
				c0.114,0.017,0.366,0.379,0.444,0.445c0.323,0.348,0.326,0.52,0.332,0.779c0.035-0.099,0.11-0.333,0.317-0.042
				c-0.3,0.115,0.255,0.686,0.099,0.737c0.071,0.124,0.108,0.378,0.237,0.346l-0.194,0.053c0.274-0.072,0.519,0.378,0.764,0.705
				c-0.397,0.066,0.24,0.372,0.013,0.648c0.281-0.026,0.446,0.574,0.683,0.553c0.162,0.261-0.07,0.326-0.11,0.422l0.159,0.087
				c-0.033,0.18,0.236,0.685,0.326,1.012l0.366,0.191l-0.036,0.141c0.08,0.021,0.241,0.241,0.239,0.067l0.071,0.151
				c0.236-0.076,0.185,0.187,0.451,0.44c0.004,0.084-0.063,0.089-0.129,0.034c0.082,0.153-0.07,0.136-0.102,0.247
				c-0.002-0.129,0.715,0.369,0.589-0.074c0.075-0.065,0.28,0.141,0.323,0.306l-0.15,0.171l0.319,0.089
				c0.158,0.216,0.085,0.369,0.169,0.562c-0.123-0.187-0.638-0.261-0.357,0.229c-0.176-0.25-0.363-0.328-0.481-0.443
				c0.052,0.104,0.065,0.161-0.112,0.041c0.28,0.355,0.195,0.075,0.44,0.443c-0.194,0.054-0.194,0.185-0.068,0.543l-0.003-0.302
				c0.027,0.002,0.055,0.013,0.073,0.024c-0.033-0.104-0.022-0.14,0.041-0.19c0.042,0.074,0.481,0.347,0.407,0.457
				c0.064-0.5,0.601,0.574,0.635,0.26c0.079,0.023,0.242,0.284,0.165,0.348c-0.324-0.261-0.072,0.328-0.235,0.328
				c0.121,0.097-0.005-0.304,0.156-0.173c0.118,0.184,0.085,0.371,0.087,0.502l-0.079-0.066l0.083,0.328
				c0.119,0.01-0.004-0.348,0.195-0.1c0.005,0.086,0.202,0.336,0.127,0.355c-0.202-0.073-0.318,0.087-0.479-0.131
				c0.12,0.186,0.492,0.782,0.524,0.467l0.126,0.229c-0.012-0.173-0.098-0.631,0.193-0.184l-0.041,0.011l0.322,0.26L39.788,35.1
				c0.042-0.021,0.112,0.011,0.178,0.13c-0.04,0.054,0.003,0.171-0.073,0.192c0.203,0.336,0.282,0.272,0.362,0.293
				c0.122,0.188,0.124,0.273-0.034,0.228c0.127,0.274,0.41,0.719,0.413,0.938c0.28,0.313-0.002-0.088,0.237,0.066
				c-0.15,0.43,0.537,1.202,0.902,1.755c0.195-0.27,0.121,0.145,0.438,0.145c-0.163-0.087,0.091,0.63-0.276,0.157l0.203,0.293
				c-0.033,0.272-0.406-0.458-0.435-0.056c0.202,0.334,0.642,0.433,0.767,0.877c-0.279-0.056-0.291,0.284-0.572,0.272
				c-0.113-0.056-0.773-0.178-0.773-0.285v0.086c0,0.771,0.893,0.122,1.256,0.46c0.285,0.443,0.317,0.419,0.236,0.486
				c0.001,0.089,0.299,0.302,0.417,0.403c-0.281-0.229-0.103-0.563,0.099-0.489c-0.111,0.291,0.401,0.681,0.564,0.769
				c-0.133-0.75-0.23-0.458-0.322-1.168c-0.121-0.056-0.309,0.041-0.434-0.357c0.236,0.189,0.105-0.064,0.104-0.146
				c-0.076,0.121-0.193-0.233-0.304-0.326c0.036-0.14,0.399,0.108,0.233-0.282l-0.316,0.043c-0.043-0.162,0.238-0.021-0.008-0.301
				c0.242,0.108,0.193-0.144,0.478,0.256c-0.049-0.592-0.565-0.715-0.885-1.062c0.039,0.028,0.075,0.021,0.118,0.056
				c-0.118-0.056-0.201-0.205-0.281-0.315c-0.083-0.284,0.236,0.152,0.279,0.059l-0.246-0.416c0.007-0.013,0.016-0.018,0.02-0.021
				c-0.104-0.096-0.189-0.188-0.142-0.254c0.159,0.088,0.28,0.103,0.399,0.154l-0.438-0.359c0.113,0.015-0.055-0.42,0.193-0.144
				l-0.408-0.627l0.154-0.13c-0.121-0.146-0.158-0.132-0.076,0.064c-0.082-0.238-0.883-0.847-0.451-0.878
				c-0.443-0.444-0.486-0.651-0.928-1.228c0.441,0.405-0.094-0.627,0.272-0.156c-0.084-0.328-0.323-0.306-0.485-0.521
				c-0.045-0.25,0.194-0.229,0.397-0.022l-0.24-0.24l0.039-0.01l-0.241-0.197c-0.048-0.294,0.154-0.131,0.033-0.405l-0.197,0.015
				l-0.006-0.215c-0.035,0.095-0.156-0.045-0.281-0.23l0.039-0.013l-0.162-0.217c0.232,0.188-0.082-0.225,0.094-0.168
				c-0.105-0.196-0.107-0.2-0.344-0.547l-0.072,0.11c-0.367-0.421,0.154-0.088-0.051-0.464l-0.113,0.075
				c-0.094-0.63-0.654-0.868-0.74-1.322c0.16,0.215,0.279,0.097,0.239,0.107c-0.244-0.325-0.53-0.896-0.894-1.192
				c0.115-0.205,0.153-0.258,0.029-0.66c-0.165-0.26-0.205-0.292-0.365-0.335c-0.072-0.283-0.462-0.723-0.328-0.796
				c-0.146-0.014-0.112-0.238-0.285-0.344l0.037-0.055l-0.115,0.075c0.029-0.574-0.608-0.706-0.618-1.267l0.081,0.064L36,25.339
				c0.038-0.057,0.118,0.01,0.195-0.014l-0.494-0.908l0.005,0.216c-0.12-0.188-0.323-0.26-0.365-0.51
				c0.401,0.284-0.164-0.301-0.049-0.416l0.161,0.171c-0.161-0.257-0.161-0.257-0.281-0.188c-0.242-0.327,0.112-0.332-0.207-0.591
				l0.124,0.229c-0.038,0.095-0.237-0.021-0.323-0.175c-0.002-0.044-0.004-0.173,0.078-0.066c-0.203-0.251-0.369-0.683-0.494-0.781
				c-0.039-0.163,0.082-0.152,0.156-0.089c-0.441-0.526-0.119-0.268-0.568-0.803l0.078-0.021l-0.201-0.162l-0.006-0.348
				l-0.037,0.143c-0.119-0.186-0.238-0.283-0.324-0.521l0.158,0.045c-0.367-0.51-0.17-0.691-0.619-1.139
				c0-0.043,0.078,0.021,0.119,0.055c-0.442-0.399-0.01-0.434-0.489-0.821c0.053,0.014,0.063-0.06,0.108-0.053l-0.195-0.187
				l0.154-0.043l-0.324-0.09l0.08-0.193l-0.119-0.055c0.152-0.349-0.248-0.586-0.219-0.984l-0.154,0.129
				c-0.84-0.638-0.826-1.905-1.555-2.795l0.157-0.043l-0.403-0.325c-0.008-0.261,0.199,0.075,0.237-0.021
				c-0.323-0.391-0.319-0.087-0.646-0.564c-0.043-0.291,0.158,0.044,0.279,0.144c-0.334-0.432-0.809-1.082-0.918-1.441
				c-0.021,0-0.063-0.012-0.062,0.009c-0.243-0.281-0.41-0.714-0.616-1.052c0.073-0.02,0.135,0.063,0.196,0.141
				c-0.063-0.124-0.108-0.313-0.24-0.386l0.202,0.073c-0.125-0.271-0.53-0.725-0.409-0.848c-0.04,0.057-0.157,0.089-0.28-0.141
				c0.152-0.217-0.447-0.574-0.533-0.984c0.078,0.021,0.24,0.283,0.199,0.205c-0.045-0.203-0.24-0.324-0.404-0.455l0.115,0.013
				c0,0-0.15-0.197-0.301-0.396c-0.076-0.1-0.152-0.194-0.21-0.271c-0.079-0.113-0.133-0.19-0.133-0.19
				c0.052-0.151-0.149-0.482-0.327-0.76c-0.177-0.28-0.339-0.507-0.248-0.527c-0.279-0.504,0.16,0.491-0.215-0.108
				c-0.023-0.247-0.348-0.506-0.236-0.63l0.051,0.052l-0.264-0.43c0,0,0.065,0.028,0.125,0.063c0.064,0.032,0.126,0.065,0.126,0.065
				c-0.249-0.368-0.489-0.475-0.555-0.354C24.924,4.761,24.607,4.359,24.564,4l0.088,0.079c-0.301-0.462-0.51-1.046-0.736-1.601
				c-0.223-0.55-0.457-1.072-0.702-1.227c-0.032-0.109-0.028-0.18,0.044-0.042C23.221,1.139,23.184,1.067,23.143,1l-0.248,0.451
				l0.075-0.393l-0.575,1.464l-0.009-0.151c-0.405,0.692-1.014,1.932-1.504,2.898l0.057-0.183c-0.242,0.586-0.384,0.81-0.516,1.008
				c-0.129,0.197-0.25,0.367-0.419,0.774c-0.002-0.041,0.007-0.071,0.017-0.104l-0.365,0.695l0.016-0.194
				C19.639,7.42,19.565,7.579,19.47,7.73l-0.069,0.111c-0.025,0.036-0.059,0.084-0.067,0.096c-0.034,0.035-0.065,0.07-0.102,0.104
				c-0.136,0.125-0.238,0.193-0.125,0.129c-0.017,0.189-0.077,0.502-0.011,0.582c-0.216,0.422-0.151,0.066-0.352,0.3
				c-0.17,0.304-0.066,0.404-0.357,0.792L18.32,9.808c-0.09,0.197-0.103,0.336-0.235,0.608l0.009-0.092
				c-0.074,0.497-0.51,0.462-0.366,0.931c-0.158,0.159-0.297,0.526-0.438,0.453c-0.195,0.584-0.373,1.024-0.602,1.59
				c-0.292-0.008-0.046,0.119-0.364,0.396l0.148,0.024c-0.39,0.772-1.184,1.528-1.576,2.395l-0.147-0.026l0.059,0.225
				c-0.546,0.886-1.224,2.041-1.61,2.766c-0.06,0.263-0.091,0.683-0.339,1.042l0.005-0.046c-0.272,0.684-0.587,1.397-1.044,2.084
				c-0.029-0.065-0.109-0.007-0.105-0.104c0.059,0.227-0.216,0.424-0.301,0.576l0.195-0.144c0.017,0.252-0.261,0.499-0.41,0.565
				l-0.027,0.372c-0.023,0.021-0.063,0.044-0.086,0.039l0.041,0.083l-0.265,0.107c-0.01,0.095-0.193,0.536-0.097,0.727
				c-0.068,0.012-0.28,0.292-0.188,0.051l-0.675,1.158l0.159-0.159c0.145,0.026,0.038,0.411-0.119,0.573
				c0.022-0.28-0.175-0.092-0.324-0.025c-0.017,0.19,0.191-0.096,0.218,0.021c-0.022,0.241-0.199,0.678-0.318,0.766l0.012-0.145
				c-0.096,0.291-0.396,0.329-0.526,0.604c-0.021,0.284-0.215,0.421,0.038,0.46c-0.14,0.37-0.227,0.075-0.307,0.183
				c0.022,0.206-0.31,0.669-0.457,0.687c0.234,0.315-0.619,0.896-0.373,1.07l-0.312,0.229c0.068,0.038,0.206,0.154,0.112,0.406
				c-0.195,0.188-0.299,0.084-0.408,0.12l0.196,0.251c-0.968,1.15-1.656,2.888-2.635,4.177c-0.27,0.639-0.554,1.465-0.976,2.17
				l0.009-0.094l-0.456,0.688l0.404-0.473c-0.048,0.167-0.063,0.313-0.147,0.46c-0.131,0.188-0.274,0.389-0.422,0.598
				c-0.071,0.106-0.146,0.217-0.221,0.327l-0.057,0.084l-0.027,0.043l-0.044,0.078c-0.064,0.108-0.127,0.217-0.194,0.328
				c-0.506,0.886-1.021,1.856-1.398,2.722c-0.074,0.502-0.267,0.709-0.495,0.95c-0.223,0.232-0.475,0.502-0.581,0.968
				c0.002-0.07-0.054-0.066-0.059-0.128C0.115,43.715,0.042,43.888,0,44c1.353-0.094,2.26-0.167,3.644-0.331
				c-0.23,0.153,0.021,0.146,0.296,0.12c0.271-0.021,0.547-0.064,0.429,0.015l0.204-0.116c0.281,0.065,1.076,0.078,0.929,0.166
				l0.723-0.155l0.032,0.122c0.221-0.004,0.538-0.017,0.823-0.022c0.172-0.009,0.36-0.016,0.538-0.016
				c0.364,0.002,0.692,0.031,0.825,0.153c1.222-0.198,3.15-0.178,4.682-0.153c0.212-0.106,0.664-0.119,1.011-0.134l0.377,0.139
				c0.356-0.049,0.728-0.239,1.06-0.152c-0.001,0.021-0.016,0.028-0.036,0.035c0.363-0.033,0.709,0.038,1.04-0.103
				c0.399,0.002,0.787,0.071,0.667,0.21c0.034-0.24,0.839,0.021,0.839,0.021s20.351,0.274,25.285-1.111
				c0.163-0.122,0.624-0.207,0.442-0.346c0.359-0.052,0.528,0.156,0.594,0.037c-0.489-0.07,0.14-0.312-0.336-0.453l0.302-0.031
				c0.065-0.087-0.409,0.102-0.336-0.055l-0.08,0.225c-0.248-0.027-0.382-0.071-0.472-0.148c-0.235,0.091-0.371,0.395-0.926,0.271
				l0.152,0.514c-0.451,0.019-0.279,0.363-0.372,0.363h0.099l-0.379-0.64c0.287,0.068,0.756-0.384,0.508-0.369
				c-0.537-0.054,0.145-0.081-0.26-0.048c-0.25,0.019-0.183-0.172-0.174-0.24l-0.449-0.021c0.016-0.106,0.297-0.019,0.109-0.116
				l-0.564,0.109c-0.107-0.259-0.609,0.13-0.877-0.109c0.406-0.065-0.035-0.09,0.021-0.174l-0.996,0.026
				c-0.095-0.036,0.263-0.087,0.11-0.068c-0.192-0.068-0.307,0.068-0.41,0.065c-0.088-0.066-0.742,0.015-0.717-0.158
				c-0.676-0.106-0.279,0.226-0.914,0.138c-0.086-0.104,0.498-0.032,0.218-0.138l-0.653,0.049c0.063-0.054,0.123-0.173,0.37-0.153
				c-1.772-0.108-2.735-0.65-4.349-0.489c-0.234-0.119,0.158-0.086,0.322-0.169c-1.164,0.186-1.648-0.25-2.645-0.22l-0.018,0.104
				c-1.397-0.298-3.064-0.079-4.631-0.192l0.188,0.067c-0.215,0.104-0.562,0.114-0.819,0.166c-0.039-0.052,0.184-0.224-0.273-0.173
				c0.096,0.033,0.285,0.066,0.234,0.121c-1.355-0.246-4.196-0.141-6.415-0.236c-2.99,0.126-6.245-0.025-9.185,0.084
				c0.45-0.02,0.264,0.24-0.077,0.188c-0.93-0.415-1.6,0.1-2.55-0.183L7.03,40.298c-0.019,0.004-0.053,0.006-0.057,0.008
				l-0.005,0.005c-0.01,0.006-0.02,0.01-0.027,0.013c-0.02,0.005-0.035,0.006-0.057,0.005c-0.036-0.003-0.063-0.021-0.077-0.033
				c-0.036-0.023-0.009-0.064-0.134-0.021c-0.058,0.01-0.112,0.02-0.171,0.021l0.204-0.081c0.097-0.052-0.04,0-0.047-0.02
				l0.054-0.018c0.044-0.026,0.023-0.037,0.013-0.061c-0.015-0.021-0.021-0.043,0.022-0.053L6.582,40.04
				c0.013-0.051,0.134,0.01,0.066-0.061l0.072,0.026c0.005-0.008-0.015,0.014-0.008-0.033c0.003-0.034,0.006-0.081,0.012-0.129
				c0.009-0.093,0.015-0.188,0.015-0.188c0.245,0.13,0.427-0.754,0.66-0.924c0.138-0.368,0.376-1.07,0.71-1.579
				c0.188-0.048,0.534-0.694,0.816-1.083c0.396-0.815,0.962-1.985,1.556-2.991l-0.185-0.046l0.133-0.273
				c0.034,0.021,0.073-0.01,0.068,0.038c0.303-0.138,0.269-0.639,0.5-0.81c-0.226,0.074-0.122,0.177-0.208,0.327
				c-0.198,0.19-0.248-0.08-0.009-0.345l0.032,0.021l0.021-0.237c0.146,0.023,0.304-0.136,0.451-0.11
				c0.434-0.892,0.525-1.574,1.069-2.459c0.1,0.148,0.313-0.67,0.469-0.388c0.194-0.584-0.255,0.011-0.306-0.308
				c0.085-0.151,0.101-0.335,0.208-0.33c0.022,0.095,0.222-0.064,0.182,0.066l0.173-0.371c0.04-0.023,0.03,0.066,0.026,0.111
				c0.244-0.798,0.867-1.251,1.071-1.975c-0.065-0.084-0.166,0.251-0.237,0.169c0.167-0.74,0.483-0.528,0.679-1.204l0.06,0.179
				c0.022-0.234-0.042-0.364,0.237-0.655c0.182,0-0.022,0.326-0.041,0.513c0.128-0.228,0.395-0.814,0.165-0.69
				c0.095-0.29,0.28-0.342,0.403-0.472c-0.035-0.021-0.236,0.216-0.223,0.029c0.28-0.34,0.583-0.918,0.839-1.363
				c0.034,0.021,0.108,0.007,0.107,0.054C16.194,22.144,16.512,22.309,16.736,21.792z"/>
			<path fill="#3C3C3C" d="M26.343,13.048l-0.081-0.192c-0.033,0.018-0.074,0.021-0.158-0.047L26.343,13.048z"/>
			<path fill="#3C3C3C" d="M23.115,7.817c-0.002,0.036-0.004,0.068-0.006,0.102C23.118,7.891,23.118,7.854,23.115,7.817z"/>
			<path fill="#3C3C3C" d="M22.863,8.891c0-0.068-0.05-0.068-0.093-0.074C22.792,8.843,22.822,8.869,22.863,8.891z"/>
			<path fill="#3C3C3C" d="M29.529,17.748c-0.031-0.022-0.066-0.034-0.094-0.018C29.488,17.764,29.514,17.764,29.529,17.748z"/>
			<path fill="#3C3C3C" d="M37.139,31.226c-0.002-0.021-0.013-0.034-0.013-0.063C37.124,31.18,37.125,31.201,37.139,31.226z"/>
			<path fill="#3C3C3C" d="M36.941,30.388c-0.021-0.036-0.053-0.081-0.106-0.141C36.866,30.314,36.904,30.358,36.941,30.388z"/>
			<path fill="#3C3C3C" d="M27.604,14.514c-0.033-0.046-0.07-0.091-0.127-0.12C27.523,14.469,27.568,14.499,27.604,14.514z"/>
			<path fill="#3C3C3C" d="M36.711,30.104l-0.09-0.194c-0.014,0.002-0.021,0.004-0.032,0.009L36.711,30.104z"/>
			<path fill="#3C3C3C" d="M37.253,31.473c-0.036-0.076-0.094-0.177-0.11-0.244C37.146,31.337,37.189,31.412,37.253,31.473z"/>
			<path fill="#3C3C3C" d="M32.549,22.605c-0.004-0.006-0.008-0.013-0.012-0.021C32.391,22.466,32.469,22.546,32.549,22.605z"/>
			<polygon fill="#3C3C3C" points="35.988,29.387 35.979,29.358 35.904,29.322 			"/>
			<path fill="#3C3C3C" d="M37.661,32.304c-0.022-0.031-0.05-0.063-0.082-0.082c0.017,0.031,0.024,0.066,0.046,0.113
				C37.639,32.315,37.648,32.31,37.661,32.304z"/>
			<path fill="#3C3C3C" d="M33.936,25.511c0.086,0.026,0.137,0.033,0.168,0.023C34.064,25.473,34.016,25.446,33.936,25.511z"/>
		</g>
	</g>
	<g>
		<path fill="#3C3C3C" d="M29.29,24.157l0.005,0.009c0.016-0.01,0.027-0.022,0.057-0.041L29.29,24.157z"/>
		<path fill="#3C3C3C" d="M29.992,24.927c0.02,0.065-0.07,0.05-0.032,0.093C29.977,24.99,30.036,24.994,29.992,24.927z"/>
		<path fill="#3C3C3C" d="M16.151,36.931l-0.024-0.019c0.002,0.011,0.002,0.019-0.001,0.021L16.151,36.931z"/>
		<polygon fill="#3C3C3C" points="19.947,32.078 19.948,32.077 19.944,32.065 		"/>
		<path fill="#3C3C3C" d="M26.379,28.479c0.016-0.015,0.021-0.036,0-0.101C26.355,28.386,26.361,28.438,26.379,28.479z"/>
		<polygon fill="#3C3C3C" points="27.318,27.703 27.313,27.697 27.314,27.703 		"/>
		<polygon fill="#3C3C3C" points="25.881,29.144 25.879,29.142 25.877,29.143 		"/>
		<path fill="#3C3C3C" d="M26.262,28.645L26.262,28.645c0.002,0.012,0.006,0.02,0.006,0.022L26.262,28.645z"/>
		<path fill="#3C3C3C" d="M27.352,27.688l-0.033,0.016c0.016,0.015,0.027,0.033,0.031,0.061L27.352,27.688z"/>
		<path fill="#3C3C3C" d="M25.881,29.144c0.012,0.015,0.026,0.027,0.055,0.041C25.941,29.149,25.907,29.149,25.881,29.144z"/>
		<polygon fill="#3C3C3C" points="29.563,25.184 29.529,25.199 29.542,25.215 		"/>
		<path fill="#3C3C3C" d="M28.475,26.122l-0.002,0.004C28.479,26.175,28.48,26.15,28.475,26.122z"/>
		<polygon fill="#3C3C3C" points="29.555,25.407 29.548,25.407 29.559,25.432 		"/>
		<path fill="#3C3C3C" d="M29.959,25.018c-0.003,0.007-0.004,0.015-0.001,0.021l0.021-0.008
			C29.973,25.029,29.966,25.023,29.959,25.018z"/>
		<path fill="#3C3C3C" d="M31.352,37.284l-0.008,0.007c0.01,0.012,0.022,0.026,0.04,0.053L31.352,37.284z"/>
		<path fill="#3C3C3C" d="M30.594,37.997c-0.064,0.02-0.053-0.071-0.094-0.032C30.529,37.982,30.527,38.042,30.594,37.997z"/>
		<path fill="#3C3C3C" d="M18.775,23.939l0.018-0.023c-0.01,0.001-0.018,0.001-0.021,0L18.775,23.939z"/>
		<polygon fill="#3C3C3C" points="23.551,27.794 23.552,27.795 23.564,27.792 		"/>
		<path fill="#3C3C3C" d="M27.096,34.329c0.018,0.014,0.036,0.021,0.1,0C27.188,34.304,27.139,34.31,27.096,34.329z"/>
		<polygon fill="#3C3C3C" points="27.859,35.28 27.865,35.276 27.859,35.278 		"/>
		<polygon fill="#3C3C3C" points="26.441,33.823 26.443,33.82 26.443,33.818 		"/>
		<path fill="#3C3C3C" d="M31.979,38.864c-0.041,0.021-0.131,0.107-0.144,0.021c0.074-0.013,0.05-0.054,0.058-0.073
			c-0.043,0.063-0.059-0.017-0.092-0.011c0.026-0.059,0.149-0.083,0.118-0.153l-0.131,0.108c-0.001-0.038,0.103-0.078,0.028-0.094
			c0.084-0.037,0.092-0.104,0.166-0.063c0.037-0.17-0.155-0.058-0.252-0.064c0.014-0.002,0.029-0.02,0.043-0.021
			c-0.043,0.021-0.063-0.005-0.082-0.017c-0.008-0.065,0.08-0.022,0.106-0.065l-0.06-0.059l0.008-0.01
			c-0.029,0-0.057-0.003-0.028-0.038c0.056-0.023,0.103-0.052,0.146-0.068l-0.143,0.021c0.047-0.028,0.021-0.114,0.092-0.104
			l-0.104-0.073l0.075-0.086c-0.035-0.009-0.054,0.008-0.038,0.042c-0.01-0.05-0.271,0-0.094-0.14
			c-0.135-0.009-0.131-0.061-0.252-0.106c0.138-0.008,0.023-0.168,0.125-0.132c-0.002-0.075-0.101,0.002-0.144-0.021
			c0.007-0.065,0.101-0.128,0.16-0.124l-0.071-0.003l0.016-0.017l-0.074,0.013c0.011-0.078,0.072-0.087,0.054-0.135l-0.079,0.063
			l0.018-0.067c-0.021,0.041-0.059,0.035-0.09,0.017l0.021-0.019l-0.044-0.021c0.072-0.012-0.016-0.045,0.057-0.078
			c-0.021-0.031-0.023-0.031-0.084-0.066l-0.041,0.058c-0.105-0.021,0.069-0.071,0.024-0.131l-0.056,0.06
			c0.023-0.168-0.176-0.076-0.164-0.195c0.043,0.021,0.104-0.053,0.086-0.036c-0.065-0.025-0.125-0.119-0.239-0.109
			c0.065-0.1,0.087-0.123,0.076-0.211c-0.039-0.033-0.052-0.031-0.111,0.003c-0.002-0.066-0.11-0.091-0.054-0.152
			c-0.057,0.037-0.021-0.043-0.08-0.021l0.021-0.025L30.67,36.52c0.066-0.188-0.174-0.041-0.119-0.212l0.023-0.004l-0.049-0.007
			c0.022-0.026,0.047-0.031,0.08-0.064l-0.108-0.138l-0.021,0.064c-0.029-0.021-0.104,0.016-0.097-0.052
			c0.134-0.03-0.036-0.045,0.021-0.116L30.45,36c-0.041-0.032-0.041-0.032-0.095,0.021c-0.064-0.028,0.078-0.139-0.021-0.123
			l0.023,0.035c-0.021,0.04-0.094,0.065-0.108,0.037c0.004-0.013,0.017-0.052,0.037-0.043c-0.06-0.018-0.079-0.104-0.117-0.098
			c-0.001-0.038,0.045-0.069,0.067-0.07c-0.125-0.035-0.021-0.051-0.149-0.083l0.034-0.029l-0.064,0.012l0.03-0.107l-0.028,0.056
			c-0.026-0.021-0.065-0.017-0.078-0.065l0.063-0.032c-0.098-0.05,0-0.166-0.134-0.172c0.004-0.016,0.026-0.021,0.043-0.021
			c-0.14,0.009,0.04-0.133-0.114-0.109c0.02-0.011,0.032-0.035,0.049-0.047l-0.06-0.003l0.063-0.062l-0.117,0.065l0.052-0.08
			L29.783,35.1c0.096-0.153-0.042-0.107,0.011-0.24l-0.075,0.087c-0.275,0.051-0.144-0.351-0.347-0.409l0.065-0.063l-0.129,0.021
			c0.021-0.079,0.07-0.034,0.099-0.077c-0.093-0.023-0.119,0.063-0.202,0.017c0.014-0.078,0.063-0.034,0.102-0.038
			c-0.096-0.037-0.218-0.101-0.228-0.18c-0.011,0.008-0.021,0.016-0.022,0.022c-0.068-0.02-0.094-0.104-0.142-0.149
			c0.028-0.023,0.046-0.021,0.063-0.017c-0.013-0.022-0.014-0.065-0.057-0.053l0.069-0.031c-0.021-0.051-0.142-0.07-0.08-0.145
			c-0.022,0.027-0.071,0.071-0.101,0.039c0.084-0.111-0.121-0.047-0.113-0.151c0.027-0.017,0.066,0.019,0.062,0.007
			c0.005-0.053-0.065-0.029-0.116-0.022l0.047-0.029l-0.164-0.063c0.082-0.111-0.117-0.103-0.037-0.16
			c-0.036-0.048-0.014,0.077-0.071,0.034c0.026-0.058-0.065-0.025,0.002-0.089h0.013l-0.041-0.036l0.086-0.034
			c-0.043-0.021-0.127,0.021-0.179,0.065c0.007-0.067-0.063-0.079-0.019-0.151l0.022-0.007c-0.104-0.063,0.044-0.313-0.128-0.274
			c0.006-0.017,0.021-0.026,0.03-0.02l-0.045-0.061l0.062-0.03l-0.154-0.02l0.035-0.028c-0.043-0.068-0.146-0.147-0.224-0.212
			L27.9,32.6c-0.127-0.034-0.043-0.108-0.135-0.134c0.012-0.008,0.018-0.008,0.021-0.008l-0.051-0.054l0.041-0.021
			c-0.106,0.023-0.014-0.197-0.051-0.115c-0.053,0.008-0.125,0.002-0.172,0.031c-0.058-0.056,0.029-0.055,0.021-0.113
			c-0.035-0.047-0.102,0-0.122-0.086l0.03-0.028c-0.027-0.021-0.066-0.017-0.107-0.048l0.025-0.006
			c-0.125,0.006,0.022-0.168-0.16-0.078c0.002-0.053-0.066-0.08,0.004-0.143c-0.112-0.035-0.189-0.075-0.283-0.126
			c0.1-0.114-0.021-0.01-0.003-0.114l-0.056,0.061c-0.105-0.102-0.077-0.358-0.209-0.454l0.055-0.061l-0.083,0.036
			c-0.092-0.152-0.222-0.338-0.313-0.438c-0.063-0.005-0.178,0.012-0.205-0.065l0.017-0.002c-0.118-0.063-0.235-0.134-0.292-0.265
			c0.029-0.021,0.038-0.043,0.064-0.048c-0.084,0.034-0.059-0.06-0.072-0.077l-0.022,0.063c-0.081,0.022-0.063-0.063-0.038-0.123
			l-0.104,0.019c0.003-0.008,0.008-0.021,0.017-0.026l-0.036,0.021l0.055-0.099c-0.024,0.005-0.104-0.036-0.193,0.016
			c0.021-0.027,0.002-0.091,0.047-0.068l-0.063-0.088c-0.019-0.109-0.055-0.232,0.047-0.272l0.004,0.025
			c-0.008-0.055,0.037-0.087,0.021-0.104c-0.125-0.105,0.034,0.087-0.066,0.053c-0.09-0.104,0-0.101-0.073-0.173
			c0.065,0.009,0.028-0.067,0.052-0.098c0.104,0.021,0.127-0.089,0.234-0.041c-0.008-0.054-0.073-0.175-0.029-0.224
			c0.108,0.046,0.064,0.079,0.135,0.066l-0.047-0.066c0.047-0.024,0.059-0.004,0.079,0.021c0.042-0.036-0.04-0.108,0.046-0.121
			l0.022,0.083c0.019-0.063,0.042-0.066,0.098-0.109c0.029,0.035,0.009,0.055-0.018,0.061c0.106,0.06,0.014-0.084,0.036-0.089
			c-0.026-0.022-0.072,0.002-0.107-0.07c0.036-0.017-0.018-0.132,0.064-0.079l0.021,0.081c0.014-0.098-0.035-0.101,0.047-0.138
			c0,0.011,0.016,0.021,0.023,0.033c-0.028-0.106,0.085-0.096,0.148-0.146c-0.006-0.038-0.021-0.081-0.01-0.087
			c-0.064-0.003-0.068-0.024-0.125-0.08c0.133,0.056-0.033-0.173,0.09-0.188c0.028,0.034,0.049,0.09-0.005,0.073
			c0.065,0.12,0.142,0.206,0.14,0.294c0.006-0.049,0.024-0.094,0.059-0.046l-0.075-0.101c0.015-0.021,0.029-0.023,0.045-0.038
			c-0.046-0.063-0.12-0.062-0.116-0.135c0.017-0.068,0.107,0.068,0.078,0.022c0.022-0.092-0.066-0.119,0.018-0.145
			c0.003,0.013,0.007,0.035-0.006,0.031c0.072-0.003,0.084-0.109,0.197-0.012c0.018,0.025,0.045,0.063,0.021,0.065l-0.018-0.019
			c0.028,0.12,0.02-0.062,0.096,0.054c-0.059-0.056,0.013-0.097,0.048-0.108l-0.067-0.062c-0.103-0.284,0.115,0.137,0.18,0.027
			c0.013-0.099-0.037,0-0.047-0.079c0.045-0.021,0.112,0.021,0.142-0.058c0.04,0.014,0.104,0.022,0.176,0.094
			c0.004-0.063,0.129-0.062,0.08-0.151c-0.112-0.012,0.019,0.132-0.138,0.095l-0.051-0.089c0.051-0.039,0.07-0.132,0.127-0.135
			c-0.021-0.009-0.041-0.023-0.053-0.044c0.038-0.089-0.012-0.179,0.071-0.217c0.069,0.062,0.021,0.083,0.002,0.113
			c0.09,0.016,0.046-0.034,0.127-0.072c0.06,0.057-0.044,0.036,0.001,0.103l0.053-0.084l0.012,0.013
			c-0.08-0.109,0.063-0.039,0.076-0.109c0.103-0.095-0.006-0.238-0.021-0.37c0.038,0.013,0.064,0.034,0.083,0.065
			c-0.065-0.021-0.028,0.01-0.017,0.044c0.022-0.041,0.162,0.023,0.182,0.082c0.025-0.078-0.066-0.032-0.064-0.096l0.079-0.063
			c-0.056-0.041-0.091-0.026-0.088-0.106c0.021-0.044,0.043-0.047,0.088-0.085c0.019,0.03,0.084,0.066,0.05,0.091
			c0.037,0,0.07-0.023,0.039-0.089c-0.089-0.002,0.034-0.109-0.07-0.156l0.088,0.004c-0.012,0.009,0.021,0.043-0.006,0.048
			c0.082,0.063,0.02-0.058,0.024-0.079c0.027-0.001,0.078-0.034,0.107-0.008c-0.005-0.034,0.045-0.053,0.088-0.021
			c0.01-0.035-0.043-0.054-0.062-0.081l0.08-0.064c0.041,0.038,0.153,0.15,0.158,0.176c-0.01-0.067-0.107-0.134-0.061-0.17
			c0.051,0.106,0.113,0.014,0.166,0.143c0.08,0.034,0.148-0.03,0.164-0.089c-0.037-0.085-0.074,0.005-0.133-0.066
			c0.084-0.122-0.08-0.313,0.025-0.356h-0.037c0.016-0.084,0.018-0.066-0.008-0.152c0.064,0.097,0.259,0.168,0.324,0.075
			c-0.032-0.052-0.116-0.037-0.166-0.113l0.042-0.064c0.011,0.005,0.017,0.021,0.02,0.039c0.022-0.072,0.19,0.021,0.111-0.087
			l0.159,0.073l-0.065-0.032c-0.028-0.046,0.011-0.107,0.007-0.138c0.014-0.096,0.065-0.078,0.146-0.056
			c-0.041-0.023-0.139-0.08-0.107-0.134c0.122,0.134,0.135-0.033,0.197,0.033c0.016-0.021,0.084-0.006,0.035-0.063l0.07,0.083
			c-0.104-0.115-0.033-0.173-0.006-0.239c0.135,0.165,0.041-0.064,0.193,0.063c-0.09-0.114,0.048-0.123-0.027-0.224
			c0.031-0.041,0.12,0.063,0.161,0.088l-0.022-0.058c0.066,0.032,0.144-0.026,0.215-0.03l-0.049-0.131l0.054,0.026
			c-0.017-0.026,0.003-0.072-0.05-0.089l0.025-0.018c-0.096-0.105,0.002-0.058,0.004-0.139c0.022,0.006,0.045,0.032,0.049,0.056
			c0.021-0.021,0.063,0.044,0.107,0.065c-0.037-0.014-0.099-0.255-0.195-0.246c-0.041-0.038-0.037-0.103-0.002-0.104l0.1,0.08
			l-0.064-0.12c0.021-0.043,0.088,0.002,0.123-0.015c-0.023,0.029,0.106,0.237,0.172,0.167c-0.023,0.044,0.006,0.112,0.006,0.152
			c0.018-0.012,0.031-0.009,0.045,0.055c0.025-0.079-0.032-0.075,0.01-0.139c0.072,0.087,0.111,0.101,0.186,0.082l-0.091-0.023
			c-0.008-0.015-0.013-0.021-0.015-0.028c-0.022,0.005-0.038-0.006-0.068-0.034c0.014-0.009-0.031-0.161,0.021-0.118
			c-0.172-0.077,0.002-0.188-0.107-0.235c-0.018-0.028,0.02-0.066,0.063-0.03c0.014,0.107,0.117,0.063,0.164,0.127
			c-0.004-0.038-0.092-0.027-0.099-0.079c0.022-0.03,0.089,0.001,0.126,0.015l0.004,0.026l0.074-0.003
			c-0.029-0.049-0.105-0.032-0.087-0.09c0.024,0.009,0.044-0.052,0.073-0.017c0.033,0.071,0.115,0.136,0.099,0.183
			c0.021-0.03,0.099-0.121-0.009-0.166l0.033-0.026c-0.055-0.017-0.166-0.024-0.111-0.099l0.016,0.02l-0.016-0.106l0.061,0.022
			c-0.021-0.021-0.028-0.048-0.015-0.062c0.026,0.021,0.054,0.017,0.081,0.052c0.043-0.05,0-0.088-0.016-0.117
			c0.021-0.031,0.047-0.023,0.078,0.035c0.047-0.021,0.103-0.095,0.166-0.072c0.016-0.083-0.024-0.009-0.049-0.091
			c0.174,0.104,0.209-0.1,0.275-0.194c-0.141-0.104,0.01-0.031-0.084-0.161c0.021,0.057,0.166,0.024,0.13,0.128l0.028-0.056
			c0.095,0.043-0.021,0.116,0.109,0.173c0.043-0.049-0.056-0.219,0.045-0.226c0.064,0.108,0.018-0.069,0.094,0.04
			c0.021,0.042-0.008,0.051-0.016,0.068l0.023,0.011c0.128-0.071-0.064-0.136-0.068-0.245c0.053-0.071,0.114,0.021,0.156,0.061
			c0.023,0.01,0.045-0.034,0.04-0.072c0.013,0.091-0.124,0.011-0.158-0.063c0.122,0.076,0.104-0.079,0.082-0.139
			c-0.192-0.021-0.065,0.058-0.26,0.021c0.021,0.043,0.106,0.134,0.021,0.146c-0.011-0.074-0.05-0.05-0.072-0.056
			c0.063,0.043-0.016,0.056-0.01,0.092c-0.055-0.026-0.082-0.151-0.151-0.121l0.106,0.132c-0.035,0.003-0.074-0.099-0.091-0.023
			c-0.036-0.089-0.103-0.096-0.062-0.17c-0.168-0.039-0.055,0.158-0.064,0.254c-0.001-0.015-0.018-0.026-0.021-0.043
			c0.021,0.043-0.004,0.063-0.014,0.084c-0.063,0.007-0.021-0.084-0.064-0.107l-0.057,0.058l-0.01-0.007
			c0,0.028-0.005,0.057-0.038,0.028c-0.02-0.059-0.051-0.105-0.065-0.148l0.02,0.146c-0.029-0.048-0.113-0.021-0.102-0.095
			l-0.071,0.104L29.998,23.7c-0.01,0.034,0.008,0.055,0.042,0.038c-0.05,0.012,0,0.275-0.138,0.096
			c-0.008,0.137-0.06,0.133-0.105,0.256c-0.006-0.141-0.164-0.021-0.129-0.127c-0.072,0.003,0.001,0.104-0.021,0.146
			c-0.064-0.01-0.125-0.104-0.121-0.162l-0.002,0.073L29.507,24l0.011,0.08c-0.076-0.013-0.084-0.077-0.131-0.054l0.061,0.079
			l-0.064-0.021c0.041,0.024,0.033,0.063,0.014,0.093l-0.017-0.021l-0.021,0.046c-0.012-0.076-0.045,0.014-0.078-0.058
			c-0.029,0.021-0.029,0.022-0.065,0.086l0.056,0.041c-0.021,0.106-0.069-0.071-0.127-0.024l0.059,0.056
			c-0.166-0.023-0.077,0.178-0.194,0.167c0.022-0.044-0.051-0.104-0.034-0.087c-0.027,0.065-0.121,0.126-0.107,0.241
			c-0.098-0.066-0.124-0.089-0.209-0.075c-0.031,0.038-0.029,0.054,0.002,0.108c-0.064,0.002-0.088,0.115-0.148,0.06
			c0.035,0.058-0.041,0.021-0.021,0.079l-0.027-0.021l0.061,0.056c-0.188-0.065-0.041,0.177-0.209,0.124l-0.004-0.022l-0.006,0.048
			c-0.027-0.022-0.031-0.047-0.063-0.081L28.109,25l0.064,0.021c-0.021,0.028,0.014,0.106-0.051,0.099
			c-0.03-0.135-0.045,0.037-0.114-0.023l0.007-0.048c-0.031,0.041-0.031,0.041,0.022,0.096c-0.026,0.066-0.136-0.076-0.12,0.024
			l0.032-0.026c0.041,0.023,0.063,0.098,0.04,0.111c-0.016-0.004-0.053-0.017-0.042-0.037c-0.019,0.06-0.104,0.08-0.099,0.119
			c-0.035,0.001-0.066-0.046-0.07-0.071c-0.031,0.128-0.047,0.023-0.079,0.154l-0.028-0.034l0.01,0.065l-0.105-0.03l0.054,0.028
			c-0.022,0.028-0.017,0.066-0.065,0.079l-0.03-0.063c-0.05,0.1-0.163,0-0.171,0.136c-0.014-0.004-0.018-0.026-0.02-0.044
			c0.006,0.145-0.13-0.038-0.107,0.116c-0.014-0.021-0.037-0.033-0.049-0.052v0.063l-0.061-0.064l0.064,0.119l-0.082-0.052
			l0.021,0.044c-0.149-0.099-0.106,0.043-0.237-0.012l0.086,0.075c0.049,0.281-0.345,0.146-0.406,0.353l-0.063-0.066l0.02,0.13
			c-0.078-0.021-0.033-0.07-0.074-0.098c-0.023,0.093,0.064,0.118,0.016,0.201c-0.074-0.012-0.031-0.063-0.037-0.1
			c-0.033,0.096-0.098,0.224-0.179,0.229c0.009,0.012,0.017,0.021,0.021,0.022c-0.017,0.067-0.101,0.098-0.143,0.146
			c-0.027-0.031-0.021-0.049-0.017-0.067c-0.022,0.015-0.065,0.017-0.05,0.061l-0.034-0.072c-0.046,0.021-0.066,0.145-0.14,0.084
			c0.026,0.021,0.07,0.069,0.037,0.1c-0.109-0.084-0.047,0.123-0.148,0.118c-0.02-0.03,0.017-0.069,0.006-0.064
			c-0.053-0.005-0.029,0.065-0.021,0.114l-0.031-0.047l-0.064,0.168c-0.109-0.084-0.097,0.121-0.156,0.039
			c-0.045,0.036,0.075,0.012,0.033,0.073c-0.054-0.028-0.027,0.064-0.088-0.002l-0.002-0.017l-0.031,0.041l-0.035-0.086
			c-0.021,0.043,0.021,0.131,0.063,0.184c-0.063-0.009-0.078,0.063-0.149,0.018l-0.003-0.023c-0.063,0.107-0.307-0.047-0.272,0.129
			c-0.014-0.005-0.026-0.022-0.018-0.029l-0.059,0.048l-0.032-0.063l-0.019,0.156l-0.028-0.034
			c-0.067,0.043-0.146,0.146-0.209,0.226l-0.003-0.025c-0.031,0.127-0.107,0.041-0.133,0.139c-0.006-0.015-0.006-0.021-0.006-0.022
			l-0.055,0.053l-0.019-0.043c0.024,0.11-0.198,0.017-0.117,0.055c0.006,0.052,0.003,0.125,0.033,0.175
			c-0.056,0.06-0.056-0.03-0.114-0.022c-0.046,0.034,0,0.104-0.084,0.123l-0.027-0.032c-0.021,0.028-0.019,0.068-0.049,0.109
			l-0.004-0.025c0.004,0.104-0.104,0.027-0.098,0.102L23.93,28.12l0.014,0.125c-0.035-0.01-0.071-0.002-0.092-0.024
			c-0.053-0.158-0.125-0.364-0.313-0.438c-0.221,0.045,0.068-0.177-0.107-0.165c0.021-0.003,0.041-0.021,0.063-0.025
			c-0.131-0.046-0.198-0.068-0.367-0.084c0.15-0.12-0.059-0.058,0.021-0.114l-0.064,0.047c0.018-0.056-0.018-0.111,0.027-0.147
			l-0.107,0.028l0.057-0.062c-0.045-0.059-0.194-0.125-0.108-0.265c-0.208-0.05-0.373-0.28-0.502-0.464
			c-0.066,0.021-0.116-0.022-0.155-0.058l0.031-0.105c-0.058-0.021-0.181,0.021-0.169-0.056c0.008-0.01,0.017-0.015,0.021-0.016
			c-0.05-0.021-0.048-0.098-0.146-0.067c-0.034-0.05-0.037-0.124,0.038-0.17c-0.117,0.105-0.065-0.109-0.065-0.109
			s-1.743-2.446-2.856-2.383c-0.07,0.033-0.153,0.021-0.203,0.104c-0.059-0.019,0.024-0.13-0.037-0.084
			c0.013,0.089-0.159,0.124-0.184,0.24l-0.044-0.021c-0.047,0.03,0.087,0.002,0.008,0.065l0.112-0.094
			c0.009,0.043,0,0.078-0.025,0.121c0.064-0.02,0.221-0.137,0.213-0.021l-0.022-0.011c0.048,0.045-0.042,0.095-0.05,0.12
			l-0.009-0.013l-0.018,0.092c0.007-0.064-0.125-0.033-0.096-0.014c0.023,0.086,0.014-0.039,0.065-0.009
			c0.028,0.021-0.032,0.065-0.065,0.1l0.051,0.043c-0.053,0.046-0.026-0.034-0.062,0.03l0.108,0.016
			c-0.112,0.129,0.119,0.007,0.028,0.148c-0.068-0.018-0.038,0.042-0.084,0.073l0.107,0.1c-0.009,0.027-0.065,0.01-0.042,0.02
			c-0.018,0.059,0.062,0.007,0.067,0.021c-0.022,0.041,0.074,0.076-0.01,0.154c0.014,0.124,0.133-0.068,0.15,0.043
			c-0.042,0.057-0.063-0.041-0.085,0.035l0.083,0.056c-0.028,0.019-0.095,0.064-0.108,0.024c0.108,0.252-0.06,0.604,0.168,0.716
			c-0.037,0.08-0.056,0.021-0.11,0.039c0.194,0.052,0.033,0.3,0.142,0.401l0.051-0.044c-0.016,0.294,0.241,0.386,0.333,0.612
			l0.018-0.052c0.066-0.021,0.108,0.011,0.153,0.018c-0.022,0.029-0.121,0.08-0.058,0.109c0.009-0.023,0.009-0.066,0.036-0.078
			c0.007,0.264,0.321,0.542,0.479,0.836c0.333,0.283,0.562,0.723,0.882,1.012c-0.049-0.043,0.091-0.14,0.098-0.074
			c-0.112,0.294,0.194,0.14,0.148,0.371c0.237,0.12,0.211,0.457,0.527,0.477l-0.056,0.059c-0.003,0.053,0.043,0.022,0.073,0.041
			l-0.017,0.017c0.034,0.084,0.164,0.104,0.172,0.166l0.065-0.062c0.04,0.031-0.033,0.065,0.041,0.068l-0.034,0.03l0.106-0.019
			c-0.118,0.107,0.089,0.114,0.065,0.197c0.022,0.01,0.057,0.022,0.087,0.041c-0.024,0.008-0.064,0-0.093-0.019l0.015,0.105
			c-0.009-0.002-0.022-0.008-0.028-0.018l0.021,0.038l-0.096-0.056c0.005,0.023-0.036,0.104,0.014,0.194
			c-0.025-0.021-0.088-0.003-0.065-0.048l-0.184,0.132l0.051,0.004c0.058,0.058,0.042,0.137-0.008,0.136
			c-0.012-0.075-0.073-0.086-0.126-0.112c0.007,0.053,0.064,0.031,0.083,0.075c0.011,0.066-0.029,0.143-0.068,0.127l-0.005-0.036
			c-0.019,0.06-0.127-0.027-0.16,0.014c0.011,0.079-0.055,0.063,0.045,0.154c-0.027,0.064-0.082-0.053-0.107-0.048
			c0.021,0.068-0.071,0.105-0.129,0.063c0.109,0.173-0.178,0.069-0.071,0.203l-0.107-0.031c0.028,0.033,0.092,0.115,0.071,0.158
			c-0.064-0.008-0.109-0.069-0.15-0.098l0.096,0.143c-0.296,0.033-0.446,0.338-0.735,0.415c-0.063,0.108-0.114,0.266-0.232,0.343
			l-0.003-0.022l-0.13,0.063l0.124-0.013c-0.009,0.034-0.003,0.071-0.024,0.093c-0.153,0.053-0.358,0.127-0.433,0.317
			c0.045,0.224-0.173-0.07-0.159,0.107c-0.005-0.021-0.021-0.04-0.027-0.063c-0.046,0.133-0.069,0.199-0.083,0.371
			c-0.119-0.152-0.056,0.06-0.115-0.021l0.047,0.067c-0.052-0.02-0.109,0.019-0.142-0.031l0.025,0.109l-0.06-0.058
			c-0.058,0.044-0.123,0.197-0.261,0.108c-0.048,0.21-0.278,0.378-0.456,0.51c0.022,0.069-0.021,0.119-0.056,0.158l-0.105-0.031
			c-0.021,0.06,0.022,0.185-0.055,0.172c-0.008-0.009-0.012-0.016-0.014-0.021c-0.023,0.05-0.096,0.048-0.07,0.146
			c-0.045,0.035-0.118,0.037-0.166-0.038c0.104,0.118-0.106,0.067-0.106,0.067s-2.408,1.77-2.347,2.899
			c0.034,0.071,0.022,0.154,0.103,0.208c-0.019,0.059-0.128-0.027-0.083,0.034c0.086-0.014,0.122,0.161,0.236,0.188l-0.02,0.043
			c0.03,0.049,0-0.086,0.063-0.006l-0.091-0.113c0.042-0.01,0.076,0,0.118,0.024c-0.015-0.065-0.134-0.225-0.018-0.216l-0.011,0.021
			c0.043-0.05,0.094,0.042,0.118,0.048l-0.012,0.013l0.09,0.019c-0.065-0.011-0.033,0.125-0.015,0.096
			c0.084-0.021-0.037-0.014-0.009-0.064c0.022-0.028,0.065,0.031,0.098,0.064l0.044-0.049c0.044,0.052-0.034,0.024,0.03,0.063
			l0.013-0.11c0.128,0.115,0.009-0.12,0.148-0.029c-0.017,0.068,0.042,0.039,0.071,0.087l0.1-0.108
			c0.024,0.009,0.009,0.064,0.02,0.043c0.054,0.019,0.005-0.063,0.019-0.066c0.039,0.022,0.076-0.076,0.15,0.01
			c0.123-0.013-0.067-0.136,0.042-0.153c0.057,0.043-0.04,0.064,0.037,0.091l0.052-0.086c0.019,0.028,0.064,0.097,0.027,0.107
			c0.246-0.107,0.593,0.061,0.704-0.17c0.079,0.035,0.021,0.057,0.038,0.11c0.052-0.196,0.296-0.033,0.396-0.143l-0.044-0.053
			c0.289,0.017,0.379-0.245,0.606-0.338l-0.052-0.02c-0.021-0.067,0.011-0.109,0.017-0.155c0.027,0.021,0.079,0.124,0.107,0.06
			c-0.024-0.009-0.064-0.009-0.079-0.038c0.262-0.007,0.533-0.325,0.825-0.484c0.279-0.339,0.712-0.571,0.995-0.898
			c-0.043,0.05-0.138-0.092-0.075-0.098c0.29,0.114,0.138-0.197,0.368-0.152c0.116-0.237,0.447-0.213,0.466-0.534l0.06,0.059
			c0.05,0.002,0.021-0.045,0.041-0.075l0.016,0.018c0.081-0.034,0.104-0.165,0.163-0.174l-0.059-0.067
			c0.03-0.038,0.065,0.035,0.068-0.04l0.027,0.034l-0.016-0.105c0.105,0.116,0.113-0.091,0.193-0.066
			c0.028-0.064,0.073-0.201,0.167-0.247c0.066,0.046,0.155-0.04,0.24-0.064c0.097-0.122,0.237-0.291,0.398-0.407l-0.07-0.071
			l0.031-0.04c0.016,0.02,0.026,0.022,0.028,0.035c0.108,0.059,0.062-0.108,0.14-0.082c-0.081-0.053-0.035,0.015-0.06,0.029
			c-0.065-0.007-0.104-0.109-0.024-0.11l0.015,0.021l0.005-0.064c0.058,0.058,0.106,0.061,0.163,0.114
			c0.107-0.132,0.099-0.31,0.249-0.401c0.047,0.076,0.072-0.104,0.151,0.033c0.033-0.112-0.1-0.079-0.139-0.194
			c0.021-0.021,0.017-0.067,0.062-0.032c0.016,0.038,0.08,0.058,0.072,0.081l0.04-0.062c0.017,0.003,0.021,0.03,0.021,0.042
			c0.041-0.158,0.25-0.098,0.281-0.249c-0.031-0.049-0.049,0.021-0.078-0.021c0.017-0.171,0.15-0.005,0.182-0.147l0.035,0.071
			c-0.01-0.065-0.043-0.125,0.047-0.12c0.068,0.06,0.015,0.091,0.021,0.145c0.019-0.015,0.041-0.048,0.048-0.079
			c0.016,0.013,0.022,0.022,0.047,0.026c0.047-0.029-0.022-0.047,0.021-0.079c0.168,0.018,0.004,0.152,0.145,0.185l-0.071,0.036
			c0.065-0.011,0.124-0.042,0.12,0.048c-0.06,0.068-0.09,0.015-0.144,0.02c0.025,0.036,0.119,0.103,0.153,0.021
			c0.061,0.019,0.013,0.087,0.016,0.125c0.016-0.019,0.01-0.077,0.063-0.084c0.012,0.086,0.087,0.166,0.141,0.236
			c-0.018,0.017-0.037,0.044-0.05,0.046c0.132-0.029-0.021,0.104,0.065,0.152c0.195,0.162,0.508,0.325,0.656,0.535
			c0.125-0.043,0.182,0.016,0.256,0.057L25.2,32.958l0.083,0.019c-0.018,0.054-0.059-0.021-0.065,0.062l0.089-0.051
			c-0.037,0.043,0.09,0.154-0.068,0.149l0.179,0.195c0.035,0.045,0.118-0.065,0.133,0.007c-0.021,0.041-0.036,0.007-0.073,0.05
			c0.043,0.224,0.371-0.052,0.443,0.132l-0.023,0.003c0.053-0.008,0.086,0.038,0.105,0.021c0.102-0.127-0.085,0.036-0.053-0.066
			c0.102-0.092,0.1,0,0.169-0.073c-0.009,0.065,0.063,0.029,0.097,0.052c-0.021,0.104,0.085,0.128,0.04,0.239
			c0.054-0.01,0.173-0.076,0.222-0.03c-0.047,0.109-0.082,0.064-0.066,0.137l0.066-0.048c0.023,0.048,0.006,0.06-0.022,0.081
			c0.034,0.043,0.108-0.041,0.12,0.044l-0.081,0.022c0.06,0.021,0.063,0.043,0.106,0.103c-0.031,0.027-0.052,0.008-0.058-0.021
			c-0.06,0.109,0.083,0.018,0.089,0.04c0.021-0.029-0.002-0.076,0.069-0.108c0.016,0.034,0.127-0.021,0.077,0.065l-0.079,0.021
			c0.096,0.013,0.099-0.04,0.134,0.044c-0.007,0-0.021,0.02-0.031,0.022c0.107-0.025,0.092,0.087,0.143,0.154
			c0.037-0.008,0.078-0.022,0.086-0.013c0.002-0.064,0.025-0.069,0.078-0.125c-0.053,0.135,0.172-0.035,0.184,0.09
			c-0.032,0.026-0.088,0.05-0.07-0.005c-0.119,0.068-0.203,0.146-0.287,0.144c0.047,0.005,0.09,0.021,0.043,0.061l0.099-0.076
			c0.019,0.017,0.022,0.033,0.034,0.047c0.064-0.048,0.063-0.123,0.136-0.119c0.065,0.017-0.069,0.11-0.022,0.08
			c0.092,0.023,0.118-0.068,0.145,0.019c-0.014,0.002-0.038,0.006-0.034-0.008c0.003,0.075,0.108,0.087,0.015,0.2
			c-0.027,0.018-0.063,0.047-0.064,0.021l0.017-0.018c-0.118,0.028,0.058,0.02-0.054,0.099c0.057-0.06,0.097,0.013,0.107,0.048
			l0.06-0.067c0.28-0.104-0.136,0.118-0.028,0.182c0.096,0.014-0.001-0.036,0.076-0.049c0.021,0.049-0.021,0.117,0.057,0.146
			c-0.014,0.041-0.021,0.106-0.093,0.179c0.064,0.006,0.062,0.133,0.151,0.082c0.01-0.114-0.129,0.02-0.096-0.141l0.088-0.052
			c0.039,0.048,0.13,0.071,0.133,0.128c0.009-0.021,0.021-0.039,0.044-0.051c0.086,0.038,0.178-0.013,0.212,0.07
			c-0.061,0.07-0.08,0.022-0.109,0.002c-0.019,0.093,0.034,0.047,0.071,0.131c-0.058,0.059-0.036-0.045-0.103,0.002l0.082,0.053
			l-0.012,0.013c0.106-0.082,0.041,0.063,0.106,0.075c0.093,0.104,0.237-0.007,0.366-0.021c-0.014,0.039-0.032,0.064-0.064,0.084
			c0.021-0.065-0.011-0.028-0.043-0.019c0.042,0.022-0.023,0.165-0.082,0.188c0.078,0.022,0.032-0.069,0.096-0.065l0.063,0.079
			c0.042-0.059,0.027-0.096,0.104-0.091c0.045,0.021,0.049,0.043,0.084,0.091c-0.029,0.018-0.063,0.083-0.088,0.051
			c0,0.038,0.025,0.071,0.086,0.038c0.002-0.089,0.11,0.035,0.154-0.07l-0.002,0.091c-0.009-0.013-0.042,0.021-0.047-0.008
			c-0.064,0.084,0.059,0.021,0.079,0.024c0.001,0.03,0.032,0.078,0.007,0.109c0.034-0.007,0.053,0.045,0.021,0.088
			c0.033,0.01,0.051-0.044,0.08-0.063l0.064,0.08c-0.038,0.042-0.148,0.159-0.174,0.163c0.064-0.012,0.132-0.107,0.167-0.063
			c-0.104,0.052-0.011,0.111-0.14,0.172c-0.033,0.078,0.028,0.147,0.086,0.162c0.084-0.036-0.002-0.073,0.066-0.137
			c0.123,0.087,0.309-0.079,0.352,0.028l-0.002-0.039c0.082,0.016,0.068,0.019,0.151-0.007c-0.094,0.064-0.165,0.264-0.073,0.328
			c0.047-0.031,0.036-0.118,0.11-0.166l0.063,0.041c-0.004,0.011-0.022,0.018-0.039,0.021c0.074,0.022-0.021,0.191,0.086,0.113
			l-0.071,0.161l0.03-0.066c0.045-0.031,0.106,0.012,0.134,0.006c0.097,0.017,0.079,0.066,0.058,0.147
			c0.022-0.043,0.078-0.14,0.131-0.108c-0.132,0.125,0.035,0.139-0.031,0.199c0.019,0.02,0.004,0.086,0.062,0.037l-0.083,0.072
			c0.116-0.107,0.171-0.035,0.236-0.008c-0.164,0.139,0.063,0.044-0.061,0.196c0.111-0.092,0.119,0.047,0.219-0.025
			c0.039,0.028-0.063,0.117-0.086,0.16l0.058-0.021c-0.032,0.067,0.024,0.145,0.03,0.219l0.127-0.05l-0.026,0.056
			c0.028-0.018,0.071,0.003,0.088-0.051l0.017,0.026c0.104-0.098,0.056,0.003,0.138,0.005c-0.009,0.021-0.032,0.045-0.058,0.048
			c0.021,0.021-0.041,0.063-0.064,0.109c0.012-0.041,0.251-0.101,0.243-0.196c0.036-0.043,0.1-0.04,0.102-0.002l-0.079,0.1
			l0.118-0.064c0.043,0.021-0.001,0.089,0.013,0.125c-0.029-0.022-0.232,0.107-0.164,0.175c-0.045-0.023-0.11,0.005-0.15,0.005
			c0.011,0.019,0.009,0.031-0.053,0.048c0.076,0.024,0.072-0.033,0.135,0.01c-0.084,0.072-0.098,0.112-0.081,0.188l0.026-0.093
			c0.013-0.009,0.022-0.015,0.026-0.017c-0.003-0.021,0.007-0.036,0.034-0.068c0.009,0.013,0.158-0.032,0.116,0.021
			c0.075-0.175,0.187,0.002,0.231-0.109c0.028-0.021,0.066,0.02,0.03,0.063c-0.106,0.016-0.063,0.122-0.125,0.171
			c0.039-0.008,0.028-0.098,0.08-0.104c0.028,0.021-0.003,0.089-0.015,0.128l-0.025,0.004l0.002,0.075
			c0.048-0.031,0.032-0.108,0.089-0.089c-0.008,0.022,0.05,0.045,0.017,0.07c-0.071,0.036-0.135,0.12-0.18,0.104
			c0.03,0.021,0.119,0.099,0.164-0.014l0.025,0.035c0.018-0.054,0.025-0.17,0.098-0.112l-0.02,0.018l0.105-0.018l-0.023,0.063
			c0.021-0.021,0.046-0.027,0.063-0.014c-0.021,0.022-0.018,0.053-0.05,0.078c0.049,0.045,0.087,0.002,0.114-0.017
			c0.03,0.022,0.022,0.049-0.035,0.081c0.021,0.048,0.094,0.104,0.071,0.168c0.082,0.017,0.009-0.024,0.091-0.049
			c-0.104,0.179,0.097,0.214,0.188,0.278c0.106-0.142,0.033,0.009,0.16-0.086c-0.056,0.021-0.023,0.169-0.125,0.134l0.053,0.03
			c-0.039,0.095-0.115-0.021-0.168,0.109c0.049,0.043,0.213-0.057,0.221,0.046c-0.106,0.065,0.068,0.018-0.041,0.095
			c-0.041,0.021-0.047-0.007-0.067-0.016l-0.008,0.022c0.071,0.131,0.132-0.064,0.244-0.067c0.067,0.054-0.021,0.114-0.064,0.157
			c-0.008,0.022,0.035,0.046,0.075,0.041c-0.092,0.014-0.014-0.126,0.063-0.158c-0.072,0.121,0.078,0.104,0.138,0.08
			C32.02,38.934,31.943,39.059,31.979,38.864z M24.004,28.266c0.001,0.01,0.003,0.021,0.012,0.033
			c-0.014-0.013-0.027-0.018-0.035-0.029L24.004,28.266z"/>
		<path fill="#3C3C3C" d="M26.932,34.209L26.932,34.209c-0.01,0.003-0.018,0.007-0.022,0.005L26.932,34.209z"/>
		<path fill="#3C3C3C" d="M27.874,35.316l-0.015-0.036c-0.014,0.018-0.031,0.028-0.061,0.032L27.874,35.316z"/>
		<path fill="#3C3C3C" d="M26.441,33.823c-0.014,0.012-0.029,0.024-0.041,0.055C26.434,33.884,26.434,33.848,26.441,33.823z"/>
		<polygon fill="#3C3C3C" points="30.341,37.563 30.324,37.528 30.311,37.54 		"/>
		<path fill="#3C3C3C" d="M29.417,36.456l-0.004-0.002C29.365,36.461,29.389,36.463,29.417,36.456z"/>
		<polygon fill="#3C3C3C" points="30.121,37.553 30.121,37.546 30.096,37.557 		"/>
		<path fill="#3C3C3C" d="M30.503,37.965c-0.006-0.002-0.013-0.004-0.021-0.001l0.006,0.022
			C30.493,37.979,30.498,37.972,30.503,37.965z"/>
	</g>
</g>
</svg>
