<?xml version="1.0" encoding="utf-8"?>
<!-- Generator: Adobe Illustrator 16.0.3, SVG Export Plug-In . SVG Version: 6.00 Build 0)  -->
<!DOCTYPE svg PUBLIC "-//W3C//DTD SVG 1.1//EN" "http://www.w3.org/Graphics/SVG/1.1/DTD/svg11.dtd">
<svg version="1.1" id="Layer_1" xmlns="http://www.w3.org/2000/svg" xmlns:xlink="http://www.w3.org/1999/xlink" x="0px" y="0px"
	 width="45px" height="45px" viewBox="0 0 45 45" enable-background="new 0 0 45 45" xml:space="preserve">
<g>
	<g>
		<path opacity="0.7" fill="#3A559F" enable-background="new    " d="M34.924,15.99c-0.495,0.131-1.052,0.17-1.611,0.231
			c-1.669,0.184-1.417,0.134-1.417,0.134l-0.231,4.175l3.166,0.46c1.658-0.29,1.728,1.52,1.55,2.902
			c-0.349,2.667-1.868,2.508-1.868,2.508l-2.352,0.296l0.575,11.775c-4.898,2.293-5.698-1.011-5.698-1.011l-0.612-11.361
			l-3.139-0.055l-1.271-0.215l-0.25-1.707l-0.21-2.112l1.023-0.679l3.679-0.306c-0.59-6.808,1.153-9.116,3.158-9.318
			C25.921,8.463,15.683-0.038,8.284,4.156C-2.735,10.4-2.103,42.447,25.774,41.978C47.172,41.615,47.584,26.596,34.924,15.99z"/>
	</g>
	<g>
		<path fill="#3E3C3C" d="M23.107,4.156c0.251,0.015,0.502,0.039,0.753,0.044c0.711,0.013,1.421,0.014,2.134,0.03
			c0.853,0.019,1.708,0.052,2.562,0.07c0.604,0.013,1.206,0.001,1.805,0.021c0.821,0.027,1.643,0.08,2.463,0.108
			c0.562,0.02,1.125,0.009,1.688,0.027c0.513,0.017,1.023,0.054,1.533,0.083c0.355,0.021,0.711,0.03,1.063,0.07
			c0.882,0.101,1.758,0.248,2.473,0.833c0.303,0.248,0.605,0.519,0.832,0.834c0.221,0.309,0.36,0.683,0.508,1.042
			c0.28,0.68,0.46,1.391,0.557,2.119c0.075,0.572,0.129,1.148,0.183,1.722c0.072,0.768,0.152,1.538,0.197,2.309
			c0.048,0.824,0.069,1.648,0.087,2.474c0.021,1.01,0.023,2.018,0.046,3.027c0.024,1.149,0.054,2.299,0.096,3.448
			c0.04,1.055,0.102,2.107,0.143,3.163c0.044,1.041,0.097,2.081,0.101,3.123c0.003,0.771-0.063,1.545-0.091,2.317
			c-0.022,0.558-0.02,1.114-0.057,1.669c-0.079,1.174-0.162,2.346-0.28,3.516c-0.044,0.429-0.162,0.856-0.292,1.27
			c-0.133,0.402-0.373,0.768-0.732,0.987c-0.286,0.169-0.63,0.262-0.958,0.327c-0.981,0.182-1.976,0.202-2.971,0.246
			c-0.731,0.032-1.465,0.097-2.198,0.135c-0.542,0.029-1.086,0.027-1.629,0.061c-0.282,0.018-0.562,0.041-0.848,0.004
			c-0.192-0.023-0.273-0.134-0.306-0.29c-0.05-0.229,0.042-0.413,0.189-0.494c0.051-0.027,0.102-0.122,0.098-0.178
			c-0.044-0.577-0.104-1.152-0.145-1.729c-0.062-0.903-0.125-1.806-0.165-2.711c-0.051-1.124-0.059-2.249-0.117-3.372
			c-0.05-0.912-0.154-1.822-0.214-2.737c-0.021-0.305,0.038-0.613,0.04-0.92c0.002-0.107-0.055-0.214-0.082-0.324
			c-0.096-0.391,0.118-0.47,0.408-0.48c0.753-0.021,1.504-0.018,2.256-0.067c0.317-0.021,0.636-0.134,0.943-0.238
			c0.349-0.118,0.509-0.416,0.541-0.757c0.088-0.909,0.148-1.816,0.217-2.725c0.006-0.097-0.006-0.199-0.023-0.297
			c-0.076-0.433-0.235-0.563-0.722-0.574c-0.665-0.015-1.33-0.013-1.992-0.025c-0.422-0.009-0.843-0.029-1.264-0.05
			c-0.041-0.001-0.087-0.033-0.118-0.063c-0.125-0.125-0.265-0.241-0.357-0.386c-0.079-0.121-0.134-0.279-0.135-0.424
			c-0.018-0.454-0.013-0.908,0-1.362c0.016-0.667,0.028-1.337,0.074-2.003c0.016-0.237,0.094-0.477,0.18-0.699
			c0.13-0.329,0.424-0.464,0.75-0.487c0.367-0.027,0.739,0.008,1.106-0.008c0.531-0.022,1.08-0.002,1.595-0.118
			c0.643-0.144,1.027-0.396,1.095-1.227c0.049-0.648,0.062-1.299,0.076-1.95c0.004-0.171-0.034-0.348-0.083-0.513
			c-0.057-0.188-0.2-0.294-0.398-0.312c-0.238-0.022-0.478-0.049-0.715-0.061c-0.456-0.02-0.915-0.036-1.372-0.042
			c-0.753-0.01-1.501-0.021-2.251-0.014c-0.704,0.006-1.405,0.066-2.084,0.24c-1.108,0.284-1.833,0.991-2.156,2.083
			c-0.247,0.825-0.396,1.671-0.435,2.532c-0.037,0.807-0.06,1.614-0.075,2.42c-0.013,0.567-0.005,1.134-0.013,1.701
			c-0.004,0.141,0.003,0.298-0.059,0.414c-0.058,0.109-0.19,0.237-0.304,0.25c-0.482,0.056-0.968,0.075-1.452,0.099
			c-0.489,0.024-0.98,0.032-1.471,0.063c-0.23,0.015-0.464,0.05-0.686,0.111c-0.485,0.131-0.709,0.488-0.739,0.967
			c-0.051,0.794-0.023,1.586,0.218,2.357c0.195,0.612,0.511,0.848,1.153,0.906c0.958,0.087,1.913,0.021,2.866-0.069
			c0.143-0.016,0.3-0.016,0.437,0.025c0.209,0.067,0.321,0.285,0.208,0.555c-0.135,0.316-0.012,0.593,0.014,0.885
			c0.054,0.692,0.127,1.384,0.181,2.076c0.043,0.553,0.074,1.103,0.1,1.654c0.029,0.609,0.04,1.22,0.071,1.828
			c0.019,0.423,0.058,0.845,0.085,1.266c0.016,0.262,0.019,0.524,0.032,0.788c0.04,0.723,0.086,1.446,0.116,2.173
			c0.014,0.327,0.004,0.657-0.011,0.985c-0.02,0.506-0.406,0.954-0.901,1.082c-0.573,0.148-1.162,0.148-1.748,0.171
			c-0.644,0.021-1.288,0.03-1.933,0.05c-0.499,0.017-0.998,0.03-1.498,0.055c-0.498,0.021-0.994,0.059-1.492,0.085
			c-0.406,0.02-0.813,0.025-1.218,0.047c-0.547,0.029-1.093,0.07-1.64,0.102c-0.586,0.036-1.174,0.065-1.759,0.099
			c-0.421,0.025-0.841,0.063-1.261,0.09c-0.372,0.021-0.743,0.034-1.115,0.047c-0.611,0.02-1.224,0.025-1.835,0.059
			c-0.854,0.045-1.709,0.157-2.56,0.002c-0.346-0.063-0.694-0.166-1.014-0.311c-0.516-0.233-1.018-0.5-1.51-0.779
			c-0.846-0.478-1.304-1.256-1.577-2.154c-0.257-0.85-0.359-1.724-0.388-2.614c-0.016-0.519-0.085-1.038-0.105-1.559
			c-0.037-0.934-0.063-1.866-0.081-2.8c-0.013-0.68-0.001-1.361-0.007-2.042c-0.01-1.154-0.005-2.313-0.044-3.465
			c-0.038-1.124-0.129-2.247-0.183-3.372c-0.041-0.839-0.059-1.678-0.091-2.516c-0.004-0.097-0.026-0.194-0.04-0.292
			c0-0.014,0-0.027,0-0.04c0.014-0.068,0.035-0.136,0.039-0.204c0.023-0.549,0.037-1.101,0.064-1.65
			c0.052-1.074,0.126-2.147,0.163-3.221c0.024-0.802-0.006-1.601,0.005-2.399c0.016-1.171,0.231-2.299,0.742-3.363
			C4.658,6.458,5.04,6.01,5.552,5.699c0.45-0.273,0.933-0.492,1.415-0.706c0.249-0.109,0.521-0.191,0.789-0.223
			c0.598-0.072,1.2-0.112,1.801-0.15c0.676-0.041,1.352-0.059,2.028-0.092c0.716-0.035,1.434-0.074,2.15-0.113
			c0.783-0.042,1.566-0.097,2.349-0.127c0.605-0.022,1.213-0.013,1.821-0.02c0.527-0.007,1.055-0.016,1.583-0.025
			c0.496-0.01,0.991-0.026,1.486-0.031c0.543-0.006,1.083-0.001,1.626-0.01c0.155-0.002,0.311-0.031,0.466-0.047
			C23.081,4.156,23.095,4.156,23.107,4.156z M32.317,26.798c0.438,3.889,0.269,7.757,0.747,11.608
			c0.499-0.021,0.987-0.043,1.475-0.07c0.948-0.051,1.897-0.098,2.846-0.16c0.74-0.049,1.48-0.105,2.221-0.172
			c0.553-0.048,1.003-0.288,1.218-0.817c0.142-0.354,0.26-0.733,0.302-1.112c0.123-1.134,0.221-2.271,0.291-3.408
			c0.059-0.958,0.06-1.917,0.091-2.878c0.021-0.686,0.07-1.374,0.067-2.063c-0.008-0.641-0.069-1.286-0.1-1.928
			c-0.033-0.678-0.053-1.356-0.086-2.033c-0.021-0.485-0.063-0.971-0.077-1.457c-0.021-0.657-0.023-1.315-0.038-1.972
			c-0.025-1.002-0.061-2.003-0.082-3.004c-0.019-0.832-0.004-1.664-0.036-2.495c-0.034-0.864-0.104-1.727-0.171-2.59
			c-0.053-0.701-0.101-1.401-0.187-2.098c-0.092-0.757-0.228-1.509-0.496-2.227c-0.134-0.353-0.257-0.702-0.576-0.966
			c-0.532-0.44-1.118-0.756-1.789-0.895c-0.727-0.15-1.456-0.287-2.192-0.396c-0.481-0.072-0.969-0.087-1.453-0.121
			c-0.521-0.037-1.044-0.067-1.565-0.098c-0.332-0.019-0.663-0.041-0.994-0.054c-0.506-0.019-1.012-0.028-1.516-0.045
			c-0.426-0.015-0.85-0.039-1.273-0.053c-0.521-0.016-1.038-0.028-1.557-0.036c-0.33-0.005-0.664-0.013-0.991,0.006
			c-0.181,0.01-0.357,0.088-0.538,0.102c-0.097,0.007-0.196-0.081-0.296-0.083c-0.678-0.021-1.355-0.028-2.033-0.043
			c-0.54-0.011-1.081-0.037-1.621-0.036c-0.687,0.001-1.373,0.026-2.059,0.037c-1.002,0.017-2.005,0.03-3.007,0.047
			c-0.476,0.007-0.953,0.004-1.427,0.033c-0.456,0.029-0.923-0.023-1.36,0.171c-0.083,0.037-0.18,0.05-0.271,0.057
			c-0.594,0.036-1.188,0.063-1.78,0.102c-0.289,0.02-0.578,0.047-0.865,0.087c-0.37,0.053-0.735,0.111-1.098,0.188
			c-0.36,0.074-0.723,0.154-1.072,0.271C8.637,6.308,8.296,6.43,8.009,6.618C7.632,6.866,7.29,7.172,6.957,7.478
			c-0.48,0.438-0.805,0.983-0.984,1.609c-0.124,0.43-0.25,0.863-0.361,1.297c-0.142,0.557-0.29,1.112-0.396,1.676
			c-0.094,0.495-0.146,1-0.192,1.503c-0.063,0.678-0.101,1.358-0.15,2.037c-0.034,0.468-0.04,0.941-0.112,1.403
			c-0.121,0.784-0.18,1.568-0.173,2.359c0.004,0.563,0.034,1.127,0.038,1.692c0.009,1.049,0.011,2.1,0.014,3.148
			c0.001,1.042,0.1,2.07,0.278,3.098c0.165,0.946,0.29,1.901,0.392,2.855c0.115,1.059,0.364,2.084,0.709,3.088
			c0.107,0.31,0.243,0.609,0.381,0.906c0.133,0.286,0.267,0.571,0.435,0.835c0.412,0.645,0.838,1.281,1.271,1.912
			c0.221,0.326,0.429,0.677,0.714,0.934c0.408,0.371,0.911,0.632,1.459,0.725c0.45,0.078,0.913,0.082,1.372,0.106
			c0.453,0.024,0.906,0.039,1.36,0.054c0.312,0.009,0.624,0,0.936,0.014c0.122,0.007,0.241,0.084,0.36,0.079
			c0.522-0.019,1.044-0.057,1.565-0.086c1.083-0.06,2.167-0.127,3.251-0.181c0.896-0.046,1.793-0.084,2.689-0.12
			c0.722-0.031,1.443-0.047,2.164-0.079c0.721-0.033,1.44-0.077,2.159-0.129c0.262-0.02,0.424-0.17,0.45-0.432
			c0.031-0.297,0.042-0.601,0.029-0.901c-0.04-0.89-0.097-1.778-0.143-2.666c-0.05-0.946-0.09-1.896-0.143-2.842
			c-0.072-1.222-0.148-2.444-0.233-3.666c-0.027-0.383-0.09-0.766-0.138-1.16c-0.536,0.021-1.072,0.057-1.604,0.058
			c-0.455,0.001-0.908-0.021-1.363-0.063c-0.419-0.038-0.801-0.177-1.102-0.508c-0.366-0.403-0.536-0.89-0.615-1.407
			c-0.078-0.508-0.105-1.024-0.149-1.536c-0.042-0.508,0.01-1.008,0.203-1.48c0.079-0.197,0.196-0.411,0.357-0.539
			c0.507-0.4,1.131-0.505,1.755-0.539c0.734-0.041,1.472-0.026,2.207-0.039c0.134-0.002,0.212-0.04,0.211-0.214
			c-0.012-0.676,0.001-1.354,0-2.031c-0.002-1.263,0.075-2.52,0.327-3.761c0.173-0.852,0.388-1.686,1.008-2.353
			c0.336-0.363,0.711-0.675,1.169-0.845c0.435-0.162,0.888-0.292,1.345-0.37c1.277-0.221,2.568-0.188,3.856-0.15
			c0.423,0.012,0.848,0.015,1.269,0.044c0.439,0.033,0.876,0.081,1.311,0.148c0.26,0.04,0.44,0.223,0.565,0.447
			c0.275,0.486,0.277,1.03,0.288,1.565c0.008,0.421-0.025,0.844-0.062,1.265c-0.041,0.502-0.066,1.012-0.353,1.455
			c-0.406,0.63-1.069,0.791-1.736,0.909c-0.713,0.125-1.437,0.088-2.156,0.041c-0.317-0.021-0.449,0.089-0.51,0.407
			c-0.021,0.119-0.046,0.239-0.05,0.359c-0.019,0.844-0.029,1.687-0.044,2.53c-0.003,0.159-0.001,0.318-0.001,0.498
			c1.141,0.029,2.257,0.045,3.37,0.092c0.428,0.019,0.797,0.18,1.02,0.603c0.246,0.463,0.261,0.957,0.239,1.45
			c-0.038,0.771-0.103,1.543-0.192,2.31c-0.038,0.326-0.104,0.677-0.266,0.955c-0.344,0.586-0.959,0.784-1.59,0.871
			c-0.487,0.068-0.988,0.063-1.485,0.081C32.914,26.808,32.649,26.798,32.317,26.798z M8.372,38.921
			c0.01-0.02,0.019-0.037,0.027-0.056c-0.141-0.126-0.282-0.252-0.425-0.372c-0.567-0.482-1.142-0.951-1.699-1.444
			c-0.41-0.362-0.733-0.799-0.997-1.277c-0.185-0.335-0.344-0.685-0.516-1.025c0.069,0.474,0.154,0.947,0.269,1.413
			c0.181,0.734,0.559,1.355,1.205,1.759c0.486,0.302,1.014,0.542,1.531,0.793C7.957,38.804,8.17,38.853,8.372,38.921z M4.434,11.152
			c0.013-0.044,0.025-0.087,0.036-0.131C4.646,10.345,4.814,9.667,5,8.992c0.09-0.327,0.179-0.661,0.327-0.964
			c0.163-0.329,0.37-0.644,0.6-0.93c0.229-0.283,0.499-0.537,0.775-0.776C6.947,6.108,7.224,5.93,7.487,5.735
			c-0.074-0.003-0.145,0.011-0.21,0.039c-0.238,0.103-0.476,0.207-0.71,0.319C5.96,6.382,5.442,6.768,5.131,7.385
			c-0.246,0.487-0.42,0.993-0.533,1.53C4.441,9.655,4.411,10.4,4.434,11.152z"/>
	</g>
</g>
</svg>
