<?xml version="1.0" encoding="utf-8"?>
<!-- Generator: Adobe Illustrator 16.0.3, SVG Export Plug-In . SVG Version: 6.00 Build 0)  -->
<!DOCTYPE svg PUBLIC "-//W3C//DTD SVG 1.1//EN" "http://www.w3.org/Graphics/SVG/1.1/DTD/svg11.dtd">
<svg version="1.1" id="Layer_1" xmlns="http://www.w3.org/2000/svg" xmlns:xlink="http://www.w3.org/1999/xlink" x="0px" y="0px"
	 width="45px" height="45px" viewBox="0 0 45 45" enable-background="new 0 0 45 45" xml:space="preserve">
<g>
	<path fill="#3C3C3C" d="M23.001,26.295"/>
	<path fill="#3C3C3C" d="M0,15V3c0-1.657,1.344-3,3-3h12c1.658,0,3,1.343,3,3c0,1.658-1.343,3.001-3,3.001H6v9
		c0,1.656-1.342,3-2.999,3C1.344,18.001,0,16.657,0,15z"/>
	<path fill="#3C3C3C" d="M29.999,0h12c1.655,0,3,1.343,3,3v12.001c0,1.656-1.345,3-3,3c-1.656,0-2.999-1.344-2.999-3v-9h-9.001
		c-1.658,0-3-1.345-3-3.001C26.999,1.343,28.343,0,29.999,0z"/>
	<path fill="#3C3C3C" d="M45,30v12.001C45,43.657,43.654,45,42,45H30c-1.658,0-3-1.343-3-2.999C27,40.344,28.343,39,30,39h9v-9
		c0-1.657,1.343-3,2.999-3C43.654,27,45,28.343,45,30z"/>
	<path fill="#3C3C3C" d="M15.001,45h-12C1.345,45,0,43.657,0,42.001V30c0-1.657,1.344-3,3-3s3,1.343,3,3v9h9.001
		c1.658,0,3,1.344,3,3.001C18.001,43.657,16.659,45,15.001,45z"/>
</g>
</svg>
