<?xml version="1.0" encoding="utf-8"?>
<!-- Generator: Adobe Illustrator 16.0.3, SVG Export Plug-In . SVG Version: 6.00 Build 0)  -->
<!DOCTYPE svg PUBLIC "-//W3C//DTD SVG 1.1//EN" "http://www.w3.org/Graphics/SVG/1.1/DTD/svg11.dtd">
<svg version="1.1" id="Layer_1" xmlns="http://www.w3.org/2000/svg" xmlns:xlink="http://www.w3.org/1999/xlink" x="0px" y="0px"
	 width="346px" height="480px" viewBox="0 0 346 480" enable-background="new 0 0 346 480" xml:space="preserve">
<g>
	<path fill="#BEDCA0" d="M84.544,27.004c20.596-16.49,45.639-23.505,70.397-26.089c37.133-3.879,78.634,3.833,102.816,37.459
		c13.023,18.11,19.36,41.443,28.343,62.729c21.104,50.021,58.653,93.938,59.871,149.843c0.473,21.696-4.785,42.938-10.287,63.64
		c-9.148,34.419-19.297,68.985-36.293,98.926c-16.996,29.938-41.748,55.176-71.393,63.387c-26.246,7.271-53.837,0.75-79.469-9.122
		c-36.685-14.13-72.112-35.728-98.708-68.841C17.564,358.77,0.25,303.066,0.003,247.612c-0.204-45.479,10.621-91.549,29.92-130.82
		C44.898,86.316,59.509,47.049,84.544,27.004z"/>
	<path fill="#E6E6E6" d="M225.305,131.501c-36.676,0.757-73.327,5.675-109.165,14.646c-23.317,5.838-46.978,13.771-65.588,30.252
		c-11.861,10.504-21.795,26.6-18.63,42.71c1.861,9.471,8.086,17.382,15.588,22.552c7.501,5.176,16.224,7.903,24.944,9.916
		c52.699,12.169,108.124,0.162,159.093-20.009c16.871-6.678,33.596-14.327,48.393-25.447c7.992-6.009,15.773-13.677,18.164-23.877
		c2.758-11.759-2.588-24.335-10.951-32.207c-8.362-7.871-19.266-11.8-30.084-14.521c-12.489-3.142-25.286-4.925-38.133-5.312"/>
	<path fill="#FFFFFF" d="M173.745,211.153c-6.557,5.577-11.622,8.634-19.523,5.248c-2.624-1.125-22.311-5.248-28.054-9.368
		c-3.305-2.372-0.79-2.54-3.279-5.769c-1.54-1.995-4.103-5.771-5.601-9.198c-0.724-1.653-0.896-1.039-2.603-1.519
		c-0.355-0.101-0.82,2.474-0.82,3.299c0,1.926-4.102-4.947-8.203-4.947c-4.105,0-9.386,0.014-9.022,4.122
		c0.471,5.33,5.136,8.817,7.382,11.54c2.248,2.721,5.995,3.97,9.023,5.77c8.185,4.861,10.212,9.092,18.396,13.954
		c9.888,5.876,24.293,15.032,35.741,14.069c6.604-0.558,12.871-4.583,18.867-7.418c10.221-4.833,20.129-10.003,30.35-14.836
		c8.983,14.068,11.244,25.644,6.498,41.667c-16.582-15.186-45.41-14.596-65.995-5.63c-2.519,1.099-5.018,2.414-6.856,4.465
		c-4.055,4.521-3.954,11.313-3.463,17.38c2.523,31.13,9.225,61.918,19.861,91.266c-4.914-0.534-9.828-1.073-14.741-1.61
		c-1.511-0.165-3.466-0.069-3.984,1.365c-0.608,1.695,1.607,2.734,3.146,3.657c8.114,4.874,16.318,8.995,27.938,10.134
		c1.115-2.849,3.146-4.436,2.108-8.91c-1.736-7.487,2.19-15.224,2.976-22.874c1.942-18.912,0.303-44.149,0.418-63.165
		c12.746,5.05,29.943,17.385,42.325,14.807c3.026-0.63,6.609-0.013,8.628-2.368c1.655-1.93,1.74-4.717,1.721-7.27
		c-0.162-22.179-1.729-44.345-4.683-66.325c-0.396-2.926-0.8-5.979,0.187-8.76c0.795-2.242,2.427-4.083,4.187-5.678
		c10.763-9.74,26.213-11.609,40.572-13.502c4.044-0.532,13.725,3.193,13.802-0.901c0.032-1.595-5.368-8.483-6.169-9.859
		c-1.622-2.783-3.246-5.568-4.874-8.354c-1.548-2.648-3.241-5.438-5.971-6.816c-2.213-1.116-4.797-1.145-7.271-1.1
		c-10.352,0.186-20.688,1.218-30.877,3.076c-7.105,1.296-16.622,1.615-22.385,6.151
		C200.656,187.055,184.408,202.089,173.745,211.153z"/>
	<path fill="#FFFFFF" d="M228.434,214.973c0,0,28.816-33.405,56.778-23.389c27.963,10.017,16.218,95.865-1.646,113.563l-7.737,88.58
		l-2.113-83.083c0,0-24.378,5.283-27.06,4.287c-2.686-0.998-8.122,86.762-7.74,85.481c0.383-1.279-2.559-86.969-2.559-86.969
		l-2.644,1.486l-7.356,46.12l-3.269-50.407l-15.846-4.397l-6.604,61.469l-5.287-62.567l1.771-1.729c0,0-5.976-14.896-1.522-16.676
		C200.055,284.957,241.732,243.503,228.434,214.973z"/>
	<path fill="#FFFFFF" d="M248.507,94.539c-2.918,1.074-4.959,3.792-7.794,5.068c-2.945,1.327-6.326,0.939-9.555,0.948
		c-5.348,0.016-10.883,1.305-15.004,4.727c-3.438,2.853-5.61,6.92-7.699,10.879c-3.076,5.833-6.154,11.667-9.232,17.5
		c-0.764,1.448-1.547,2.968-1.574,4.607c-0.025,1.433,2.621,1.857,3.166,3.184c1.471,3.563,1.812,5.503,3.279,9.065
		c0.786,1.901,3.356,5.521,4.831,6.95c1.904,1.85,7.66,4.421,9.316,2.007c1.329,0,1.341,1.242,0.616,5.055
		c-0.721,3.813-4.547,8.789-0.971,10.257c1.223,0.499,2.6,0.45,3.861,0.828c4.543,1.363,5.708,7.108,8.229,11.141
		c3.572,5.716,10.615,8.348,17.314,8.796c6.633,0.441,13.54-0.973,18.934-4.875c5.395-3.902,9.032-10.493,8.519-17.152
		c-0.214-2.735-1.087-5.373-1.978-7.97c-2.658-7.748-5.529-15.422-8.606-23.01c-2.687-6.616-10.027-20.05-12.49-23.349
		c-3.67-4.919,10.771-2.336,10.665-8.241C262.234,105.299,254.463,92.34,248.507,94.539z"/>
	<g>
		<path d="M214.018,110.816c0,0-0.146,0.241-0.418,0.645c-0.279,0.397-0.678,0.966-1.164,1.615
			c-0.479,0.654-1.056,1.401-1.619,2.212c-0.287,0.401-0.582,0.818-0.846,1.253c-0.273,0.43-0.574,0.854-0.781,1.32
			c-0.246,0.446-0.51,0.888-0.664,1.357c-0.088,0.232-0.186,0.459-0.289,0.682c-0.104,0.223-0.137,0.46-0.209,0.687
			c-0.115,0.471-0.278,0.865-0.353,1.347c-0.073,0.438-0.155,0.868-0.241,1.283c-0.162,0.824-0.397,1.522-0.66,1.956
			c-0.104,0.226-0.256,0.372-0.326,0.479c-0.079,0.104-0.122,0.158-0.122,0.158s0.069-0.279,0.12-0.745
			c0.031-0.23,0.035-0.515,0.039-0.835c-0.012-0.324-0.026-0.688-0.043-1.088c-0.025-0.397-0.059-0.853-0.053-1.346
			c-0.02-0.455,0.061-1.021,0.149-1.548c0.063-0.553,0.217-1.097,0.425-1.634c0.168-0.557,0.438-1.066,0.704-1.582
			c0.261-0.521,0.604-0.978,0.924-1.439c0.304-0.479,0.696-0.863,1.04-1.263c0.338-0.409,0.719-0.745,1.071-1.069
			c0.346-0.332,0.69-0.625,1.022-0.876c0.65-0.524,1.223-0.912,1.635-1.169C213.771,110.953,214.018,110.816,214.018,110.816z"/>
	</g>
	<g>
		<path d="M204.145,127.28c0,0-0.406,1.141-1.205,2.724c-0.393,0.796-0.881,1.705-1.438,2.657c-0.285,0.472-0.559,0.973-0.873,1.457
			c-0.311,0.487-0.626,0.982-0.941,1.479c-0.332,0.484-0.662,0.969-0.989,1.446c-0.349,0.509-0.606,0.853-0.747,1.24
			c-0.109,0.386-0.137,0.535,0.043,0.787c0.054,0.054,0.104,0.121,0.188,0.183c0.021,0.021,0.12,0.089,0.075,0.068l0.153,0.096
			c0.201,0.128,0.396,0.252,0.584,0.371c0.363,0.158,0.667,0.331,0.994,0.433c0.324,0.07,0.617,0.199,0.867,0.222
			c0.496,0.06,0.808,0.107,0.808,0.107s-0.274,0.096-0.802,0.237c-0.264,0.071-0.592,0.066-0.978,0.089
			c-0.379,0.008-0.852-0.081-1.321-0.189c-0.209-0.07-0.429-0.146-0.653-0.223l-0.171-0.062l-0.234-0.123
			c-0.127-0.063-0.262-0.163-0.402-0.271c-0.16-0.146-0.33-0.343-0.375-0.419l-0.058-0.08l-0.015-0.021l-0.045-0.084l-0.008-0.018
			l-0.029-0.071l-0.107-0.292c-0.102-0.398-0.068-0.807,0.014-1.152c0.168-0.675,0.521-1.312,0.821-1.753
			c0.312-0.487,0.626-0.983,0.941-1.479c0.331-0.484,0.663-0.969,0.991-1.445c0.322-0.479,0.676-0.928,0.998-1.375
			c0.658-0.885,1.303-1.69,1.881-2.363C203.254,128.1,204.145,127.28,204.145,127.28z"/>
	</g>
	<g>
		<path d="M210.729,123.508c0,0-0.551,0.193-1.35,0.226c-0.404,0.023-0.874,0.009-1.378-0.081c-0.251-0.044-0.511-0.083-0.769-0.183
			c-0.129-0.045-0.262-0.086-0.39-0.138l-0.194-0.076l-0.097-0.038l-0.049-0.019l-0.024-0.01l-0.012-0.005l-0.068-0.035
			c-0.219-0.13-0.438-0.257-0.646-0.397c-0.202-0.11-0.432-0.338-0.633-0.535c-0.194-0.207-0.405-0.386-0.527-0.609
			c-0.132-0.217-0.238-0.429-0.33-0.622c-0.109-0.181-0.158-0.377-0.181-0.56c-0.036-0.173-0.048-0.329-0.06-0.451
			c-0.019-0.248-0.008-0.383-0.008-0.383s0.129,0.088,0.318,0.234c0.093,0.073,0.207,0.157,0.316,0.258
			c0.104,0.103,0.238,0.201,0.4,0.294c0.155,0.097,0.317,0.197,0.471,0.312c0.146,0.123,0.347,0.18,0.508,0.287
			c0.174,0.098,0.309,0.206,0.56,0.315c0.228,0.106,0.448,0.231,0.671,0.354c-0.111-0.059-0.029-0.016-0.054-0.027l0.003,0.001
			l0.005,0.002l0.011,0.004l0.02,0.009l0.04,0.017l0.079,0.034l0.158,0.068c0.104,0.043,0.205,0.099,0.31,0.146
			c0.198,0.109,0.418,0.19,0.621,0.287c0.208,0.087,0.396,0.212,0.593,0.297c0.196,0.083,0.378,0.187,0.547,0.281
			C210.281,123.129,210.729,123.508,210.729,123.508z"/>
	</g>
	<g>
		<path d="M225.182,126.953c0,0,0.055-0.082,0.156-0.235c0.11-0.148,0.236-0.39,0.463-0.651c0.237-0.251,0.508-0.609,0.897-0.907
			c0.368-0.34,0.825-0.646,1.379-0.962c0.487-0.271,1.389-0.619,2.214-0.313c0.918,0.305,1.505,0.965,1.926,1.729l0.01,0.019
			l0.006,0.009l0.037,0.089l0.014,0.032l0.023,0.063l0.051,0.128l0.101,0.258l0.201,0.521c0.099,0.423,0.168,0.9,0.221,1.362
			c-0.009,0.433-0.034,0.863-0.06,1.299c-0.094,0.441-0.151,0.8-0.284,1.313c-0.142,0.364-0.267,0.72-0.427,1.091
			c-0.194,0.382-0.383,0.78-0.588,1.136c-0.405,0.705-0.862,1.313-1.324,1.929c-0.211,0.261-0.488,0.639-0.85,0.9
			c-0.154,0.148-0.394,0.25-0.588,0.36l-0.037,0.02l-0.021,0.01l-0.078,0.031l-0.007,0.002l-0.063,0.018l-0.123,0.032
			c-0.093,0.021-0.137,0.046-0.287,0.062c-1.033,0.123-1.695-0.273-2.228-0.709c-0.26-0.242-0.456-0.448-0.644-0.765
			c-0.114-0.243-0.232-0.459-0.326-0.691c-0.176-0.506-0.27-0.931-0.307-1.274c-0.063-0.342-0.059-0.615-0.076-0.8
			c-0.013-0.184-0.02-0.282-0.02-0.282s0.146,0.37,0.428,0.986c0.127,0.318,0.332,0.662,0.539,1.021
			c0.129,0.185,0.303,0.382,0.467,0.59c0.121,0.115,0.33,0.297,0.529,0.414c0.391,0.255,1.004,0.339,1.299,0.26
			c0.524-0.139,0.723-0.476,1.155-1.085c0.376-0.573,0.741-1.227,1.097-1.847c0.168-0.311,0.299-0.614,0.453-0.922
			c0.139-0.34,0.262-0.724,0.396-1.083l0.226-0.956c0.024-0.336,0.049-0.671,0.072-1.004c-0.047-0.295-0.046-0.574-0.069-0.888
			c-0.097-0.329-0.192-0.654-0.286-0.974c-0.229-0.521-0.621-1.01-0.968-1.177c-0.44-0.229-0.868-0.155-1.426,0.007
			c-0.495,0.187-0.992,0.366-1.386,0.59c-0.42,0.197-0.734,0.43-1.026,0.604C225.492,126.707,225.182,126.953,225.182,126.953z"/>
	</g>
	<g>
		<path d="M237.723,100.678c0,0-0.119,0.007-0.346,0.019c-0.227,0.003-0.553,0.059-0.979,0.016c-0.432-0.02-0.948-0.061-1.525-0.136
			c-0.287-0.031-0.594-0.063-0.914-0.099c-0.316-0.011-0.648-0.021-0.996-0.035c-0.708,0.002-1.518-0.111-2.275,0.016
			c-0.777,0.099-1.576,0.096-2.422,0.32c-0.42,0.089-0.847,0.18-1.277,0.271c-0.436,0.072-0.846,0.273-1.279,0.392
			c-0.43,0.139-0.859,0.277-1.294,0.417l-1.246,0.575c-0.86,0.326-1.644,0.809-2.426,1.261c-0.806,0.418-1.495,0.99-2.218,1.471
			c-0.368,0.23-0.68,0.521-0.998,0.791c-0.319,0.269-0.633,0.532-0.938,0.789c-0.146,0.126-0.32,0.26-0.438,0.376
			c-0.141,0.14-0.281,0.277-0.418,0.414c-0.267,0.269-0.498,0.514-0.721,0.775c-0.425,0.531-0.811,1.036-1.052,1.532
			c-0.144,0.241-0.239,0.479-0.317,0.708c-0.094,0.224-0.166,0.436-0.191,0.635c-0.034,0.197-0.087,0.377-0.104,0.535
			c-0.004,0.16-0.009,0.295-0.013,0.406c-0.006,0.226-0.009,0.347-0.009,0.347s-0.029-0.117-0.084-0.335
			c-0.063-0.221-0.152-0.551-0.137-0.988c-0.02-0.221,0.006-0.46,0.05-0.721c0.024-0.268,0.089-0.547,0.19-0.835
			c0.159-0.597,0.469-1.22,0.855-1.863c0.195-0.316,0.434-0.653,0.666-0.972c0.119-0.151,0.242-0.304,0.367-0.46
			c0.147-0.182,0.287-0.307,0.434-0.467c0.602-0.587,1.16-1.305,1.9-1.859c0.359-0.289,0.728-0.583,1.1-0.881
			c0.188-0.146,0.369-0.306,0.566-0.442l0.621-0.377c0.832-0.506,1.666-1.042,2.591-1.415l1.362-0.591
			c0.474-0.143,0.945-0.285,1.414-0.425c0.922-0.333,1.89-0.431,2.809-0.565c0.904-0.193,1.852-0.096,2.708-0.104
			c0.883-0.044,1.608,0.183,2.325,0.289c0.365,0.072,0.66,0.105,1.043,0.201c0.316,0.096,0.617,0.187,0.9,0.271
			c0.559,0.174,1.034,0.333,1.428,0.441c0.395,0.126,0.729,0.18,0.945,0.231C237.605,100.652,237.723,100.678,237.723,100.678z"/>
	</g>
	<g>
		<path d="M214.889,112.285c0,0,0.053,0.265,0.146,0.727c0.074,0.224,0.122,0.476,0.234,0.769c0.097,0.295,0.242,0.609,0.392,0.949
			c0.17,0.334,0.364,0.684,0.585,1.043c0.225,0.358,0.496,0.71,0.768,1.077c0.314,0.358,0.639,0.729,0.969,1.104
			c0.35,0.338,0.647,0.687,1.039,1.029c0.365,0.357,0.723,0.72,1.105,1.065c0.381,0.341,0.727,0.716,1.083,1.059
			c0.699,0.698,1.328,1.376,1.845,1.982c0.541,0.603,0.896,1.146,1.236,1.376c0.17,0.125,0.329,0.185,0.449,0.206
			c0.124,0.007,0.189,0.011,0.189,0.011s-0.063,0.029-0.181,0.083c-0.123,0.037-0.337,0.086-0.59,0.021
			c-0.255-0.053-0.552-0.177-0.843-0.359c-0.287-0.174-0.592-0.364-0.922-0.59c-0.666-0.438-1.418-0.978-2.196-1.584
			c-0.384-0.309-0.8-0.608-1.191-0.958c-0.397-0.333-0.797-0.702-1.194-1.068c-0.388-0.367-0.768-0.826-1.14-1.229
			c-0.354-0.429-0.577-0.802-0.914-1.282c-0.551-0.907-0.896-1.854-1.044-2.687c-0.074-0.418-0.105-0.803-0.098-1.146
			c-0.02-0.335,0.053-0.648,0.074-0.881C214.799,112.543,214.889,112.285,214.889,112.285z"/>
	</g>
	<g>
		<path d="M240.141,103.083c0.014-0.001-0.051-0.222-0.024-0.645c0.015-0.433,0.204-1.064,0.671-1.727
			c0.449-0.668,1.177-1.349,1.973-2.078c0.801-0.732,1.799-1.545,2.94-2.281c0.555-0.402,1.19-0.727,1.825-1.105
			c0.316-0.195,0.668-0.356,0.998-0.52c0.363-0.16,0.73-0.325,1.115-0.457c0.77-0.269,1.606-0.487,2.521-0.514
			c0.457,0.006,0.925,0.029,1.391,0.15l0.175,0.037l0.045,0.01c-0.047-0.018,0.088,0.028,0.082,0.026l0.018,0.007l0.072,0.027
			l0.291,0.111c0.197,0.082,0.375,0.125,0.606,0.266c0.953,0.487,1.55,1.039,2.271,1.715c0.3,0.312,0.601,0.623,0.902,0.938
			c0.301,0.323,0.58,0.727,0.87,1.091c1.101,1.509,2.021,3.143,2.63,4.926c0.592,1.792,0.922,3.613,0.981,5.519
			c0.062,1.694-0.341,3.933-1.429,5.297c-1.241,1.65-2.821,2.408-4.377,2.922c-1.563,0.476-3.076,0.611-4.48,0.528
			c-0.671-0.055-1.309-0.061-1.926-0.147c-0.618-0.127-1.205-0.249-1.758-0.362c-0.555-0.085-1.031-0.3-1.487-0.443
			c-0.45-0.155-0.864-0.298-1.238-0.428c-0.719-0.329-1.26-0.638-1.636-0.824c-0.372-0.193-0.57-0.296-0.57-0.296
			s0.844,0.292,2.318,0.802c0.379,0.085,0.798,0.181,1.254,0.284c0.456,0.092,0.938,0.25,1.475,0.271
			c0.524,0.051,1.084,0.105,1.674,0.163c0.599,0.021,1.252-0.01,1.92-0.014c1.269-0.026,2.681-0.268,4.039-0.758
			c0.328-0.146,0.66-0.294,0.998-0.443c0.32-0.174,0.625-0.379,0.943-0.566c0.295-0.218,0.563-0.469,0.854-0.694
			c0.226-0.252,0.451-0.509,0.681-0.766c0.951-1.368,1.078-2.75,1.071-4.54c-0.074-1.615-0.396-3.34-0.946-4.937
			c-0.522-1.616-1.37-3.14-2.321-4.479c-0.255-0.325-0.467-0.652-0.75-0.977c-0.292-0.324-0.582-0.647-0.869-0.968
			c-0.509-0.525-1.188-1.139-1.729-1.429c-0.728-0.396-1.317-0.561-2.046-0.596c-0.705-0.021-1.424,0.116-2.115,0.316
			c-0.35,0.097-0.682,0.225-1.009,0.347c-0.349,0.148-0.675,0.277-0.988,0.435c-0.632,0.315-1.271,0.578-1.831,0.924
			c-0.572,0.324-1.129,0.63-1.62,0.967c-0.5,0.328-0.991,0.612-1.421,0.958c-0.886,0.651-1.62,1.204-2.119,1.792
			c-0.492,0.575-0.775,1.126-0.844,1.527C240.123,102.852,240.154,103.085,240.141,103.083z"/>
	</g>
	<g>
		<path d="M224.499,135.729c0,0-0.308,0.301-0.881,0.867c-0.271,0.297-0.54,0.714-0.89,1.168c-0.256,0.521-0.644,1.064-0.879,1.772
			c-0.557,1.366-0.945,3.158-0.896,5.212c0.01,0.256,0.021,0.516,0.028,0.778c0.006,0.219,0.074,0.524,0.107,0.788
			c0.085,0.551,0.172,1.116,0.262,1.696c0.076,0.587,0.28,1.134,0.414,1.723c0.162,0.582,0.278,1.177,0.502,1.782
			c0.754,2.442,1.83,5.009,2.688,7.891c0.433,1.435,0.801,2.95,0.979,4.549c0.062,0.396,0.084,0.802,0.102,1.21
			c0.023,0.408,0.044,0.816,0.014,1.232c-0.015,0.844-0.111,1.655-0.207,2.44c-0.058,0.409-0.068,0.772-0.098,1.155
			c-0.018,0.189,0.011,0.362,0.013,0.546l0.011,0.271l0.002,0.067l0.002,0.034c0.009,0.069-0.012-0.06-0.006-0.031l0.029,0.149
			c0.094,0.378,0.133,0.863,0.286,1.129l0.185,0.467c0.065,0.158,0.178,0.32,0.265,0.481c0.741,1.293,1.896,2.42,3.176,3.438
			c1.282,1.021,2.726,2.005,4.039,3.229c0.651,0.622,1.285,1.298,1.804,2.089c0.26,0.396,0.512,0.798,0.691,1.248
			c0.097,0.236,0.203,0.398,0.289,0.697l0.182,0.618c0.131,0.398,0.213,0.861,0.313,1.297c0.097,0.457,0.203,0.793,0.301,1.195
			c0.117,0.369,0.283,0.678,0.412,1.023l0.145,0.225l0.124,0.147c0.104,0.116,0.222,0.229,0.351,0.325
			c0.502,0.396,1.199,0.586,1.568,0.412c0.102-0.029,0.178-0.094,0.258-0.164c0.068-0.062,0.28-0.296,0.381-0.418
			c0.24-0.28,0.508-0.627,0.765-0.952c0.526-0.665,1.05-1.358,1.712-2.004c0.648-0.621,1.482-1.288,2.629-1.419l0.211-0.013
			l0.105-0.005l0.053-0.002c-0.061-0.007,0.143,0.007,0.134,0.008l0.308,0.044c0.273,0.058,0.662,0.197,0.857,0.33
			c0.471,0.274,0.827,0.619,1.124,0.954c0.308,0.346,0.541,0.655,0.802,0.967c0.258,0.323,0.514,0.619,0.768,0.897
			c1.025,1.156,2.187,2.148,3.439,2.864c0.309,0.193,0.637,0.335,0.963,0.479c0.063,0.029,0.2,0.087,0.201,0.096l0.273,0.087
			l0.543,0.173c0.349,0.09,0.654,0.13,0.984,0.195c0.342,0.012,0.686,0.063,1.021,0.048c1.354-0.027,2.652-0.458,3.6-1.266
			l0.182-0.146l0.046-0.036c-0.009,0.011,0.05-0.05-0.013,0.021l0.021-0.024l0.082-0.1l0.331-0.395l0.326-0.392
			c0.1-0.13,0.162-0.264,0.246-0.396c0.32-0.5,0.621-1.084,0.912-1.654c0.305-0.558,0.6-1.183,0.936-1.688
			c0.367-0.539,0.753-1.063,1.234-1.473c0.889-0.868,2.25-1.334,3.332-1.093c1.106,0.197,2.03,0.667,2.826,0.879
			c0.911,0.188,1.664,0.18,2.394,0.018c1.438-0.306,2.418-1.058,2.944-1.641c0.547-0.581,0.733-0.985,0.754-0.971
			c-0.021-0.015-0.174,0.4-0.684,1.032c-0.494,0.625-1.425,1.503-2.934,1.905c-0.729,0.22-1.67,0.268-2.54,0.131
			c-0.968-0.204-1.847-0.592-2.808-0.711c-0.996-0.146-1.951,0.265-2.713,1.057c-0.395,0.381-0.718,0.845-1.025,1.332
			c-0.327,0.535-0.545,1.066-0.84,1.65c-0.275,0.587-0.549,1.187-0.937,1.827c-0.172,0.336-0.378,0.608-0.592,0.869l-0.316,0.405
			l-0.079,0.103l-0.021,0.024c-0.076,0.086-0.036,0.037-0.062,0.063l-0.054,0.047l-0.216,0.189c-1.137,1.042-2.7,1.607-4.29,1.693
			c-3.339,0.208-6.368-1.729-8.604-4.182c-1.129-1.166-2.125-2.846-3.058-2.602c-0.526,0.057-1.11,0.458-1.64,0.996
			c-0.539,0.528-1.034,1.185-1.551,1.849c-0.267,0.34-0.513,0.668-0.822,1.031c-0.174,0.203-0.241,0.289-0.477,0.524
			c-0.229,0.217-0.504,0.412-0.807,0.521c-0.607,0.244-1.24,0.222-1.776,0.082c-0.543-0.142-1.022-0.391-1.448-0.711
			c-0.213-0.159-0.408-0.344-0.592-0.544c-0.093-0.099-0.188-0.231-0.279-0.351l-0.203-0.316c-0.191-0.446-0.422-0.906-0.563-1.354
			c-0.112-0.43-0.256-0.917-0.338-1.301c-0.094-0.4-0.159-0.786-0.294-1.205c-0.395-1.548-1.275-2.789-2.475-3.912
			c-1.187-1.12-2.563-2.075-3.922-3.165c-1.353-1.085-2.647-2.354-3.533-3.958c-0.105-0.206-0.225-0.391-0.316-0.613l-0.253-0.69
			c-0.2-0.488-0.198-0.842-0.294-1.259c-0.126-1.003-0.039-1.848,0.07-2.658c0.261-1.634,0.315-3.058,0.197-4.572
			c-0.115-1.49-0.414-2.948-0.785-4.354c-0.729-2.81-1.727-5.441-2.407-7.951c-0.201-0.612-0.312-1.265-0.457-1.876
			c-0.118-0.616-0.313-1.221-0.351-1.805c-0.058-0.585-0.111-1.153-0.166-1.708c-0.021-0.289-0.066-0.521-0.064-0.846
			c0.006-0.276,0.011-0.548,0.016-0.815c0.069-2.14,0.577-3.966,1.229-5.341c0.28-0.712,0.714-1.254,1.017-1.756
			c0.396-0.444,0.702-0.846,0.996-1.12C224.171,136.007,224.499,135.729,224.499,135.729z"/>
	</g>
	<g>
		<path fill="#BEDCA0" d="M246.656,319.71c-3.848,28.941-6.432,58.055-7.74,87.224"/>
		<path d="M246.656,319.71c0,0-0.104,1.365-0.288,3.757c-0.222,2.386-0.466,5.803-0.886,9.888c-0.203,2.043-0.424,4.257-0.658,6.599
			c-0.254,2.341-0.385,4.816-0.637,7.368c-0.23,2.554-0.469,5.19-0.711,7.871c-0.258,2.679-0.519,5.4-0.779,8.121
			c-0.223,2.727-0.443,5.452-0.662,8.136c-0.232,2.683-0.465,5.322-0.688,7.876c-0.199,2.558-0.505,5.021-0.668,7.365
			c-0.184,2.345-0.354,4.562-0.515,6.606c-0.306,4.093-0.668,7.499-0.872,9.887c-0.24,2.387-0.378,3.75-0.378,3.75
			s0.015-1.369,0.041-3.766c0.063-2.396,0.082-5.822,0.233-9.929c0.07-2.054,0.146-4.277,0.227-6.632
			c0.063-2.354,0.242-4.831,0.408-7.394c0.176-2.563,0.355-5.21,0.541-7.9c0.199-2.689,0.4-5.422,0.604-8.153
			c0.282-2.727,0.564-5.453,0.842-8.137c0.293-2.682,0.582-5.32,0.86-7.875c0.288-2.552,0.55-5.021,0.901-7.35
			c0.335-2.328,0.65-4.53,0.943-6.563c0.574-4.065,1.156-7.441,1.517-9.812C246.43,321.062,246.656,319.71,246.656,319.71z"/>
	</g>
	<g>
		<path d="M236.357,316.403c0,0,0.088,1.395,0.242,3.833c0.116,2.44,0.354,5.925,0.514,10.109c0.156,4.184,0.396,9.063,0.551,14.295
			c0.074,2.615,0.15,5.318,0.23,8.063c0.063,2.746,0.125,5.536,0.189,8.326c-0.029,2.793-0.061,5.586-0.09,8.336
			c-0.046,2.749-0.09,5.455-0.133,8.073c-0.09,5.236-0.273,10.123-0.381,14.31c-0.106,4.188-0.306,7.676-0.394,10.116
			c-0.125,2.439-0.196,3.834-0.196,3.834s-0.051-1.396-0.141-3.84c-0.053-2.442-0.199-5.933-0.246-10.118
			c-0.045-4.185-0.156-9.065-0.171-14.295c-0.005-2.614-0.01-5.314-0.015-8.061c0.01-2.745,0.021-5.533,0.031-8.322
			c-0.045-2.79-0.088-5.58-0.131-8.327c-0.027-2.747-0.055-5.451-0.08-8.066c-0.047-5.233,0.004-10.119,0-14.307
			c-0.002-4.187,0.1-7.678,0.123-10.121C236.324,317.8,236.357,316.403,236.357,316.403z"/>
	</g>
	<g>
		<path fill="#BEDCA0" d="M283.566,310.645c-3.848,28.942-6.43,58.051-7.737,87.221"/>
		<path d="M283.566,310.645c0,0-0.104,1.366-0.289,3.756c-0.221,2.387-0.465,5.803-0.883,9.889c-0.205,2.043-0.427,4.257-0.66,6.599
			c-0.252,2.34-0.385,4.815-0.637,7.368c-0.229,2.553-0.468,5.189-0.709,7.871c-0.258,2.679-0.52,5.398-0.779,8.12
			c-0.223,2.727-0.443,5.451-0.662,8.136c-0.233,2.683-0.463,5.321-0.686,7.876c-0.201,2.557-0.506,5.021-0.671,7.364
			c-0.182,2.345-0.354,4.562-0.513,6.606c-0.307,4.093-0.668,7.499-0.872,9.886c-0.24,2.388-0.378,3.75-0.378,3.75
			s0.016-1.369,0.041-3.766c0.063-2.396,0.082-5.821,0.234-9.928c0.068-2.055,0.146-4.278,0.226-6.632
			c0.062-2.354,0.242-4.83,0.407-7.394c0.176-2.563,0.356-5.21,0.541-7.9c0.199-2.688,0.4-5.421,0.604-8.152
			c0.281-2.728,0.563-5.452,0.842-8.137c0.293-2.682,0.582-5.319,0.86-7.875c0.287-2.552,0.549-5.021,0.899-7.349
			c0.334-2.329,0.651-4.531,0.943-6.563c0.575-4.065,1.157-7.441,1.516-9.812C283.34,311.995,283.566,310.645,283.566,310.645z"/>
	</g>
	<g>
		<path d="M273.271,307.338c0,0,0.088,1.394,0.242,3.833c0.115,2.439,0.354,5.925,0.512,10.108
			c0.156,4.185,0.396,9.064,0.552,14.295c0.073,2.615,0.151,5.318,0.229,8.064c0.063,2.746,0.127,5.536,0.189,8.326
			c-0.029,2.793-0.061,5.586-0.089,8.336c-0.046,2.749-0.091,5.455-0.134,8.072c-0.088,5.236-0.271,10.123-0.379,14.311
			s-0.306,7.675-0.394,10.116c-0.125,2.438-0.196,3.834-0.196,3.834s-0.051-1.396-0.141-3.84c-0.053-2.443-0.199-5.934-0.246-10.118
			c-0.046-4.186-0.158-9.066-0.172-14.295c-0.005-2.614-0.01-5.315-0.016-8.062c0.011-2.745,0.021-5.533,0.031-8.322
			c-0.044-2.79-0.088-5.58-0.131-8.326c-0.027-2.747-0.054-5.451-0.08-8.067c-0.046-5.233,0.006-10.119,0-14.306
			c-0.002-4.188,0.102-7.679,0.124-10.121C273.236,308.734,273.271,307.338,273.271,307.338z"/>
	</g>
	<g>
		<path fill="#BEDCA0" d="M205.85,307.204c-2.826,22.49-4.377,45.052-4.639,67.598"/>
		<path d="M205.85,307.204c0,0-0.041,1.063-0.154,2.913c-0.133,1.852-0.271,4.5-0.525,7.669c-0.13,1.584-0.271,3.301-0.419,5.115
			c-0.181,1.813-0.233,3.731-0.392,5.708c-0.141,1.979-0.284,4.021-0.432,6.098c-0.162,2.074-0.326,4.183-0.49,6.289
			c-0.125,2.111-0.25,4.225-0.373,6.303c-0.113,2.079-0.276,4.123-0.406,6.103c-0.113,1.98-0.318,3.892-0.393,5.708
			c-0.101,1.816-0.195,3.533-0.283,5.118c-0.178,3.171-0.404,5.813-0.526,7.665c-0.14,1.852-0.244,2.909-0.244,2.909
			s-0.05-1.061-0.094-2.915c-0.026-1.854-0.115-4.506-0.13-7.688c-0.006-1.591-0.012-3.314-0.018-5.139
			c-0.013-1.824,0.09-3.744,0.161-5.731c0.086-1.985,0.146-4.041,0.261-6.126c0.104-2.086,0.209-4.205,0.314-6.323
			c0.186-2.114,0.371-4.229,0.555-6.313c0.197-2.08,0.393-4.127,0.58-6.106c0.201-1.979,0.362-3.897,0.626-5.699
			c0.255-1.805,0.494-3.509,0.716-5.083c0.449-3.146,0.897-5.763,1.178-7.597C205.656,308.248,205.85,307.204,205.85,307.204z"/>
	</g>
	<g>
		<path d="M195.352,305.147c0,0,0.153,1.068,0.381,2.941c0.211,1.874,0.561,4.548,0.891,7.763c0.345,3.214,0.708,6.966,1.063,10.988
			c0.168,2.013,0.344,4.091,0.522,6.204c0.162,2.112,0.328,4.261,0.493,6.406c0.07,2.156,0.142,4.313,0.212,6.435
			c0.079,2.121,0.106,4.211,0.16,6.231c0.091,4.042,0.139,7.816,0.147,11.052c0.024,3.233-0.033,5.93-0.037,7.814
			c-0.021,1.886-0.058,2.963-0.058,2.963s-0.117-1.074-0.278-2.955c-0.146-1.881-0.404-4.563-0.623-7.787
			c-0.231-3.222-0.467-6.979-0.678-11.007c-0.098-2.014-0.227-4.093-0.307-6.208c-0.09-2.114-0.18-4.264-0.27-6.413
			c-0.146-2.147-0.291-4.297-0.434-6.412c-0.128-2.115-0.253-4.197-0.374-6.214c-0.229-4.031-0.409-7.798-0.53-11.026
			c-0.136-3.229-0.175-5.925-0.236-7.811C195.354,306.227,195.352,305.147,195.352,305.147z"/>
	</g>
	<g>
		<path fill="#BEDCA0" d="M233.715,314.932c-3.041,17.963-4.804,35.967-5.281,53.95"/>
		<path d="M233.715,314.932c0,0-0.052,0.85-0.183,2.33c-0.149,1.478-0.313,3.597-0.597,6.125c-0.146,1.265-0.302,2.634-0.468,4.082
			c-0.198,1.444-0.269,2.979-0.446,4.555c-0.16,1.577-0.299,3.21-0.486,4.862c-0.182,1.652-0.365,3.333-0.551,5.013
			c-0.146,1.687-0.291,3.37-0.436,5.029c-0.133,1.659-0.314,3.289-0.464,4.869c-0.133,1.58-0.354,3.103-0.448,4.554
			c-0.102,1.45-0.22,2.821-0.33,4.087c-0.211,2.532-0.463,4.642-0.603,6.121c-0.158,1.479-0.272,2.323-0.272,2.323
			s-0.039-0.85-0.064-2.334c-0.008-1.485-0.072-3.61-0.057-6.158c0.002-1.275,0.006-2.656,0.033-4.116
			c0.008-1.462,0.127-2.997,0.219-4.587c0.104-1.589,0.186-3.233,0.317-4.9c0.125-1.668,0.252-3.361,0.379-5.058
			c0.206-1.688,0.411-3.377,0.613-5.039c0.196-1.662,0.435-3.293,0.64-4.873c0.221-1.578,0.398-3.111,0.682-4.541
			c0.271-1.433,0.525-2.787,0.763-4.037c0.478-2.499,0.948-4.57,1.244-6.026C233.514,315.759,233.715,314.932,233.715,314.932z"/>
	</g>
	<g>
		<path d="M223.241,313.392c0,0,0.144,0.85,0.353,2.34c0.192,1.491,0.516,3.618,0.815,6.178c0.313,2.559,0.642,5.545,0.954,8.749
			c0.15,1.604,0.328,3.256,0.465,4.94c0.143,1.684,0.287,3.395,0.434,5.104c0.051,1.721,0.1,3.439,0.149,5.133
			c0.06,1.691,0.065,3.359,0.103,4.973c0.051,3.226,0.063,6.237,0.043,8.816c-0.008,2.579-0.091,4.729-0.111,6.231
			c-0.039,1.504-0.086,2.362-0.086,2.362s-0.106-0.856-0.252-2.355c-0.127-1.499-0.359-3.639-0.547-6.205
			c-0.201-2.565-0.399-5.56-0.572-8.767c-0.078-1.604-0.188-3.26-0.247-4.945c-0.068-1.685-0.14-3.396-0.208-5.106
			c-0.125-1.712-0.249-3.425-0.372-5.109c-0.129-1.685-0.211-3.346-0.313-4.952c-0.191-3.213-0.336-6.215-0.426-8.791
			c-0.105-2.574-0.117-4.726-0.162-6.229C223.232,314.253,223.241,313.392,223.241,313.392z"/>
	</g>
	<g>
		<path fill="none" d="M200.007,384.456"/>
	</g>
	<g>
		<path fill="none" d="M207.244,306.246"/>
	</g>
	<g>
		<path d="M116.37,211.426c0,0,1.303,0.945,3.582,2.601c2.264,1.675,5.534,4.019,9.47,6.788c1.977,1.374,4.139,2.829,6.474,4.282
			c2.341,1.442,4.835,2.917,7.491,4.275c2.662,1.344,5.497,2.609,8.399,3.807c2.912,1.167,5.909,2.272,8.961,3.052
			c1.523,0.384,3.07,0.672,4.577,0.743c0.778,0.038,1.432-0.004,2.239-0.137c0.701-0.12,1.457-0.323,2.182-0.551
			c1.459-0.471,2.904-1.081,4.353-1.646c1.435-0.582,2.852-1.157,4.244-1.723c2.777-1.156,5.441-2.323,7.946-3.478
			c2.51-1.145,4.838-2.316,6.985-3.402c2.148-1.083,4.08-2.151,5.775-3.124c0.84-0.503,1.625-0.974,2.352-1.407
			c0.713-0.458,1.367-0.878,1.957-1.258c1.162-0.788,2.08-1.406,2.677-1.867c0.606-0.448,0.931-0.688,0.931-0.688
			s-0.309,0.26-0.886,0.744c-0.567,0.498-1.445,1.174-2.563,2.035c-0.574,0.409-1.211,0.861-1.904,1.354
			c-0.709,0.471-1.476,0.979-2.295,1.521c-1.656,1.056-3.547,2.22-5.655,3.408c-4.22,2.374-9.287,4.873-14.802,7.356
			c-1.385,0.608-2.791,1.228-4.217,1.854c-1.427,0.604-2.869,1.237-4.413,1.779c-0.781,0.261-1.557,0.495-2.426,0.66
			c-0.762,0.147-1.709,0.241-2.533,0.211c-1.697-0.049-3.33-0.36-4.928-0.743c-3.195-0.778-6.256-1.896-9.203-3.124
			c-2.948-1.229-5.791-2.548-8.479-3.991c-5.388-2.868-9.963-6.229-13.834-9.124c-3.875-2.899-6.921-5.539-9.093-7.331
			C117.578,212.49,116.37,211.426,116.37,211.426z"/>
	</g>
	<g>
		<g>
			<path d="M112.208,179.409c0.007,0.009,0.012-0.063,0.121-0.081c0.114,0.014,0.203,0.171,0.21,0.367
				c0.004,0.093-0.039,0.259-0.201,0.296c-0.102,0.021-0.128,0.005-0.201,0.006c-0.073-0.022-0.164-0.047-0.221-0.097
				c-0.269-0.18-0.404-0.511-0.512-0.842c-0.429-1.311-1.089-3.17-1.796-5.424c-0.72-2.251-1.523-4.887-2.348-7.72
				c-0.404-1.419-0.847-2.879-1.252-4.374c-0.411-1.494-0.829-3.012-1.247-4.528c-0.398-1.521-0.797-3.045-1.189-4.543
				c-0.401-1.496-0.747-2.981-1.108-4.412c-0.707-2.865-1.331-5.55-1.834-7.857c-0.262-1.151-0.477-2.215-0.667-3.156
				c-0.186-0.933-0.388-1.775-0.378-2.496c-0.006-0.714,0.178-1.283,0.42-1.58c0.228-0.301,0.402-0.407,0.392-0.416
				c0.011,0.007-0.146,0.146-0.311,0.463c-0.186,0.315-0.24,0.856-0.164,1.511c0.072,0.662,0.36,1.433,0.666,2.352
				c0.308,0.91,0.654,1.938,1.004,3.064c0.721,2.25,1.524,4.887,2.349,7.721c0.403,1.419,0.849,2.878,1.25,4.374
				c0.411,1.493,0.829,3.011,1.246,4.527c0.398,1.522,0.797,3.045,1.189,4.543c0.397,1.497,0.746,2.982,1.106,4.413
				c0.706,2.865,1.331,5.549,1.835,7.858c0.518,2.305,0.877,4.245,1.162,5.594c0.063,0.327,0.151,0.61,0.313,0.766
				c0.04,0.048,0.077,0.057,0.115,0.087c0.049,0.01,0.142,0.031,0.151,0.024c0.079,0.002,0.124-0.079,0.138-0.16
				c0.023-0.162-0.037-0.317-0.12-0.338C112.241,179.351,112.209,179.419,112.208,179.409z"/>
		</g>
		<g>
			<path d="M112.636,181.428c0,0,0.697,0.227,1.899,0.662c1.195,0.45,2.924,1.049,4.961,1.849c1.021,0.396,2.126,0.824,3.286,1.3
				c1.169,0.449,2.375,0.999,3.611,1.595c1.238,0.59,2.529,1.178,3.821,1.814c1.295,0.633,2.61,1.276,3.926,1.919
				c1.288,0.685,2.576,1.368,3.844,2.041c1.272,0.665,2.501,1.364,3.702,2.018c2.393,1.33,4.624,2.554,6.518,3.65
				c1.901,1.08,3.452,2.051,4.555,2.696c1.094,0.662,1.709,1.063,1.709,1.063s-0.684-0.264-1.86-0.762
				c-1.17-0.514-2.864-1.202-4.857-2.11c-1.997-0.899-4.326-1.963-6.769-3.185c-1.222-0.611-2.496-1.221-3.768-1.884
				c-1.276-0.656-2.572-1.321-3.868-1.987c-1.295-0.654-2.59-1.311-3.864-1.956c-1.278-0.639-2.516-1.309-3.726-1.936
				c-1.208-0.627-2.36-1.271-3.499-1.8c-1.129-0.543-2.188-1.078-3.164-1.571c-1.958-0.979-3.56-1.862-4.694-2.448
				C113.271,181.794,112.636,181.428,112.636,181.428z"/>
		</g>
		<g>
			<path d="M99.922,131.87c2.644-0.611,5.293-1.192,7.945-1.764c2.652-0.566,5.298-1.173,7.956-1.709l15.937-3.28
				c5.32-1.05,10.638-2.115,15.967-3.122c5.323-1.032,10.654-2.025,15.987-3.01l0.799-0.146l0.18,0.799l2.55,11.334
				c0.988,3.746,1.903,7.512,2.854,11.271c1.043,3.733,2.141,7.452,3.144,11.203c1.106,3.72,2.251,7.429,3.317,11.166
				c-1.375-3.633-2.677-7.294-4.006-10.947c-1.24-3.685-2.389-7.397-3.587-11.099c-1.066-3.738-2.17-7.471-3.198-11.224
				l-2.72-11.356l0.978,0.651c-5.324,1.026-10.651,2.042-15.985,3.021c-5.329,1.003-10.67,1.946-16.007,2.906l-16.037,2.748
				c-2.671,0.469-5.355,0.868-8.032,1.306C105.286,131.052,102.607,131.476,99.922,131.87z"/>
		</g>
		<g>
			<path d="M113.323,180.823c0,0,0.945-0.355,2.612-0.94c1.672-0.567,4.046-1.426,6.92-2.371c2.869-0.962,6.225-2.052,9.864-3.093
				c1.817-0.525,3.696-1.068,5.605-1.619c1.913-0.537,3.856-1.082,5.8-1.628c1.96-0.484,3.919-0.969,5.848-1.445
				c1.927-0.486,3.835-0.915,5.675-1.355c1.842-0.432,3.618-0.865,5.322-1.195c1.705-0.326,3.316-0.635,4.804-0.92
				c2.976-0.566,5.469-0.962,7.206-1.274c1.742-0.295,2.74-0.438,2.74-0.438s-0.968,0.295-2.67,0.77
				c-1.705,0.458-4.13,1.162-7.056,1.915c-1.464,0.375-3.049,0.78-4.726,1.21c-1.68,0.413-3.429,0.947-5.257,1.418
				c-1.824,0.483-3.703,1.012-5.625,1.496c-1.919,0.494-3.868,0.996-5.818,1.498c-1.943,0.524-3.887,1.049-5.8,1.565
				c-1.918,0.501-3.805,0.994-5.631,1.472c-1.83,0.467-3.6,0.919-5.276,1.348c-1.678,0.438-3.264,0.851-4.728,1.231
				c-2.929,0.757-5.391,1.315-7.104,1.741C114.312,180.612,113.323,180.823,113.323,180.823z"/>
		</g>
		<g>
			<path d="M176.275,163.89c0,0,0.524,0.218,1.443,0.601c0.461,0.184,1.002,0.463,1.649,0.69c0.644,0.241,1.364,0.511,2.138,0.823
				c0.799,0.279,1.663,0.578,2.564,0.918c0.924,0.327,1.865,0.633,2.896,1.027c1.967,0.798,4.057,1.641,6.115,2.602
				c1.021,0.497,2.045,0.994,3.052,1.482c1.009,0.479,1.985,1.002,2.929,1.475c1.886,0.963,3.629,1.896,5.111,2.725
				c3,1.543,4.967,2.721,4.967,2.721s-2.177-0.632-5.386-1.817c-1.58-0.627-3.407-1.393-5.353-2.249
				c-0.971-0.438-1.971-0.856-2.973-1.332c-1.004-0.467-2.021-0.939-3.041-1.414c-1.003-0.505-2.045-0.953-3.058-1.411
				c-1.019-0.449-2.002-0.933-2.964-1.379c-0.936-0.398-1.903-0.832-2.782-1.231c-0.888-0.414-1.718-0.824-2.479-1.206
				c-0.762-0.41-1.444-0.804-2.049-1.148c-0.617-0.325-1.086-0.705-1.505-0.974C176.74,164.217,176.275,163.89,176.275,163.89z"/>
		</g>
		<g>
			<path d="M154.446,201.622c0,0,0.846-0.384,2.339-1.015c1.499-0.613,3.624-1.539,6.205-2.563c2.575-1.038,5.593-2.214,8.838-3.438
				c1.625-0.605,3.304-1.232,5.01-1.869c1.712-0.622,3.45-1.254,5.188-1.886c1.722-0.671,3.441-1.341,5.137-2.001
				c1.689-0.669,3.372-1.278,4.99-1.896c3.24-1.219,6.281-2.32,8.899-3.236c2.613-0.93,4.822-1.634,6.355-2.16
				c1.54-0.511,2.43-0.78,2.43-0.78s-0.83,0.411-2.301,1.093c-1.478,0.664-3.567,1.661-6.114,2.772
				c-2.541,1.126-5.521,2.405-8.729,3.74c-1.606,0.659-3.258,1.367-4.953,2.039c-1.692,0.68-3.412,1.37-5.131,2.062
				c-1.746,0.612-3.491,1.227-5.209,1.829c-1.725,0.588-3.42,1.167-5.062,1.729c-3.287,1.107-6.367,2.109-9.018,2.938
				c-2.646,0.841-4.875,1.473-6.425,1.946C155.343,201.383,154.446,201.622,154.446,201.622z"/>
		</g>
	</g>
	<path fill="none" d="M189.814,367.715c-0.164,2.406-0.771,4.782-1.772,6.976"/>
	<path d="M206.835,122.619c-0.838,0.194-1.368,0.749-1.522,1.35c-0.047,0.184-0.063,0.377,0.013,0.567
		c0.089,0.225,0.295,0.427,0.497,0.623c0.273,0.265,0.568,0.542,0.984,0.694c-0.031-0.208-0.063-0.415-0.098-0.623
		c-0.117-0.737-0.229-1.514,0.18-2.163c0.061-0.092,0.131-0.184,0.247-0.243c0.118-0.061,0.292-0.083,0.435-0.029"/>
	<g>
		<path d="M207.514,117.063c0,0,0.139-0.072,0.381-0.173c0.248-0.084,0.676-0.152,1.137-0.104c0.232,0.021,0.486,0.057,0.736,0.133
			c0.252,0.069,0.52,0.146,0.769,0.257c0.514,0.215,0.993,0.466,1.479,0.765c0.488,0.301,0.955,0.661,1.355,1.05
			c0.402,0.39,0.725,0.821,0.943,1.224c0.215,0.41,0.345,0.767,0.386,1.038c0.05,0.265,0.059,0.415,0.059,0.415
			s-0.14-0.083-0.349-0.229c-0.196-0.153-0.51-0.33-0.831-0.554c-0.337-0.2-0.729-0.432-1.151-0.682
			c-0.424-0.243-0.869-0.514-1.324-0.79c-0.455-0.285-0.922-0.605-1.313-0.898c-0.396-0.299-0.751-0.571-1.069-0.79
			c-0.328-0.215-0.591-0.381-0.824-0.494C207.652,117.135,207.514,117.063,207.514,117.063z"/>
	</g>
	<g>
		<path d="M240.915,103.521c0.021-0.014-0.142-0.234-0.187-0.773c-0.011-0.26-0.002-0.584,0.101-0.943
			c0.095-0.36,0.262-0.753,0.521-1.143c0.069-0.094,0.142-0.189,0.215-0.287l0.056-0.074l0.087-0.088l0.113-0.121
			c0.168-0.163,0.293-0.323,0.52-0.488c0.215-0.159,0.448-0.345,0.676-0.492c0.225-0.141,0.465-0.273,0.702-0.403
			c0.244-0.121,0.491-0.245,0.742-0.369c0.241-0.113,0.485-0.227,0.735-0.327c0.481-0.218,1.054-0.401,1.603-0.594
			c0.554-0.185,1.147-0.258,1.708-0.387c0.594-0.074,1.141-0.071,1.753-0.077c0.265,0.033,0.491,0.027,0.775,0.093
			c0.276,0.064,0.562,0.105,0.804,0.192c0.499,0.143,0.943,0.357,1.334,0.576c0.387,0.232,0.714,0.479,0.971,0.737
			c0.276,0.227,0.439,0.513,0.602,0.7c0.142,0.21,0.217,0.4,0.281,0.515c0.059,0.118,0.09,0.18,0.09,0.18s-0.225-0.163-0.615-0.45
			c-0.216-0.11-0.438-0.28-0.736-0.4c-0.287-0.142-0.627-0.25-0.988-0.368c-0.375-0.092-0.775-0.171-1.203-0.222
			c-0.418-0.043-0.823-0.039-1.372-0.027c-0.458,0.065-0.933,0.134-1.413,0.203c-0.487,0.136-0.993,0.212-1.479,0.393
			c-0.496,0.155-0.98,0.282-1.496,0.492c-0.496,0.179-0.985,0.354-1.459,0.524c-0.455,0.189-0.879,0.356-1.227,0.534
			c-0.186,0.07-0.381,0.25-0.568,0.354l-0.141,0.089c-0.01,0.002-0.078,0.058-0.039,0.017l-0.055,0.044l-0.219,0.173
			c-0.265,0.25-0.498,0.504-0.668,0.761c-0.168,0.257-0.287,0.505-0.367,0.723c-0.059,0.208-0.121,0.398-0.127,0.532
			C240.925,103.452,240.915,103.521,240.915,103.521z"/>
	</g>
	<g>
		<path d="M248.781,122.976c0,0,0.408,0.618,1.085,1.72c0.325,0.558,0.649,1.283,1.063,2.102c0.356,0.836,0.768,1.785,1.098,2.856
			c0.16,0.538,0.328,1.1,0.504,1.68c0.146,0.587,0.269,1.201,0.41,1.83c0.244,1.261,0.488,2.603,0.601,3.999
			c0.075,0.697,0.142,1.407,0.172,2.128c0.021,0.358,0.042,0.722,0.063,1.086l0.014,0.272v0.293l-0.002,0.543
			c-0.016,1.452,0.011,2.919-0.04,4.402c-0.081,1.483-0.163,2.967-0.243,4.428c-0.08,1.446-0.211,2.867-0.307,4.244
			c-0.065,1.371-0.16,2.696-0.245,3.955c-0.078,1.251-0.11,2.45-0.083,3.52c0.014,0.542,0.041,1.061,0.095,1.549
			c0.027,0.496,0.101,0.956,0.179,1.388c0.057,0.44,0.172,0.833,0.273,1.201c0.087,0.374,0.205,0.703,0.336,0.992
			c0.127,0.29,0.213,0.566,0.327,0.785c0.12,0.219,0.222,0.403,0.304,0.555c0.168,0.305,0.258,0.467,0.258,0.467
			s-0.117-0.144-0.334-0.413c-0.223-0.269-0.563-0.66-0.859-1.248c-0.174-0.281-0.342-0.604-0.48-0.977
			c-0.156-0.365-0.332-0.764-0.449-1.206c-0.295-0.874-0.51-1.897-0.641-3.019c-0.086-0.56-0.107-1.147-0.166-1.758
			c-0.023-0.588-0.061-1.221-0.052-1.855c-0.003-1.273-0.011-2.618,0.014-4.01c0.052-1.383,0.081-2.813,0.159-4.264
			c0.061-1.438,0.122-2.898,0.184-4.359c0.069-1.461,0.063-2.942,0.101-4.392c0.011-1.406,0.005-2.836-0.093-4.188
			c-0.03-0.681-0.08-1.348-0.148-1.997c-0.07-0.65-0.097-1.296-0.205-1.908c-0.092-0.617-0.181-1.217-0.267-1.798
			c-0.115-0.576-0.226-1.133-0.332-1.666c-0.089-0.542-0.259-1.034-0.374-1.52c-0.131-0.479-0.225-0.95-0.365-1.367
			c-0.294-0.833-0.512-1.58-0.763-2.175C249.055,123.665,248.781,122.976,248.781,122.976z"/>
	</g>
	<g>
		<path d="M234.209,128.819c0,0,0.057,0.795,0.115,2.186c0.041,1.389,0.148,3.375,0.189,5.756c0.037,2.384,0.229,5.146,0.299,8.107
			c0.033,1.49,0.094,2.993,0.177,4.559c0.04,0.777,0.062,1.57,0.118,2.351c0.07,0.774,0.142,1.553,0.211,2.33
			c0.068,1.565,0.395,3.088,0.598,4.608c0.264,1.507,0.693,2.94,1.016,4.362c0.242,0.689,0.479,1.369,0.713,2.034
			c0.275,0.629,0.518,1.256,0.803,1.852c0.313,0.584,0.599,1.166,0.906,1.71c0.332,0.532,0.65,1.046,0.957,1.54
			c0.353,0.464,0.688,0.909,1.008,1.332c0.314,0.431,0.683,0.776,0.992,1.14c0.16,0.178,0.314,0.35,0.465,0.516
			c0.166,0.146,0.326,0.289,0.479,0.427c0.311,0.274,0.596,0.526,0.854,0.756c0.539,0.422,0.992,0.724,1.291,0.948
			c0.304,0.219,0.466,0.335,0.466,0.335s-0.179-0.088-0.513-0.254c-0.326-0.178-0.845-0.384-1.439-0.754
			c-0.289-0.199-0.609-0.42-0.96-0.659c-0.175-0.121-0.356-0.248-0.546-0.379c-0.174-0.149-0.354-0.306-0.539-0.467
			c-0.363-0.329-0.791-0.646-1.17-1.05c-0.375-0.41-0.77-0.841-1.18-1.29c-0.367-0.486-0.75-0.994-1.146-1.52
			c-0.371-0.542-0.703-1.136-1.073-1.731c-0.344-0.611-0.65-1.275-0.99-1.939c-0.297-0.677-0.537-1.314-0.826-2.065
			c-0.209-0.729-0.424-1.474-0.64-2.227c-0.198-0.756-0.483-1.511-0.571-2.302c-0.232-1.569-0.59-3.157-0.679-4.768
			c-0.063-0.804-0.124-1.606-0.186-2.406c-0.05-0.796-0.06-1.578-0.091-2.358c-0.074-1.557-0.039-3.126-0.026-4.609
			c0.024-1.493,0.05-2.936,0.073-4.305c0.021-1.367,0.06-2.659,0.16-3.847c0.154-2.376,0.356-4.354,0.465-5.74
			C234.113,129.61,234.209,128.819,234.209,128.819z"/>
	</g>
	<path fill="#E6E6E6" d="M112.411,181.379c5.44-1.229,52.584-14.755,64.306-17.569c0.311-0.104-11.957-41.392-12.814-42.966
		c0.116-0.497-0.322-0.921-0.822-0.824c-10.361,2.009-52.919,9.438-63.019,12.024C100.861,139.895,111.551,176.977,112.411,181.379z
		"/>
	<path fill="#333333" d="M117.31,175.594c4.413-0.995,42.67-11.973,52.183-14.257c0.252-0.086-9.702-33.591-10.399-34.867
		c0.097-0.404-0.26-0.748-0.666-0.67c-8.409,1.631-42.945,7.661-51.142,9.758C107.936,141.928,116.61,172.021,117.31,175.594z"/>
	<g>
		<path fill="#82BA41" d="M139.165,162.781c-0.041,0-0.081,0.002-0.123,0c-5.642-0.055-6.998-7.296-7.221-9.892
			c-0.588-6.872,1.223-14.342,4.807-15.009c0.41-0.074,0.796-0.062,1.162,0.026c-2.342,1.242-4.453,5.397-4.5,10.5
			c-0.059,5.94,0.917,12.8,3.05,13.139c-1.38-1.346-2.172-3.885-2.132-8.167c0.069-7.085,4.219-15.984,7.598-15.951
			c3.38,0.035,6.126,5.845,6.058,12.929c-0.067,7.082-4.752,12.486-8.133,12.455C139.539,162.807,139.35,162.797,139.165,162.781"/>
	</g>
	<g>
		<path d="M116.229,211.439c0,0-0.7-0.408-1.9-1.156c-0.599-0.378-1.325-0.836-2.158-1.359c-0.82-0.551-1.801-1.069-2.85-1.656
			c-1.051-0.585-2.186-1.217-3.37-1.905c-0.624-0.354-1.236-0.627-1.896-1.066c-0.328-0.223-0.657-0.374-0.988-0.668
			c-0.288-0.248-0.577-0.445-0.871-0.74c-0.611-0.582-1.145-1.199-1.639-1.845c-0.242-0.352-0.461-0.621-0.725-1.044l-0.586-1.031
			c-0.193-0.349-0.398-0.684-0.583-1.048l-0.499-1.175c-0.163-0.396-0.337-0.787-0.488-1.186l-0.35-1.211l-0.328-1.216l-0.189-1.243
			l-0.187-1.276l-0.017-0.3c0.001-0.146,0.023-0.347,0.05-0.515l0.011-0.065l0.006-0.031l0.035-0.104l0.028-0.069l0.059-0.144
			c0.083-0.161,0.214-0.38,0.302-0.468c0.095-0.112,0.193-0.219,0.29-0.301c0.066-0.055,0.059-0.063,0.186-0.154l0.121-0.087
			c0.155-0.112,0.31-0.229,0.563-0.356c0.234-0.132,0.456-0.225,0.666-0.295c0.215-0.088,0.43-0.14,0.644-0.194
			c0.858-0.208,1.686-0.248,2.468-0.255c0.843,0.046,1.499,0.008,2.287,0.132c0.389,0.072,0.772,0.145,1.152,0.215
			c0.21,0.046,0.329,0.052,0.609,0.129l0.488,0.188c0.325,0.13,0.642,0.233,0.96,0.381c0.32,0.179,0.636,0.354,0.945,0.525
			c0.631,0.336,1.095,0.778,1.614,1.138c0.468,0.42,0.908,0.791,1.32,1.214c0.369,0.413,0.718,0.805,1.046,1.171
			c0.663,0.729,1.223,1.384,1.678,1.93c0.462,0.537,0.804,0.979,1.046,1.271c0.108,0.156,0.229,0.231,0.324,0.241
			c0.097,0.002,0.112-0.074,0.114-0.066c-0.005-0.009-0.002,0.072-0.114,0.092c-0.104,0.009-0.259-0.062-0.391-0.199
			c-0.28-0.254-0.704-0.614-1.217-1.098c-0.514-0.483-1.145-1.063-1.891-1.706c-0.37-0.325-0.764-0.672-1.179-1.035
			c-0.399-0.321-0.871-0.671-1.338-1.019c-0.503-0.283-1.004-0.679-1.555-0.904c-0.269-0.131-0.541-0.262-0.818-0.396
			c-0.3-0.117-0.642-0.207-0.968-0.313l-0.5-0.156c-0.062-0.001-0.296-0.033-0.436-0.048c-0.323-0.041-0.65-0.082-0.98-0.124
			c-0.653-0.065-1.495-0.021-2.161-0.032c-0.728,0.033-1.446,0.104-2.096,0.291c-0.31,0.087-0.665,0.222-0.874,0.354
			c-0.105,0.04-0.269,0.157-0.431,0.28l-0.12,0.088c0.044-0.039-0.029,0.029-0.038,0.038c-0.055,0.045-0.088,0.089-0.123,0.128
			c-0.051,0.056-0.004,0.021-0.035,0.021l-0.052,0.134l-0.026,0.069c0.01-0.033-0.033,0.099,0.021-0.069l0.001,0.005l0.002,0.009
			c0.007,0.03-0.005,0.026-0.012,0.079l0.021,0.3l0.184,1.101l0.187,1.142l0.316,1.115l0.306,1.119l0.42,1.052l0.419,1.049
			c0.171,0.352,0.379,0.699,0.565,1.048l0.571,1.04c0.142,0.25,0.394,0.608,0.583,0.905c0.43,0.607,0.887,1.17,1.351,1.654
			c0.226,0.255,0.548,0.5,0.813,0.747c0.216,0.213,0.549,0.401,0.811,0.605c0.524,0.41,1.194,0.771,1.756,1.139
			c1.175,0.769,2.271,1.514,3.278,2.199c0.503,0.345,0.985,0.674,1.443,0.986c0.457,0.315,0.844,0.67,1.231,0.973
			c0.765,0.622,1.431,1.163,1.979,1.609C115.617,210.907,116.229,211.439,116.229,211.439z"/>
	</g>
	<g>
		<path d="M124.528,205.731c0,0-0.183-0.317-0.47-0.886c-0.29-0.562-0.678-1.4-1.118-2.357c-0.232-0.468-0.492-0.983-0.78-1.46
			c-0.341-0.553-0.662-0.987-1.061-1.516c-0.4-0.505-0.838-1.012-1.29-1.536c-0.457-0.547-0.927-0.985-1.432-1.631l-0.327-0.428
			l-0.328-0.513c-0.232-0.353-0.382-0.669-0.563-0.996c-0.303-0.639-0.601-1.266-0.889-1.872c-0.295-0.576-0.551-1.141-0.886-1.588
			c-0.083-0.115-0.159-0.253-0.192-0.286c-0.006-0.012-0.015-0.018,0.031-0.011c0.055,0.006,0.165,0.021,0.294-0.081l-0.044,0.027
			c0.021-0.011,0.038-0.025,0.052-0.044l0.023-0.037l-0.017,0.021l-0.033,0.042l-0.123,0.162c-0.068,0.092-0.138,0.193-0.205,0.302
			c-0.526,0.854-0.823,1.688-0.865,2.278c-0.018,0.295,0.013,0.531,0.065,0.688c0.059,0.152,0.104,0.235,0.104,0.235
			c0.022-0.002-0.346-0.217-0.5-0.898c-0.151-0.664-0.078-1.646,0.329-2.729c0.053-0.136,0.111-0.274,0.185-0.425l0.1-0.198
			l0.025-0.048l0.012-0.023l0.056-0.08c0.036-0.047,0.076-0.091,0.118-0.131l0.041-0.039c0.244-0.189,0.517-0.189,0.712-0.14
			c0.187,0.052,0.305,0.127,0.415,0.211c0.199,0.157,0.28,0.289,0.396,0.406c0.232,0.247,0.453,0.512,0.647,0.795
			c0.215,0.275,0.396,0.566,0.575,0.867c0.336,0.586,0.684,1.19,1.037,1.806c0.168,0.284,0.337,0.607,0.508,0.848l0.256,0.389
			l0.339,0.419c0.459,0.539,0.918,1.079,1.369,1.61c0.468,0.549,0.888,1.139,1.271,1.729c0.378,0.57,0.745,1.243,0.963,1.791
			c0.273,0.623,0.444,1.193,0.576,1.737c0.268,1.077,0.391,1.96,0.493,2.593C124.492,205.366,124.528,205.731,124.528,205.731z"/>
	</g>
	<path fill="#CCCCCC" d="M193.764,175.632c-15.063,5.112-30.125,10.223-45.188,15.336c-0.464,0.155-1.357,0.071-1.782,0.313
		c-7.934-3.013-15.39-6.224-23.229-9.472c9.188-2.923,18.521-5.366,27.847-7.806c7.447-1.948,14.894-3.896,22.341-5.845
		c0.837-0.22,1.536-0.354,2.356-0.629C182.343,169.718,187.943,172.498,193.764,175.632z"/>
	<g>
		<path d="M247.746,116.923c0,0,0.229,0.155,0.661,0.445c0.422,0.304,1.09,0.675,1.823,1.321c0.371,0.316,0.813,0.641,1.238,1.045
			c0.428,0.408,0.889,0.85,1.381,1.32c0.459,0.505,0.946,1.043,1.461,1.61c0.474,0.601,0.977,1.232,1.474,1.912
			c0.961,1.378,1.968,2.908,2.841,4.627c0.914,1.697,1.75,3.553,2.514,5.507c1.545,3.905,2.748,8.211,3.812,12.523
			c0.513,2.15,1.024,4.301,1.53,6.417c0.533,2.104,1.025,4.179,1.6,6.156c0.578,1.976,1.146,3.882,1.795,5.648
			c0.626,1.775,1.323,3.412,1.998,4.911c0.366,0.734,0.717,1.438,1.051,2.109c0.364,0.655,0.71,1.276,1.035,1.86
			c0.359,0.564,0.696,1.094,1.007,1.583c0.314,0.487,0.647,0.902,0.927,1.298c0.553,0.791,1.058,1.359,1.379,1.767
			c0.33,0.403,0.504,0.618,0.504,0.618s-0.198-0.191-0.571-0.554c-0.362-0.371-0.956-0.865-1.573-1.618
			c-0.662-0.717-1.39-1.65-2.21-2.739c-0.383-0.563-0.79-1.164-1.219-1.796c-0.396-0.653-0.804-1.348-1.216-2.079
			c-0.789-1.479-1.608-3.108-2.318-4.895c-0.745-1.773-1.422-3.684-2.05-5.677c-0.624-1.996-1.222-4.067-1.763-6.188
			c-0.523-2.116-1.058-4.268-1.59-6.418c-0.513-2.142-1.055-4.275-1.643-6.355c-0.611-2.071-1.204-4.113-1.911-6.04
			c-0.708-1.925-1.424-3.775-2.239-5.466c-0.785-1.707-1.662-3.248-2.511-4.65c-0.437-0.692-0.897-1.327-1.306-1.956
			c-0.452-0.596-0.883-1.161-1.285-1.692c-0.439-0.503-0.854-0.973-1.234-1.408c-0.384-0.435-0.783-0.782-1.119-1.126
			c-0.67-0.689-1.278-1.161-1.666-1.506C247.956,117.104,247.746,116.923,247.746,116.923z"/>
	</g>
	<g>
		<path d="M226.258,128.859c0,0-0.021-0.112-0.035-0.298c-0.023-0.183-0.022-0.432,0.117-0.765c0.057-0.175,0.141-0.33,0.253-0.482
			c0.103-0.163,0.224-0.332,0.392-0.462c0.078-0.073,0.162-0.142,0.25-0.21c0.224-0.121,0.058-0.097,0.471-0.214l0.111-0.021
			l0.057-0.007l0.027-0.003l0.203,0.02l0.066,0.009c0.063,0.014,0.045-0.005,0.174,0.041c0.135,0.05,0.272,0.121,0.393,0.205
			l0.089,0.064l0.112,0.115l0.045,0.05l0.17,0.209c0.093,0.146,0.166,0.312,0.229,0.473c0.076,0.173,0.082,0.298,0.093,0.429
			c0.006,0.13,0.028,0.258,0.006,0.38c-0.021,0.123-0.039,0.242-0.068,0.354l-0.021,0.083l-0.006,0.021l-0.017,0.074l-0.003,0.007
			l-0.016,0.027l-0.062,0.104c-0.046,0.069-0.08,0.132-0.13,0.202c-0.065,0.081-0.129,0.159-0.188,0.234
			c-0.112,0.154-0.243,0.232-0.354,0.306c-0.104,0.078-0.213,0.125-0.305,0.158c-0.181,0.067-0.289,0.089-0.289,0.089
			s0-0.12,0.016-0.298c0.013-0.167,0.035-0.438,0.016-0.643c-0.005-0.047-0.01-0.097-0.016-0.147
			c-0.004-0.075-0.008-0.152-0.014-0.231v-0.122v-0.03v-0.008c0.002-0.015-0.025,0.121-0.015,0.063l-0.001-0.001l-0.001-0.002
			l-0.004-0.009l-0.017-0.038c-0.021-0.049-0.03-0.096-0.043-0.142c-0.043-0.067-0.088-0.208-0.108-0.197
			c-0.009,0-0.007,0.002,0.013-0.016l-0.18-0.199l-0.042-0.052l-0.011-0.013l-0.006-0.006l-0.002-0.003l-0.002-0.001
			c-0.021-0.021,0.166,0.167,0.088,0.088l0.033,0.026c0.047,0.034,0.109,0.056,0.17,0.056c0.056-0.002-0.06-0.021-0.08-0.034
			l-0.063-0.021l-0.004-0.001h-0.002c-0.043-0.004,0.363,0.034,0.193,0.019h0.012l0.023-0.001l0.047-0.008
			c0.236-0.096-0.086,0.017-0.012-0.018c-0.058,0.025-0.115,0.05-0.18,0.069c-0.126,0.037-0.252,0.077-0.367,0.134
			c-0.115,0.056-0.25,0.093-0.345,0.145c-0.101,0.052-0.216,0.095-0.323,0.141c-0.096,0.072-0.193,0.127-0.271,0.175
			C226.363,128.814,226.258,128.859,226.258,128.859z"/>
	</g>
	<g>
		<path d="M238.957,298.471c0.059,0.06-0.126-1.385-0.465-3.988c-0.348-2.618-0.855-6.458-1.504-11.345
			c-0.633-4.89-1.398-10.827-2.278-17.638c-0.854-6.813-1.795-14.505-2.655-22.917c-0.435-4.205-0.859-8.589-1.231-13.135
			c-0.181-2.275-0.365-4.585-0.481-6.946c-0.107-2.38-0.076-4.799,0.203-7.253c0.271-2.448,0.87-4.935,1.969-7.279
			c1.129-2.313,2.894-4.476,5.236-5.811c2.4-1.4,5.102-1.687,7.525-2.312c1.218-0.31,2.375-0.734,3.391-1.379
			c0.266-0.146,0.49-0.346,0.732-0.522l0.785-0.609c0.5-0.411,1.06-0.803,1.644-1.186c4.571-3.049,10.008-4.469,15.424-5.261
			c2.722-0.387,5.47-0.615,8.224-0.788c2.738-0.153,5.606-0.335,8.471,0.303c0.359,0.063,0.712,0.163,1.063,0.274l0.528,0.158
			c0.271,0.08,0.352,0.137,0.536,0.207l0.963,0.398c0.325,0.15,0.663,0.355,0.993,0.533c0.693,0.345,1.238,0.82,1.854,1.237
			c0.541,0.495,1.135,0.944,1.611,1.501c2.04,2.123,3.46,4.711,4.538,7.374c1.079,2.674,1.772,5.469,2.292,8.278
			c0.109,0.712,0.246,1.394,0.326,2.132l0.257,2.097c0.153,1.402,0.382,2.782,0.454,4.213c0.945,11.354,0.217,22.714-1.414,33.729
			c-1.629,11.021-4.137,21.688-6.79,31.925c-1.353,5.112-2.701,10.132-4.093,15.021l-0.258,0.917l-0.063,0.229l-0.096,0.272
			l-0.162,0.446c-0.215,0.594-0.43,1.187-0.644,1.777c-0.634,1.168-1.198,2.396-2.043,3.374c-0.389,0.518-0.764,1.043-1.245,1.47
			c-0.463,0.442-0.896,0.918-1.38,1.327l-1.508,1.146c-0.492,0.396-1.063,0.659-1.587,0.993c-0.53,0.326-1.066,0.634-1.633,0.874
			c-0.559,0.258-1.113,0.515-1.666,0.771c-1.145,0.407-2.258,0.887-3.411,1.188c-2.276,0.724-4.577,1.158-6.832,1.581
			c-4.524,0.763-8.927,1.138-13.134,1.519c-4.231,0.415-8.394,0.031-12.188-0.57c-3.819-0.617-7.403-1.404-10.728-2.293
			c-6.66-1.73-12.338-3.667-16.979-5.334c-4.638-1.68-8.232-3.127-10.666-4.154c-2.437-1.021-3.72-1.602-3.72-1.602
			s1.294,0.557,3.748,1.529c2.45,0.982,6.071,2.361,10.733,3.95c4.666,1.577,10.371,3.403,17.035,5.002
			c3.325,0.822,6.903,1.537,10.695,2.077c3.811,0.525,7.782,0.881,11.977,0.423c4.201-0.425,8.576-0.847,13.03-1.646
			c2.216-0.44,4.474-0.893,6.677-1.619c1.121-0.307,2.187-0.78,3.287-1.185c0.526-0.25,1.055-0.502,1.586-0.755
			c0.541-0.234,1.047-0.533,1.545-0.849c0.49-0.321,1.033-0.576,1.488-0.952l1.4-1.087c0.447-0.387,0.84-0.833,1.265-1.246
			c0.446-0.397,0.783-0.889,1.136-1.369c0.783-0.923,1.239-1.999,1.813-3.031c0.207-0.593,0.415-1.188,0.624-1.783l0.156-0.448
			l0.062-0.175l0.063-0.229l0.246-0.919c1.32-4.907,2.688-9.914,4.009-15.021c2.61-10.217,5.067-20.843,6.645-31.78
			c1.583-10.917,2.25-22.198,1.293-33.314c-0.063-1.386-0.288-2.791-0.438-4.188l-0.248-2.098c-0.068-0.661-0.204-1.362-0.308-2.041
			c-0.492-2.722-1.153-5.416-2.168-7.953c-1.014-2.528-2.339-4.94-4.176-6.861c-0.43-0.51-0.961-0.904-1.441-1.354
			c-0.539-0.362-1.053-0.813-1.613-1.086c-0.282-0.151-0.534-0.319-0.838-0.463l-0.961-0.402c-0.141-0.053-0.367-0.166-0.436-0.17
			l-0.469-0.143c-0.311-0.1-0.624-0.189-0.948-0.248c-2.571-0.587-5.298-0.444-8.026-0.297c-2.73,0.162-5.438,0.38-8.1,0.748
			c-5.291,0.749-10.527,2.128-14.801,4.962l-0.785,0.523c-0.261,0.188-0.521,0.398-0.779,0.598l-0.772,0.595
			c-0.287,0.21-0.56,0.441-0.869,0.614c-1.2,0.757-2.526,1.228-3.819,1.551c-2.576,0.645-5.125,0.924-7.174,2.104
			c-2.109,1.173-3.686,3.063-4.755,5.179c-1.03,2.147-1.635,4.489-1.919,6.845c-0.611,4.719-0.15,9.418,0.137,13.96
			c0.322,4.538,0.702,8.921,1.092,13.125c1.598,16.817,3.14,30.818,4.254,40.614c0.557,4.897,0.994,8.746,1.291,11.37
			C238.857,297.083,239.016,298.531,238.957,298.471z"/>
	</g>
	<g>
		<path d="M123.928,206.222c0,0,0.436,0.172,1.252,0.494c0.821,0.305,1.998,0.843,3.561,1.322c0.773,0.256,1.631,0.539,2.563,0.849
			c0.946,0.272,1.97,0.567,3.063,0.883c1.09,0.324,2.263,0.627,3.5,0.944c1.235,0.323,2.534,0.664,3.89,1.02
			c2.721,0.692,5.667,1.443,8.784,2.238c1.562,0.392,3.16,0.842,4.794,1.323c0.807,0.207,1.677,0.535,2.476,0.884
			c0.794,0.338,1.563,0.667,2.327,0.848c0.191,0.047,0.383,0.094,0.571,0.105l0.284,0.035l0.035,0.005
			c-0.017,0,0.088,0.005-0.028,0.002l0.083-0.002l0.166-0.004l0.664-0.018c0.229,0.003,0.443-0.012,0.616-0.063
			c0.728-0.119,1.541-0.355,2.305-0.713c1.543-0.695,2.989-1.734,4.434-2.837c1.387-1.099,2.825-2.354,4.248-3.532l2.145-1.8
			c0.726-0.594,1.431-1.203,2.095-1.852c2.737-2.534,5.476-5.068,8.168-7.563c2.644-2.581,5.563-4.792,8.265-7.056
			c1.364-1.128,2.688-2.188,4.03-3.229c1.341-1.03,2.58-2.098,3.827-3.105c2.473-2.048,4.816-3.992,7.018-5.748
			c2.217-1.733,4.269-3.308,6.201-4.541c1.87-1.322,3.646-2.254,5.066-3.073c0.697-0.436,1.384-0.704,1.968-0.963
			c0.583-0.256,1.08-0.474,1.481-0.649c0.804-0.352,1.231-0.539,1.231-0.539s-0.415,0.218-1.192,0.625
			c-0.387,0.203-0.865,0.454-1.428,0.749c-0.56,0.301-1.222,0.604-1.896,1.071c-1.37,0.89-3.073,1.896-4.86,3.309
			c-0.91,0.679-1.888,1.386-2.855,2.219c-0.977,0.821-2.045,1.626-3.1,2.55c-2.131,1.813-4.402,3.823-6.816,5.957
			c-1.221,1.054-2.45,2.182-3.754,3.251c-1.282,1.078-2.652,2.176-3.967,3.313c-2.646,2.275-5.455,4.523-8.086,7.096
			c-2.697,2.523-5.438,5.088-8.178,7.651c-0.682,0.654-1.393,1.264-2.119,1.851l-2.154,1.788c-1.453,1.19-2.815,2.373-4.322,3.555
			c-1.479,1.124-3.035,2.222-4.803,2.981c-0.879,0.386-1.801,0.664-2.836,0.8c-0.263,0.054-0.491,0.063-0.707,0.058l-0.664,0.006
			l-0.166,0.001l-0.082,0.001c-0.144-0.004-0.066-0.005-0.111-0.007l-0.046-0.007l-0.371-0.051
			c-0.252-0.024-0.487-0.085-0.722-0.146c-0.939-0.24-1.77-0.622-2.554-0.968c-0.776-0.348-1.495-0.65-2.317-0.896
			c-1.59-0.522-3.155-1.019-4.7-1.459c-3.088-0.892-6.008-1.734-8.703-2.514c-2.698-0.781-5.163-1.539-7.323-2.288
			c-1.08-0.373-2.091-0.723-3.025-1.045c-0.923-0.36-1.771-0.69-2.537-0.989c-1.549-0.553-2.67-1.192-3.473-1.548
			C124.35,206.423,123.928,206.222,123.928,206.222z"/>
	</g>
	<g>
		<path d="M100.233,197.313c-0.128-0.028-0.263-0.05-0.385-0.087l0.21-0.249c0.365,0.126,0.707,0.269,1.025,0.431
			c0.329,0.148,0.622,0.337,0.926,0.508c0.627,0.315,1.203,0.683,1.755,1.089c0.585,0.355,1.14,0.759,1.672,1.225
			c0.555,0.429,1.101,0.885,1.6,1.517c-0.778,0.012-1.51-0.149-2.232-0.342c-0.687-0.261-1.352-0.584-1.986-0.953
			c-0.601-0.423-1.177-0.885-1.702-1.396c-0.235-0.291-0.48-0.566-0.689-0.879c-0.22-0.3-0.417-0.621-0.59-0.958l0.21-0.249
			C100.113,197.074,100.17,197.198,100.233,197.313z"/>
	</g>
	<g>
		<path d="M98.401,191.584c0,0,0.021,0.044,0.059,0.126c0.049,0.09,0.138,0.116,0.263,0.192c0.26,0.114,0.728,0.305,1.206,0.563
			c0.987,0.507,2.219,1.287,3.351,2.194c0.566,0.451,1.136,0.879,1.639,1.332c0.506,0.446,0.96,0.891,1.328,1.303
			c0.753,0.803,1.173,1.47,1.173,1.47s-0.752-0.187-1.759-0.664c-0.511-0.229-1.082-0.532-1.675-0.885
			c-0.588-0.357-1.218-0.75-1.787-1.199c-1.137-0.899-2.173-1.927-2.887-2.774c-0.365-0.431-0.631-0.775-0.833-1.098
			c-0.093-0.15-0.133-0.351-0.111-0.426C98.389,191.631,98.401,191.584,98.401,191.584z"/>
	</g>
	<g>
		<path d="M99.319,188.712c0,0,0.033,0.042,0.096,0.12c0.025,0.046,0.079,0.081,0.136,0.102c0.049,0.024,0.105,0.048,0.191,0.073
			c0.299,0.086,0.846,0.172,1.431,0.346c0.601,0.159,1.279,0.375,2.001,0.637c0.721,0.271,1.477,0.599,2.214,0.986
			c0.369,0.188,0.73,0.401,1.077,0.626c0.35,0.22,0.691,0.437,0.999,0.692c0.312,0.246,0.604,0.493,0.878,0.729
			c0.259,0.262,0.49,0.521,0.7,0.761c0.441,0.452,0.694,0.945,0.888,1.258c0.185,0.322,0.273,0.514,0.273,0.514
			s-0.199-0.095-0.521-0.271c-0.327-0.172-0.734-0.461-1.276-0.732c-0.266-0.143-0.547-0.298-0.834-0.471
			c-0.307-0.152-0.625-0.315-0.945-0.494c-0.647-0.348-1.344-0.71-2.049-1.075c-1.395-0.737-2.821-1.539-3.83-2.262
			c-0.506-0.364-0.911-0.652-1.204-0.961c-0.136-0.133-0.231-0.348-0.218-0.423C99.322,188.765,99.319,188.712,99.319,188.712z"/>
	</g>
	<path fill="none" stroke="#000000" stroke-width="1.7346" stroke-miterlimit="10" d="M218.166,150.961
		c1.225,3.031,2.3,6.181,2.436,9.448c0.187,4.467-1.396,8.795-2.949,12.982"/>
	<path fill="none" stroke="#000000" stroke-width="1.7346" stroke-miterlimit="10" d="M270.809,168.262
		c6.76,2.846,10.793,9.723,14.353,16.159c2.075,3.752,4.147,7.505,6.224,11.257"/>
	<g>
		<path d="M213.385,215.531c1.672-1.217,3.389-2.359,5.086-3.535l0.416-0.289l0.146,0.562c0.264,1.015,0.41,2.044,0.719,3.034
			c0.348,0.979,0.582,1.989,1.036,2.922l0.61,1.419c0.209,0.471,0.492,0.904,0.733,1.357c0.259,0.44,0.486,0.913,0.751,1.337
			c0.284,0.446,0.568,0.892,0.86,1.313c0.577,0.857,1.196,1.735,1.769,2.655c0.579,0.913,1.082,1.913,1.508,2.952l0.275,0.805
			l0.068,0.201l0.009,0.025l0.021,0.085l0.01,0.049l0.021,0.097l0.08,0.39c0.089,0.533,0.255,0.995,0.28,1.59
			c0.038,0.566,0.098,1.153,0.104,1.707l-0.027,1.631c-0.109,2.144-0.269,4.23-0.438,6.343c-0.154,2.107-0.339,4.213-0.531,6.317
			l-0.302,3.155c-0.108,1.053-0.202,2.104-0.332,3.155c-0.124,1.048-0.233,2.104-0.388,3.156c-0.143,1.063-0.475,2.111-0.998,3.031
			c0.379-0.996,0.542-2.025,0.583-3.068c0.038-1.052,0.03-2.105,0.039-3.166c-0.002-1.059,0.034-2.114,0.053-3.172l0.081-3.17
			c0.063-2.112,0.137-4.226,0.234-6.335l0.3-6.313l0.008-1.537c-0.01-0.504-0.071-0.968-0.096-1.455
			c0.004-0.467-0.173-1.021-0.25-1.528l-0.076-0.39l-0.019-0.098l-0.011-0.049l-0.002-0.012c0.028,0.116,0.007,0.025,0.011,0.05
			l-0.006-0.022l-0.06-0.174l-0.229-0.696c-0.365-0.918-0.799-1.82-1.343-2.697c-0.517-0.893-1.084-1.763-1.655-2.678
			c-0.293-0.458-0.562-0.913-0.828-1.366c-0.278-0.482-0.5-0.97-0.744-1.457c-0.228-0.493-0.495-0.967-0.688-1.474l-0.559-1.524
			c-0.424-0.997-0.586-2.08-0.862-3.118c-0.235-1.05-0.319-2.131-0.459-3.189l0.563,0.272
			C217.034,213.601,215.232,214.603,213.385,215.531z"/>
	</g>
	<g>
		<path d="M197.417,303.702c0,0-0.05-0.025-0.144-0.073c-0.088-0.061-0.241-0.097-0.391-0.24c-0.166-0.132-0.355-0.309-0.529-0.521
			c-0.182-0.208-0.375-0.457-0.562-0.723c-0.394-0.522-0.804-1.158-1.212-1.887c-0.212-0.355-0.391-0.752-0.566-1.155
			c-0.188-0.398-0.349-0.817-0.474-1.259l-0.188-0.654c-0.031-0.12-0.063-0.192-0.091-0.351l-0.055-0.314
			c-0.08-0.392-0.119-0.898-0.136-1.325c-0.01-0.436,0.013-0.854,0.07-1.25c0.043-0.395,0.148-0.764,0.24-1.095
			c0.115-0.329,0.207-0.628,0.352-0.874c0.129-0.249,0.232-0.464,0.36-0.622c0.239-0.321,0.386-0.486,0.386-0.486
			s-0.017,0.232-0.062,0.606c-0.036,0.183-0.019,0.421-0.044,0.672c-0.027,0.25,0.009,0.546-0.007,0.848
			c0.022,0.309,0.034,0.636,0.079,0.979c0.031,0.344,0.091,0.703,0.154,1.072c0.077,0.372,0.137,0.694,0.25,1.126l0.078,0.31
			l0.084,0.267l0.184,0.579c0.099,0.391,0.24,0.774,0.381,1.158c0.138,0.382,0.253,0.767,0.398,1.134
			c0.256,0.74,0.514,1.453,0.705,2.081c0.09,0.309,0.174,0.591,0.247,0.841c0.079,0.248,0.142,0.451,0.212,0.614
			c0.055,0.175,0.154,0.31,0.197,0.401C197.391,303.654,197.417,303.702,197.417,303.702z"/>
	</g>
	<path fill="none" stroke="#000000" stroke-width="1.7346" stroke-miterlimit="10" d="M167.021,360.316
		c0.256,1.605,0.637,3.186,1.14,4.729"/>
	<g>
		<path d="M164.313,366.886c0,0-1.217-0.104-3.298-0.555c-1.04-0.214-2.301-0.477-3.753-0.659c-1.45-0.176-3.1-0.261-4.843-0.037
			c-0.872,0.106-1.759,0.326-2.634,0.647c-0.446,0.192-0.859,0.319-1.276,0.572c-0.212,0.119-0.423,0.243-0.623,0.372
			c-0.098,0.065-0.195,0.131-0.279,0.195c-0.082,0.055-0.174,0.152-0.142,0.119c0.008-0.012,0.009-0.015,0.019-0.033
			c0.032-0.054,0.054-0.119,0.059-0.184c0.003-0.019-0.016-0.289-0.006-0.157l0.005,0.022l0.01,0.049
			c0.009,0.07,0.03,0.148,0.033,0.073c-0.042-0.108,0.021,0.004,0.085,0.051l0.102,0.087l0.158,0.12l0.319,0.242
			c0.426,0.323,0.857,0.65,1.293,0.982c0.875,0.658,1.747,1.372,2.694,1.945c0.941,0.599,1.857,1.263,2.856,1.832
			c1.009,0.556,2.03,1.117,3.06,1.684c2.122,0.999,4.288,2.005,6.569,2.689c0.565,0.182,1.115,0.42,1.692,0.559l1.729,0.414
			l1.723,0.414c0.573,0.137,1.162,0.167,1.739,0.256c0.58,0.075,1.157,0.15,1.731,0.227l0.858,0.12
			c0.287,0.022,0.574,0.019,0.861,0.029c1.146,0.03,2.277,0.063,3.391,0.092c1.056-0.021,2.08-0.255,2.473-0.788l0.063-0.105
			l0.035-0.052l0.019-0.024c0.026-0.068-0.024,0.08-0.017,0.055l0.008-0.024c0.037-0.125,0.09-0.27,0.113-0.378
			c0-0.08,0.012-0.147,0.022-0.233l0.002-0.344l-0.022-0.375l-0.043-0.364c-0.031-0.263-0.063-0.522-0.096-0.781
			c-0.1-1.051-0.303-2.012-0.477-2.954c-0.17-0.945-0.396-1.875-0.58-2.76c-0.403-1.778-0.725-3.435-0.912-4.915
			c-0.075-0.745-0.159-1.438-0.21-2.081c-0.009-0.646-0.019-1.239-0.024-1.774c-0.029-0.533,0.018-1.011,0.071-1.423
			c0.044-0.412,0.082-0.763,0.112-1.047c0.062-0.564,0.095-0.867,0.095-0.867s0,0.305,0,0.874c0,0.284,0,0.634,0,1.046
			c-0.005,0.41-0.011,0.881,0.06,1.407c0.049,0.524,0.104,1.104,0.163,1.736c0.101,0.627,0.239,1.302,0.37,2.021
			c0.307,1.435,0.751,3.029,1.241,4.779c0.237,0.884,0.514,1.785,0.75,2.759c0.237,0.978,0.479,1.995,0.623,3.02
			c0.042,0.257,0.085,0.517,0.128,0.776l0.066,0.422l0.043,0.423l0.018,0.463c-0.008,0.182-0.031,0.382-0.057,0.57
			c-0.032,0.154-0.07,0.269-0.104,0.405l-0.007,0.024c0.005-0.01-0.057,0.153-0.038,0.101l-0.033,0.063l-0.067,0.126l-0.141,0.25
			c-0.438,0.646-1.113,1.001-1.729,1.192c-0.612,0.196-1.28,0.275-1.854,0.308c-1.16-0.001-2.342-0.003-3.535-0.006
			c-0.3-0.004-0.602,0.008-0.899-0.01l-0.898-0.102c-0.601-0.072-1.203-0.146-1.809-0.219c-0.604-0.089-1.22-0.118-1.817-0.256
			l-1.799-0.414l-1.807-0.418c-0.603-0.141-1.177-0.38-1.766-0.566c-2.368-0.734-4.606-1.794-6.794-2.85
			c-1.053-0.604-2.098-1.201-3.13-1.794c-1.018-0.615-1.965-1.335-2.926-1.981c-0.98-0.641-1.832-1.355-2.674-2.059
			c-0.422-0.349-0.839-0.693-1.251-1.034l-0.309-0.255l-0.153-0.128c-0.093-0.076-0.128-0.116-0.194-0.178
			c-0.12-0.141-0.244-0.22-0.397-0.567c-0.077-0.186-0.073-0.237-0.083-0.298l-0.007-0.048l-0.004-0.023
			c0.005,0.113-0.014-0.172-0.002-0.205c0.014-0.097,0.046-0.193,0.088-0.276c0.027-0.047,0.049-0.075,0.075-0.112
			c0.195-0.236,0.313-0.299,0.44-0.396c0.126-0.087,0.245-0.16,0.365-0.232c0.238-0.14,0.473-0.265,0.708-0.384
			c0.221-0.106,0.496-0.255,0.742-0.329c0.248-0.086,0.493-0.171,0.737-0.255c0.984-0.299,1.962-0.479,2.902-0.541
			c1.884-0.145,3.588,0.091,5.051,0.392c1.466,0.306,2.709,0.671,3.729,0.967c1.021,0.293,1.815,0.545,2.366,0.682
			C164.017,366.816,164.313,366.886,164.313,366.886z"/>
	</g>
	<g>
		<path d="M238.957,300.119c0,0-0.333,0.094-0.958,0.267c-0.31,0.098-0.698,0.188-1.165,0.267c-0.464,0.087-1.001,0.205-1.605,0.256
			c-1.207,0.147-2.684,0.271-4.377,0.289c-1.695,0.046-3.608-0.012-5.688-0.175c-2.081-0.159-4.325-0.429-6.691-0.793
			c-2.363-0.369-4.849-0.853-7.379-1.578c-1.27-0.375-2.535-0.761-3.832-1.344c-1.209-0.562-2.434-1.131-3.666-1.705
			c-1.246-0.529-2.435-1.295-3.656-1.964c-1.209-0.698-2.463-1.357-3.615-2.121c-2.348-1.489-4.676-2.996-6.932-4.512
			c-2.229-1.503-4.522-2.93-6.688-4.338c-2.187-1.394-4.272-2.777-6.259-4.083c-0.992-0.653-1.957-1.288-2.891-1.902
			c-0.956-0.575-1.877-1.132-2.764-1.665c-3.552-2.121-6.46-3.983-8.523-5.246c-2.047-1.295-3.216-2.035-3.216-2.035
			s1.229,0.634,3.381,1.74c2.135,1.143,5.223,2.71,8.867,4.708c0.913,0.498,1.863,1.018,2.847,1.553
			c0.961,0.573,1.951,1.166,2.972,1.776c2.039,1.219,4.192,2.498,6.397,3.86c1.104,0.677,2.229,1.363,3.365,2.061
			c0.568,0.35,1.141,0.698,1.715,1.051c0.569,0.371,1.143,0.745,1.715,1.119c2.272,1.505,4.598,2.981,6.926,4.44
			c1.15,0.771,2.342,1.403,3.512,2.094c1.188,0.661,2.303,1.402,3.563,1.951c1.224,0.593,2.438,1.181,3.639,1.762
			c1.124,0.537,2.375,0.957,3.58,1.34c4.889,1.484,9.647,2.356,13.732,2.863c2.047,0.229,3.928,0.425,5.602,0.5
			c1.674,0.1,3.137,0.081,4.338,0.019c0.604-0.012,1.132-0.086,1.599-0.123c0.468-0.032,0.863-0.088,1.181-0.154
			C238.616,300.181,238.957,300.119,238.957,300.119z"/>
	</g>
	<g>
		<path d="M148.669,269.738c0,0,0.042,1.406,0.114,3.866c0.021,0.614,0.01,1.298,0.06,2.036c0.06,0.736,0.124,1.533,0.193,2.385
			c0.069,0.85,0.143,1.752,0.22,2.704c0.114,0.95,0.235,1.949,0.361,2.991c0.138,1.041,0.234,2.13,0.42,3.246
			c0.189,1.115,0.386,2.269,0.588,3.453c0.183,1.188,0.436,2.396,0.706,3.631c0.258,1.235,0.521,2.497,0.789,3.779
			c0.608,2.554,1.22,5.191,1.943,7.854c0.668,2.673,1.473,5.359,2.235,8.055c1.619,5.379,3.238,10.758,4.756,15.8
			c0.759,2.523,1.499,4.955,2.12,7.298c0.634,2.335,1.233,4.542,1.786,6.579c0.271,1.021,0.556,1.99,0.779,2.927
			c0.199,0.942,0.39,1.837,0.567,2.677c0.356,1.679,0.667,3.142,0.923,4.347c0.489,2.411,0.769,3.789,0.769,3.789
			s-0.399-1.35-1.097-3.711c-0.338-1.182-0.749-2.616-1.22-4.262c-0.234-0.821-0.484-1.696-0.748-2.618
			c-0.29-0.915-0.595-1.877-0.913-2.881c-0.637-2.007-1.327-4.18-2.058-6.479c-0.716-2.301-1.577-4.706-2.37-7.219
			c-0.808-2.509-1.681-5.09-2.48-7.738c-0.817-2.646-1.647-5.334-2.479-8.021c-0.748-2.718-1.537-5.423-2.192-8.123
			c-0.722-2.682-1.244-5.37-1.813-7.953c-0.257-1.299-0.479-2.583-0.69-3.839c-0.221-1.255-0.424-2.483-0.558-3.691
			c-0.153-1.203-0.302-2.374-0.446-3.508c-0.139-1.133-0.19-2.236-0.285-3.291c-0.076-1.057-0.181-2.063-0.223-3.028
			c-0.011-0.967-0.022-1.884-0.032-2.746c-0.01-0.859-0.02-1.663-0.028-2.407c0.001-0.742,0.06-1.421,0.081-2.036
			C148.589,271.143,148.669,269.738,148.669,269.738z"/>
	</g>
	<path fill="none" stroke="#000000" stroke-width="1.7346" stroke-miterlimit="10" d="M169.363,357.835
		c0.078-0.146-0.275-0.115-0.231,0.046c0.042,0.158,0.25,0.19,0.416,0.19c2.133-0.01,4.257-0.344,6.39-0.311
		c2.131,0.034,4.354,0.485,6.002,1.846"/>
	<g>
		<path d="M184.436,357.711c0,0-0.188-1.145-0.479-3.15c-0.271-2.008-0.708-4.871-1.145-8.315c-0.215-1.723-0.449-3.589-0.694-5.563
			c-0.267-1.971-0.343-4.076-0.503-6.244c-0.139-2.171-0.279-4.414-0.424-6.694c-0.129-2.28-0.26-4.599-0.391-6.917
			c-0.005-2.317-0.01-4.638-0.015-6.92c0.011-2.282,0.021-4.528,0.032-6.702c0.033-2.173-0.017-4.273,0.138-6.264
			c0.132-1.988,0.256-3.867,0.37-5.604c0.232-3.47,0.506-6.354,0.658-8.374c0.173-2.02,0.295-3.17,0.295-3.17
			s0.031,1.161,0.043,3.188c-0.006,2.026,0.039,4.922-0.002,8.39c-0.021,1.732-0.045,3.609-0.069,5.596
			c-0.035,0.992-0.013,2.013,0.024,3.055c0.022,1.042,0.047,2.107,0.069,3.19c0.037,2.164,0.076,4.4,0.115,6.675
			c0.024,2.271,0.049,4.581,0.073,6.891c0.109,2.304,0.219,4.607,0.326,6.875c0.094,2.271,0.185,4.504,0.271,6.665
			c0.039,1.082,0.077,2.146,0.115,3.188c0.021,1.042,0.061,2.062,0.152,3.054c0.142,1.982,0.274,3.859,0.397,5.592
			c0.241,3.464,0.368,6.357,0.491,8.38C184.396,356.552,184.436,357.711,184.436,357.711z"/>
	</g>
	<g>
		<path d="M207.262,250.746c0,0,0.074,0.008,0.217,0.021c0.142,0.02,0.351,0.024,0.609,0.084c0.532,0.099,1.271,0.273,2.129,0.562
			c0.865,0.272,1.848,0.658,2.874,1.124c0.505,0.248,1.048,0.469,1.563,0.762c0.521,0.279,1.051,0.567,1.57,0.872
			c0.518,0.309,1.021,0.645,1.518,0.97c0.505,0.314,0.955,0.7,1.414,1.031c0.892,0.709,1.682,1.432,2.289,2.127
			c0.301,0.352,0.584,0.657,0.785,0.983c0.211,0.313,0.4,0.573,0.517,0.821c0.233,0.493,0.344,0.77,0.344,0.77
			s-0.239-0.205-0.614-0.556c-0.181-0.179-0.457-0.351-0.726-0.577c-0.267-0.229-0.625-0.437-0.968-0.697
			c-0.348-0.258-0.771-0.492-1.172-0.781c-0.424-0.267-0.87-0.548-1.332-0.839c-0.942-0.556-1.922-1.187-2.941-1.764
			c-0.99-0.621-2.018-1.191-2.953-1.773c-0.947-0.563-1.828-1.104-2.583-1.572c-0.755-0.471-1.385-0.861-1.825-1.137
			C207.521,250.902,207.262,250.746,207.262,250.746z"/>
	</g>
	<g>
		<path d="M202.707,140.371c0,0,0.918,1.496,2.083,3.826c0.59,1.162,1.244,2.532,1.91,4.015c0.327,0.754,0.679,1.48,1.014,2.313
			c0.308,0.806,0.614,1.582,0.96,2.336c0.329,0.759,0.717,1.461,1.164,2.088c0.232,0.304,0.469,0.598,0.729,0.855l0.096,0.103
			l0.047,0.051l0.012,0.013l0.006,0.006c-0.022-0.018,0.063,0.05-0.051-0.039l0.03,0.024l0.246,0.188l0.485,0.375
			c0.324,0.269,0.609,0.321,0.898,0.518c0.279,0.175,0.646,0.252,0.957,0.383c0.314,0.144,0.661,0.154,0.979,0.244
			c0.317,0.092,0.639,0.116,0.946,0.146c0.617,0.089,1.193,0.055,1.712,0.07c0.52-0.039,0.971-0.073,1.344-0.102
			c0.74-0.121,1.183-0.179,1.183-0.179s-0.388,0.193-1.097,0.513c-0.363,0.125-0.811,0.284-1.338,0.425
			c-0.531,0.099-1.138,0.263-1.821,0.269c-0.679,0.066-1.435,0.017-2.222-0.13c-0.394-0.109-0.797-0.146-1.215-0.329
			c-0.396-0.174-0.895-0.356-1.217-0.585l-0.512-0.34l-0.26-0.172l-0.031-0.021l-0.09-0.073l-0.063-0.06l-0.129-0.118
			c-0.17-0.158-0.351-0.313-0.512-0.482l-0.449-0.541c-0.563-0.746-1.03-1.56-1.408-2.383c-0.356-0.827-0.665-1.67-0.946-2.466
			c-0.297-0.751-0.58-1.575-0.858-2.327c-0.552-1.527-1.034-2.968-1.418-4.214C203.087,142.085,202.707,140.371,202.707,140.371z"/>
	</g>
</g>
</svg>
