<?xml version="1.0" encoding="utf-8"?>
<!-- Generator: Adobe Illustrator 16.0.3, SVG Export Plug-In . SVG Version: 6.00 Build 0)  -->
<!DOCTYPE svg PUBLIC "-//W3C//DTD SVG 1.1//EN" "http://www.w3.org/Graphics/SVG/1.1/DTD/svg11.dtd">
<svg version="1.1" id="Layer_1" xmlns="http://www.w3.org/2000/svg" xmlns:xlink="http://www.w3.org/1999/xlink" x="0px" y="0px"
	 width="268px" height="248px" viewBox="0 0 268 248" enable-background="new 0 0 268 248" xml:space="preserve">
<path opacity="0.7" fill-rule="evenodd" clip-rule="evenodd" fill="#82BA41" enable-background="new    " d="M0,133.489
	c1.03-8.513,2.02-17.029,3.1-25.536c1.612-12.694,2.809-25.465,5.029-38.054c5.104-28.954,22.791-47.368,49.959-57.398
	C85.44,2.404,113.836-1.689,142.755,0.632c46.063,3.697,80.551,26.187,102.83,66.699c14.655,26.651,21.471,55.557,22.331,85.684
	c0.465,16.257-1.124,32.576-1.956,48.858c-0.755,14.767-9.671,24.32-21.26,31.942c-17.583,11.563-37.215,14.714-57.867,14.115
	c-26.699-0.772-51.318-9.173-75.729-19.057c-17.281-6.995-35.215-12.381-52.539-19.279c-17.249-6.869-32.799-16.61-44.448-31.473
	c-8.004-10.211-12.79-21.743-13.152-34.893C0.93,141.977,0.335,140.74,0,139.496C0,137.494,0,135.491,0,133.489z"/>
</svg>
