<svg xmlns="http://www.w3.org/2000/svg" width="518.5" height="501.9"><path opacity=".3" fill="#80B742" d="M34.3 113.9s-50.8 118-20.2 212.9c0 0 36.4 104 233 119.5 0 0 194.4 49.4 271.4 9.8V0H100.6a364.8 364.8 0 00-66.3 113.9z"/><path fill="#CCC" d="M406 472c.4-.2 1 .2 1.4.3.5 0 1-.1 1.6 0h1.6c.4.1.6.3 1 .3.3.1.7 0 1 .2 2 .5 3.2 2 5.2 2.2l1.5.3 1.5.3 1.2.2c.5 0 1 .3 1.5.5l1.4.2c.5 0 .9.1 1.4.3 1 .3 2.3.2 3.4.3l1.4.2 1.8.2.6-.2 1 .2 2-.2h2.8l1.4-.1h5c1-.2 2.2-.7 3.1-1.2 1.2-.5 2.5-.9 3.7-1.6a10 10 0 002.5-2.2l.7-1 .4-1.3c.3-.9.7-1.8.5-2.7a9.7 9.7 0 00-2.3-4.7l-.4-.6-.9-.6c-1.8-1.1-3.4-2.3-5.4-3-.5-.2-.8-.2-1.3-.2-.4 0-.7-.3-1.1-.4-1-.3-2.2-.3-3.2-.3l-3 .1c-.6 0-1.2.3-1.8.4l-2.5.5c-1 .3-2.1.7-3.1.8l-1.7.2c-.7 0-1.2.5-1.9.5l-1.5.1-1.4.3-1.2-.3-1.7-.5-1.2-.3c-.4-.1-.8 0-1.1-.2-1.2-.3-2.2-.8-3.3-1-.6 0-1.1-.2-1.6-.3l-1.8-.3c-1.1 0-2.2.2-3.2.6h-.7l-1.2.5c-.6.2-1 .5-1.4.8-.7.3-1 .3-1.5.9-.4.5-.8.8-1 1.4-.3.5-.3 1.2-.6 1.6l-.7 1.3-.5 1.5c-.2.7 0 1 .3 1.7 0 .2 0 .4.2.7.1.3.4.4.6.6l1.2 1.3c.5.5.5.6.7 1.3.2.6.3 1.1.9 1.4v-.2"/><path fill="none" stroke="#000" stroke-width=".4" stroke-miterlimit="10" d="M406 472c.4-.2 1 .2 1.4.3.5 0 1-.1 1.6 0h1.6c.4.1.6.3 1 .3.3.1.7 0 1 .2 2 .5 3.2 2 5.2 2.2l1.5.3 1.5.3 1.2.2c.5 0 1 .3 1.5.5l1.4.2c.5 0 .9.1 1.4.3 1 .3 2.3.2 3.4.3l1.4.2 1.8.2.6-.2 1 .2 2-.2h2.8l1.4-.1h5c1-.2 2.2-.7 3.1-1.2 1.2-.5 2.5-.9 3.7-1.6a10 10 0 002.5-2.2l.7-1 .4-1.3c.3-.9.7-1.8.5-2.7a9.7 9.7 0 00-2.3-4.7l-.4-.6-.9-.6c-1.8-1.1-3.4-2.3-5.4-3-.5-.2-.8-.2-1.3-.2-.4 0-.7-.3-1.1-.4-1-.3-2.2-.3-3.2-.3l-3 .1c-.6 0-1.2.3-1.8.4l-2.5.5c-1 .3-2.1.7-3.1.8l-1.7.2c-.7 0-1.2.5-1.9.5l-1.5.1-1.4.3-1.2-.3-1.7-.5-1.2-.3c-.4-.1-.8 0-1.1-.2-1.2-.3-2.2-.8-3.3-1-.6 0-1.1-.2-1.6-.3l-1.8-.3c-1.1 0-2.2.2-3.2.6h-.7l-1.2.5c-.6.2-1 .5-1.4.8-.7.3-1 .3-1.5.9-.4.5-.8.8-1 1.4-.3.5-.3 1.2-.6 1.6l-.7 1.3-.5 1.5c-.2.7 0 1 .3 1.7 0 .2 0 .4.2.7.1.3.4.4.6.6l1.2 1.3c.5.5.5.6.7 1.3.2.6.3 1.1.9 1.4v-.2"/><g fill="#202020"><path d="M409.3 464.3v-.1zM409.6 464.4v-.3.2h-.2c0 .2.1 0 .2 0zM412.2 459zM412.2 455.2zM412.2 454.6zM412.2 459zM410 463.6zM412 460.7h.1zM411.8 462h-.2.2zM410.6 463.8zM412.2 459.8zM413.4 464.6zM412.1 465.5l-.1-.1zM412 453.4c.1 0 0 0 0 0zM417 449.8c0-.2.3 0 .2-.2 0 0-.2 0-.1.2zM410 463.6h.1zM417.2 449.6zM411.3 451zM411.6 452.7zM411.4 450zM412 449.3h-.1zM415.4 462h-.1s0 .1 0 0zM410 463.7v-.1zM410.6 449.6l.2-.2-.2.2zM420.4 455.8zM411.1 448.9h.2-.2zM415.3 462z"/><path d="M414.8 463c.1-.1 0-.2 0-.2 0-.2 0 0 .1 0v-.4h.1c0-.1.3-.3.2-.5h-.1l.1-.2c.2 0 0 .1 0 .2l.3-.4c.1 0-.2.2 0 .2h-.1c.2.1-.1.1.2.2.1-.1 0-.2.3-.4l-.2-.1c.2-.4.5 0 .5-.3v-.3l.1.2c.2-.2 0-.3.2-.4 0 0-.1.2 0 .2v-.3h.1l.5-.6.8-.7v-.2c.2 0 0 0 0 0 0-.2.1-.1.1 0 0-.3.3-.7.5-.8.2 0 0-.2.2-.3.3-.2.5-.6.8-.7-.1-.2.3-.3.1-.5.3-.1.3 0 .6-.3v-.5h.1c0-.2.2-.4.3-.4v-.4.2c0-.3.2 0 .1-.3l.1-.5.1-.4v-.6c0 .2-.2.1-.2 0h0c0-.2.1-.1.2 0l-.1-.2h.1v-.3l-.4-.8-.2-.1c0-.2 0-.5-.2-.7h-.2s-.1-.2 0-.2l-.5-.5v.1s-.1-.1 0-.1c-.4-.2-.5-1-.8-1h-.3c-.1-.2 0 0 0-.2-.4 0-.4-.4-.7-.4 0-.4-.7-.5-.9-.8v.1l-.1-.1c-.7-.1-1.2-.6-2-.7-.3 0-.2.3-.5.1v-.1l-.8.2-.4.2-.3.2v-.1l-.2.2-.1-.1c-.1 0-.3.2-.4.1 0 0-.3.1-.1.2-.3 0-.4.3-.6.3 0 .2-.2.3-.1.4-.2-.1-.3.3-.3.4h-.2v.3c-.3.2 0 .5-.3.6 0 .5.2 1 .3 1.3-.2 0-.1-.4-.3-.4.1.4.4.5.4.9h-.1l.4.8h.3c-.2 0 0 .4-.3.3h.2c0 .1 0 .1-.1 0 0 .3.1.2.2.4h-.2c.1 0 .2 0 .2.2 0 .3.3.4.3.7-.2 0 0 .1-.2.2v.1h.1s.2.2.1.3v-.1.2-.1l.3.1v.5h-.2c.2 0 .1.3.2.4-.1.3 0 0 0 .2v.6c-.1 0 0-.2-.1 0 0 .2.1.5 0 .8.3 0 0 .2 0 .3v.7l-.2.4h.2c-.4.4 0 .8-.3 1.2v-.1.3l.2-.1v.2c0-.1-.1 0-.2 0h.1c-.2.2.2.1 0 .3v.2c-.1 0 0 0 0-.1l-.1.3v-.1l-.2.1v.2c.2.2-.1.3 0 .5 0-.2 0 0-.2-.1h-.1c0 .2-.2.2 0 .3-.1 0-.1.1-.2 0 0 .2 0 0 .1.1l-.1.3c-.1.1-.2.1-.2.3v.6c-.2 0-.1-.2-.1-.2-.2 0-.2.1-.3.2l-.1.2v-.2l-.2.3v-.2l-.2.4v-.2h.2c.2.2.2-.1.3-.2v.1-.2c.1 0 .2 0 .2.2l.1-.2h.1s.1 0 0 0c.3 0 .2-.3.3-.3v-.3h.3-.1v-.1c0-.1 0 0 0 0 .1-.2 0-.5.3-.4 0-.1-.1 0-.1 0 .2 0 0-.3.1-.3s0 .1.2 0c-.2-.1 0-.2 0-.3l.1-.4.3-.5-.1-.4.1.2v-.2-.1h.1v-.5h-.3.1v-.1h.1s0-.1 0 0l.2-.2h-.1l.1-.2v-.1-.1-.3c-.2-.3 0-.5 0-.8v-.5h.1v-.4.1c.1-.1.2-.1 0-.3.2 0 .2-.1.2-.2l-.1-.1h.1c.2-.4-.3-.6 0-.9-.1 0 0 .2-.2.2l.2-.4c0-.2-.3-.2-.2-.4h-.3c0-.2.2-.3.2-.2 0 .1 0 .2.1 0v-.2l-.1-.4c-.1-.3-.2 0-.3-.2 0-.2.2 0 .1-.2 0-.2.1 0 .2 0-.2-.2 0-.4 0-.5h-.1l-.2-.1s-.2-.2 0-.3c0 .3 0 0 .2.2v-.2c0-.2-.2 0-.3-.3h-.1l-.1-.3v.1l-.1-.2s0 .1 0 0v-.3-.1c0-.2.1-.3 0-.4h-.2l.1.2h-.1v.1l-.2-.3h.2c0-.3-.2-.4-.1-.7v.1c-.2 0 0-.1-.1-.2h.1v-.3-.5l.1.1.1-.3v-.2l.2-.3c.1-.2.2-.3.3-.2l.4-.3c.2 0 0-.2.2-.2.2.1 0 .1 0 .2.1.2.3-.2.5-.1l.4-.2c0-.2.3-.3.4-.4v.2l.1-.2s.2 0 .2.2h-.1c0 .1.1 0 .2 0 .2 0 .2-.1.4 0v-.1h.3v.2h.5-.5c.1.1.3.1.4 0 0 .1-.1.1-.1 0h.4c-.1.3.4.3.4.6.4 0 .5.3.9.5 0-.3 0 0 .2-.2l.2.3-.1.1v.3c0-.1.2-.1.2 0v-.2c.3 0 0 .3.3.4h-.1c.1 0 .4.3.6.2l-.1.1c.2.2.7.4.7.6l.1.1.2.2h-.1c0 .3.4.3.5.5-.1 0 0 .3 0 .4 0 .3.3.5.4.8v.4l-.1.5.1.1s.1.2 0 .2c-.2 0-.2.1-.3.3h.2c-.3.2-.2.8-.5.9v.2h-.1l-.4.4c-.1 0 .1.3 0 .4h-.1c-.2.1-.5.3-.6.6v-.1s-.4.3-.2.4c-.1-.1-.2.2-.2.4l-.1-.1v.4s-.1 0 0-.1c-.2 0 0 .1-.2.2-.1 0-.1 0 0 .2-.1 0-.3.2-.4.1v.2c-.3.1-.2.3-.4.4 0-.2.2-.3.2-.3l-.2-.1c0 .1 0 .4-.2.5l-.2.1-.2.2c.1 0 0 .1.2 0 0 .1 0 0 0 0l.1-.1V459.9h-.5c0 .3-.3.5-.2.8h-.2v-.1c0 .1-.2.3-.1.4-.2 0 0-.2-.2 0-.5.2-.2.8-.8 1h.1c-.4.4-.6 1-1.1 1.3-.2.1 0 .2-.1.3h-.1v.2c0 .3-.5.1-.5.5 0 0-.1.3-.2.2v.1l-.2.3c-.1.1-.2-.2-.4.1l.1.4s.1-.1.2 0c.1 0 .3.2.5 0 .1 0 0 0 0-.1h.2l-.1-.2s0 .1.2 0l-.2-.1.2-.1v.1c0-.1.2-.2.1-.3.2 0 .2-.2.3-.1v-.3c.2.2.3-.2.4 0l.2-.6h.3c-.2-.2 0-.3-.1-.5.2 0 .1.2.2.3v-.3h.2v-.3H414.8zm2.2-3.2v.1zm.2-.2h-.1.1zm-1 0zM416.2 459.8zM412.1 459.1zM420.3 456.2l-.1-.1.1.1zM411.5 460.8zM411.3 461.5v.1zM411 462h.1zM411 453h-.1zM411.8 455.6zM410.6 449.6zM411.7 455.4v0zM409.7 464zM409.7 464zM409.6 464zM410.3 463.5zM410.4 463.3l-.2.1.2-.1z"/><path d="M411.3 462.8v.1c.3-.1 0 .1 0-.1zM411.6 462.2c0 .1.1 0 .1 0zM412.4 457.7zM411.8 456.8v.1h.1zM412.6 456.3l-.1-.1zM412 449.5l-.2-.1s.1.2.1 0zM414.6 448.5c0 .1.1.2.2.1h-.2zM419.7 455l-.1-.1v.1z"/></g><path fill="none" stroke="#000" stroke-width=".4" stroke-miterlimit="10" d="M413.3 467.6c.7-.3 1.2-.4 1.9-.4s1.4 0 2-.2l1.3-.2h1.2c.4-.2.8-.4 1.2-.4.5-.1.5-.3.9-.6.4-.4.8-.5 1-1l1.1-1.1a7 7 0 001.4-2c.3-.6.6-1.6.7-2.2.2-.9-.3-1.7-1-2.2-.7-.5-1-.5-2-.1-.7.3-1.4.7-1.9 1.4-.8 1.1-1.8 2-2.4 3.3l-.5.9c-.3.3-.5.8-.8 1l-.9.6-1.1 1.1c-.7.7-1.6 1.6-2.6 2-.5 0-1.6.4-2 .1M412.4 469.2h1.1l1 .2 3.1.3 1.5-.1c.6 0 1.2 0 1.8-.2h1.9c.5-.2 1-.3 1.6-.3.6 0 1-.4 1.6-.4l1.7-.1 1.6-.3c.6-.1 1-.5 1.7-.6l3.2-.4c.6 0 1.2 0 1.8.2.5.2 1 0 1.4.3"/><path fill="#FFF" d="M440.3 460c-.5.1-.7.9-.9 1.3l-.5 1-.4 1-.4 2.4-.2 1.6-.2 1.6c0 .8.5 1.6.8 2.3.4.9.6 2.4 1.5 2.9.4.2.5.3.8.7l.8.5c.9.3 1.9 0 2.8-.2l2.4-.4c1 0 1.7-.6 2.5-1.2l1.1-.6.5-.6.6-.4c.7-.4 1.6-1 2-1.8l.7-2c.3-1 .4-2 0-2.8-.8-1.7-1.6-3.5-3.5-4.2-1-.4-2-1-3-1.3l-2.8-.7h-.9l-1-.2h-1.3c-.5 0-1 .5-1.5.6l-1.6.4.3-.2"/><path fill="none" stroke="#000" stroke-width=".4" stroke-miterlimit="10" d="M440.3 460c-.5.1-.7.9-.9 1.3l-.5 1-.4 1-.4 2.4-.2 1.6-.2 1.6c0 .8.5 1.6.8 2.3.4.9.6 2.4 1.5 2.9.4.2.5.3.8.7l.8.5c.9.3 1.9 0 2.8-.2l2.4-.4c1 0 1.7-.6 2.5-1.2l1.1-.6.5-.6.6-.4c.7-.4 1.6-1 2-1.8l.7-2c.3-1 .4-2 0-2.8-.8-1.7-1.6-3.5-3.5-4.2-1-.4-2-1-3-1.3l-2.8-.7h-.9l-1-.2h-1.3c-.5 0-1 .5-1.5.6l-1.6.4.3-.2"/><path fill="none" stroke="#000" stroke-width=".2" stroke-miterlimit="10" d="M430.6 465c-.2.6.8 2.4 1 3 .3 1.2.5 3 1.7 3.9.3 0 .4-.3.4-.6"/><path fill="none" stroke="#000" stroke-width=".2" stroke-miterlimit="10" d="M434.4 465.5c-.4.6-1 .8-1.6 1.2l-1.5 1.6c-1.4 1-2.6 2.3-4 3"/><path fill="none" stroke="#000" stroke-width=".2" stroke-miterlimit="10" d="M425.3 465.4c2.4.8 2.2 4.2 3.4 6h.2"/><path fill="none" stroke="#000" stroke-width=".2" stroke-miterlimit="10" d="M429 466.2v-.3c-1.4.9-2 2-3.2 3l-1.4 1.4c-.7.6-1.8 1-2.2 1.8"/><path fill="none" stroke="#000" stroke-width=".2" stroke-miterlimit="10" d="M419.7 466.6l1.3 3.2c.3.6.5 1.2 1 1.7.3.5.9.6.8 1.3"/><path fill="none" stroke="#000" stroke-width=".2" stroke-miterlimit="10" d="M423.9 465.8a7 7 0 01-2.1 1.7c-.8.4-1 1-1.6 1.6-.7.6-1.5.8-2.2 1.5-.8.9-1.4 1.4-2.4 1.9"/><path fill="#CCC" d="M462.1 434c.3-.5 1-.2 1.6-.4.6-.1 1.1-.5 1.8-.6l1.9-.5h1c.5 0 .9-.2 1.3-.3 2.3-.1 4.3 1.1 6.5.6l1.8-.3 1.8-.3 1.4-.1c.6-.2 1.2 0 1.8 0l1.7-.4 1.6-.2c1.4 0 2.7-.6 4-.9l1.6-.3c.6-.3 1.3-.3 2-.5.3 0 .4-.3.7-.4.3-.1.7 0 1.1-.2l2-1 3.2-1 1.5-.6c.3-.2.7-.1 1-.2l1-.4.7-.4 1.1-.3 1.7-.7c1.1-.5 2.2-1.5 3-2.4 1.2-1 2.5-2 3.5-3.1.8-1 1.5-2.2 2-3.4 0-.5.3-1 .4-1.4v-1.5c0-1.1 0-2.3-.5-3.3a11 11 0 00-4.3-4.3l-.8-.5c-.3-.2-.7-.2-1.1-.3-2.4-.6-4.7-1.3-7.2-1.3l-1.4.2H500c-1.1 0-2.4.6-3.5.9-1.2.3-2.3.7-3.4 1.2l-1.8 1.2-2.6 1.5c-1 .7-2 1.5-3.1 2l-1.8.8c-.7.4-1.2 1-1.9 1.3l-1.6.7-1.5.9h-1.4c-.8 0-1.4 0-2.1.2h-1.4c-.5 0-.9.3-1.4.3-1.3.1-2.6 0-4 .2l-1.9.2-2 .3c-1.3.4-2.4 1-3.4 1.9l-.7.3-1.2 1c-.6.3-.8.9-1.3 1.4-.5.6-1 .6-1.2 1.5-.3.6-.7 1.3-.7 2v2l-.2 1.6v1.9c0 .9.3 1 .9 1.7l.4.7c.3.3.7.3 1 .5l1.8 1c.7.4.8.5 1.3 1.2.4.5.7 1 1.5 1.1v-.2"/><path fill="none" stroke="#000" stroke-width=".6" stroke-miterlimit="10" d="M462.1 434c.3-.5 1-.2 1.6-.4.6-.1 1.1-.5 1.8-.6l1.9-.5h1c.5 0 .9-.2 1.3-.3 2.3-.1 4.3 1.1 6.5.6l1.8-.3 1.8-.3 1.4-.1c.6-.2 1.2 0 1.8 0l1.7-.4 1.6-.2c1.4 0 2.7-.6 4-.9l1.6-.3c.6-.3 1.3-.3 2-.5.3 0 .4-.3.7-.4.3-.1.7 0 1.1-.2l2-1 3.2-1 1.5-.6c.3-.2.7-.1 1-.2l1-.4.7-.4 1.1-.3 1.7-.7c1.1-.5 2.2-1.5 3-2.4 1.2-1 2.5-2 3.5-3.1.8-1 1.5-2.2 2-3.4 0-.5.3-1 .4-1.4v-1.5c0-1.1 0-2.3-.5-3.3a11 11 0 00-4.3-4.3l-.8-.5c-.3-.2-.7-.2-1.1-.3-2.4-.6-4.7-1.3-7.2-1.3l-1.4.2H500c-1.1 0-2.4.6-3.5.9-1.2.3-2.3.7-3.4 1.2l-1.8 1.2-2.6 1.5c-1 .7-2 1.5-3.1 2l-1.8.8c-.7.4-1.2 1-1.9 1.3l-1.6.7-1.5.9h-1.4c-.8 0-1.4 0-2.1.2h-1.4c-.5 0-.9.3-1.4.3-1.3.1-2.6 0-4 .2l-1.9.2-2 .3c-1.3.4-2.4 1-3.4 1.9l-.7.3-1.2 1c-.6.3-.8.9-1.3 1.4-.5.6-1 .6-1.2 1.5-.3.6-.7 1.3-.7 2v2l-.2 1.6v1.9c0 .9.3 1 .9 1.7l.4.7c.3.3.7.3 1 .5l1.8 1c.7.4.8.5 1.3 1.2.4.5.7 1 1.5 1.1v-.2"/><path fill="#F4C392" d="M313.4 184.8c-3.4.4-6 3.2-7.9 6.2-.9 1.5-1.7 3-1.7 4.8 0 2.4 1.5 4.6 3.5 5.9a17 17 0 006.8 2.3 53 53 0 0021.7-1c3.3-.9 7-2.6 7.7-6 .5-2.7-3.6-2.2-5.3-4.4-2-2.5-1.7-8.2-4.7-9.2-1.6-.5-3.3-.5-5-.5-4 0-8 0-11.8.9-3.9.9-7.7 2.7-10.2 5.8"/><path fill="#C6F" d="M338.1 176c7.2 3.6 27.5.4 33.6-5 10-8.6-4.5-16.7 7-23 5.5-3.2 23-1.2 29.7-13.3 5.3-9.6 3-22.6 13-29.9 11.3-8.1-16.4-23.7-30-20.4-3.3.9-6.4 2.3-9.7 2.9-8.1 1.3-13-1.4-20.7-4.2-7.7-2.8-24.2 5.5-25.9 7.2-4.6 4.8-16.4 4.4-22.8 5.9-7.1 1.6-14.2 5-18.4 11.1-5.2 7.7-4.7 18.2-1 26.8a82 82 0 0016 22.3l-3.3-4.2c5.2 9.9 22.7 18.7 32.5 23.7z"/><path fill="#4EA99D" d="M450.9 440.4c3.3 2.5-101.1 69.2-130.8 46.9-15.3-11.5-85.7-96.3-82.1-167.5 0-2.2 3.7 4.9 5.4 3.4 1.3-1.2 3.2-1.8 5-2.3l54-14.7c7.8-2 15.6-4.5 23.7-5.2 26.4-2.2 30.3 100.2 33.1 120.3 3.6 25 39.2-2.5 75.5 0 13.4.9 16.2 19 16.2 19z"/><path fill="#499B8D" d="M298.1 466.2c13.4 19.3 23.9 23 42 21 18.2-1.8 110.9-44 110.9-44s-81.8 41.6-105.1 36.4c-43-9.6-59.2-97.6-69.7-110-10.5-12.5-33-12.1-33-12.1s8.7 42 55 108.7z"/><path opacity=".5" fill="#333" d="M345 315.8c-1.4-3-2.9-5.8-4.4-8.7-1-2-2-4-3.7-5.2a12.8 12.8 0 00-5.4-2c-18.6-3.7-37.5 2.6-55.5 8.8l-27.5 9.5c-7.5 2.6-17.1-4-10.5 8.3 7.6 14.4 104-32.5 107-10.7z"/><path fill="#6DDD3E" d="M348.7 260.5c1.4-2.7 7-17.9 9.6-19.3 7.6-4.1 16.8 1.6 22.5 8 1.3 1.5 3 3.2 4.9 2.5.7-.3 1.2-1 1.7-1.6a99 99 0 0010.4-16.9c1.8-3.7 3.4-7.7 3.4-11.8-.2-9.4-8.5-16.5-16.8-20.9a88.7 88.7 0 00-43.3-10.2c.1 4.8-6 7-10.7 7.6-4.7.5-9.4.8-14 1-3 0-6.4 0-9-1.5-3-1.9-2.4-4.2-3.8-6.9-2.2-4.4-8.3-2.6-12.6-2.8-6.4-.3-12.7-1.3-19-2.6a304.1 304.1 0 01-36.5-11c-8-2.7-12.3-2.1-20-6.9-1.7-1-6.4-6-7.6-7.6-2.5-3.3-34-22.1-38.2-22-11.2.2-2.9 15.3-2.9 21-2-2.4 6 7.4 2.9 6.7 5.5 6.6 3.4 5.1 8.9 11.7 7.8 9.5 15.7 19 25.1 26.8a67 67 0 0032.8 15.8c9 1.3 19.9 1 24.7 8.7-16 24.1-27.6 51-34.3 79.1-.7 3.2-1.4 6.5-.2 9.5.8 2.2 2.6 4 4.6 5.2 8 5.2 18.5 3.2 27.7 1 16.4-4 32.8-8.4 48.4-14.7 7-2.9 14.1-6.1 21.6-5.5 5.6.5 11 3.2 14.5 7.5 1.4 1.6.5 6.6 2.4 7.5 1.8 1 2.7 3.3 4.7 2.9 23.9-4.8-11.4-41.2-1.9-60.3z"/><path fill="#FFF" d="M418 176.6c18.4-5 37.4-7.5 56.4-7.7 1.7 0 3.4 0 4.8.8 3.1 1.6 3.5 6 3.6 9.5.4 11.4 1.9 22.7 4.6 33.8.4 1.6.8 3.2.8 4.8l-.2 4.2c0 3 .6 6 1.2 8.8l3.5 15.5a49.4 49.4 0 011.7 18.6c-5.8 5.8-14.7 6.6-22.8 8-12.6 2.3-24.7 7.1-37.4 9.3-4.1.7-8.6 1-12.2-1.2-4.3-2.6-5.7-8.1-6.6-13.1-1.6-9.2-2.3-18.6-5.2-27.5-1.4-4.4-3.3-8.6-4.2-13-.6-3.3-.8-6.6-.7-10 0-9 1-18.3-.7-27.3-.6-3-3.6-7.9-.6-10.2 2.9-2.1 10.4-2.4 14-3.3z"/><path fill="#B7B7B7" d="M424.9 152.1l7.3-1 9.3-1.5c2.6-.4 5.1-1 7.7-1.3 4.2-.6 8.4-.7 12.6-.9l11-.4c2 0 4.1 0 5.6 1.2a7 7 0 011.6 2.5 67.6 67.6 0 014.3 18.4l-.6.6c-4.5 3-10.1 3-15.4 3.2-13.4.6-26.5 3.1-39.8 4.7-8.7 1-17.5 1.7-26.3 2.3-.4 0-.8 0-1.1-.2-.3-.2-.4-.6-.4-.9L399 170c-.3-1.3-.5-2.6-.5-4 .1-13.4 17.2-12.6 26.3-13.9z"/><path fill="#C00" d="M405.5 197.8l78.3-9.5 8.6 49.7-81.1 13.4z"/><path fill="#F4C392" d="M401.8 206.5c1.9-1 4.2-1 6.3-.3 4.2 1.4 7.3 5.4 8.7 9.6a37 37 0 011.2 13.4c-.2 3.8-.5 7.6-1.8 11.2-1 2.6-2.6 5.1-3.1 8-.5 2.6-.1 5.2.3 7.8 1.9 11 4.2 22 7 32.8 22.4-.4 44.4-6 66-11.5 3-.8 6.2-1.6 8.4-3.9 2-2.2 2.5-6.4 0-8.2-.8-.6-1.8-.8-2.7-1.3-4-2.1-4.4-8.7-.7-11.3.7-.6 1.6-1 2.1-1.7.6-.7.6-2-.2-2.4-2 1.1-4.6-.4-5.4-2.6-.8-2-.3-4.5.3-6.7.4-1.2.9-2.5 2-3 .6-.2 1.2-.2 1.5-.6.3-.4.3-.9.2-1.4l-.7-7.7c-3 .2-6-2.2-6.4-5.2s1.8-6.1 4.7-6.8c-2-3-2.6-6-3.3-9.7-.7-3.6-1.2-6.6 2-8.6a39 39 0 017.2-3.6c3.2-1.2 9-3.1 11.8-1.2 2 1.4.8 4.4 0 6.7-1.9 5.7-14.5 10-14.3 12.4 3.2 1 12.4-1.3 15.5-.1 3 1.1 4.6 4.6 4.6 7.8s-1.3 6.3-2.6 9.2c2.6.3 5 1.6 6.7 3.7 1.2 1.5 1.9 3.6 1 5.2-.4.8-1 1.4-1.8 2-5.4 4.3-11.2 8.2-17.3 11.4 5 1 12.8-.7 15 3.9 2 4.5-2.5 13-5.1 17.2-4.7 7.4-6.7 14.2-13.1 20.1-3.4 3.1-20 40.2-68.8 24a59.5 59.5 0 01-30-26.8l-7.7-13.8a50 50 0 01-8-21.7c0-1.3.1-2.7.7-4 .7-1.3 1.9-2.2 3-3.2 4.3-3.7 5.5-9.9 9.3-14.2a49.5 49.5 0 006-15c.8-3.2-1.8-8.1 1.5-10z"/><path fill="#D8A475" d="M431 296.4a126 126 0 0049.3-5.2 54 54 0 0014.8-7.4 8.9 8.9 0 003.3-3c.7-1.4.5-3.3-.7-4.2-.7-.4-1.5-.4-2.2-.4-21-.2-42 2-62.4 6.6-3.3.7-10.6 1.7-11.6 6-1.4 5.6 5.9 7.3 9.5 7.6z"/><path fill="#F4C392" d="M358.7 128.2c1 5.4-2.8 11.1-2 13.5 3 10.3 2.8 12.2 0 16.5a101 101 0 01-20.7 19.6l-1.6 11-23.9-1 2.9-14.4s-7.3-11-9.4-18.3c-1.5-5.4-1-11.4-1-11.4s-11.3.6-13.8-4c-4.3-7.6 9.2-6.8 15.9-4.2 4 1.5 12-16 17.8-20.4 22-16.3 33.9 2.7 35.8 13.1z"/><path d="M304.1 136.4h-1.4l-.8-.1-.6-.2-1.4-.4-1.5-.3-1.4-.3-.7-.1-.7-.1H293l-.3.3h-.2l-.6.2.2-.1-.5.4v.1h-.1l-.4.2-.9.7-.1.2-.1.3-.2.3v2.9c0 .4.1.8.4 1v.2l.1.1.3.2.4.4 1.3.5 1.2.5.6.1h1l.4.1.6.2h4l1.4-.2h1.3l.7-.2.5-.4-.5.5-.7.2-1.3.2-1.3.3h-1.4l-1.4.1H295.2c0-.1-.2-.2-.3-.1h-1l-.7-.1-1.3-.5-1.3-.6-.7-.4-.2-.3h-.1v-.1l-.2-.2a3 3 0 01-.5-1.4V139 138v-.4l.1-.4.2-.3.1-.3.3-.4c.3-.4.7-.7 1.1-.9l.4-.2-.1.1.5-.5h.2l.6-.1h-.2l.5-.3.9-.2h.7l1.5.2h.8l.7.3 1.4.3 1.4.4 1.4.5.7.3.6.2 1.4.1z"/><path d="M300 138.4l-.3.1h-.8l-1.1-.3-.6-.1h-.6c-.5 0-.8 0-1 .2l-.3.4-.2.4v.3c0 .2 0 .2.2.2h.3l-.3.2-.4-.2-.2-.3v-.3-.6l.4-.6.7-.5a3.7 3.7 0 011.5 0c.2 0 .5 0 .7.2l1 .5.8.3.3.1zM302.1 138.8H302.7c.2 0 .5 0 .6.3l.3.3.1.4v.8l-.5.6h-.6l-.1-.1h.1l.3-.3v-.4-.2-.3c0-.3-.2-.5-.4-.7l-.3-.3h-.1z"/><path fill="#BC9471" d="M337.6 143.1l.2-.1.2-.2h.5l1 .1 1.4.3 1.5.5.4.2.5.2.3.2.5.4.2.2h.1v.1l.2.1.3.4.2.2.2.4.2.7.1.6v1.5l-.2.5a4 4 0 01-1.9 1.8 7 7 0 01-2 .6 9 9 0 01-3.6-.1c-1-.2-1.9-.7-2.3-1.3a1 1 0 01-.2-.7l.1-.2s0 .4.5.6c.4.3 1.1.3 2 .3 1 0 2-.2 3-.5a7 7 0 001.5-.6l.8-.8v-1.2-.2-.1-.2l-.3-.4s0 .1 0 0l-.2-.2-.2-.2-.3-.3-.2-.1h-.1v-.1c-.1 0 0 0 0 0l-.4-.3-1.3-.8-1-.7-1-.5a1 1 0 00-.5-.1h-.2z"/><path fill="#BC9471" d="M336.6 134.4v.4l.3.6.2.7.3 1 .4.7.7 2.1.4 1 .3.8.4 1 .2.4.2.3c0 .3.2.5.3.8l.2.5.2.5-.5-.2c-.4-.1-.8-.4-1.3-.8l-.3-.3-.4-.3a9.4 9.4 0 01-1.4-2l-.5-1a20.5 20.5 0 01-.6-3.4l.1-1 .2-.8.2-.6.3-.4h.1z"/><path d="M317.5 126.4v-.6l.3-.6.1-.5.4-.4a4.3 4.3 0 011-.6l1.1-.5 1.2-.3 1.3-.3h1.4c.4 0 .8 0 1.1.2l1.2.2 1 .3.8.4.6.5.3.4h-2.8c-.4.1-.7.2-1.1.1h-1.6c-.2 0 0 0 0 0l-.6.2H322l-1.2.3h-1l-.5.1a1 1 0 01-.3 0l-.4.2-.3.2-.5.4-.4.3zM347.3 126.9v-.2h.1c.3-.1.4-.3.8-.3.2 0 .4-.2.8-.1h.4l.4.1.7.2.7.1.7.3.8.3.3.2.3.2 1.1.8.1.1.1.1h.1l.3.3.3.2.3.3.5.7.4.7.3.7.1.8-.6-.4-.6-.4-.6-.4-.6-.2-.2-.2-.3-.1-.4-.2c-.1 0 0 0 0 0l-.2-.1-1.3-.8-.3-.2-.3-.1-.5-.3-.6-.4-.6-.4c-.2 0-.4-.2-.6-.4l-.3-.2-.2-.1c-.1-.2-.4-.3-.6-.4-.1-.1-.5 0-.7-.3zM320.2 317.1l-.3-.2v1c0 .4.2.8.4 1.1.3.7.5 1.4.6 2.2.2.7.4 1.4.8 2l1.4 1.6 1.4 1.7c.4.6 1 1.1 1.5 1.6l3.1 3.2.4.4.4.3 1 .5 1 .6.9.6.9.6.5.2.5.2c.7.2 1.4.6 2 .7l2.2.6 1 .2 1.1.1h2.3l2.2.1-2.2.2h-3.4l-1.1-.1-2.2-.5c-.8-.1-1.5-.4-2.2-.7-.1 0-.3 0-.5-.2l-.5-.2-1-.6-1-.6-.9-.5-1-.6-.4-.4c-.3-.1-.3-.2-.5-.4l-3-3.2c-.6-.5-1.2-1-1.6-1.6a71 71 0 01-1.4-1.8l-1.3-1.8c-.5-.7-.6-1.4-.7-2.2l-.5-2.1-.4-1.1.1-1.1.4.2zM322.8 318l-.3-.3-.2-.1.2-.1.6-.2.6-.2h1.3a8.8 8.8 0 012.3.4c-.8.3-1.6.3-2.4.3h-1.1l-1.2-.1v-.2l.2.4zM328.5 316.4h.2l.5.2 1.7.1.5.1h.4l.8.2c.5 0 .8.2.8.2l-.8.2-.8.1h-1l-1.7-.5-.5-.4-.1-.2zM335 316.8l.5-.2a5.2 5.2 0 013.2.2l-.6.2a5.3 5.3 0 01-3.2-.2zM254.6 358.8v-.3-.7c.2-.3.6-.5 1-.4.5 0 1 .3 1.5.5l.7.3.8.2c.6 0 1.2.1 1.9.4l1.8.8 1.9.7c2.7.5 5.4 1 7.4 1.6.5 0 1 .2 1.4.3l1 .2 1 .2h-1l-1-.1-1.5-.2-1.6-.3-1.9-.3-4-.7a11 11 0 01-2-.7l-1.8-.9-1.7-.5-1-.2-.7-.4-1.2-.6c-.3-.1-.7 0-.9.2l-.1.6v.3zM234.1 325.2h-.5c-.3.2-.6.5-.8 1.1-.4 1.2-.5 3-.4 5.2l1 8 1.8 10.5.4 3 .5 3c.2 2 .9 4.1 1.4 6.3l1.8 6.6 1.8 6.9 1.1 3.4 1.4 3.5 1.6 3.4 1.5 3.4c.6 1.2 1 2.4 1.7 3.5l1.9 3.3 3.6 6.8 7.3 13.6a7306.8 7306.8 0 017.4 13c2.5 4.2 4.4 8.4 6.8 12.2l.8 1.4 1 1.4 1.7 2.6 3.4 5 3.1 4.6 2.9 4.1 1.3 1.9c.4.6 1 1 1.3 1.6 1 1 1.6 2.1 2.3 3l2 2.3 1 2c.4.4.8.8 1.1.7.2 0 .3-.2.3-.2v-.1l-.3.3c-.3 0-.7-.3-1-.8-.4-.4-.8-1.1-1.2-1.9l-1.9-2.3c-.7-.9-1.4-2-2.3-3l-1.3-1.6-1.3-1.9-3-4-3-4.7-3.5-5-1.8-2.6-.9-1.3-.8-1.4c-2.4-3.8-4.4-8-6.9-12.2l-3.7-6.4-3.7-6.6-7.3-13.5-3.6-6.9-1.9-3.3-1.6-3.5-1.6-3.4-1.6-3.4c-.4-1.2-1-2.3-1.3-3.5l-1.1-3.5-1.8-6.9-1.8-6.6c-.5-2.1-1.1-4.2-1.4-6.3l-.5-3-.4-3-1.6-10.4-1.1-8c-.1-2.3 0-4.1.4-5.3.2-.5.6-1 .9-1l.4-.1zM335.7 185.3l.5.1 1.4.5c.6.4 1 1.2 1.1 2.2l.1.7v.5l-.2.5-.9 1.3v.2h-.1l-.2.2-.3.3-.4.4-.4.2-.7.6-.8.5-1.8.9-.4.2h-.2l-.1.1-.3.1-1 .3-1.9.6-.5.2-.5.1-1 .3c-.8 0-1.5.2-2.2.4l-1.1.2H322.6c-.3.1-.6 0-1 .2h-4.5l-1-.1h-.7v-.1h-.1l-.3-.1-.4-.1H314.3l-.3-.1h-.5l-.2-.1h-.1l-.3-.1-1-.2-.9-.3-.9-.2a9.3 9.3 0 01-3.2-2c-.5-.4-1-1.1-.8-1.8v-1.4-.4l.2-.3.2-.6.8-.8c.5-.5 1-.6 1.3-.9l.2-.4-.1.5-1 1c-.5.6-.8 1-.7 1.9l.1 1.4c0 .3.3.5.6.8.8.6 1.8 1 2.8 1.3l1 .2.9.2 1 .1H313.7l.6.1H314.6s.1 0 0 0h.1l.6.2h.3c.1 0 0 0 0 0h.6l1 .1H321.4c.3-.2.8-.2 1.1-.2h.6c.1 0-.1 0 0 0h.4l1-.2 2.1-.4 1-.2h.6v-.1h.4l2-.6 1-.3h.2s-.1 0 0 0h.2l.4-.3 1.7-.6.8-.4.7-.4.4-.2.3-.2.3-.2.1-.2h.1c0-.2 0 0 0 0 .3-.5.6-.9 1-1.2l.2-1c0-.8-.2-1.5-.6-2l-1.2-.7-.4-.2z"/><path d="M309.8 187.7s.1-.4-.4-.5c-.5-.2-1.2 0-2.1 0h-.6l-.7.5-.7.5-.1.2-.2.1-.3.4c-.8.8-1.2 2.2-1.4 3.7V194.3s.1.5.2.4c0 0 .3.4.7.6l1.1.8.5.2h.2l.3.2h.4l.3.2.7.2 1.4.2.3.1H309.7l.2.1.3.1h.1v.1h.1c-.2 0 0 0 0 0h.8l.7.2h1.5l.7.1h.9l1.5.2h8.5l.8-.2.5-.1h.2l.1-.1h.7l.9-.3h.4l.4-.1 1.5-.2 1.6-.3 1.5-.2.7-.1.7-.2c2-.4 3.7-1 5-2 .6-.4 1-1.1 1.3-1.9l.6-1.1V190.9s0 .2 0 0l.1-.2.2-.6c.1-.6.2-1.4 0-2v-.5l-.1-.5a3 3 0 00-.4-.8l-.5-.6-.7-.5-.3-.1-.4-.1-.7-.2-1.2-.1c-.4 0-.7-.2-1-.3l-.5-.2h-.2.2l.6.1c.2 0 .5.2.9 0h1.2l.8.1h.4l.5.2a4.4 4.4 0 011.6 1.2c.3.3.5.6.6 1l.2.5.1.6c.2.7.3 1.6.2 2.5l-.2.6v.3l-.2.4-.4 1.2c-.3.8-.7 1.8-1.6 2.6a12.9 12.9 0 01-5.5 2.6l-.8.2h-.1v.1H334.3l-.4.1a34.3 34.3 0 00-3 .6l-1.7.2-.3.1H328.7l-.7.3h-1.2s.2 0 0 0v.1h-.2l-.3.1-.8.2-1 .1h-8l-1.7-.2h-.7l-.8-.2h-1.1l-.5-.1-.9-.2H310l-.1-.1h-.3l-.3-.2h-.2v-.1s.1 0 0 0h-.5l-1.4-.4-.7-.3-.4-.1h-.1l-.2-.1a5.6 5.6 0 01-.8-.3c-.5-.2-.4-.3-.7-.5l-1.1-.8c-.4-.3-.8-.6-1.1-1.3l-.2-.5V194.5v-.8l.1-1.3.3-1.2.2-.6.3-.5c.1-.4.4-.7.6-1l.7-.9.4-.3.1-.1.3-.2a6.8 6.8 0 011.5-.8h.9c.9 0 1.7 0 2.2.3.2 0 .3.3.3.4v.2z"/><path fill="#D98677" d="M390.5 242v-.2c0-.2 0-.4.3-.7.4-.6.7-1.5 1.2-2.6.3-.6.8-1.1 1.1-1.8l.9-2.2.5-1.2.1-.7.3-.7.6-1.4.5-1.4.2-.8.2-.8.3-.8.3-.8 1-3.3c.2-.3.2-.6.3-1l.2-.8.4-1.9.4-1.8v-.3-.1-.6-.3l.2-.3.2-.5v-.3l.1-.5v-1l-.3-2-.1-1v-.2l-.1-.2-.2-.5-.2-1-.1-.6v-.5-.1-.4l.3-.4.5-.4.5-.3.2-.2.2-.1a4 4 0 011.2-.5l1.1-.1c1.5 0 3 .3 4.4 1l1 .6.8.7 1.7 1.2.9.7.8.6.9.6.5.4v.2h.1v.2h.1v.3l.1.4s0 .1 0 0l.2.5.2.4.2.6 1 1.8.2 1v.3l.2.2.2.4.2.5.2.5.2 1c.3 1.4.3 2.7.5 4v1l-.1 1v.7l-.1.2v1l.3 3.4c0 1.1-.1 2.4-.4 3.4l-1.1 2.9-.2.6-.2.7c0 .3 0 .5-.2.7l-.3.5v.7l-.2.3-.2.3-.5 1-.4 1-.3.8v.5l-.2.4-.1.7-.2.7-.1.2V245.8l-.1-.3v-.3c.1-.2.3-.3.3-.6v-.7l.2-.4v-.5c0-.3.1-.7.3-1 .2-.2.2-.6.3-1 0-.3.3-.7.5-1l.2-.2v-.3-.7c0-.2.3-.4.4-.6l.2-.6v-.7l.3-.7.5-1.4.5-1.4.1-.8.1-.4v-.4-1.7c0-1-.3-2.2-.4-3.5v-1.4l.1-.5a9 9 0 000-1.8l-.4-3.8-.3-1-.1-.4-.2-.5-.3-.4v-.2l-.1-.3-.3-1-1-1.8c0-.4-.2-.5-.4-1l-.2-.5v-.6c0-.3-.7-.6-1.3-1l-.3-.2-.2-.2-.5-.3-.8-.6-1.7-1.3-.8-.6-.9-.5a7 7 0 00-4.7-.8h-.4l-.2.1-.3.2h-.2l-.2.2-.4.3a1 1 0 00-.3.2V207.2c-.1 0 0 .3 0 .4v.5l.2 1 .2.4v.6a417.5 417.5 0 00.3 3c.2.4.2.7.2 1.1v.6a2.1 2.1 0 01-.4 1l-.1.2v.2c0-.1 0 0 0 0v1.1l-.1.1v.3l-.2.4-.2 1-.4 1.8-.3 1-.3.8-1.1 3.4-.3.9-.4.7-.1.8-.3.8-.6 1.4-.6 1.4-.3.6-.2.7-.5 1.3-1 2.2-1.2 1.7c-.5 1-1 2-1.4 2.5l-.3.7v.3zM496.1 233l-.4.2-.5.4c-.1.2-.4.3-.6.4l-.8.5-1 .6c-.7.4-1.5.7-2 1.4-.7.7-1.3 1.6-1.8 2.6a4 4 0 00-.3 1.5l.2 1.7v.3l.3.5.1.4.2.5.3.8.3 1 .2.8.2.4.3.2.6.3h1l.9.2h.9l.9-.2h.4l.4-.2c.8-.3 1.5-.2 2-.3h.4l.4-.3h.2l.1-.1h.7l.4-.1.5-.1c.3 0 .6 0 .8-.2l1.6-.5a50.7 50.7 0 017.6-2.3l1.7-.5-1.6.7-4.4 1.7-3 1.1-1.6.7c-.3.2-.6.2-1 .2l-.4.1h-.4l-.5.2h-.2c.1 0 0 0 0 0h-.1l-.4.3h-.6l-1.8.4-.5.2h-.5c-.4.2-.7.2-1 .2H491.5l-.3-.1-1.1-.5a2 2 0 01-.5-.5l-.2-.5-.3-1-.3-1-.3-.8-.2-.5v-.4l-.3-.5v-.5l-.1-1v-.4l-.1-.5c0-.6.3-1.3.5-1.8.5-1 1.3-2 2-2.6.7-.8 1.6-1.1 2.4-1.4l1-.5.8-.4.7-.3c.2-.1.3-.3.5-.3.2-.2.4-.1.4-.1zM498.2 210.2h.4l-2.5.8-2.5 1-2.4 1-2.1 1.5-1 .9-1.2.8a4 4 0 00-1.6 1.6l-.1.3v.2l-.2.4v.2c0 .4 0 .8.2 1.2 0 .2 0 0 0 0v.2l.2.3c0 .2.2.3.3.4l.9.8 2 1.8c.6.5 1.3 1 2.1 1.2l.6.3.6.2h2.5l1.3-.1h2.7l2.6-.3c.5 0 .8-.2 1.3-.3l1.3-.4c.4 0 .8-.2 1.2-.4.5 0 .8-.4 1.3-.4-.4 0-.8.4-1.2.6l-1.2.5-1.3.5-1.3.4-2.6.4-1.4.1-1.3.1-1.4.2h-1.9l-.4.1h-.4l-.7-.2-.7-.3c-.9-.3-1.7-.8-2.4-1.4l-2-1.7-1-1c-.2-.2-.5-.5-.5-.7l-.2-.3V220.4l-.1-.1c-.1-.5-.2-1-.1-1.5V217.9l.1-.1v-.1l.2-.4a5 5 0 012-2l2.2-1.5c.7-.6 1.6-1 2.4-1.4.8-.4 1.6-.8 2.5-1l2.5-.7a13 13 0 012.7-.6l-.4.1z"/><path fill="#FFF" d="M434.8 209.7c0-.2 0-.5.2-.6.1 2.2.5 4.3.8 6.5l1 7.8.1 1.7c.1.5 0 1 0 1.6 0 .9.3 1.9.4 2.8l.3 2.5c0 .8 0 1.9.3 2.7.5 0 1.4-1 1.8-1.3a6 6 0 011.6-.9c.6-.2 1-.6 1.7-.8.6-.3 1.2-.5 1.8-1 .6-.3 1.1-.9 1.7-1.4.3-.3.7-.3 1-.5l.8-.6c1.2-.7 2.2-1.7 3.5-2.4.6-.4 1.2-.8 2-1 .4-.2.5-.5.8-.8l.9-.5c.7-.4 1.3-1 2-1.3l1.7-1c.5-.1.9-.5 1.3-.7l1-.4c.4-.3.7-.7 1.3-1l1.2-.6 1-.5.6-.6c.3-.2.7-.3.7-.7-.2-.4-1.5-.4-2-.4l-.8-.1h-1.2l-1.8-.6c-.9-.3-1.9-.3-2.8-.5l-1.9-.5c-.4 0-.7-.3-1.1-.5h-1.1c-1.5-.2-3.1-.6-4.5-1.1l-3.9-1.2-1.8-.8-1-.7-.9-.3c-1-.5-2.2-.9-3.3-1l-2-.2-.8.2c-.3 0-.6-.3-.9-.1"/><path fill="none" stroke="#000" stroke-width=".9" stroke-miterlimit="10" d="M449 159.6l-1.2.3-.8.7c-1 .9-1.8 1.8-1.7 3.1.1.4 0 1.2.3 1.5.4.5 1.4.3 1.8.2 1.4-.2 2.5-.3 3.4-1.3.4-.4.9-1 1-1.7.1-.4 0-1.3-.2-1.8-.3-1.5-1.9-1.5-3.1-1.3a5 5 0 00-3.2 2c-.6.8-.5 1.3-.4 2.2v.6c.1.2.3.2.4.5h.2M416.9 165c-.5 0-.7.6-.8 1l-.1.6c0 .3-.3.6-.1.9.2.5 1.3.5 1.7.4.8 0 1.5-.2 2.2-.4.6-.2 1.4-.2 2-.3.7 0 1.1-.3 1.7-.4l.9-.1 1-.4 2-.5c.3 0 .6 0 .8-.3.3-.3.2-.4.2-.9l.1-.9s.2-.7.1-.8c-.3-.5-1.6-.4-2-.4-.6 0-1.5.1-2 .3-.6.2-1.2.5-1.9.6l-1 .1-1 .4c-.6.2-1.4 0-2 .3-.6.2-1.2.5-1.9.6"/><path opacity=".3" fill="#80B742" d="M89.3 130.5s-.7 26.8 10.2 52.6 18.5 38.1 18.5 38.1 18.6 1.7 45.2-6.5c29-5.8 32.7-14.4 32.7-14.4s-22.1-19.1-25.8-38.3c-3.6-19.1-6.9-34.4-6.9-34.4s-40-5.8-73.9 2.9z"/><path fill="#FFF" d="M90.3 128.5s-.7 26.8 10.2 52.6 22 34.4 22 34.4 12.6 2.9 41.7-2.8c29-5.8 32.7-14.4 32.7-14.4s-22.1-19.1-25.8-38.3c-3.6-19.1-6.9-34.4-6.9-34.4s-40-5.8-73.9 2.9z"/><g fill="#202020"><path d="M493.7 251h.2-.2zM494.3 251h-.7.4c.2 0 .3 0 0 0h.3zM494.7 250.9zM494.9 250.8zM495.2 250.8zM494.7 250.9zM493.6 251zM495 250.9zM495 250.9a59.4 59.4 0 00-.2 0h.2zM494.6 251zM495 250.9zM493.2 250.4zM494.3 249.9h.1zM495.5 250.8zM495.3 250.4zM493.6 251zM494.8 250.4zM495.3 250.7zM495 250.8zM495 250.7zM495 250.6zM493.3 250.4h.2-.2zM493.7 251zM493.1 250.5zM493.3 250.4zM493.1 250.5h.2-.2zM493.5 250.3z"/><path d="M493 250.5l.4-.2-.3.1H493.3l.3-.1.3-.1s.2 0 0 0h-.1l-.2.1s.3-.1.2 0h-.3l-.4.1s.2 0 0 0h.5c.3-.2-.7.1-.4 0 .2 0 .6-.1.4 0h-.3s.4-.1.2 0h.1-.3-.2.3c-.1 0 .5-.1.2 0h-.3.4-.5.3-.2.3-.4H493.4h-.2c.3 0-.3.1 0 0h.2H493h.5-.3-.2c.2 0-.3.1 0 0H493.8h-.4H493.2h.2-.3.2c.2.1-.2.1-.3.1h.4-.3H493.2h0c-.2 0 .2 0 0 0h.1s.1 0 0 0h.3-.5.3c-.4 0 .4.1-.2 0l.4.1h-.4H493.5s-.1 0 0 0l.7.1h-.8.3-.3.5-.5H493.7s.2 0 0 0h.4-.4H493.9c-.1 0 .1 0 0 0h-.3l.3.1c.5 0-.2 0 0 0h-.2.3-.2.2c-.7 0 .4 0-.2.1h-.1.4a7.6 7.6 0 00-.2 0h.1.2-.1.2-.3.2-.5.6-.5-.2c.2 0-.2.1 0 .1h-.1.2c.3 0-.3 0 0 0h.7-.4-.2.2-.3.4c.5 0-.1 0 0 0h.3-.3H494.7c.2 0-.3 0 0 0h-.6.7-.3.1-.2.3-.3.4c-.4 0 .1 0 0 0h-.2.3-.3.4l-.2-.1h.1-.8.4s-.1 0 0 0h.5-.3c-.3 0 0 0 0 0h-.2.3s-.2 0 0 0c.1 0 .1 0 0 0 .1 0 .3 0 0 0h.3-.2.3c.3 0-.6 0 0 0h-.4H495l-.4-.1h.8-.2c.1 0 0 0 0 0h-.1-.3.6.2-.2.2-.6.2H494.8h.1c-.3 0 .3 0 0 0h.4c-.1 0 .3 0 0 0h-.3.2-.3s.1 0 0 0h-.2c.3 0-.2 0 0 0h.4-.2.2l-.4-.1h.4s-.3 0 0 0h-.3-.2.4l-.4-.1H494.5h.5c.3 0 0 0 0 0h-.4.4-.4.3s.1 0 0 0a4 4 0 01-.3 0h.7c-.3-.1 0-.1 0-.1h-.5H495.7 495.4h.2l-.4-.1h.1s-.1 0 0 0h-.3l.5-.1h-.4l.4-.1h-.3s-.3 0 0 0h.3-.4.3-.2l.2-.1H495h.4s.3-.1 0 0h.1s.2-.2-.2 0c.3-.1 0 0-.2 0h.3-.5.1c.2 0-.2 0 0 0h-.2.3-.2.1c.2-.1-.2 0 0 0h.1l.5-.2c-.1 0-.5.1-.4 0h.2l-.3.1c-.1 0-.2 0 0 0l-.5.1c.4 0 .5-.1.7-.2l-.5.1H495h-.3.2c.6-.2-.7.1 0 0h-.2c.3-.1-.3 0 .2-.1h-.3.3-.3c-.2.1.6-.2.2 0h-.2.1s-.2 0 0 0h-.2l.5-.2a18.7 18.7 0 01-.6.3l-1 .4.1-.1h-.1c-.2.1 0 0 0 0l-.2.1.4-.1-.4.1.5-.1h-.4.2l-.3.1h.3-.4H493.2l.5-.1-.6.2.4-.2-.3.1h.3-.5zm.7-.2zm0 0zm1.6-.4h-.1zM495 250h-.1zM494.7 250.9zM493.2 250.4h.1-.1zM493.8 250.9zM493.8 251h-.1zM493.7 251zM493.4 250.6zM494 250.7h-.2.1zM493.1 250.5zM493.8 250.7zM493.6 251zM493.6 251zM493.7 251zM493.7 251h-.1zM493.6 251s-.1 0 0 0c-.1 0 .2 0 0 0z"/><path d="M494.7 251h.2c.3-.1-.2 0-.2 0z"/><path d="M494.9 251l.1-.1h-.1zM494.9 250.8h0zM493.7 250.8h-.1.2zM495.3 250.8h-.1zM495.2 250.7h-.3.3zM495 250.5s.2 0 0 0zM495.4 250.1h.1-.1z"/></g><path fill="#D98677" d="M490.4 226l.5 1.5.3 1.5.3.8.4.8.3 1 .1.9a7 7 0 010 1.6l-.1.7a4 4 0 01-.3.5l-.4.3.2-.4v-.5-.6l-.4-1.5-.2-.8-.2-.8-.4-.9-.2-.4v-.5c-.1-.6-.1-1.2 0-1.6V226z"/><g fill="#202020"><path d="M493.6 250.2h.2-.2zM494.2 250.2h-.7.4c.2 0 .3 0 0 0h.3zM494.6 250zM494.7 249.9zM495 249.8zM494.6 250zM493.5 250.2zM494.8 250h.1zM494.9 250h-.4.4zM494.4 250zM494.9 250zM493 249.5zM494.2 249.3h.1zM495.3 249.8zM495.1 249.6h-.5.5zM493.5 250.2zM494.6 249.6v.1zM495.2 249.7h-.1zM494.9 249.8zM494.8 249.8s.1 0 0 0zM494.8 249.7zM493.1 249.5h.2-.2zM493.6 250.2zM493 250zM493.2 249.7zM493 250h.1-.1zM493.3 249.5zM492.8 249.5H493.7s.2 0 0 0H493.4h.2-.7s.2 0 0 0h.5c.3 0-.7.1-.4 0h.4-.3.2-.1c-.3.1.2 0 .2 0h-.3 0l-.2.1H493.3h.1-.2.3l-.5.1h.4-.3.3-.3H493h.2a5 5 0 01-.2 0c.3 0-.3 0 0 0h.2H492.9h.5-.2H493h-.2c.2 0-.2.1 0 0 0 .1 0 0 0 0h.5-.3.4l-.4.1h.1l-.3.1h.1c.2 0 0 0 0 0H492.7h.4-.3H493.1h-.1c-.1 0 .2 0 0 0 0 0 0 .1.2 0-.1 0 0 0 0 0 .2 0-.2.1.2 0a3 3 0 00-.2 0c-.4.1.4 0-.2.1h.5-.5 1-.8 0a29.4 29.4 0 01.2 0h.3l-.4.1h.4-.2.5-.5H493.8c-.1 0 .1 0 0 0h-.4.3c.5 0-.1 0 0 0h.1-.2.3-.2-.1H494.3h-.5a4.3 4.3 0 01.4 0h-.1.1-.3.2-.4.5-.4l-.3.1h.2-.2.2c.3 0-.3 0 0 0h.6-.3-.2.2-.3.3-.4.2.2c.5 0 0 0 0 0h.4-.3.3c.2 0-.1 0 0 0h.1l.1-.1c.2 0-.2 0 0 0h-.5.6-.2.1-.3.3-.3.5c-.4 0 0 0 0 0h-.2.2l.1-.1h-.3H494.7h-.7.4s-.1 0 0 0h.5-.3.3-.2.2-.3c-.3 0 0 0 0 0h-.2.3c-.1 0-.2 0 0 0 .1 0 .2 0 0 0h.2-.1l.3-.1c.3 0-.6 0 0 0h-.4H494.8h-.5.7-.1-.1-.2H495.2c-.2 0 .1 0 .1-.1h.1-.2.1-.5H494.9c.1 0 0 0 0 0H494.5h.1.5c-.2 0 .2 0 0 0h-.3.1-.3.1-.3c.4 0-.1 0 0 0H495h-.2.4-.3-.2-.2H494.7c.5-.1-.1 0 .2 0 .2-.1-.2 0-.1 0h-.4H494.3l.5-.1c.3 0 0 0 0 0H494.5 494.4h.4-.4.7c-.3 0 0-.1 0-.1h-.5H495.5 495.2h.2-.4.1s-.1 0 0 0h-.3l.5-.1h-.4H495s-.3 0 0 0h.3-.4.3-.2.2c0-.1.1-.1 0-.1H494.7h.4s.3 0 0 0h-.1-.1.2-.5 0 .2a27.4 27.4 0 010 0h-.1a1.9 1.9 0 01.1 0l.6-.1h-.4.2-.8.7-.6H494.7h-.3c-.2 0 .7-.1.2 0h-.1s-.1 0 0 0c0 0-.1 0 0 0h.1-.2l.6-.1h-.5H494.2l-1 .2h.2-.2c-.2 0 0 0 0 0h-.2.4-.4.5-.4.3-.4.4-.5.7-.7.5-.4.3-.3l-.2.1zm.7 0zm0 0zm1.6-.2zM494.8 249.4zM494.5 250zM493 249.7h.1zM493.7 250.1zM493.7 250.1h-.1zM493.6 250.2zM493.3 250c-.1 0 0 0 0 0zM493.8 250c-.1 0-.1 0 0 0zM493 250zM493.7 250zM493.5 250.2zM493.5 250.2zM493.6 250.2zM493.6 250.2h-.1zM493.5 250.2s-.1 0 0 0c-.1 0 .2 0 0 0zM494.6 250h0zM494.7 250h0zM494.7 250h0zM493.6 250.1h-.1.2zM495.1 249.9h.1-.1zM495 249.7h-.2.3zM494.8 249.7c.1 0 .2 0 0 0zM495.2 249.4h.1-.1z"/></g><path fill="#D98677" d="M494.8 232.6l-.1-.2-.2-.5v-.2-.1-.1l.5-.3 1-.5 1-.6 1.3-.4.7-.3.7-.2 1.4-.5 1.5-.4 1.5-.3 1.3-.3 1.2-.2 1.8-.1h.7l-.6.2-1.7.6a38.7 38.7 0 01-2.5.8l-1.4.4c-.5 0-1 .2-1.4.4-.5 0-1 .2-1.5.4l-.6.2-.8.2-1.3.4-1.1.2-1 .3-.4.2V232.7z"/><g fill="#DE9588"><path d="M505.4 256.7zM505.6 256.6h-.3H505.5c.1 0 .1 0 0 0h.1zM505.8 256.2zM505.9 255.9zM506 255.8zM505.8 256.2zM505.3 256.6zM506 256.3zM506 256.3h-.2.2zM505.8 256.5zM506 256.2zM504.4 254.6zM504.6 254v-.1zM506.2 255.7zM506 255h-.4.3zM505.3 256.6zM505.6 255zM506 255.5zM506 255.7zM505.9 255.5zM505.9 255.4h-.1.1zM504.5 254.6zM505.3 256.6zM504.8 255.7zM504.7 254.9zM504.8 255.7h.1zM504.6 254.5zM504.4 254.8l.1-.2-.1.1.1-.1h.1l.1-.2s.1-.1 0 0l-.1.1s.1-.1.1 0h-.1l-.2.2s.1 0 0 0l.2-.2c.1 0-.3.3-.1.2l.2-.2-.2.2.1-.1c-.1.1 0 0 0 0v.1s.2 0 0 0c0 .1.3 0 .2 0l-.1.1h.1l-.2.1h.2-.1.1-.1c.1 0 0 0 0 0s-.2.1 0 0v.1c-.1 0 0 0 0 0h.2-.1-.1s-.2.1 0 0h.2l-.1.1h.2-.2.1c.2 0-.3.2 0 .1h-.1 0c.2 0 0 0 0 0-.3.2.1 0 0 .2.2 0 0 0-.1.1 0 0 .4-.1.2 0h-.1.1c-.2.1 0 0 0 0v.1c-.1 0 0 0 0 0s-.1 0 0 0h.2-.1l-.2.1h.2-.1.2c-.2.1 0 0-.2 0 0 .1.3 0 .2.1h-.1.4l-.4.1H505.3h-.2.1s.1 0 0 0v.1H505.3h.1s.2 0 0 0c0 0 .1 0 0 .1h-.1.1c.3 0 0 0 0 0l.1.1h-.1.1c-.3.1.2 0 0 .1h-.1.1.2-.1s.2 0 0 0l-.2.1h.3-.3-.1c.1 0 0 0 0 0v.1h.1c.2 0-.2 0 0 0h.4-.2-.1s.1 0 0 0l-.1.1h.2-.2.1c-.1 0 0 0 0 0h.1c.3 0 0 0 0 0h.2-.2H505.8c.1-.1-.1 0 0-.1h-.3.4-.2.1-.2H506c-.2 0 0-.1 0-.1h-.2.2-.2l.2-.1s-.1 0 0 0h-.4.2c.1 0 0 0 0 0H506h-.2.2s0-.1-.2 0l.1-.1h-.1c-.2 0 0 0 0 0h-.1l.1-.1c.1 0 .2 0 0 0h.2-.1l.1-.1c.2 0-.3 0 0 0h-.2.2c.1-.1-.2 0-.1 0h-.3a1.5 1.5 0 01.3-.1h-.2.2l.2-.1c-.1 0 0 0 0 0h.1-.1-.3H506.1c.2-.1-.1 0-.1 0l.1-.1h-.4.1c-.1 0 .2 0 0 0h.3c-.2 0 0-.1 0-.1H505.8h-.1c.2 0-.1 0 0 0h.3c.1 0-.2 0 0 0h-.2-.1.2c0-.1 0-.1 0 0 0-.1-.2 0 0-.1h-.2-.1.2v-.1h-.2.2c.2-.1 0 0 0 0v-.1h-.2-.1.3c.1 0 0 0 0 0h-.2c-.2 0 .1 0 0 0l.2-.1h-.3.3-.3l.4-.2c-.2 0 0 0 0 0h-.3.2l.3-.2h-.1l-.2.1h.2s0-.1-.2 0h.1c0-.1-.3 0-.1-.1.1-.1-.2 0-.2 0l.3-.2h-.3l.2-.1h-.2s-.1 0 0 0c.2 0 .1 0 .1-.1l-.2.1c.3-.2-.1 0 .1-.2h.1l-.3.1.1-.1s.1-.2 0 0v-.1s.1-.1 0 0h-.2.2-.3s.1 0 0 0c.1 0 0 .1 0 0 0 .1 0 0 0 0 .1 0-.1 0 0 0l.3-.3-.2.2v-.1c.1 0 0 0 0 0h-.1v.1l-.2.1.3-.3-.3.2h.1v-.1l-.1.1s0-.1 0 0l.1-.1c.1-.3-.3.3-.1 0 0-.1-.2 0-.1-.2l-.1.2v-.2.2c-.1 0 0-.4 0-.2l-.1.1v-.3l-.1.3v.1l-.3.6v-.1c0 .2 0 0 0 0v.1l.1-.1V254.4 254.5l-.1.3.1-.2v.1l.1-.3-.2.4c0-.2 0-.2.2-.3l-.2.2.2-.1c-.1 0-.2.1-.1 0v.2zm.3-.2zm0 0h.1zm.7-.7zM505.3 254l-.1.1.1-.1zM505.8 256.2zM504.6 254.9h.1zM505.4 256.3zM505.3 256.4zM505.3 256.4zM505 255.9zM505.4 256zM504.8 255.7zM505.3 256zM505.2 256.6zM505.3 256.6zM505.3 256.6zM505.3 256.6zM505.3 256.6s-.1 0 0 0c-.1 0 0 0 0 0zM505.9 256.4c.2 0 0 0 0 0zM506 256.4zM505.9 256h0zM505.3 256.1h-.1.1zM506.1 255.9zM506 255.4h-.2.2zM505.8 255.2s.1 0 0 0zM505.7 254.4h.1-.1z"/></g><path fill="#D98677" d="M395.3 234.9l-.1-.3 1-.5h1.8l.4.2h.2l.2.1.8.4.8.5.2.2.1.1.3.4.5.7-.9-.3-.3-.2h-.2l-.1-.1-.8-.3-.8-.3-.3-.1-.4-.2a12.4 12.4 0 00-1.5-.4h-.9l.1-.2-.1.3zM395.3 237.4l.3-.2.3-.3.5-.3h1.4l.8.5.2.1.1.1.3.3.3.3.3.4.2.4.2.4.1.8h.2l-.2.1h-.1l-.3-.3-.2-.3-.3-.3-.3-.2-.3-.2-.2-.3-.3-.2-.2-.1-.1-.1-.6-.3-.3-.2h-.3l-.3-.1h-1.2z"/><path fill="none" stroke="#D98677" stroke-width=".9" stroke-miterlimit="10" d="M498 210.7l-1.2-.2-.9.1"/><path fill="#D98677" d="M489.8 253.9h-.1l-.2.3v1.3l.3 1.8.2 1.1c0 .3.2.7.4 1l.4.9.6.8.3.4.4.4.6.5.6.5.5.4.4.4-.5-.2a8 8 0 00-.6-.2l-.8-.3-.8-.5-.4-.3-.4-.4a8 8 0 01-.7-1c-.3-.2-.5-.7-.7-1l-.3-1.2-.2-1v-2.1c0-.6.3-1.1.5-1.4l.4-.2z"/><path fill="none" stroke="#D98677" stroke-width=".9" stroke-miterlimit="10" d="M509.4 232h-.5c0 .4.4.5.6.8 0 .4.2.7.4 1l.7 1.1c.3.9.3 2 .4 2.9"/><path d="M234.8 330.9v-.3s0-.2.2-.3h.3l.4.1.1.3-.2.2-.3.1h-.1l-.1-.1h-.2zM238.1 330.6l.7-.3.7-.1h.7l.3.2.4.2v.3l-.2-.2h.1c-.3.2-.5.2-.7.2a3 3 0 01-.6 0c-.5 0-1 0-1.4-.3zM243.1 331.2l.4-.3h.4l.3-.1s.1 0 0 0H244.8c.1-.1.3-.1.4 0h.4v.1l-.3.2-.3.3-.5.1H244.2h-.2a2 2 0 01-.9-.3zM244.7 334.7l-.3.1-.2.2-.1.3-.9 1.7v.2h-.1l-.2.3-.3.4-.4.3a13.2 13.2 0 01-.8.7h-.3.2l.3-.6.2-.4.3-.4.2-.4.2-.3v-.2c.4-.6.8-1.2 1.3-1.6l.3-.2.3-.1h.3zM239.4 341l-.2.3-.6.8-1 1-1.1 1.1-1.3.9-.6.4a76.4 76.4 0 00-1.4.8h-.3l.3-.1c.2 0 .4-.3.6-.6l.5-.5.5-.5 1.2-1 1.3-1 1-.8 1-.8z"/><path fill="#3A7021" d="M368.3 201.5l-.4.2v-.1a4 4 0 01-.3 1.7l-.8 1.6-.8 1.4-.8 1.6-.6 1.4-.5 1.6-.5 1.5-.1.4v.2l-.1.1-.2.9-.4 1.6-.3 1.7-.2 1.6c0 .5-.3 1-.3 1.6v1.6l-.2 1.7v3.4c-.5-1-.8-2.2-1.1-3.3l-.2-1.7-.2-1.8v-1.7l.1-1.8c0-.6.2-1.2.3-1.7l.3-1.7.2-.8V212.4l.1-.2.2-.4.6-1.7.7-1.6.9-1.6 1-1.4 1.1-1.3c.8-.8 1.6-1.6 2-2.6v-.1h.5z"/><path d="M275.8 362.2v.9c0 .2 0 .6.2.9l1 .9.8 1.4.2 1 .1 1a28.8 28.8 0 002.2 9.9l2.2 5.8 2.5 6.1 2.5 6.4.6 1.6.3.8.4.7 1.5 3 1.5 3.1 1.2 3 2 6 1.8 5.2.9 2.3.9 2c.5 1.3 1.1 2.3 1.6 3.2l1.6 2.7-1.7-2.6-1.8-3.2-1-2-1-2.3a124 124 0 01-1.9-5.2l-2-5.8-1.3-3-1.4-3-1.6-3-.4-.8-.3-.8-.6-1.6-2.5-6.4-2.4-6.2a117.5 117.5 0 01-3.6-11.2c-.3-1.7-.5-3.3-.5-4.7v-1l-.2-.9-.7-1.4-1-1c-.2-.3-.2-.7-.2-1l.1-.8zM359.3 429.6h-.3l-.5.2-.4.3-1 1-.5.7-.4.7-1.6 2.7-.6 1-.3.2.1-.4.4-1c.3-.8.7-1.8 1.4-2.9l1-1.4c.4-.4.8-.8 1.3-1l.6-.1h.8zM360.8 433l-.1.1-.3.3a4.2 4.2 0 00-.5.7l-.1.4-.3.4-.3.4-.6.7-.6.9-.8.8-1.5 1.5-.8.6-.6.7-.6.5-.4.3-.4.4s0-.2.3-.5l.3-.4.5-.6.5-.7.7-.8 1.5-1.5.7-.8.7-.8.7-.7.4-.3.2-.3c0-.1 0-.3.2-.4l.3-.3.4-.3.5-.2zM364.5 433.2l-.3.7v.2l-.1.1-.2.4-.2.4-.3.3-.5.7-.6.5-.4.4h-.2v-.1l.3-.5c.1-.4.5-.9.8-1.4l.2-.3.3-.4.3-.3h.1l.1-.2.7-.5z"/><path fill="#3A7021" d="M231.4 307.3l.2.3c0 .1.3.3.7.4.7.3 1.9.3 3.3.2.8 0 1.6 0 2.4-.2.9 0 1.7-.3 2.7-.6 1-.3 2-.7 3.2-.9l3.5-.7 3.8-1c.7 0 1.3-.2 2-.4l2-.6 4.2-1.3 1-.4 1.1-.4 1-.4.6-.3H263.4l.3-.2.6-.1h.2l.2-.1s-.1 0 0 0l.5-.3.7-.3h.2l.1-.1h.3l.7-.2 1.2-.1 1-.3 1.1-.4 2.4-.9 2.4-.7h.1l.1-.1s.1 0 0 0h.3l.6-.3.5-.2.3-.2h.2l.2-.1.6-.2.7-.1.5-.2h.2l.2-.1 2.3-1 .6-.3.6-.2 1.2-.5 2.4-.8 2.4-.7 2.3-.8h.1l.3-.1.2-.1.7-.2.7-.1.6-.1 1-.2 1.2-.4 4.6-1.4c.8-.2 1.6-.5 2.3-.5l.6-.1.5-.2h.5l.5-.3.6-.2h.3v-.1H307.8l2.2-.4c1.5-.3 2.7-.4 4-.8l1-.1.6-.1h.5c.6-.2 1.3-.2 2-.2l.8-.1 1-.2h4.9l1.5-.2h2.7l1.2.2 1.9.4 1.4.5a5.6 5.6 0 001.1.4h-.3l-.9-.3-1.4-.3-1.9-.2h-3.7c-.5 0-.9.2-1.4.3a5 5 0 01-.8.2h-2.5l-.9.1-.8.1-.9.2-1 .2-1.8.2h-.5l-.4.2-1 .2-4 1c-.8 0-1.5.2-2.3.4H306.8c.1 0 0 0 0 0v.1l-.3.1-.4.2-.6.2-.6.2-.6.2h-.6l-2.2.7-4.5 1.4-1.1.4-1.3.3-1.1.2-1 .3-2.5.9-2.4.7-2.3.8-1.1.5-.6.2-.5.2-2.3 1h-.2l-.2.2-.4.1-.7.2h-.5l-.6.2-.5.3-.6.2-.6.2-.3.1-.4.1-2.3.8-2.3.7-1.1.4-1.4.3-1.2.2-1 .2-1 .4-.1.1h-.2l-.4.1-.5.2h-.4c.1 0 0 0 0 0l-.1.1-.6.2-1 .4-1.2.4-1 .3a199 199 0 01-8.5 2.2l-3.9.7-3.5.5c-1.1.1-2.2.4-3.2.6l-2.8.5h-2.5c-1.4 0-2.6-.2-3.3-.5l-.8-.6v-.3zM237 285.9l.1.3.4.7 1 .8c.1.2.4.3.6.4l1 .3 1 .2h2.3l1.3-.1 3-.3 1.4-.4a21 21 0 002.4-.9h.2l.2-.1.4-.2 1.6-.8 3.6-1.3 1.7-.9 1.9-1 2-.7 1-.4.8-.5c1.2-.7 2.8-1.3 4-1.8l4.2-1.7 8.6-3.3c2.9-1 5.9-1.7 8.7-2.7l4.2-1.3 2.1-.8 2.2-.6 2.2-.4 2-.4 1.9-.5 2-.4 1.9-.3c.7 0 1.3-.2 2-.3h4.4l.7-.2 1.7-.3h3l1.4.1 1.2.2 2.2.4 1.8.5 1.3.2.8.2.2.2-.3-.1-.7-.2h-1.4l-1.8-.3c-.6-.2-1.3-.2-2.1-.3H319.3l-1.5.2-1.5.3a6 6 0 01-.8.3h-1c-1.1.2-2.3.2-3.4.3l-1.8.4-2 .4-1.9.4-2 .6-1 .2-1 .3-2 .4c-2.6.7-5.4 2.1-8.3 3-3 .9-6 1.6-8.7 2.7-2.9 1-5.7 2-8.5 3.2l-4.2 1.5c-1.5.5-2.6 1-4 1.7l-1 .5-1 .4-1 .3-1 .4-1.8.8-1.8.8-.5.2h-.2l-.2.2c-.4 0-.7.2-1 .3l-1.8.5-1.7.7-.4.2h-.2l-.2.1-.8.3-1.7.5-1.7.3h-5.6l-1.2-.2-1-.3-1-.4c-.2 0-.4-.3-.6-.5l-1-1-.2-.7v-.3zM381.7 209.3l-.2 1-.1 1-.2 1.5-.2 1.7c0 .7-.2 1.3-.3 2l-.3 2-.3 2-.3 2.1-.1 1.9-.1 2-.2 1.7-.1.7-.1.3v1.4l.3 1-.6-.8a4 4 0 01-.7-1.4v-.4l-.1-.8-.2-1.8-.2-1.9v-2.2a33 33 0 01.6-4.3V217.4l.2-.5.3-1 .6-1.8a23 23 0 011.7-4l.6-.8zM288.8 207l.8.5.9.5 1.3.6 1.5.7 2 .6 2.2.5 2.5.7c.9.3 1.7.4 2.7.5l3 .4.8.1h2.2c1.2 0 2.3.2 3.4.4 2.1 0 4.5-.2 6.9 0 2.4 0 4.7 0 7-.3l7-1.1 3.5-.6 1.7-.2 1.7-.3 3.1-.7 1.5-.4.7-.3.8-.3 2.7-1.2 1.4-.5 1.2-.5 2.1-1.4.6-.4.5-.2 1.1-.4 1-.3.8-.5 1.4-1 1.9-1.5.7-.6-.6.7-1.7 1.7-1.3 1.2-.9.6-1 .5c-1.4.5-2.4 1.6-4 2.7l-1.3.7-1.3.6c-.8.5-1.7 1-2.7 1.4l-.7.3-.8.3-1.5.6-3.3.8-1.7.4-1.8.3-3.4.6-7 1.3c-2.6.3-5.1.2-7.5 0h-7l-3.2-.5-1.7-.1H306.3l-.1-.1-.8-.1c-2-.5-4-.7-5.8-1.4l-2.4-.9-2.2-.7-2-.8-1.5-1-2-1.3-.7-.6zM274.5 223l.2-.1h.7l1 .5 1.4.3c1.1.2 2.4.6 4 .8l5 1 3 .2 3 .3c1.1 0 2.2 0 3.4.2l3.5.3 1.8.2 1.8.2 3.6-.1H324.4c-.2 0 0 0 0 0h.2l.9-.2 1-.1.5-.1h2.7c.1 0 0 .1 0 .1h.3l.9-.1 1.7-.2h3.3l6-1 5.2-.6 4-.5h2.5l-2.5.5c-1 .1-2.4.5-3.9.8l-5 1.2-6 1.2c-.6.1-1.2 0-1.8.2H333h-.4l-1.6.3-1 .1H327l-.4.2-.8.1-1 .2h-.2s.1 0 0 0H323.8l-2 .1H303l-1.8-.3-1.8-.2-3.4-.5-3.3-.4c-2.2-.2-4.3-.6-6.2-.9l-5-1.3-3.8-1.2c-.5-.2-1-.3-1.4-.6l-1-.5-.6-.2h-.2zM264.3 240.3l.2.2.6.3c.6.2 1.5.2 2.7.3 1.2 0 2.6.3 4.2.5l5.4.2 1.5.1h1.7c1 .1 2.1.3 3.3.3l7.2-.2c2.4 0 5-.3 7.7-.4h4.8s.2 0 0 0l1-.2 2.1-.3h4l1-.1 1-.2h5.7l2-.4.9-.1h1l2-.2H326.6l.1.1h1l1.7-.3 3.4-.2 3-.3c1 0 2-.2 2.9-.3l1.3-.1 1.2-.3.6-.1H342.2l.3-.1h1.1c.7 0 1.4-.2 2-.3 1-.2 2-.4 2.5-.7l.6-.4.2-.2-.2.2-.6.5c-.5.3-1.3.8-2.5 1l-2 .5-1 .1h-.3v.1h-.2l-.6.2-1.2.4-1.4.3-2.8.5c-2 .4-4.1.6-6.5.9l-1.7.3-.8.1h-2.8l-1.8.2-.9.1-1 .2-1.8.3-2.1.2h-3.9l-1 .2a9 9 0 01-1 0l-4 .1c-.7 0-1.2.2-2 .3l-.9.1h-5.1l-3.9.2-3.9.1-7.2-.1c-1.1 0-2.3-.3-3.4-.4l-1.5-.2-1.6-.1c-2-.3-3.8-.4-5.4-.8l-4.2-.9a12 12 0 01-2.6-.6l-.7-.4-.1-.2zM256.4 260.4h1l2.6.2h2l2.3-.2 5.4-.6 3.1-.4 1.6-.2c.6 0 1.2-.2 1.7-.3 1.2-.1 2.3-.4 3.4-.6l3.6-1c1.2-.2 2.5-.5 3.7-.9l1.9-.6h.5l.6-.2h1c.7 0 1.1-.2 1.9-.3l2-.4 2-.3 1.9-.5 3.9-.9 4-.7 1.8-.3 1-.2 1-.2 1.9-.4 1.9-.2 3.7-.6 3.5-.5a45 45 0 0112-.5 1259.6 1259.6 0 008 .5l-1 .1-2.7.1c-2.3.1-5.7.2-9.7.6l-3 .3-3.3.6-3.5.7-3.7.6-1.8.3-1.9.5-1 .2-.9.2-2 .4-3.9.7-3.9.9-2 .4-2 .4-2 .3c-.5.2-1.4.3-2 .3-1.2 0-2.4.4-3.7.7l-3.7.9-3.7.8-3.6.5c-.5 0-1.1 0-1.7.2H273l-3.1.3H262l-2-.1-2.7-.5-1-.1z"/><path d="M339.3 302.9l-.2.3c-.2 0-.4 0-.5-.2l1-.3c.5.3.6.7.6 1 0 .3-.2.5-.3.7l-.8.5-.9-.5a1 1 0 01-.3-.5c0-.4.1-.7.6-1.1l1-.4-.2.1v.4z"/><path fill="none" stroke="#000" stroke-width="2.3" stroke-miterlimit="10" d="M324.3 133.2c-.3 0-.4 0-.5.2l-.1.2-.3.5-.3.9-.2 1v.5l.1.4c.1.3.4.5.6.6.2.2.5.2.7.3h.8l.2-.4.3-.6.1-.8c.1-.3.2-.6.1-.9l-.1-.8-.5-.7a2 2 0 00-.6-.6c-.4-.3-1-.2-1.3.1M348 135.1c-.2 0-.4.3-.4.4l-.4.6c-.2.5-.3 1.1-.3 1.7 0 .3.3.6.6.8.2.2.4.2.6.2.3 0 .5 0 .7-.2l.6-.6c.2-.2.4-.5.4-.8.1-.3.3-.6.2-1l-.3-.6-.4-.4-.2-.3c-.3-.4-.9-.6-1.3-.4-.2 0-.4.2-.5.4-.2.2-.2.5-.3.7"/><path fill="#BC9471" d="M331.6 148.9l-.1.1h-.3l.1-.4.3-.6c.1-.1.4-.3.7-.3.3 0 .7.1 1 .3l.1.1.2.2a1.7 1.7 0 01.4 1.6l-.2.4-.3.2c-.2-.2-.4-.2-.6-.2l-.4-.1-.5-.3-.1-.2.2-.1-.1-.3-.5-.2.1-.4h-.1v.2z"/><path fill="#3A7021" d="M254 184.8l-1.3 1.1-1.5 1.3-1.9 1.6-1 1-1 1.1-2.3 2.5-2.3 2.6-2.5 2.7-5 5-2.1 2.6-.6.6-.2.3-.3.3-.6.5-.3.2-.2.2-.8 1-.7 1-1.2 1.5-.6 1v.4l-.1-.4.3-1.2.9-1.9.6-1 .6-1.2.1-.1v-.1l.2-.1.2-.3.5-.5.2-.3.2-.3.4-.6 2-2.8 2.3-2.7 2.6-2.7a970 970 0 015-5.2c1-.7 1.8-1.5 2.5-2.2l1.2-1 1.2-.9a60.7 60.7 0 014-2.3l1.5-.7zM236 178l-1 .9-1.2 1-1.4 1.6-1.7 1.8-1.8 2-1.9 2.3-1.8 2.5-1.9 2.4-1.8 2.3-1.8 2.1-1.7 1.9-1.5 1.5-1 1.2-.7.8-.4.2s.2 0 .3-.2l.3-1 .8-1.5 1.1-1.8 3-4.4a469.7 469.7 0 003.5-4.9l2-2.4a14.4 14.4 0 012.1-2.3l2-1.9 2-1.5 1.7-1.3 1.5-.8 1-.3.4-.2zM220 171.8l-.8 1.5-.7 1.6-.9 1.5-.8 1.5-1 1.4-1 1.4-1.2 1.4-1.2 1.2-2.5 2.3-2.5 2.3-1.2 1.1-1.4 1-1.4 1-.8.5a1 1 0 01-.5.1h-.4v-.1.1c.5-.3.9-.5 1.2-1l1-1.3 2.2-2.6 2.3-2.6 2.4-2.5 1.2-1.1 1.2-1.2 1-1.2 1.1-1.2 1.1-1.3 1.1-1.3 1.2-1.3c.3-.5.8-.8 1.2-1.2z"/><path fill="none" d="M218.5 171.5v-1c-1.2 1.3-2 2.8-3.1 4-.8 1-1.4 2-2.2 2.8-1.1 1.2-2 2.5-3.2 3.7l-3.1 2.8c-1 1-2 1.7-3.1 2.4l-3.1 2.2c-.6.4-1.2.9-1.9 1"/><path fill="#3A7021" d="M207.7 170.3l-.2.8-.3 1-.3.5-.2.5-.5 1.5-.1.2-.1.1v.1l-.3.4-.5.7-.5.7a291.8 291.8 0 01-3.1 3.3l-1.3 1.2a21.5 21.5 0 01-2.6 1.8l-1.2.6-1 .2H194.6s.3 0 .7-.4l.7-.6.9-.8 1-1 1-1.3a1042.5 1042.5 0 013.6-3.8l.6-.6.6-.6.6-.6.2-.3c0 .1 0 0 0 0h.1l.1-.2a28 28 0 001.3-1.7l.5-.4.6-.7.6-.6zM189.3 150.4l.1-.2v-.1l-.7 1a26.6 26.6 0 01-2.4 3.1l-.8 1-.8 1-.8 1-.9 1-1.8 1.9-1.8 1.8-1 1-.8.9-.9 1-.8 1c0-.5.2-1 .3-1.3l.5-1.3a11.7 11.7 0 011.3-2.4c.5-.7 1-1.5 1.6-2.1l1.7-2 1.7-2 1-1 1-.8 1-.9 1-.8 1.2-.8.6-.3.7-.2h.1v.4l-.3.1zM181 145.3v-.1c-.1-.1-.2 0-.4 0a25.8 25.8 0 01-1.4 1l-.8.8-1 1-1 1-1 1.2-1 1-1 1a20 20 0 01-1.8 2l-.6.7-.5.7-.3.6v-.2l-.1-.5v-1l.4-1 .6-1.2.7-1.2 1-1.3 1-1.3 1.1-1 .6-.5.6-.5 1.2-.8 1.3-.6c.3-.2.7-.2 1-.3.4-.2.7-.1 1 0h.3l.2.4c0 .1-.2.1-.1.2z"/><path fill="#333" d="M334.2 302.8s11.8-2 18.3 3.5c8.7 7.5-3.3 15.5-4.6 12.5l-13.7-16z"/><path d="M327.1 155.9c-.3-.4-.6-.2-1-.3l-.4-.1-.5-.1c-.5 0-.6.2-.7.6-.1.5-.1.7.1 1.2l1.2 2.2.7 1.2c.2.4.5 1 .9 1.2.3.3.8.3 1.1.4l.7.2.6.3 1.4.4 1.5.5c1 .2 2 .4 3 .4l.6.1h.8l.8.2h.9a4 4 0 001.6 0l1.7-.2 1.2-.4c.3 0 .5-.3.7-.5l.6-.2 1.6-1.3.7-.5.7-.8c.4-.6 1-1.3 1-2.2 0-.4.1-.7-.2-1l-.5-.3c-.3-.1-.5-.3-.8-.3h-.6l-.7-.2h-1.4l-1.2.1-.8.1-.7.1c-1 .2-2 .6-3 .7h-.7l-.7.2h-3l-1.4-.4-1.4-.3-.7-.2h-.7l-1.4-.4c-.3 0-.5-.1-.7-.3-.1 0-.4-.4-.6-.4"/><path fill="#CC9579" d="M327 176.6c-2.2-1-4.3-2.3-6.7-2.5a6.8 6.8 0 002.1 3.4c2.6 2.5 6 4.2 9.2 5.8.7.3 3 .7 2.4 1.2 0 0 1.1-.3 1.1-1.1 0-1.1 1.1-4.5-.3-5.3-1.1-.6-2.7-.2-3.9-.4-1.3-.2-2.6-.6-3.9-1.1z"/><path fill="#D98677" d="M485.9 201v-.5-1.2l.2-.8.4-1c.4-.6.8-1.3 1.5-2l.5-.5.5-.4 1.3-.8c.9-.6 1.9-1 3-1.4l1.6-.4 1.7-.4c1-.3 2.3-.4 3.5-.6l1.8-.1h4.3l1 .3.4.2h.1l.1.2.2.1.3.4.2.4.2.4.1.4.2.8c.1 1.1 0 2.1-.4 3l-.2.6-.3.6-.6 1-1.2 1.4-.8.9-.3.3 1-1.3 1-1.5.4-1 .2-.6.2-.6c.2-.8.3-1.7.2-2.7 0-.2 0-.4-.2-.6l-.1-.4-.2-.3-.2-.2c0-.1 0-.2-.2-.3h-.1s-.1-.2 0-.1h-.1l-.3-.2-1.5-.2h-3.4l-1.7.2-3.4.5-1.7.4c-.5 0-1 .3-1.6.4l-2.8 1-1.3.8-.5.4-.5.4c-.6.6-1.2 1.1-1.5 1.7l-.5.9c0 .3-.2.5-.3.8l-.2 1.1v.4z"/><path fill="#39B54A" d="M139.5 148.3l-2.6 1.6c2.2 3 4.8 5.7 7.8 7.9a349 349 0 0013.2-16.8l-.3-.7a10 10 0 00-2.7-2c-.2-.2-6.7 7.9-7.4 8.6-.8 1-2.5 3.9-3.7 4-1.2.1-3.4-2-4.3-2.6zM146.2 170.3l-2.7 1.6c2.2 3 4.9 5.7 7.9 7.9a347 347 0 0013.2-16.8l-.3-.6a10 10 0 00-2.7-2.1c-.3-.2-6.7 7.9-7.4 8.7-.8.8-2.6 3.8-3.7 4-1.2 0-3.4-2-4.3-2.7zM159.5 194.3l-2.6 1.6c2.2 3 4.9 5.6 7.8 7.8a346.8 346.8 0 0013.3-16.8c0-.2-.2-.4-.4-.6a10 10 0 00-2.6-2.1c-.3-.2-6.8 7.9-7.4 8.7-.8.9-2.6 3.8-3.7 4-1.2 0-3.4-2-4.4-2.6z"/><path fill="#E9C3D4" d="M122.5 144.3h.9c.5.2.8.8 1 1.3.3.7.5 1.7-.1 2.2a2 2 0 01-.7.3l-18.4 5.8c-2 .6-3.9-.4-3.3-2.7.5-2 3.2-2.4 4.8-2.9 5.2-1.7 10.5-3 15.8-4z"/><path fill="none" stroke="#E9C3D4" stroke-miterlimit="10" d="M122.5 144.3h.9c.5.2.8.8 1 1.3.3.7.5 1.7-.1 2.2a2 2 0 01-.7.3l-18.4 5.8c-2 .6-3.9-.4-3.3-2.7.5-2 3.2-2.4 4.8-2.9 5.2-1.7 10.5-3 15.8-4z"/><path fill="#E9C3D4" d="M127.3 149.1h.9c.5.2.8.8 1 1.3.2.7.5 1.7-.1 2.2a189201.7 189201.7 0 00-19.1 6c-2 .7-4-.3-3.3-2.7.4-2 3.2-2.3 4.8-2.8 5.2-1.7 10.4-3 15.8-4z"/><path fill="none" stroke="#E9C3D4" stroke-miterlimit="10" d="M127.3 149.1h.9c.5.2.8.8 1 1.3.2.7.5 1.7-.1 2.2a189201.7 189201.7 0 00-19.1 6c-2 .7-4-.3-3.3-2.7.4-2 3.2-2.3 4.8-2.8 5.2-1.7 10.4-3 15.8-4z"/><path fill="#E9C3D4" d="M133 168.3h1c.4.1.7.7.9 1.2.3.7.5 1.7-.1 2.2a2 2 0 01-.7.3l-18.4 5.8c-2 .6-3.9-.4-3.3-2.7.5-2 3.2-2.4 4.8-2.9 5.2-1.6 10.5-3 15.8-4z"/><path fill="none" stroke="#E9C3D4" stroke-miterlimit="10" d="M133 168.3h1c.4.1.7.7.9 1.2.3.7.5 1.7-.1 2.2a2 2 0 01-.7.3l-18.4 5.8c-2 .6-3.9-.4-3.3-2.7.5-2 3.2-2.4 4.8-2.9 5.2-1.6 10.5-3 15.8-4z"/><path fill="#E9C3D4" d="M135 173h.8c.5.2.8.8 1 1.3.3.7.5 1.7-.1 2.2a2 2 0 01-.7.3l-18.4 5.8c-2 .6-3.9-.4-3.3-2.7.5-2 3.2-2.4 4.8-2.9a123 123 0 0115.8-4z"/><path fill="none" stroke="#E9C3D4" stroke-miterlimit="10" d="M135 173h.8c.5.2.8.8 1 1.3.3.7.5 1.7-.1 2.2a2 2 0 01-.7.3l-18.4 5.8c-2 .6-3.9-.4-3.3-2.7.5-2 3.2-2.4 4.8-2.9a123 123 0 0115.8-4z"/><path fill="#E9C3D4" d="M135.9 179.7h.9c.5.2.8.8 1 1.3.2.7.5 1.7-.1 2.2a2 2 0 01-.7.3l-18.5 5.8c-2 .6-3.8-.4-3.3-2.7.5-2 3.3-2.4 4.9-2.9 5.2-1.7 10.4-3 15.8-4z"/><path fill="none" stroke="#E9C3D4" stroke-miterlimit="10" d="M135.9 179.7h.9c.5.2.8.8 1 1.3.2.7.5 1.7-.1 2.2a2 2 0 01-.7.3l-18.5 5.8c-2 .6-3.8-.4-3.3-2.7.5-2 3.3-2.4 4.9-2.9 5.2-1.7 10.4-3 15.8-4z"/><path fill="#E9C3D4" d="M127.3 154.9h.9c.5.1.8.7 1 1.2.2.8.5 1.7-.1 2.2a2 2 0 01-.7.4l-18.5 5.7c-2 .6-3.8-.4-3.2-2.7.4-2 3.2-2.3 4.8-2.9 5.2-1.6 10.4-3 15.8-4z"/><path fill="none" stroke="#E9C3D4" stroke-miterlimit="10" d="M127.3 154.9h.9c.5.1.8.7 1 1.2.2.8.5 1.7-.1 2.2a2 2 0 01-.7.4l-18.5 5.7c-2 .6-3.8-.4-3.2-2.7.4-2 3.2-2.3 4.8-2.9 5.2-1.6 10.4-3 15.8-4z"/><path fill="#E9C3D4" d="M144.5 194h.9c.5.2.8.8 1 1.3.2.8.4 1.7-.1 2.2l-.8.4-18.4 5.7c-2 .6-3.8-.4-3.3-2.7.5-2 3.3-2.3 4.9-2.8a125 125 0 0115.8-4z"/><path fill="none" stroke="#E9C3D4" stroke-miterlimit="10" d="M144.5 194h.9c.5.2.8.8 1 1.3.2.8.4 1.7-.1 2.2l-.8.4-18.4 5.7c-2 .6-3.8-.4-3.3-2.7.5-2 3.3-2.3 4.9-2.8a125 125 0 0115.8-4z"/><path fill="#E9C3D4" d="M148.3 198.9h.9c.5.1.8.7 1 1.2.2.8.5 1.7-.1 2.2l-.7.4-18.5 5.7c-1.9.6-3.8-.4-3.2-2.7.4-2 3.2-2.3 4.8-2.9 5.2-1.6 10.4-3 15.8-4z"/><path fill="none" stroke="#E9C3D4" stroke-miterlimit="10" d="M148.3 198.9h.9c.5.1.8.7 1 1.2.2.8.5 1.7-.1 2.2l-.7.4-18.5 5.7c-1.9.6-3.8-.4-3.2-2.7.4-2 3.2-2.3 4.8-2.9 5.2-1.6 10.4-3 15.8-4z"/><path fill="#F4C392" d="M138.1 115.3a13.5 13.5 0 00-3.9 10.2c.4 3.7 2.9 7.3 6.4 8.3 1.3-1 1-3 .4-4.4-.7-1.5-1.7-2.8-1.8-4.4 0-2 1.4-3.5 2-5.3.7-1.7 0-4.4-1.9-4.3-1.7 0-2.4 2.2-2.6 3.9"/><path fill="#F4C392" d="M131.3 113.4c-2.5 3.3-4 7.7-3.7 12 .3 4.4 2.9 8.6 6.5 9.8 1.2-1.3 1-3.6.2-5.3-.6-1.7-1.7-3.3-1.7-5.1 0-2.3 1.2-4.1 1.9-6.2s-.1-5.2-2-5.2c-1.7.1-2.4 2.7-2.6 4.7M123.7 117.2a11.5 11.5 0 00-3 9 8.4 8.4 0 006.1 7c1.1-1 .8-2.7.1-4-.6-1.1-1.6-2.3-1.7-3.7-.1-1.6 1-3 1.5-4.6.5-1.5-.2-3.8-1.9-3.7-1.5.1-2 2-2.2 3.6M117.3 117.3a9.3 9.3 0 00-2.4 7.2c.4 2.6 2.3 5 5 5.6.8-.8.6-2.1 0-3.1-.5-1-1.3-2-1.4-3 0-1.3.9-2.5 1.3-3.8.4-1.2-.2-3-1.6-3-1.2.1-1.7 1.7-1.8 3"/><path fill="#B7B7B7" d="M492.5 276.8c1.3-.3 2.8-.7 3.3-2 .3-.7.2-1.4 0-2l-.5-4.5c-.1-.8-.3-1.6-.8-2-.7-.6-1.8-.5-2.7-.3-21.5 4.7-43.3 4.8-65 9.2-2.7.6-8.3-.7-9.6 2.1-.7 1.6 1.5 8.2 2 9.7.9 3.3 1.2 2.8 4.3 2.6 11-.8 22-3.3 32.7-5.3 12.2-2.2 24.3-4.7 36.3-7.5z"/><path fill="#D98677" d="M394.8 283.2l11.2 15.3c1.7 2.2 3.6 4.7 6.1 6.6 2.6 2 5.6 3.4 8.9 4.9l10 4.4c3.4 1.5 6.8 3 10.6 3.6l2.7.4h5.6l2.8-.2 1.4-.1 1.3-.2 2.7-.4c.9-.1 1.8-.4 2.6-.6l2.6-.6 5-1.6 4.5-2 4.2-2.2 3.6-2.4 3.2-2.5 1.4-1.3 1.3-1.2a80 80 0 006.5-7.3l1-1-1 1c-.5.7-1.2 1.8-2.3 3-1 1.4-2.3 2.9-4 4.6l-1.2 1.3c-.4.4-.8.9-1.4 1.3l-3 2.6-3.8 2.5-4.1 2.4-4.6 2a135.7 135.7 0 01-7.6 2.4l-2.7.6-2.8.4-1.4.2-1.4.2-2.8.2H444.2l-2.9-.4c-3.8-.6-7.4-2.2-10.7-3.8l-10-4.5c-3.2-1.4-6.4-3-9-5a35.8 35.8 0 01-6.1-7l-4.4-6.3-3.4-5-2.9-4.3z"/><path fill="#F4C392" d="M446.7 428.3c.6-1.5 2.2-2.3 3.6-3 2.6-1.3 5.9-2.5 8.3-.9 2.2 1.5 2.5 4.5 2.7 7 0 .7 0 1.4-.2 2-.3.5-.8 1-1.3 1.3-2.9 2.1-6.5 3.3-10 3.3-1-3.4-2.2-6.7-3.6-9.9"/><path fill="#3A7021" d="M274.6 189.7l.1 1.5v1.8c0 .7 0 1.5-.2 2.3 0 .8-.3 1.7-.5 2.7l-.6 2.9-.9 3-.6 1.7-.7 1.6-.8 1.4-.8 1.5a54.6 54.6 0 01-1.8 2.6c-.4.8-1 1.8-1.8 2.6l-.1.1-.1.1v.1l-.4.2-.5.4-1 .8c-1.5.8-2.8 1.4-3.6 2l-1 .5-.3.2.3-.3.7-.8 1.3-1.2 1.7-1.5 1-.8c0-.2.2-.3.4-.5l.3-.2v-.1l.1-.2.7-1 .6-1.4a25 25 0 011.6-2.7l.8-1.4.8-1.5.6-1.4.6-1.4.5-1.5.5-1.5c.3-1 .6-2 1-2.8l.8-2.5.6-2.1.4-1.7.3-1.5z"/><path fill="#F4C392" d="M120.6 116c1.5 0 3 .6 4.4 1 3.6.7 7.4-.4 11-.4.8 0 1.5.1 2.1.4l1.4.8c2 1.3 3.9 2.7 4.8 4.9.1.4.2.9 0 1.3-.1.3-.5.5-.8.6-4.4 2-9.4 1.3-14.2 1.5-2 .1-4 .4-6 .2s-4-.8-5.3-2.3c-2.5-2.6-1.6-8.1 2.6-8z"/><path fill="#3A7021" d="M263.1 190.3l-.2.4-.5.9-.6 1.4-.6 1-.3.4-.5.4-.3.4-.3.4-.8 1-.4.5-.1.2h-.1l-.2.3-.7 1.2c-.5.7-1 1.7-1.7 2.5l-1 1.1-.8 1.2c-.2.5-.6.9-1 1.3l-.5.5-.3.5-1.1 2.4-1 2.6-.9 2.2-.7 2-.6 1.4-.5 1-.2.3v-.4l.3-1c0-.4 0-1 .2-1.6l.3-2c0-.9.3-1.6.6-2.5l.6-2.6c.3-1 .6-2 1.2-3l.5-.7.5-.6.8-1.1 1-1.3 1-1.2a28.4 28.4 0 002.6-3.3l.2-.3h.1v-.1l.2-.1.4-.5 1-.9.4-.4.5-.4c.2 0 .3-.2.5-.3l.4-.3.6-.6 1-1.3.7-.7.3-.3z"/><path fill="none" stroke="#000" stroke-width=".2" stroke-miterlimit="10" d="M466.4 424.4c0-.6.4-1.4.6-2l.6-1.5c.3-1.3.7-2.4 1.3-3.6l.8-2 1.2-3.1c.3-.7.5-1.5.5-2.2a4 4 0 00-.8-2.6 8.4 8.4 0 00-4.4-2.8c-.7-.2-1.5-.3-2.2-.3-.7 0-1.8 0-2.4.4l-1 .9c-.3.2-.6.5-.8.9-.3.6-.5 1.7-.3 2.3.3.9 1.3 1.8 1.8 2.5l1.5 2.5c.9 1.7 1 3.7 1.4 5.4.2.8.1 2 0 2.8 0 .5-.8 2.3-1.4 2.4M468.5 426.3a4 4 0 012-1.2c.7-.2 1.4-.6 2.2-1l1.3-.7 1.2-.5 1.2-.9c.6-.3.5-.4.8-1 .3-.5.7-.8.8-1.4.2-.7.5-1 .8-1.7a8 8 0 00.7-2.6c.1-.8.2-2 0-2.8-.1-1-1-1.7-1.8-2-1-.4-1.4-.2-2.3.5-.7.7-1.3 1.4-1.6 2.4-.5 1.5-1.3 3-1.4 4.6l-.3 1c-.2.5-.2 1.1-.5 1.5l-.7 1-.9 1.7c-.5 1-1.1 2.4-2.2 3.1-.4.3-1.5 1-2.1 1M468 428.4c.3-.3.5-.2.8-.2l.5-.2c.4 0 .8 0 1.3-.2 1.1-.2 2.3-.5 3.4-.9.6-.1 1.1-.4 1.6-.6.7-.3 1.4-.5 2-.9l2-.8 1.8-.9c.6-.3 1-.8 1.6-1l1.8-.8 1.6-.9c.7-.3 1.1-1 1.7-1.3l3.4-1.6c.7-.3 1.3-.4 2-.4l1.8-.3"/><path fill="#FFF" d="M495.5 407.6c-.5.5-.4 1.3-.5 2l-.2 1.1v1.3c0 1 .4 1.9.5 2.8l.3 1.8.4 2c.4.8 1.1 1.5 1.7 2.2.7.8 1.6 2.4 2.8 2.6.5.1.6.2 1.1.5.4.2.6.2 1 .2 1.2 0 2.2-.6 3.1-1.2l2.5-1.4c1.1-.4 1.7-1.3 2.3-2.3l1-1 .4-.9.5-.6c.6-.8 1.3-1.7 1.5-2.7v-2.6c0-1.1-.2-2.2-1-3-1.5-1.6-3.1-3.3-5.4-3.4-1.4 0-2.6-.3-4-.3l-3.3.3-1 .3-1 .2-1.5.5c-.5.3-.9 1-1.4 1.2l-1.7 1 .2-.3"/><path fill="none" stroke="#000" stroke-width=".2" stroke-miterlimit="10" d="M495.5 407.6c-.5.5-.4 1.3-.5 2l-.2 1.1v1.3c0 1 .4 1.9.5 2.8l.3 1.8.4 2c.4.8 1.1 1.5 1.7 2.2.7.8 1.6 2.4 2.8 2.6.5.1.6.2 1.1.5.4.2.6.2 1 .2 1.2 0 2.2-.6 3.1-1.2l2.5-1.4c1.1-.4 1.7-1.3 2.3-2.3l1-1 .4-.9.5-.6c.6-.8 1.3-1.7 1.5-2.7v-2.6c0-1.1-.2-2.2-1-3-1.5-1.6-3.1-3.3-5.4-3.4-1.4 0-2.6-.3-4-.3l-3.3.3-1 .3-1 .2-1.5.5c-.5.3-.9 1-1.4 1.2l-1.7 1 .2-.3"/><path fill="#CC9579" d="M116.1 118.3c0-.8.8-1.3 1.5-1.5.7-.3 1.6 0 2 .7l.4.5.2.5.2.5.1.6v1.1c-.2.4-.3.7-.6 1-.1.4-.3.7-.6 1-.2.3-.4.6-.4 1v1l.6 1 .1.6.3.5.5 1 .2.5.1.3v.3l.2.5c0 .2 0 .5-.2.6-.2.3-.7.6-1 .6l-.6.1h-.6l-1-.7-1-.5c-.3-.2-.5-.6-.7-.9l-.6-1c-.3-.6-.8-1.3-1-2-.3-.7-.2-1.5-.2-2.3v-1l.4-1.2c.2-.7.6-1.4 1-2l.5-1 .2-.5c0-.1 0-.2.2-.3h0l-.2.3-.1.5-.6 1c-.4.7-.7 1.3-.9 2l-.3 1.1v1.1c0 .8-.1 1.6.1 2.2l1 2c.3.3.4.7.6 1 .3.3.4.6.8.8l1 .5.9.6h1c.2 0 .4 0 .5-.2.2 0 .3-.2.4-.3.3-.3 0-.6 0-1v-.3l-.1-.2-.2-.5-.5-1-.3-.6-.1-.5-.5-1a2 2 0 01-.1-1.2c0-.4.3-.7.5-1l.6-1c.4-.6.8-1.3.6-2 0-.4-.2-.7-.3-1.1l-.2-.5-.4-.4c-.4-.6-1.1-1-1.9-.8-.7.2-1.4.7-1.5 1.5z"/><path fill="#CC9579" d="M123 118.2l1-.7c.5-.2.8-.4 1.3-.4.4-.1.8 0 1.2.1.4.2.8.5 1 1 .3.7 0 1.6-.3 2.4l-.6 1.1-.5 1.2-.1.6-.2.6-.2 1.2v.6c0 .2.3.4.4.5l.4 1.3c0 .9.6 1.5.8 2.3.2.4.2.9.2 1.3v1l-.3.2c-.5.2-.9.1-1.3.2h-.7l-.3-.1-.3-.1c-.8-.4-1.4-1.1-1.8-1.8l-1.3-2.2-.7-1-.3-.6-.1-.7c-.1-.4-.3-.8-.2-1.2 0-.5.2-.9.3-1.3l.2-1.2.3-1.2.3-1.3.5-1.1c.2-.4.4-.8.8-1l.6-.3h.6v-.1l-.6.1-.6.3c-.3.2-.5.6-.7 1l-.5 1.1-.3 1.3-.3 1.2c0 .4 0 .9-.2 1.3l-.3 1.2.2 1.2.2.6c0 .2.1.3.3.5l.7 1 1.3 2.3a4 4 0 001.7 1.7h.3l.3.1H127l.2-.2v-.1-.2-.6c0-.4 0-.8-.2-1.2 0-.4-.3-.8-.5-1.2l-.3-.6v-.6l-.4-1.2-.2-.2-.1-.3v-.7l.1-1.3.2-.6.2-.6.4-1.2.7-1 .4-1.2c0-.5 0-.9-.2-1.2-.1-.4-.5-.7-.8-1l-1.2-.1c-.4 0-.8.2-1.2.4a4 4 0 00-1 .7z"/><path fill="#CC9579" d="M132 113.5h.1c-1 0-2 .5-2.8 1.2-.5 1-.7 2-1.1 3-.3.4-.3.9-.5 1.4l-.4 1.5-.3.8-.3.7v2.3c0 .3 0 .5.2.7l.4 1.5.4.7c0 .3.1.5.3.8.2.4.6.8 1 1.2.6.7 1.3 1.5 1.9 2.5.3.4.5.9.9 1.2l.6.5.6.4c.4 0 .9-.3 1-.8.2-.4.2-1 .3-1.5l.2-1.5-.1-.8-.2-.7c-.1-.5-.5-1-.7-1.4l-.7-1.5-.3-.7-.1-.8c0-.6.3-1 .4-1.5l.1-.4.1-.4.3-.7.6-1.4c.3-1 .7-2 .7-3l.2-.8v-.8c-.1-.3 0-.5-.2-.7l-.3-.3-.4-.1-.7-.4-.7-.2c-.5-.2-1 .3-1.5.3.5 0 1-.6 1.5-.4.3 0 .5.2.8.3l.7.3.3.1.3.3c.2.2.2.5.3.8v.8l-.2.8c0 1-.4 2-.6 3l-.6 1.5-.3.7-.1.4-.1.4-.5 1.4.2.8.3.7.7 1.4c.2.5.5.9.6 1.4l.3.8.1.8c0 .5 0 1-.2 1.6-.1.5 0 1-.2 1.5s-.7 1-1.4.9l-.7-.4-.6-.5-1-1.3c-.4-1-1.1-1.7-1.8-2.5l-1-1.3-.3-.7-.3-.7-.5-1.5a2 2 0 01-.2-.8v-.8-1.5l.4-.8.3-.7.4-1.5c.1-.5.2-1 .5-1.5.4-1 .6-2 1.2-2.9.7-.7 1.8-1.2 2.8-1.2z"/><path fill="#CC9579" d="M133.2 134c0 .2.1.4.3.3.2 0 .2 0 .3-.2 0-.2 0-.3-.2-.5 0-.2 0-.4-.2-.6l-.2-.8-.4-1c-.2-.3-.3-.8-.6-.8l-.7.1c-.2 0-1.4.4-1 .8-.1 1.3 1.4 2.6 2.7 2.8zM125.6 132.3v.1c.5 0 .1-1 0-1.2l-.7-1.2c-.2-.3-.4-.4-.6-.5h-.6l-.6.3-.6.3c.4 1.2 2 1.9 3.1 2.2zM116.1 128.8c0-.3.6-.5.9-.6.4-.2.7-.3 1 0 .4.3.8.7.9 1.1v.6c-.2.3-.3.2-.5.2M136.6 130.4c0-.3.3-.5.4-.6l.5-.1.2-.1h.7c.3 0 .5.5.7.7.4.6.7 1.2.6 1.9 0 .2-.1.5-.3.7-.1 0-.8.2-.9 0"/><path fill="#CC9579" d="M138.5 133.8s.2 0 .3.2h1.5l.4-.6.5-1.7c.2-.7.1-1.4-.1-2l-.8-2.3c-.2-.8-.9-1.3-1.2-2.2v-.6-.7l.1-.3.2-.3.2-.6 1-2.4.3-1.2v-1.2c0-.4 0-.8-.2-1.2-.1-.3-.3-.7-.6-.9l-1-.2-1-.1-1-.1c-.3 0-.6 0-.8-.2-.5-.3-.5-.9-1-1-.2-.2-.6-.2-.7-.3h-.4.4l.8.2.5.5c0 .2.2.4.4.5.2.2.5.1.8.2h1l1 .2c.3 0 .7 0 1 .2.4.2.6.6.8 1l.2 1.1v1.3l-.3 1.2-1 2.5-.2.6-.2.3-.1.3v1.2c.2.7 1 1.4 1.1 2.2.4.7.7 1.5.8 2.2.3.7.3 1.4.2 2.1l-.6 1.7-.2.3-.3.3h-1.5l-.3-.2z"/><path fill="#904BBC" d="M301 132.3h.2l.2-.1.3-.2c.4-.3 1-.8 1.4-1.6l2-2.9.6-.8.3-1c.4-.7.5-1.4.7-2.2l.3-2.5.3-2.7c.2-1 .4-2 1-3.1.2-.5.5-1 .9-1.4l.3-.4.1-.1.2-.2.7-.5c1.4-.7 2.4-.7 3.5-1l1.5-.3h.4l.2-.1h.2l1-.1h1.4l1.4-.5c.6-.2 1.6-1 2.4-1.7l1.2-1 1.3-1.1.6-.6.5-.5 1.1-1.2 1.3-1.1c.5-.3.8-.7 1-1l2.3-2.4.7-.5.4-.3.3-.2 1.5-.7c1-.4 2.1-.6 3.1-.6l3 .1 1.3.3 1.2.4h.2-.1 1l1-.1.5-.2h.2l.2-.1 1-.5 1.3-1.1 1.1-1.2c.7-.7 1.2-1.2 1.3-1.7 0-.3.2-.5.4-.5h.2s-.4 0-.5.5c0 .5-.5 1.3-1 2l-1 1.3c-.4.5-.8 1-1.4 1.4a6.5 6.5 0 01-5.9 1.2l-1.2-.2a11 11 0 00-5.2.7c-.2 0-.4.2-.5.3l-.3.1-.3.2-.4.2-.2.2-.5.5a19 19 0 00-2 2.2L330 105l-.6.5-.5.5-.5.5-.6.7-.7.7-.6.5c-.4.3-.8.8-1.2 1l-1.3 1.3-1.4 1-.3.2-.2.1-.2.2-.5.3-.5.2-1.7.5-1 .1H316.3l-.4.1-1.6.3-.8.1h-.4l-.3.1-.7.2-.5.2c-1.5.8-2.3 2.5-2.6 4.2l-.5 2.7c-.2 1-.3 1.8-.6 2.6-.3.9-.5 1.7-.9 2.3a200 200 0 01-1.1 2l-2.4 2.5c-.6.8-1.3 1.3-1.7 1.5l-.4.1h-.4z"/><path fill="#C6F" d="M350.6 169.3l1.3.1 1.4.2 1.9.2h2.3l.3-.1.6-.1 1-.3 1.3-.4.6-.2.6-.2.6-.3.5-.2 1-.7 1-.8 1.1-.8 2.2-1.5c.6-.4 1-1 1.4-1.5.2-.5.4-1.1.3-1.6 0-.5-.4-1-.7-1.2l-.3-.1-.3-.1-.6-.1h-.5l-.4.2h-.3l.3-.1.3-.3.5-.3h.7l.4-.1.5.1c.7.3 1.3.7 1.7 1.6a4 4 0 010 2.7 6 6 0 01-1.7 2.3 31 31 0 01-2 1.7l-1.2.9-1.1.9-2.7 1.4-.6.2h-.3l-.2.1h-.2l-1.3.3a14.1 14.1 0 01-2 .2h-.7a130.3 130.3 0 01-3.3-.6l-.8-.3-1.4-.6-1.2-.6zM364.3 140l1.3-1.6.7-.7.8-.7c.4-.5 1-.8 1.7-1.2l1.8-.8.5-.1.5-.2c.5-.2 1-.1 1.3 0l2 .6h.8l1 .2h.4l.1.1h.1l.2.1.4.3.8.5c.4 0 .3 0 1.4-.4h.5l.5-.1c.3 0 .5-.2.6-.3l.9-.5c.2 0 .3-.2.5-.3l.5-.2 1.8-.7c.2 0 .4-.2.5-.4a9.7 9.7 0 001.1-1.2s0-.1 0 0l.1-.3v-.2-.3-.4l.2-.4v-.1l.2-.2.2-.3.3-.2.4-.2.4-.2c.1 0 0 0 0 0l-.1.2v-.2-.6l.2-.5.4-.4.5-.4h.2l.1-.2.1-.3.1-.2.3-.4.5-.6.5-.4h.2l.2-.2.7-.5.4-.3.4-.3.4-.3.5-.2.5-.3.5-.1 1.7-.6 1-.3.8-.3.8-.3.8-.3c.2 0 .4-.2.5-.3l.4-.3.2-.3 1.1-1.4 1.2-1.4.2-.2v-.1l.3-.4.5-.8c.2-.5.5-1 .6-1.6a14.8 14.8 0 00.7-3.5l.2-1.8.3-3.7.3 3.7v3.8l-.3 1.9-.6 1.9-.4.8-.2.4v.1l-.1.1-.2.3-1.1 1.5c-.4.4-.6 1-1 1.5l-.7.8-1 .7-1 .5-.9.3-.8.3-.9.3-1.7.7-.4.1-.3.2-.3.2-.4.2-.3.2-.4.3-.8.6-.4.3-.2.2h-.1l-.2.4v-.2c0 .2-.1.5-.3.7l-.4.7h-.1l-.6.4-.5.2.5-.3v-.1.8l-.2.3v.2l-.1.2h-.1l-.3.3-.4.2-.5.2s.1 0 0 0v.1c-.1.1 0-.1 0-.1V132.6l-.4.9a5 5 0 01-.8 1l-.7.7c-.3.3-.7.6-1.1.7-.8.4-1.5.5-2 .7l-.4.2-.4.2-.8.5-1.3.4h-1l-.3.2h-.3l-.3.1h-1.1H378.1l-.1-.2c-.3 0-.5-.2-.6-.3l-.3-.3-.4-.2c-.1 0 0 0 0 0h-.1l-.2-.1-.9-.2c-.3 0-.8 0-1-.2-.9-.2-1.4-.6-2-.8h-.6c0-.1-.3 0-.4 0l-.5.2-2 .5-1.6.9-.8.5-.8.6c-.5.5-1 1-1.5 1.3z"/><path fill="#D98677" d="M495 218.2a4 4 0 01-.5 3.5 9 9 0 008.5-4.2c0-.2.2-.4.1-.6 0-.2-.2-.4-.3-.5-2.5-2-6.7-2.5-9.4-.7.4.8 1.3 1.5 1.6 2.5zM496.1 236.8c1.7.8 2.1 2.9 1.9 4.6-.1 1-.2 2.4.8 2.8.6.3 1.4-.2 2-.7l2-1.6c1-.8 2-1.6 2.6-2.6.6-1 .7-2.5 0-3.5-1.2-1.7-3.7-1.2-5.7-.6"/><path d="M302.4 435.1v.2l.4.5.8.7.7 1.2.8 1.5 1 1.7a699 699 0 012.4 4.1l.6 1.2.5 1.3c0 .3.2.5.3.7l.4.6.8 1.2c1.3 1.5 2.7 3.1 3.7 5l1.8 3 .4.6.1.2.2.2.2.4.8 1.4c1 2.2 2 4.3 3.2 6.2 1.3 2 2.7 3.7 4.3 5.4 1.6 1.6 3.3 3 5.3 4 1.8 1 3.9 1.5 5.8 2a502.8 502.8 0 005.5 1.1l2.5.2 2.3.1 3.7.1h1.3l1-.2h0l-1 .2-1.3.1h-8.5l-2.7-.4-3-.6-2.9-.8-.8-.2-.7-.3-1.6-.7c-2-1-3.7-2.5-5.4-4.1a41.8 41.8 0 01-4.4-5.5c-1.3-2-2.2-4.2-3.2-6.2l-.8-1.5-.2-.4-.1-.1-.1-.2-.5-.7-1.7-2.9-.9-1.4-.9-1.3-1.8-2.4-.9-1.2-.4-.7-.3-.7-.4-1.3-.6-1.2-2.3-4.2-1-1.7-.6-1.6-.7-1.1-.7-.8-.4-.5v-.2z"/><path fill="#D98677" d="M497 253.7c1.2.6 1.7 1.8 2 3 .2.7.3 1.3.3 2l.2.8v1.1h1.2l1.3-.4c.4-.1.7-.4 1-.7.2 0 .3 0 .5-.2l.6-.6c.5-.3.7-.7 1-1.2.3-.4.6-.8.7-1.3l.4-1.1c0-.4.4-.8 0-1.2-.2-.3-.8-.4-1.2-.5l-1-.2c-.5 0-1-.2-1.3-.3l-1.4-.1a8 8 0 00-2.6 0c-.4.1-.8 0-1.2.2-.2 0-.5.2-.6.4-.2 0-.4.3-.5.3M406 215.5c0-3-1.4-5.6-3.6-7.7-.7-.6-1.8-1.1-2.5-.4-.4.4-.4 1-.3 1.6.1 2.5-1.3 9.4.9 11.2 2.9 2.3 5.5-2.2 5.5-4.7z"/><path fill="#DE57FF" d="M354.1 110.6v-.5c0-.3 0-.8.3-1.4l.2-.3.2-.5.2-.5v-.2s.2-.1.1 0v-.1l.2-.3.7-1 .2-.3c.2-.1 0 0 .1 0v-.1h.1l.1-.2.4-.5 1.4-1.2 1.4-1 3.2-1.6 1.8-.8c.4 0 .7-.2 1.1-.3l1-.2 3.7-.6 2-.2h3.8l2 .4 1.9.4a266.3 266.3 0 003.2.8l1.4.6 2.3 1a31 31 0 012.5 1.5l.4.3.4.3h-1.8H388.3s-.1 0 0 0h-.5l-1.1.1H374.5l-.9.1H373.3c.2 0 0 0 0 0h-.4l-1.7.3-1.8.2-1.9.3h-.7l-.8.1-1.4.4-3.1.8-1.4.4-1 .4-.7.3-.1.1h-.1s-.1.1 0 0l-.3.2c-.4.1-.7.4-1 .6l-.3.1c0 .1 0 0 0 0l-.1.1-.4.4-.4.2-.4.3-1 .7-.2.4z"/><path fill="#DF5CFF" d="M358.4 118h.1v-.4l.1-.2v-.1l.1-.2.5-1 .2-.4.3-.5.4-.5.2-.1v-.1l.3-.2.4-.3.2-.2h.1c.2-.1 0 0 .1 0l.2-.2.8-.4.4-.3.5-.2 1-.4.7-.1.5-.1.6-.1h.8s.6 0 1 .2c.4 0 .5.2.7.2l1 .4.4.2.3.2.3.1.6.2.8.4 1 .6.8.5.7.4.9.5h-.1.2l.5.1h.8c.1 0 0 0 0 0v.1h.4l.4.1h.5l.2.1h-.1.5s0 .1.2 0h1s-.1 0 0 0l1-.1H381.6h-.1.8l.8-.3s.1 0 0 0h.2l.2-.2.4-.2 1-.4v.1c-.2.6-.3 1.2-.7 1.9l-.6 1c-.2 0-.4.2-.6.4l-.3.3h-.2l-.1.1h-.1l-.2.2-.4.2-.8.5h-.2v.1l-.2.1-.4.3-.3.1-.4.2-.5.1-1.2.2-1 .1-1 .2h-1.4c-1-.2-1.8-.5-2.5-.9l-1-.5-.8-.5-.5-.4-.9-.4c.4.1 0 0 .2 0h-.1l-.3-.2-.6-.3a7 7 0 01-.4-.2l-.4-.3-.8-.5s-.2 0 0 0c0 0 .3 0 0-.1H366h.2l-.3-.2H365c-.3 0 .2-.1.2 0h-2.9s-.1 0 0 0h-.6l-.2.1h-.1c-.1 0 0 0 0 0l-.3.1-.4.2-.5.2a3 3 0 00-.9.3l-.2.1-.2.2-.5.2h-.1v-.2z"/><path fill="none" stroke="#000" stroke-width=".2" stroke-miterlimit="10" d="M486.7 417c0 .6 1.8 2.3 2.1 2.8 1 1.3 1.8 3.2 3.4 3.7.3-.2.4-.5.2-.8"/><path fill="none" stroke="#000" stroke-width=".2" stroke-miterlimit="10" d="M491 416c-.1.9-.7 1.3-1.2 2-.6.7-.6 1.5-1.2 2.3-1 1.6-2 3.5-3.3 4.8"/><path fill="none" stroke="#000" stroke-width=".2" stroke-miterlimit="10" d="M481 419.3c3 0 4 3.8 6 5.5l.2-.2"/><path fill="none" stroke="#000" stroke-width=".2" stroke-miterlimit="10" d="M485.3 418.9l-.1-.4c-1.1 1.4-1.5 3-2.3 4.5l-1 2c-.6 1-1.8 1.8-1.9 3"/><path fill="none" stroke="#000" stroke-width=".2" stroke-miterlimit="10" d="M475.2 422.7c.9 1 1.7 2.1 2.7 3 .5.6 1 1.3 1.6 1.7.6.3 1.3.3 1.5 1"/><path fill="none" stroke="#000" stroke-width=".2" stroke-miterlimit="10" d="M479.5 420.3a8.3 8.3 0 01-1.7 2.6c-.7.8-.6 1.5-1.1 2.4-.5 1-1.4 1.5-1.8 2.5-.6 1.3-1 2-2 3"/><g><path fill="#F2F2F2" d="M328.2 157c0-.1-.2 0-.2 0H326l-2-.8 2.4.1h1.2l1.5.2 1.3.2 1.2.3h.6l.7.1h1.9l.7.1 1.3.2H337.7s-.2.1 0 .1l-.3.1-.2.2.1-.1.4-.4c.3-.1.6-.2.7-.1H338.7s.1 0 0 0h.2l.6.1h7.6l.2.2v.1h-.5l-.7.2-1.2.5-.6.2c-.3 0-.6.2-.8.3h-.5l-.2.1-.6.1h-.4l-.2.1h-.1l-.6.1-.7.1h-1.9.5l.2-.3s.1 0 0 0v.1l-.3.3a1.6 1.6 0 01-.6.3h-1.3l-1.3-.2-.7-.1h-.3c-.2 0 0 0 0 0h-1l-.8-.1-.6-.2-.8-.2c-.6-.1-.9-.3-1.3-.5l-1.3-.4-1.2-.4-.7-.3-.7-.3.4-.6c-.2-.1 0 0 0 0h.3l.5.2.4.1.3.1.2.1z"/></g><g><path fill="#ED1E79" d="M333.4 162.8c-.2 0-.4.1-.5.3.4-.5 1.1-1.3 1.8-1.4.7-.2 1.6-.1 2.2.1.5.2.6.4 1 .2.3-.2.7-.5 1.1-.3.5.1.4.5.5.9.1.2.3.2.3.5v.6h-.8l-.9.2h-1.7c-.5-.2-1-.2-1.5-.5l-1.6-.5v-.1"/></g><g><path d="M298.1 474.8l1.7 2 1.9 2.3 2.4 3 2.5 3.9 1.5 2c.5.6 1.2 1 2 1.6 1.4 1.1 2.5 2.6 3.9 3.8l2.3 1.6 1 .9 1.4.4 1.2.8.2.3h.2l.1.1.6.3h1.4l.7.3.7.2.6.5.5.3.6.1H328.9c1.7 0 3.5.2 5-.3l2.1-.9 2.2-.6h1.5s.1 0 0 0h.1c0-.2.2-.3.3-.3h.9l.8-.5 1.3-1 1.2-.5c.8-.4 1.4-.5 1.8-.5h0c-.4 0-1 .2-1.8.5l-1.2.7-1.2 1-.8.4-.5.1h-.5v.1l-.1.2h-.2l-.5.1h-1l-2.1.6-2.2 1c-1.6.5-3.4.3-5.1.3H325.5a3 3 0 01-.8 0 2 2 0 01-.6-.5l-.5-.4-.6-.2a2 2 0 00-.7-.2H321l-.7-.4h-.2l-.1-.2-.3-.2-1.1-.8c-.4-.1-1-.2-1.4-.5l-1-.8c-.9-.6-1.7-1-2.4-1.7-1.4-1.3-2.5-2.7-4-3.7a11.3 11.3 0 01-3.4-3.9l-2.4-3.8-5.8-7.5z"/></g><g><path fill="#D98677" d="M317.9 141.3l-.4.3-.3.3-.1.1v.1l-.2.1a6.5 6.5 0 01-1.7 1.3h-.2v.1c-.1 0 0 0 0 0l-.4.3-1.4.6-.6.3h-.1s-.1 0 0 0h-.1l-.3.1-.4.2-.3.2-.4.2h-.1v-.2c.1 0 0-.1 0-.2v-.5l.3-.7.2-.3.1-.1h.1v-.1h.1l.5-.6.6-.5.7-.4.3-.2h.1l.1-.1h.3c.2-.2.5-.2.7-.3l1.3-.2h1.2l.4.2z"/></g><g><path fill="#D98677" d="M321 143.4l-.3.1-.3.2-.2.2v.1l-.2.2-.4.3-.4.3-.4.3h-.2c0 .1 0 0 0 0l-.2.2-.5.2-.4.2-.3.1h-.2l-.5.1h-.3-.2v.1s-.2 0-.1-.4l.1-.4.2-.4s.1-.1 0-.1l.2-.3.3-.5.4-.4.2-.2h.1l.1-.1h.2a3.5 3.5 0 011.7-.6h.6l.6.2a2.6 2.6 0 01.4.6z"/></g><g><path fill="#D98677" d="M325.5 144.1l-.2.2-.3.2-.3.3h-.2c.1 0 0 0 0 0v.1h-.1l-.4.4-.4.3c-.1 0 0 0 0 0h-.1l-.2.2-.3.2-.3.3h-.1v-.1l-.2.3-.2.1-.2.3-.2.3-.2.3-.3-.3-.2-.3-.2-.4v-.4-.3-.5h.1v-.2l.5-.6c0-.2.3-.4.6-.6l.2-.1h.2l.1-.2.7-.2h1.2l.8.5.2.2z"/></g><g><path fill="#D98677" d="M348 146l-.1-.2.1-.2h1a2.8 2.8 0 011.2.8l.4.4v.2l.2.2.3.6.1.8v.4l-.3.4a1 1 0 00-.3-.2l-.3-.1-.5-.2c-.2 0-.4-.1-.5-.3l-.3-.2-.1-.1-.1-.1a3 3 0 01-.6-1.1 3.6 3.6 0 010-.8v-.4l-.2.1z"/></g><g><path fill="#D98677" d="M353.1 145.3v-.1h.3l.8.2c.1 0 .2.1.2 0l.2.2.4.3.4.4.3.4.3.6.2.6v.7l-.2.5-.6.8-.3-.2-.4-.6-.2-.4-.2-.1-.2-.3-.3-.3-.1-.2-.1-.2a6 6 0 01-.3-1s-.1-.1 0-.2l-.1-.2v-.7-.2h-.1z"/></g><g><path fill="none" stroke="gray" stroke-width=".6" stroke-miterlimit="10" d="M273.2 473.1c1.1 3 1.7 5.5 3.3 8.2 1.7 2.8 4 5.2 5.8 7.9 2 3 3.4 6.1 6 8.7 2.8 2.8 5.8 5.4 8.7 8a54.1 54.1 0 0038 12.3"/></g><g><path fill="none" stroke="gray" stroke-width=".6" stroke-miterlimit="10" d="M284.6 522.8c2.9-.7 8.2 4.6 10.9 6a44.7 44.7 0 0021.1 5.9"/></g><g><path fill="none" stroke="gray" stroke-width=".3" stroke-miterlimit="10" d="M468.5 391c4.8-.6 10-3.8 15-4.8 5.5-1 11.5-.3 17-.3"/></g><g><path fill="none" stroke="gray" stroke-width=".3" stroke-miterlimit="10" d="M466.8 377.4c7.2-8.5 18.4-11.4 27-3.4"/></g></svg>