<?xml version="1.0" encoding="utf-8"?>
<!-- Generator: Adobe Illustrator 16.0.3, SVG Export Plug-In . SVG Version: 6.00 Build 0)  -->
<!DOCTYPE svg PUBLIC "-//W3C//DTD SVG 1.1//EN" "http://www.w3.org/Graphics/SVG/1.1/DTD/svg11.dtd">
<svg version="1.1" id="Layer_1" xmlns="http://www.w3.org/2000/svg" xmlns:xlink="http://www.w3.org/1999/xlink" x="0px" y="0px"
	 width="316px" height="329px" viewBox="0 0 316 329" enable-background="new 0 0 316 329" xml:space="preserve">
<path fill="#82BA41" d="M0.001,55.552c-0.049,2.375,2.169,1.115,3.44,1.619c0.629,2.835-1.631,1.313-2.766,2.276
	c0.587,1.771,2.622,3.128,2.536,4.447c-0.365,0.099-0.498,0.355-0.956,0.055c1.763,1.871,0.087,5.556,2.3,7.735
	c-0.196,0.163-0.382,0.245-0.55,0.286c1.11-0.354,2.239-0.408,3.042-0.336C7.086,72.698,8.447,73.61,7,74.011
	c0.042-0.653-0.542-0.707-0.995-1.013l0.628,1.115c-2.081,1.005-0.719-1.522-2.26-1.522c0.677,2.176,2.4,4.711,1.812,6.379
	c-2.037,0.348-0.685-3.899-2.497-1.674l0.777-2.58c-3.213,1.971,0.225-1.567-3.213,0.244c-0.591,3.395,1.038,3.797,0.442,7.184
	c1.134,0.762,1.676-0.252,2.81,0.51c2.034,4.813-5.124,3.789-2.41,7.327c1.358,0.916,3.936,1.271,2.572,3.791l-2.305-0.858
	c-0.229,3.285,3.313,1.876,1.763,5.317c-0.905-0.612-0.764-2.583-1.037-2.086c-1.819,2.229,1.307,1.578,1.307,3.291L2.353,99.79
	c0.321,3.499,1.795,7.354,2.167,11.229c-0.606-0.214-1.245-0.879-1.869,0.028c1.02,4.888-0.249,10.435-1.459,15.147l1.761,1.802
	c-0.02,0.419-0.796,0.776-1.137,0.323c-0.668,1.836,1.117,0.096,1.81,0.979c0.122,1.045-1.014,1.381-1.541,0.719
	c1.492,3.242,3.216,9.234,1.33,12.65l-0.523-0.666c-0.715,2.66,3.609,3.002,1.967,5.469l-0.312-0.473
	c-0.763,5.771,0.85,12.152-1.81,16.558c2.537,0.839-1.131,5.714,2.407,6.086c-1.754,3.296-2.387,2.353-3.563,6.995
	c-0.163,1.24,2.209,1.848,2.578,3.381l-1.85,0.038l1.939,2.081l-2.211,1.105l0.474,1.438c0.11-0.573,0.831-1.217,1.362-1.13
	c0.839,2.246-1.287,5.475-2.235,5.53l1.565,5.313c-0.744-0.119-0.999-1.009-1.475-1.712c1.888,2.837-1.948,0.515-0.219,3.114
	c0.421-0.35,1.102,0.188,1.476,0.247c-1.117,1.296-1.128,4.245-0.655,6.427l-1.275-0.418c-0.325,3.939,0.611,8.309,0.588,12.73
	c0.593-1.588,2.803-1.223,3.017,0.074l-1.956,0.521c1.21,0.836,0.738-1.355,2.218,0.361c-0.227,1.652-2.224,1.111-2.86,0.162
	l0.679,2.01c-0.583,0.117-0.891-0.354-1.635-0.477c1.214,0.825-1.961,3.469,0.147,4.656l-0.582,0.113
	c-0.017,4.422,0.656,6.428,0.754,10.029c1.688,0.069,1.313,1.479,2.677,2.551c-0.54,2.646-1.865,5.586-1.721,8.774
	c0.839,2.241,1.428,0.655,2.431,1.662c-1.536,0.165-1.393,3.351-2.497,1.697c0.25,3.827,0.308,4.891,1.556,9.729
	c0.628-0.524,0.902-1.115,1.427-0.811c0.252,0.879-0.645,2-1.383,1.872l-0.159-0.229c2.305,5.435-4.48,12.541-1.276,16.868
	l-0.159-0.243l1.669,4.487c-0.265,2.063-1.153-1.237-2.106,0.29c1.283,2.42,1.189,4.332,0.99,6.137
	c-0.1,0.902-0.227,1.779-0.222,2.68c0.041,1.056,0.239,2.209,0.731,3.359c-1.102,1.021-1.378,2.426-1.378,4.012
	c-0.019,0.797,0.191,1.609,0.41,2.449c0.241,0.834,0.479,1.704,0.852,2.535c0.749,1.667,1.533,3.334,2.313,4.864
	c0.681,1.582,1.313,3.032,1.402,4.558l0.744-0.828c0.794,0.293,0.869,0.711,0.804,1.193c-0.047,0.466-0.246,0.997-0.043,1.477
	c0.582-0.604-0.083-1.727,0.885-1.393c3.728,4.184,7.581,8.313,12.343,11.854c0.576,0.472,1.194,0.875,1.823,1.273l1.892,1.218
	c1.3,0.744,2.652,1.441,4.029,2.103l2.127,0.847c0.716,0.271,1.431,0.567,2.173,0.745c0.738,0.204,1.48,0.396,2.228,0.581
	c0.373,0.09,0.747,0.19,1.123,0.261l1.133,0.162c2.207,0.257,2.969-1.086,3.48-2.196c0.596-1.099,1.304-1.913,3.459-0.64
	l-1.223,1.98c6.899-2.375,14.108,0.084,20.863-1.935c-0.402,0.457-0.414,1.052-1.073,1.045c1.427,1.438,5.276,0.067,5.301-1.104
	c1.051,0.134,0.244,1.063,0.892,1.66c1.432,0.851,3.591-1.84,4.353-0.406c0.13,0.232-0.402,0.469-0.664,0.578
	c0.933-0.696,4.345,0.179,3.452-1.482c2.534,0.793,4.85-0.737,6.872,0.245c1.318-1.857,4.34,0.894,4.759-1.732
	c-0.183,2.714,4.443,2.188,6.047,0.912c-0.536,0.82,1.395,0.851,0.766,1.986c1.829-0.039,3.505-0.543,3.188-1.938
	c3.37,3.247,6.773-2.613,8.671,1.549c5.435-1.459,10.463-2.447,15.351-3.08c-0.176,2.705-5.402,0.271-5.192,3.109
	c4.637-1.115,7.312-3.438,11.909-2.785c1.191,0.371-0.675,1.176-1.077,1.637c4.633-1.114,8.958,0.246,13.08-1.229
	c-0.012,0.253-0.456,0.525-0.877,0.732c0.813-0.088,1.891,0.398,1.799-0.834l-0.792,0.336c-1.299-1.786,3.226-3.729,3.371-4.674
	c-1.38,3.525,4.071,0.887,1.882,5.34c0.535-0.229,1.205-0.813,1.083-1.635c0.793,0.238,1.045,0.719,0.239,1.654
	c2.91-0.669,1.876-1.979,4.514-1.949c-0.009,0.596-0.541,0.825-0.814,1.525c1.335-1.159,2.676-2.323,4.904-1.818
	c-0.134,0.358,0.124,0.826-0.54,0.816c3.827-0.182,6.522-3.094,10.72-1.973c-1.237,2.589,1.429,0.854,1.65,3.094l2.258-0.669
	l-0.906-1.087c1.978,0.037,3.726-1.594,5.426-0.858l-1.471,0.922l3.706-0.425l-2.097-0.852c2-1.152-0.215-2.834,2.417-2.209
	c-0.535,0.229,1.978,0.026,3.008,1.349c0,0-0.007,0-0.007,0.006c0.979-0.713,1.985-1.463,3.447-0.907
	c0.38,0.717-0.306,2.478-0.059,2.952c0.965-1.872,4.631-0.521,5.854-2.515c-0.408,0.47-0.43,1.645-0.295,1.887l0.81-1.521
	c0.916,0.485,1.05,0.724,0.902,1.658c2.755,0.279-0.876-2.841,2.394-1.615c-0.257,0.123-0.134,0.353-0.669,0.58
	c3.285,0.64,6.346-0.965,9.364-0.217c0.89,2.254-2.637,0.553-1.618,2.453c4.351-0.408,9.011-2.701,13.221-2.17l-0.785-0.249
	c0.584-3.185,3.137,1.573,5.267,0.073c-0.521,0.232-0.685,1.765-0.543,1.408c2.884,0.513,5.896-0.78,10.265-1.78l-0.541,0.815
	c1.699,0.729,4.476,0.42,6.312,0.793c0.545-0.815,1.594-0.684,0.957-1.873c5.658,4.656,10.796-2.496,15.817,1.384
	c-0.6,0.01-1.431,0.716-0.954,0.72l4.278-0.754c-0.338-1.389-0.561-0.841-1.459-1.919c0.541-0.822,1.749-1.46,2.809-1.46
	c-1.924,0.92,0.018,2.229,0.849,3c-0.141-0.426,0.145-0.895,0.074-1.324c2.234,2.467,0.375-2.79,3.426-1.128l-0.162,0.728
	c1.142-0.371,2.194-1.334,3.426-1.125c0.51,1.604-1.216,0.748-1.294,2.067c1.729-0.094,3.412-3.039,4.977-1.44
	c-0.733,0.447-1.79,0.455-2.524,0.898c1.705,1.883,1.902,1.403,3.169,1.703l-0.125-0.043l2.928,0.854l-0.745-0.512
	c2.164-4.182,4.406-0.765,7.322-3.502c-2.834,2.594-0.468,1.5-0.686,3.314c0.744,0.506,1.876,1.07,1.554,1.582
	c1.378-1.467,2.3,1.156,4.245-0.988c0.087,0.587,1.474,0.059,1.163,1.525c1.792-0.459-0.423-1.018-0.273-1.752
	c2.761-1.998,6.491,2.424,10.463-0.316c3.425-1.131,4.061-3.104,7.237-4.086c1.071,0.938-0.879,2.132-0.879,2.132
	c1.73,0.86,3.032,0.703,4.664,0.032c-0.33,0.512,0.01,0.941,0.508,1.602c1.308-0.152,0.875-2.131,2.601-1.27
	c-0.296,0.652-0.676,1.695-1.308,2.351c1.543-0.538,3.064-1.63,4.662-2.157c0.424,1.021-0.964,1.547-1.525,2.213
	c1.794-0.459,4.648-0.926,5.203-2.537l-1.151-0.576c0.654-0.077,0.336,1.387-0.146,1.682c-1.539,1.266-2.219-0.563-2.306-1.146
	l1.138-0.375c-1.168-3.433-4.567,0.551-6.856,0.353l0.954-2.496l-2.348,2.07c-0.5-0.649-0.84-2.044,0.289-2.417
	c-1.642-1.232-1.453,0.889-2.862-0.486c-0.155-0.215-0.085-0.334,0.06-0.435l-1.604,0.743c0.313-0.523-0.268-1.762,0.718-1.4
	c-2.878-1.439-4.642,1.871-5.724-0.021l0.24-0.152c-3.994,0.845-0.387,1.833-3.381,3.982l-2.017-4.521l-0.393,1.831
	c-0.412-0.065-1.228-0.202-1.076-0.936c-1.533,1.254,0.262,0.797-0.629,1.979c-1.982-1.669-5.466,0.779-5.913-2.139
	c-0.712,1.394,1.896,1.074-0.221,2.043c-0.604-3.141-2.447,0.537-4.258-0.901c0.556-1.62,2.271-0.763,0.46-2.207
	c-1.094,2.735-3.528-0.603-5.056-0.076c-0.071,2.181-3.321,0.909-5.886,1.636c0.162-0.732-4.824-1.197-7.209-1.986l0.071-0.364
	c-0.462,2.202-2.923,1.786-4.714,2.242c0.07-1.317,0.393-1.839,1.362-2.429l-1.684,0.01c-0.397,0.705-0.922,1.078-2.015,1.33
	l0.424-1.646c-2.241,0.091-4.515,1.938-7.397,0.841c-0.162,1.535,2.293,4.277-0.756,5.303c-0.113-0.83-0.226-2.25,0.572-2.592
	c-0.262,0.11-0.933,0.69-1.458,0.336l1.217-1.396c-1.313-0.613-0.687,1.169-1.736,1.037c0.021-1.186-0.776-0.846-0.627-1.784
	c0.269-0.115,0.916,0.487,1.318,0.022c-1.185-0.213-2.615-0.914-3.088-1.813c0.103,0.674,0,1.596-0.867,1.749
	c-2.241,0.087-0.767-1.426-2.074-2.034c-0.543,0.823-1.973-0.029-2.011,1.742c-0.656-0.011-0.777-0.837-1.03-1.314
	c-1.16,0.78-5.418,0.224-4.111,2.106l0.299,0.124c-0.057,0.036-0.122,0.038-0.19,0.077h0.009h-0.009
	c-3.802,1.762-7.897-1.005-11.67-0.243l0.006-0.596c-2.252,0.679-5.012,0.4-6.62,1.677c-0.666-0.003-1.571-1.081-1.288-1.788
	c-1.721,0.443-1.914,1.109-4.399,0.134c1.73-1.034-0.599-0.916,1.772-0.757c-2.235-0.513-2.743-1.461-5.145,0.158
	c0.817-1.518-1.684-1.911-2.747-1.456l1.568,1.085c-1.196,0.222-2.241,0.086-3.304-0.044l0.574-1.995
	c-4.577-2.43-8.254,4.133-11.739,0.066c-1.21,1.396,2.486,0.981,1.404,2.615c-2.106-0.27-4.299-3.135-4.959-3.141
	c-2.883-1.105-2.691,2.917-5.709,2.16c0.387,0.711,0.751,2.611-1.505,3.281c-2.107-0.264-2.589-2.985-1.259-3.558
	c0.505-0.062,0.749,0.166,0.728,0.407c0.68-0.259,1.573-0.564,0.739-1.337l-0.273,0.713c-1.045-0.728-3.943-0.649-3.263-1.817
	c-1.592,0.678-0.681,1.168,0.498,1.537c-2.702-1.033-4.222-0.031-7.003-0.725c0.441,0.393,0.85,1.229,0.409,1.222
	c-4.079-0.883-1.796,1.351-4.562,1.662c-1.569-1.085,0.563-2.592-2.22-1.683c-1.699-0.734-0.359-1.891,0.316-2.471
	c-2.535,1.373-4.737-0.901-6.186-1.154l1.335-0.572c-0.799,0.342-1.452,0.331-2.118,0.327l0.763,1.425
	c-0.784-0.249-1.448-0.253-1.434-0.848c-0.808,0.934,0.618,2.369-0.984,3.646c-1.047-0.725-3.185,0.775-3.546-1.112
	c3.288,0.643-0.362-1.897,2.421-2.203c-0.537,0.227-1.192,0.217-1.979-0.033c-0.118-0.213,0.111-0.393,0.325-0.5
	c-3.146-1.688-1.445,2.138-4.706,2.095c0.414-1.065-0.756-2.021-1.288-1.793c1.314,0.021,0.629,1.774-0.577,2.593
	c-2.09-0.83-2.271,0.616-3.367,0.52l1.25,0.392c-0.423,1.063-1.469,0.927-2.926,1.261c-0.125-0.828,1.323-0.57,0.803-0.936
	c-1.617,1.871-3.655-1.938-5.911-0.678c-1.047-0.721-0.102-2.002-1.02-2.489c-2.529,1.382-2.739-1.459-5.396-0.317
	c0.766,1.432,0.899,1.081-0.972,2.477l4.369-1.008l-2.804,2.082c1.317,0.021,2.782-0.897,3.572-0.656
	c-1.337,1.168-1.198,0.813-0.567,2c-1.805-2.146-3.578,1.25-5.663-0.198l0.063-3.543c-3.136-1.581-5.571,1.815-9.644,0.927
	l1.308,0.615c-0.546,1.406-2.513,0.195-3.831,0.768c0.121-1.185-0.702-1.615-1.265-2.353c0.068,0.879-2.98-0.08-3.351,2.284
	l-1.818-1.561c-3.287-0.64-3.752,3.375-6.912,2.973c0.952-1.289-0.484-2.127,1.632-3.049c-1.055-0.013-2.004-0.229-2.021,0.592
	c-0.616-0.739-2.925,1.598-3.896,0.473c-0.444,0.521-0.59,1.762-1.774,1.663c-0.129-0.24,0.005-0.585,0.005-0.585
	c-0.005,0.585-1.855,0.796-0.819,2.105c-3.251-3.695-9.086,0.271-11.916-2.904c-2.303,0.396-5.078,0.777-7.168,0.863
	c0.134-0.354,0.006-0.59,0.402-0.467c-2.884-1.104-1.773,3.4-5.055,2.17c-1.677-1.914,1.742-1.035,0.697-1.76
	c-0.456-3.898-3.961,0.529-6.17-1.744l0.535-0.229c-1.688-1.323-4.119,1.478-6.877,1.197c0,0,0.134-0.345,0.016-0.588
	c-1.886,1.987-5.457,2.646-8.109,3.196c0.826-1.524,1.206-0.808,0.702-2.356c-1.19,0.221,0.348,2.489-2.026,2.924
	c-0.772-0.836-2.485-1.564-2.712-3.219l2.24-0.09c-1.147-2.141-2.899,0.073-4.079-0.299l0.15-0.938
	c-0.842,0.072-1.541,0.291-2.013,0.531c-0.456,0.233-0.841,0.531-1.245,0.814c-0.403,0.281-0.827,0.551-1.357,0.729
	c-0.527,0.139-1.158,0.145-1.969-0.019l0.228,0.751c-1.107,1.004-1.483,0.646-1.764,0.134c-0.302-0.493-0.533-1.05-1.662-0.442
	c0.03-0.807,0.076-1.607,0.137-2.406c-0.628,0.123-1.74,0.279-3.058,0.408c-0.648,0.043-1.31-0.01-1.974-0.061
	c-0.656-0.064-1.315-0.135-1.838-0.355c1.974-0.869,4.543-0.674,6.234-1.229c-0.254-0.1-0.601-0.217-0.994-0.324
	c-0.396-0.103-0.842-0.191-1.262-0.313c-0.855-0.204-1.741-0.248-2.291,0.138c0.53-0.001,1.297-0.277,1.538,0.245
	c-1.01,0.526-2.125,0.836-3.171,0.685c-0.531-0.059-1.068-0.188-1.604-0.385c-0.544-0.188-1.017-0.542-1.514-0.906
	c1.534-1.738,0.472-2.791-0.641-4.107c-0.611-0.604-1.164-1.354-1.519-2.104c-0.374-0.736-0.417-1.578,0.069-2.426
	c-0.441-0.238-0.843-0.525-1.208-0.844c-0.341-0.332-0.605-0.725-0.862-1.12c-0.242-0.405-0.503-0.808-0.657-1.265
	c-0.155-0.455-0.291-0.922-0.42-1.392l-0.189-0.706c-0.049-0.238-0.073-0.49-0.113-0.736c-0.072-0.49-0.15-0.98-0.247-1.469
	c-0.111-0.481-0.115-1-0.222-1.492c-0.072-0.504-0.254-0.986-0.349-1.504c-3.249,2.219-0.299-1.22-3.868-0.396
	c-0.414-1.083-0.412-1.528-0.161-1.648c0.337-0.604,0.675-1.185,1.012-1.742l0.501-0.82l0.546-0.951
	c1.071-0.922,0.801,1.234,1.64,1.048c0.266-2.688,1.552-1.139,2.522-2.948c-1.313,0.375-1.88-0.961-1.379-2.535l-1.691,2.217
	c-1.953-3.857,3.079-3.335,1.145-7.225l1.155,1.229c-0.681-1.996,0.023-7.363-2.924-9.32c0.423-0.354,1.427-0.817,1.691,0.06
	c0.442-4.771-3.136-10.617-1.32-14.324l0.896,0.361c-0.259-0.892-1.686-1.551-0.781-2.664c0.369,0.059,0.895,0.357,0.947-0.055
	c-0.309-0.471-1.571-2.361-1.049-3.543l1.009,1.01c1.176-4.654-2.458-7.143-3.072-11.043c2.641,0.01,3.499-3.65,3.927-5.479
	l0.374,0.063c0.326-5.418-2.189-9.203-3.227-14.223c2.867-3.113,1.199-10.55,2.809-15.555c-0.48,0.765-2.059-0.125-2.323-1.016
	c0.535-1.176-1.833-3.248,0.59-3.062l-0.047,0.418c2.376-0.885,1.743-3.299,1.809-5.185l-3.168-0.313
	c4.608-4.93-1.692-12.918,2.436-15.607c-0.793-1.188-0.783-2.662-1.575-3.843l1.699,0.064c0.434-3.298,0.646-4.943,0.242-9.019
	l1.214,0.832c0.107-2.3-4.898-2.902-4.998-5.021l2.536-0.641c-0.04-4.009,2.187-8.065-0.113-12.027
	c0.37,0.064,1.104,0.182,1.207,0.832c0.066-1.889,1.717-7.301-1.764-6.616c2.266-0.046,0.221-4.138-0.778-6.302l1.672,0.337
	c-2.136-1.828-2.72-1.888-3.312-4.438c0.218-0.604,1.339-0.529,0.91,0.273c0.876-2.018-1.584-1.571-0.692-4.016l1.067,0.91
	c0.13-2.072-0.443-1.908-1.688-3.051c-0.671-1.303,0.422-3.934,1.934-4.238c-0.922-0.279-2.154-1.416-1.719-2.639
	c0.572-0.165,0.926,0.28,1.099,0.504c1.139-3.467-1.943-5.156-0.302-7.541c0.554-0.05,0.831-0.205,0.998-0.4
	c-0.042,2.754-0.132,4.974-0.254,4.766c1.541,0,1.813-2.227,3.941-0.455c-1.162-1.786-3.688-4.84-2.962-7.009
	c0.148-0.106,0.295-0.208,0.532-0.287l0.173,0.224c0.153-0.5,0.011-0.949-0.248-1.371c0.253-0.691,0.44-1.131,0.464-1.796
	c1.274-0.257,0.687-2.552,0.749-3.661c-1.688,0.092-1.415-1.36-2.809,0c0.121-0.176,0.202,0.21,0.272,0.947
	c0.049,0.167,0.075,0.363,0.174,0.475c-0.042-0.021-0.093-0.048-0.148-0.076c0.05,0.729,0.086,1.679,0.113,2.759
	c-0.856-0.877-1.577-1.793-0.641-3.021c-1.084-0.568-2.199-1.195-2.723-1.549c2.354-1.518,3.624-4.443,5.074-4.852
	c-0.946-3.389-0.624-7.981-3.792-10.112c-0.408-0.963,0.908-1.105,1.406-1.467c0.318,0.556,0.269,1.217,0.725,1.519
	c-0.813-1.926-0.315-5.707-2.529-6.166c0.999-2.428,2.037,1.364,1.676-1.972l0.677,0.451c3.537-6.563-5.651-10.668-1.109-17.943
	c-0.277,0.504-0.406,0.756-0.777,0.859c2.003-8.294-1.879-17.092,1.296-25.275c0.641-2.327-0.773-2.579-1.848-3.999l1.812-0.504
	l-2.09-2.427c-1.531-3.442,4.445-5.961,1.551-10.319l-1.22,0.563c0.229-1.565-0.72-4.957,0.684-4.696
	c-0.223-0.16-1.27-0.513-0.633-1.125l0.948-0.048l-1.625-3.845c0.686-2.98,3.763,0.467,3.948-3.883
	c-0.365-1.616-2.761-4.604-3.395-3.996c-0.047,0.65-0.592,1.667-1.541,1.716l-0.494-1.479C7.31,3.806,4.45,2.668,2.499,6.299
	l1.708,2.529L2.852,9.644L2.767,7.515c-1.274,1.207-0.146,1.973,0.627,2.83c-0.721,0.203-1.225,0.558-1.493,1.06l2.667,2.484
	c-1.091,0.31-2.167-1.105-2.771,0.561c1.239,1.164,2.45-1.115,3.263,0.811c-1.268,1.211-2.304,0.856-1.218,2.276
	c-0.72,0.2-1.178-0.101-1.494-0.664c0.863,1.265,0.365,3.346,1.849,3.998c-1.566,1.262,0.408,4.27-2.235,4.146
	c0.633,0.396,2.076,2.227,2.186,3.388c-3.166-2.121-0.186,4.346-3.58,3.786c2.847,1.569,1.265,5.671,2.844,8.451
	c-0.227-0.155-0.685-0.461-0.539-0.706c-0.237,1.563-1.096,2.02-1.633,3.024c2.352,0.201,2.89,2.641,4.34,3.953
	c-2.269,1.918-2.762-1.165-4.94-0.563c1.906-0.097,1.902,3.333,3.49,2.681c-1.404,1.467-0.683,1.264-2.632,2.02
	c2.94,0.258,0.5,1.366,2.305,2.583c-1.449,2.124-2.754,0.548-1.86,2.88C1.043,57.625,0.001,55.552,0.001,55.552 M5.084,111.027H5.05
	c-0.04-0.478-0.074-0.886-0.095-1.145C4.981,110.12,5.02,110.451,5.084,111.027 M5.109,115.688c0.066-0.566,0.078-1.273,0.066-2.021
	c0.581-0.164,1.182,0.013,1.151,0.481C5.938,113.894,5.603,114.994,5.109,115.688 M16.798,105.828
	c0.239,0.738-0.092,0.985-0.438,1.087c-0.028-0.349-0.086-0.757-0.201-1.291c-0.063-0.021-0.136-0.064-0.207-0.088
	C16.273,105.607,16.575,105.687,16.798,105.828"/>
</svg>
