<?xml version="1.0" encoding="utf-8"?>
<!-- Generator: Adobe Illustrator 16.0.3, SVG Export Plug-In . SVG Version: 6.00 Build 0)  -->
<!DOCTYPE svg PUBLIC "-//W3C//DTD SVG 1.1//EN" "http://www.w3.org/Graphics/SVG/1.1/DTD/svg11.dtd">
<svg version="1.1" id="Layer_1" xmlns="http://www.w3.org/2000/svg" xmlns:xlink="http://www.w3.org/1999/xlink" x="0px" y="0px"
	 width="45px" height="45px" viewBox="0 0 45 45" enable-background="new 0 0 45 45" xml:space="preserve">
<g>
	<path fill="#3C3C3C" d="M45,7.257c0,1.704-1.343,3.087-3,3.087H3c-1.657,0-3-1.383-3-3.087V7.085C0,5.381,1.343,4,3,4h39
		c1.657,0,3,1.381,3,3.085V7.257z"/>
	<path fill="#3C3C3C" d="M45,22.585c0,1.706-1.343,3.087-3,3.087H3c-1.657,0-3-1.381-3-3.087v-0.17c0-1.706,1.343-3.087,3-3.087h39
		c1.657,0,3,1.381,3,3.087V22.585z"/>
	<path fill="#3C3C3C" d="M45,37.915C45,39.619,43.657,41,42,41H3c-1.657,0-3-1.381-3-3.085v-0.172c0-1.704,1.343-3.087,3-3.087h39
		c1.657,0,3,1.383,3,3.087V37.915z"/>
</g>
</svg>
