<?xml version="1.0" encoding="utf-8"?>
<!-- Generator: Adobe Illustrator 16.0.3, SVG Export Plug-In . SVG Version: 6.00 Build 0)  -->
<!DOCTYPE svg PUBLIC "-//W3C//DTD SVG 1.1//EN" "http://www.w3.org/Graphics/SVG/1.1/DTD/svg11.dtd">
<svg version="1.1" id="pencil" xmlns="http://www.w3.org/2000/svg" xmlns:xlink="http://www.w3.org/1999/xlink" x="0px" y="0px"
	 width="45px" height="45px" viewBox="0 0 45 45" enable-background="new 0 0 45 45" xml:space="preserve">
<g>
	<polygon fill="#82BA41" points="8.01,40.57 10.408,40.424 8.156,38.172 	"/>
	<path fill="#82BA41" d="M12.102,35.981c-0.003-0.002-0.007-0.002-0.009-0.005c-0.003-0.003-0.004-0.007-0.006-0.01
		c-1.681-1.7-2.808-3.037-3.545-4.083l-0.267,4.361l4.059,4.06l4.362-0.267c-1.1-0.776-2.519-1.978-4.347-3.808
		C12.263,36.146,12.184,36.065,12.102,35.981z"/>
	<path fill="#82BA41" d="M29.292,8.556l-3.263,3.262c0.168,0.669,1.592,2.894,4.715,6.017c3.122,3.123,5.348,4.547,6.017,4.715
		l3.263-3.263c-1.994-0.704-4.589-2.894-6.213-4.519C32.187,13.144,29.996,10.549,29.292,8.556z"/>
	<path fill="#3E3C3C" d="M40.723,25.857c-1.395,0-2.53,1.135-2.53,2.53c0,1.395,1.135,2.53,2.53,2.53s2.529-1.135,2.529-2.53
		C43.252,26.991,42.117,25.857,40.723,25.857z M40.723,29.47c-0.598,0-1.084-0.486-1.084-1.084c0-0.598,0.487-1.084,1.084-1.084
		c0.598,0,1.084,0.486,1.084,1.084C41.807,28.984,41.321,29.47,40.723,29.47z"/>
	<g>
		<g>
			<path fill="#3E3C3C" d="M9.606,10.16c0.399,0,0.723-0.323,0.723-0.723V7.992c0-0.399-0.324-0.723-0.723-0.723
				c-0.399,0-0.723,0.323-0.723,0.723v1.445C8.884,9.837,9.207,10.16,9.606,10.16z"/>
			<path fill="#3E3C3C" d="M9.606,11.605c-0.399,0-0.723,0.323-0.723,0.723v1.445c0,0.399,0.323,0.722,0.723,0.722
				c0.399,0,0.723-0.323,0.723-0.722v-1.445C10.329,11.928,10.005,11.605,9.606,11.605z"/>
			<path fill="#3E3C3C" d="M8.161,10.16H6.715c-0.399,0-0.723,0.323-0.723,0.723s0.324,0.723,0.723,0.723h1.446
				c0.398,0,0.723-0.323,0.723-0.723S8.56,10.16,8.161,10.16z"/>
			<path fill="#3E3C3C" d="M12.497,10.16h-1.445c-0.399,0-0.723,0.323-0.723,0.723s0.323,0.723,0.723,0.723h1.445
				c0.399,0,0.723-0.323,0.723-0.723S12.896,10.16,12.497,10.16z"/>
		</g>
	</g>
	<circle fill="#3E3C3C" cx="8.729" cy="22.032" r="0.773"/>
	<path fill="#3E3C3C" d="M41.111,6.827c0.141,0.141,0.326,0.212,0.511,0.212s0.37-0.071,0.511-0.212L42.95,6.01l0.816,0.816
		c0.141,0.141,0.326,0.212,0.511,0.212c0.185,0,0.37-0.071,0.511-0.212c0.282-0.282,0.282-0.74,0-1.022l-0.816-0.816l0.816-0.817
		c0.282-0.282,0.282-0.74,0-1.022s-0.74-0.282-1.022,0L42.95,3.966L42.133,3.15c-0.282-0.282-0.74-0.282-1.022,0
		s-0.282,0.74,0,1.022l0.817,0.817l-0.817,0.816C40.829,6.087,40.829,6.544,41.111,6.827L41.111,6.827z"/>
	<g>
		<path fill="#3E3C3C" d="M37.869,10.679c-2.373-2.373-6.819-5.957-8.433-4.343l-4.599,4.599L7.463,28.309
			c-0.154,0.153-0.304,0.445-0.227,0.976c-0.004,0.024-0.018,0.045-0.019,0.071L6.486,41.296c-0.013,0.207,0.064,0.409,0.21,0.556
			c0.146,0.146,0.349,0.222,0.556,0.209l11.94-0.73c0.025-0.002,0.046-0.016,0.071-0.02c0.53,0.078,0.822-0.072,0.975-0.226
			L37.613,23.71l4.6-4.599C43.826,17.497,40.241,13.052,37.869,10.679L37.869,10.679z M19.356,39.923
			c-0.379-0.095-1.257-0.595-2.514-1.575l16.334-16.333c1.041,0.823,1.852,1.324,2.479,1.609L19.356,39.923z M10.655,32.271
			l16.336-16.336c0.531,0.635,1.173,1.348,1.942,2.146L12.583,34.432C11.824,33.639,11.185,32.915,10.655,32.271z M8.625,29.191
			l16.299-16.299c0.23,0.505,0.601,1.13,1.166,1.9L9.76,31.122C9.07,30.177,8.705,29.508,8.625,29.191z M29.95,19.109
			c0.777,0.769,1.48,1.424,2.112,1.976l-16.34,16.34c-0.644-0.554-1.355-1.206-2.124-1.964L29.95,19.109z M36.731,22.548
			c-0.668-0.168-2.895-1.593-6.017-4.715c-3.123-3.122-4.547-5.348-4.715-6.016l3.263-3.262c0.704,1.993,2.895,4.588,4.519,6.212
			s4.219,3.815,6.213,4.519L36.731,22.548z M36.847,11.701c3.393,3.393,4.431,5.826,4.332,6.375c-0.549,0.1-2.983-0.939-6.376-4.332
			c-3.393-3.393-4.431-5.826-4.331-6.375C31.02,7.269,33.454,8.308,36.847,11.701z M7.979,40.569l0.146-2.398l2.252,2.252
			L7.979,40.569z M12.303,40.304l-4.059-4.06l0.267-4.361c0.738,1.046,1.865,2.382,3.545,4.083c0.002,0.002,0.003,0.006,0.006,0.01
			c0.002,0.002,0.006,0.003,0.009,0.005c0.082,0.083,0.161,0.165,0.247,0.25c1.829,1.83,3.247,3.031,4.347,3.807L12.303,40.304z"/>
		
			<ellipse transform="matrix(0.7069 -0.7073 0.7073 0.7069 1.5002 29.0664)" fill="#3E3C3C" cx="35.824" cy="12.723" rx="0.723" ry="2.77"/>
	</g>
	<g>
		<path fill="#3E3C3C" d="M3.614,39.647c0.399,0,0.722-0.324,0.722-0.723v-1.446c0-0.399-0.323-0.722-0.722-0.722
			c-0.399,0-0.723,0.323-0.723,0.722l0,1.446C2.891,39.323,3.214,39.647,3.614,39.647z"/>
		<path fill="#3E3C3C" d="M0.723,41.093h1.446c0.399,0,0.722-0.323,0.722-0.723c0-0.399-0.323-0.723-0.722-0.723H0.723
			C0.323,39.647,0,39.97,0,40.37S0.323,41.093,0.723,41.093z"/>
		<circle fill="#3E3C3C" cx="4.345" cy="41.129" r="0.772"/>
	</g>
</g>
</svg>
