<?xml version="1.0" encoding="utf-8"?>
<!-- Generator: Adobe Illustrator 16.0.3, SVG Export Plug-In . SVG Version: 6.00 Build 0)  -->
<!DOCTYPE svg PUBLIC "-//W3C//DTD SVG 1.1//EN" "http://www.w3.org/Graphics/SVG/1.1/DTD/svg11.dtd">
<svg version="1.1" id="Layer_1" xmlns="http://www.w3.org/2000/svg" xmlns:xlink="http://www.w3.org/1999/xlink" x="0px" y="0px"
	 width="120px" height="48px" viewBox="0 0 120 48" enable-background="new 0 0 120 48" xml:space="preserve">
<g>
	<path fill="#82BA41" d="M9.016,38.604c-0.046-0.018-0.093-0.034-0.141-0.053c-6.461-2.557-4.821-11.481-3.93-14.564
		c2.361-8.161,7.744-15.948,12.16-15.131c0.503,0.095,0.942,0.28,1.323,0.544c-3.242,0.393-7.504,4.237-9.813,10.082
		c-2.692,6.803-4.604,15.121-2.301,16.452c-0.991-2.157-0.78-5.426,1.159-10.332c3.21-8.114,11.914-16.51,15.785-14.979
		c3.871,1.533,4.461,9.427,1.25,17.54c-3.207,8.113-10.982,12.256-14.854,10.725C9.434,38.8,9.221,38.704,9.016,38.604"/>
	<path fill="#3C3C3C" d="M50.38,21.907h5.541v2.247H50.38V21.907z M109.878,30.883c-0.6,0-1.16-0.062-1.685-0.184
		c-0.526-0.122-0.983-0.352-1.378-0.688c-0.393-0.336-0.707-0.795-0.94-1.377c-0.233-0.58-0.351-1.33-0.351-2.246
		c0-0.918,0.117-1.666,0.351-2.248c0.233-0.578,0.558-1.039,0.97-1.375c0.412-0.338,0.899-0.566,1.461-0.688
		c0.561-0.122,1.179-0.183,1.854-0.183c0.432,0,0.848,0.027,1.251,0.084c0.401,0.057,0.781,0.121,1.138,0.195v-1.123
		c0-1.123-0.265-1.871-0.787-2.246c-0.523-0.375-1.244-0.563-2.162-0.563h-2.811v-1.404c0.432-0.149,0.961-0.281,1.587-0.394
		c0.63-0.112,1.224-0.169,1.784-0.169c0.954,0,1.788,0.066,2.501,0.197c0.711,0.131,1.312,0.369,1.796,0.717
		c0.487,0.345,0.854,0.831,1.096,1.46c0.244,0.626,0.367,1.428,0.367,2.401V30.6h-2.389l-0.421-0.842h-0.142
		c-0.301,0.279-0.692,0.537-1.181,0.771C111.3,30.762,110.664,30.883,109.878,30.883 M112.548,23.86h-1.545
		c-0.244,0-0.492,0.037-0.746,0.112c-0.254,0.074-0.478,0.209-0.675,0.406c-0.194,0.196-0.358,0.459-0.491,0.787
		c-0.131,0.327-0.194,0.734-0.194,1.221c0,0.488,0.063,0.895,0.194,1.223c0.133,0.328,0.297,0.591,0.491,0.787
		c0.197,0.195,0.421,0.332,0.675,0.406c0.254,0.076,0.502,0.113,0.746,0.113c0.354,0,0.664-0.058,0.926-0.171
		c0.263-0.11,0.468-0.243,0.619-0.394V23.86z M103.884,14.873h-3.371v-3.371h3.371V14.873z M103.884,31.725
		c0,0.992-0.117,1.797-0.351,2.416c-0.233,0.617-0.548,1.099-0.94,1.445c-0.395,0.346-0.854,0.586-1.375,0.715
		c-0.524,0.133-1.088,0.197-1.688,0.197c-0.563,0-1.081-0.057-1.559-0.168c-0.479-0.113-0.896-0.244-1.248-0.395v-1.404h1.965
		c0.486,0,0.912-0.219,1.275-0.658c0.367-0.439,0.549-1.156,0.549-2.148V16.557h3.371V31.725L103.884,31.725z M96.064,18.243
		c-0.431,0-0.813,0.079-1.151,0.237c-0.337,0.16-0.633,0.441-0.884,0.844c-0.252,0.402-0.444,0.951-0.576,1.645
		c-0.131,0.692-0.196,1.563-0.196,2.61s0.069,1.919,0.211,2.612c0.142,0.691,0.342,1.24,0.604,1.643
		c0.262,0.403,0.584,0.684,0.969,0.844c0.385,0.158,0.819,0.24,1.307,0.24h3.09v1.402c-0.432,0.15-0.969,0.279-1.615,0.393
		s-1.324,0.17-2.035,0.17c-0.992,0-1.854-0.131-2.586-0.395c-0.729-0.264-1.343-0.684-1.839-1.264
		c-0.497-0.582-0.865-1.334-1.108-2.262c-0.244-0.928-0.365-2.056-0.365-3.385c0-1.328,0.121-2.455,0.365-3.385
		c0.243-0.926,0.604-1.682,1.082-2.262c0.477-0.58,1.063-1,1.756-1.264c0.691-0.263,1.498-0.394,2.414-0.394
		c0.713,0,1.391,0.056,2.035,0.169c0.646,0.111,1.186,0.243,1.616,0.395v1.403h-3.092V18.243z M82.347,30.883
		c-0.598,0-1.16-0.062-1.686-0.184c-0.523-0.122-0.982-0.352-1.377-0.688c-0.391-0.336-0.705-0.795-0.939-1.377
		c-0.233-0.58-0.352-1.33-0.352-2.246c0-0.918,0.117-1.666,0.352-2.248c0.234-0.578,0.558-1.039,0.971-1.375
		c0.41-0.338,0.896-0.566,1.46-0.688c0.562-0.122,1.18-0.183,1.854-0.183c0.428,0,0.848,0.027,1.248,0.084
		c0.401,0.057,0.782,0.121,1.137,0.195v-1.123c0-1.123-0.262-1.871-0.784-2.246c-0.525-0.375-1.246-0.563-2.163-0.563h-2.809v-1.404
		c0.431-0.149,0.957-0.281,1.586-0.394c0.627-0.112,1.223-0.169,1.785-0.169c0.953,0,1.785,0.066,2.498,0.197
		c0.711,0.131,1.312,0.369,1.797,0.717c0.486,0.345,0.852,0.831,1.098,1.46c0.24,0.626,0.363,1.428,0.363,2.401V30.6h-2.389
		l-0.421-0.842h-0.142c-0.299,0.279-0.691,0.537-1.18,0.771C83.771,30.764,83.136,30.883,82.347,30.883 M85.015,23.86h-1.543
		c-0.244,0-0.492,0.037-0.746,0.112c-0.252,0.074-0.478,0.209-0.674,0.406c-0.195,0.196-0.358,0.459-0.492,0.787
		c-0.131,0.327-0.194,0.734-0.194,1.221c0,0.488,0.063,0.895,0.194,1.223c0.134,0.328,0.297,0.591,0.492,0.787
		c0.196,0.195,0.422,0.332,0.674,0.406c0.254,0.076,0.502,0.113,0.746,0.113c0.355,0,0.664-0.058,0.926-0.171
		c0.264-0.11,0.47-0.243,0.617-0.394V23.86z M73.826,18.944v7.162c0,0.563,0.056,1.024,0.169,1.392
		c0.112,0.364,0.258,0.65,0.436,0.855c0.18,0.207,0.375,0.352,0.59,0.436c0.216,0.084,0.428,0.129,0.633,0.129h2.527v1.402
		c-0.168,0.074-0.387,0.145-0.662,0.21c-0.27,0.065-0.562,0.126-0.868,0.183c-0.31,0.059-0.623,0.1-0.94,0.127
		c-0.318,0.027-0.617,0.043-0.898,0.043c-0.6,0-1.161-0.066-1.688-0.197c-0.523-0.131-0.982-0.369-1.375-0.717
		c-0.393-0.346-0.707-0.828-0.939-1.445c-0.233-0.618-0.352-1.424-0.352-2.416v-7.162h-1.547V16.84h1.547v-3.371h3.369v3.371h3.791
		v1.543c-0.432,0.15-0.968,0.283-1.613,0.396c-0.646,0.111-1.326,0.167-2.037,0.167h-0.142V18.944z M61.691,19.928
		c0,0.486,0.165,0.885,0.493,1.195c0.326,0.307,0.732,0.578,1.223,0.813c0.484,0.232,1.016,0.463,1.585,0.688
		c0.571,0.227,1.103,0.5,1.589,0.829c0.485,0.327,0.893,0.749,1.221,1.265c0.328,0.515,0.49,1.166,0.49,1.953
		c0,0.84-0.119,1.533-0.363,2.075c-0.244,0.544-0.619,0.974-1.123,1.294c-0.506,0.316-1.14,0.537-1.897,0.659
		c-0.757,0.122-1.642,0.183-2.651,0.183c-0.713,0-1.392-0.057-2.037-0.168c-0.646-0.113-1.186-0.242-1.614-0.394v-1.403h3.088
		c1.067,0,1.875-0.15,2.417-0.451c0.543-0.299,0.814-0.806,0.814-1.517c0-0.487-0.164-0.885-0.494-1.194
		c-0.325-0.308-0.731-0.578-1.219-0.813c-0.488-0.232-1.018-0.465-1.588-0.688c-0.572-0.226-1.102-0.502-1.588-0.828
		c-0.486-0.328-0.895-0.744-1.221-1.252c-0.329-0.502-0.492-1.16-0.492-1.965c0-0.768,0.121-1.404,0.365-1.91
		c0.242-0.506,0.594-0.908,1.053-1.207c0.459-0.301,1.031-0.512,1.714-0.633s1.464-0.183,2.347-0.183
		c0.711,0,1.39,0.056,2.035,0.169c0.646,0.111,1.184,0.243,1.614,0.395v1.403H64.36c-0.785,0-1.426,0.14-1.924,0.421
		C61.941,18.944,61.691,19.367,61.691,19.928 M48.091,15.153h-3.369v-3.37h3.369V15.153z M48.091,30.883h-3.369V16.84h3.369V30.883z
		 M38.237,16.557c0.693,0,1.334,0.132,1.924,0.394c0.59,0.263,1.096,0.685,1.518,1.265s0.748,1.336,0.983,2.262
		c0.233,0.927,0.351,2.056,0.351,3.385s-0.116,2.458-0.351,3.385c-0.235,0.928-0.571,1.682-1.012,2.26
		c-0.44,0.582-0.974,1.004-1.601,1.267c-0.627,0.262-1.324,0.394-2.093,0.394c-0.485,0-0.931-0.066-1.333-0.197
		s-0.754-0.299-1.053-0.506v3.717H32.2V16.84h2.389l0.42,0.842h0.142c0.301-0.279,0.692-0.537,1.18-0.771
		C36.814,16.676,37.451,16.557,38.237,16.557 M35.569,28.635c0.148,0.149,0.355,0.281,0.617,0.394
		c0.263,0.112,0.572,0.169,0.928,0.169s0.688-0.08,0.997-0.238c0.31-0.16,0.575-0.441,0.801-0.844
		c0.226-0.4,0.402-0.949,0.533-1.645c0.131-0.69,0.196-1.563,0.196-2.61s-0.065-1.919-0.196-2.612s-0.31-1.24-0.533-1.643
		c-0.226-0.402-0.491-0.684-0.801-0.844c-0.31-0.158-0.642-0.238-0.997-0.238s-0.65,0.059-0.884,0.169
		c-0.234,0.112-0.454,0.243-0.66,0.394L35.569,28.635L35.569,28.635z"/>
</g>
</svg>
