<?xml version="1.0" encoding="utf-8"?>
<!-- Generator: Adobe Illustrator 16.0.3, SVG Export Plug-In . SVG Version: 6.00 Build 0)  -->
<!DOCTYPE svg PUBLIC "-//W3C//DTD SVG 1.1//EN" "http://www.w3.org/Graphics/SVG/1.1/DTD/svg11.dtd">
<svg version="1.1" id="Layer_1" xmlns="http://www.w3.org/2000/svg" xmlns:xlink="http://www.w3.org/1999/xlink" x="0px" y="0px"
	 width="30px" height="48px" viewBox="0 0 30 48" enable-background="new 0 0 30 48" xml:space="preserve">
<g>
	<path fill="#82BA41" d="M8.683,38.604c-0.046-0.018-0.093-0.034-0.141-0.053c-6.461-2.557-4.821-11.481-3.93-14.564
		c2.361-8.161,7.744-15.948,12.16-15.131c0.503,0.095,0.942,0.28,1.323,0.544c-3.242,0.393-7.504,4.237-9.813,10.082
		C5.59,26.286,3.678,34.604,5.981,35.935c-0.991-2.157-0.78-5.426,1.159-10.332c3.21-8.114,11.914-16.51,15.785-14.979
		c3.871,1.533,4.461,9.427,1.25,17.54c-3.207,8.113-10.982,12.256-14.854,10.725C9.101,38.8,8.888,38.704,8.683,38.604"/>
</g>
</svg>
