<?xml version="1.0" encoding="utf-8"?>
<!-- Generator: Adobe Illustrator 16.0.3, SVG Export Plug-In . SVG Version: 6.00 Build 0)  -->
<!DOCTYPE svg PUBLIC "-//W3C//DTD SVG 1.1//EN" "http://www.w3.org/Graphics/SVG/1.1/DTD/svg11.dtd">
<svg version="1.1" id="Layer_1" xmlns="http://www.w3.org/2000/svg" xmlns:xlink="http://www.w3.org/1999/xlink" x="0px" y="0px"
	 width="380px" height="75px" viewBox="0 0 380 75" enable-background="new 0 0 380 75" xml:space="preserve">
<g opacity="0.3" enable-background="new    ">
	<path fill="#C97AF8" d="M379.877,24.984c0,0-2.008-18.268-26.612-20.805C328.661,1.642,7.714-3.436,5.873,3.5
		c0,0-3.374,2.375-4.547,19.499C0.337,37.423-2.856,62.472,5.298,67.441c8.865,5.401,354.194,13.014,364.034,1.69
		C378.445,58.645,379.877,37.161,379.877,24.984z"/>
</g>
<g enable-background="new    ">
	<path fill="#D08BF9" d="M373.602,45.979c0.109-0.384,0.235-0.993,0.353-1.475C373.739,45.926,373.611,46.611,373.602,45.979z"/>
	<path fill="#D08BF9" d="M375.693,25.975c0.006,2.603-0.076,5.968-0.365,9.318c-0.277,3.351-0.785,6.682-1.374,9.212
		c0.319-2.286,0.677-6.527,0.868-10.391C375.043,30.251,375.155,26.764,375.693,25.975z"/>
	<path fill="#D08BF9" d="M371.753,46.6c0,0,0.365-1.547,0.688-3.107c0.151-0.783,0.303-1.566,0.418-2.154
		c0.1-0.59,0.166-0.983,0.166-0.983C372.826,44.092,372.423,43.354,371.753,46.6z"/>
	<path fill="#D08BF9" d="M373.131,44.468l0.325,0.386c0,0-0.241,0.831-0.482,1.662c-0.245,0.83-0.53,1.646-0.53,1.646
		s0.048-0.229,0.121-0.574c0.074-0.345,0.174-0.805,0.247-1.269C372.97,45.394,373.131,44.468,373.131,44.468z"/>
	<path fill="#D08BF9" d="M41.583,71.031c0.701,0.191,1.131,0.386,0.784,0.592L41.583,71.031z"/>
	<path fill="#D08BF9" d="M25.847,68.502c-1.418-0.139-2.405-0.234-3.26-0.319C23.571,68.225,24.384,68.317,25.847,68.502z"/>
	<path fill="#D08BF9" d="M55.977,71.505l-2.814-0.063C54.06,71.426,55.047,71.442,55.977,71.505z"/>
	<path fill="#D08BF9" d="M231.687,73.628c2.614,0.275,5.093,0.524,6.975,0.693C233.567,74.592,233.132,73.984,231.687,73.628z"/>
	<path fill="#D08BF9" d="M9.728,15.615c0,0-0.052-0.161-0.104-0.323c-0.043-0.156-0.086-0.312-0.086-0.312
		C9.83,14.382,10.009,14.093,9.728,15.615z"/>
	<path fill="#D08BF9" d="M22.445,63.344c0.055,0.176-0.106,0.29-0.4,0.361c-0.271-0.045-0.548-0.089-0.807-0.131L22.445,63.344z"/>
	<path fill="#D08BF9" d="M67.148,71.329c0.04-0.007,0.107-0.019,0.157-0.026l2.279,0.265C68.357,71.58,67.582,71.5,67.148,71.329z"
		/>
	<path fill="#D08BF9" d="M21.009,8.788c0.979,0.104,1.921,0.256,2.753,0.488C21.657,9.253,20.66,9.035,21.009,8.788z"/>
	<path fill="#D08BF9" d="M22.2,68.158c-0.027-0.006,0-0.009-0.027-0.015c0.11,0.011,0.304,0.028,0.415,0.039
		C22.442,68.174,22.338,68.167,22.2,68.158z"/>
	<path fill="#D08BF9" d="M45.149,64.929c-1.199-0.106-2.323-0.206-3.609-0.319C43.072,64.612,44.35,64.758,45.149,64.929z"/>
	<path fill="#D08BF9" d="M231.687,73.628c-0.739-0.078-1.472-0.156-2.213-0.233C230.519,73.405,231.162,73.497,231.687,73.628z"/>
	<path fill="#D08BF9" d="M368.702,62.77c-1.141,1.841-1.639,2.141-2.05,2.35C367.391,64.198,368.118,63.399,368.702,62.77z"/>
	<path fill="#D08BF9" d="M375.525,20.319l0.385,0.834C375.728,20.81,375.611,20.541,375.525,20.319z"/>
	<path fill="#D08BF9" d="M294.908,2.199c-0.397-0.075-0.812-0.157-1.113-0.26C294.517,1.878,294.928,2.023,294.908,2.199z"/>
	<path fill="#D08BF9" d="M216.824,8.033c5.527-0.359,11.224,0.596,16.031,0.709l-1.638-0.389l4.846,0.375l-0.046-0.523
		c8.012,0.359,17.975-0.021,20.888,0.862l-0.923-0.854l8.486,0.81l-4.854-0.651c9.555-0.017,24.049,0.918,26.079,0.957L284.845,9
		c1.565-0.129,2.791,0.104,4.42,0.238l-1.248-0.494c14.385,0.438,18.349-0.542,34.385,0.394c4.371,0.015-2.418-0.223-2.479-0.485
		c2.4-0.306,8.009,0.217,9.213,0.466c-1.242-0.773-8.017-0.752-2.86-1.185c3.633,0.474-2.461-0.755,3.955-0.408l2.475,1.021
		c3.577-0.035,0.748-0.716,6.381-0.403c6.406,0.675-7.912,0.735,2.417,1.305c1.294,0.042,2.624-0.036,4.045-0.154
		c1.428-0.096,2.913-0.32,4.501-0.291c0.805-0.004,1.65,0,2.542,0.024c0.897,0.011,1.794,0.21,2.764,0.352
		c0.482,0.084,0.98,0.166,1.481,0.276c0.486,0.156,0.984,0.316,1.495,0.48c0.507,0.178,1.027,0.361,1.562,0.55
		c0.51,0.238,1.017,0.511,1.537,0.787c0.477,0.188,0.883,0.341,1.227,0.464c0.327,0.146,0.588,0.273,0.806,0.359
		c0.435,0.177,0.674,0.23,0.785,0.205c0.226-0.049-0.062-0.412-0.285-0.71c-0.222-0.298-0.379-0.528,0.144-0.289
		c0.261,0.12,0.69,0.357,1.366,0.76c0.353,0.183,0.695,0.499,1.134,0.828c0.419,0.35,0.951,0.704,1.468,1.209
		c0,0-0.077-0.087-0.211-0.239c-0.151-0.137-0.365-0.333-0.622-0.568c-0.535-0.448-1.171-1.155-1.968-1.672
		c-0.776-0.536-1.514-1.162-2.15-1.496c-0.626-0.357-1.044-0.596-1.044-0.596c1.888,0.667,1.184-0.551,5.438,2.619
		c1.169,1.225,3.093,3.79,4.547,6.047c-0.672-1.179-1.202-1.882-1.47-2.318c-0.266-0.438-0.297-0.593-0.163-0.554
		c0.135,0.04,0.435,0.273,0.821,0.611c0.191,0.172,0.408,0.367,0.638,0.573c0.216,0.216,0.423,0.463,0.643,0.704
		c0.911,0.945,1.662,2.048,2.006,2.258c0.167,0.107,0.217-0.001,0.079-0.447c-0.142-0.443-0.429-1.248-1.148-2.421
		c0,0,0.146,0.211,0.363,0.527c0.228,0.311,0.506,0.739,0.745,1.19c0.248,0.444,0.507,0.883,0.681,1.223
		c0.161,0.346,0.269,0.576,0.269,0.576c-0.182-0.469-0.153-0.627,0.034-0.409c0,0,0.642,1.206,1.11,2.49
		c0.233,0.645,0.449,1.292,0.58,1.803c0.138,0.5,0.208,0.862,0.208,0.862c-0.204-1.769-1.159-4.441-2.036-6.236
		c-0.219-0.447-0.406-0.848-0.546-1.176c-0.149-0.322-0.27-0.56-0.302-0.71c-0.077-0.291,0.18-0.217,0.861,0.51
		c0,0,0.27,0.443,0.674,1.106c0.21,0.328,0.429,0.725,0.637,1.163c0.211,0.438,0.471,0.888,0.658,1.374
		c0.414,0.953,0.762,1.937,0.982,2.71c0.22,0.763,0.329,1.349,0.329,1.349c0.034-1.257,0.247-1.048,0.538-0.649
		c0.136,0.237,0.277,0.482,0.411,0.745c0.14,0.329,0.233,0.336,0.335,0.233c-0.028-0.256-0.191-1.923-0.959-4.225
		c-0.746-2.298-2.17-5.224-4.197-7.808c-0.975-1.322-2.157-2.476-3.264-3.561c-1.192-0.978-2.273-1.971-3.334-2.606
		c-1.037-0.667-1.883-1.295-2.532-1.588c-0.637-0.331-1.001-0.521-1.001-0.521c0.389,0.376,1.432,0.938,2.113,1.554
		c0.698,0.574,1.119,0.986,0.437,0.758c-1.495-0.885-2.61-1.32-3.445-1.765c-0.84-0.436-1.438-0.784-2.048-1.038
		c-1.212-0.513-2.396-1.204-5.517-1.651c0,0,0.647,0.261,1.292,0.522c0.32,0.13,0.64,0.261,0.881,0.359
		c0.239,0.09,0.395,0.183,0.395,0.183c-0.425-0.297-1.275-0.554,0.068-0.253c2.201,0.465,3.017,1.092,2.919,1.335
		c-1.15-0.092-3.143-0.867-5.141-1.328c-0.991-0.252-1.972-0.61-2.817-0.796c-0.845-0.199-1.555-0.392-1.998-0.546
		c-0.986-0.127-1.75-0.224-2.343-0.257c-0.605-0.025-0.992-0.011-1.266,0.014c-0.53,0.058-0.549,0.179-0.387,0.314
		c0.322,0.269,1.392,0.617,0.548,0.631c-3.813-1.184-12.163-0.583-16.623-1.142l2.855,0.671c-5.529,0.496-10.421-0.214-13.627-0.508
		l1.23,0.504c-7.639-0.305-11.471,1.181-17.237-0.623l0.794,0.331c-3.131,0.071-7.898,0.313-10.889-0.248
		c-0.072,0.194-0.612,0.426-1.879,0.457c-1.687-0.68-4.948-0.263-9.57-0.239c3.061,0.229,2.065,1.04,5.283,1.309
		c-7.142,0.707-6.506-1.062-12.489-1.166c-3.598,0.358,3.206,0.526,4.056,0.856c-9.229-0.635-19.012,1.572-24.814-0.188l3.979-0.464
		c-3.666-0.422-5.658-0.45-5.212-0.287c1.177-0.035,1.575,0.128,1.986,0.291c-11.106,0.677-17.321-1.5-28.533-1.32
		c0.827,0.324,2.429,0.448,2.494,0.711c-5.164,0.253-4.996-1.685-13.333-1.147l1.627,0.384c-2.777,0.181-4.823-0.366-4.448-0.467
		c-0.241,1.409-17.624-0.28-23.456,1.511c-4.07-0.821-15.753-1.534-19.326-1.134c-5.126,0.806,4.528,0.971,2.619,1.745
		c-4.011-0.026-6.113-0.825-12.091-0.595c-0.091-0.787,11.828-1.506,0.584-2.041l-1.573,0.412c1.169-0.048,2.761-0.196,4.393-0.082
		c3.247,0.489-1.955,0.513-2.704,0.719L150.44,1.148c-0.88-0.843,6.341-0.603,7.089-0.808c-9.562,0.111-21.063,1.283-29.942,0.701
		l0.842,0.316c-11.321-0.739-6.615,1.514-15.618,0.16c-4.759,0.217,1.714,0.887-5.471,0.954c-2.026,0.006-0.837-0.311-0.478-0.417
		c-8.826-0.287-3.885,0.795-12.035,0.046l1.76,0.881c-9.708-0.584-19.905-2.074-28.289-1.603c0.506,0.677,5.694,0.562,7.766,1.067
		C64.686,1.292,48.798,2.586,38.27,2.237c3.128-0.671-5.028-1.21,1.703-1.883c1.773,0.838,4.916,0.177,8.521,0.204
		c-2.938-0.906-9.037-0.538-14.629-0.083c-5.593,0.444-10.679,1.007-11.636,0.229l-1.506,0.773c-1.624-0.013-5.838-0.198-2.98-0.633
		c-1.619,0.182-3.239,0.38-4.907,0.641c-0.832,0.128-1.683,0.279-2.587,0.472C9.792,2.059,9.316,2.172,8.752,2.347
		c-0.32,0.111-0.57,0.177-1.056,0.408L7.377,2.91C7.185,3.021,6.995,3.145,6.814,3.279L6.551,3.487L6.426,3.595
		C6.341,3.679,6.25,3.777,6.167,3.875C5.828,4.273,5.563,4.767,5.298,5.204c0.494-0.603,0.987-1.206,1.456-1.842
		C6.605,3.471,6.46,3.587,6.322,3.709L6.121,3.897L6.035,3.994L5.733,4.362c-0.201,0.25-0.399,0.516-0.486,0.695
		C5.024,5.457,4.782,5.875,4.598,6.264c0.208-0.313,0.49-0.676,0.766-1.036l0.215-0.275c0.109-0.116,0.219-0.232,0.33-0.352
		C6.173,4.359,6.22,4.213,6.985,3.672C6.672,4.097,6.22,4.709,5.769,5.322c0.097-0.292,0.242-0.594,0.43-0.871
		c0.094-0.138,0.197-0.27,0.306-0.392l0.168-0.174C6.728,3.833,6.735,3.833,6.77,3.803c0.223-0.176,0.467-0.338,0.72-0.478
		C7.722,3.203,7.805,3.189,7.973,3.12c0.137-0.049,0.324-0.121,0.423-0.142C8.614,2.927,8.847,2.87,9.058,2.83
		c0.19-0.028,0.383-0.056,0.577-0.085c0.736-0.085,1.431-0.129,2.113-0.153c1.366-0.051,2.71-0.056,3.983-0.078
		C18.27,2.477,20.5,2.381,21.64,1.998c3.355,0.524-4.735,0.774-1.743,1.424c-3.694-0.287-4.987-0.072-6.131,0.255
		c-0.573,0.166-1.111,0.363-1.908,0.586c-0.404,0.108-0.869,0.231-1.432,0.381c-0.285,0.072-0.597,0.158-0.953,0.272
		C9.297,4.974,9.108,5.036,8.89,5.141C8.794,5.177,8.664,5.25,8.527,5.352C8.453,5.416,8.415,5.409,8.313,5.542
		C8.224,5.651,8.15,5.781,8.1,5.908c0.089-0.121,0.178-0.242,0.274-0.372c-0.307,0.229-0.396,0.391-0.58,0.589
		c-0.187,0.194-0.281,0.397-0.43,0.609C7.431,6.5,7.471,6.317,7.485,6.182c0.037-0.139,0.04-0.23,0.007-0.277
		C7.441,5.807,7.187,5.913,6.957,6.133c-0.23,0.22-0.615,0.597-0.896,1.041c-0.28,0.444-0.627,0.978-0.915,1.54
		c-1.13,2.238-1.845,4.934-2.082,4.713c-0.108,0.641-0.248,1.473-0.403,2.4c-0.163,0.917-0.397,1.927-0.595,2.92
		c-0.337,1.982-0.738,3.923-1.021,5.011C0.654,28.061,0.438,38.192,0,45.394c0.347-2.733,1.042-6.966,1.688-6.611
		c-0.605,3.444-0.653,7.31,0.133,7.968c0.37-3.091,0.534-4.863,0.5-5.991c-0.033-1.125-0.237-1.596-0.469-2.032
		c-0.446-0.867-1.005-1.625-0.094-7.146c0.552-1.336,0.951-2.756,1.297-4.551c0.174-0.898,0.33-1.888,0.487-3.011
		c0.169-1.13,0.359-2.39,0.573-3.815c0.248,2.654,0.579,1.521,1.085,2.634c-2.373,6.847-2.01,18.092-2.591,27.259
		c-0.187,1.946-0.583,2.217-0.893,3.113c-0.159,0.449-0.276,1.058-0.292,2.128c0.023,1.073,0.095,2.608,0.751,4.94
		c0,0-0.2-0.489-0.441-1.224c-0.243-0.733-0.527-1.715-0.752-2.693c-0.464-1.959-0.737-3.909-0.737-3.909
		c0.637,4.296,0.775,4.846,0.575,5.21c-0.074,0.185-0.205,0.319-0.191,0.885c0.028,0.567,0.078,1.546,0.774,3.498
		c0,0-0.035-0.202-0.087-0.507c-0.05-0.304-0.126-0.708-0.156-1.099c-0.094-0.79-0.114-1.551-0.114-1.551
		c0.612,2.242,1.271,3.816,2.004,5.168c0.398,0.689,0.723,1.262,1.26,1.94c0.535,0.675,1.115,1.292,1.87,1.883
		c0,0-0.281-0.24-0.664-0.615c-0.353-0.415-0.831-0.919-1.186-1.537c-0.369-0.566-0.563-1.081-0.735-1.485
		c-0.088-0.198-0.145-0.363-0.175-0.479c-0.036-0.115-0.056-0.181-0.056-0.181c0.166,0.295,0.408,0.616,0.658,0.954
		c0.239,0.349,0.539,0.661,0.906,1.063c0.353,0.386,0.771,0.698,1.164,1.031c0.438,0.272,0.831,0.609,1.29,0.786
		c0.878,0.389,1.829,0.553,2.323,0.711c0.48,0.144,0.767,0.278,0.758,0.408c0.684-0.119,0.926-0.261,0.948-0.412
		c0.454,0.205,1.605,0.46,4.413,0.693c-1.635-0.254-2.837-0.332-2.84-0.599c5.356,0.66,5.98,0.404,6.125,0.178
		c0.14-0.249-0.223-0.535,3.065-0.254c-1.027-0.279,0.867-0.395,3.222-0.353c-0.256,1.409,12.78,2.332,16.188,3.24l-0.041-0.022
		l8.862,0.959c-1.797-0.191,0.166-0.484,2.757-0.526l-0.419-0.01c2.833-0.102-3.287-1.645,5.162-0.902l4.432,0.581
		c-0.792-0.08-0.02-0.264,0.403-0.354l4.565,0.546c7.059-1.049,13.202,1.188,21.474,0.798c-2.383,0.039-6.003-0.173-4.437-0.546
		c1.603-0.109,4.011,0.115,5.246,0.358l-0.41-0.168l15.686,1.3c-1.262-0.499-10.055-0.778-6.106-1.2
		c2.343-0.568,6.831,0.224,9.651,0.344c-0.373,0.358-5.584,0.547-0.333,0.882c0.649-0.164,5.66-0.418,3.309-0.739
		c5.373,0.511,13.186,0.92,17.988,1.676c1.533-0.126-0.868-0.331-1.668-0.399l-0.39,0.097c-3.239-0.276-0.474-0.953-6.854-0.719
		c-0.501-1.218,9.189-0.119,14.778-0.176l-8.883-1.012c15.036-1.31,35.239,0.847,50.104,1.072c-4.366,0.315-8.008-0.1-7.502,0.85
		c9.227,0.591,8.02,0.365,17.228,0.676l-0.792-0.06c4.77-0.422,11.264,0.579,14.397-0.234c-2.052-0.539-6.768,0.416-6.869-0.636
		l11.619,0.199c-3.644-0.652-11.617-0.196-16.046-0.398c-3.196,0.021,6.423,0.22,4.896,0.887
		c-10.846-0.158-13.309-0.872-18.629-1.932c-3.238-0.773,4.748-0.674,6.764-0.654c6.884,1.178,16.963,1.801,27.728,1.396
		l5.912-0.751c5.318,0.757,3.043,2.169,12.665,2.039l-2.867-0.586c2.106-0.211,3.49-0.283,4.511-0.271
		c-4.134-0.448-8.584-0.962-12.318-1.436c5.476-1.176,15.708,0.691,23.755,0.946c-0.42-0.156-3.231-0.208-4.065-0.523
		c11.996-0.253,24.563,1.162,33.839,1.292c3.916-0.555-7.702-0.306-5.798-1.108c4.875,0.283,10.374-0.452,11.686,0.267
		c-2.141-1.02,11.194-0.182,1.867-1.067c17.552-0.623,36.881,0.026,54.657-0.202c-0.878-0.272-0.89-0.533-0.156-0.779
		c-5.997,0.304-14.828,0.291-18.179-0.349c3.921-0.64,9.348,0.421,10.469,0.059c-2.022-0.179-6.018-0.043-6.104-0.564
		c5.108-0.753,8.012-0.033,11.63-0.091l-1.947,0.35c5.645,0.114,7.226,0.477,8.887,0.719c1.661,0.231,3.411,0.373,9.387-0.217
		c4.273-0.988-0.093-0.514-0.229-1.296c1.415,0.043,4.368-0.331,7.315-0.736c2.955-0.4,5.864-0.874,7.363-0.812
		c0,0-0.437,0.099-1.089,0.246c-0.659,0.133-1.543,0.298-2.433,0.439c-1.778,0.289-3.574,0.504-3.574,0.504
		c2.527-0.184,4.979-0.465,7.199-0.912c1.101-0.235,2.172-0.483,3.063-0.992l0.295-0.231l0.245-0.27
		c0.165-0.179,0.327-0.355,0.486-0.528c0.319-0.341,0.63-0.669,0.927-0.982c-0.368,0.173-0.707,0.302-1.401,1.039
		c0.327-0.355,0.666-0.723,1.009-1.097c0.347-0.38,0.618-0.823,0.932-1.239c0.295-0.429,0.628-0.839,0.889-1.282
		c0.262-0.442,0.521-0.879,0.771-1.304c0.537-0.835,0.91-1.681,1.322-2.382c0.415-0.7,0.736-1.309,1.037-1.729l-0.465-1.289
		c-0.113,0.56-0.313,1.393-0.634,2.316c-0.373,0.904-0.728,1.959-1.259,2.896c-0.51,0.946-1.009,1.86-1.557,2.52
		c-0.522,0.67-0.925,1.181-1.223,1.325c-0.037-0.221,0.152-0.753,0.53-1.429c0.184-0.341,0.419-0.716,0.666-1.129
		c0.228-0.426,0.473-0.883,0.725-1.358c0.556-0.923,0.996-1.99,1.471-2.949c0.438-0.975,0.768-1.907,1.021-2.607
		c-1.111,3.108-2.419,5.247-3.535,6.93c-0.639,0.791-1.157,1.529-1.741,2.128c-0.285,0.281-0.559,0.553-0.827,0.816
		c-0.235,0.209-0.423,0.443-0.687,0.585c-0.271,0.131-0.554,0.223-0.839,0.292c-0.293,0.075-0.538,0.114-0.932,0.199
		c-0.753,0.136-1.555,0.278-2.466,0.41c-1.843,0.277-4.006,0.604-6.883,1.036l2,0.04c-7.209,1.466-14.911,0.826-21.348,1.17
		c1.809-0.257,2.158-0.588,1.298-0.685c-14.238,1.346-28.351,1.168-44.667,1.802l-4.927-0.768l-0.296,0.635
		c-7.987,0.362-1.74-0.866-6.889-0.756c1.958-0.021,1.605,0.088,2.008,0.241c-9.279-0.636-5.146,0.631-10.351,0.468
		c2.479,0.663,10.034,0.165,7.721,1.081c-9.264-0.626-23.655-0.2-25.016-1.723c-17.182,0.638-38.482-0.445-52.923-0.729
		c-1.974,0.247,1.227,0.221,0.469,0.425c-5.7-0.931-19.175,0.393-19.254-0.397c-2.768,0.18-3.931,0.738-4.684,0.939
		c-3.66-0.428-8.046-0.678-12.702-0.862l3.403,0.271l-0.375,0.101l-4.829-0.385l0.18-0.045c-11.587-0.415-24.988-0.488-35.481-1.569
		c6.043,0.646-1.547,0.913,1.305,1.285c-5.313-1.363-18.122-1.694-28.512-1.86c0.037,0.265-0.775,0.451,0.438,0.693l-6.006-0.684
		l0.788,0.336c-10.795-0.076-22.481-1.858-29.617-1.534c4.393,0.31,4.407,0.569,4.832,1.004c-7.722-0.307-15.005-0.598-23.995-1.383
		c0.479,0.099,0.788,0.201,0.797,0.296c-2.367,0.003-5.187-0.441-7.591-0.713l-0.363,0.61c-4.585-0.522-10.555-0.526-15.948-1.417
		c-1.087,0.264-4.395-0.12-8.089-0.725c-0.913-0.156-1.858-0.324-2.738-0.512l-0.597-0.139c-0.098-0.032-0.209-0.063-0.285-0.095
		c-0.167-0.058-0.323-0.138-0.443-0.26c-0.269-0.257-0.377-0.363-0.718-0.901c-0.16-0.196-0.278-0.5-0.43-0.723
		c-0.136-0.273-0.267-0.537-0.392-0.788c-0.228-0.89-0.096,0.13-0.035,0.697c0.013,0.306,0.017,0.484-0.151,0.357
		c-0.146-0.156-0.481-0.632-0.885-1.956c0.558-0.549,0.116-2.264-0.095-4.132c-0.225-1.849-0.274-3.742,0.49-4.01
		c0,0-0.204-1.309-0.361-2.648c-0.136-1.351-0.271-2.702-0.271-2.702l0.802-1.184c-0.659-2.33-0.395-4.116,0.025-6.166
		c0.422-2.055,1.017-4.378,1.088-7.934C8.762,30.25,8.645,31,8.564,30.628c0.361-2.258,0.884-7.62,0.948-3.44
		c0.154-2.002,0.557-5.956,0.927-8.703c0.416-2.717,0.554-4.379-0.264-1.78c0.249-0.158,0.091,0.965-0.196,2.391
		c-0.242,1.47-0.538,3.261-0.716,4.343c-0.318-0.167-0.277-1.607-0.232-3.188c0.003-0.799,0.08-1.598,0.106-2.296
		c0.022-0.7-0.005-1.298-0.131-1.657c0.109-0.154,0.298-0.863,0.531-1.319l-0.234-0.802c0.208-0.593,0.404-1.186,0.589-1.778
		c0.218-0.544,0.437-1.088,0.654-1.629c0.096-0.288,0.217-0.514,0.335-0.732l0.335-0.675c0.109-0.196,0.211-0.296,0.3-0.455
		c0.019-0.026,0.054-0.098,0.056-0.087c-0.003,0.004,0.016,0.026-0.014,0.011c-0.379-0.282-0.739-0.591-1.078-0.924l-0.126-0.125
		l-0.062-0.064l-0.031-0.032L10.247,7.67l-0.008-0.008c2.62,2.38,0.724,0.662,1.308,1.194l-0.135,0.128
		c-0.094,0.083-0.196,0.158-0.302,0.223L9.013,6.137c0.077,0.009,0.144,0.037,0.193,0.078c0.025,0.021,0.046,0.044,0.063,0.069
		l0.023,0.039l0.082,0.068C9.587,6.579,9.75,6.803,9.855,7.046c0.154,0.28,0.426,0.686,0.581,1.042
		c0.192,0.37,0.271,0.754,0.458,1.14c0.036-0.004,0.063-0.011,0.102-0.023l0.243-0.049c0.357-0.071,0.825-0.142,1.295-0.201
		c0.951-0.119,1.963-0.198,2.941-0.252c1.966-0.103,3.85-0.089,5.534,0.084c0.297-0.214,1.587-0.447,4.142-0.531l0.153,0.781
		c0,0,1.976-0.092,3.953-0.185c1.983-0.078,3.966-0.156,3.966-0.156l-3.765-1.005c8.724-0.566,14.927,0.606,22.12,0.662
		C53.4,6.996,65.636,8.625,71.862,7.414l-5.637-0.298c12.041,0.116,13.957-0.682,25.191-0.285
		c-9.529,0.485-9.591,0.207-23.445,1.413c13.915-0.692,24.061,0.564,36.815-0.214c-0.85-0.312-4.056-0.508-0.934-0.834
		c2.487,0.67,12.021-0.027,10.128,0.764c3.966-0.265,4.658-1,7.077-1.104l13.306,1.006l-0.414-0.158
		c22.624-1.738,42.201,1.472,64.901,0.939l-0.437-0.424l5.673,0.681c-4.446-0.461,1.94-0.505,2.293-0.868l14.527,1.095
		C221.236,8.764,220.392,7.915,216.824,8.033z M25.569,8.131l-3.398,0.122c-0.678,0.077-1.374,0.133-2.146,0.097l2.146-0.097
		C23.905,8.048,25.174,7.658,25.569,8.131z M243.71,69.707c1.655,0.367-2.387,0.109-3.541,0.159l5.604,0.102
		C246.55,69.758,244.525,69.761,243.71,69.707z M25.095,3.066l1.898-0.616l2.479,0.309L25.095,3.066z M73.992,1.941l-4.874-0.259
		l0.407-0.11l4.825,0.26L73.992,1.941z M128.289,6.073c-0.304-0.032-0.594-0.055-0.939-0.107
		C127.653,5.986,127.985,6.025,128.289,6.073c3.758,0.391,5.255-0.547,8.313,0.379C132.846,7.22,130.438,6.401,128.289,6.073z
		 M42.534,6.677c-1.629-0.063-2.43-0.09-3.614-0.004c0.851,0.289,4.128,0.668,1.742,0.841c-1.671-0.327-7.233-0.245-7.334-0.761
		C38.188,7.154,41.565,5.603,42.534,6.677z M24.465,64.267l-1.21-0.027l4.418,0.699L24.465,64.267z M45.226,65.928
		c2.445,0.79,8.829,0.946,13.234,1.265c1.167-0.535-3.283-1.374-8.472-1.536C43.945,64.879,47.65,66.451,45.226,65.928z
		 M79.986,5.132l-1.241-0.459l1.161-0.063L75.08,4.341c6.34-0.694,10.884,0.482,14.118,0.671
		C86.365,4.974,78.629,3.884,79.986,5.132z M89.67,67.879c4.435,0.546,12.446,1.272,11.695,1.725c0.31-0.882-6.12-1.467-8.123-1.521
		C92.076,68.102,91.239,68.026,89.67,67.879z M89.376,69.55c-6.441-0.602-6.869-1.035-11.764-2.024
		c6.399-0.169,8.104,1.026,7.327,1.478c4.437,0.548,3.596-0.056,5.976-0.094L89.376,69.55z M82.761,66.843l-2.632,0.038
		c-3.121,0.27-3.806,1.259-8.125,0.101l8.125-0.101C80.826,66.815,81.688,66.791,82.761,66.843z M137.01,68.282l-2.643-0.361
		C136.982,68.006,137.283,68.146,137.01,68.282l2.202,0.305C133.452,68.792,136.42,68.543,137.01,68.282z M95.625,67.517
		l-7.619-0.313C88.43,67.636,93.194,67.559,95.625,67.517z M135.292,69.039c-3.214-0.007-11.597-0.072-10.431-0.103
		C125.633,68.482,133.259,68.739,135.292,69.039z M303.617,71.038l-4.808,0.047l2.308-0.675L303.617,71.038z M247.211,72.008
		l1.188-0.316l2.796,0.046L247.211,72.008z M195.187,71.751c0.251-0.134,0.119-0.309-0.312-0.458
		c-0.791-0.063-1.481-0.152-1.809-0.287c0.712,0.005,1.392,0.131,1.809,0.287c2.082,0.165,5.188,0.119,6.604-0.061
		c-0.833-0.319-4.045-0.292-5.283-0.515c4.764-0.688,15.427,1.636,12.397-0.534c2.013,0.275,8.897,0.888,6.513,1.243
		C209.658,71.267,199.327,71.401,195.187,71.751c-0.243,0.111-0.696,0.195-1.634,0.202C193.826,71.878,194.45,71.813,195.187,71.751
		z M125.07,71.037c-1.965-0.099-2.818-0.181-3.203-0.261c-1.686-0.197-2.965-0.468-2.46-0.749c4.103,0.354,1.47,0.535,2.46,0.749
		C122.897,70.896,124.009,70.995,125.07,71.037z M112.674,70.873l6.421,0.562l-3.229-0.543l9.677,1.099
		C119.966,72.295,113.518,71.469,112.674,70.873z M110.398,71.228l-1.313-0.546l2.014,0.575L110.398,71.228l0.301,0.124
		l-10.832-0.58L110.398,71.228z M4.333,58.603c-0.678-0.822-0.973-0.696-1.021,0.06c-0.037,0.748,0.175,2.118,0.806,3.642
		c0.332,0.756,0.737,1.56,1.32,2.298c0.591,0.812,1.37,1.451,2.151,1.961c0.812,0.433,1.743,0.62,2.329,0.803
		c0.582,0.173,1.02,0.314,1.278,0.461c0.282-0.26,1.486-0.489,1.282-0.819c-0.101-0.167-0.549-0.344-1.632-0.595
		c-0.529-0.132-1.252-0.258-2.184-0.533c-0.922-0.272-1.84-1.055-2.684-2.098c0.778,0.882,1.601,1.441,2.321,1.807
		c0.772,0.271,1.447,0.37,1.957,0.492c1.037,0.228,1.621,0.407,2.094,0.558c0.944,0.283,1.458,0.423,4.248-0.066
		c-2.187-0.142-4.591-0.466-6.499-0.901c-0.938-0.216-1.755-0.453-2.197-0.933c-0.478-0.406-0.753-0.747-0.86-0.884
		c0,0,0.042,0.06,0.139,0.145c0.096,0.084,0.234,0.204,0.399,0.349c0.155,0.156,0.383,0.283,0.611,0.438
		c0.218,0.17,0.502,0.272,0.79,0.349c0.577,0.147,1.167,0.233,1.649,0.307c0.474,0.063,0.79,0.106,0.79,0.106
		c-0.683-0.372-1.502-0.599-2.235-0.789c-0.19-0.059-0.387-0.111-0.573-0.2c-0.177-0.104-0.357-0.207-0.54-0.313
		c-0.347-0.234-0.72-0.482-1.038-0.791C5.635,62.199,4.576,60.281,4.333,58.603z M8.22,6.691c0.181-0.208,0.333-0.443,0.555-0.617
		L8.773,6.077c0.28-0.409,0.837-0.481,1.291-0.618c0.478-0.121,0.965-0.202,1.453-0.28c0.975-0.15,1.957-0.263,2.94-0.358
		c-0.985,0.08-1.969,0.176-2.949,0.31c-0.49,0.07-0.979,0.144-1.464,0.257C9.8,5.438,9.56,5.51,9.322,5.589
		c-0.223,0.112-0.501,0.15-0.603,0.474C8.718,6.041,8.716,6.017,8.724,6.006C8.573,6.11,8.465,6.234,8.353,6.355
		C8.353,6.355,8.209,6.688,8.22,6.691z M175.438,2.642c-0.473-0.421,8.283-1.096,10.364-0.291
		C181.388,2.422,176.575,2.336,175.438,2.642z M247.546,3.64l-7.628-0.468c1.481-0.925,6.818,0.142,10.402,0.035
		C251.556,3.696,248.74,3.341,247.546,3.64z M297.23,4.573l2.431,0.208l-2.534-0.995L297.23,4.573z M293.915,3.25
		c1.545-0.39-3.665-0.701-4.897-0.671L293.915,3.25z M338.734,3.674l-3.19-0.063l2.847,0.942L338.734,3.674z M333.611,4.461
		c-0.724-0.621-0.377-1.429-7.729-1.255c-0.326,0.621,1.667,0.675-1.084,1.333c2.416,0.224,4.402,0.021,5.608,0.007
		c-1.643-0.156-3.589,0.05-4.031-0.382C329.125,4.01,331.931,4.181,333.611,4.461c0.254,0.222,0.648,0.425,1.613,0.554
		C335.203,4.824,334.589,4.625,333.611,4.461z M307.019,4.364c-0.971,0.051-1.802,0.115-2.191,0.211l-0.438-0.168
		C305.392,4.16,306.247,4.242,307.019,4.364c1.067-0.057,2.301-0.099,3.575-0.136c0.83-0.51-4.181-0.997-5.501-1.324
		c2.389,0.208,4.442,0.778,7.62,0.539c-0.418-0.167-0.014-0.264-2.006-0.307l4.375-0.003c4.985,0.873,0.191,0.969-4.488,1.095
		c-0.149,0.114-0.506,0.227-1.394,0.34C308.45,4.627,307.763,4.479,307.019,4.364z M342.115,6.646l-2.382-0.258
		c-1.219-0.257-0.436-0.436-0.857-0.61C341.683,5.935,345.32,6.478,342.115,6.646z M198.356,3.922
		c1.593-0.143-2.079-0.806-5.656-0.679l1.91-0.768c0.085,0.523,7.27,0.534,8.071,0.596C203.945,3.815,201.148,3.475,198.356,3.922z
		 M31.328,4.363C29.986,3.396,20.867,4.41,18.84,4.335C23.57,3.747,34.381,3.143,31.328,4.363z M15.572,5.662
		c-2.467,0.224-3.127,0.441-2.958-0.094c-0.541-0.018-1.225,0.077-1.895,0.23c-0.333,0.074-0.674,0.159-0.963,0.258
		c-0.159,0.042-0.27,0.101-0.394,0.145c-0.052,0.024-0.068,0.042-0.11,0.057C9.206,6.261,9.276,6.285,9.218,6.225
		C9.167,6.178,9.095,6.146,9.013,6.137l0.046,0.318C9.006,6.484,8.917,6.551,8.828,6.632C8.863,6.579,8.897,6.526,8.93,6.476
		c0.026-0.033,0.052-0.063,0.075-0.092l0.007-0.247c0.057-0.002,0.18,0.059,0.149,0.051c0.001,0-0.027,0.003-0.008-0.011
		c0.032-0.023,0.062-0.049,0.092-0.076C9.316,6.047,9.43,6,9.516,5.95c0.208-0.081,0.404-0.161,0.605-0.211
		c0.392-0.116,0.751-0.176,1.064-0.224c0.634-0.086,1.113-0.082,1.537-0.055C13.577,5.525,14.22,5.685,15.572,5.662
		c0.641-0.056,1.379-0.113,2.299-0.15C16.875,5.617,16.176,5.651,15.572,5.662z M113.085,3.875l3.318,0.729l5.199-0.055
		L113.085,3.875z M168.912,5.431c-0.417-0.422,5.549-0.386,6.791-0.166c-0.382-0.554-4.379-0.518-7.558-0.601
		c-0.415-0.048-1.078-0.083-2.101-0.088c0.622,0.044,1.313,0.067,2.101,0.088c1.188,0.138,0.356,0.414,0.354,0.606l-1.584,0.148
		l4.402,0.185L168.912,5.431z M267.089,7.285c3.573-0.363,3.993-0.199,6.387-0.002C272.699,7.479,269.505,7.48,267.089,7.285z
		 M139.322,5.723c6.001-0.246-2.885-0.845,1.056-1.098l-3.146,0.044c5.112-0.563,3.64,0.64,7.236,0.491l-2.407,0.098
		c-1.904,0.519,3.675,0.378,4.129,0.8C143.384,6.258,136.93,5.823,139.322,5.723z M272.72,7.742
		c5.954-0.425,4.881,0.659,8.479,0.826C276.456,8.957,277.168,7.973,272.72,7.742z M177.132,7.58l-0.374,0.1l4.821,0.35l0.388-0.102
		L177.132,7.58z"/>
	<path fill="#D08BF9" d="M280.221,2.366c1.468-0.038,2.437-0.007,3.238,0.051C282.436,2.423,281.355,2.414,280.221,2.366z"/>
	<path fill="#D08BF9" d="M3.096,12.051c0.116,0.162,0.074,0.692-0.032,1.376C2.997,13.33,2.983,12.982,3.096,12.051z"/>
	<path fill="#D08BF9" d="M1.09,23.331c-0.015,0.141-0.031,0.294-0.045,0.429c-0.021,0.091-0.054,0.228-0.081,0.338L1.09,23.331z"/>
	<path fill="#D08BF9" d="M367.375,66.042c1.063-0.816,0.747-0.304-0.074,0.596c-0.224,0.244-0.477,0.518-0.74,0.804
		c-0.282,0.312-0.588,0.615-0.952,0.863c-0.752,0.459-1.596,0.693-2.182,0.882c1.187-0.381,1.938-0.854,2.423-1.45
		c0.225-0.313,0.44-0.605,0.693-0.899C366.786,66.552,367.029,66.317,367.375,66.042z"/>
	<path fill="#D08BF9" d="M351.78,69.797c1.206,0.083,2.905,0.044,4.975-0.173C355.467,69.819,354.039,69.916,351.78,69.797z"/>
	<path fill="#D08BF9" d="M364.609,67.696c-0.694,0.412-1.518,0.67-2.199,0.881c-0.706,0.202-1.389,0.364-2.046,0.497
		c-1.313,0.27-2.522,0.432-3.609,0.55c1.007-0.152,1.926-0.358,3.108-0.617c0.593-0.134,1.254-0.282,2.021-0.456
		C362.635,68.369,363.578,68.167,364.609,67.696z"/>
	<path fill="#D08BF9" d="M309.382,72.051c2.492,0.355,7.246,0.002,7.246,0.002c-10.369,0.677,2.113,0.73,2.992,1.003
		C313.15,73.111,313.094,72.577,309.382,72.051z"/>
	<path fill="#D08BF9" d="M295.634,72.113c1.066-0.021,2.085-0.054,2.875-0.129C297.506,72.107,296.559,72.131,295.634,72.113z"/>
	<path fill="#D08BF9" d="M291.779,72.576c-3.595-0.046-4.871-0.501-6.518-0.844c4.344-0.39,7.13,0.319,10.372,0.381
		C293.087,72.166,290.593,72.147,291.779,72.576z"/>
	<path fill="#D08BF9" d="M181.015,74.654c0.827,0.063,2.812,0.084,2.863,0.346l-6.019-0.067
		C175.447,74.746,179.811,74.693,181.015,74.654z"/>
	<path fill="#D08BF9" d="M158.847,73.053c-4.806-0.124-2.315,0.595-4.747,0.398l0.291-0.886L158.847,73.053z"/>
	<path fill="#D08BF9" d="M161.604,68.587l1.415,0.111c-0.532-0.019-1.053-0.038-1.62-0.058L161.604,68.587z"/>
	<path fill="#D08BF9" d="M135.686,73.501l3.301,1.057C134.956,74.223,134.919,73.433,135.686,73.501z"/>
	<polygon fill="#D08BF9" points="117.335,73.756 120.149,74.129 111.327,73.618 	"/>
	<polygon fill="#D08BF9" points="95.25,72.697 94.461,72.885 88.417,72.457 	"/>
	<path fill="#D08BF9" d="M96.706,1.041c0.915,0.833-8.729,0.516-11.536,0.75C87.087,0.727,92.863,2.105,96.706,1.041z"/>
	<path fill="#D08BF9" d="M271.832,2.591l-9.208-0.356C269.767,2.032,264.616,2.265,271.832,2.591z"/>
</g>
</svg>
