<?xml version="1.0" encoding="utf-8"?>
<!-- Generator: Adobe Illustrator 16.0.3, SVG Export Plug-In . SVG Version: 6.00 Build 0)  -->
<!DOCTYPE svg PUBLIC "-//W3C//DTD SVG 1.1//EN" "http://www.w3.org/Graphics/SVG/1.1/DTD/svg11.dtd">
<svg version="1.1" id="Layer_1" xmlns="http://www.w3.org/2000/svg" xmlns:xlink="http://www.w3.org/1999/xlink" x="0px" y="0px"
	 width="192.25px" height="72px" viewBox="0 0 192.25 72" enable-background="new 0 0 192.25 72" xml:space="preserve">
<g>
	<path opacity="0.08" fill="#8E1757" enable-background="new    " d="M192.637,66.434c-2.396-47.695-48.558-51.582-77.953-46.832
		c-29.396,4.754-92.49-8.638-112.046,18.437c-2.166,2.995-3.37,15.941,1.195,33.456h188.852
		C192.727,69.837,192.727,68.162,192.637,66.434z"/>
</g>
<path opacity="0.08" fill="#8E1757" enable-background="new    " d="M148.438,31.554c-0.359,0.649-0.444,1.47-0.42,2.204
	c0.034,0.389,0.104,0.778,0.215,1.137c0.295,1.008,1.017,1.878,1.904,2.392c0.309,0.205,0.657,0.324,1.047,0.367
	c0.894,0.095,1.756-0.512,2.199-1.324c0.432-0.807,0.572-1.7,0.658-2.597c0.043-0.423,0.09-0.889-0.018-1.32
	C153.631,30.114,149.6,29.503,148.438,31.554z"/>
<path opacity="0.13" fill="#8E1757" enable-background="new    " d="M75.883,38.923c-0.224,0.646-0.179,1.388-0.036,2.046
	c0.085,0.352,0.209,0.684,0.365,0.982c0.421,0.867,1.203,1.533,2.076,1.861c0.308,0.133,0.641,0.188,0.995,0.172
	c0.816-0.061,1.498-0.734,1.769-1.529c0.269-0.794,0.25-1.614,0.194-2.436c-0.023-0.385-0.055-0.812-0.218-1.179
	C80.283,36.809,76.605,36.876,75.883,38.923z"/>
<path opacity="0.05" fill="#8E1757" enable-background="new    " d="M81.052,28.632c-0.175,0.491-0.158,1.06-0.077,1.585
	c0.041,0.244,0.12,0.517,0.229,0.752c0.273,0.641,0.745,1.141,1.354,1.362c0.194,0.082,0.449,0.111,0.66,0.082
	c0.557-0.09,1.012-0.624,1.243-1.201c0.229-0.606,0.237-1.251,0.215-1.854c-0.015-0.325-0.023-0.607-0.106-0.918
	C84.079,26.906,81.594,27.043,81.052,28.632z"/>
<path opacity="0.13" fill="#8E1757" enable-background="new    " d="M82.771,49.137c-0.271,0.795-0.28,1.652-0.122,2.451
	c0.066,0.419,0.163,0.805,0.329,1.167c0.404,1.013,1.17,1.789,2.121,2.144c0.342,0.125,0.675,0.181,1.023,0.125
	c0.874-0.137,1.602-0.965,1.926-1.91c0.348-0.947,0.337-1.947,0.329-2.918c0-0.461-0.041-0.961-0.146-1.404
	C87.504,46.395,83.6,46.643,82.771,49.137z"/>
<path opacity="0.13" fill="#8E1757" enable-background="new    " d="M32.957,51.469c-1.438,0.436-1.907,1.551-2.023,2.426
	c-0.106,0.916,0.192,1.949,1.587,2.153c0.991,0.138,2.253-0.239,2.881-0.837c0.622-0.6,0.694-1.295,0.351-1.884
	c-0.337-0.56-1.019-1.021-1.826-1.363c-0.382-0.188-0.803-0.342-1.307-0.376c-0.511-0.025-1.103,0.068-1.453,0.338"/>
<path opacity="0.08" fill="#8E1757" enable-background="new    " d="M99.046,37.723c-0.192,0.606-0.653,1.103-1.085,1.529
	c-1.95,1.99-5.741-1.223-4.323-3.589C95.055,33.22,99.918,34.792,99.046,37.723z"/>
<path opacity="0.13" fill="#8E1757" enable-background="new    " d="M45.883,45.915c-0.374,1.06-0.295,2.265-0.049,3.371
	c0.122,0.555,0.312,1.098,0.575,1.632c0.72,1.396,1.969,2.523,3.454,3.084c0.527,0.166,1.051,0.303,1.615,0.248
	c1.343-0.1,2.42-1.234,2.909-2.491c0.482-1.256,0.41-2.647,0.305-3.989c-0.064-0.67-0.092-1.308-0.333-1.957
	C53.119,42.464,47.083,42.575,45.883,45.915z"/>
<path opacity="0.08" fill="#8E1757" enable-background="new    " d="M52.307,35.642c-0.22,0.641-0.175,1.387-0.038,2.045
	c0.089,0.342,0.211,0.684,0.367,0.982c0.418,0.861,1.203,1.529,2.076,1.857c0.31,0.133,0.641,0.188,0.995,0.166
	c0.816-0.051,1.498-0.733,1.769-1.524c0.267-0.79,0.252-1.618,0.194-2.431c-0.025-0.388-0.055-0.815-0.22-1.182
	C56.748,33.553,53.034,33.63,52.307,35.642z"/>
<path opacity="0.08" fill="#8E1757" enable-background="new    " d="M96.816,49.273c-0.362,0.572-0.496,1.307-0.517,1.978
	c0.006,0.354,0.045,0.713,0.126,1.042c0.205,0.936,0.811,1.771,1.583,2.294c0.271,0.205,0.577,0.333,0.927,0.397
	c0.808,0.141,1.633-0.363,2.076-1.072c0.448-0.705,0.623-1.512,0.76-2.314c0.068-0.386,0.138-0.804,0.064-1.205
	C101.622,48.282,97.996,47.486,96.816,49.273z"/>
<path opacity="0.05" fill="#8E1757" enable-background="new    " d="M44.808,31.182c-0.457,0.286-0.732,0.799-0.929,1.401
	c-0.094,0.299-0.158,0.594-0.177,0.918c-0.039,0.905,0.224,1.901,0.79,2.776c0.19,0.295,0.412,0.581,0.664,0.829
	c0.66,0.547,1.448,0.563,2.006,0.23c0.56-0.309,0.901-0.893,1.234-1.521c0.167-0.312,0.301-0.581,0.354-0.948
	C49.091,32.912,46.25,30.315,44.808,31.182z"/>
<path opacity="0.05" fill="#8E1757" enable-background="new    " d="M51.912,28.717c-0.327,0.192-0.557,0.551-0.679,0.931
	c-0.077,0.192-0.122,0.376-0.158,0.598c-0.088,0.589,0.079,1.205,0.418,1.76c0.103,0.196,0.269,0.35,0.436,0.504
	c0.408,0.329,0.974,0.278,1.365,0.039c0.393-0.239,0.656-0.637,0.917-1.038c0.111-0.197,0.224-0.393,0.295-0.62
	C54.745,29.64,52.927,28.094,51.912,28.717z"/>
<path opacity="0.05" fill="#8E1757" enable-background="new    " d="M122.703,24.702c-0.223,0.641-0.18,1.384-0.038,2.042
	c0.09,0.342,0.214,0.684,0.362,0.983c0.424,0.867,1.205,1.533,2.084,1.862c0.305,0.132,0.638,0.188,0.992,0.167
	c0.815-0.056,1.494-0.73,1.769-1.525s0.252-1.623,0.196-2.435c-0.025-0.389-0.061-0.812-0.223-1.179
	C127.107,22.617,123.43,22.686,122.703,24.702z"/>
<path opacity="0.13" fill="#8E1757" enable-background="new    " d="M58.589,47.234c-0.126,1.056,0.182,2.338,1.143,2.761
	c0.534,0.2,1.134,0.149,1.694,0.06c0.696-0.105,1.47-0.227,2.006-0.671c0.57-0.485,0.848-1.243,0.846-1.956
	c-0.013-0.752-0.301-1.461-0.72-2.076C61.803,42.583,58.875,44.721,58.589,47.234z"/>
<path opacity="0.13" fill="#8E1757" enable-background="new    " d="M159.005,46.305c0.222,0.646,0.179,1.389,0.034,2.047
	c-0.086,0.35-0.205,0.684-0.363,0.981c-0.423,0.867-1.199,1.533-2.076,1.862c-0.308,0.133-0.641,0.188-0.994,0.171
	c-0.816-0.06-1.496-0.734-1.77-1.529c-0.27-0.795-0.248-1.614-0.195-2.435c0.024-0.385,0.06-0.813,0.221-1.18
	C154.604,44.189,158.282,44.258,159.005,46.305z"/>
<path opacity="0.13" fill="#8E1757" enable-background="new    " d="M144.736,51.05c0.27,0.796,0.277,1.653,0.119,2.452
	c-0.067,0.419-0.162,0.803-0.328,1.166c-0.405,1.014-1.17,1.79-2.123,2.145c-0.342,0.125-0.676,0.181-1.021,0.125
	c-0.876-0.138-1.602-0.967-1.927-1.91c-0.351-0.947-0.337-1.947-0.329-2.918c0-0.461,0.039-0.961,0.146-1.404
	C140.004,48.309,143.908,48.557,144.736,51.05z"/>
<path opacity="0.13" fill="#8E1757" enable-background="new    " d="M183.811,57.671c0.373,1.06,0.295,2.265,0.047,3.371
	c-0.119,0.556-0.308,1.099-0.571,1.632c-0.718,1.396-1.97,2.523-3.451,3.084c-0.53,0.166-1.052,0.303-1.614,0.248
	c-1.347-0.099-2.423-1.234-2.914-2.49c-0.479-1.257-0.41-2.648-0.304-3.99c0.063-0.67,0.09-1.307,0.333-1.957
	C176.574,54.221,182.609,54.331,183.811,57.671z"/>
<path opacity="0.13" fill="#8E1757" enable-background="new    " d="M134.055,49.743c0.37,1.06,0.293,2.264,0.047,3.37
	c-0.121,0.556-0.309,1.098-0.572,1.632c-0.719,1.396-1.971,2.524-3.452,3.084c-0.529,0.167-1.052,0.304-1.614,0.248
	c-1.346-0.099-2.422-1.234-2.913-2.49c-0.479-1.256-0.409-2.647-0.304-3.989c0.064-0.672,0.09-1.308,0.333-1.957
	C126.816,46.291,132.854,46.402,134.055,49.743z"/>
<path opacity="0.13" fill="#8E1757" enable-background="new    " d="M111.857,55.458c0.513,1.095,0.56,2.394,0.414,3.599
	c-0.068,0.605-0.213,1.203-0.437,1.803c-0.614,1.563-1.828,2.908-3.349,3.664c-0.547,0.234-1.094,0.437-1.7,0.437
	c-1.444,0.043-2.718-1.06-3.375-2.347c-0.649-1.284-0.722-2.775-0.752-4.225c-0.009-0.718-0.042-1.4,0.146-2.117
	C103.764,52.559,110.217,52.027,111.857,55.458z"/>
<path opacity="0.08" fill="#8E1757" enable-background="new    " d="M177.387,47.396c0.217,0.642,0.174,1.39,0.037,2.047
	c-0.089,0.342-0.213,0.684-0.367,0.982c-0.418,0.862-1.203,1.529-2.076,1.857c-0.308,0.133-0.641,0.188-0.994,0.167
	c-0.815-0.052-1.5-0.734-1.77-1.525c-0.269-0.79-0.252-1.618-0.191-2.431c0.025-0.389,0.052-0.814,0.218-1.184
	C172.947,45.309,176.659,45.387,177.387,47.396z"/>
<path opacity="0.13" fill="#8E1757" enable-background="new    " d="M171.104,58.991c0.127,1.055-0.181,2.337-1.142,2.76
	c-0.534,0.2-1.133,0.149-1.696,0.06c-0.691-0.105-1.47-0.227-2.002-0.67c-0.568-0.486-0.852-1.244-0.848-1.957
	c0.014-0.752,0.305-1.461,0.723-2.076C167.891,54.339,170.82,56.477,171.104,58.991z"/>
<path opacity="0.05" fill="#8E1757" enable-background="new    " d="M16.378,40.436c-0.192,0.603-0.654,1.105-1.087,1.533
	c-1.946,1.986-5.741-1.222-4.318-3.589C12.388,35.971,17.253,37.543,16.378,40.436z"/>
<path opacity="0.13" fill="#8E1757" enable-background="new    " d="M25.865,52.393c1.773-0.564,4.28-2.633,3.702-4.765
	c-0.494-1.789-3.076-2.498-4.69-2.063C20.803,46.557,21.042,53.861,25.865,52.393z"/>
<path opacity="0.1" fill="#8E1757" enable-background="new    " d="M109.734,32.519c1.229-0.375,2.978-1.828,2.566-3.306
	c-0.333-1.234-2.127-1.708-3.232-1.427C106.24,28.478,106.391,33.574,109.734,32.519z"/>
<path opacity="0.05" fill="#8E1757" enable-background="new    " d="M22.424,33.267c-0.502,0.218-0.81,0.769-0.908,1.286
	c-0.137,0.734,0.094,1.525,0.611,2.093c0.517,0.563,1.341,0.789,2.065,0.605c0.581-0.162,1.091-0.563,1.487-1.016
	c0.498-0.508,0.97-1.153,0.824-1.85c-0.158-0.799-1.019-1.239-1.798-1.44c-0.6-0.158-1.258-0.235-1.828,0
	c-0.573,0.231-1.006,0.906-0.771,1.478"/>
<path opacity="0.08" fill="#8E1757" enable-background="new    " d="M21.668,39.008c-0.32-0.021-0.647,0.205-0.782,0.479
	c-0.137,0.271-0.188,0.638-0.177,0.957c0.019,0.781,0.248,1.576,0.771,2.175c0.551,0.556,1.42,0.847,2.159,0.521
	c0.639-0.272,0.998-0.938,1.034-1.627c0.037-0.688-0.314-1.346-0.779-1.812c-0.389-0.406-0.938-0.714-1.512-0.729
	c-0.575-0.021-1.17,0.319-1.333,0.879"/>
<path opacity="0.08" fill="#8E1757" enable-background="new    " d="M116.911,37.201c-0.329-0.021-0.649,0.209-0.786,0.479
	c-0.171,0.282-0.18,0.641-0.175,0.961c0.017,0.781,0.243,1.576,0.772,2.176c0.555,0.555,1.418,0.85,2.156,0.521
	c0.637-0.276,1-0.938,1.038-1.632c0-0.676-0.324-1.342-0.79-1.807c-0.38-0.406-0.927-0.715-1.508-0.73
	c-0.577-0.021-1.162,0.32-1.333,0.885"/>
<path opacity="0.05" fill="#8E1757" enable-background="new    " d="M98.128,26.3c-0.252-0.034-0.508,0.149-0.619,0.376
	c-0.103,0.239-0.135,0.491-0.13,0.777c0.023,0.606,0.194,1.256,0.626,1.726c0.427,0.436,1.146,0.684,1.718,0.418
	c0.504-0.222,0.803-0.773,0.793-1.307c0.025-0.546-0.238-1.076-0.615-1.444c-0.299-0.316-0.734-0.563-1.199-0.563
	c-0.467,0-0.928,0.248-1.038,0.696"/>
<path opacity="0.1" fill="#3E5F81" enable-background="new    " d="M58.779,26.825c-0.361-0.047-0.722,0.184-0.848,0.525
	c-0.163,0.35-0.143,0.705-0.079,1.089c0.032,0.209,0.064,0.418,0.196,0.577c0.318,0.453,1.002,0.453,1.562,0.367
	c0.53-0.042,1.153-0.179,1.403-0.649c0.222-0.393,0.104-0.914-0.028-1.315c-0.068-0.209-0.141-0.449-0.31-0.598
	c-0.167-0.154-0.354-0.239-0.583-0.308c-0.382-0.154-0.758-0.273-1.194-0.312c-0.395-0.013-0.839,0.128-1.081,0.415"/>
<g>
	<g>
		<defs>
			<rect id="SVGID_1_" x="0.303" y="0.304" width="192" height="72"/>
		</defs>
		<clipPath id="SVGID_2_">
			<use xlink:href="#SVGID_1_"  overflow="visible"/>
		</clipPath>
		<g clip-path="url(#SVGID_2_)">
			<path fill="#618D81" d="M77.764,42.291c0-0.566-2.051-0.824-2.051-0.824c-0.112-0.044-0.262-0.078-0.375-0.078l-6.898,0.189
				l-0.334,1.164C68.067,42.781,77.764,49.627,77.764,42.291z"/>
			<path fill="#B6C6A3" d="M176.79,73.652l-4.024-26.664c0,0-1.048-2.971-1.755-3.688c-0.706-0.713-4.177-1.02-4.177-1.843
				c0-0.824,1.452-0.752,2.346-0.752c0.898,0,2.428,0.451,2.428,0.451s-2.984-7.782-2.984-8.989c0-1.203,0.783-1.164,1.12-0.829
				c0.336,0.339,2.462,6.623,2.462,6.623s0.26-0.11,0.445-0.11c0.188,0-1.416-7.604-1.19-7.827c0.226-0.223,0.298-0.523,0.707-0.15
				c0.412,0.374,2.351,7.632,2.351,7.632s0.299-0.034,0.447-0.034s0.109-7.186,0.335-7.414c0.228-0.224,1.005,0.043,1.005,1.134
				c0,1.091,0.375,6.056,0.26,6.129c-0.07,0.072,0.563,0,0.563,0s0.374-4.102,0.597-4.364c0.221-0.228,0.672,0.262,0.672,0.64
				s0.371,3.161,0,5.455c-0.375,2.295-0.375,7.637-0.375,7.637l4.328,26.285L176.79,73.652z"/>
			<path fill="#B6C6A3" d="M152.027,73.766l2.428-26.893c0,0,0.855-3.044,1.49-3.801c0.673-0.747,4.102-1.275,4.063-2.104
				c-0.033-0.826-1.49-0.68-2.423-0.638c-0.933,0.073-2.39,1.049-2.39,1.049s2.504-8.384,2.429-9.552
				c-0.077-1.203-0.563-1.091-0.86-0.751c-0.299,0.34-2.197,6.772-2.197,6.772s-0.297-0.115-0.485-0.078
				c-0.187,0,0.972-7.669,0.746-7.897c-0.228-0.189-0.486-0.528-0.856-0.116c-0.373,0.416-1.863,7.791-1.863,7.791s-0.188,0-0.338,0
				c-0.148,0-0.668-7.19-0.896-7.375c-0.226-0.188-1.008,0.073-0.933,1.164c0.076,1.091,0,6.057,0.111,6.133
				c0.076,0.078-0.375,0.035-0.375,0.035s-0.818-4.098-1.082-4.321c-0.26-0.227-0.63,0.301-0.63,0.675s-0.038,3.312,0.261,5.527
				c0.297,2.295,0.933,7.525,0.933,7.525l-2.726,26.516L152.027,73.766z"/>
			<g>
				<path fill="#F7D8B6" d="M85.708,15.284c-1.195,0.039-2.5-0.111-3.17,0.868c-0.373,0.563-1.045,4.437,0.298,8.873
					c0.075,0.266,0.969,2.182,1.192,2.259c0.224,0.077,0.449,0.077,0.673,0.035c1.788-0.146,2.61,1.919,4.399,1.769
					c0.411-2.255,1.38-6.769,1.305-8.839C90.33,17.879,88.279,15.173,85.708,15.284z"/>
				<path fill="#F7D8B6" d="M90.964,13.404c0.149-0.301,0.298-0.636,0.521-0.902c0.298-0.301,0.673-0.412,1.007-0.563
					c1.305-0.489,2.648-0.979,3.954-1.464c0.11-0.228,0-0.528-0.221-0.678C96,9.641,95.774,9.684,95.514,9.684
					c-1.678,0.073-3.394,0.301-5.035,0.675c-0.373,0.073-0.782,0.189-1.118,0.451c-0.262,0.223-0.447,0.567-0.596,0.868
					c-0.709,1.426-1.27,2.895-1.716,4.437c-0.411,1.391,1.343,2.182,2.199,1.318C90.07,16.676,90.442,14.46,90.964,13.404z"/>
				<path fill="#F7D8B6" d="M85.371,11.9c0.11-0.451,0.26-0.941,0.521-1.353c0.373-0.563,0.969-0.941,1.493-1.392
					c0.372-0.339,0.707-0.717,1.082-1.052c0.373-0.339,0.856-0.602,1.38-0.64c0.223,0.528,0,1.129-0.298,1.62
					c-0.449,0.786-1.007,1.464-1.68,2.066c-0.075,0.072-0.149,0.15-0.224,0.227c-0.037,0.073-0.075,0.189-0.075,0.262
					c-0.224,1.391-0.447,2.744-0.709,4.136c0,0.039,0,0.111-0.036,0.15c-0.187,0.262-1.194,0.528-1.529,0.417
					c-0.411-0.116-0.596-0.189-0.596-0.528C84.662,14.649,85.073,12.991,85.371,11.9z"/>
				<path fill="#F7D8B6" d="M83.953,10.247c0.038-0.039,0.038-0.073,0.074-0.073c0.113-0.078,0.3,0,0.375,0.111
					c0.373,0.413,0.334,1.014,0.185,1.538c-0.149,0.528-0.447,1.057-0.447,1.581c0,0.3,0.036,0.601,0.11,0.944
					c0.113,0.447,0.411,1.276,0.375,1.203c-0.149-0.49,0.334,0.636-0.149,0.937c-0.485,0.3-1.231,1.58-1.754,1.056
					c-0.409-0.455-0.259-2.22-0.259-2.783c0.036-0.756,0.185-1.503,0.409-2.221C83.133,11.75,83.506,10.998,83.953,10.247z"/>
				<path fill="#F7D8B6" d="M88.95,17.578c0,0,2.35-3.045,4.028-3.385c0.858-0.189,3.502,1.319,4.026,1.847
					c0.525,0.523,1.156,1.653,1.344,2.216c0.188,0.567-1.195,0.151-2.349-0.867c-0.971-0.859-2.238-0.902-2.387-0.859
					c-1.454,0.485-2.052,2.44-2.127,2.74c-0.149,0.756,0.336,2.783,0.747,3.351c0.632,0.902,1.416,1.916,3.767,1.692
					c1.341-0.112,2.392,1.804,2.127,2.07c-0.64,0.635-1.271-0.528-3.807-0.112c-1.604,0.258-3.728-0.489-4.586-1.207
					c-0.858-0.713-2.348,0.79-2.348,0.79L88.95,17.578z"/>
				<polygon fill="#F7D8B6" points="89.099,28.938 87.098,74.748 79.831,72.914 84.251,25.48 				"/>
			</g>
			<path fill="#F1AC97" d="M95.851,26.271c0,0-0.077-0.567,0.186-0.644c0.262-0.073,1.271-0.035,1.527,0.3
				c0.265,0.344,0.153,0.679,0.153,0.679s-0.598-0.077-1.012-0.15C96.298,26.383,95.851,26.271,95.851,26.271z"/>
			<path fill="#F1AC97" d="M97.564,16.788c-0.186-0.258-0.373,0.717-0.258,0.945c0.11,0.224,0.709,0.636,0.777,0.636
				c0.077,0,0.23-0.073,0.23-0.073S98.161,17.656,97.564,16.788z"/>
			<path fill="#F7D8B6" d="M89.847,25.292"/>
			<path fill="#C48758" d="M84.328,41.166"/>
			<g>
				<path fill="#F7D8B6" d="M111.029,15.323c1.191,0.039,2.494-0.111,3.168,0.863c0.375,0.567,1.048,4.441-0.299,8.878
					c-0.076,0.261-0.972,2.182-1.191,2.255c-0.221,0.077-0.452,0.077-0.673,0.042c-1.788-0.155-2.604,1.916-4.403,1.766
					c-0.408-2.255-1.379-6.773-1.303-8.839C106.37,17.922,108.415,15.212,111.029,15.323z"/>
				<path fill="#F7D8B6" d="M105.766,13.442c-0.145-0.3-0.298-0.64-0.52-0.902c-0.298-0.3-0.673-0.417-1.005-0.563
					c-1.304-0.49-2.648-0.979-3.952-1.469c-0.109-0.223,0-0.523,0.223-0.678c0.221-0.112,0.451-0.112,0.706-0.112
					c1.679,0.078,3.398,0.301,5.034,0.679c0.375,0.077,0.782,0.189,1.123,0.451c0.256,0.228,0.443,0.563,0.598,0.864
					c0.707,1.43,1.269,2.895,1.711,4.441c0.408,1.391-1.336,2.182-2.197,1.314C106.668,16.715,106.252,14.495,105.766,13.442z"/>
				<path fill="#F7D8B6" d="M111.361,11.938c-0.11-0.451-0.256-0.94-0.521-1.353c-0.375-0.567-0.971-0.945-1.489-1.392
					c-0.375-0.339-0.707-0.717-1.082-1.057c-0.375-0.334-0.86-0.601-1.379-0.636c-0.224,0.524,0,1.125,0.297,1.615
					c0.442,0.79,1.006,1.469,1.678,2.07c0.076,0.073,0.146,0.151,0.223,0.223c0.043,0.078,0.076,0.189,0.076,0.267
					c0.223,1.392,0.443,2.745,0.707,4.136c0,0.039,0,0.111,0.042,0.15c0.179,0.262,1.192,0.524,1.524,0.412
					c0.408-0.112,0.597-0.189,0.597-0.524C112.068,14.684,111.625,13.029,111.361,11.938z"/>
				<path fill="#F7D8B6" d="M112.784,10.319c-0.043-0.034-0.043-0.073-0.077-0.073c-0.111-0.073-0.298,0-0.375,0.112
					c-0.375,0.416-0.332,1.018-0.188,1.542c0.152,0.524,0.451,1.057,0.451,1.58c0,0.301-0.043,0.602-0.109,0.941
					c-0.111,0.451-0.418,1.275-0.375,1.203c0.144-0.49-0.342,0.64,0.144,0.94c0.486,0.301,1.235,1.581,1.756,1.053
					c0.407-0.451,0.265-2.22,0.265-2.783c-0.043-0.751-0.188-1.503-0.409-2.22C113.566,11.789,113.227,11.032,112.784,10.319z"/>
				<path fill="#F7D8B6" d="M107.784,17.617c0,0-2.351-3.045-4.028-3.384c-0.859-0.185-3.509,1.318-4.027,1.842
					c-0.521,0.528-1.16,1.658-1.338,2.221c-0.187,0.563,1.192,0.15,2.342-0.863c0.973-0.868,2.24-0.902,2.395-0.868
					c1.447,0.49,2.044,2.444,2.12,2.75c0.153,0.747-0.332,2.783-0.741,3.341c-0.638,0.906-1.422,1.924-3.771,1.697
					c-1.338-0.117-2.385,1.804-2.121,2.066c0.63,0.644,1.27-0.524,3.798-0.112c1.61,0.266,3.729-0.489,4.591-1.203
					c0.859-0.713,2.352,0.791,2.352,0.791L107.784,17.617z"/>
				<polygon fill="#F7D8B6" points="107.598,28.977 110.535,73.834 117.076,72.186 112.486,25.554 				"/>
			</g>
			<path fill="#F1AC97" d="M100.844,26.305c0,0,0.076-0.563-0.179-0.636c-0.265-0.077-1.269-0.042-1.533,0.301
				c-0.265,0.3-0.146,0.674-0.146,0.674s0.597-0.073,1.006-0.15C100.436,26.383,100.844,26.305,100.844,26.305z"/>
			<path fill="#F1AC97" d="M99.166,16.831c0.188-0.267,0.375,0.713,0.264,0.937c-0.109,0.228-0.707,0.64-0.783,0.64
				c-0.078,0-0.222-0.073-0.222-0.073S98.536,17.732,99.166,16.831z"/>
			<path fill="#F7D8B6" d="M106.848,25.326"/>
			<path fill="#C48758" d="M112.409,41.238"/>
			<polygon fill="#DB97B1" points="42.412,60.536 31.857,29.845 27.682,31.459 36.743,62.752 			"/>
			<path fill="#DB97B1" d="M31.782,29.917c0.039-0.039,0.113-0.073,0.113-0.15c0.485-1.503,0.709-3.539,1.267-5.154
				c0.56-1.654,1.716-1.881,1.454-2.594c-0.298-0.756-2.235,0.034-2.87,0.678c-0.411,0.447-1.082,1.203-1.455,1.654
				c-0.149,0.185-0.411,0.111-0.521-0.151c-0.635-1.43-2.461-5.454-3.208-5.154c-0.895,0.339-0.483,1.469-0.895,1.615
				c-0.411,0.155-1.23,0-1.567,0.116c-0.334,0.15-0.298,0.902-0.558,0.975c-0.262,0.116-1.567,0.344-1.68,0.717
				c-0.111,0.3-0.037,0.94-0.037,1.241c0,0.111-0.038,0.223-0.113,0.3c-0.185,0.189-0.558,0.567-0.67,0.825
				c-0.111,0.378,1.528,3.389,3.43,5.008c1.531,1.314,2.872,2.182,3.319,2.439c0.113,0.077,0.224,0.077,0.298,0L31.782,29.917z"/>
			<path fill="#CF8E77" d="M73.401,74.484l-5.482-36.103c0,0-1.082-2.826-2.461-4.33c-0.933-0.979-5.707-3.272-5.707-4.398
				c0-0.528,1.978-0.417,3.134,0c1.005,0.374,2.125,1.052,2.125,1.052s0.671-1.919-0.074-4.024
				c-1.156-3.196-2.649-7.414-2.649-8.388c0-1.619,1.045-1.581,1.493-1.13c0.447,0.451,3.281,8.65,3.281,8.65s0.337,0.3,0.671,0.155
				c0.226-0.078-1.976-9.973-1.863-10.42c0.074-0.456,0.969-0.902,1.49-0.339c0.524,0.528,2.5,8.534,2.759,9.59
				c0.039,0.078,0.039,0.15,0.113,0.223c0.112,0.189,0.411,0.567,0.634,0.49c0.185-0.073,0-9.29,0.447-10.042
				c0.185-0.339,1.379-0.678,1.379,0.791c0,1.469,0.411,8.272,0.411,8.427c-0.038,0.412,0.596,0.752,0.596,0.752
				s0.224-5.906,0.561-6.207c0.333-0.3,0.894-0.111,0.968,0.863c0.075,0.906,0.522,4.402,0.336,7.563
				c-0.708,11.734,5.332,45.887,5.332,45.887L73.401,74.484z"/>
			<path fill="#7BB2A3" d="M77.764,42.291c0,0-6.564,2.26-9.696,0.49l0.67,32.835l12.53-1.431L77.764,42.291z"/>
			<path fill="#E2AF89" d="M63.779,17.205c0,0-0.373-0.228-0.709-0.116c-0.336,0.116-0.485,0.567-0.485,0.567l0.634,1.202
				c0,0,0.336,0.112,0.522,0.078c0.223-0.039,0.336-0.34,0.336-0.34L63.779,17.205z"/>
			<path fill="#E2AF89" d="M72.579,15.697c0,0-0.259-0.374-0.632-0.374c-0.375,0-0.56,0.339-0.56,0.339l0.036,1.314
				c0,0,0.262,0.155,0.449,0.189c0.224,0.039,0.447-0.15,0.447-0.15L72.579,15.697z"/>
			<path fill="#E2AF89" d="M75.041,19.498c0,0-0.185-0.262-0.448-0.262c-0.259,0-0.372,0.224-0.372,0.224l0.039,0.902
				c0,0,0.185,0.116,0.333,0.116c0.149,0.039,0.299-0.116,0.299-0.116L75.041,19.498z"/>
			<path fill="#E2AF89" d="M66.053,15.551c0,0,0.224-0.378,0.56-0.49c0.336-0.111,0.82,0.223,0.82,0.223l0.149,1.503
				c0,0-0.224,0.189-0.447,0.189c-0.223,0-0.409-0.034-0.409-0.034L66.053,15.551z"/>
			<path fill="#E2AF89" d="M61.28,31.236c0,0,0.822-0.3,0.822-0.49c0-0.189-1.082-1.318-1.231-1.318s-0.821,0-0.896,0.301
				C59.9,30.03,59.975,30.519,61.28,31.236z"/>
			<path fill="#618D81" d="M37.825,41.801c0-0.563,2.051-0.824,2.051-0.824c0.113-0.037,0.262-0.076,0.373-0.076l6.898,0.188
				l0.336,1.169C47.519,42.257,37.825,49.139,37.825,41.801z"/>
			<path fill="#CF8E77" d="M42.188,73.997l5.483-36.104c0,0,1.08-2.827,2.461-4.33c0.93-0.979,5.704-3.273,5.704-4.398
				c0-0.529-1.976-0.413-3.132,0c-1.007,0.377-2.125,1.052-2.125,1.052s-0.673-1.92,0.074-4.024
				c1.157-3.195,2.647-7.413,2.647-8.388c0-1.619-1.043-1.581-1.49-1.129c-0.447,0.455-3.284,8.649-3.284,8.649
				s-0.334,0.301-0.67,0.155c-0.224-0.077,1.976-9.968,1.865-10.419c-0.074-0.455-0.97-0.902-1.492-0.339
				c-0.522,0.528-2.498,8.539-2.759,9.591c-0.036,0.077-0.036,0.15-0.11,0.224c-0.113,0.189-0.412,0.566-0.635,0.489
				c-0.188-0.073,0-9.286-0.447-10.042c-0.187-0.335-1.38-0.679-1.38,0.791c0,1.469-0.411,8.276-0.411,8.426
				c0.038,0.413-0.596,0.751-0.596,0.751s-0.224-5.905-0.56-6.206c-0.337-0.301-0.895-0.112-0.969,0.867
				c-0.075,0.902-0.524,4.398-0.336,7.559c0.709,11.732-5.333,45.887-5.333,45.887L42.188,73.997z"/>
			<path fill="#7BB2A3" d="M37.825,41.801c0,0,6.563,2.26,9.694,0.49l-0.67,32.835l-12.53-1.431L37.825,41.801z"/>
			<path fill="#E2AF89" d="M51.846,16.715c0,0,0.372-0.228,0.709-0.112c0.336,0.112,0.485,0.563,0.485,0.563l-0.635,1.203
				c0,0-0.336,0.112-0.521,0.077c-0.224-0.038-0.336-0.339-0.336-0.339L51.846,16.715z"/>
			<path fill="#E2AF89" d="M43.007,15.212c0,0,0.262-0.378,0.635-0.378c0.372,0,0.56,0.339,0.56,0.339l-0.038,1.314
				c0,0-0.26,0.154-0.447,0.189c-0.223,0.039-0.447-0.146-0.447-0.146L43.007,15.212z"/>
			<path fill="#E2AF89" d="M40.584,18.97c0,0,0.185-0.262,0.447-0.262c0.262,0,0.373,0.228,0.373,0.228l-0.037,0.902
				c0,0-0.187,0.111-0.336,0.111c-0.149,0.039-0.298-0.111-0.298-0.111L40.584,18.97z"/>
			<path fill="#E2AF89" d="M49.534,15.061c0,0-0.224-0.377-0.559-0.49c-0.336-0.111-0.822,0.224-0.822,0.224l-0.149,1.503
				c0,0,0.224,0.189,0.447,0.189c0.223,0,0.411-0.035,0.411-0.035L49.534,15.061z"/>
			<path fill="#E2AF89" d="M54.345,30.746c0,0-0.821-0.3-0.821-0.489s1.082-1.319,1.23-1.319s0.822,0,0.896,0.301
				C55.725,29.466,55.612,30.029,54.345,30.746z"/>
			<polygon fill="#EBBD8C" points="120.423,78.588 125.941,37.477 131.912,37.477 130.566,79.301 			"/>
			<path fill="#EBBD8C" d="M125.83,39.318c0,0-2.835-3.083-4.359-5.227c-0.408-0.602-0.152-4.549-0.152-5.382
				c0-0.824-0.93-2.929-0.409-2.929c0.528,0,2.726,1.692,2.726,3.535c0,1.842,0,3.913,0,3.913s4.471,1.615,6.336,1.503
				c3.51-0.189,5.034-4.703,5.034-5.116c0-0.417-0.521-1.919-0.521-1.919v-1.615c0,0,3.211,2.555,3.211,3.118
				c0,0.567-1.234,4.218-1.234,4.776c0,0.567,0.484,2.036,0.484,2.749c0,0.713-5.816,4.398-5.816,4.398L125.83,39.318z"/>
			<path fill="#706F6F" d="M123.259,18.669c0-0.602,1.603-0.824,4.812-0.824c3.203,0,5.853-0.378,6.713,0
				c0.859,0.377,0.408,14.705,0,16.208c-0.409,1.503-10.553,0.902-11.072,0.34C123.184,33.831,123.259,18.669,123.259,18.669z"/>
			<path fill="#F6F6F6" d="M123.259,20.817c0-0.456,1.603-0.641,4.812-0.641c3.203,0,5.853-0.262,6.713,0
				c0.859,0.262,0.408,11.171,0,12.297c-0.409,1.129-10.553,0.678-11.072,0.266C123.148,32.327,123.259,20.817,123.259,20.817z"/>
			<path fill="#F7D8B6" d="M7.506,72.947l2.947-19.258c0,0-1.529-10.084-1.117-11.06c0.408-0.979,0.781-2.255,1.937-1.353
				c0.336,0.262,1.12-0.68,1.642-0.68s1.529,0.68,1.529,0.68h0.298c0,0-0.075-8.616,0.298-8.994
				c0.336-0.335,1.305-0.413,1.454-0.146c0.485,1.013,0.373,8.194,0.485,8.761c0.113,0.488,0.561,0.679,0.561,0.679
				s1.49-8.238,1.901-8.693c0.411-0.412,1.23,0.189,1.305,0.533c0.336,1.649-1.976,9.964-1.379,10.604
				c0.447,0.527,1.716,3.233,1.416,3.946c-0.895,2.146-4.438,6.585-4.438,6.585l-0.933,19.068L7.506,72.947z"/>
			<path fill="#F2B081" d="M19.55,33.074c-0.072,0.039-0.149,1.13,0.077,1.469c0.224,0.339,0.596,0.15,0.671,0.077
				c0.074-0.077,0.333-1.202,0.333-1.202S20.074,32.851,19.55,33.074z"/>
			<path fill="#F2B081" d="M15.301,32.284c-0.075,0.043-0.149,1.134,0.075,1.469c0.224,0.339,0.596,0.189,0.819-0.035
				c0.188-0.189,0.188-1.507,0.188-1.507S15.823,32.061,15.301,32.284z"/>
		</g>
		<g clip-path="url(#SVGID_2_)">
			<path fill="#82BA41" d="M128.067,30.141c-0.012-0.003-0.025-0.006-0.039-0.009c-1.795-0.46-1.661-2.876-1.528-3.723
				c0.352-2.238,1.516-4.479,2.711-4.412c0.138,0.008,0.259,0.042,0.368,0.1c-0.844,0.212-1.843,1.373-2.258,2.997
				c-0.485,1.891-0.712,4.156-0.059,4.432c-0.335-0.539-0.389-1.41-0.038-2.773c0.576-2.255,2.599-4.769,3.674-4.493
				c1.076,0.276,1.497,2.345,0.919,4.6c-0.576,2.255-2.495,3.612-3.572,3.336C128.185,30.179,128.125,30.16,128.067,30.141"/>
		</g>
	</g>
</g>
<path opacity="0.05" fill="#8E1757" enable-background="new    " d="M141.145,25.334c-0.551,0.227-0.943,0.727-1.269,1.346
	c-0.153,0.303-0.282,0.611-0.358,0.961c-0.213,0.974-0.11,2.102,0.342,3.152c0.154,0.354,0.338,0.709,0.563,1.017
	c0.615,0.718,1.466,0.88,2.132,0.624c0.661-0.222,1.141-0.799,1.614-1.418c0.239-0.308,0.437-0.572,0.56-0.961
	C145.463,28,142.866,24.659,141.145,25.334z"/>
<path opacity="0.05" fill="#8E1757" enable-background="new    " d="M149.291,23.984c-0.385,0.145-0.701,0.491-0.906,0.88
	c-0.119,0.197-0.199,0.385-0.281,0.615c-0.205,0.624-0.137,1.324,0.129,1.991c0.072,0.23,0.222,0.423,0.375,0.624
	c0.385,0.427,1.004,0.479,1.47,0.291c0.471-0.184,0.829-0.564,1.188-0.948c0.152-0.197,0.314-0.385,0.43-0.615
	C152.188,25.505,150.504,23.498,149.291,23.984z"/>
</svg>
