<?xml version="1.0" encoding="utf-8"?>
<!-- Generator: Adobe Illustrator 16.0.3, SVG Export Plug-In . SVG Version: 6.00 Build 0)  -->
<!DOCTYPE svg PUBLIC "-//W3C//DTD SVG 1.1//EN" "http://www.w3.org/Graphics/SVG/1.1/DTD/svg11.dtd">
<svg version="1.1" id="Layer_1" xmlns="http://www.w3.org/2000/svg" xmlns:xlink="http://www.w3.org/1999/xlink" x="0px" y="0px"
	 width="532px" height="382.891px" viewBox="0 0 532 382.891" enable-background="new 0 0 532 382.891" xml:space="preserve">
<g>
	<g opacity="0.08">
		<g>
			<g>
				<g>
					<g>
						<defs>
							<rect id="SVGID_1_" x="0.65" y="30.296" width="532.468" height="339.067"/>
						</defs>
						<clipPath id="SVGID_2_">
							<use xlink:href="#SVGID_1_"  overflow="visible"/>
						</clipPath>
						<path clip-path="url(#SVGID_2_)" fill="#8E1757" d="M13.48,60.745c66.434-67.077,236.868-2.34,321.101-2.804
							c84.231-0.464,211.511,30.433,197.466,164.622c-14.044,134.19-156.248,167.292-257.181,135.723
							C173.933,326.72,54.788,330.436,21.33,237.453C-12.128,144.473,2.512,71.819,13.48,60.745"/>
					</g>
				</g>
			</g>
		</g>
	</g>
	<g opacity="0.13">
		<g>
			<g>
				<g>
					<g>
						<defs>
							<rect id="SVGID_3_" x="398.436" y="122.961" width="25.578" height="31.132"/>
						</defs>
						<clipPath id="SVGID_4_">
							<use xlink:href="#SVGID_3_"  overflow="visible"/>
						</clipPath>
						<path clip-path="url(#SVGID_4_)" fill="#8E1757" d="M400.1,128.424c-1.521,2.845-1.848,6.194-1.578,9.408
							c0.137,1.61,0.412,3.217,0.903,4.758c1.353,4.234,4.375,7.912,8.269,10.058c1.359,0.748,2.844,1.32,4.391,1.43
							c3.782,0.263,7.309-2.371,9.158-5.682c1.853-3.31,2.342-7.19,2.64-10.973c0.146-1.856,0.253-3.743-0.115-5.57
							C421.772,121.963,404.814,119.616,400.1,128.424"/>
					</g>
				</g>
			</g>
		</g>
	</g>
	<g opacity="0.13">
		<g>
			<g>
				<g>
					<g>
						<defs>
							<rect id="SVGID_5_" x="216.315" y="77.527" width="15.59" height="18.977"/>
						</defs>
						<clipPath id="SVGID_6_">
							<use xlink:href="#SVGID_5_"  overflow="visible"/>
						</clipPath>
						<path clip-path="url(#SVGID_6_)" fill="#8E1757" d="M217.329,80.857c-0.928,1.732-1.126,3.775-0.962,5.733
							c0.082,0.981,0.251,1.96,0.551,2.9c0.824,2.579,2.666,4.82,5.04,6.13c0.827,0.455,1.731,0.805,2.674,0.87
							c2.305,0.158,4.453-1.446,5.582-3.464c1.129-2.017,1.427-4.383,1.609-6.688c0.089-1.132,0.154-2.281-0.071-3.396
							C230.539,76.919,220.203,75.489,217.329,80.857"/>
					</g>
				</g>
			</g>
		</g>
	</g>
	<g opacity="0.1">
		<g>
			<g>
				<g>
					<g>
						<defs>
							<rect id="SVGID_7_" x="433.516" y="145.387" width="15.308" height="13.716"/>
						</defs>
						<clipPath id="SVGID_8_">
							<use xlink:href="#SVGID_7_"  overflow="visible"/>
						</clipPath>
						<path clip-path="url(#SVGID_8_)" fill="#8E1757" d="M440.175,159.004c3.622-0.524,9.103-3.823,8.615-8.146
							c-0.401-3.585-5.211-5.74-8.445-5.44C432.154,146.172,430.432,160.418,440.175,159.004"/>
					</g>
				</g>
			</g>
		</g>
	</g>
	<g opacity="0.1">
		<g>
			<g>
				<g>
					<g>
						<defs>
							<rect id="SVGID_9_" x="94.283" y="50.779" width="14.342" height="12.725"/>
						</defs>
						<clipPath id="SVGID_10_">
							<use xlink:href="#SVGID_9_"  overflow="visible"/>
						</clipPath>
						<path clip-path="url(#SVGID_10_)" fill="#3E5F81" d="M97.749,51.539c-1.495,0.416-2.577,1.773-3.084,3.24
							c-0.692,2.004-0.446,4.333,0.753,6.079c1.2,1.746,3.355,2.824,5.463,2.617c1.72-0.168,3.262-1.114,4.639-2.156
							c1.593-1.201,3.186-2.846,3.102-4.84c-0.096-2.286-2.323-3.852-4.425-4.754c-1.599-0.688-3.377-1.22-5.067-0.798
							c-1.69,0.421-3.163,2.107-2.783,3.807"/>
					</g>
				</g>
			</g>
		</g>
	</g>
	<g opacity="0.05">
		<g>
			<g>
				<g>
					<g>
						<defs>
							<rect id="SVGID_11_" x="235.306" y="51.581" width="10.765" height="14.252"/>
						</defs>
						<clipPath id="SVGID_12_">
							<use xlink:href="#SVGID_11_"  overflow="visible"/>
						</clipPath>
						<path clip-path="url(#SVGID_12_)" fill="#8E1757" d="M236.217,54.379c-0.712,1.346-0.937,2.893-0.91,4.357
							c0.014,0.736,0.088,1.467,0.253,2.159c0.453,1.908,1.62,3.517,3.192,4.396c0.548,0.308,1.153,0.528,1.797,0.539
							c1.575,0.021,3.119-1.281,3.981-2.852c0.862-1.565,1.17-3.36,1.396-5.104c0.109-0.856,0.203-1.727,0.099-2.555
							C245.453,50.84,238.422,50.212,236.217,54.379"/>
					</g>
				</g>
			</g>
		</g>
	</g>
	<g opacity="0.13">
		<g>
			<g>
				<g>
					<g>
						<defs>
							<rect id="SVGID_13_" x="230.687" y="107.966" width="16.877" height="22.345"/>
						</defs>
						<clipPath id="SVGID_14_">
							<use xlink:href="#SVGID_13_"  overflow="visible"/>
						</clipPath>
						<path clip-path="url(#SVGID_14_)" fill="#8E1757" d="M232.115,112.353c-1.116,2.108-1.468,4.534-1.425,6.834
							c0.021,1.154,0.136,2.297,0.395,3.385c0.711,2.991,2.54,5.514,5.005,6.896c0.859,0.479,1.807,0.833,2.817,0.847
							c2.47,0.03,4.89-2.01,6.242-4.468c1.352-2.457,1.834-5.271,2.186-8.004c0.173-1.343,0.322-2.703,0.156-4.004
							C246.596,106.805,235.573,105.821,232.115,112.353"/>
					</g>
				</g>
			</g>
		</g>
	</g>
	<g opacity="0.08">
		<g>
			<g>
				<g>
					<g>
						<defs>
							<rect id="SVGID_15_" x="35.489" y="181.381" width="54.588" height="62.8"/>
						</defs>
						<clipPath id="SVGID_16_">
							<use xlink:href="#SVGID_15_"  overflow="visible"/>
						</clipPath>
						<path clip-path="url(#SVGID_16_)" fill="#3E5F81" d="M41.548,186.993c5.132-4.718,12.703-5.377,19.669-5.561
							c5.071-0.131,10.228-0.126,15.102,1.279c4.874,1.404,9.501,4.396,11.799,8.921c1.859,3.659,2.038,7.925,1.938,12.028
							c-0.153,6.237-0.865,12.466-2.127,18.579c-1.555,7.53-4.502,15.604-11.25,19.295c-3.269,1.789-7.071,2.316-10.791,2.544
							c-6.451,0.389-13.426-0.234-18.429-4.326c-5.2-4.252-7.107-11.237-8.728-17.756C36.043,211.188,31.872,195.889,41.548,186.993
							"/>
					</g>
				</g>
			</g>
		</g>
	</g>
	<path fill="#C7D0D8" d="M390.335,192.855c2.942-2.692,4.39-6.626,5.489-10.461c1.292-4.5,2.253-9.098,2.873-13.734
		c0.363-2.719,0.645-5.556,2.087-7.886c1.346-2.177,4.671-11.94,6.937-13.135c9.676-5.09,22.521-4.153,30.165,3.664
		c4.746,4.854,5.806,19.063,5.87,25.854c0.067,6.786-1.438,13.477-2.501,20.182c-0.255,1.614-0.45,3.396,0.45,4.76
		c0.759,1.148,2.122,1.72,3.421,2.176c5.933,2.082,12.229,3.116,18.517,3.042c2.639-0.029,5.525-0.184,7.619,1.421
		c3.296,2.521,2.625,7.578,1.624,11.604c-2.688,10.822-5.38,21.645-8.066,32.465c-1.421,5.711-2.972,11.673-6.91,16.042
		c-2.649,2.938-6.198,4.926-9.865,6.407c-11.836,4.787-25.263,4.675-37.628,1.496c-12.365-3.182-23.799-9.267-34.545-16.161
		c-1.657-1.063-3.354-2.198-4.404-3.863c-0.85-1.35-1.21-2.938-1.557-4.493c-2.682-12.041-5.359-24.081-8.039-36.12
		c-1.432-6.42-2.45-14.222,2.461-18.596C372.434,190.299,382.456,200.067,390.335,192.855"/>
	<path fill="#C7D0D8" d="M455.888,224.673c0,0,0.332-74.803-12.86-90.818c-2.102-2.548-3.294-5.479-5.521-7.771
		c-2.227-2.289-13.336-3.313-13.336-6.034s4.604-2.493,7.528-2.493c2.923,0,7.66,1.489,7.66,1.489s-9.487-25.276-9.487-29.132
		c0-3.854,2.468-3.756,3.508-2.688s7.896,21.547,7.896,21.547s0.877-0.391,1.462-0.391c0.584,0-4.495-24.693-3.804-25.407
		c0.694-0.714,0.986-1.767,2.269-0.451c1.278,1.315,7.455,24.809,7.455,24.809s0.948-0.075,1.389-0.075
		c0.441,0,0.365-23.379,1.022-24.056c0.655-0.678,3.216,0.074,3.216,3.607s1.133,19.656,0.877,19.92c-0.256,0.265,1.827,0,1.827,0
		s1.134-13.343,1.897-14.132c0.771-0.789,2.12,0.901,2.12,2.104c0,1.2,1.169,10.298,0,17.738c-1.17,7.442-1.243,24.731-1.243,24.731
		s18.792,37.847,13.74,77.181C472.852,219.414,455.888,224.673,455.888,224.673"/>
	<path fill="#C7D0D8" d="M377.721,200.52c0,0,1.131-46.396,5-67.333c0.586-3.172,6.426-11.45,8.514-13.811
		c2.086-2.356,13.113-4.031,12.951-6.671c-0.16-2.642-4.744-2.142-7.662-1.961c-2.918,0.178-7.558,3.271-7.558,3.271
		s7.97-26.468,7.74-30.208c-0.229-3.741-1.784-3.494-2.758-2.393c-0.976,1.102-7.017,21.394-7.017,21.394s-0.973-0.326-1.556-0.29
		c-0.584,0.036,3.095-24.238,2.354-24.89c-0.733-0.65-1.575-1.653-2.773-0.299c-1.198,1.354-5.968,24.526-5.968,24.526
		s-0.597-0.014-1.032,0.015c-0.438,0.025-2.109-22.666-2.811-23.282c-0.694-0.615-3.205,0.27-2.996,3.698
		c0.209,3.428,0.037,19.146,0.311,19.385c0.271,0.24-1.136,0.112-1.136,0.112s-2.611-12.882-3.427-13.601
		c-0.813-0.72-2.062,1.005-1.987,2.172c0.069,1.167-0.106,10.5,0.835,17.436c0.986,7.264,5.927,18.543,2.927,23.707
		c-6.79,11.688-13.456,53.854-7.623,80.246L377.721,200.52z"/>
	<path fill="#7BB2A3" d="M226.97,231.383c0,0-0.302,71.638-23.632,80.96c-38.543,15.396-61.897,7.548-77.896-0.089
		c-18.223-8.698-23.21-88.729-23.21-88.729l31.654,4.325l31.153-4.533l28.842,5.873L226.97,231.383z"/>
	<polygon fill="#DABDB0" points="50.176,262.826 62.279,163.625 75.391,163.625 72.365,264.503 	"/>
	<g>
		<path fill="#706F6F" d="M53.288,119.352c-0.235-1.496,2.871-2.598,9.272-3.604c6.401-1.011,11.519-2.731,13.374-2.107
			c1.855,0.623,6.598,36.665,6.384,40.518c-0.213,3.849-20.645,5.533-21.928,4.313C59.105,157.249,53.288,119.352,53.288,119.352"/>
		<path fill="#F6F6F6" d="M54.484,122.559c-0.199-1.261,2.794-2.244,8.938-3.213c6.144-0.97,11.073-2.517,12.837-2.021
			c1.764,0.49,5.645,30.829,5.371,34.085c-0.274,3.254-19.857,5.048-21.063,4.043C59.36,154.444,54.484,122.559,54.484,122.559"/>
		<g>
			<path fill="#82BA41" d="M66.769,145.677c-0.027-0.002-0.057-0.007-0.088-0.01c-4.108-0.63-4.321-6.021-4.204-7.934
				c0.311-5.043,2.437-10.268,5.121-10.379c0.31-0.012,0.588,0.037,0.843,0.144c-1.839,0.651-3.826,3.446-4.409,7.142
				c-0.684,4.301-0.71,9.38,0.81,9.849c-0.863-1.123-1.168-3.045-0.675-6.146c0.81-5.133,4.796-11.15,7.256-10.771
				c2.462,0.381,3.842,4.879,3.029,10.012c-0.81,5.128-4.81,8.559-7.276,8.181C67.04,145.74,66.904,145.709,66.769,145.677"/>
		</g>
	</g>
	<path fill="#DABDB0" d="M62.028,168.075c0,0-11.139-5.017-9.895-25.632c0.123-2.035-2.05-7.104-0.887-7.104s5.964,4.07,5.964,8.5
		c0,4.429,0.784,10.021,0.784,10.021s9.086,3.364,13.172,3.102c7.675-0.498,11.052-11.354,11.052-12.365
		c0-1.016-1.124-4.645-1.124-4.645v-3.937c0,0,7.059,6.201,7.059,7.563c0,1.357-2.661,10.114-2.661,11.489s1.092,4.927,1.092,6.652
		c0,5.837-12.757,10.659-12.757,10.659L62.028,168.075z"/>
	<polygon fill="#D39A67" points="12.269,193.121 30.294,106.445 44.587,110.056 31.759,198.045 	"/>
	<path fill="#F8D8B6" d="M260.505,22.008c-3.165,0.149-6.731-0.333-8.524,2.28c-1.009,1.47-2.826,11.791,0.799,23.604
		c0.201,0.652,2.599,5.773,3.228,6.037c0.571,0.238,1.217,0.196,1.835,0.149c4.797-0.359,6.58,1.144,11.378,0.781
		c1.143-6.004,4.12-14.124,3.957-19.564C272.982,28.891,267.479,21.679,260.505,22.008"/>
	<path fill="#F8D8B6" d="M274.622,16.963c0.396-0.846,0.81-1.711,1.448-2.354c0.758-0.762,1.764-1.139,2.736-1.496
		c3.528-1.296,7.062-2.591,10.592-3.886c0.336-0.59-0.021-1.417-0.573-1.756c-0.554-0.341-1.226-0.325-1.857-0.294
		c-4.54,0.223-9.067,0.829-13.524,1.813c-1.047,0.231-2.131,0.506-2.967,1.235c-0.69,0.606-1.147,1.476-1.574,2.33
		c-1.863,3.768-3.415,7.725-4.62,11.804c-1.109,3.749,3.634,5.779,5.875,3.482C272.245,25.701,273.282,19.813,274.622,16.963"/>
	<path fill="#F8D8B6" d="M259.621,12.966c0.308-1.237,0.664-2.49,1.395-3.568c1.009-1.489,2.637-2.517,3.998-3.747
		c1-0.902,1.865-1.93,2.898-2.801s2.286-1.6,3.681-1.729c0.577,1.397-0.034,2.965-0.791,4.29c-1.17,2.054-2.7,3.935-4.514,5.547
		c-0.207,0.186-0.422,0.371-0.553,0.606c-0.117,0.213-0.159,0.453-0.199,0.688c-0.624,3.663-1.248,7.325-1.873,10.988
		c-0.021,0.128-0.045,0.261-0.125,0.366c-0.512,0.694-3.176,1.354-4.055,1.102c-1.065-0.309-1.551-0.474-1.599-1.374
		C257.724,20.28,258.887,15.929,259.621,12.966"/>
	<path fill="#F8D8B6" d="M255.85,8.633c0.057-0.088,0.117-0.179,0.205-0.241c0.317-0.228,0.774,0.007,1.026,0.281
		c1.013,1.103,0.904,2.741,0.46,4.144c-0.443,1.401-1.173,2.764-1.248,4.21c-0.042,0.829,0.125,1.649,0.34,2.451
		c0.32,1.202,1.057,3.396,0.986,3.188c-0.42-1.255,0.949,1.719-0.395,2.549c-1.279,0.788-3.293,4.217-4.654,2.805
		c-1.133-1.175-0.739-5.934-0.657-7.396c0.112-1.987,0.478-3.971,1.081-5.896C253.662,12.595,254.637,10.567,255.85,8.633"/>
	<path fill="#F8D8B6" d="M269.236,28.104c0,0,6.313-8.139,10.75-9.014c2.311-0.454,9.396,3.54,10.803,4.947
		c1.406,1.404,3.115,4.354,3.553,5.854c0.438,1.5-3.188,0.438-6.285-2.286c-2.63-2.312-5.957-2.441-6.434-2.288
		c-3.891,1.274-5.541,6.51-5.688,7.351c-0.353,2.037,0.944,7.434,1.969,8.871c1.688,2.375,3.822,5.125,10.072,4.541
		c3.627-0.34,6.375,4.78,5.653,5.5c-1.7,1.701-3.389-1.407-10.237-0.25c-4.279,0.724-10.037-1.291-12.322-3.208
		c-2.288-1.919-6.343,2.127-6.343,2.127L269.236,28.104z"/>
	<path fill="#F1AC97" d="M287.764,51.163c0,0-0.186-1.49,0.482-1.701c0.666-0.212,3.441-0.057,4.148,0.769
		c0.705,0.824,0.401,1.833,0.401,1.833s-1.625-0.195-2.739-0.435C288.941,51.392,287.764,51.163,287.764,51.163"/>
	<path fill="#F1AC97" d="M292.322,25.972c-0.506-0.733-1.012,1.903-0.684,2.481c0.325,0.579,1.938,1.733,2.106,1.733
		s0.606-0.203,0.606-0.203S293.96,28.349,292.322,25.972"/>
	<path fill="#F1AC97" d="M284.26,7.356c0,0-0.031,0.985,0.852,1.375c0.884,0.39,4.015-1.01,4.015-1.01s-0.317-0.614-1.354-0.614
		C286.736,7.107,284.26,7.356,284.26,7.356"/>
	<path fill="#F1AC97" d="M266.88,3.805c0,0,0.731,0.44,1.879,0.295c1.146-0.146,2.834-2.979,2.834-2.979s-0.543-0.271-1.209,0
		C269.717,1.392,266.88,3.805,266.88,3.805"/>
	<path fill="#F1AC97" d="M254.324,11.383c0,0,0.643,0.321,1.346,0.071s1.105-3.023,1.105-3.023s-0.324-0.256-0.824-0.132
		S254.324,11.383,254.324,11.383"/>
	<path fill="#F8D8B6" d="M328.445,22.128c3.164,0.147,6.729-0.333,8.521,2.279c1.012,1.471,0.858,10.936-3.417,22.527
		c-0.946,2.574,0.636,5.349,0.005,5.609c-0.57,0.239-1.828,1.7-2.447,1.651c-4.797-0.359-8.137-0.945-12.937-1.308
		c-1.142-6.004-2.563-12.033-2.397-17.476C315.967,29.012,321.471,21.8,328.445,22.128"/>
	<path fill="#F8D8B6" d="M314.328,17.083c-0.396-0.848-0.809-1.711-1.448-2.354c-0.758-0.762-1.764-1.14-2.737-1.496
		c-3.527-1.295-7.061-2.59-10.591-3.886c-0.336-0.591,0.021-1.416,0.573-1.757c0.555-0.339,1.225-0.323,1.857-0.294
		c4.541,0.225,9.064,0.831,13.521,1.813c1.047,0.23,2.132,0.504,2.971,1.235c0.689,0.606,1.146,1.475,1.57,2.329
		c1.866,3.769,3.416,7.726,4.623,11.805c1.107,3.75-3.634,5.778-5.875,3.482C316.705,25.821,315.668,19.933,314.328,17.083"/>
	<path fill="#F8D8B6" d="M329.329,13.086c-0.308-1.237-0.664-2.489-1.394-3.567c-1.013-1.491-2.641-2.518-4-3.748
		c-1-0.902-1.865-1.931-2.897-2.801c-1.033-0.871-2.286-1.6-3.681-1.729c-0.578,1.397,0.035,2.965,0.791,4.288
		c1.17,2.056,2.701,3.937,4.513,5.55c0.207,0.185,0.423,0.37,0.554,0.605c0.117,0.213,0.159,0.453,0.199,0.688
		c0.624,3.663,1.249,7.326,1.873,10.986c0.021,0.128,0.045,0.263,0.124,0.368c0.512,0.693,3.177,1.354,4.055,1.102
		c1.065-0.309,1.554-0.474,1.601-1.373C331.227,20.401,330.063,16.049,329.329,13.086"/>
	<path fill="#F8D8B6" d="M333.102,8.753c-0.058-0.088-0.117-0.179-0.205-0.241c-0.314-0.228-0.771,0.007-1.024,0.28
		c-1.015,1.104-0.904,2.742-0.46,4.145c0.441,1.4,1.173,2.764,1.247,4.21c0.043,0.828-0.125,1.649-0.341,2.45
		c-0.318,1.202-1.057,3.397-0.984,3.188c0.42-1.258-0.949,1.719,0.396,2.548c1.276,0.789,3.291,4.217,4.651,2.806
		c1.134-1.175,0.739-5.934,0.658-7.396c-0.112-1.988-0.479-3.971-1.082-5.896C335.288,12.716,334.313,10.688,333.102,8.753"/>
	<path fill="#F8D8B6" d="M319.714,28.225c0,0-6.313-8.139-10.751-9.014c-2.311-0.455-9.396,3.54-10.802,4.946
		c-1.406,1.405-3.115,4.354-3.554,5.854c-0.439,1.5,3.188,0.438,6.285-2.285c2.631-2.313,5.959-2.441,6.435-2.288
		c3.89,1.274,5.542,6.507,5.687,7.35c0.354,2.038-0.945,7.434-1.968,8.871c-1.688,2.375-3.821,5.125-10.071,4.542
		c-3.629-0.341-6.375,4.779-5.656,5.5c1.703,1.701,3.391-1.407,10.238-0.25c4.279,0.723,10.037-1.292,12.323-3.208
		c2.288-1.921,6.345,2.127,6.345,2.127L319.714,28.225z"/>
	<path fill="#F8D8B6" d="M318.303,53.27l32.75,62.424c0.331,0.597,0.356,1.313,0.067,1.931l-23.562,54.81
		c-0.318,0.675-0.258,1.467,0.16,2.085l11.405,16.831c0.922,1.359,2.976,1.194,3.667-0.293l29.009-68.012
		c1.938-4.164,1.472-9.052-1.229-12.771l-37.041-59.331c-0.678-0.937-1.983-1.15-2.93-0.483l-11.313,1.313
		C318.406,52.393,318.107,52.256,318.303,53.27"/>
	<path fill="#F8D8B6" d="M269.188,55.059l-32.75,62.424c-0.331,0.597-0.356,1.313-0.067,1.93l23.562,54.81
		c0.316,0.676,0.254,1.468-0.164,2.085l-11.405,16.831c-0.922,1.359-2.974,1.194-3.667-0.295l-29.009-68.01
		c-1.939-4.164-1.47-9.054,1.228-12.771l37.862-59.96c0.679-0.938,1.164-0.521,2.11,0.146l11.313,1.313
		C269.082,54.182,269.382,54.045,269.188,55.059"/>
	<path fill="#F1AC97" d="M301.188,51.283c0,0,0.187-1.489-0.48-1.701c-0.666-0.212-3.439-0.057-4.146,0.769
		c-0.705,0.823-0.404,1.833-0.404,1.833s1.625-0.197,2.742-0.435C300.008,51.513,301.188,51.283,301.188,51.283"/>
	<path fill="#F1AC97" d="M296.628,26.092c0.505-0.732,1.013,1.904,0.685,2.482c-0.33,0.576-1.938,1.732-2.107,1.732
		c-0.172,0-0.609-0.203-0.609-0.203S294.99,28.469,296.628,26.092"/>
	<path fill="#F1AC97" d="M304.689,7.476c0,0,0.033,0.986-0.853,1.375c-0.882,0.388-4.013-1.011-4.013-1.011s0.316-0.613,1.354-0.613
		S304.689,7.476,304.689,7.476"/>
	<path fill="#F1AC97" d="M322.07,3.925c0,0-0.732,0.441-1.879,0.296c-1.147-0.145-2.834-2.979-2.834-2.979s0.543-0.271,1.209,0
		C319.232,1.513,322.07,3.925,322.07,3.925"/>
	<path fill="#F1AC97" d="M334.627,11.504c0,0-0.645,0.32-1.347,0.07c-0.703-0.25-1.104-3.023-1.104-3.023s0.323-0.255,0.823-0.131
		C333.499,8.543,334.627,11.504,334.627,11.504"/>
	<path fill="#D39A67" d="M30.589,106.58c-0.192-0.088-0.352-0.229-0.458-0.411c-2.344-4.041-4.166-9.556-6.76-13.902
		c-2.655-4.449-6.533-4.784-6.008-6.863c0.525-2.076,7.282-0.37,9.618,1.324c1.581,1.146,4.09,3.136,5.548,4.302
		c0.553,0.442,1.372,0.192,1.582-0.482c1.267-4.069,5.073-15.509,7.639-14.86c3.119,0.788,2.324,3.936,3.71,4.283
		c1.386,0.351,3.944-0.293,5.157,0.014c1.213,0.309,1.425,2.389,2.291,2.605c0.866,0.22,5.199,0.576,5.847,1.661
		c0.477,0.8,0.665,2.548,0.73,3.411c0.024,0.315,0.196,0.598,0.465,0.767c0.722,0.454,2.132,1.399,2.559,2.115
		c0.583,0.978-3.172,9.642-8.457,14.512c-4.286,3.949-8.11,6.601-9.402,7.462c-0.29,0.192-0.655,0.218-0.971,0.072L30.589,106.58z"
		/>
	<path fill="#E18B62" d="M349.636,119.77c2.32-6.331,23.284-8.332,25.084-1.833c3.03,10.943-34.989,100.017-34.989,105.382
		c0,5.368,14.789,54.229,14.789,60.55c0,6.318-99.801,18.485-109.972,0c-7.024-12.767,30.505-41.015,17.354-60.55
		c-16.908-25.115-53.15-104.118-53.15-104.118s25.633-3.719,30.031,2.925c6.918,10.444,16.874,62.695,39.23,69.022
		c22.355,6.328,53.654-22.474,56.704-36.794C334.968,153.187,347.582,125.373,349.636,119.77"/>
	<polygon fill="#EBBD8C" points="400.561,332.437 416.064,224.672 428.138,224.86 409.332,355.74 	"/>
	<g opacity="0.13">
		<g>
			<g>
				<g>
					<g>
						<defs>
							<rect id="SVGID_17_" x="85.13" y="97.27" width="14.237" height="13.06"/>
						</defs>
						<clipPath id="SVGID_18_">
							<use xlink:href="#SVGID_17_"  overflow="visible"/>
						</clipPath>
						<path clip-path="url(#SVGID_18_)" fill="#8E1757" d="M92.082,97.27c-4.201,0.639-6.029,3.465-6.687,5.94
							c-0.658,2.474-0.301,5.536,3.517,6.724c2.726,0.85,6.372,0.259,8.37-1.104c1.998-1.365,2.48-3.323,1.787-5.063
							c-0.692-1.741-2.433-3.288-4.462-4.639c-0.981-0.651-2.077-1.284-3.462-1.612c-1.384-0.329-3.122-0.292-4.223,0.294"/>
					</g>
				</g>
			</g>
		</g>
	</g>
	<path fill="#618D81" d="M218.282,110.197c0.001-1.53-5.498-2.2-5.498-2.2c-0.321-0.129-0.665-0.189-1.011-0.182l-18.546,0.535
		l-0.945,3.097C192.282,111.447,218.259,129.692,218.282,110.197"/>
	<path fill="#CF8E77" d="M212.71,189.655L191.918,99.78c0.037,0.048-2.922-7.526-6.595-11.459
		c-2.451-2.624-15.25-8.672-15.25-11.688c0-1.438,5.301-1.147,8.438-0.021c2.667,0.958,5.687,2.771,5.687,2.771
		s1.829-5.126-0.23-10.729c-3.122-8.493-7.05-19.692-7.05-22.27c0-4.273,2.814-4.162,4-2.979c1.185,1.188,8.843,23.037,8.843,23.037
		s0.917,0.771,1.823,0.417c0.621-0.24-5.282-26.479-5.042-27.729c0.223-1.16,2.573-2.396,4.031-0.938
		c1.361,1.361,6.694,22.671,7.404,25.528c0.057,0.229,0.148,0.438,0.279,0.633c0.35,0.52,1.086,1.473,1.662,1.256
		c0.468-0.174-0.032-24.667,1.166-26.667c0.545-0.907,3.667-1.821,3.667,2.096s1.128,22.026,1.079,22.438
		c-0.132,1.094,1.556,2.019,1.556,2.019s0.625-15.675,1.5-16.55s2.415-0.297,2.609,2.333c0.175,2.369,1.442,11.744,0.923,20.084
		c-1.949,31.25,14.25,122,14.25,122L212.71,189.655z"/>
	<path fill="#7BB2A3" d="M218.282,110.197c0,0-13.684,8.708-26,1.25c0,0,9.822,50.16,10.497,66.689
		c0.57,13.979-4.409,54.537-4.409,54.537l28.47,2.846c0,0,3.301-51.958,2.713-65.434
		C228.753,151.791,218.282,110.197,218.282,110.197"/>
	<path fill="#E2AF89" d="M180.699,43.479c0,0-1.016-0.625-1.937-0.267c-0.922,0.358-1.266,1.47-1.266,1.47l1.734,3.203
		c0,0,0.903,0.313,1.438,0.21c0.593-0.116,0.877-0.858,0.877-0.858L180.699,43.479z"/>
	<path fill="#E2AF89" d="M204.359,39.51c0,0-0.701-0.966-1.69-0.984c-0.989-0.02-1.471,0.876-1.471,0.876l0.124,3.459
		c0,0,0.714,0.374,1.249,0.481c0.593,0.119,1.177-0.426,1.177-0.426L204.359,39.51z"/>
	<path fill="#E2AF89" d="M210.936,49.526c0,0-0.484-0.667-1.168-0.68c-0.684-0.014-1.016,0.604-1.016,0.604l0.085,2.39
		c0,0,0.494,0.26,0.863,0.333c0.41,0.082,0.814-0.294,0.814-0.294L210.936,49.526z"/>
	<path fill="#E2AF89" d="M186.855,39.072c0,0,0.64-1.028,1.478-1.262c0.838-0.23,2.241,0.579,2.241,0.579l0.374,4.03
		c0,0-0.646,0.544-1.222,0.544c-0.576,0-1.059-0.139-1.059-0.139L186.855,39.072z"/>
	<path fill="#E2AF89" d="M174.012,80.798c0,0,2.167-0.77,2.167-1.311c0-0.542-2.917-3.5-3.334-3.5c-0.416,0-2.233,0.041-2.375,0.75
		C170.328,77.448,170.554,78.899,174.012,80.798"/>
	<path fill="#618D81" d="M94.436,115.561c-0.343-1.493,4.868-3.373,4.868-3.373c0.285-0.195,0.607-0.334,0.946-0.399l18.199-3.614
		l1.612,2.809C120.061,110.981,98.805,134.56,94.436,115.561"/>
	<path fill="#CF8E77" d="M124.921,196.382l-7.107-96.854c-0.027,0.056,1.17-7.988,3.873-12.64
		c1.805-3.104,12.933-11.854,12.26-14.794c-0.32-1.401-5.423,0.063-8.23,1.86c-2.385,1.527-4.926,3.969-4.926,3.969
		s-2.925-4.589-2.167-10.509c1.15-8.978,2.482-20.771,1.908-23.281c-0.953-4.164-3.672-3.43-4.563-2.01
		c-0.892,1.42-3.485,24.43-3.485,24.43s-0.722,0.954-1.684,0.813c-0.66-0.1-0.755-26.991-1.268-28.156
		c-0.476-1.082-3.042-1.761-4.139-0.017c-1.022,1.632-1.47,23.595-1.525,26.536c-0.005,0.234-0.047,0.46-0.132,0.681
		c-0.224,0.583-0.73,1.676-1.338,1.596c-0.496-0.065-5.47-24.054-7.083-25.735c-0.735-0.766-3.981-0.96-3.108,2.857
		c0.873,3.816,3.811,21.726,3.95,22.113c0.372,1.035-1.067,2.313-1.067,2.313s-4.103-15.14-5.151-15.798
		c-1.048-0.656-2.421,0.249-2.024,2.855c0.358,2.349,1.213,11.77,3.579,19.784c8.866,30.028,13.31,122.105,13.31,122.105
		L124.921,196.382z"/>
	<g opacity="0.08">
		<g>
			<g>
				<g>
					<g>
						<defs>
							<rect id="SVGID_19_" x="266.885" y="77.03" width="16.344" height="15.518"/>
						</defs>
						<clipPath id="SVGID_20_">
							<use xlink:href="#SVGID_19_"  overflow="visible"/>
						</clipPath>
						<path clip-path="url(#SVGID_20_)" fill="#8E1757" d="M282.564,87.565c-0.779,1.62-2.277,2.754-3.724,3.826
							c-6.271,4.653-15.532-5.86-10.53-11.924C273.376,73.324,286.289,79.822,282.564,87.565"/>
					</g>
				</g>
			</g>
		</g>
	</g>
	<g opacity="0.1">
		<g>
			<g>
				<g>
					<g>
						<defs>
							<rect id="SVGID_21_" x="412.834" y="92.408" width="16.345" height="15.516"/>
						</defs>
						<clipPath id="SVGID_22_">
							<use xlink:href="#SVGID_21_"  overflow="visible"/>
						</clipPath>
						<path clip-path="url(#SVGID_22_)" fill="#8E1757" d="M428.514,102.943c-0.776,1.62-2.274,2.754-3.721,3.826
							c-6.273,4.653-15.532-5.858-10.532-11.923C419.325,88.703,432.239,95.201,428.514,102.943"/>
					</g>
				</g>
			</g>
		</g>
	</g>
	<g opacity="0.1">
		<g>
			<g>
				<g>
					<g>
						<defs>
							<rect id="SVGID_23_" x="477.717" y="106.245" width="15.771" height="16.072"/>
						</defs>
						<clipPath id="SVGID_24_">
							<use xlink:href="#SVGID_23_"  overflow="visible"/>
						</clipPath>
						<path clip-path="url(#SVGID_24_)" fill="#8E1757" d="M481.496,121.107c-1.464-1.042-2.328-2.711-3.139-4.313
							c-3.523-6.975,8.405-14.313,13.533-8.358C497.089,114.468,488.495,126.092,481.496,121.107"/>
					</g>
				</g>
			</g>
		</g>
	</g>
	<path fill="#D39A67" d="M228.302,312.027c9.239,1.171,18.911,2.295,27.63-0.979c-1.818-7.188-4.036-14.273-6.641-21.216
		c-7.343-2.193-9.196-5.015-13.08,2.016C235.174,293.726,229.313,312.155,228.302,312.027"/>
	<path fill="#7BB2A3" d="M94.436,115.561c0,0,18.459,1.898,25.625-4.579c0,0,2.721,63.63,8.568,84.705
		c5.098,18.378,13.09,32.333,13.09,32.333l-38.938,1.174c0,0-7.298-37.563-8.345-50.257
		C93.134,163.146,94.436,115.561,94.436,115.561"/>
	<path fill="#E2AF89" d="M116.198,42.141c0,0,0.851-0.836,1.83-0.689c0.978,0.146,1.561,1.147,1.561,1.147l-0.977,3.51
		c0,0-0.809,0.51-1.354,0.524c-0.605,0.02-1.047-0.641-1.047-0.641L116.198,42.141z"/>
	<path fill="#E2AF89" d="M92.248,43.548c0,0,0.468-1.097,1.428-1.336c0.96-0.238,1.629,0.523,1.629,0.523l0.651,3.4
		c0,0-0.613,0.523-1.11,0.748c-0.552,0.247-1.243-0.152-1.243-0.152L92.248,43.548z"/>
	<path fill="#E2AF89" d="M88.07,54.778c0,0,0.323-0.758,0.987-0.923c0.663-0.165,1.125,0.362,1.125,0.362l0.45,2.35
		c0,0-0.423,0.362-0.767,0.519c-0.381,0.172-0.858-0.104-0.858-0.104L88.07,54.778z"/>
	<path fill="#E2AF89" d="M109.214,39.218c0,0-0.854-0.86-1.722-0.899c-0.868-0.039-2.055,1.063-2.055,1.063l0.534,4.014
		c0,0,0.75,0.385,1.312,0.257c0.561-0.129,1.002-0.369,1.002-0.369L109.214,39.218z"/>
	<path fill="#E2AF89" d="M131.037,77.03c0,0-2.283-0.265-2.403-0.793c-0.121-0.526,2.062-4.063,2.468-4.153
		c0.407-0.095,2.186-0.458,2.483,0.202C133.881,72.943,133.984,74.408,131.037,77.03"/>
	<path fill="#CF8E77" d="M159.657,185.608c-3.652,11.363-12.175,45.051-12.175,45.051s13.238,6.896,22.65,6.896
		c9.412,0,17.528-4.869,17.528-4.869l-13.798-47.078H159.657L159.657,185.608z"/>
	<path fill="#8B6671" d="M138.564,182.687c4.893,6.921,10.897,13.819,19.641,17c2.738,0.995,2.567,4.188,8.705,4.188
		c6.647,0,6.325-4.155,8.169-5.003c6.499-2.992,10.407-6.748,14.39-12.034c2.848-3.779,4.387-8.146,5.891-12.445
		c3.047-8.711,6.114-17.516,6.74-26.586c0.254-3.686,0.086-7.46-1.371-10.938c-2.821-6.732-9.061-22.66-25.448-22.687
		c-10.354-0.016-11.653,8.27-24.234,6.99c-5.181-0.523-15.861-1.339-20.937-0.351c-17.725,3.456-5.192,20.291-4.069,29.318
		C127.541,162.189,131.124,172.161,138.564,182.687"/>
	<path fill="#894C3B" d="M285.156,81.298c5.895,0,11.658-1.985,17.553-2.008c5.895-0.021,12.051,1.344,16.49,5.224
		c4.498,3.93,6.714,10.306,5.624,16.179c-0.396,2.127-1.19,4.201-1.196,6.364c-0.005,2.202,0.813,4.321,1.729,6.324
		c1.869,4.075,4.25,8.057,4.75,12.513c0.492,4.393-0.903,8.801-0.674,13.213c0.594,11.304,11.195,19.231,15.938,29.511
		c6.121,13.265,1.444,29.816-8.765,40.266c-3.522,3.604-7.89,6.729-12.894,7.328c-3.899,0.471-7.839-0.632-11.762-0.403
		c-3.979,0.229-7.736,1.806-11.494,3.135c-9.412,3.329-19.501,5.221-29.411,4.015c-4.127-0.502-8.387-1.645-11.39-4.52
		c-2.757-2.641-4.109-6.396-6.316-9.511c-2.045-2.888-4.854-5.265-6.338-8.476c-2.441-5.284-0.723-11.588,2.064-16.693
		c2.621-4.805,6.279-10.188,4.189-15.241c-0.836-2.021-2.502-3.601-3.392-5.595c-1.711-3.845-0.216-8.337,1.745-12.061
		c4.52-8.579,11.604-16.15,13.191-25.718c0.568-3.421,0.389-6.937,0.979-10.354c0.857-4.969,3.323-9.622,3.584-14.657
		C269.618,95.37,272.741,81.298,285.156,81.298"/>
	<path fill="#71605F" d="M214.299,251.111c-1.902-11.065,3.689-23.038,13.398-28.683c9.709-5.644,19.767-4.947,28.442,2.183
		c0.861,0.707,4.799,3.633,5.875,3.916c1.176,0.313,4.503-1.895,5.708-2.061c6-0.829,10.26,3.145,12.242,8.866
		c1.383,3.976,0.792,8.347-0.054,12.468c-3.517,17.129-11.3,33.364-22.45,46.83c-0.801,0.966-1.653,1.945-2.789,2.479
		c-1.416,0.661-3.061,0.533-4.615,0.363c-5.268-0.574-10.634-1.521-15.212-4.188c-6.639-3.868-8.385-10.573-10.739-17.321
		C221.188,267.595,215.816,259.935,214.299,251.111"/>
	<path fill="#706F6F" d="M407.26,167.963c0.028-1.838,3.939-2.51,11.74-2.389c7.801,0.119,14.225-0.879,16.297,0.253
		c2.073,1.131,0.274,45.192-0.771,49.751c-1.05,4.56-25.63,2.339-26.9,0.611C406.354,214.468,407.26,167.963,407.26,167.963"/>
	<path fill="#F6F6F6" d="M407.157,174.568c0.021-1.396,3.93-1.889,11.729-1.769c7.802,0.121,14.222-0.609,16.296,0.254
		c2.075,0.864,0.443,34.27-0.586,37.722c-1.026,3.451-25.616,1.678-26.896,0.363C406.426,209.827,407.157,174.568,407.157,174.568"
		/>
	<g opacity="0.08">
		<g>
			<g>
				<g>
					<g>
						<defs>
							<rect id="SVGID_25_" x="469.03" y="173.752" width="44.479" height="157.386"/>
						</defs>
						<clipPath id="SVGID_26_">
							<use xlink:href="#SVGID_25_"  overflow="visible"/>
						</clipPath>
						<path clip-path="url(#SVGID_26_)" fill="#8E1757" d="M473.338,331.138c-14.535-20.201,12.381-99.742,12.381-99.742
							s-4.101-26.772-3.037-29.403c1.064-2.633,2.053-5.958,5.163-3.562c0.856,0.659,2.987-1.779,4.379-1.779
							c1.396,0,4.141,1.832,4.141,1.832l0.819-0.014c0,0-0.151-22.943,0.761-23.872c0.907-0.931,3.538-1.146,3.896-0.384
							c1.279,2.721,0.959,21.847,1.344,23.325c0.346,1.314,1.521,1.817,1.521,1.817s4.008-21.945,5.121-23.081
							c1.111-1.135,3.305,0.521,3.479,1.414c0.887,4.45-5.279,26.532-3.741,28.245c1.226,1.365,4.635,8.575,3.822,10.521
							c-2.37,5.698-11.932,17.479-11.932,17.479s-16.901,48.08-1.078,69.757c0.593,0.813-0.12,0.727-0.31,1.209
							c0,0-20.767,23.156-24.589,24.571C475.082,329.62,473.338,331.138,473.338,331.138"/>
					</g>
				</g>
			</g>
		</g>
	</g>
	<path fill="#EBBD8C" d="M345.616,307.312c0,0-0.063,16.375-4.563,20.875s-27.25,8.75-36.5,18s-9,12.84-9,12.84
		s65.678,11.228,83.5,6.506c17.823-4.721,16.75-6.346,16.75-6.346s-5.25-25-17.75-30.5s-14-19.324-14-19.324
		S354.811,298.115,345.616,307.312"/>
	<path fill="#DEB284" d="M323.488,301.813c0,0,0.929,5.747,7.896,8.04c7.75,2.549,10.734,0.465,13.75-0.584
		c6.406-2.229,7.667,2.25,12,4.084c4.334,1.833,8.245,1.222,8.245,1.222l-0.695-2.189
		C364.684,312.384,351.342,297.94,323.488,301.813"/>
	<path fill="#F9CD84" d="M392.943,247.054c1.535,3.009,2.771,7.027,1.277,10.068c3.516,8.56,6.688,17.845,6.309,27.521
		c-0.381,9.679-5.381,19.681-12.785,21.138c-1.754,0.348-3.555,0.209-5.295,0.646c-1.764,0.438-3.403,1.442-5.061,2.336
		c-7.574,4.063-16.736,5.606-23.652-0.095c-1.012-0.835-2.03-1.849-3.23-1.932c-0.727-0.05-1.438,0.253-2.13,0.545
		c-5.164,2.184-10.673,3.992-15.981,2.514c-5.31-1.481-10.274-7.214-10.295-14.239c-1.632,1.717-4.273,0.501-5.408-1.79
		s-1.145-5.198-0.986-7.91c0.857-14.996,5.799-29.549,13.749-40.521c2.832-3.905,6.032-7.381,8.582-11.604
		c1.313-2.184,2.487-4.606,4.271-6.142c1.838-1.583,4.104-2.027,6.291-2.438c7.199-1.337,17.232,1.141,24.309,3.571
		C380.973,231.503,388.329,238,392.943,247.054"/>
	<path fill="#EBBD8C" d="M412.445,229.695c0,0-6.61-7.435-10.176-12.522c-0.992-1.415-0.205-10.74-0.174-12.739
		c0.029-1.999-2.115-6.993-0.854-6.974c1.261,0.019,6.409,4.086,6.343,8.423c-0.066,4.336,0.698,9.828,0.698,9.828
		s9.81,3.448,14.247,3.257c8.337-0.357,12.166-10.93,12.182-11.924c0.016-0.993-1.148-4.565-1.148-4.565l0.062-3.852
		c0,0,7.566,6.189,7.546,7.521c-0.021,1.333-3.041,9.86-3.062,11.208c-0.021,1.349,1.107,4.844,1.083,6.532
		c-0.026,1.692-14.009,10.225-14.009,10.225L412.445,229.695z"/>
	<path fill="#BE94A1" d="M418.466,235.985l4.651,0.758c2.854,0.464,8.145,3.891,7.979,6.775c0,0-1.413,63.798-5.297,81
		c-2.558,11.326-16.75,32.667-16.75,32.667c-0.112,2.047-1.321,3.864-3.165,4.764c-8.137,3.977-48.979,22.337-110.271,1.05
		c-3.746-1.301-0.063-24.313,16.514-29.479c9.673-3.014,22.503-10.921,28.173-13.886c1.686-0.88,3.686-0.854,5.348,0.063
		c3.353,1.852,9.229,4.736,13.278,4.736c3.31,0,6.185-1.697,8.084-3.207c1.546-1.227,3.597-1.613,5.451-0.944
		c4.544,1.64,14.114,3.854,19.34-4.887c12.386-20.712,19.117-58.533,19.423-73.256C411.296,238.702,415.068,235.433,418.466,235.985
		"/>
	<path fill="#AB8C59" d="M14.618,216.524c2.532,0.894,29.969-7.671,31.856-79.786c0.103-3.94-0.074-7.885-0.111-11.824
		c-0.022-2.297-0.284-5.024-2.287-6.148c-1.064-0.598-2.354-0.558-3.574-0.597c-3.929-0.129-7.821-1.279-11.189-3.31
		c-2.779-1.674-4.943-2.113-6.51,1.142c0,39.729-10.329,50.037-17.362,64.229c1.163,8.532,3.038,16.799,5.524,25.044
		C12.11,209.071,13.473,212.728,14.618,216.524"/>
	<path fill="#96C562" d="M254.928,303.703c3.055,5.958,8.2,8.666,12.876,13.458c1.465,1.501,2.701,3.21,3.813,4.986
		c3.534,5.657,7.763,30.451,8.308,37.1c0.045,0.521-2.854,8.704-3.104,8.246c-14.149-2.957-32.286,3.501-46.083-0.806
		c-14.948-4.664-36.06-11.613-49.193-14.504c2.767-1.229,13.76-29.21,26.258-36.043c5.375-2.938,15.75-1.332,22.957-11.838
		c3.379-1.604,6.787-2.778,10.489-3.305C244.951,300.475,253.222,300.378,254.928,303.703"/>
	<path fill="#DF9C5A" d="M53.275,199.831c11.752,11.752,21.611,3.976,25.277,3.976c3.667,0,0,98.76,0,98.76L44.587,276.35
		L53.275,199.831z"/>
	<g opacity="0.13">
		<g>
			<g>
				<g>
					<g>
						<defs>
							<rect id="SVGID_27_" x="473.865" y="129.211" width="34.607" height="36.857"/>
						</defs>
						<clipPath id="SVGID_28_">
							<use xlink:href="#SVGID_27_"  overflow="visible"/>
						</clipPath>
						<path clip-path="url(#SVGID_28_)" fill="#8E1757" d="M473.874,143.202c-0.134,4.01,1.348,7.929,3.416,11.363
							c1.037,1.728,2.229,3.362,3.626,4.813c3.839,3.979,9.235,6.421,14.761,6.672c1.926,0.088,3.896-0.089,5.684-0.82
							c4.362-1.79,6.848-6.667,7.094-11.379c0.245-4.711-1.345-9.312-3.093-13.69c-0.859-2.153-1.778-4.316-3.194-6.152
							C494.501,124.066,474.289,130.779,473.874,143.202"/>
					</g>
				</g>
			</g>
		</g>
	</g>
	<g opacity="0.13">
		<g>
			<g>
				<g>
					<g>
						<defs>
							<rect id="SVGID_29_" x="128.93" y="81.896" width="25.579" height="31.132"/>
						</defs>
						<clipPath id="SVGID_30_">
							<use xlink:href="#SVGID_29_"  overflow="visible"/>
						</clipPath>
						<path clip-path="url(#SVGID_30_)" fill="#8E1757" d="M130.594,87.359c-1.522,2.845-1.847,6.195-1.579,9.408
							c0.135,1.611,0.412,3.217,0.905,4.758c1.351,4.233,4.374,7.912,8.268,10.059c1.358,0.748,2.841,1.319,4.387,1.429
							c3.784,0.262,7.308-2.372,9.16-5.682c1.852-3.311,2.341-7.19,2.639-10.973c0.146-1.856,0.253-3.744-0.115-5.569
							C152.268,80.898,135.309,78.551,130.594,87.359"/>
					</g>
				</g>
			</g>
		</g>
	</g>
	<g opacity="0.08">
		<g>
			<g>
				<g>
					<g>
						<defs>
							<rect id="SVGID_31_" x="151.981" y="58.182" width="15.59" height="18.975"/>
						</defs>
						<clipPath id="SVGID_32_">
							<use xlink:href="#SVGID_31_"  overflow="visible"/>
						</clipPath>
						<path clip-path="url(#SVGID_32_)" fill="#8E1757" d="M152.995,61.512c-0.927,1.731-1.125,3.774-0.962,5.733
							c0.082,0.98,0.252,1.96,0.551,2.897c0.824,2.582,2.666,4.823,5.04,6.13c0.828,0.456,1.731,0.807,2.674,0.871
							c2.305,0.159,4.453-1.444,5.582-3.463c1.129-2.017,1.428-4.382,1.609-6.688c0.089-1.134,0.154-2.281-0.07-3.396
							C166.205,57.574,155.869,56.145,152.995,61.512"/>
					</g>
				</g>
			</g>
		</g>
	</g>
	<g opacity="0.05">
		<g>
			<g>
				<g>
					<g>
						<defs>
							<rect id="SVGID_33_" x="129.653" y="45.58" width="14.024" height="18.676"/>
						</defs>
						<clipPath id="SVGID_34_">
							<use xlink:href="#SVGID_33_"  overflow="visible"/>
						</clipPath>
						<path clip-path="url(#SVGID_34_)" fill="#8E1757" d="M133.929,45.83c-1.418,0.586-2.446,1.925-3.178,3.463
							c-0.366,0.771-0.669,1.604-0.86,2.501c-0.526,2.468-0.173,5.423,0.968,8.085c0.397,0.929,0.896,1.834,1.546,2.563
							c1.588,1.781,3.829,2.168,5.516,1.521c1.686-0.646,2.926-2.147,4.055-3.688c0.556-0.756,1.1-1.543,1.422-2.512
							C145.137,52.515,138.324,44.013,133.929,45.83"/>
					</g>
				</g>
			</g>
		</g>
	</g>
	<g opacity="0.05">
		<g>
			<g>
				<g>
					<g>
						<defs>
							<rect id="SVGID_35_" x="151.532" y="41.776" width="9.715" height="11.771"/>
						</defs>
						<clipPath id="SVGID_36_">
							<use xlink:href="#SVGID_35_"  overflow="visible"/>
						</clipPath>
						<path clip-path="url(#SVGID_36_)" fill="#8E1757" d="M154.843,41.989c-1.01,0.427-1.777,1.313-2.346,2.313
							c-0.284,0.503-0.527,1.039-0.695,1.613c-0.461,1.579-0.329,3.434,0.363,5.07c0.24,0.571,0.553,1.125,0.977,1.562
							c1.038,1.063,2.583,1.223,3.782,0.749c1.199-0.476,2.12-1.47,2.965-2.486c0.416-0.5,0.826-1.019,1.087-1.644
							C162.389,45.781,157.972,40.672,154.843,41.989"/>
					</g>
				</g>
			</g>
		</g>
	</g>
	<g opacity="0.05">
		<g>
			<g>
				<g>
					<g>
						<defs>
							<rect id="SVGID_37_" x="353.232" y="58.182" width="15.592" height="18.975"/>
						</defs>
						<clipPath id="SVGID_38_">
							<use xlink:href="#SVGID_37_"  overflow="visible"/>
						</clipPath>
						<path clip-path="url(#SVGID_38_)" fill="#8E1757" d="M354.247,61.512c-0.929,1.731-1.126,3.774-0.962,5.733
							c0.082,0.98,0.251,1.96,0.551,2.897c0.824,2.582,2.667,4.823,5.04,6.13c0.827,0.456,1.731,0.807,2.674,0.871
							c2.306,0.159,4.454-1.444,5.583-3.463c1.129-2.017,1.428-4.382,1.608-6.688c0.089-1.134,0.153-2.281-0.07-3.396
							C367.457,57.574,357.121,56.145,354.247,61.512"/>
					</g>
				</g>
			</g>
		</g>
	</g>
	<g opacity="0.13">
		<g>
			<g>
				<g>
					<g>
						<defs>
							<rect id="SVGID_39_" x="165.011" y="88.848" width="16.325" height="16.783"/>
						</defs>
						<clipPath id="SVGID_40_">
							<use xlink:href="#SVGID_39_"  overflow="visible"/>
						</clipPath>
						<path clip-path="url(#SVGID_40_)" fill="#8E1757" d="M165.414,96.567c-0.805,2.92-0.541,6.627,2.045,8.205
							c1.373,0.837,3.074,0.86,4.682,0.859c2.022-0.001,4.15-0.029,5.898-1.045c1.812-1.052,2.94-3.069,3.219-5.146
							c0.279-2.076-0.215-4.197-1.069-6.109C176.44,84.942,167.314,89.667,165.414,96.567"/>
					</g>
				</g>
			</g>
		</g>
	</g>
	<g opacity="0.03">
		<g>
			<g>
				<g>
					<g>
						<defs>
							<rect id="SVGID_41_" x="181.744" y="179.299" width="16.325" height="16.784"/>
						</defs>
						<clipPath id="SVGID_42_">
							<use xlink:href="#SVGID_41_"  overflow="visible"/>
						</clipPath>
						<path clip-path="url(#SVGID_42_)" fill="#8E1757" d="M182.146,187.019c-0.805,2.921-0.541,6.627,2.045,8.205
							c1.373,0.837,3.074,0.859,4.682,0.858c2.022-0.001,4.15-0.029,5.898-1.045c1.812-1.054,2.94-3.07,3.219-5.146
							c0.279-2.076-0.215-4.198-1.069-6.111C193.173,175.393,184.047,180.118,182.146,187.019"/>
					</g>
				</g>
			</g>
		</g>
	</g>
	<g opacity="0.05">
		<g>
			<g>
				<g>
					<g>
						<defs>
							<rect id="SVGID_43_" x="34.833" y="48.768" width="16.345" height="15.517"/>
						</defs>
						<clipPath id="SVGID_44_">
							<use xlink:href="#SVGID_43_"  overflow="visible"/>
						</clipPath>
						<path clip-path="url(#SVGID_44_)" fill="#8E1757" d="M50.514,59.303c-0.78,1.618-2.277,2.754-3.72,3.824
							c-6.274,4.655-15.533-5.858-10.533-11.922C41.326,45.062,54.239,51.56,50.514,59.303"/>
					</g>
				</g>
			</g>
		</g>
	</g>
	<g opacity="0.13">
		<g>
			<g>
				<g>
					<g>
						<defs>
							<rect id="SVGID_45_" x="62.22" y="77.126" width="22.069" height="19.776"/>
						</defs>
						<clipPath id="SVGID_46_">
							<use xlink:href="#SVGID_45_"  overflow="visible"/>
						</clipPath>
						<path clip-path="url(#SVGID_46_)" fill="#8E1757" d="M71.823,96.762c5.223-0.759,13.122-5.516,12.423-11.748
							c-0.579-5.169-7.514-8.279-12.177-7.849C60.257,78.257,57.773,98.8,71.823,96.762"/>
					</g>
				</g>
			</g>
		</g>
	</g>
	<g opacity="0.03">
		<g>
			<g>
				<g>
					<g>
						<defs>
							<rect id="SVGID_47_" x="132.642" y="187.691" width="22.069" height="19.776"/>
						</defs>
						<clipPath id="SVGID_48_">
							<use xlink:href="#SVGID_47_"  overflow="visible"/>
						</clipPath>
						<path clip-path="url(#SVGID_48_)" fill="#8E1757" d="M142.244,207.327c5.223-0.761,13.122-5.518,12.423-11.747
							c-0.579-5.169-7.513-8.279-12.177-7.852C130.678,188.822,128.194,209.365,142.244,207.327"/>
					</g>
				</g>
			</g>
		</g>
	</g>
	<g opacity="0.1">
		<g>
			<g>
				<g>
					<g>
						<defs>
							<rect id="SVGID_49_" x="307.979" y="64.111" width="15.309" height="13.717"/>
						</defs>
						<clipPath id="SVGID_50_">
							<use xlink:href="#SVGID_49_"  overflow="visible"/>
						</clipPath>
						<path clip-path="url(#SVGID_50_)" fill="#8E1757" d="M314.639,77.728c3.623-0.523,9.102-3.824,8.615-8.146
							c-0.402-3.585-5.211-5.742-8.445-5.442C306.617,64.895,304.895,79.142,314.639,77.728"/>
					</g>
				</g>
			</g>
		</g>
	</g>
	<g opacity="0.05">
		<g>
			<g>
				<g>
					<g>
						<defs>
							<rect id="SVGID_51_" x="67.042" y="41.163" width="14.342" height="12.725"/>
						</defs>
						<clipPath id="SVGID_52_">
							<use xlink:href="#SVGID_51_"  overflow="visible"/>
						</clipPath>
						<path clip-path="url(#SVGID_52_)" fill="#8E1757" d="M70.508,41.923c-1.495,0.416-2.577,1.776-3.084,3.242
							c-0.692,2.002-0.446,4.333,0.753,6.079c1.2,1.744,3.355,2.822,5.463,2.615c1.72-0.167,3.262-1.112,4.639-2.154
							c1.593-1.203,3.186-2.848,3.102-4.842c-0.096-2.283-2.323-3.851-4.425-4.754c-1.599-0.688-3.377-1.219-5.067-0.798
							s-3.163,2.107-2.783,3.809"/>
					</g>
				</g>
			</g>
		</g>
	</g>
	<g opacity="0.03">
		<g>
			<g>
				<g>
					<g>
						<defs>
							<rect id="SVGID_53_" x="256.811" y="112.676" width="10.759" height="12.583"/>
						</defs>
						<clipPath id="SVGID_54_">
							<use xlink:href="#SVGID_53_"  overflow="visible"/>
						</clipPath>
						<path clip-path="url(#SVGID_54_)" fill="#8E1757" d="M260.232,112.724c-0.9-0.208-1.855,0.288-2.414,1.024
							c-0.557,0.736-0.783,1.671-0.904,2.588c-0.287,2.196-0.008,4.551,1.245,6.375c1.253,1.827,3.615,2.979,5.751,2.395
							c1.852-0.508,3.229-2.244,3.566-4.134c0.338-1.893-0.27-3.873-1.385-5.438c-0.935-1.312-2.289-2.396-3.875-2.666
							c-1.587-0.271-3.384,0.438-4.083,1.885"/>
					</g>
				</g>
			</g>
		</g>
	</g>
	<g opacity="0.08">
		<g>
			<g>
				<g>
					<g>
						<defs>
							<rect id="SVGID_55_" x="62.495" y="57.584" width="10.76" height="12.583"/>
						</defs>
						<clipPath id="SVGID_56_">
							<use xlink:href="#SVGID_55_"  overflow="visible"/>
						</clipPath>
						<path clip-path="url(#SVGID_56_)" fill="#8E1757" d="M65.917,57.632c-0.901-0.208-1.855,0.288-2.414,1.025
							c-0.557,0.736-0.783,1.672-0.904,2.589c-0.288,2.194-0.008,4.55,1.245,6.376c1.253,1.824,3.615,2.978,5.75,2.392
							c1.852-0.508,3.23-2.243,3.568-4.134c0.338-1.893-0.268-3.873-1.383-5.438c-0.934-1.311-2.289-2.396-3.875-2.666
							c-1.586-0.271-3.383,0.438-4.083,1.888"/>
					</g>
				</g>
			</g>
		</g>
	</g>
	<g opacity="0.03">
		<g>
			<g>
				<g>
					<g>
						<defs>
							<rect id="SVGID_57_" x="236.494" y="197.58" width="10.76" height="12.583"/>
						</defs>
						<clipPath id="SVGID_58_">
							<use xlink:href="#SVGID_57_"  overflow="visible"/>
						</clipPath>
						<path clip-path="url(#SVGID_58_)" fill="#8E1757" d="M239.916,197.628c-0.901-0.208-1.856,0.289-2.414,1.023
							c-0.557,0.738-0.784,1.674-0.904,2.59c-0.288,2.195-0.008,4.551,1.245,6.376c1.253,1.824,3.614,2.979,5.75,2.394
							c1.852-0.509,3.23-2.244,3.568-4.135c0.338-1.894-0.268-3.873-1.383-5.438c-0.934-1.312-2.289-2.396-3.875-2.667
							c-1.586-0.271-3.383,0.438-4.083,1.888"/>
					</g>
				</g>
			</g>
		</g>
	</g>
	<g opacity="0.08">
		<g>
			<g>
				<g>
					<g>
						<defs>
							<rect id="SVGID_59_" x="329.247" y="93.875" width="10.76" height="12.583"/>
						</defs>
						<clipPath id="SVGID_60_">
							<use xlink:href="#SVGID_59_"  overflow="visible"/>
						</clipPath>
						<path clip-path="url(#SVGID_60_)" fill="#8E1757" d="M332.668,93.923c-0.9-0.208-1.855,0.288-2.413,1.023
							c-0.558,0.738-0.784,1.674-0.903,2.591c-0.289,2.194-0.009,4.549,1.244,6.376c1.254,1.824,3.614,2.978,5.75,2.392
							c1.854-0.508,3.229-2.243,3.567-4.134c0.338-1.893-0.269-3.873-1.384-5.438c-0.936-1.311-2.288-2.396-3.875-2.666
							c-1.586-0.271-3.383,0.438-4.082,1.888"/>
					</g>
				</g>
			</g>
		</g>
	</g>
	<g opacity="0.05">
		<g>
			<g>
				<g>
					<g>
						<defs>
							<rect id="SVGID_61_" x="282.191" y="55.237" width="8.522" height="9.97"/>
						</defs>
						<clipPath id="SVGID_62_">
							<use xlink:href="#SVGID_61_"  overflow="visible"/>
						</clipPath>
						<path clip-path="url(#SVGID_62_)" fill="#8E1757" d="M284.902,55.275c-0.713-0.166-1.471,0.229-1.911,0.813
							c-0.442,0.584-0.621,1.325-0.718,2.052c-0.229,1.739-0.006,3.604,0.984,5.051c0.992,1.447,2.863,2.357,4.559,1.896
							c1.467-0.401,2.559-1.777,2.826-3.274c0.268-1.498-0.216-3.066-1.099-4.307c-0.737-1.039-1.813-1.898-3.067-2.112
							c-1.259-0.215-2.683,0.346-3.234,1.493"/>
					</g>
				</g>
			</g>
		</g>
	</g>
	<g opacity="0.1">
		<g>
			<g>
				<g>
					<g>
						<defs>
							<rect id="SVGID_63_" x="171.513" y="37.904" width="9.368" height="9.358"/>
						</defs>
						<clipPath id="SVGID_64_">
							<use xlink:href="#SVGID_63_"  overflow="visible"/>
						</clipPath>
						<path clip-path="url(#SVGID_64_)" fill="#3E5F81" d="M174.807,39.712c-0.969-0.335-2.075,0.241-2.631,1.103
							c-0.557,0.861-0.67,1.936-0.663,2.959c0.003,0.598,0.047,1.21,0.314,1.743c0.717,1.435,2.625,1.675,4.226,1.731
							c1.519,0.053,3.279,0.001,4.214-1.198c0.792-1.017,0.654-2.451,0.476-3.729c-0.089-0.639-0.188-1.305-0.557-1.835
							c-0.356-0.514-0.921-0.837-1.466-1.143c-1.002-0.563-2.026-1.132-3.153-1.354c-1.127-0.221-2.396-0.037-3.23,0.75"/>
					</g>
				</g>
			</g>
		</g>
	</g>
	<g opacity="0.05">
		<g>
			<g>
				<g>
					<g>
						<defs>
							<rect id="SVGID_65_" x="119.624" y="35.088" width="7.02" height="8.071"/>
						</defs>
						<clipPath id="SVGID_66_">
							<use xlink:href="#SVGID_65_"  overflow="visible"/>
						</clipPath>
						<path clip-path="url(#SVGID_66_)" fill="#3E5F81" d="M123.023,35.088c-2.717,0.751-4.237,4.282-2.915,6.771
							c0.327,0.615,0.855,1.193,1.545,1.286c0.455,0.062,0.907-0.099,1.338-0.253c0.855-0.31,1.727-0.626,2.442-1.188
							c0.715-0.563,1.258-1.421,1.208-2.329c-0.033-0.584-0.303-1.126-0.585-1.641c-0.736-1.337-1.979-2.776-3.473-2.471"/>
					</g>
				</g>
			</g>
		</g>
	</g>
	<g>
		<path fill="#82BA41" d="M418.318,202.272c-0.031-0.007-0.068-0.016-0.105-0.022c-4.939-1.253-4.566-7.859-4.197-10.181
			c0.973-6.121,4.183-12.249,7.474-12.067c0.38,0.021,0.713,0.114,1.013,0.272c-2.322,0.58-5.076,3.759-6.223,8.2
			c-1.342,5.171-1.971,11.369-0.172,12.12c-0.922-1.474-1.067-3.855-0.101-7.584c1.593-6.171,7.167-13.049,10.127-12.297
			c2.961,0.753,4.116,6.408,2.521,12.578c-1.592,6.166-6.879,9.883-9.846,9.132C418.643,202.38,418.48,202.326,418.318,202.272"/>
	</g>
</g>
</svg>
