<?xml version="1.0" encoding="utf-8"?>
<!-- Generator: Adobe Illustrator 16.0.3, SVG Export Plug-In . SVG Version: 6.00 Build 0)  -->
<!DOCTYPE svg PUBLIC "-//W3C//DTD SVG 1.1//EN" "http://www.w3.org/Graphics/SVG/1.1/DTD/svg11.dtd">
<svg version="1.1" id="Layer_1" xmlns="http://www.w3.org/2000/svg" xmlns:xlink="http://www.w3.org/1999/xlink" x="0px" y="0px"
	 width="265px" height="267px" viewBox="0 0 265 267" enable-background="new 0 0 265 267" xml:space="preserve">
<g>
	<path opacity="0.7" fill-rule="evenodd" clip-rule="evenodd" fill="#C97AF8" enable-background="new    " d="M0,118.658
		c0.736-28.339,9.247-55.321,22.993-80.784c3.085-5.718,6.859-11.061,9.906-16.794C39.47,8.718,50.48,3.438,63.46,1.17
		c22.064-3.854,42.281,2.2,61.426,12.43c19.676,10.512,36.536,24.609,51.923,40.934c12.773,13.551,27.449,25.274,40.953,38.157
		c15.622,14.901,29.803,31.08,39.444,50.67c8.566,17.406,11.313,35.233,1.851,53.328c-4.9,9.372-12.516,16.33-20.537,22.964
		c-12.326,10.189-24.212,20.928-36.741,30.851c-23.267,18.426-49.137,20.56-76.353,10.643
		c-36.151-13.174-68.685-32.27-94.573-61.318C9.787,176.192,0.1,149.952,0,118.658z"/>
</g>
</svg>
