<?xml version="1.0" encoding="utf-8"?>
<!-- Generator: Adobe Illustrator 16.0.3, SVG Export Plug-In . SVG Version: 6.00 Build 0)  -->
<!DOCTYPE svg PUBLIC "-//W3C//DTD SVG 1.1//EN" "http://www.w3.org/Graphics/SVG/1.1/DTD/svg11.dtd">
<svg version="1.1" id="Layer_1" xmlns="http://www.w3.org/2000/svg" xmlns:xlink="http://www.w3.org/1999/xlink" x="0px" y="0px"
	 width="270px" height="283px" viewBox="0 0 270 283" enable-background="new 0 0 270 283" xml:space="preserve">
<path opacity="0.7" fill-rule="evenodd" clip-rule="evenodd" fill="#E53225" enable-background="new    " d="M270,137.739
	c-0.656,27.207-12.263,49.713-27.955,70.552c-15.619,20.743-33.462,39.39-54.979,54.011c-29.068,19.75-60.135,27.54-94.242,13.7
	c-16.436-6.669-30.406-16.964-43.077-29.129c-17.411-16.715-31.15-36.221-43.371-56.997c-7.494-12.74-7.057-26.134-5.295-39.709
	c3.195-24.605,15.637-44.673,32.168-62.437c12.326-13.246,26.685-23.759,42.379-32.872c13.899-8.068,26.606-18.173,40.105-26.969
	c17.721-11.546,36.035-22.01,57.08-26.337c28.175-5.792,51.009,4.637,62.555,31.007c11.189,25.557,20.604,51.93,29.925,78.256
	C268.29,119.283,268.51,128.736,270,137.739z"/>
</svg>
