<?xml version="1.0" encoding="utf-8"?>
<!-- Generator: Adobe Illustrator 16.0.3, SVG Export Plug-In . SVG Version: 6.00 Build 0)  -->
<!DOCTYPE svg PUBLIC "-//W3C//DTD SVG 1.1//EN" "http://www.w3.org/Graphics/SVG/1.1/DTD/svg11.dtd">
<svg version="1.1" id="Layer_1" xmlns="http://www.w3.org/2000/svg" xmlns:xlink="http://www.w3.org/1999/xlink" x="0px" y="0px"
	 width="45px" height="45px" viewBox="0 0 45 45" enable-background="new 0 0 45 45" xml:space="preserve">
<path fill="#FFFFFF" d="M43.5,25.829c-4.627,4.783-9.266,9.559-13.902,14.325c-1.724,1.765-4.271,1.793-5.898,0.097
	c-1.609-1.688-1.55-4.314,0.152-6.077c2.125-2.2,4.26-4.39,6.387-6.59c0.195-0.204,0.375-0.425,0.717-0.806
	c-0.495,0-0.803,0-1.109,0c-8.436,0.006-16.854,0.006-25.284,0.024c-1.856,0.005-3.333-0.676-4.155-2.46
	c-1.272-2.734,0.583-5.813,3.563-5.997c0.328-0.021,0.639-0.007,0.965-0.007c8.258-0.006,16.501-0.01,24.753-0.014
	c0.326,0,0.637,0,1.192,0c-0.323-0.375-0.501-0.615-0.714-0.83c-2.188-2.27-4.382-4.524-6.563-6.801
	c-1.176-1.229-1.519-2.715-0.98-4.329c0.538-1.623,1.704-2.567,3.347-2.82c1.305-0.195,2.44,0.239,3.362,1.184
	c4.745,4.871,9.487,9.742,14.215,14.64C45.512,21.403,45.473,23.79,43.5,25.829z"/>
</svg>
