<?xml version="1.0" encoding="utf-8"?>
<!-- Generator: Adobe Illustrator 16.0.3, SVG Export Plug-In . SVG Version: 6.00 Build 0)  -->
<!DOCTYPE svg PUBLIC "-//W3C//DTD SVG 1.1//EN" "http://www.w3.org/Graphics/SVG/1.1/DTD/svg11.dtd">
<svg version="1.1" id="Layer_1" xmlns="http://www.w3.org/2000/svg" xmlns:xlink="http://www.w3.org/1999/xlink" x="0px" y="0px"
	 width="165px" height="48px" viewBox="0 0 165 48" enable-background="new 0 0 165 48" xml:space="preserve">
<g>
	<polygon fill="#82BA41" points="164.867,45.579 165.001,45.484 163.887,45.712 	"/>
	<path fill="#82BA41" d="M157.813,45.573c0.665,0.388,2.555-0.063,3.813,0.076l0.207,0.088l0.568-0.311
		C160.873,45.476,158.888,45.682,157.813,45.573z"/>
	<path fill="#82BA41" d="M154.771,44.744c-0.152-0.002-0.361-0.005-0.719-0.009c0.026,0.017,0.036,0.031,0.034,0.045
		c-0.407,0.009-0.779,0.006-1.074-0.024c0.64,0.373,2.458-0.061,3.667,0.073l0.2,0.085l0.547-0.3
		c-0.813,0.025-1.756,0.098-2.615,0.14C154.798,44.751,154.786,44.748,154.771,44.744z"/>
	<path fill="#82BA41" d="M154.771,44.744C155.514,44.732,154.285,44.616,154.771,44.744L154.771,44.744z"/>
	<path fill="#82BA41" d="M151.566,44.522c-1.002,0.073-0.797,0.162-0.226,0.309l0.979-0.134
		C152.115,44.608,151.244,44.588,151.566,44.522z"/>
	<path fill="#82BA41" d="M150.412,45.113l0.507-0.058C150.829,45.02,150.696,45.007,150.412,45.113z"/>
	<path fill="#82BA41" d="M151.412,45.012c-0.086,0.116,0.127,0.006,0.583-0.075l-1.076,0.119
		C151.06,45.119,151.074,45.245,151.412,45.012z"/>
	<path fill="#82BA41" d="M152.602,44.996c0.295,0.046,0.627,0.082,0.729,0.127c-0.35-0.022-0.689-0.048-0.665,0.019l0.506,0.079
		c-0.072,0.015-0.169,0.03-0.293,0.047c0.177-0.005,0.313-0.014,0.453-0.022l0.04,0.007l0.052-0.011
		C154.661,45.154,154.264,44.947,152.602,44.996z"/>
	<path fill="#82BA41" d="M157.452,45.974l0.733,0.114l0.636-0.13C158.504,46.023,157.407,45.854,157.452,45.974z"/>
	<path fill="#82BA41" d="M145.244,44.631c-0.062,0.082,0.329,0.218,0.402,0.324l0.722-0.095c-0.247-0.037-0.641-0.073-0.892-0.13
		l0.246-0.002l1.71-0.286l-1.985,0.282C145.339,44.697,145.26,44.668,145.244,44.631z"/>
	<path fill="#82BA41" d="M145.646,44.955l-1.082,0.142C145.53,45.113,145.708,45.046,145.646,44.955z"/>
	<polygon fill="#82BA41" points="150.235,45.545 152.013,45.247 149.895,45.548 	"/>
	<polygon fill="#82BA41" points="141.115,44.619 141.729,44.429 140.636,44.718 	"/>
	<path fill="#82BA41" d="M138.376,44.653c0.455-0.158-0.621-0.269-0.142-0.365c-0.744,0.029-1.38,0.164-1.952,0.286
		C136.89,44.506,137.54,44.522,138.376,44.653z"/>
	<path fill="#82BA41" d="M141.378,45.04c0.118,0.003,0.399,0.008,0.934,0.02l-0.015-0.007
		C141.836,45.046,141.516,45.042,141.378,45.04z"/>
	<path fill="#82BA41" d="M147.401,45.335c-0.635,0.129-1.96,0.268-0.678,0.467C147.181,45.642,146.446,45.528,147.401,45.335z"/>
	<path fill="#82BA41" d="M144.592,45.185l-1.233,0.163l1.147,0.052C144.484,45.339,144.277,45.25,144.592,45.185z"/>
	<polygon fill="#82BA41" points="142.796,45.421 143.358,45.348 142.932,45.327 	"/>
	<path fill="#82BA41" d="M137.289,44.971c-0.498,0.1-1.041,0.108-1.653,0.124c0.657,0.046,1.338,0.069,1.981,0.069
		C137.71,45.092,137.993,44.961,137.289,44.971z"/>
	<polygon fill="#82BA41" points="129.601,45.094 129.696,45.137 129.719,45.096 	"/>
	<path fill="#82BA41" d="M137.728,45.209c0.493,0.045,0.789-0.013,1.07-0.084c-0.369,0.022-0.761,0.037-1.181,0.039
		C137.576,45.198,137.568,45.22,137.728,45.209z"/>
	<path fill="#82BA41" d="M139.454,44.983l0.074-0.011C139.366,44.924,139.386,44.948,139.454,44.983z"/>
	<path fill="#82BA41" d="M138.8,45.125c0.299-0.019,0.579-0.044,0.82-0.078c-0.062-0.017-0.123-0.041-0.166-0.063
		C139.198,45.018,138.999,45.072,138.8,45.125z"/>
	<path fill="#82BA41" d="M129.696,45.137c-0.03,0.085-0.044,0.166-0.914,0.277l-0.002-0.008c-0.66,0.008-1.121,0.103-0.439,0.151
		c0.156-0.031,0.33-0.003,0.481-0.035l-0.008-0.021c0.687,0.108,2.084,0.247,1.271,0.412c-1.503,0.112-1.231-0.075-1.962-0.189
		c0.62,0.269-1.914,0.391-1.587,0.783l1.316-0.138c0.025,0.061-0.452,0.156-0.085,0.214c0.087-0.215,1.387-0.413,2.506-0.183
		C131.378,46.239,130.659,45.531,129.696,45.137z"/>
	<path fill="#82BA41" d="M132.328,45.131c-0.532-0.037-0.913-0.123-1.614-0.293c-0.777,0.105-0.939,0.186-0.992,0.257l2.299,0.03
		l-0.16,0.033L132.328,45.131z"/>
	<path fill="#82BA41" d="M134.554,44.728h-0.002c-0.002,0-0.012,0.085-0.021,0.132c0.006,0.001,0.015,0.005,0.021,0.006
		L134.554,44.728z"/>
	<path fill="#82BA41" d="M145.471,46.251c-0.145,0.026-0.199,0.047,0.07,0.054C145.473,46.283,145.475,46.267,145.471,46.251z"/>
	<path fill="#82BA41" d="M143.614,45.645c-0.021-0.017-0.044-0.033-0.066-0.051C143.515,45.6,143.55,45.62,143.614,45.645z"/>
	<path fill="#82BA41" d="M145.585,45.967l-0.155,0.031c-0.708-0.063-1.565-0.259-1.815-0.354c0.235,0.186,0.474,0.329,1.016,0.517
		c0.162-0.031,0.296-0.124,0.819-0.102c0.454,0.071-0.003,0.112,0.021,0.189C145.786,46.186,146.575,46.082,145.585,45.967z"/>
	<path fill="#82BA41" d="M138.558,46.023l-0.049-0.122c1.05,0.048,0.822-0.103,0.954-0.196l-1.846,0.114L138.558,46.023z"/>
	<path fill="#82BA41" d="M0.431,27.696l-0.091-0.579C0.373,27.392,0.402,27.568,0.431,27.696z"/>
	<path fill="#82BA41" d="M1.102,31.898l0.129,0.074C1.118,31.796,1.053,31.729,1.102,31.898z"/>
	<path fill="#82BA41" d="M27.197,47.411l-1.04-0.152C26.392,47.313,26.726,47.364,27.197,47.411z"/>
	<path fill="#82BA41" d="M7.219,6.155l0.373-0.643C6.771,6.235,7.209,6.008,7.219,6.155z"/>
	<path fill="#82BA41" d="M84.626,0.067c0.058,0.009,0.122,0.02,0.176,0.027C84.819,0.063,84.741,0.061,84.626,0.067z"/>
	<path fill="#82BA41" d="M117.345,44.904C117.854,44.89,117.427,44.879,117.345,44.904L117.345,44.904z"/>
	<path fill="#82BA41" d="M119.612,45.95c0.041-0.058,0.111-0.093,0.203-0.114C119.707,45.862,119.625,45.896,119.612,45.95z"/>
	<path fill="#82BA41" d="M117.347,44.904c-0.15,0.003-0.36,0.007-0.71,0.013c0.291-0.003,0.563,0.009,0.824,0.023
		C117.361,44.926,117.319,44.913,117.347,44.904z"/>
	<path fill="#82BA41" d="M43.079,0.842c0.513-0.099,0.288-0.083-0.109-0.022C43.003,0.826,43.04,0.834,43.079,0.842z"/>
	<path fill="#82BA41" d="M54.852,47.479c0.024-0.005,0.038-0.009,0.059-0.013c-0.023-0.003-0.053-0.006-0.075-0.008L54.852,47.479z"
		/>
	<path fill="#82BA41" d="M54.236,46.777l-1.212,0.876c0.781-0.294,1.223-0.258,1.812-0.196L54.236,46.777z"/>
	<path fill="#82BA41" d="M27.116,47.156c-0.146,0.045-0.15,0.096,0.157,0.143C27.168,47.255,27.141,47.205,27.116,47.156z"/>
	<path fill="#82BA41" d="M7.151,6.272L7.2,6.232c0.017-0.035,0.021-0.059,0.019-0.077L7.151,6.272z"/>
	<path fill="#82BA41" d="M122.61,44.787l-1.098,0.068c0.011-0.192-0.689-0.107-1.392-0.02c0.083,0.211,0.748,0.14,1.491,0.101h-0.13
		c0.022-0.032,0.029-0.058,0.03-0.081c0.307-0.007,0.497,0.01,0.656,0.033c-0.114,0.014-0.242,0.029-0.385,0.039
		c0.206-0.009,0.417-0.011,0.619-0.003c0.032,0.005,0.062,0.011,0.095,0.016c-0.004-0.012-0.019-0.025-0.032-0.038
		c-0.001-0.014-0.002-0.028-0.026-0.031C122.399,44.827,122.388,44.79,122.61,44.787z"/>
	<path fill="#82BA41" d="M132.169,46.406c0.162-0.031,0.345-0.003,0.501-0.036l-0.044-0.121
		C131.94,46.258,131.461,46.355,132.169,46.406z"/>
	<path fill="#82BA41" d="M125.355,45.752c0.236-0.01,0.482-0.016,0.714-0.004C126.161,45.625,125.78,45.723,125.355,45.752z"/>
	<path fill="#82BA41" d="M115.674,45.085c0.365,0.057,0.231-0.281,0.437-0.191C116.521,44.612,113.669,45.232,115.674,45.085z"/>
	<polygon fill="#82BA41" points="123.539,46.329 124.25,46.383 123.972,46.11 	"/>
	<path fill="#82BA41" d="M119.718,46.164c-0.761-0.009-1.592-0.063-1.563,0.018l1.233,0.076
		C119.369,46.211,119.526,46.184,119.718,46.164L119.718,46.164c0.396,0.006,0.772,0,0.993-0.045
		C120.498,46.123,120.035,46.133,119.718,46.164z"/>
	<polygon fill="#82BA41" points="121.327,46.388 122.563,46.464 122.199,46.406 	"/>
	<path fill="#82BA41" d="M104.894,46.131l-1.346,0.077c-0.139,0.092,0.229,0.15,0.729,0.113
		C104.602,46.255,105.1,46.22,104.894,46.131z"/>
	<path fill="#82BA41" d="M108.326,47.005l0.637-0.131c-0.364-0.057-0.388-0.116-0.594-0.205L108.326,47.005z"/>
	<path fill="#82BA41" d="M104.788,47.201c0.136-0.094,1.485-0.17,0.246-0.247C104.901,47.047,103.08,47.223,104.788,47.201z"/>
	<path fill="#82BA41" d="M67.89,47.427c-0.963,0.137-1.468,0.058-1.029,0.422c1.595,0.135,0.381-0.341,1.822-0.175
		C69.058,47.543,67.505,47.539,67.89,47.427z"/>
	<path fill="#82BA41" d="M67.89,47.427c0.154-0.022,0.319-0.049,0.493-0.085C68.104,47.376,67.973,47.402,67.89,47.427z"/>
	<polygon fill="#82BA41" points="111.407,2.59 111.043,2.663 112.067,2.775 	"/>
	<path fill="#82BA41" d="M113.867,2.278c-0.231,0.016-0.681,0.047-0.856-0.031l0.242,0.351L113.867,2.278z"/>
	<path fill="#82BA41" d="M4.821,40.775l0.121,0.01c-0.044-0.199-0.233-0.392-0.547-0.828C4.367,39.976,4.821,40.775,4.821,40.775z"
		/>
	<polygon fill="#82BA41" points="0.029,26.586 0.31,26.083 0.022,26.326 	"/>
	<path fill="#82BA41" d="M1.458,13.565c-0.196,0.503-0.39,1.113-0.548,1.626C1.23,14.054,1.873,13.587,1.458,13.565z"/>
	<polygon fill="#82BA41" points="159.928,44.67 158.855,44.89 159.799,44.762 	"/>
	<path fill="#82BA41" d="M150.238,43.994c-0.079-0.018-0.105-0.025-0.152-0.036c-0.146-0.002-0.347-0.005-0.69-0.008
		C149.618,44.094,148.613,44.074,150.238,43.994z"/>
	<path fill="#82BA41" d="M150.086,43.958C150.801,43.947,149.618,43.836,150.086,43.958L150.086,43.958z"/>
	<path fill="#82BA41" d="M147.003,43.745c-0.965,0.07-0.768,0.155-0.218,0.296l0.941-0.128
		C147.531,43.827,146.693,43.808,147.003,43.745z"/>
	<path fill="#82BA41" d="M145.893,44.313l0.487-0.056C146.294,44.224,146.165,44.211,145.893,44.313z"/>
	<path fill="#82BA41" d="M146.854,44.216c-0.082,0.112,0.122,0.006,0.562-0.073l-1.035,0.115
		C146.516,44.319,146.529,44.439,146.854,44.216z"/>
	<path fill="#82BA41" d="M147.999,44.2c0.528,0.082,1.212,0.132,0.266,0.262C150.066,44.41,149.802,44.146,147.999,44.2z"/>
	<path fill="#82BA41" d="M140.92,43.849c-0.059,0.079,0.316,0.211,0.387,0.313l0.696-0.092
		C141.646,44.016,140.968,43.967,140.92,43.849z"/>
	<path fill="#82BA41" d="M141.307,44.162l-1.04,0.136C141.195,44.313,141.366,44.249,141.307,44.162z"/>
	<polygon fill="#82BA41" points="137.536,43.655 136.487,43.933 136.946,43.838 	"/>
	<path fill="#82BA41" d="M134.313,43.871c0.438-0.152-0.599-0.259-0.137-0.352c-0.717,0.027-1.328,0.158-1.879,0.274
		C132.882,43.729,133.508,43.745,134.313,43.871z"/>
	<path fill="#82BA41" d="M138.496,44.258c-0.081-0.047-0.236-0.173-0.82-0.226l0.408,0.221
		C138.21,44.256,138.352,44.257,138.496,44.258z"/>
	<path fill="#82BA41" d="M137.2,44.243c0.114,0.003,0.385,0.007,0.899,0.019l-0.016-0.007
		C137.64,44.249,137.332,44.245,137.2,44.243z"/>
	<path fill="#82BA41" d="M142.995,44.526c-0.547,0.111-1.614,0.23-0.941,0.392l0.243,0.134c0.131,0.002,0.278,0.003,0.428,0.004
		c-0.046-0.026-0.125-0.079-0.279-0.129C142.643,44.797,142.177,44.692,142.995,44.526z"/>
	<path fill="#82BA41" d="M140.293,44.382l-1.188,0.157l1.105,0.05C140.189,44.53,139.989,44.444,140.293,44.382z"/>
	<polygon fill="#82BA41" points="139.105,44.539 138.695,44.52 138.564,44.609 	"/>
	<path fill="#82BA41" d="M133.266,44.176c-0.479,0.097-1,0.104-1.59,0.12c0.632,0.044,1.287,0.066,1.906,0.066
		C133.67,44.293,133.943,44.167,133.266,44.176z"/>
	<path fill="#82BA41" d="M135.615,44.237c-0.033,0.003-0.075,0.009-0.106,0.013C135.573,44.269,135.626,44.274,135.615,44.237z"/>
	<polygon fill="#82BA41" points="125.869,44.295 125.962,44.335 125.983,44.297 	"/>
	<path fill="#82BA41" d="M133.688,44.405c0.474,0.043,0.758-0.013,1.029-0.08c-0.355,0.021-0.732,0.035-1.136,0.037
		C133.542,44.396,133.535,44.415,133.688,44.405z"/>
	<path fill="#82BA41" d="M135.35,44.188l0.07-0.011C135.265,44.131,135.283,44.154,135.35,44.188z"/>
	<path fill="#82BA41" d="M135.509,44.25c-0.059-0.017-0.118-0.04-0.159-0.062c-0.247,0.033-0.438,0.086-0.63,0.137
		C135.008,44.307,135.276,44.282,135.509,44.25z"/>
	<path fill="#82BA41" d="M126.518,45.551c0.549-0.08,0.624-0.301,0.445-0.549l0.028,0.005l0.091-0.216l-0.26,0.054
		c-0.201-0.184-0.515-0.367-0.86-0.51c-0.032,0.091-0.032,0.175-1.126,0.297c0.263,0.076,1.303,0.172,1.635,0.285l-0.021,0.004
		l0.049,0.008c0.119,0.049,0.105,0.101-0.163,0.154c-0.287,0.021-0.494,0.029-0.668,0.03c-0.395-0.162-0.255,0.081-1.141-0.258
		c0.056,0.03,0.089,0.057,0.104,0.08c-0.055-0.012-0.11-0.024-0.181-0.035c0.117,0.051,0.114,0.096,0.042,0.138
		c-0.656,0.135-3.313-0.104-2.191,0.299c-1.03-0.445-1.787-0.189-3.139-0.569c0.029,0.079,0.252,0.151-0.053,0.167l-0.659-0.136
		c1.098-0.161,2.455-0.501,3.819-0.399c-0.62-0.316-0.314,0.036-1.282-0.335c0.84,0.46-3.488-0.02-2.141,0.464
		c-0.992-0.429-1.721-0.183-3.02-0.548c0.04,0.107,0.46,0.201-0.685,0.15c-0.053,0.031-0.174,0.07-0.252,0.094
		c-0.036-0.003-0.049-0.005-0.078-0.009l0.063,0.013c-0.049,0.017-0.054,0.02,0.023,0.005c0.273,0.045,0.493,0.101,0.584,0.159
		c-0.569,0.243-2.391,0.237-3.005,0.361c-0.681-0.051,0.283-0.121-0.088-0.234l-0.921,0.188c-0.09-0.235-1.805-0.39-0.203-0.527
		l-1.439-0.011c-0.849-0.131-2.015-0.183-2.733-0.084c-0.679-0.051-1.719,0.26-1.126,0.076l-2.261,0.146l-0.021-0.059
		c-2.228-0.028-4.591,0.389-7.137-0.035c-0.751,0.06-1.526,0.131-2.782,0.065l-0.243-0.203c-0.965,0.069-2.894-0.203-3.309,0.009
		c-1.037-0.547-4.677-0.119-6.37-0.215l-0.066,0.264c-1.167-0.016-2.285,0.061-3.733,0.166l0.087,0.233
		c-1.25,0.193-3.208-0.166-5.183-0.143c0.134-0.088,0.634-0.064,0.989-0.012c-2.355-0.529-4.979,0.386-7.116,0
		c-0.534,0.085-0.92,0.057-1.294-0.002c0.05,0,0.094-0.006,0.132-0.014c-0.056,0-0.136-0.002-0.218-0.002
		c-0.236-0.041-0.482-0.082-0.74-0.124c0.223,0.057,0.436,0.104,0.622,0.124c-0.411,0.004-1.035,0.035-1.646,0.092l-0.258-0.251
		c-0.05,0.002-0.09,0.004-0.143,0.008c-0.599-0.093-0.482,0.12-0.165,0.309c-0.308,0.042-0.589,0.09-0.809,0.15
		c-0.484-0.406-1.605,0.138-2.268-0.295c-0.414,0.211-3.075,0.159-3.403,0.603c-0.02-0.058-0.2-0.086,0.13-0.088
		c-0.681-0.052-1.361-0.101-1.974,0.023l-0.287-0.32l-1.491,0.43c-0.902-0.195-1.276-0.308-0.376-0.554
		c-2.17,0.379-1.76,0.143-3.607,0.519l0.091-0.208c-0.659,0.01-1.713,0.286-2.11,0.115c-1.47-0.395-7.293-0.055-11.073-0.421
		c0.729,0.61-1.755-0.272-1.909,0.198c-0.219-0.144-0.746-0.224-0.132-0.349c-1.932,0.142-2.898-0.228-4.235,0.171
		c-0.219-0.146,0.415-0.212,0.22-0.298c-0.155,0.03-0.615,0.125-0.814,0.039c-0.196-0.087,0.284-0.119,0.59-0.183
		c-1.973,0.023-2.177,0.468-2.324,0.884c-0.998-0.197-1.496-0.169-2.222,0.104c-0.346-0.136-0.925-0.277,0.301-0.328
		c-0.689-0.02-4.211-0.199-4.283,0.135c-0.215-0.084-0.964-0.024-1.146,0.014c-0.773-0.014-1.195-0.021-1.611-0.028
		c-0.356-0.015-0.773-0.058-1.493-0.142l0.396,0.108c-0.313,0.164-0.625,0.145-1,0.044c-0.378-0.085-0.815-0.244-1.399-0.38
		l0.043-0.032c-1.288-0.49-1.554-0.609-1.847-0.653c-0.284-0.063-0.563-0.168-1.729-0.852l0.031,0.291
		c-0.225,0.197-0.73-0.182-1.352-0.652c-0.621-0.479-1.272-1.175-1.967-1.548c-0.013,0.016,0.377,0.453,0.377,0.453
		c-0.429-0.146-0.756-0.735-1.071-1.283c-0.151-0.274-0.304-0.556-0.441-0.808c-0.116-0.272-0.231-0.51-0.356-0.68
		c-0.085-0.169,0.241,0.166,0.428,0.331c-1.194-1.854-0.411,0.017-1.551-1.184c-0.029-0.359,0.551,0.046-0.017-0.889
		c-0.045-0.136-0.203-0.347-0.426-0.612c-0.216-0.271-0.54-0.57-0.761-0.979c-0.461-0.797-1.102-1.681-1.114-2.504
		c-0.024,0.368-0.043,0.75-0.371,0.026c-0.19-0.578-0.356-1.39-0.462-2.189c-0.061-0.815-0.162-1.594-0.463-2.104
		c0.009-0.159,0.033-0.222,0.064-0.232c-0.167-0.447-0.22-1.212-0.323-1.926c-0.098-0.716-0.208-1.387-0.336-1.672
		c0.185-0.224,0.25-0.698,0.296-1.286c0.022-0.589-0.004-1.294,0.019-1.97c-0.009-0.681,0.037-1.331,0.121-1.801
		c0.079-0.473,0.191-0.763,0.387-0.716c0,0,0.148-0.698,0.296-1.396c0.196-0.684,0.39-1.368,0.39-1.368l0.053,0.098
		c0.651-1.678,0.799-2.307,0.921-2.976c0.252-0.341,0.165-0.036,0.183,0.014c0.35-0.558,0.625-0.985,0.882-1.326
		c0.239-0.353,0.432-0.638,0.626-0.91c0.371-0.555,0.67-1.102,1.313-2.036l0.335,0.026C9.207,8.85,9.955,8.257,10.95,7.619
		c0.993-0.646,2.229-1.326,3.316-2.011c-0.011,0.038-0.037,0.107-0.204,0.228c1.216-0.781,2.898-1.231,4.347-1.505
		c1.452-0.291,2.669-0.445,3.132-0.973c0,0,0.115-0.027,0.287-0.067c0.084-0.019,0.184-0.04,0.29-0.063L22.247,3.2l0.18-0.022
		c0.49-0.06,0.979-0.12,0.979-0.12c-2.535-0.065,0.377-0.41-0.667-0.563c0.996-0.058,2.578,0.276,1.353,0.329l-0.191-0.046
		c-0.448,0.492,3.15,0.165,3.083,0.499c4.987-0.039,9.848,0.219,14.52,0.226l-0.54-0.381l1.63,0.018
		c0.429,0.087,0.576,0.297-0.587,0.285c0.611,0.215,1.949-0.187,1.981-0.271c2.277,0.149-0.888,0.448-0.189,0.456l0.948-0.031
		l-0.214-0.044c0.768-0.157,0.836-0.323,2.232-0.309c0.885,0.074,0.455,0.235,0.802,0.248c-0.001,0.027,0.116,0.041,0.534,0.01
		l2.053,0.026l-0.822-0.299c0.909-0.152,1.931,0.009,0.983-0.329c1.393,0.523,7.659,0.167,8.513,0.329
		c1.274-0.224,2.531-0.224,4.09-0.203c-0.388-0.061-0.621-0.399,0.724-0.362c-0.489,0.702,2.463,0.296,3.549,0.797
		c-0.971-0.331,3.822-0.093,2.296-0.563c1.123,0.052,0.068,0.261,0.921,0.424c2.668-0.279,5.883,0.158,9.183,0.058
		c0.052-0.092-0.502-0.231,0.205-0.37l1.743,0.454c0.652-0.046,0.598-0.532,1.79-0.217c-0.168-0.077-0.421-0.192,0.018-0.223
		c6.466,0.428,13.207-0.405,19.773,0.417c-0.89-0.175-0.298-0.195,0.381-0.204c-0.44-0.041,0.01-0.227-0.077-0.351l2.749,0.338
		c0.5-0.347,2.946-0.032,3.233-0.363l-0.872,0.063c0.57-0.195,0.184-0.407-0.336-0.632l0.931,0.114
		c0.52-0.361,3.062-0.033,3.36-0.377l-0.906,0.064c1.202-0.409-1.685-0.896-1.51-1.416c-1.347,0.464-3.554-0.672-5.762-0.005
		c-0.487-0.105,0.417-0.168,0.155-0.288c-0.561,0.225-1.236,0.273-2.491,0.177l0.141-0.056c-3.521,0.064-5.031-0.15-8.988-0.286
		l0.293,0.256c-0.85-0.033-1.029-0.113-1.428-0.176c-0.976,0.393,2.389,0.014,1.5,0.447c-1.129-0.52-5.995,0.01-6.761-0.583
		C85.426,0.145,87.12,0.44,85.813,0.44L85.464,0.28l-0.33,0.208c-0.856-0.032-1.29-0.231-1.323-0.368
		c0.208,0.016,0.591-0.04,0.814-0.052c-1.113-0.187-3.135,0.074-3.517,0.013l1.257,0.095c-3.57,0.162-7.929-0.037-11.375,0.3
		l0.261,0.12c-2.633,0.232-2.11-0.127-5-0.015l0.105-0.03c-0.579,0.124-1.351,0.186-2.142,0.175
		c0.729-0.144-1.375-0.271-0.417-0.432c-2.855,0.25-1.413,0.194-3.297,0.65l-0.436-0.201c-0.642,0.184-0.696,0.28-2.139,0.337
		c1.185-0.177-0.922-0.305,0.403-0.537c-3.032-0.432-4.499,0.458-5.89-0.182c-1.391,0.561,2.623,0.301,1.845,0.423
		c0.653,0.18-1.147,0.42-2.098,0.367c-0.968-0.01-1.648-0.708-4.083-0.691c0.242,0.002,0.259-0.04,0.501-0.039
		c-0.913-0.14-1.785,0.197-2.903-0.03c-0.625,0.339-1.452-0.015-1.63,0.416l2.233-0.106c-1.029,0.094-2.014,0.439-3.464,0.441
		c0.02-0.017,0.02-0.025,0.048-0.045c-0.033,0.021-0.07,0.028-0.104,0.045c-0.318-0.001-0.651-0.014-1.021-0.056
		c0.164-0.087,0.784-0.203,1.21-0.269c-0.61-0.124-1.175,0.088-1.808-0.041c0.179-0.431,2.715-0.101,4.071-0.433
		c-0.656-0.18-2.566,0.318-1.885-0.149c-0.979,0.596-2.399-0.067-4.047,0.39l0.108-0.259c-0.261,0.042-0.801,0.165-1.281,0.16
		l0.869-0.337c-1.333,0.289-2.574-0.242-3.854-0.083c2.682-0.015,0.604,0.309,1.737,0.494c-3.307,0.354-1.904-0.668-5.606-0.534
		c0.501-0.038,1.881,0.149,1.098,0.271c-0.705-0.05-1.636-0.146-2.069-0.28c-2.452,0.061,0.377,0.264-0.666,0.425
		c-0.837-0.312-1.205,0.131-2.28,0.234L27.35,0.414c-2.795-0.159-0.74,0.547-3.258,0.353L25.156,0.4l-1.312,0.097l0.27-0.299
		c-0.712,0.113-1.181,0.156-1.645,0.159c-0.257-0.003-0.511-0.006-0.8-0.01c-0.294,0.008-0.6,0.02-0.971,0.046
		c0.359,0.151-0.147,0.479-1.397,0.718c-0.883,0.028,0.433-0.361-1.338,0.077c0.362-0.255,0.771-0.566,1.6-0.47
		c0.066-0.102,0.377-0.232,0.45-0.329C19.031,0.355,17.637,0.816,17,1.013c0.251-0.058,0.551-0.129,0.713-0.128
		c0,0-0.629,0.251-1.24,0.533c-0.614,0.273-1.208,0.589-1.208,0.589c-0.426,0.044-0.14-0.139,0.151-0.32
		c-0.505,0.201-0.814,0.452-1.54,0.773c0.112-0.28-0.018-0.469,1.018-0.975c0,0-0.587,0.28-1.159,0.586
		c-0.576,0.304-1.13,0.642-1.13,0.642c-0.194-0.022-1.296,0.375-1.029,0.152C10.215,3.442,8.721,5.055,7.2,6.232
		C7.151,6.331,7.02,6.489,6.75,6.806C5.434,8.04,4.161,9.181,3.293,11.235c0,0-0.939,0.898-0.918,0.917
		c-0.655,1.599,1.121-1.297,0.044,1.337c-0.627,1.901-0.565,0.572-0.917,1.195c-0.104,0.504-0.138,1.217-0.297,1.989
		c-0.091,0.788-0.311,1.645-0.576,2.526c0.015-0.614,0.167-1.071,0.273-1.631c0,0-0.128,0.332-0.255,0.664
		c-0.126,0.333-0.221,0.673-0.221,0.673c-0.023-1.744,0.428-2.952-0.17-1.705c0.161,0.094,0.169,0.479,0.103,1.01
		c-0.05,0.533-0.136,1.214-0.238,1.894c-0.139,1.365-0.2,2.73,0.171,2.838l-0.175,0.91c0.015-0.263-0.026-0.306-0.011-0.565
		c-0.21,0.89-0.065,1.227,0.122,1.614c0.18,0.392,0.392,0.834,0.402,1.968c-0.012,0.791-0.082,1.357-0.196,0.825
		c0,0,0.018,0.11,0.043,0.274c0.018,0.163,0.067,0.382,0.132,0.597c0.12,0.433,0.239,0.865,0.239,0.865
		c0.074,0.51-0.068,0.409-0.144-0.104c0,0,0.131,0.667,0.261,1.335c0.065,0.333,0.131,0.665,0.181,0.914
		c0.042,0.251,0.124,0.407,0.115,0.409l-0.026-0.015c0.223,0.345,0.646,1.131,0.842,1.509c0.108,0.688-0.174-0.303-0.205-0.106
		c0,0,0.152,0.343,0.304,0.685c0.154,0.341,0.296,0.682,0.312,0.677c0.051,0.309-0.125,0.214-0.303-0.107
		c-0.17-0.323-0.377-0.859-0.52-1.363c-0.127,0.791,0.014,1.09,0.247,1.555c0.281,0.455,0.7,1.049,1.173,2.545l-0.698-1.27
		c0.017,0.516,0.185,1.022,0.408,1.603c0.271,0.556,0.649,1.154,1.005,1.938c-0.058-0.209-0.389-1.008-0.555-1.574
		c-0.086-0.282-0.131-0.51-0.077-0.591c0.045-0.076,0.148,0.016,0.417,0.331c0.206,0.418,0.524,0.954,1.125,1.607
		c-0.225,0.185,0.374,0.825,1.11,1.628l-0.294,0.18c0.849,0.842,0.92,0.624,1.534,0.968c0.952,0.878,0.981,1.298,1.117,1.643
		c1.697,1.246-0.939-1.172,1.122,0.183c0.657,0.572,1.312,0.903,2.007,1.229c0.683,0.357,1.481,0.541,2.435,0.85
		c1.077,0.484-0.264,0.136,0.105,0.363l1.076,0.068c0.24,0.085,0.139,0.141,0.087,0.169c0.867,0.157,0.163-0.301,1.5-0.049
		c0.217-0.131,0.861,0.143,1.697,0.419c0.42,0.125,0.887,0.256,1.375,0.31c0.55,0.052,0.93,0.007,1.359-0.095
		c0.398,0.099-0.196,0.213-0.075,0.348c2.23-0.285,1.911-0.208,3.743-0.59l1.556,0.228c-1.015-0.232,0.03-0.502,1.175-0.736
		c0.004,0,0.005,0.001,0.009,0.001l-0.008-0.001c0.143-0.028,0.286-0.058,0.428-0.086c0.074,0.023,0.151,0.047,0.228,0.071
		c0.176-0.072,0.336-0.141,0.488-0.206l0.323,0.273l0.109-0.148l0.352,0.032c-0.087,0.084-0.292,0.174-0.533,0.263
		c-0.245-0.07-0.491-0.143-0.734-0.214c-0.506,0.211-0.981,0.444-0.877,0.648c0.133-0.04,0.39-0.074,0.67-0.094
		c-0.132,0.058-0.218,0.107-0.156,0.143c0.069,0.037,0.284-0.04,0.618-0.13l0.46,0.388l0.114-0.153l2.672,0.242
		c1.685-0.342,3.179-0.827,5.579-1.046c0.131,0.063,0.397,0.077,0.72,0.105c-0.188,0.191,0.148,0.357,0.115,0.617
		c-0.825-0.355-2.354,0.151-3.926,0.079c0.821,0.038,0.638,0.197,0.429,0.254l2.811-0.324c-0.066,0.275,0.593,0.207,1.326,0.319
		c-0.549-0.543,2.095-0.361,3.238-0.528c0.069,0.184-0.206,0.37-1.599,0.326c1.535,0.409,1.993-0.639,3.499-0.292
		c-0.341,0.005-0.524-0.022-0.659,0.07c0.795-0.162,2.737-0.034,2.278,0.126l-0.339,0.003c2.258,0.064,6.876,0.004,7.217-0.457
		c0.022,0.059-0.3,0.557-0.438,0.65l2.281-0.876c0.447,0.047,1.006,0.09,1.85,0.015c0.121,0.369,0.124,0.742-0.966,0.872
		c0.538,0.058,1.202,0.122,2.337-0.018c-0.366-0.058-0.909-0.573-0.408-0.609c1.373,0.441,0.954,0.236,2.647,0.612
		c-0.549-0.085,0.067-0.706,0.936-0.687c-0.136,0.093,0.067,0.613-0.25,0.679l2.167-0.61c-0.541,0.109-0.099,0.518,0.383,0.69
		c-0.224-0.121,1.871,0.01,2.447-0.05l-0.916-0.143c1.542,0.058,2.103-0.299,2.915-0.563c0.03,0.003,0.054,0.005,0.086,0.009
		c0.05-0.018,0.059-0.032,0.047-0.046c0.448-0.134,0.977-0.237,1.792-0.227c-0.294,0.126-0.73,0.775,0.501,0.853
		c0.138-0.075,0.359-0.204,0.642-0.357l1.899,0.066c-0.482,0.146-0.935,0.273-1.31,0.365c0.913,0.143,0.252,0.211,1.621,0.194
		c0.482,0.168-0.748,0.255-1.15,0.264L74.484,48c-0.139-0.365,2.44-0.365,2.32-0.67l-3.464,0.378
		c-0.137-0.362,2.007-1.034,4.266-0.97c0.572,0.146-0.435,0.648-0.388,0.771c0.294-0.124,2.144-0.239,2.351-0.149l-0.959,0.194
		c1.255,0.138,2.053-0.484,3.562-0.136c0.521,0.021,1.554,0.47,1.645,0.254c-0.848-0.415-1.006-1.705-0.437-2.018
		c0.077,0.012,0.581,0.086,1.176,0.183c-0.351,0.217-0.916,0.437-0.497,0.598l0.001-0.001c-0.019,0.062,0.137,0.112,0.656,0.13
		c-0.34-0.038-0.53-0.083-0.656-0.13c0.033-0.097,0.486-0.214,0.677-0.253c0.093,0.015,0.139,0.034,0.17,0.055l-0.155,0.29
		l0.342-0.002l-0.009-0.104c0.095,0.02,0.259,0.028,0.577,0.017c0.104-0.192,0.771-0.169,1.084-0.157
		c0.733,0.324-1.317,0.765-0.602,1.039l0.001-0.001c-0.02,0.063,0.142,0.117,0.683,0.135c-0.354-0.038-0.552-0.086-0.683-0.135
		c0.034-0.1,0.507-0.222,0.703-0.262c0.548,0.086-0.228,0.31,0.961,0.264c0.201-0.369,2.421,0.032,0.564-0.313
		c1.164-0.105,1.236,0.076,2.603,0.06c-0.432-0.238,1.231-0.813,2.398-0.918c-0.07,0.094,0.192,0.217,0.319,0.272
		c2.383,0.034,3.664,0.203,5.887,0.206c0.205,0.088,1.279,0.198,0.819,0.356c0.32-0.064,0.614-0.189,1.302-0.199
		c1.325,0.32-1.53,0.051-0.521,0.435c0.088-0.215,1.776-0.297,2.754-0.431c-0.299-0.333-2.258-0.064-3.236,0.07
		c-0.001-0.183,0.276-0.368,0.75-0.538c0.108,0.005,0.278,0.007,0.548,0.004c0.131-0.09,1.405-0.163,0.257-0.236
		c0.673-0.158,1.515-0.293,2.476-0.381c1.847-0.112,0.8,0.297,1.119,0.23c1.714,0.041,2.456-0.154,3.116-0.321
		c1.084,0.006,2.222,0.018,3.208,0.063c0.204,0.217-0.373,0.421-0.182,0.58c-1.506,0.11-2.311-0.186-3.331-0.174l1.255,0.139
		c-0.478,0.097-1.482,0.169-2.03,0.086c0.956,0.262,5.862,0.05,8.538,0.292c0.477-0.099,1.298-0.198,0.91-0.316l-0.847,0.041
		c-0.778-0.235,1.596-0.324,0.523-0.435c1.138-0.166,2.411-0.426,4.012-0.294l0.3,0.333c-0.034-0.097-1.045-0.198-1.495-0.097
		c0.667-0.147,2.45,0.45,3.185,0.016l-1.121-0.23c0.378-0.056,0.79-0.129,1.217-0.201c-0.171,0.067-0.262,0.145-0.184,0.237
		l1.268-0.132c0.01,0.023-0.059,0.052-0.121,0.081c-0.144,0.017-0.291,0.034-0.441,0.053c0.086,0.22,0.777,0.146,1.549,0.104h-0.136
		c0.15-0.202-0.159-0.227-0.619-0.191C124.873,45.449,125.737,45.392,126.518,45.551z M108.716,44.317
		c-0.016,0.004-0.026,0.009-0.038,0.013C107.881,44.231,108.162,44.271,108.716,44.317z M73.015,44.965l1.583-0.196
		c-0.226,0.104-0.553,0.236-0.931,0.379c-1.003,0.096-1.98,0.175-2.89,0.084c0.574-0.198,1.196-0.365,1.843-0.439L73.015,44.965z
		 M54.857,45.071c-0.077,0.086-0.07,0.198-0.036,0.323c-0.56,0.085-0.885,0.116-1.173,0.142L54.857,45.071z M28.917,45.129
		c0.236,0.056,0.038,0.171-0.286,0.31c0.132-0.03,0.259-0.058,0.36-0.079c0.246,0.043,0.355,0.095,0.379,0.151
		c-0.022,0.039-0.044,0.079-0.061,0.119c-0.045,0.035-0.107,0.071-0.186,0.107c-0.375-0.069-0.687-0.103-0.964-0.103
		c0.166-0.068,0.325-0.136,0.468-0.196c-0.222,0.046-0.472,0.097-0.733,0.147c-0.389-0.121-0.721-0.227-0.943-0.277L28.917,45.129z
		 M27.893,45.586c0.046,0.016,0.095,0.03,0.143,0.045c-0.367,0.014-0.696,0.091-1.085,0.236c-0.042-0.017-0.089-0.034-0.135-0.05
		C27.145,45.737,27.522,45.66,27.893,45.586z M47.75,3.379l-0.322-0.065C48.156,3.239,47.953,3.305,47.75,3.379z M2.818,36.458
		c0.472,0.271,0.438,0.687,0.745,1.313C3.264,37.479,2.831,36.788,2.818,36.458z M27.767,46.437
		c-0.181-0.058-0.344-0.108-0.497-0.154c0-0.001-0.001-0.003-0.002-0.004c-0.001,0-0.002,0.001-0.004,0.001
		c-0.185-0.056-0.351-0.103-0.479-0.132l0.54-0.049c-0.054,0.062-0.083,0.122-0.054,0.18c0.128-0.038,0.375-0.071,0.645-0.089
		c-0.126,0.055-0.209,0.104-0.149,0.137c0.066,0.034,0.273-0.039,0.594-0.125l0.11,0.093C28.254,46.338,28.018,46.388,27.767,46.437
		z M29.397,46.886c0.35-0.022,0.746-0.013,1.184,0.054C30.305,47.026,29.878,46.984,29.397,46.886z M54.049,46.57l0.863-0.33
		C54.8,46.388,54.549,46.507,54.049,46.57z M55.74,46.005c-0.02,0.079-0.005,0.169,0.025,0.268
		C55.669,46.165,55.636,46.057,55.74,46.005z M70.336,46.951c0.13-0.07,0.268-0.143,0.421-0.219c0.046-0.001,0.077,0,0.129-0.001
		C71.197,46.839,70.769,46.911,70.336,46.951z M71.74,46.811c-0.127-0.336,1.783-0.942,3.866-0.933
		c-0.566,0.222-1.286,0.479-2.041,0.733L71.74,46.811z M82.063,45.341c-0.29,0.045-0.62,0.058-0.974,0.057
		c0.026-0.248,0.125-0.461,0.31-0.563c0.083,0.013,0.682,0.102,1.346,0.21c-0.251,0.017-0.501,0.034-0.773,0.055L82.063,45.341z
		 M86.206,46.134c0.008,0.001,0.017,0.003,0.025,0.005c-0.011-0.002-0.018-0.003-0.028-0.005
		C86.204,46.134,86.205,46.134,86.206,46.134z M102.073,46.131c0.041-0.01,0.082-0.021,0.124-0.031
		C102.169,46.109,102.125,46.12,102.073,46.131z M100.104,45.136c0.27-0.052,0.556-0.099,0.864-0.141
		c0.707,0.13,1.271,0.275,1.467,0.099c-0.512-0.068-0.928-0.101-1.313-0.121c0.262-0.033,0.534-0.064,0.816-0.09
		c1.778-0.108,0.77,0.286,1.078,0.222c3.338,0.078,2.848-0.77,5.62-0.45c0.385,0.098,0.497,0.195,0.503,0.29
		c-0.369,0.062-0.578,0.12-0.226,0.01l-2.35,0.152l-0.021-0.062C104.516,45.02,102.381,45.349,100.104,45.136z M115.68,45.571
		c-0.569-0.043-0.04-0.099-0.009-0.18l0.371,0.022c-0.018-0.045,0.135-0.07,0.319-0.09l0,0c0.379,0.006,0.741,0,0.956-0.044
		c-0.206,0.005-0.65,0.014-0.957,0.044c-0.731-0.009-1.531-0.06-1.504,0.017l0.511,0.031l-0.734,0.15
		c-0.052-0.132-0.597-0.241-0.821-0.335c0.229-0.044,0.337-0.081-0.021-0.121c0.026-0.009,0.063-0.018,0.105-0.025
		c0.08-0.013,0.164-0.026,0.246-0.039c0.08-0.009,0.172-0.018,0.279-0.027l-0.093-0.001c0.949-0.147,2.006-0.301,3.285-0.195
		l0.179,0.198c-0.111-0.013-0.212-0.027-0.333-0.036c0.065,0.012,0.186,0.026,0.338,0.042l0.104,0.116
		c-0.032-0.092-1.006-0.191-1.438-0.092c0.462-0.103,1.478,0.163,2.276,0.165c0.018,0.009,0.05,0.016,0.063,0.024
		C118.212,45.449,116.318,45.441,115.68,45.571z"/>
	<path fill="#82BA41" d="M128.043,44.356l0.45-0.025c-0.513-0.036-0.878-0.119-1.553-0.282c-0.748,0.102-0.904,0.178-0.955,0.247
		l2.212,0.029L128.043,44.356z"/>
	<path fill="#82BA41" d="M129.544,44.76l-0.975,0.319l0.821-0.103l0.174-0.176c0.031,0.029,0.083,0.06,0.175,0.094
		c1.318-0.016,0.923-0.188,1.712-0.286c-2.126,0.055,0.611-0.125-0.925-0.252c0.42-0.039,0.795-0.05,1.149-0.061
		c-0.363-0.026-0.713-0.172-1.043-0.223v0.004c0.092,0.029,0.122,0.111,0.019,0.096c-0.007,0.003-0.034,0.037-0.045,0.038
		c-0.014,0.032-0.055,0.074-0.097,0.103c-0.412-0.031-0.314-0.101-0.149-0.151c0.074,0.009,0.138,0.022,0.214,0.031
		c-0.047-0.014-0.108-0.029-0.17-0.044c0.072-0.02,0.149-0.035,0.202-0.043c0.002-0.003,0.005-0.024,0.007-0.037
		c-0.013-0.002-0.024-0.008-0.037-0.009c0.019,0.005,0.033-0.118,0.049-0.118l-2.132,0.256c0.449,0.03,1.015,0.158,2.017,0.132
		C130.232,44.508,129.512,44.606,129.544,44.76z"/>
	<path fill="#82BA41" d="M130.635,43.942h-0.002c-0.002,0-0.013,0.08-0.02,0.127c0.006,0.001,0.013,0.003,0.02,0.004L130.635,43.942
		z"/>
	<path fill="#82BA41" d="M141.139,45.408c-0.14,0.025-0.191,0.045,0.067,0.051C141.141,45.439,141.143,45.423,141.139,45.408z"/>
	<path fill="#82BA41" d="M139.352,44.824c-0.021-0.016-0.043-0.03-0.064-0.049C139.257,44.782,139.289,44.801,139.352,44.824z"/>
	<path fill="#82BA41" d="M141.249,45.135l-0.15,0.03c-0.681-0.061-1.505-0.248-1.747-0.341c0.099,0.078,0.198,0.148,0.319,0.217
		c-0.017,0.002-0.035,0.004-0.051,0.006c0.036,0.011,0.065,0.015,0.086,0.013c0.155,0.083,0.348,0.167,0.624,0.263
		c0.154-0.031,0.283-0.121,0.788-0.099c0.436,0.068-0.003,0.109,0.021,0.183C141.44,45.346,142.2,45.245,141.249,45.135z"/>
	<path fill="#82BA41" d="M135.356,44.883l-0.569,0.035c-0.078-0.019-0.158-0.041-0.235-0.053v0.003
		c0.043,0.014,0.066,0.038,0.077,0.06l-0.298,0.02c-0.007-0.003-0.011-0.004-0.017-0.005c0.074-0.021,0.155-0.037,0.211-0.045
		c0.001-0.003,0.004-0.025,0.006-0.038c-0.012-0.001-0.026-0.007-0.039-0.009c0.02,0.006,0.035-0.123,0.052-0.123l-2.216,0.267
		c0.431,0.029,0.982,0.14,1.881,0.134l0.151,0.033c-0.41,0.212-1.391,0.314-0.737,0.556c1.37-0.016,0.96-0.194,1.779-0.297
		c-2.191,0.058,0.582-0.127-0.926-0.259l-0.004-0.005c0.423-0.039,0.804-0.05,1.163-0.062c-0.133-0.01-0.261-0.047-0.391-0.077
		C135.31,44.977,135.3,44.925,135.356,44.883z M134.44,45.071c0.009,0,0.015,0,0.022,0.001c-0.006,0.006-0.01,0.011-0.016,0.017
		L134.44,45.071z"/>
	<polygon fill="#82BA41" points="125.903,43.944 124.876,44.28 125.667,44.182 	"/>
	<polygon fill="#82BA41" points="123.446,44.004 122.838,44.129 123.359,44.211 	"/>
	<path fill="#82BA41" d="M65.19,43.976l0.232,0.226c0.53-0.04,0.937-0.015,1.282,0.034C65.947,44.04,65.1,43.741,65.19,43.976z"/>
	<path fill="#82BA41" d="M99.732,44.295c-0.653-0.089-1.176-0.126-1.635-0.137C98.887,44.288,99.523,44.483,99.732,44.295z"/>
	<path fill="#82BA41" d="M3.89,28.358c0.094,0.316,0.167,0.489,0.208,0.415C4.004,28.469,3.936,28.342,3.89,28.358z"/>
	<path fill="#82BA41" d="M96.203,44.158c0.12,0.02,0.229,0.036,0.348,0.054c0.478-0.039,0.962-0.069,1.547-0.055
		C97.515,44.061,96.847,44.002,96.203,44.158z"/>
	<path fill="#82BA41" d="M104.397,3.196c-0.215,0.014-0.565,0.015-0.895,0.02C103.662,3.23,103.934,3.229,104.397,3.196z"/>
	<path fill="#82BA41" d="M114.077,44.112C114.566,44.098,114.156,44.088,114.077,44.112L114.077,44.112z"/>
	<path fill="#82BA41" d="M116.259,45.118c0.039-0.055,0.108-0.088,0.195-0.11C116.35,45.034,116.271,45.065,116.259,45.118z"/>
	<path fill="#82BA41" d="M114.189,44.146c0.101,0.02,0.289,0.042,0.625,0.068C114.63,44.188,114.417,44.164,114.189,44.146z"/>
	<path fill="#82BA41" d="M114.715,44.108c0.169,0.008,0.303,0.015,0.429,0.022C115.205,44.092,115.15,44.069,114.715,44.108z"/>
	<path fill="#82BA41" d="M114.079,44.112c-0.146,0.003-0.347,0.006-0.683,0.012c0.279-0.003,0.541,0.009,0.794,0.022
		C114.093,44.133,114.053,44.12,114.079,44.112z"/>
	<path fill="#82BA41" d="M119.144,44l-1.061,0.064c0.512-0.012,0.695,0.044,0.953,0.082C119.014,44.088,118.812,44.004,119.144,44z"
		/>
	<path fill="#82BA41" d="M112.47,44.286c0.352,0.055,0.223-0.271,0.421-0.184C113.284,43.831,110.541,44.428,112.47,44.286z"/>
	<path fill="#82BA41" d="M105.401,46.134l0.612-0.126c-0.352-0.054-0.373-0.111-0.571-0.198L105.401,46.134z"/>
	<polygon fill="#82BA41" points="109,3.579 108.365,3.402 108.014,3.471 	"/>
	<path fill="#82BA41" d="M110.142,3.409l0.591-0.308c-0.224,0.015-0.655,0.045-0.824-0.03L110.142,3.409z"/>
</g>
</svg>
