<?xml version="1.0" encoding="utf-8"?>
<!-- Generator: Adobe Illustrator 16.0.3, SVG Export Plug-In . SVG Version: 6.00 Build 0)  -->
<!DOCTYPE svg PUBLIC "-//W3C//DTD SVG 1.1//EN" "http://www.w3.org/Graphics/SVG/1.1/DTD/svg11.dtd">
<svg version="1.1" id="Layer_1" xmlns="http://www.w3.org/2000/svg" xmlns:xlink="http://www.w3.org/1999/xlink" x="0px" y="0px"
	 width="45px" height="45px" viewBox="0 0 45 45" enable-background="new 0 0 45 45" xml:space="preserve">
<g>
	<path fill="#82BA41" d="M13.025,44.114c-0.07-0.024-0.141-0.048-0.211-0.077c-9.691-3.783-7.231-16.992-5.896-21.556
		C10.46,10.404,18.534-1.122,25.157,0.087c0.756,0.141,1.413,0.415,1.985,0.805c-4.861,0.582-11.255,6.271-14.718,14.922
		c-4.039,10.07-6.907,22.379-3.451,24.354c-1.487-3.195-1.17-8.031,1.739-15.294C15.524,12.864,28.583,0.438,34.387,2.7
		c5.807,2.271,6.692,13.951,1.875,25.965c-4.809,12.008-16.472,18.14-22.279,15.869C13.651,44.406,13.333,44.266,13.025,44.114"/>
</g>
</svg>
