<?xml version="1.0" encoding="utf-8"?>
<!-- Generator: Adobe Illustrator 16.0.3, SVG Export Plug-In . SVG Version: 6.00 Build 0)  -->
<!DOCTYPE svg PUBLIC "-//W3C//DTD SVG 1.1//EN" "http://www.w3.org/Graphics/SVG/1.1/DTD/svg11.dtd">
<svg version="1.1" id="Layer_1" xmlns="http://www.w3.org/2000/svg" xmlns:xlink="http://www.w3.org/1999/xlink" x="0px" y="0px"
	 width="101.636px" height="26px" viewBox="0 -2 101.636 26" enable-background="new 0 -2 101.636 26" xml:space="preserve">
<g>
	<path fill="#8CC63F" d="M57.062-1.359c-1.541,0.297-2.841,1.141-3.604,2.347c-2.317,3.651-6.522,14.951-1.832,20.165
		c5.601,6.224,18.495,0.731,20.629-2.192c3.896-5.327,2.829-15.866-3.616-19.108C64.417-2.273,59.767-1.883,57.062-1.359z"/>
	<g>
		<path fill="#202020" d="M68.55,3.692c0.01-0.004,0.021-0.01,0.034-0.022C68.567,3.675,68.556,3.683,68.55,3.692z"/>
		<path fill="#202020" d="M64.295,1.228l0.061-0.004C64.319,1.217,64.302,1.22,64.295,1.228z"/>
		<path fill="#202020" d="M70.343,5.983l-0.012-0.001c0.022,0.04,0.052,0.092,0.101,0.178L70.343,5.983z"/>
		<path fill="#202020" d="M54.323,4.071l0.046-0.052C54.348,4.042,54.331,4.054,54.323,4.071z"/>
		<path fill="#202020" d="M59.944,1.076c-0.016,0.021-0.047,0.035-0.078,0.048C59.906,1.117,59.938,1.105,59.944,1.076z"/>
		<path fill="#202020" d="M70.27,7.669c-0.001,0,0.024-0.093,0.023-0.092C70.27,7.589,70.261,7.622,70.27,7.669z"/>
		<path fill="#202020" d="M71.147,10.25l0.012-0.008C71.154,10.238,71.15,10.243,71.147,10.25z"/>
		<path fill="#202020" d="M71.207,9.136c-0.011-0.018-0.027-0.044-0.044-0.071C71.173,9.097,71.184,9.138,71.207,9.136z"/>
		<path fill="#202020" d="M71.14,9.031l0.023,0.033C71.156,9.044,71.15,9.028,71.14,9.031z"/>
		<path fill="#202020" d="M72.145,11.593c0.007-0.088-0.033-0.165-0.064-0.244L72.145,11.593z"/>
		<path fill="#202020" d="M51.783,13.344l-0.027-0.015C51.768,13.346,51.777,13.347,51.783,13.344z"/>
		<path fill="#202020" d="M71.654,11.466l0.015-0.059C71.657,11.428,71.654,11.447,71.654,11.466z"/>
		<path fill="#202020" d="M69.48,6.488c-0.086-0.035-0.11-0.205-0.156-0.174C69.373,6.378,69.397,6.498,69.48,6.488z"/>
		<path fill="#202020" d="M54.373,14.495l0.024,0.042C54.388,14.517,54.38,14.504,54.373,14.495z"/>
		<path fill="#202020" d="M71.654,11.466l-0.017,0.067l0.029-0.02C71.658,11.499,71.654,11.482,71.654,11.466z"/>
		<polygon fill="#202020" points="58.314,20.928 58.311,20.926 58.287,20.929 		"/>
		<path fill="#202020" d="M58.808,21.204c-0.039-0.008-0.076-0.016-0.118-0.023C58.747,21.207,58.781,21.21,58.808,21.204z"/>
		<path fill="#202020" d="M72.08,11.349l-0.038-0.137C72.047,11.261,72.063,11.306,72.08,11.349z"/>
		<path fill="#202020" d="M64.728,21.252l-0.051,0.021C64.699,21.268,64.716,21.261,64.728,21.252z"/>
		<path fill="#202020" d="M60.356,1.045l0.048,0.005C60.406,1.037,60.403,1.028,60.356,1.045z"/>
		<polygon fill="#202020" points="57.408,3.715 57.407,3.715 57.408,3.716 		"/>
		<path fill="#202020" d="M57.53,3.56c-0.056,0.019-0.105,0.097-0.121,0.155C57.458,3.685,57.498,3.647,57.53,3.56z"/>
		<path fill="#202020" d="M57.06,3.9l0.021-0.007L57.06,3.9z"/>
		<polygon fill="#202020" points="60.474,2.619 60.473,2.612 60.471,2.618 		"/>
		<path fill="#202020" d="M59.772,2.787c-0.015-0.007-0.034-0.011-0.055-0.012C59.732,2.783,59.75,2.788,59.772,2.787z"/>
		<polygon fill="#202020" points="55.793,5.194 55.791,5.192 55.789,5.196 		"/>
		<path fill="#202020" d="M53.843,11.345c-0.049-0.323-0.027-0.697-0.052-1.075c0.043-0.37,0.04-0.755,0.155-1.063
			c-0.076-0.164-0.027-0.369-0.001-0.581l0.151,0.023l0.014-0.177c0.068-0.051-0.019,0.134,0.08,0.036l-0.068-0.092
			c0.058,0.004,0.188-0.404,0.191-0.095c0,0,0.057-0.156,0.113-0.312c0.055-0.157,0.137-0.302,0.137-0.302
			c0.068-0.13-0.078-0.132,0.027-0.264c0.055-0.01,0.002,0.067,0.058,0.079c0.299-0.388,0.013-0.639,0.309-1.012l-0.004,0.045
			c0.005-0.092,0.092-0.216,0.078-0.228c-0.166-0.04,0.02,0.115-0.13,0.187c-0.102-0.082,0.034-0.193-0.051-0.239
			c0.105-0.063,0.085-0.158,0.138-0.241c0.166-0.085,0.263-0.313,0.416-0.349c0.021-0.087-0.014-0.236,0.103-0.371
			c0.16-0.025,0.053,0.086,0.195-0.014l-0.037-0.072c0.104-0.097,0.104-0.065,0.126-0.037c0.105-0.105,0.003-0.172,0.178-0.264
			l-0.025,0.123c0.082-0.114,0.134-0.142,0.28-0.267c0.026,0.035-0.032,0.084-0.083,0.113c0.153,0.012,0.1-0.155,0.15-0.185
			c-0.034-0.014-0.144,0.066-0.146-0.034c0.081-0.054,0.086-0.216,0.196-0.196l-0.031,0.126c0.113-0.178,0.014-0.151,0.214-0.273
			c-0.006,0.012,0.011,0.023,0.017,0.038c0.058-0.163,0.268-0.21,0.443-0.333l-0.021,0.041c0.055-0.073,0.055-0.157,0.096-0.182
			c-0.124,0.039-0.11,0.001-0.161-0.052C57.1,3.848,57.027,3.582,57.304,3.5c0.019,0.04-0.01,0.118-0.099,0.118
			c-0.009,0.158,0.036,0.247-0.062,0.391c0.063-0.087,0.159-0.156,0.166-0.1l-0.038-0.116c0.054-0.031,0.096-0.055,0.136-0.078
			c-0.017-0.078-0.173-0.039-0.075-0.156c0.12-0.118,0.138,0.059,0.132,0c0.167-0.157,0.015-0.158,0.22-0.237
			c-0.014,0.02-0.039,0.06-0.062,0.06c0.151-0.046,0.328-0.198,0.433-0.091c-0.006,0.039,0.01,0.079-0.048,0.092l-0.008-0.02
			c-0.104,0.164,0.113-0.085,0.125,0.052c-0.046-0.063,0.155-0.14,0.248-0.169l-0.065-0.066c0.184-0.379,0.058,0.166,0.327-0.002
			c0.163-0.128-0.081,0.003,0.01-0.098c0.135-0.033,0.21,0.023,0.382-0.08c0.064,0.014,0.185,0.02,0.225,0.109
			c0.098-0.083,0.35-0.079,0.39-0.179c-0.222-0.032-0.162,0.151-0.425,0.111l0.032-0.113c0.154-0.061,0.349-0.156,0.47-0.15
			c-0.027-0.012-0.044-0.033-0.035-0.057c0.222-0.094,0.268-0.205,0.502-0.235c0.048,0.078-0.088,0.098-0.183,0.13
			c0.162,0.037,0.15-0.048,0.387-0.051c0.027,0.075-0.155,0.015-0.165,0.101c-0.002-0.008,0.247-0.066,0.247-0.066l0.003,0.015
			c0.015-0.131,0.194-0.018,0.343-0.079c0.365-0.063,0.407-0.221,0.612-0.336c0.059,0.032,0.077,0.063,0.056,0.097
			c-0.097-0.053-0.078-0.009-0.107,0.026c0.128-0.02,0.284,0.112,0.216,0.167c0.197-0.047-0.075-0.064,0.046-0.11l0.274-0.006
			c-0.032-0.064-0.132-0.073,0.013-0.131c0.121-0.029,0.18-0.001,0.339,0.008c-0.023,0.031,0.047,0.103-0.071,0.092
			c0.076,0.028,0.193,0.038,0.242-0.023c-0.171-0.068,0.288-0.042,0.166-0.15l0.17,0.068c-0.04-0.003-0.048,0.04-0.105,0.024
			c0.042,0.102,0.145-0.021,0.208-0.028c0.06,0.018,0.216,0.059,0.225,0.097c0.058-0.019,0.188,0.023,0.205,0.077
			c0.083-0.007,0.016-0.063,0.044-0.091l0.275,0.05c0.004,0.057-0.001,0.21-0.046,0.225c0.112-0.035,0.066-0.155,0.222-0.125
			c-0.107,0.082,0.184,0.133,0.031,0.224c0.069,0.1,0.312,0.159,0.452,0.166c0.106-0.06-0.133-0.083-0.103-0.166
			c0.389,0.067,0.487-0.161,0.753-0.014l-0.064-0.05c0.19,0.018,0.167,0.021,0.296-0.01c-0.087,0.088,0.1,0.333,0.379,0.435
			c0.046-0.039-0.111-0.168-0.033-0.226l0.189,0.074c0.01,0.014-0.018,0.021-0.046,0.022c0.181,0.045,0.243,0.273,0.346,0.183
			l0.094,0.22l-0.034-0.091c0.046-0.035,0.239,0.034,0.282,0.044c0.207,0.057,0.25,0.137,0.311,0.254
			c-0.007-0.056-0.033-0.19,0.116-0.119c-0.093,0.147,0.261,0.234,0.207,0.307c0.057,0.035,0.116,0.151,0.165,0.096l-0.071,0.082
			c0.099-0.115,0.288,0.036,0.453,0.125c-0.161,0.138,0.174,0.107,0.117,0.305c0.115-0.084,0.275,0.177,0.379,0.11
			c0.11,0.091,0.012,0.177,0.007,0.234l0.085,0.006c0.011,0.092,0.194,0.279,0.26,0.432l0.188,0.024l-0.006,0.078
			c0.039-0.004,0.135,0.074,0.118-0.013l0.048,0.064c0.105-0.083,0.104,0.057,0.254,0.141c0.006,0.043-0.025,0.056-0.06,0.04
			c0.047,0.065-0.027,0.081-0.037,0.144c-0.008-0.068,0.361,0.081,0.279-0.131c0.034-0.047,0.143,0.032,0.172,0.111l-0.067,0.112
			l0.159,0c0.09,0.091,0.06,0.179,0.108,0.268c-0.069-0.08-0.326-0.047-0.167,0.159c-0.096-0.101-0.191-0.115-0.253-0.156
			c0.028,0.045,0.034,0.073-0.057,0.038c0.15,0.138,0.1,0.01,0.232,0.161c-0.096,0.052-0.087,0.114-0.033,0.283V6.276
			c0.014-0.002,0.026,0,0.037,0.005c-0.016-0.049-0.009-0.07,0.019-0.102c0.021,0.032,0.233,0.125,0.196,0.189
			c0.036-0.266,0.296,0.236,0.315,0.072c0.039,0.004,0.12,0.125,0.08,0.165c-0.159-0.105-0.04,0.171-0.12,0.184
			c0.06,0.039,0-0.153,0.08-0.101c0.061,0.083,0.04,0.179,0.032,0.247l-0.036-0.028l0.023,0.162c0.06-0.001,0.017-0.178,0.104-0.062
			c-0.004,0.044,0.084,0.162,0.043,0.177c-0.097-0.028-0.163,0.06-0.231-0.04c0.049,0.085,0.198,0.366,0.234,0.208l0.049,0.109
			c0.009-0.086-0.01-0.314,0.11-0.101l-0.021,0.007l0.148,0.12l-0.019,0.089c0.023-0.013,0.062,0,0.08,0.062
			c-0.024,0.028-0.016,0.089-0.058,0.101c0.067,0.169,0.113,0.136,0.151,0.147c0.042,0.094,0.034,0.138-0.042,0.115
			c0.033,0.136,0.132,0.361,0.108,0.467c0.093,0.167,0.013-0.044,0.109,0.041c-0.147,0.212,0.094,0.612,0.171,0.91
			c0.15-0.113,0.031,0.079,0.188,0.108c-0.061-0.056-0.082,0.31-0.168,0.052l0.041,0.159c-0.073,0.123-0.107-0.254-0.205-0.069
			c0.031,0.175,0.229,0.268,0.201,0.488c-0.122-0.059,0.057,0.16-0.079,0.119c-0.042-0.04-0.037-0.099-0.057-0.157l-0.018,0.039
			c-0.002,0.394,0.146,0.1,0.24,0.302c0.026,0.244-0.083,0.197-0.138,0.214c-0.021,0.039,0.004,0.158,0.037,0.221
			c-0.079-0.144,0.06-0.275,0.137-0.211c-0.128,0.112,0.008,0.361,0.064,0.43c0.123-0.355-0.006-0.242,0.129-0.583
			c-0.045-0.044-0.164-0.027-0.124-0.23c0.065,0.12,0.066-0.015,0.084-0.052c-0.064,0.045-0.037-0.136-0.08-0.192
			c0.047-0.062,0.177,0.102,0.173-0.105l-0.167-0.018c0.013-0.082,0.124,0.018,0.06-0.145c0.098,0.08,0.126-0.047,0.187,0.182
			c0.095-0.296-0.139-0.416-0.229-0.615c0.014,0.02,0.035,0.018,0.049,0.038c-0.051-0.038-0.055-0.121-0.081-0.18
			c0.001-0.146,0.099,0.094,0.13,0.05C71.196,9.263,71.13,9.04,71.13,9.04c0.004-0.006,0.006-0.007,0.01-0.008
			c-0.037-0.054-0.065-0.107-0.031-0.137c0.067,0.055,0.127,0.069,0.18,0.106l-0.171-0.213c0.059,0.014,0.039-0.22,0.12-0.06
			l-0.112-0.35l0.097-0.062c-0.041-0.08-0.062-0.076-0.048,0.031c-0.006-0.134-0.368-0.463-0.139-0.474
			c-0.192-0.237-0.167-0.359-0.376-0.648c0.209,0.202-0.018-0.332,0.148-0.093c-0.029-0.172-0.151-0.154-0.225-0.264
			c-0.013-0.132,0.106-0.132,0.202-0.026L70.671,6.72l0.021-0.007l-0.115-0.096c-0.014-0.158,0.088-0.082,0.025-0.222l-0.102,0.019
			l-0.004-0.116c-0.019,0.055-0.082-0.012-0.146-0.102l0.02-0.009l-0.085-0.104c0.119,0.083-0.045-0.115,0.045-0.1
			c-0.056-0.101-0.058-0.103-0.181-0.27l-0.036,0.067c-0.191-0.195,0.08-0.066-0.043-0.249l-0.055,0.055
			c-0.084-0.329-0.377-0.385-0.45-0.62c0.094,0.096,0.143,0.014,0.124,0.025c-0.134-0.151-0.356-0.396-0.559-0.491
			c0.029-0.131,0.041-0.167-0.069-0.363c-0.114-0.108-0.144-0.112-0.225-0.102c-0.083-0.133-0.336-0.278-0.288-0.343
			c-0.068,0.024-0.094-0.102-0.19-0.117l0.008-0.037l-0.039,0.067c-0.097-0.308-0.418-0.2-0.543-0.483l0.05,0.012l-0.109-0.044
			c0.005-0.038,0.055-0.027,0.084-0.059c0.006-0.008-0.429-0.324-0.436-0.313l0.06,0.103c-0.101-0.052-0.204-0.029-0.289-0.135
			c0.242,0.014-0.149-0.096-0.134-0.19l0.113,0.034c-0.139-0.076-0.139-0.076-0.166-0.003c-0.188-0.08-0.045-0.205-0.253-0.219
			c0,0,0.118,0.064,0.117,0.067c0.011,0.06-0.099,0.061-0.179,0.023c-0.014-0.02-0.055-0.077,0.011-0.056
			c-0.157-0.044-0.356-0.184-0.433-0.187c-0.068-0.06-0.021-0.096,0.031-0.094c-0.341-0.084-0.131-0.091-0.478-0.159l0.022-0.038
			l-0.131,0.007l-0.126-0.144l0.038,0.074c-0.109-0.032-0.187-0.028-0.302-0.097l0.071-0.042c-0.312-0.078-0.316-0.235-0.64-0.222
			c-0.018-0.017,0.034-0.024,0.061-0.028c-0.301,0.026-0.18-0.165-0.487-0.117c0.021-0.017-0.002-0.05,0.013-0.065l-0.136,0.008
			l0.027-0.082l-0.13,0.099l-0.061-0.102l-0.059,0.033c-0.108-0.186-0.326-0.092-0.499-0.245l0.018,0.113
			c-0.497,0.136-1.091-0.234-1.686-0.125l0.009-0.087l-0.238,0.114c-0.134-0.062,0.074-0.078,0.032-0.121
			c-0.258,0.061-0.103,0.133-0.4,0.173c-0.158-0.05,0.049-0.066,0.119-0.101c-0.281,0.042-0.684,0.164-0.889,0.144
			c-0.003,0.012-0.013,0.029-0.001,0.033c-0.179,0.07-0.432,0.055-0.63,0.121c-0.004-0.04,0.045-0.059,0.093-0.08
			c-0.073,0.013-0.179,0.012-0.231,0.067l0.06-0.092c-0.16,0.025-0.441,0.168-0.5,0.092c0.028,0.027,0.038,0.092-0.097,0.123
			c-0.116-0.117-0.34,0.17-0.569,0.178c0.014-0.039,0.165-0.101,0.121-0.087c-0.116,0.005-0.19,0.098-0.267,0.17l0.009-0.06
			c0,0-0.459,0.244-0.452,0.256c-0.123-0.088-0.43,0.228-0.439,0.125c-0.168,0.076,0.165-0.015-0.038,0.1
			c-0.081-0.022-0.177,0.116-0.207,0.035l0.018-0.02l-0.144,0.077l0.053-0.12c-0.122,0.074-0.164,0.21-0.14,0.268
			c-0.137,0.027-0.278,0.158-0.369,0.123l0.031-0.043c-0.303,0.216-0.663,0.13-0.814,0.435c-0.024,0.003-0.035-0.015,0.003-0.042
			L55.7,2.844l0.006-0.084L55.457,3.07l-0.023-0.037c-0.209,0.149-0.487,0.442-0.722,0.671l0.021-0.048
			c-0.211,0.296-0.269,0.223-0.415,0.447C54.317,4.09,54.32,4.08,54.323,4.071l-0.158,0.177l0.004-0.067
			c-0.05,0.188-0.428,0.3-0.296,0.269c-0.028,0.106-0.093,0.274-0.067,0.33c-0.151,0.209-0.082,0.017-0.208,0.123
			c-0.115,0.149-0.076,0.216-0.256,0.4l-0.033-0.029c-0.056,0.106-0.068,0.186-0.149,0.331l0.009-0.053
			c-0.063,0.276-0.286,0.224-0.231,0.5c-0.095,0.076-0.158,0.285-0.232,0.235c-0.11,0.343-0.188,0.582-0.288,0.892
			c-0.15-0.004-0.016,0.07-0.161,0.229l0.076,0.013c-0.168,0.434-0.494,0.903-0.586,1.425l-0.078-0.002l0.057,0.12
			c-0.137,0.547-0.269,1.272-0.27,1.726c0.039,0.15,0.099,0.374,0.092,0.605l-0.012-0.024c0.074,0.404,0.091,0.828,0.132,1.268
			c-0.035-0.023-0.052,0.023-0.079-0.023c0.1,0.093,0.043,0.257,0.056,0.353l0.039-0.119c0.091,0.112,0.05,0.301,0.005,0.376
			c0,0,0.114,0.18,0.119,0.179c-0.005,0.015-0.011,0.037-0.022,0.042l0.048,0.025l-0.071,0.125c0.031,0.043,0.122,0.294,0.235,0.348
			c-0.027,0.026-0.006,0.214-0.06,0.079c0,0,0.041,0.178,0.082,0.355c0.055,0.173,0.109,0.347,0.109,0.347l-0.005-0.118
			c0.067-0.037,0.188,0.149,0.193,0.267c-0.108-0.117-0.106,0.025-0.137,0.105c0.072,0.079,0.033-0.104,0.091-0.07
			c0.093,0.098,0.199,0.333,0.2,0.404l-0.059-0.056c0.096,0.142,0.01,0.265,0.087,0.413c0.12,0.108,0.117,0.232,0.222,0.146
			c0.117,0.181-0.044,0.114-0.024,0.183c0.094,0.066,0.203,0.348,0.171,0.411c0.227,0.004,0.243,0.535,0.403,0.486l0.017,0.201
			c0.039-0.02,0.141-0.046,0.24,0.059c0.041,0.135-0.039,0.153-0.051,0.212l0.185-0.022c0.3,0.753,1.121,1.403,1.679,2.065
			c0.331,0.203,0.748,0.459,1.122,0.688l-0.054-0.008l0.357,0.269l-0.238-0.231c0.093,0.034,0.173,0.047,0.251,0.097
			c0.186,0.163,0.424,0.318,0.687,0.464c0.26,0.151,0.546,0.282,0.847,0.338c0.426-0.042,0.188,0.245,0.583,0.243
			c-0.035,0.007-0.054,0.026-0.086,0.035c0.404,0.054,0.628,0.07,1.036,0.063c-0.084,0.176,0.254,0.048,0.201,0.133l0.047-0.068
			c0.078,0.059,0.283,0.106,0.245,0.154l0.188-0.065l0.004,0.078c0.231,0.056,0.735,0.03,0.851,0.184
			c0.589-0.072,1.503-0.051,2.231-0.153c0.092-0.077,0.301-0.114,0.464-0.146c0,0.004,0.191,0.05,0.191,0.05
			c0.16-0.069,0.306-0.226,0.473-0.208c0.002,0.011-0.003,0.02-0.012,0.027c0.16-0.063,0.337-0.05,0.462-0.184
			c0.178-0.059,0.366-0.076,0.34,0.023c-0.034-0.148,0.386-0.118,0.386-0.118s0.585-0.189,1.43-0.644
			c0.849-0.442,1.915-1.234,2.807-2.292c0.898-1.049,1.584-2.371,1.89-3.587c0.302-1.217,0.306-2.281,0.104-2.858
			c-0.07-0.081-0.108-0.291-0.202-0.213c-0.02-0.16,0.116-0.233,0.043-0.265c-0.061,0.217-0.191-0.066-0.295,0.142l-0.011-0.133
			c-0.053-0.028,0.051,0.182-0.044,0.147l0.138,0.04c-0.026,0.108-0.059,0.167-0.107,0.203c0.049,0.104,0.235,0.181,0.14,0.422
			l-0.005-0.069c-0.005,0.201-0.096,0.115-0.121,0.154l0.004-0.044c0,0-0.078,0.16-0.083,0.159c0.061-0.121-0.047-0.338-0.043-0.229
			c-0.051,0.229,0.037-0.058,0.045,0.119c0.002,0.109-0.072,0.071-0.114,0.063l-0.023,0.192c-0.063-0.015,0.022-0.127-0.056-0.057
			l0.031,0.249c-0.169,0.02,0.038,0.275-0.131,0.359c-0.013-0.179-0.058,0.006-0.105-0.031c0.01,0.002-0.067,0.417-0.076,0.415
			c-0.032,0.033-0.022-0.118-0.03-0.055c-0.063,0.066,0.007,0.135-0.005,0.177c-0.053,0.024-0.077,0.306-0.179,0.265
			c-0.146,0.252,0.113,0.158-0.034,0.392c-0.073,0.013,0.056-0.203-0.048-0.113l-0.071,0.265c-0.021-0.033-0.083-0.084-0.034-0.175
			c-0.326,0.674-0.805,0.869-1.028,1.474c-0.116,0.038-0.013-0.082-0.024-0.161c-0.16,0.443-0.468,0.477-0.692,0.784l0.049,0.043
			c-0.478,0.316-0.794,0.889-1.31,1.229l0.085-0.015c-0.02,0.102-0.115,0.198-0.17,0.287c-0.033-0.015-0.038-0.153-0.15-0.015
			c0.042-0.007,0.113-0.038,0.117,0.001c-0.499,0.212-1.353,0.898-2.175,1.139c-1.021,0.521-2.271,0.661-3.373,0.696
			c0.169-0.015,0.101,0.149-0.03,0.12c-0.344-0.294-0.615,0.023-0.957-0.197c-0.66-0.002-1.162-0.347-1.786-0.349l0.014-0.077
			c-0.072-0.063-0.112-0.021-0.203-0.047l0.01-0.02c-0.2-0.094-0.477-0.13-0.574-0.227l-0.043,0.075
			c-0.124-0.052-0.033-0.091-0.178-0.104l0.022-0.037l-0.18,0.004c0.079-0.118-0.326-0.186-0.38-0.308
			c-0.157-0.067-0.483-0.17-0.668-0.363c0.008-0.095-0.251-0.279-0.383-0.437c-0.151-0.127-0.335-0.281-0.527-0.443
			c-0.182-0.175-0.354-0.381-0.515-0.572l-0.069,0.07c0,0-0.096-0.093-0.092-0.096c0.018-0.012,0.016-0.033,0.036-0.024
			c0.026-0.151-0.208-0.223-0.217-0.35c-0.032,0.106,0.044,0.082,0.087,0.144c0.027,0.116-0.109,0.091-0.159-0.057l0.02-0.011
			l-0.103-0.05c0.056-0.055,0.03-0.148,0.085-0.201c-0.258-0.339-0.527-0.526-0.703-0.942c0.096,0.003-0.159-0.28,0.014-0.265
			c-0.167-0.216-0.09,0.092-0.238,0.026c-0.03-0.069-0.104-0.125-0.059-0.16c0.048,0.018,0.056-0.092,0.095-0.042
			c0,0-0.091-0.156-0.086-0.158c0.006-0.021,0.037,0.009,0.054,0.022c-0.197-0.315-0.146-0.634-0.31-0.921
			c-0.057-0.009,0.018,0.13-0.04,0.123c-0.187-0.293,0.021-0.309-0.13-0.588l0.088,0.045c-0.071-0.084-0.155-0.111-0.124-0.284
			c0.078-0.045,0.094,0.121,0.158,0.187c-0.035-0.105-0.092-0.38-0.158-0.28c-0.048-0.129,0.021-0.19,0.035-0.265
			c-0.022,0.001-0.039,0.133-0.092,0.062c0.026-0.189-0.037-0.464-0.027-0.689c0.022,0.001,0.054-0.018,0.065,0.001
			C53.685,11.578,53.881,11.585,53.843,11.345z"/>
		<path fill="#202020" d="M60.569,2.618l-0.095,0.001c0.003,0.019,0.003,0.042-0.036,0.069L60.569,2.618z"/>
		<path fill="#202020" d="M56.541,4.375c-0.005,0.012-0.011,0.024-0.012,0.039C56.545,4.396,56.545,4.384,56.541,4.375z"/>
		<path fill="#202020" d="M55.859,5.217c0.038-0.069-0.024-0.035-0.065-0.023C55.804,5.208,55.821,5.221,55.859,5.217z"/>
		<path fill="#202020" d="M63.098,2.329c-0.018,0.006-0.029,0.016-0.029,0.035C63.093,2.351,63.1,2.34,63.098,2.329z"/>
		<path fill="#202020" d="M69.04,5.843c-0.003-0.01-0.004-0.017-0.007-0.03C69.031,5.82,69.034,5.831,69.04,5.843z"/>
		<path fill="#202020" d="M68.911,5.441C68.9,5.425,68.88,5.41,68.848,5.389C68.867,5.418,68.892,5.432,68.911,5.441z"/>
		<path fill="#202020" d="M61.376,2.32c-0.026,0.004-0.052,0.012-0.072,0.031C61.344,2.348,61.364,2.334,61.376,2.32z"/>
		<polygon fill="#202020" points="68.778,5.34 68.717,5.261 68.703,5.271 		"/>
		<path fill="#202020" d="M69.106,5.949c-0.021-0.033-0.053-0.074-0.065-0.106C69.05,5.896,69.073,5.928,69.106,5.949z"/>
		<path fill="#202020" d="M65.653,2.921l-0.011-0.003C65.556,2.918,65.607,2.925,65.653,2.921z"/>
		<polygon fill="#202020" points="68.375,5.12 68.368,5.108 68.332,5.103 		"/>
		<path fill="#202020" d="M69.323,6.314c-0.011-0.015-0.022-0.027-0.038-0.033c0.006,0.016,0.013,0.032,0.021,0.053
			C69.313,6.323,69.318,6.318,69.323,6.314z"/>
		<path fill="#202020" d="M66.901,3.757c0.041-0.013,0.063-0.025,0.073-0.039C66.945,3.702,66.918,3.704,66.901,3.757z"/>
	</g>
</g>
<g>
	<path fill="#CCCCCC" d="M83.198-1.359c-1.541,0.297-2.841,1.141-3.604,2.347c-2.317,3.651-6.522,14.951-1.832,20.165
		c5.601,6.224,18.495,0.731,20.629-2.192c3.896-5.327,2.829-15.866-3.616-19.108C90.554-2.273,85.904-1.883,83.198-1.359z"/>
	<g>
		<path fill="#202020" d="M94.687,3.692c0.01-0.004,0.021-0.01,0.034-0.022C94.703,3.675,94.693,3.683,94.687,3.692z"/>
		<path fill="#202020" d="M90.432,1.228l0.061-0.004C90.455,1.217,90.439,1.22,90.432,1.228z"/>
		<path fill="#202020" d="M96.48,5.983l-0.012-0.001c0.022,0.04,0.052,0.092,0.101,0.178L96.48,5.983z"/>
		<path fill="#202020" d="M80.46,4.071l0.046-0.052C80.485,4.042,80.468,4.054,80.46,4.071z"/>
		<path fill="#202020" d="M86.08,1.076c-0.016,0.021-0.047,0.035-0.078,0.048C86.043,1.117,86.074,1.105,86.08,1.076z"/>
		<path fill="#202020" d="M96.406,7.669c-0.001,0,0.024-0.093,0.023-0.092C96.406,7.589,96.398,7.622,96.406,7.669z"/>
		<path fill="#202020" d="M97.283,10.25l0.012-0.008C97.29,10.238,97.286,10.243,97.283,10.25z"/>
		<path fill="#202020" d="M97.344,9.136c-0.011-0.018-0.027-0.044-0.044-0.071C97.31,9.097,97.321,9.138,97.344,9.136z"/>
		<path fill="#202020" d="M97.277,9.031L97.3,9.064C97.293,9.044,97.286,9.028,97.277,9.031z"/>
		<path fill="#202020" d="M98.281,11.593c0.007-0.088-0.033-0.165-0.064-0.244L98.281,11.593z"/>
		<path fill="#202020" d="M77.92,13.344l-0.027-0.015C77.905,13.346,77.913,13.347,77.92,13.344z"/>
		<path fill="#202020" d="M97.79,11.466l0.015-0.059C97.794,11.428,97.79,11.447,97.79,11.466z"/>
		<path fill="#202020" d="M95.616,6.488c-0.086-0.035-0.11-0.205-0.156-0.174C95.51,6.378,95.533,6.498,95.616,6.488z"/>
		<path fill="#202020" d="M80.51,14.495l0.024,0.042C80.525,14.517,80.517,14.504,80.51,14.495z"/>
		<path fill="#202020" d="M97.79,11.466l-0.017,0.067l0.029-0.02C97.795,11.499,97.79,11.482,97.79,11.466z"/>
		<polygon fill="#202020" points="84.45,20.928 84.448,20.926 84.424,20.929 		"/>
		<path fill="#202020" d="M84.945,21.204c-0.039-0.008-0.076-0.016-0.118-0.023C84.884,21.207,84.918,21.21,84.945,21.204z"/>
		<path fill="#202020" d="M98.217,11.349l-0.038-0.137C98.184,11.261,98.199,11.306,98.217,11.349z"/>
		<path fill="#202020" d="M90.865,21.252l-0.051,0.021C90.836,21.268,90.853,21.261,90.865,21.252z"/>
		<path fill="#202020" d="M86.492,1.045L86.54,1.05C86.543,1.037,86.539,1.028,86.492,1.045z"/>
		<polygon fill="#202020" points="83.545,3.715 83.544,3.715 83.545,3.716 		"/>
		<path fill="#202020" d="M83.666,3.56c-0.056,0.019-0.105,0.097-0.121,0.155C83.595,3.685,83.635,3.647,83.666,3.56z"/>
		<path fill="#202020" d="M83.197,3.9l0.021-0.007L83.197,3.9z"/>
		<polygon fill="#202020" points="86.611,2.619 86.61,2.612 86.608,2.618 		"/>
		<path fill="#202020" d="M85.908,2.787c-0.015-0.007-0.034-0.011-0.055-0.012C85.868,2.783,85.887,2.788,85.908,2.787z"/>
		<polygon fill="#202020" points="81.93,5.194 81.928,5.192 81.926,5.196 		"/>
		<path fill="#202020" d="M79.98,11.345c-0.049-0.323-0.027-0.697-0.052-1.075c0.043-0.37,0.04-0.755,0.155-1.063
			c-0.076-0.164-0.027-0.369-0.001-0.581l0.151,0.023l0.014-0.177c0.068-0.051-0.019,0.134,0.08,0.036l-0.068-0.092
			c0.058,0.004,0.188-0.404,0.191-0.095c0,0,0.057-0.156,0.113-0.312C80.618,7.853,80.7,7.707,80.7,7.707
			c0.068-0.13-0.078-0.132,0.027-0.264c0.055-0.01,0.002,0.067,0.058,0.079c0.299-0.388,0.013-0.639,0.309-1.012L81.09,6.556
			c0.005-0.092,0.092-0.216,0.078-0.228c-0.166-0.04,0.02,0.115-0.13,0.187c-0.102-0.082,0.034-0.193-0.051-0.239
			c0.105-0.063,0.085-0.158,0.138-0.241c0.166-0.085,0.263-0.313,0.416-0.349c0.021-0.087-0.014-0.236,0.103-0.371
			c0.16-0.025,0.053,0.086,0.195-0.014l-0.037-0.072c0.104-0.097,0.104-0.065,0.126-0.037c0.105-0.105,0.003-0.172,0.178-0.264
			L82.08,5.051c0.082-0.114,0.134-0.142,0.28-0.267c0.026,0.035-0.032,0.084-0.083,0.113c0.153,0.012,0.1-0.155,0.15-0.185
			c-0.034-0.014-0.144,0.066-0.146-0.034c0.081-0.054,0.086-0.216,0.196-0.196l-0.031,0.126c0.113-0.178,0.014-0.151,0.214-0.273
			c-0.006,0.012,0.011,0.023,0.017,0.038c0.058-0.163,0.268-0.21,0.443-0.333l-0.021,0.041c0.055-0.073,0.055-0.157,0.096-0.182
			c-0.124,0.039-0.11,0.001-0.161-0.052c0.201-0.001,0.128-0.267,0.405-0.348c0.019,0.04-0.01,0.118-0.099,0.118
			c-0.009,0.158,0.036,0.247-0.062,0.391c0.063-0.087,0.159-0.156,0.166-0.1l-0.038-0.116c0.054-0.031,0.096-0.055,0.136-0.078
			c-0.017-0.078-0.173-0.039-0.075-0.156c0.12-0.118,0.138,0.059,0.132,0c0.167-0.157,0.015-0.158,0.22-0.237
			c-0.014,0.02-0.039,0.06-0.062,0.06c0.151-0.046,0.328-0.198,0.433-0.091c-0.006,0.039,0.01,0.079-0.048,0.092l-0.008-0.02
			c-0.104,0.164,0.113-0.085,0.125,0.052c-0.046-0.063,0.155-0.14,0.248-0.169l-0.065-0.066c0.184-0.379,0.058,0.166,0.327-0.002
			c0.163-0.128-0.081,0.003,0.01-0.098c0.135-0.033,0.21,0.023,0.382-0.08c0.064,0.014,0.185,0.02,0.225,0.109
			c0.098-0.083,0.35-0.079,0.39-0.179c-0.222-0.032-0.162,0.151-0.425,0.111l0.032-0.113c0.154-0.061,0.349-0.156,0.47-0.15
			c-0.027-0.012-0.044-0.033-0.035-0.057c0.222-0.094,0.268-0.205,0.502-0.235c0.048,0.078-0.088,0.098-0.183,0.13
			c0.162,0.037,0.15-0.048,0.387-0.051c0.027,0.075-0.155,0.015-0.165,0.101c-0.002-0.008,0.247-0.066,0.247-0.066l0.003,0.015
			c0.015-0.131,0.194-0.018,0.343-0.079c0.365-0.063,0.407-0.221,0.612-0.336c0.059,0.032,0.077,0.063,0.056,0.097
			c-0.097-0.053-0.078-0.009-0.107,0.026c0.128-0.02,0.284,0.112,0.216,0.167c0.197-0.047-0.075-0.064,0.046-0.11l0.274-0.006
			c-0.032-0.064-0.132-0.073,0.013-0.131c0.121-0.029,0.18-0.001,0.339,0.008c-0.023,0.031,0.047,0.103-0.071,0.092
			c0.076,0.028,0.193,0.038,0.242-0.023c-0.171-0.068,0.288-0.042,0.166-0.15l0.17,0.068c-0.04-0.003-0.048,0.04-0.105,0.024
			c0.042,0.102,0.145-0.021,0.208-0.028c0.06,0.018,0.216,0.059,0.225,0.097c0.058-0.019,0.188,0.023,0.205,0.077
			c0.083-0.007,0.016-0.063,0.044-0.091l0.275,0.05c0.004,0.057-0.001,0.21-0.046,0.225c0.112-0.035,0.066-0.155,0.222-0.125
			c-0.107,0.082,0.184,0.133,0.031,0.224c0.069,0.1,0.312,0.159,0.452,0.166c0.106-0.06-0.133-0.083-0.103-0.166
			c0.389,0.067,0.487-0.161,0.753-0.014l-0.064-0.05c0.19,0.018,0.167,0.021,0.296-0.01c-0.087,0.088,0.1,0.333,0.379,0.435
			c0.046-0.039-0.111-0.168-0.033-0.226l0.189,0.074c0.01,0.014-0.018,0.021-0.046,0.022c0.181,0.045,0.243,0.273,0.346,0.183
			l0.094,0.22l-0.034-0.091c0.046-0.035,0.239,0.034,0.282,0.044c0.207,0.057,0.25,0.137,0.311,0.254
			c-0.007-0.056-0.033-0.19,0.116-0.119c-0.093,0.147,0.261,0.234,0.207,0.307c0.057,0.035,0.116,0.151,0.165,0.096l-0.071,0.082
			c0.099-0.115,0.288,0.036,0.453,0.125c-0.161,0.138,0.174,0.107,0.117,0.305c0.115-0.084,0.275,0.177,0.379,0.11
			c0.11,0.091,0.012,0.177,0.007,0.234l0.085,0.006c0.011,0.092,0.194,0.279,0.26,0.432l0.188,0.024l-0.006,0.078
			c0.039-0.004,0.135,0.074,0.118-0.013l0.048,0.064c0.105-0.083,0.104,0.057,0.254,0.141c0.006,0.043-0.025,0.056-0.06,0.04
			c0.047,0.065-0.027,0.081-0.037,0.144c-0.008-0.068,0.361,0.081,0.279-0.131c0.034-0.047,0.143,0.032,0.172,0.111l-0.067,0.112
			l0.159,0c0.09,0.091,0.06,0.179,0.108,0.268c-0.069-0.08-0.326-0.047-0.167,0.159C95.4,6.004,95.304,5.99,95.242,5.949
			c0.028,0.045,0.034,0.073-0.057,0.038c0.15,0.138,0.1,0.01,0.232,0.161c-0.096,0.052-0.087,0.114-0.033,0.283V6.276
			c0.014-0.002,0.026,0,0.037,0.005c-0.016-0.049-0.009-0.07,0.019-0.102c0.021,0.032,0.233,0.125,0.196,0.189
			c0.036-0.266,0.296,0.236,0.315,0.072c0.039,0.004,0.12,0.125,0.08,0.165c-0.159-0.105-0.04,0.171-0.12,0.184
			c0.06,0.039,0-0.153,0.08-0.101c0.061,0.083,0.04,0.179,0.032,0.247l-0.036-0.028l0.023,0.162c0.06-0.001,0.017-0.178,0.104-0.062
			c-0.004,0.044,0.084,0.162,0.043,0.177c-0.097-0.028-0.163,0.06-0.231-0.04c0.049,0.085,0.198,0.366,0.234,0.208l0.049,0.109
			c0.009-0.086-0.01-0.314,0.11-0.101L96.3,7.368l0.148,0.12L96.43,7.578c0.023-0.013,0.062,0,0.08,0.062
			c-0.024,0.028-0.016,0.089-0.058,0.101c0.067,0.169,0.113,0.136,0.151,0.147c0.042,0.094,0.034,0.138-0.042,0.115
			c0.033,0.136,0.132,0.361,0.108,0.467c0.093,0.167,0.013-0.044,0.109,0.041c-0.147,0.212,0.094,0.612,0.171,0.91
			c0.15-0.113,0.031,0.079,0.188,0.108c-0.061-0.056-0.082,0.31-0.168,0.052l0.041,0.159c-0.073,0.123-0.107-0.254-0.205-0.069
			c0.031,0.175,0.229,0.268,0.201,0.488c-0.122-0.059,0.057,0.16-0.079,0.119c-0.042-0.04-0.037-0.099-0.057-0.157l-0.018,0.039
			c-0.002,0.394,0.146,0.1,0.24,0.302c0.026,0.244-0.083,0.197-0.138,0.214c-0.021,0.039,0.004,0.158,0.037,0.221
			c-0.079-0.144,0.06-0.275,0.137-0.211c-0.128,0.112,0.008,0.361,0.064,0.43c0.123-0.355-0.006-0.242,0.129-0.583
			c-0.045-0.044-0.164-0.027-0.124-0.23c0.065,0.12,0.066-0.015,0.084-0.052c-0.064,0.045-0.037-0.136-0.08-0.192
			c0.047-0.062,0.177,0.102,0.173-0.105l-0.167-0.018c0.013-0.082,0.124,0.018,0.06-0.145c0.098,0.08,0.126-0.047,0.187,0.182
			c0.095-0.296-0.139-0.416-0.229-0.615c0.014,0.02,0.035,0.018,0.049,0.038c-0.051-0.038-0.055-0.121-0.081-0.18
			c0.001-0.146,0.099,0.094,0.13,0.05c0.008-0.001-0.058-0.225-0.058-0.225c0.004-0.006,0.006-0.007,0.01-0.008
			c-0.037-0.054-0.065-0.107-0.031-0.137c0.067,0.055,0.127,0.069,0.18,0.106l-0.171-0.213c0.059,0.014,0.039-0.22,0.12-0.06
			l-0.112-0.35l0.097-0.062c-0.041-0.08-0.062-0.076-0.048,0.031c-0.006-0.134-0.368-0.463-0.139-0.474
			c-0.192-0.237-0.167-0.359-0.376-0.648c0.209,0.202-0.018-0.332,0.148-0.093c-0.029-0.172-0.151-0.154-0.225-0.264
			c-0.013-0.132,0.106-0.132,0.202-0.026L96.808,6.72l0.021-0.007l-0.115-0.096C96.7,6.458,96.802,6.535,96.74,6.395l-0.102,0.019
			l-0.004-0.116c-0.019,0.055-0.082-0.012-0.146-0.102l0.02-0.009l-0.085-0.104c0.119,0.083-0.045-0.115,0.045-0.1
			c-0.056-0.101-0.058-0.103-0.181-0.27l-0.036,0.067c-0.191-0.195,0.08-0.066-0.043-0.249l-0.055,0.055
			c-0.084-0.329-0.377-0.385-0.45-0.62c0.094,0.096,0.143,0.014,0.124,0.025c-0.134-0.151-0.356-0.396-0.559-0.491
			c0.029-0.131,0.041-0.167-0.069-0.363c-0.114-0.108-0.144-0.112-0.225-0.102c-0.083-0.133-0.336-0.278-0.288-0.343
			c-0.068,0.024-0.094-0.102-0.19-0.117l0.008-0.037l-0.039,0.067c-0.097-0.308-0.418-0.2-0.543-0.483l0.05,0.012l-0.109-0.044
			c0.005-0.038,0.055-0.027,0.084-0.059c0.006-0.008-0.429-0.324-0.436-0.313l0.06,0.103c-0.101-0.052-0.204-0.029-0.289-0.135
			c0.242,0.014-0.149-0.096-0.134-0.19l0.113,0.034c-0.139-0.076-0.139-0.076-0.166-0.003c-0.188-0.08-0.045-0.205-0.253-0.219
			c0,0,0.118,0.064,0.117,0.067c0.011,0.06-0.099,0.061-0.179,0.023c-0.014-0.02-0.055-0.077,0.011-0.056
			c-0.157-0.044-0.356-0.184-0.433-0.187c-0.068-0.06-0.021-0.096,0.031-0.094c-0.341-0.084-0.131-0.091-0.478-0.159l0.022-0.038
			l-0.131,0.007l-0.126-0.144l0.038,0.074c-0.109-0.032-0.187-0.028-0.302-0.097l0.071-0.042c-0.312-0.078-0.316-0.235-0.64-0.222
			c-0.018-0.017,0.034-0.024,0.061-0.028c-0.301,0.026-0.18-0.165-0.487-0.117c0.021-0.017-0.002-0.05,0.013-0.065l-0.136,0.008
			l0.027-0.082l-0.13,0.099l-0.061-0.102l-0.059,0.033c-0.108-0.186-0.326-0.092-0.499-0.245l0.018,0.113
			c-0.497,0.136-1.091-0.234-1.686-0.125l0.009-0.087l-0.238,0.114c-0.134-0.062,0.074-0.078,0.032-0.121
			c-0.258,0.061-0.103,0.133-0.4,0.173c-0.158-0.05,0.049-0.066,0.119-0.101C87.148,0.949,86.745,1.07,86.54,1.05
			c-0.003,0.012-0.013,0.029-0.001,0.033c-0.179,0.07-0.432,0.055-0.63,0.121c-0.004-0.04,0.045-0.059,0.093-0.08
			c-0.073,0.013-0.179,0.012-0.231,0.067l0.06-0.092c-0.16,0.025-0.441,0.168-0.5,0.092c0.028,0.027,0.038,0.092-0.097,0.123
			c-0.116-0.117-0.34,0.17-0.569,0.178c0.014-0.039,0.165-0.101,0.121-0.087c-0.116,0.005-0.19,0.098-0.267,0.17l0.009-0.06
			c0,0-0.459,0.244-0.452,0.256c-0.123-0.088-0.43,0.228-0.439,0.125c-0.168,0.076,0.165-0.015-0.038,0.1
			c-0.081-0.022-0.177,0.116-0.207,0.035l0.018-0.02l-0.144,0.077l0.053-0.12c-0.122,0.074-0.164,0.21-0.14,0.268
			c-0.137,0.027-0.278,0.158-0.369,0.123l0.031-0.043c-0.303,0.216-0.663,0.13-0.814,0.435c-0.024,0.003-0.035-0.015,0.003-0.042
			l-0.191,0.136l0.006-0.084L81.594,3.07l-0.023-0.037c-0.209,0.149-0.487,0.442-0.722,0.671l0.021-0.048
			c-0.211,0.296-0.269,0.223-0.415,0.447C80.453,4.09,80.456,4.08,80.46,4.071l-0.158,0.177l0.004-0.067
			c-0.05,0.188-0.428,0.3-0.296,0.269c-0.028,0.106-0.093,0.274-0.067,0.33c-0.151,0.209-0.082,0.017-0.208,0.123
			c-0.115,0.149-0.076,0.216-0.256,0.4l-0.033-0.029c-0.056,0.106-0.068,0.186-0.149,0.331l0.009-0.053
			c-0.063,0.276-0.286,0.224-0.231,0.5c-0.095,0.076-0.158,0.285-0.232,0.235c-0.11,0.343-0.188,0.582-0.288,0.892
			c-0.15-0.004-0.016,0.07-0.161,0.229l0.076,0.013c-0.168,0.434-0.494,0.903-0.586,1.425l-0.078-0.002l0.057,0.12
			c-0.137,0.547-0.269,1.272-0.27,1.726c0.039,0.15,0.099,0.374,0.092,0.605l-0.012-0.024c0.074,0.404,0.091,0.828,0.132,1.268
			c-0.035-0.023-0.052,0.023-0.079-0.023c0.1,0.093,0.043,0.257,0.056,0.353l0.039-0.119c0.091,0.112,0.05,0.301,0.005,0.376
			c0,0,0.114,0.18,0.119,0.179c-0.005,0.015-0.011,0.037-0.022,0.042l0.048,0.025l-0.071,0.125c0.031,0.043,0.122,0.294,0.235,0.348
			c-0.027,0.026-0.006,0.214-0.06,0.079c0,0,0.041,0.178,0.082,0.355c0.055,0.173,0.109,0.347,0.109,0.347l-0.005-0.118
			c0.067-0.037,0.188,0.149,0.193,0.267c-0.108-0.117-0.106,0.025-0.137,0.105c0.072,0.079,0.033-0.104,0.091-0.07
			c0.093,0.098,0.199,0.333,0.2,0.404l-0.059-0.056c0.096,0.142,0.01,0.265,0.087,0.413c0.12,0.108,0.117,0.232,0.222,0.146
			c0.117,0.181-0.044,0.114-0.024,0.183c0.094,0.066,0.203,0.348,0.171,0.411c0.227,0.004,0.243,0.535,0.403,0.486l0.017,0.201
			c0.039-0.02,0.141-0.046,0.24,0.059c0.041,0.135-0.039,0.153-0.051,0.212l0.185-0.022c0.3,0.753,1.121,1.403,1.679,2.065
			c0.331,0.203,0.748,0.459,1.122,0.688l-0.054-0.008l0.357,0.269l-0.238-0.231c0.093,0.034,0.173,0.047,0.251,0.097
			c0.186,0.163,0.424,0.318,0.687,0.464c0.26,0.151,0.546,0.282,0.847,0.338c0.426-0.042,0.188,0.245,0.583,0.243
			c-0.035,0.007-0.054,0.026-0.086,0.035c0.404,0.054,0.628,0.07,1.036,0.063c-0.084,0.176,0.254,0.048,0.201,0.133l0.047-0.068
			c0.078,0.059,0.283,0.106,0.245,0.154l0.188-0.065l0.004,0.078c0.231,0.056,0.735,0.03,0.851,0.184
			c0.589-0.072,1.503-0.051,2.231-0.153c0.092-0.077,0.301-0.114,0.464-0.146c0,0.004,0.191,0.05,0.191,0.05
			c0.16-0.069,0.306-0.226,0.473-0.208c0.002,0.011-0.003,0.02-0.012,0.027c0.16-0.063,0.337-0.05,0.462-0.184
			c0.178-0.059,0.366-0.076,0.34,0.023c-0.034-0.148,0.386-0.118,0.386-0.118s0.585-0.189,1.43-0.644
			c0.849-0.442,1.915-1.234,2.807-2.292c0.898-1.049,1.584-2.371,1.89-3.587c0.302-1.217,0.306-2.281,0.104-2.858
			c-0.07-0.081-0.108-0.291-0.202-0.213c-0.02-0.16,0.116-0.233,0.043-0.265c-0.061,0.217-0.191-0.066-0.295,0.142l-0.011-0.133
			c-0.053-0.028,0.051,0.182-0.044,0.147l0.138,0.04c-0.026,0.108-0.059,0.167-0.107,0.203c0.049,0.104,0.235,0.181,0.14,0.422
			l-0.005-0.069c-0.005,0.201-0.096,0.115-0.121,0.154l0.004-0.044c0,0-0.078,0.16-0.083,0.159c0.061-0.121-0.047-0.338-0.043-0.229
			c-0.051,0.229,0.037-0.058,0.045,0.119c0.002,0.109-0.072,0.071-0.114,0.063l-0.023,0.192c-0.063-0.015,0.022-0.127-0.056-0.057
			l0.031,0.249c-0.169,0.02,0.038,0.275-0.131,0.359c-0.013-0.179-0.058,0.006-0.105-0.031c0.01,0.002-0.067,0.417-0.076,0.415
			c-0.032,0.033-0.022-0.118-0.03-0.055c-0.063,0.066,0.007,0.135-0.005,0.177c-0.053,0.024-0.077,0.306-0.179,0.265
			c-0.146,0.252,0.113,0.158-0.034,0.392c-0.073,0.013,0.056-0.203-0.048-0.113l-0.071,0.265c-0.021-0.033-0.083-0.084-0.034-0.175
			c-0.326,0.674-0.805,0.869-1.028,1.474c-0.116,0.038-0.013-0.082-0.024-0.161c-0.16,0.443-0.468,0.477-0.692,0.784l0.049,0.043
			c-0.478,0.316-0.794,0.889-1.31,1.229l0.085-0.015c-0.02,0.102-0.115,0.198-0.17,0.287c-0.033-0.015-0.038-0.153-0.15-0.015
			c0.042-0.007,0.113-0.038,0.117,0.001c-0.499,0.212-1.353,0.898-2.175,1.139c-1.021,0.521-2.271,0.661-3.373,0.696
			c0.169-0.015,0.101,0.149-0.03,0.12c-0.344-0.294-0.615,0.023-0.957-0.197c-0.66-0.002-1.162-0.347-1.786-0.349l0.014-0.077
			c-0.072-0.063-0.112-0.021-0.203-0.047l0.01-0.02c-0.2-0.094-0.477-0.13-0.574-0.227l-0.043,0.075
			c-0.124-0.052-0.033-0.091-0.178-0.104l0.022-0.037l-0.18,0.004c0.079-0.118-0.326-0.186-0.38-0.308
			c-0.157-0.067-0.483-0.17-0.668-0.363c0.008-0.095-0.251-0.279-0.383-0.437c-0.151-0.127-0.335-0.281-0.527-0.443
			c-0.182-0.175-0.354-0.381-0.515-0.572l-0.069,0.07c0,0-0.096-0.093-0.092-0.096c0.018-0.012,0.016-0.033,0.036-0.024
			c0.026-0.151-0.208-0.223-0.217-0.35c-0.032,0.106,0.044,0.082,0.087,0.144c0.027,0.116-0.109,0.091-0.159-0.057l0.02-0.011
			l-0.103-0.05c0.056-0.055,0.03-0.148,0.085-0.201c-0.258-0.339-0.527-0.526-0.703-0.942c0.096,0.003-0.159-0.28,0.014-0.265
			c-0.167-0.216-0.09,0.092-0.238,0.026c-0.03-0.069-0.104-0.125-0.059-0.16c0.048,0.018,0.056-0.092,0.095-0.042
			c0,0-0.091-0.156-0.086-0.158c0.006-0.021,0.037,0.009,0.054,0.022c-0.197-0.315-0.146-0.634-0.31-0.921
			c-0.057-0.009,0.018,0.13-0.04,0.123c-0.187-0.293,0.021-0.309-0.13-0.588l0.088,0.045c-0.071-0.084-0.155-0.111-0.124-0.284
			c0.078-0.045,0.094,0.121,0.158,0.187c-0.035-0.105-0.092-0.38-0.158-0.28c-0.048-0.129,0.021-0.19,0.035-0.265
			c-0.022,0.001-0.039,0.133-0.092,0.062c0.026-0.189-0.037-0.464-0.027-0.689c0.022,0.001,0.054-0.018,0.065,0.001
			C79.822,11.578,80.018,11.585,79.98,11.345z"/>
		<path fill="#202020" d="M86.705,2.618l-0.095,0.001c0.003,0.019,0.003,0.042-0.036,0.069L86.705,2.618z"/>
		<path fill="#202020" d="M82.678,4.375c-0.005,0.012-0.011,0.024-0.012,0.039C82.682,4.396,82.682,4.384,82.678,4.375z"/>
		<path fill="#202020" d="M81.995,5.217c0.038-0.069-0.024-0.035-0.065-0.023C81.941,5.208,81.957,5.221,81.995,5.217z"/>
		<path fill="#202020" d="M89.235,2.329c-0.018,0.006-0.029,0.016-0.029,0.035C89.23,2.351,89.237,2.34,89.235,2.329z"/>
		<path fill="#202020" d="M95.177,5.843c-0.003-0.01-0.004-0.017-0.007-0.03C95.168,5.82,95.171,5.831,95.177,5.843z"/>
		<path fill="#202020" d="M95.048,5.441c-0.012-0.016-0.031-0.032-0.063-0.052C95.004,5.418,95.029,5.432,95.048,5.441z"/>
		<path fill="#202020" d="M87.513,2.32c-0.026,0.004-0.052,0.012-0.072,0.031C87.481,2.348,87.5,2.334,87.513,2.32z"/>
		<polygon fill="#202020" points="94.914,5.34 94.854,5.261 94.84,5.271 		"/>
		<path fill="#202020" d="M95.242,5.949c-0.021-0.033-0.053-0.074-0.065-0.106C95.187,5.896,95.209,5.928,95.242,5.949z"/>
		<path fill="#202020" d="M91.789,2.921l-0.011-0.003C91.693,2.918,91.743,2.925,91.789,2.921z"/>
		<polygon fill="#202020" points="94.512,5.12 94.505,5.108 94.469,5.103 		"/>
		<path fill="#202020" d="M95.46,6.314c-0.011-0.015-0.022-0.027-0.038-0.033c0.006,0.016,0.013,0.032,0.021,0.053
			C95.449,6.323,95.454,6.318,95.46,6.314z"/>
		<path fill="#202020" d="M93.037,3.757c0.041-0.013,0.063-0.025,0.073-0.039C93.081,3.702,93.055,3.704,93.037,3.757z"/>
	</g>
</g>
<g>
	<path fill="#202020" d="M47.868,12.387c0.012,0.012,0.023,0.021,0.044,0.027C47.898,12.393,47.882,12.387,47.868,12.387z"/>
	<path fill="#202020" d="M45.699,3.113l0.082,0.083C45.738,3.136,45.714,3.116,45.699,3.113z"/>
	<path fill="#202020" d="M45.889,17.744c0.002-0.01,0-0.012,0-0.018c-0.052,0.072-0.122,0.17-0.236,0.33L45.889,17.744z"/>
	<path fill="#202020" d="M26.172-1.819l0.127-0.001C26.241-1.821,26.205-1.826,26.172-1.819z"/>
	<path fill="#202020" d="M38.336-1.478c-0.044,0.012-0.113,0.007-0.182,0.002C38.24-1.458,38.306-1.451,38.336-1.478z"/>
	<path fill="#202020" d="M43.242,19.389l0.156-0.061C43.375,19.311,43.315,19.326,43.242,19.389z"/>
	<path fill="#202020" d="M38.544,22.076c0.005,0.004,0.007,0.008,0.016,0.014C38.568,22.082,38.557,22.078,38.544,22.076z"/>
	<path fill="#202020" d="M40.735,21.678c0.039-0.023,0.088-0.055,0.137-0.086C40.809,21.619,40.73,21.65,40.735,21.678z"/>
	<path fill="#202020" d="M40.933,21.545c-0.019,0.016-0.04,0.033-0.062,0.047C40.911,21.576,40.939,21.553,40.933,21.545z"/>
	<path fill="#202020" d="M35.893,23.381c0.168,0.004,0.311-0.047,0.46-0.088L35.893,23.381z"/>
	<path fill="#202020" d="M7.408-0.888l0.026-0.04C7.404-0.905,7.402-0.895,7.408-0.888z"/>
	<path fill="#202020" d="M36.1,22.807l0.118,0.014C36.177,22.811,36.137,22.807,36.1,22.807z"/>
	<path fill="#202020" d="M44.9,17.102c0.026-0.16,0.239-0.4,0.185-0.426C45.013,16.82,44.865,16.998,44.9,17.102z"/>
	<path fill="#202020" d="M5.71,3.245l-0.065,0.07C5.678,3.283,5.697,3.262,5.71,3.245z"/>
	<path fill="#202020" d="M36.1,22.807l-0.134-0.016c0.01,0.012,0.025,0.021,0.039,0.033C36.037,22.814,36.069,22.809,36.1,22.807z"
		/>
	<path fill="#202020" d="M1.295,16.629l-0.002-0.006c-0.01-0.012-0.017-0.02-0.027-0.033L1.295,16.629z"/>
	<path fill="#202020" d="M1.696,17.65c-0.044-0.064-0.086-0.127-0.134-0.195C1.616,17.566,1.657,17.619,1.696,17.65z"/>
	<path fill="#202020" d="M36.353,23.293l0.261-0.053C36.52,23.248,36.435,23.27,36.353,23.293z"/>
	<path fill="#202020" d="M11.611,23.768l-0.114,0.002C11.545,23.773,11.582,23.771,11.611,23.768z"/>
	<path fill="#202020" d="M39.163-1.298c0.027,0.012,0.061,0.026,0.09,0.04C39.267-1.27,39.263-1.283,39.163-1.298z"/>
	<polygon fill="#202020" points="31.41,0.16 31.408,0.16 31.408,0.162 	"/>
	<path fill="#202020" d="M31.815,0.08c-0.126-0.014-0.307,0.033-0.404,0.081C31.538,0.16,31.658,0.146,31.815,0.08z"/>
	<path fill="#202020" d="M30.544,0.126c0.016,0.003,0.028,0.005,0.048,0.008C30.574,0.13,30.56,0.127,30.544,0.126z"/>
	<polygon fill="#202020" points="38.466,0.426 38.468,0.419 38.463,0.424 	"/>
	<path fill="#202020" d="M37.031,0.28c-0.024-0.014-0.061-0.026-0.098-0.035C36.956,0.259,36.989,0.271,37.031,0.28z"/>
	<polygon fill="#202020" points="26.54,0.31 26.542,0.307 26.533,0.308 	"/>
	<path fill="#202020" d="M11.466,0.815c0.162-0.015,0.332-0.03,0.504-0.046c0.203-0.008,0.41-0.015,0.621-0.023
		c0.424-0.017,0.86-0.035,1.295-0.052c0.871-0.033,1.742-0.056,2.496-0.037c0.329-0.134,0.807-0.138,1.288-0.168l0.051,0.177
		l0.4-0.056c0.164,0.053-0.308,0.033-0.019,0.1l0.151-0.109c0.031,0.063,1.03,0.042,0.356,0.168l1.559,0.001
		c0.346,0.005,0.201-0.148,0.583-0.104c0.076,0.052-0.138,0.036-0.106,0.099c1.143,0.132,1.322-0.343,2.388-0.262l-0.091,0.023
		c0.181-0.047,0.526-0.041,0.531-0.066c-0.138-0.179-0.191,0.097-0.517-0.009c0.028-0.15,0.406-0.081,0.384-0.195
		c0.25,0.054,0.397-0.031,0.614-0.04c0.371,0.094,0.904,0.027,1.183,0.145c0.183-0.047,0.385-0.195,0.775-0.201
		c0.279,0.117-0.065,0.112,0.315,0.157l0.061-0.088c0.313,0.014,0.264,0.038,0.252,0.079c0.334,0.004,0.279-0.12,0.697-0.063
		l-0.234,0.084c0.311-0.033,0.437-0.018,0.867-0.011c-0.008,0.05-0.182,0.047-0.309,0.032c0.235,0.129,0.401-0.056,0.528-0.042
		c-0.036-0.038-0.335-0.055-0.189-0.141c0.213,0.016,0.456-0.118,0.608-0.015l-0.233,0.083c0.447-0.067,0.238-0.109,0.751-0.075
		c-0.027,0.007-0.014,0.028-0.025,0.046c0.325-0.111,0.749-0.01,1.229-0.002L30.14,0.228c0.194-0.029,0.3-0.107,0.404-0.102
		c-0.273-0.05-0.199-0.075-0.224-0.159c0.362,0.144,0.552-0.167,1.143-0.082c-0.011,0.05-0.152,0.11-0.314,0.058
		c-0.202,0.147-0.227,0.273-0.586,0.342c0.224-0.034,0.487-0.055,0.431,0.007l0.07-0.137c0.136,0.002,0.242,0.003,0.345,0.005
		c0.058-0.087-0.273-0.142,0.04-0.199c0.354-0.044,0.188,0.141,0.243,0.079c0.487-0.055,0.202-0.147,0.671-0.102
		c-0.047,0.012-0.138,0.036-0.179,0.022c0.335,0.055,0.824-0.025,0.925,0.141c-0.052,0.037-0.06,0.086-0.187,0.072l0.004-0.025
		c-0.369,0.12,0.309-0.032,0.193,0.117c-0.025-0.089,0.446-0.069,0.659-0.052L33.71,0.111c0.71-0.303-0.036,0.201,0.663,0.161
		c0.446-0.068-0.169-0.028,0.104-0.099c0.301,0.018,0.413,0.108,0.853,0.064c0.124,0.04,0.372,0.094,0.393,0.208
		c0.269-0.045,0.813,0.051,0.964-0.059c-0.456-0.096-0.455,0.119-0.989-0.029l0.152-0.11c0.361,0.01,0.855-0.058,1.083-0.001
		c-0.046-0.024-0.067-0.054-0.038-0.076c0.479-0.003,0.632-0.14,1.098-0.037c0.045,0.112-0.221,0.038-0.423,0.048
		c0.292,0.089,0.312,0.04,0.769,0.144c0.007,0.091-0.309-0.057-0.374,0.02l0.507,0.057c-0.003,0.005-0.002,0.012-0.003,0.018
		c0.107-0.143,0.384,0.08,0.691,0.133c0.717,0.184,0.876,0.098,1.328,0.131c0.089,0.079,0.104,0.125,0.042,0.141
		c-0.145-0.129-0.138-0.07-0.213-0.059c0.252,0.072,0.443,0.358,0.292,0.348c0.369,0.149-0.093-0.138,0.145-0.064l0.481,0.266
		c-0.016-0.096-0.185-0.202,0.103-0.118c0.233,0.089,0.312,0.185,0.577,0.361c-0.06,0.005,0.017,0.15-0.178,0.015
		c0.11,0.108,0.306,0.242,0.427,0.234c-0.237-0.262,0.504,0.284,0.367,0.042l0.225,0.276c-0.06-0.052-0.1-0.019-0.182-0.105
		c0.002,0.151,0.242,0.156,0.346,0.226c0.087,0.089,0.316,0.312,0.297,0.368c0.101,0.055,0.274,0.264,0.265,0.339
		c0.134,0.1,0.065-0.042,0.129-0.034c0,0,0.097,0.1,0.194,0.201c0.089,0.108,0.178,0.217,0.178,0.217
		c-0.033,0.064-0.145,0.212-0.216,0.165c0.18,0.122,0.197-0.063,0.394,0.185c-0.214-0.062,0.188,0.378-0.099,0.266
		c0.055,0.18,0.321,0.605,0.512,0.813c0.184,0.09-0.121-0.278-0.024-0.32c0.488,0.624,0.714,0.564,0.974,1.1l-0.05-0.148
		c0.236,0.299,0.195,0.272,0.366,0.436c-0.166-0.037-0.128,0.514,0.099,1.064c0.077,0.028,0.009-0.361,0.136-0.302l0.146,0.379
		c0,0.031-0.033-0.005-0.067-0.049c0.158,0.333,0.058,0.684,0.229,0.746l-0.098,0.4l0.045-0.159
		c0.072,0.034,0.182,0.424,0.226,0.501c0.177,0.389,0.112,0.557,0.071,0.789c0.042-0.077,0.136-0.274,0.201,0.048
		c-0.209,0.024,0.024,0.689-0.101,0.69c0.007,0.131-0.047,0.367,0.039,0.377l-0.13-0.015c0.171,0.021,0.217,0.501,0.223,0.871
		c-0.241-0.089,0,0.407-0.23,0.555c0.178,0.08,0.019,0.65,0.139,0.73c-0.031,0.283-0.181,0.232-0.243,0.295l0.045,0.139
		c-0.082,0.133-0.216,0.641-0.342,0.93l0.077,0.316l-0.091,0.09c0.021,0.053-0.036,0.289,0.063,0.16l-0.058,0.148
		c0.148,0.059-0.028,0.223-0.065,0.549c-0.048,0.061-0.076,0.029-0.075-0.043c-0.052,0.15-0.109,0.059-0.186,0.123
		c0.092-0.09,0.041,0.625,0.282,0.256c0.074-0.006,0.016,0.246-0.076,0.383l-0.172,0.033l0.063,0.234
		c-0.078,0.24-0.209,0.297-0.325,0.465c0.094-0.188-0.028-0.514-0.279-0.059c0.123-0.244,0.105-0.398,0.13-0.541
		c-0.048,0.096-0.082,0.139-0.07-0.039c-0.121,0.385,0.03,0.162-0.143,0.52c-0.105-0.076-0.197,0.004-0.4,0.281l0.209-0.18
		c0.008,0.018,0.008,0.037,0.006,0.059c0.061-0.08,0.092-0.096,0.146-0.092c-0.038,0.068-0.085,0.482-0.187,0.504
		c0.392-0.248-0.243,0.682-0.009,0.52c0.004,0.059-0.154,0.303-0.224,0.291c0.113-0.336-0.266,0.133-0.308,0.035
		c-0.042,0.125,0.229-0.168,0.173,0.002c-0.104,0.176-0.264,0.244-0.369,0.305l0.034-0.078l-0.244,0.205
		c0.019,0.078,0.28-0.168,0.122,0.074c-0.07,0.041-0.229,0.285-0.262,0.246c0.02-0.16-0.135-0.158,0.002-0.355
		c-0.11,0.166-0.529,0.643-0.266,0.531l-0.175,0.166c0.146-0.068,0.526-0.309,0.189,0.049l-0.015-0.02L43.55,19.27l-0.151,0.059
		c0.025,0.02,0.008,0.078-0.084,0.168c-0.05-0.004-0.146,0.068-0.175,0.023c-0.279,0.236-0.215,0.266-0.227,0.322
		c-0.155,0.139-0.231,0.168-0.206,0.051C42.49,20.07,42.09,20.354,41.89,20.4c-0.279,0.256,0.081-0.02-0.054,0.172
		c-0.192,0.008-0.471,0.141-0.773,0.303c-0.292,0.184-0.628,0.365-0.911,0.486c0.23,0.115-0.146,0.082-0.189,0.287
		c0.106-0.092-0.606,0.053-0.113-0.172c0.002,0.01-0.308,0.117-0.308,0.117c-0.243-0.035,0.489-0.23,0.121-0.266
		c-0.34,0.096-0.509,0.377-0.947,0.408c0.113-0.156-0.318,0.098-0.241-0.066c0.076-0.063,0.196-0.063,0.311-0.1l-0.08-0.01
		c-0.781,0.088-0.191,0.193-0.59,0.354c-0.483,0.104-0.397-0.063-0.43-0.113c-0.078-0.023-0.319,0.012-0.444,0.053
		c0.287-0.098,0.556,0.057,0.427,0.148c-0.229-0.143-0.729,0.027-0.867,0.096c0.719,0.117,0.489-0.004,1.18,0.104
		c0.087-0.064,0.051-0.197,0.456-0.207c-0.237,0.109,0.03,0.072,0.108,0.082c-0.094-0.068,0.271-0.068,0.382-0.139
		c0.125,0.031-0.192,0.246,0.217,0.164l0.025-0.203c0.163-0.016-0.028,0.152,0.291,0.016c-0.152,0.145,0.101,0.129-0.349,0.287
		c0.593,0,0.822-0.307,1.187-0.545c-0.035,0.027-0.031,0.053-0.067,0.08c0.068-0.08,0.225-0.141,0.34-0.197
		c0.285-0.068-0.176,0.162-0.087,0.182l0.434-0.182c0.01,0,0.014,0.002,0.017,0.006c0.099-0.082,0.193-0.15,0.253-0.129
		c-0.096,0.119-0.117,0.201-0.179,0.289l0.381-0.348c-0.02,0.08,0.419-0.1,0.125,0.105c0,0,0.161-0.092,0.322-0.186
		c0.16-0.094,0.306-0.207,0.306-0.207l0.123,0.07c0.138-0.117,0.127-0.141-0.06-0.035c0.242-0.111,0.787-0.813,0.831-0.549
		c0.384-0.449,0.583-0.537,1.023-1.084c-0.299,0.461,0.55-0.338,0.184,0.105c0.286-0.199,0.227-0.344,0.375-0.563
		c0.199-0.154,0.231,0.006,0.093,0.246l0.156-0.281l0.017,0.021l0.12-0.258c0.239-0.186,0.145,0.031,0.349-0.197l-0.055-0.119
		l0.17-0.131c-0.087,0.033-0.004-0.127,0.111-0.313l0.019,0.018l0.131-0.23c-0.09,0.254,0.159-0.188,0.161-0.045
		c0.132-0.188,0.121-0.199,0.307-0.566l-0.104,0.025c0.197-0.498,0.112,0.035,0.331-0.344l-0.094-0.016
		c0.423-0.492,0.367-0.99,0.629-1.377c-0.063,0.256,0.045,0.227,0.028,0.215c0.095-0.387,0.349-0.992,0.33-1.418
		c0.163-0.113,0.21-0.139,0.363-0.541c0.065-0.303,0.062-0.35-0.002-0.463c0.092-0.287,0.094-0.85,0.19-0.855
		c-0.062-0.074,0.054-0.264-0.009-0.434l0.042-0.031l-0.093,0.02c0.217-0.519-0.045-0.89,0.09-1.419l0.028,0.091l-0.046-0.223
		c0.039-0.038,0.067,0.053,0.119,0.062c0,0-0.031-1.05-0.06-1.048l-0.039,0.212c-0.04-0.218-0.146-0.354-0.127-0.61
		c0.194,0.396-0.042-0.345,0.053-0.429l0.064,0.219c-0.05-0.306-0.05-0.305-0.136-0.265c-0.117-0.383,0.108-0.3-0.07-0.642
		l0.056,0.257c-0.033,0.085-0.149-0.083-0.188-0.253c0.004-0.043,0.016-0.172,0.056-0.045c-0.093-0.301-0.18-0.766-0.27-0.885
		c-0.025-0.169,0.053-0.136,0.104-0.055c-0.297-0.615-0.06-0.304-0.39-0.907l0.053-0.008l-0.149-0.191l-0.035-0.348l-0.012,0.136
		c-0.104-0.199-0.179-0.318-0.277-0.559l0.12,0.06c-0.351-0.531-0.229-0.713-0.647-1.172c-0.012-0.042,0.063,0.024,0.1,0.058
		c-0.417-0.402-0.127-0.426-0.57-0.816c0.042,0.015,0.033-0.055,0.063-0.049c0.005-0.004-0.204-0.175-0.204-0.175l0.096-0.044
		l-0.256-0.074l-0.018-0.188l-0.105-0.048c-0.018-0.345-0.396-0.544-0.57-0.909l-0.047,0.135c-0.842-0.508-1.576-1.592-2.716-2.062
		l0.069-0.077l-0.495-0.126c-0.199-0.194,0.179-0.003,0.131-0.087c-0.5-0.192-0.267,0.037-0.846-0.175
		c-0.266-0.18,0.132-0.028,0.284-0.004c-0.549-0.201-1.385-0.381-1.77-0.538c-0.013,0.011-0.041,0.021-0.021,0.032
		c-0.388-0.039-0.882-0.162-1.305-0.217c0.017-0.048,0.121-0.042,0.228-0.033c-0.148-0.039-0.358-0.074-0.493-0.037l0.168-0.076
		c-0.33-0.038-0.971,0.006-1.041-0.097c0.036,0.039,0.021,0.113-0.239,0.109c-0.143-0.153-0.705,0.064-1.119-0.018
		c0.05-0.037,0.354-0.044,0.268-0.046c-0.209-0.041-0.396,0.031-0.579,0.078l0.057-0.062l-0.97,0.085
		c-0.143-0.153-0.911,0.022-0.847-0.09c-0.345-0.005,0.291,0.068-0.146,0.085c-0.117-0.064-0.396,0.031-0.377-0.069l0.047-0.012
		l-0.306,0.008l0.192-0.098c-0.264,0.021-0.456,0.119-0.47,0.194c-0.25-0.055-0.604-0.01-0.718-0.1l0.094-0.023
		c-0.701,0.039-1.16-0.271-1.711-0.104c-0.042-0.014-0.036-0.039,0.05-0.038l-0.433-0.006l0.103-0.074l-0.715,0.114l0.01-0.05
		c-0.473-0.021-1.213,0.005-1.821,0.021l0.091-0.024c-0.664,0.077-0.64-0.048-1.126,0.007c0.018-0.014,0.034-0.019,0.051-0.022
		l-0.437,0.002l0.097-0.049c-0.323,0.108-0.925-0.141-0.726-0.049c-0.183,0.047-0.498,0.105-0.552,0.167
		c-0.476,0.005-0.117-0.064-0.411-0.107c-0.345-0.005-0.406,0.081-0.873,0.036l0.008-0.05c-0.217,0.009-0.354,0.045-0.658,0.052
		l0.091-0.023c-0.496,0.105-0.62-0.148-1.009,0.071c-0.208-0.041-0.604-0.009-0.585-0.109c-0.618,0.064-1.099,0.095-1.713,0.135
		c-0.099-0.165-0.131,0.01-0.504-0.084l0.026,0.088c-0.868,0.011-1.864-0.207-2.822-0.171L16.077-2l-0.191,0.097
		c-1.031-0.042-2.366-0.076-3.187-0.078c-0.286,0.054-0.641,0.135-1.148,0.14l0.051-0.015c-0.84,0.081-1.713,0.222-2.602,0.429
		C9.043-1.478,8.948-1.479,9.04-1.53C8.858-1.377,8.523-1.379,8.333-1.326l0.243-0.001C8.348-1.19,7.988-1.105,7.836-1.123
		l-0.343,0.24C7.465-0.88,7.42-0.877,7.408-0.888l-0.046,0.07C7.36-0.823,7.114-0.831,7.114-0.831
		C7.034-0.762,6.57-0.484,6.481-0.31C6.427-0.325,6.075-0.172,6.324-0.329c0,0-0.32,0.186-0.632,0.384
		c-0.157,0.1-0.313,0.199-0.431,0.273c-0.11,0.083-0.184,0.138-0.184,0.138s0.203-0.114,0.207-0.109
		c0.071,0.048-0.229,0.37-0.43,0.481c0.184-0.243-0.063-0.113-0.206-0.08C4.525,0.921,4.835,0.707,4.785,0.811
		C4.624,1.008,4.256,1.375,4.144,1.448l0.079-0.129c-0.214,0.259-0.438,0.262-0.67,0.504C3.4,2.085,3.22,2.221,3.376,2.268
		C3.128,2.615,3.188,2.329,3.087,2.427C3.01,2.622,2.605,3.063,2.508,3.093c0.054,0.312-0.718,0.913-0.575,1.095L1.667,4.442
		C1.708,4.476,1.778,4.588,1.66,4.844c-0.175,0.208-0.219,0.12-0.303,0.17l0.102,0.24c-0.854,1.302-1.227,3.308-1.458,4.955
		c-0.009,0.748,0.105,1.68,0.199,2.537l-0.038-0.092l0.069,0.861L0.23,12.883c0.048,0.184,0.105,0.322,0.127,0.502
		c0.104,0.93,0.323,2.211,0.935,3.238c0.503,0.604,0.051,0.539,0.536,1.117c-0.048-0.045-0.086-0.051-0.133-0.09
		c0.216,0.334,0.404,0.58,0.613,0.811c0.21,0.229,0.39,0.475,0.705,0.734c-0.231,0.061,0.333,0.395,0.198,0.41l0.111-0.004
		c0.063,0.174,0.332,0.494,0.25,0.488l0.331,0.176L3.859,20.35c0.308,0.359,1.149,0.934,1.23,1.234
		c1.021,0.617,2.667,1.543,4.154,1.914c0.219,0.002,0.659,0.055,0.998,0.107l0.35,0.164c0.357,0.01,0.738-0.115,1.059-0.027
		c-0.003,0.012-0.016,0.02-0.039,0.025c0.375,0.004,0.641,0.045,0.943-0.049c0.346,0.006,0.681,0.063,0.575,0.162
		c0.034-0.178,0.731,0.023,0.731,0.023s17.713,0.428,22.033-0.523c0.146-0.086,0.549-0.143,0.395-0.246
		c0.312-0.031,0.453,0.121,0.513,0.035c-0.422-0.059,0.132-0.225-0.282-0.332l0.264-0.021c0.057-0.061-0.358,0.07-0.293-0.041
		l-0.074,0.16c-0.217-0.023-0.334-0.057-0.409-0.111c-0.201,0.063-0.33,0.281-0.81,0.188L35.327,23
		c-0.392,0.008-0.24-0.104-0.321-0.131l0.085,0.002l-0.33-0.082c0.252,0.055,0.663-0.076,0.447-0.066
		c-0.468-0.045,0.12,0.039-0.229,0.059c-0.218,0.008-0.155-0.078-0.146-0.129l-0.39,0.006c0.013-0.074,0.258,0.006,0.1-0.072
		l-0.491,0.08c-0.094-0.191-0.537,0.09-0.763-0.088c0.354-0.045-0.03-0.064,0.025-0.127l-0.868,0.012
		c-0.081-0.027,0.229-0.059,0.096-0.049c-0.161-0.053-0.267,0.047-0.354,0.045c-0.076-0.053-0.648,0.002-0.625-0.125
		c-0.588-0.084-0.247,0.16-0.796,0.09c-0.072-0.078,0.437-0.02,0.192-0.098l-0.569,0.027c0.052-0.037,0.111-0.123,0.325-0.107
		c-1.539-0.102-2.369-0.504-3.774-0.402c-0.198-0.09,0.142-0.061,0.283-0.119c-1.019,0.119-1.433-0.199-2.3-0.189l-0.015,0.074
		c-1.209-0.232-2.665-0.094-4.03-0.191l0.163,0.053c-0.188,0.074-0.492,0.08-0.716,0.113c-0.035-0.037,0.162-0.158-0.234-0.129
		c0.081,0.027,0.25,0.057,0.199,0.092c-1.174-0.195-3.65-0.146-5.579-0.242c-0.651,0.016-1.317,0.016-1.988,0.012
		c-0.709,0.004-1.284-0.033-1.856-0.102c-1.155-0.164-2.254-0.574-3.216-1.119c0.302,0.15,0.082,0.246-0.127,0.09
		c-0.211-0.324-0.46-0.482-0.734-0.627c-0.248-0.174-0.519-0.34-0.716-0.646C5.038,18.092,4.577,17,3.817,16.043l0.071-0.059
		c-0.053-0.174-0.116-0.197-0.205-0.367l0.025-0.006C3.636,15.4,3.52,15.182,3.42,14.98c-0.082-0.207-0.158-0.393-0.177-0.521
		L3.14,14.475c-0.094-0.252,0.033-0.154-0.113-0.398L3.08,14.07l-0.169-0.287c0.195-0.014-0.182-0.734-0.106-0.967
		c-0.086-0.334-0.252-0.984-0.217-1.515c0.069-0.102,0.085-0.744,0.158-1.149C2.773,9.362,2.92,8.219,3.306,7.28L3.189,7.261
		l0.077-0.255c0.023,0.012,0.047-0.018,0.046,0.025c0.176-0.154,0.201-0.577,0.355-0.744c-0.151,0.081-0.09,0.164-0.153,0.3
		c-0.14,0.179-0.161-0.052,0.013-0.302l0.021,0.015L3.573,6.09C3.667,6.107,3.774,5.955,3.87,5.975
		c0.394-0.762,0.559-1.368,1.176-2.037c0.02,0.134,0.392-0.515,0.411-0.263C5.781,3.25,5.284,3.643,5.365,3.388
		c0.11-0.105,0.19-0.252,0.257-0.227C5.601,3.24,5.786,3.147,5.71,3.245L5.955,2.98C5.99,2.965,5.951,3.039,5.93,3.075
		C6.4,2.498,6.992,2.331,7.478,1.901C7.484,1.822,7.253,2.03,7.257,1.952c0.486-0.476,0.567-0.188,1.056-0.569L8.24,1.52
		C8.382,1.368,8.44,1.282,8.768,1.221c0.093,0.073-0.221,0.178-0.344,0.277c0.206-0.075,0.712-0.308,0.52-0.33
		c0.234-0.137,0.36-0.076,0.505-0.085C9.448,1.058,9.19,1.084,9.325,0.999c0.367-0.049,0.901-0.204,1.344-0.245
		c0,0.025,0.037,0.057,0,0.076C10.999,0.636,10.992,0.865,11.466,0.815z"/>
	<path fill="#202020" d="M38.649,0.471l-0.183-0.045c-0.003,0.022-0.016,0.046-0.105,0.056L38.649,0.471z"/>
	<path fill="#202020" d="M29.003,0.207c-0.025,0.008-0.051,0.015-0.074,0.027C28.979,0.229,28.996,0.218,29.003,0.207z"/>
	<path fill="#202020" d="M26.605,0.384c0.172-0.021,0.02-0.048-0.065-0.074C26.536,0.33,26.54,0.354,26.605,0.384z"/>
	<path fill="#202020" d="M43.216,2.617c-0.03-0.017-0.054-0.021-0.066-0.002C43.195,2.633,43.212,2.63,43.216,2.617z"/>
	<path fill="#202020" d="M45.625,15.717c0.011-0.016,0.022-0.025,0.036-0.045C45.652,15.678,45.638,15.695,45.625,15.717z"/>
	<path fill="#202020" d="M46.076,15.045c0.013-0.035,0.024-0.086,0.036-0.156C46.084,14.953,46.077,15.004,46.076,15.045z"/>
	<path fill="#202020" d="M40.317,0.766c-0.051-0.016-0.102-0.029-0.15-0.026C40.242,0.768,40.285,0.77,40.317,0.766z"/>
	<polygon fill="#202020" points="46.143,14.725 46.217,14.539 46.198,14.529 	"/>
	<path fill="#202020" d="M45.513,15.939c0.034-0.068,0.076-0.164,0.112-0.223C45.56,15.797,45.529,15.867,45.513,15.939z"/>
	<path fill="#202020" d="M46.152,6.927l-0.009-0.02C46.052,6.773,46.1,6.86,46.152,6.927z"/>
	<polygon fill="#202020" points="46.216,13.848 46.225,13.824 46.211,13.762 	"/>
	<path fill="#202020" d="M45.084,16.676c0.015-0.035,0.028-0.066,0.03-0.096c-0.019,0.025-0.039,0.055-0.064,0.092
		C45.068,16.67,45.075,16.67,45.084,16.676z"/>
	<path fill="#202020" d="M46.636,9.87c0.041,0.052,0.068,0.072,0.089,0.072C46.719,9.875,46.7,9.835,46.636,9.87z"/>
</g>
</svg>
