<?xml version="1.0" encoding="utf-8"?>
<!-- Generator: Adobe Illustrator 16.0.3, SVG Export Plug-In . SVG Version: 6.00 Build 0)  -->
<!DOCTYPE svg PUBLIC "-//W3C//DTD SVG 1.1//EN" "http://www.w3.org/Graphics/SVG/1.1/DTD/svg11.dtd">
<svg version="1.1" id="Layer_1" xmlns="http://www.w3.org/2000/svg" xmlns:xlink="http://www.w3.org/1999/xlink" x="0px" y="0px"
	 width="45px" height="45px" viewBox="0 0 45 45" enable-background="new 0 0 45 45" xml:space="preserve">
<g>
	<path fill="#3C3C3C" d="M0.429,26.065c0.914-0.695,1.879-1.35,2.884-1.949c-0.015-0.101,0-0.178,0.104-0.216
		c-0.014,0-0.023,0-0.032,0.002c0,0,0.005-0.144,0.014-0.284c0.004-0.145,0.021-0.284,0.021-0.284
		c-0.164,0.063,0.025,0.429-0.135,0.408c-0.085-0.518,0.071-0.529-0.077-0.864C3.189,23.098,3.22,23.4,3.039,23.334
		c-0.048-0.52,0.128-0.675,0.242-1.199c0.045-0.029,0.095-0.004,0.129,0.048c-0.06-0.258,0.067-0.724,0.104-1.092l0.21-0.126
		c0.206,0.553-0.181,0.514-0.032,0.979c0.104-0.067,0.114-0.237,0.122-0.422c0.013-0.184,0.012-0.385,0.065-0.51
		c-0.2-0.047-0.27-0.304-0.326-0.435c0.147-0.422,0.004-0.558,0.021-0.863c0.169-0.245-0.002,0.346,0.192-0.068
		c0.209-0.67-0.823-0.123-0.148-0.712l0.163,0.106c0.005-0.188,0.073-0.571,0.189-0.619c-0.173-0.039,0.176-0.519-0.102-0.238
		l0.046,0.005c-0.009,0.131-0.097,0.117-0.172,0.147c-0.262-0.171-0.007-0.621,0.008-0.975c0.01,0.047-0.059,0.121-0.092,0.161
		c0.065-0.483,0.136-0.155,0.377-0.598c0.125-0.017-0.251,0.034-0.053-0.279c0.205-0.269,0.183,0.084,0.35,0.082
		c0.035-0.098,0.059-0.203,0.111-0.328l0.253,0.021c-0.12,0.014-0.006-0.226,0.139-0.406c-0.248,0.284-0.458,0.23-0.778,0.329
		c0.031,0.189-0.12,0.288-0.205,0.269c0.064-0.63,0.646-0.606,0.552-1.042c0.127,0.082,0.199,0.031,0.176,0.319
		c0.03-0.101,0.201-0.146,0.323-0.303l-0.072,0.066c0.159-0.45,0.195-0.91,0.508-1.115c-0.034-0.004-0.064-0.034-0.084-0.016
		c0.17-0.491,0.153-0.268,0.464-0.604l-0.243,0.134c-0.089-0.224,0.233-0.321,0.312-0.523c0.205-0.048,0.083,0.225,0.129,0.294
		c0.034-0.13,0.406-0.096,0.326-0.414c-0.042,0.121-0.123,0.27-0.205,0.231c0.205-0.372,0.246-0.495,0.454-0.728l-0.246,0.116
		c0.126-0.414,0.295-0.236,0.468-0.52c-0.067-0.03-0.13-0.017,0.022-0.291l0.161,0.04c0.147-0.357-0.04-0.067-0.048-0.422
		c0.241-0.31,0.567-0.31,0.739-0.397c0.015-0.345,0.42-0.69,0.545-1.071c0.157-0.15,0.363-0.152,0.457-0.406
		c0.13,0.157,0.304-0.193,0.512-0.021c-0.084,0.356-0.479,0.048-0.334,0.373c0.032,0.025,0.254-0.225,0.438-0.289l-0.09,0.033
		c0.155-0.209,0.314-0.34,0.478-0.423c0.167-0.079,0.337-0.12,0.504-0.161c0.332-0.089,0.664-0.161,1.001-0.602
		c-0.049-0.109-0.186,0.044-0.188-0.077c0.226-0.297,0.293,0.018,0.545-0.189c0,0,0.071-0.056,0.181-0.137
		c0.109-0.086,0.249-0.198,0.403-0.297c0.151-0.104,0.3-0.208,0.412-0.285c0.113-0.078,0.19-0.128,0.19-0.128
		c-0.323,0.076-0.288-0.004-0.172-0.124c0.116-0.113,0.319-0.256,0.298-0.313l0.225,0.096c0.169-0.248-0.189,0.019-0.109-0.146
		l0.375-0.108l-0.112-0.306c0.428-0.174,0.834-0.396,1.222-0.305c0.618-0.356,1.407-0.613,2.194-0.835
		c0.799-0.187,1.604-0.339,2.308-0.427c0.526-0.055,0.426-0.442,0.846-0.266c-0.046-0.017-0.023-0.09-0.031-0.134
		c0.477-0.097,1.091-0.137,1.481-0.271c0.175,0.078-0.099,0.166-0.09,0.211c0.156-0.055,0.252-0.224,0.549-0.177
		c-0.182,0.177,0.43,0.19,0.673,0.197c-0.169-0.093-0.53-0.051-0.473-0.234c0.354-0.138,0.452,0.009,0.665,0.115l-0.137-0.156
		c0.664,0.164,0.598-0.26,1.309,0.01c0.043,0.118-0.287,0.017-0.241,0.132c0.689,0.226,1.346-0.069,2.105,0.243
		c-0.039-0.028-0.115-0.084-0.075-0.103c0,0,0.097,0.02,0.192,0.049c0.095,0.026,0.188,0.053,0.188,0.053
		c-0.125-0.056,0.104-0.126,0.042-0.217c0.053-0.105,0.205,0.015,0.369,0.044c0.214,0.273-0.479,0.264,0.066,0.5
		c-0.119-0.354,0.603,0.069,0.549-0.132c0.486,0.08,0.856,0.271,1.22,0.45c0.353,0.209,0.702,0.4,1.123,0.619
		c0.084-0.142,0.295-0.131,0.381-0.269l0.157,0.187l0.015-0.047c0.333,0.049,0.451,0.332,0.198,0.316
		c-0.15-0.067-0.135-0.242-0.344-0.128c0.272-0.036,0.533,0.441,0.836,0.325c-0.027-0.039,0.018-0.043,0.033-0.086
		c0,0,0.063,0.034,0.125,0.071c0.062,0.04,0.123,0.078,0.123,0.078l-0.111,0.176c0.999,0.463,2.003,1.205,2.65,1.778
		c0.395,0.212,0.928,0.665,1.108,0.622c0.474,0.336,0.884,0.953,1.097,1.271c0.125,0.034,0.282,0.266,0.43,0.453
		c0.146,0.19,0.275,0.352,0.386,0.233l0.09,0.381l0.065-0.063c0.111,0.299,0.144,0.091,0.304,0.336l-0.132,0.128
		c0.113,0.087,0.225,0.28,0.353,0.489c0.116,0.218,0.245,0.458,0.403,0.646l0.035-0.028c0.103,0.181,0.031,0.29,0.195,0.419
		l0.148-0.062c0.079,0.344,0.201,0.648,0.334,0.952c0.068,0.146,0.143,0.292,0.225,0.436c0.073,0.146,0.151,0.29,0.23,0.437
		c0.167,0.288,0.322,0.585,0.462,0.896c0.149,0.31,0.248,0.646,0.33,0.996c0.315,0.311,0.333,0.668,0.388,1.002
		c0.043,0.342,0.092,0.67,0.459,0.987c0.129,0.269-0.166,0.491-0.227,0.12c0.217,1.216,0.406,2.499,0.453,3.806
		c0.02,0.422,0.019,0.843,0,1.266c1.545,0.958,2.986,2.027,4.309,3.196c0.025-0.172,0.047-0.313,0.059-0.419
		c0.021-0.158,0.028-0.241,0.028-0.241s-0.058-0.228-0.071-0.443c-0.012-0.19-0.008-0.377,0.092-0.426
		c-0.139-0.007-0.18-0.372-0.15-0.737c0.208-0.334,0.119-0.704,0.184-1.079c-0.012,0.021-0.027,0.037-0.049,0.039
		c-0.095-0.35,0.131-0.737,0.197-1.114c0,0-0.046-0.098-0.093-0.195c-0.046-0.097-0.097-0.194-0.097-0.194
		c0-0.366-0.008-0.833,0.11-1.069c-0.051-0.398-0.104-0.824-0.157-1.257c-0.076-0.429-0.131-0.87-0.209-1.294
		c-0.146-0.854-0.295-1.663-0.353-2.317c-0.192-0.087-0.334-0.4-0.451-0.759c-0.12-0.354-0.235-0.743-0.325-0.984l-0.158,0.025
		c0,0,0.015-0.108,0.024-0.218c0.009-0.108,0.019-0.217,0.019-0.217c-0.076,0.104-0.283-0.312-0.44-0.451l0.114-0.131
		c-0.149,0.153-0.059-0.626-0.369-0.373c-0.157-0.892-0.316-1.351-0.633-2.188c-0.002,0.074-0.033,0.124-0.03,0.203
		c-0.179-0.851-0.64-0.226-0.765-1.151c-0.56-1.212-1.588-2.241-2.4-2.917c-0.141-0.146-0.197-0.32-0.318-0.495
		c0,0,0.151,0.097,0.293,0.204c0.146,0.104,0.291,0.208,0.291,0.208s-0.178-0.164-0.357-0.329c-0.182-0.162-0.368-0.316-0.368-0.316
		l0.044,0.109c-0.697-0.674-1.381-1.479-1.986-2.067c-0.824-0.465-1.654-1.059-2.523-1.554c-0.426-0.264-0.873-0.478-1.303-0.68
		c-0.438-0.184-0.869-0.343-1.283-0.431l-0.047-0.388c-0.117,0.049-0.117,0.223-0.422,0.2c-0.269-0.156-0.265-0.378-0.242-0.468
		l-0.426,0.044c0.017-0.177-0.262-0.225-0.552-0.284c-0.291-0.057-0.601-0.111-0.662-0.347c-0.062,0.056-0.251,0.054-0.448,0.014
		c-0.199-0.031-0.406-0.1-0.496-0.19c-0.15-0.014,0.063,0.299-0.369,0.123c0.127-0.248-0.125-0.204-0.416-0.396
		c-0.352-0.089-0.568,0.148-0.912,0.02l0.145,0.095c-0.15,0.037-0.693-0.102-0.943-0.253c-0.098-0.104,0.303-0.096,0.105-0.219
		c-0.154,0.097-0.453,0.148-0.156,0.329c-0.246,0.025-0.699-0.114-0.652-0.274l0.252-0.046c0,0-0.393-0.027-0.783-0.058
		c-0.393-0.019-0.784-0.022-0.784-0.022c0.308,0.059-0.096,0.088-0.139,0.157c-0.166-0.222-0.738-0.28-0.842-0.325l-0.23,0.212
		l-0.074-0.088c-0.007,0.026-0.05,0.054-0.078,0.067c0,0-0.107-0.044-0.215-0.088c-0.11-0.038-0.216-0.075-0.216-0.075
		c-0.136,0.122-0.515,0.284-0.795,0.145l0.234-0.131c-0.198,0.006-0.496,0.183-0.731,0.064c0.05,0.034-0.006,0.083,0.049,0.136
		c-0.237,0.046-0.47,0.081-0.702,0.108c-0.231,0.03-0.46,0.064-0.688,0.09c-0.46,0.044-0.907,0.09-1.342,0.132l0.058,0.013
		c-0.482,0.146-0.986,0.095-1.318,0.085c-0.944,0.247-2.429,0.822-3.504,1.408l-0.278-0.062l0.037,0.16
		C11.627,2.595,10.8,3.55,9.95,4.09L9.89,3.936C9.623,4.328,9.413,4.084,9.485,4.4C8.86,4.761,8.375,5.06,7.744,5.447
		c0.134,0.128-0.264,0.38-0.392,0.607C6.756,6.076,6.939,6.5,6.404,6.783l0.104-0.045C6.248,6.987,6.09,7.056,5.897,7.23
		l0.072,0.055C5.657,7.75,5.498,7.7,5.231,8.014c-0.167,0.313,0.2,0.07-0.162,0.5C4.945,8.492,4.631,8.716,4.424,8.833
		C4.44,8.541,4.358,9.391,3.981,9.584L4.12,9.545c0,0-0.075,0.104-0.154,0.208C3.887,9.858,3.815,9.965,3.815,9.965
		c0.016-0.015,0.033-0.026,0.064-0.028c-0.396,0.428-0.205,0.521-0.734,1.117l0.091-0.07c-0.4,0.598-0.863,1.35-1.078,1.871
		l0.086,0.032l-0.549,0.679l0.173-0.054c0,0-0.052,0.115-0.104,0.233c-0.047,0.121-0.094,0.241-0.094,0.241
		c0.038-0.096,0.08-0.082,0.084-0.027C1.493,14.2,1.428,14.504,1.4,14.838c-0.023,0.336-0.028,0.696-0.198,1.075l0.075-0.09
		c0.109,0.178-0.088,0.55-0.081,0.855c-0.129-0.023-0.375,0.138-0.484,0.432l0.226-0.172l-0.104,0.344l0.033-0.047
		c0.178,0.027-0.068,0.299,0.01,0.46c-0.157,0.487-0.101-0.266-0.19,0.13c0.201-0.031-0.29,0.784-0.055,1.006
		c0,0-0.098,0.27-0.172,0.544c-0.082,0.275-0.163,0.552-0.163,0.552l0.12-0.05c-0.122,0.197-0.275,0.4-0.227,0.654
		c-0.008,0.102,0.045-0.254,0.115-0.305c0.094,0.5-0.37,1.122-0.095,1.313C0.2,21.845,0.065,21.854,0,21.809
		c0.087,0.044,0.087,0.233,0.068,0.457c-0.022,0.226-0.045,0.481-0.032,0.66l0.157-0.172c-0.084,0.141-0.03,0.364-0.023,0.529
		c0.021-0.113,0.033-0.229,0.116-0.237c-0.026,0.457,0.092,0.994,0.022,1.413c-0.01-0.022-0.041,0.008-0.065,0.02
		c0.107,0.358,0.11,1.057,0.113,1.644c0.015-0.01,0.027-0.021,0.041-0.03C0.388,26.063,0.402,26.045,0.429,26.065z"/>
	<g>
		<path fill="#3C3C3C" d="M30.793,15.775c-0.008-0.016-0.021-0.031-0.033-0.053C30.77,15.746,30.783,15.761,30.793,15.775z"/>
		<path fill="#3C3C3C" d="M29.193,17.081v-0.044C29.193,17.052,29.193,17.065,29.193,17.081z"/>
		<path fill="#3C3C3C" d="M32.037,14.989c0.001,0.005,0.004,0.008,0.007,0.013c0.021-0.013,0.046-0.028,0.086-0.053L32.037,14.989z"
			/>
		<path fill="#3C3C3C" d="M24.646,20.395l0.023-0.024C24.657,20.38,24.646,20.382,24.646,20.395z"/>
		<path fill="#3C3C3C" d="M27.045,18.428c0.01,0.024,0.006,0.044,0,0.062C27.061,18.479,27.07,18.463,27.045,18.428z"/>
		<path fill="#3C3C3C" d="M33.436,15.622l-0.084-0.05C33.373,15.604,33.408,15.628,33.436,15.622z"/>
		<path fill="#3C3C3C" d="M34.4,14.501c-0.004-0.005-0.01-0.009-0.016-0.016C34.389,14.495,34.395,14.499,34.4,14.501z"/>
		<path fill="#3C3C3C" d="M33.732,14.508c-0.004,0.014-0.008,0.034-0.014,0.057C33.734,14.552,33.753,14.539,33.732,14.508z"/>
		<path fill="#3C3C3C" d="M33.719,14.593l0.002-0.03C33.713,14.571,33.708,14.581,33.719,14.593z"/>
		<path fill="#3C3C3C" d="M14.206,20.677c-0.024-0.033-0.101-0.015-0.166-0.006L14.206,20.677z"/>
		<path fill="#3C3C3C" d="M21.388,23.807l-0.022-0.032C21.37,23.787,21.376,23.797,21.388,23.807z"/>
		<path fill="#3C3C3C" d="M13.588,21.166l-0.005-0.034C13.579,21.15,13.582,21.161,13.588,21.166z"/>
		<path fill="#3C3C3C" d="M32.977,16.272c0.021,0.094-0.111,0.062-0.059,0.13C32.946,16.363,33.035,16.38,32.977,16.272z"/>
		<path fill="#3C3C3C" d="M23.182,26.824l-0.018,0.023C23.175,26.84,23.18,26.832,23.182,26.824z"/>
		<path fill="#3C3C3C" d="M13.588,21.166l0.008,0.042c0.01-0.016,0.019-0.026,0.025-0.039C13.606,21.17,13.596,21.17,13.588,21.166z
			"/>
		<path fill="#3C3C3C" d="M19.464,25.895L19.464,25.895c0-0.007,0.001-0.013,0.001-0.021L19.464,25.895z"/>
		<path fill="#3C3C3C" d="M19.455,25.667c0.001-0.013,0.004-0.023,0.005-0.038C19.46,25.614,19.456,25.634,19.455,25.667z"/>
		<path fill="#3C3C3C" d="M14.04,20.671l-0.096-0.004C13.966,20.678,14.004,20.676,14.04,20.671z"/>
		<path fill="#3C3C3C" d="M18.654,24.944c0.009,0.007,0.018,0.011,0.024,0.014C18.674,24.949,18.665,24.944,18.654,24.944z"/>
		<path fill="#3C3C3C" d="M27.223,18.328c0.012,0.002,0.02,0,0.027,0C27.241,18.309,27.229,18.298,27.223,18.328z"/>
		<polygon fill="#3C3C3C" points="27.48,21.391 27.48,21.394 27.48,21.394 		"/>
		<path fill="#3C3C3C" d="M27.475,21.242c-0.035,0.007-0.022,0.086,0.006,0.15C27.502,21.37,27.51,21.336,27.475,21.242z"/>
		<path fill="#3C3C3C" d="M27.296,20.897c0.005,0,0.011,0,0.017,0C27.305,20.897,27.299,20.897,27.296,20.897z"/>
		<polygon fill="#3C3C3C" points="28.861,20.215 28.855,20.208 28.861,20.214 		"/>
		<path fill="#3C3C3C" d="M28.585,20.504c-0.019-0.006-0.032-0.01-0.047-0.01C28.555,20.503,28.571,20.509,28.585,20.504z"/>
		<polygon fill="#3C3C3C" points="26.766,22.407 26.766,22.404 26.762,22.407 		"/>
		<path fill="#3C3C3C" d="M24.635,25.628c0.217-0.318,0.422-0.807,0.719-1.043c-0.074-0.188,0-0.28,0.057-0.396l0.182,0.159
			l0.014-0.128c0.08,0.021-0.021,0.088,0.096,0.1l-0.083-0.135c0.067,0.058,0.218-0.146,0.228,0.101L26.111,24
			c0.066-0.058-0.111-0.178-0.002-0.204c0.065,0.037,0.014,0.06,0.08,0.116c0.326-0.079-0.108-0.57,0.156-0.688l0.008,0.04
			c-0.016-0.079,0.051-0.135,0.025-0.158c-0.195-0.15,0.063,0.129-0.097,0.087c-0.14-0.152-0.009-0.154-0.122-0.262
			c0.096,0.009,0.037-0.101,0.066-0.149c0.158,0.023,0.186-0.137,0.348-0.073c-0.016-0.077-0.123-0.259-0.061-0.335
			c0.159,0.064,0.098,0.121,0.205,0.097l-0.074-0.097c0.067-0.044,0.084-0.013,0.121,0.031c0.062-0.06-0.067-0.169,0.061-0.188
			l0.041,0.125c0.021-0.088,0.061-0.096,0.145-0.165c0.045,0.051,0.014,0.077-0.022,0.086c0.163,0.085,0.017-0.126,0.053-0.134
			c-0.044-0.032-0.112,0.006-0.17-0.105c0.054-0.021-0.032-0.195,0.093-0.122l0.04,0.125c0.015-0.146-0.063-0.149,0.062-0.207
			c0.002,0.011,0.023,0.028,0.039,0.05c-0.047-0.168,0.123-0.145,0.213-0.221l0.009,0.039c0.005-0.064-0.05-0.161-0.024-0.172
			c-0.099-0.001-0.109-0.041-0.193-0.117c0.201,0.077-0.063-0.264,0.125-0.284c0.046,0.051,0.076,0.137-0.002,0.11
			c0.106,0.183,0.221,0.313,0.223,0.442c0.007-0.072,0.035-0.142,0.083-0.067l-0.117-0.15c0.022-0.026,0.048-0.037,0.067-0.055
			c-0.072-0.097-0.184-0.093-0.184-0.205c0.021-0.107,0.168,0.105,0.117,0.035c0.033-0.142-0.107-0.182,0.021-0.22
			c0.004,0.021,0.009,0.06-0.01,0.053c0.111-0.005,0.121-0.172,0.297-0.024c0.024,0.045,0.068,0.096,0.035,0.104l-0.025-0.023
			c0.048,0.185,0.023-0.087,0.146,0.081c-0.09-0.082,0.012-0.146,0.066-0.166l-0.109-0.092c-0.158-0.423,0.184,0.206,0.271,0.046
			c0.017-0.146-0.056,0.002-0.072-0.118c0.067-0.034,0.177,0.036,0.212-0.082c0.061,0.019,0.155,0.028,0.266,0.138
			c0.004-0.092,0.192-0.09,0.115-0.226c-0.171-0.018,0.029,0.195-0.203,0.143l-0.078-0.137c0.072-0.06,0.104-0.197,0.188-0.2
			c-0.028-0.013-0.062-0.038-0.076-0.067c0.056-0.134-0.022-0.271,0.103-0.327c0.107,0.091,0.037,0.125,0.008,0.172
			c0.135,0.023,0.068-0.055,0.189-0.109c0.086,0.084-0.066,0.055,0.004,0.152l0.074-0.127c0.006,0.006,0.012,0.012,0.016,0.021
			c-0.12-0.165,0.092-0.063,0.113-0.168c0.149-0.142-0.018-0.367-0.041-0.564c0.062,0.021,0.102,0.054,0.125,0.102
			c-0.098-0.032-0.043,0.013-0.021,0.063c0.037-0.063,0.246,0.045,0.271,0.132c0.043-0.117-0.1-0.053-0.095-0.146l0.121-0.092
			c-0.084-0.065-0.138-0.046-0.134-0.157c0.027-0.066,0.066-0.07,0.134-0.126c0.024,0.046,0.125,0.1,0.074,0.138
			c0.057,0.001,0.108-0.038,0.059-0.131c-0.133-0.007,0.054-0.171-0.106-0.244l0.132,0.006c-0.019,0.014,0.026,0.067-0.011,0.071
			c0.125,0.102,0.026-0.084,0.041-0.118c0.045,0,0.117-0.048,0.162-0.008c-0.006-0.052,0.068-0.076,0.135-0.023
			c0.011-0.056-0.068-0.08-0.092-0.126l0.117-0.093c0.065,0.06,0.235,0.232,0.241,0.271c-0.015-0.099-0.157-0.205-0.088-0.259
			c0.073,0.16,0.17,0.021,0.25,0.222c0.118,0.061,0.217-0.039,0.246-0.126c-0.056-0.134-0.112-0.253-0.201-0.361
			c0.127-0.185-0.11-0.786,0.054-0.786h-0.057c0.023,0,0.025,0.147-0.005,0.022c0.09,0.147,0.383,0.399,0.481,0.266
			c-0.045-0.074-0.175-0.002-0.244-0.123l0.066-0.06c0.016,0.005,0.023,0.051,0.027,0.076c0.033-0.111,0.281,0.059,0.17-0.111
			l0.236,0.128l-0.1-0.053c-0.044-0.075,0.023-0.165,0.02-0.207c0.021-0.146,0.102-0.113,0.216-0.071
			c-0.062-0.041-0.201-0.132-0.151-0.209c0.178,0.212,0.204-0.044,0.294,0.069c0.024-0.025,0.125,0,0.058-0.093l0.104,0.139
			c-0.147-0.192-0.041-0.268,0.009-0.362c0.189,0.269,0.066-0.089,0.289,0.115c-0.127-0.185,0.08-0.178-0.023-0.337
			c0.053-0.057,0.174,0.111,0.234,0.152l-0.025-0.085c0.096,0.056,0.214-0.021,0.324-0.02l-0.062-0.204l0.076,0.053
			c-0.022-0.048,0.012-0.111-0.065-0.145l0.038-0.018c-0.127-0.174,0.013-0.086,0.023-0.211c0.036,0.013,0.063,0.06,0.067,0.093
			c0.032-0.026,0.086,0.073,0.148,0.116c-0.057-0.026-0.115-0.402-0.264-0.406c-0.06-0.063-0.047-0.158,0.011-0.153l0.138,0.136
			l-0.086-0.193c0.036-0.065,0.13,0.015,0.186,0.002c-0.035,0.043,0.129,0.368,0.238,0.28c-0.044,0.063-0.006,0.172-0.013,0.228
			c0.028-0.013,0.051-0.006,0.065,0.088c0.05-0.117-0.043-0.12,0.024-0.203c0.101,0.141,0.157,0.166,0.267,0.157l-0.133-0.06
			c-0.009-0.019-0.015-0.032-0.017-0.044c-0.031,0-0.056-0.018-0.099-0.067c0.019-0.011-0.028-0.244,0.047-0.171
			c-0.246-0.149,0.027-0.279-0.125-0.369c-0.02-0.048,0.037-0.101,0.094-0.038c0.004,0.159,0.17,0.119,0.23,0.225
			c-0.004-0.062,0.051-0.062,0.049-0.141c0.035-0.042,0.371,0.021,0.371,0.046v0.04l-0.07,0.014
			c-0.04-0.078-0.244-0.069-0.207-0.151c0.037,0.02,0.025-0.063,0.066-0.007c0.041,0.117,0.131,0.23,0.097,0.292
			c0.036-0.042,0.147-0.159-0.001-0.249l0.048-0.033c-0.073-0.036-0.245-0.074-0.156-0.172l0.019,0.028l-0.004-0.161l0.084,0.051
			c-0.026-0.035-0.039-0.076-0.01-0.095c0.035,0.038,0.071,0.033,0.11,0.094c0.071-0.064,0.017-0.134-0.002-0.182
			c0.036-0.042,0.071-0.023,0.112,0.075c0.07-0.026,0.16-0.123,0.252-0.077c0.037-0.122-0.034-0.019-0.055-0.148
			c0.241,0.202,0.332-0.081,0.445-0.201c-0.18-0.195,0.02-0.049-0.087-0.268c0.019,0.089,0.239,0.089,0.162,0.228l0.055-0.069
			c0.127,0.09-0.059,0.169,0.123,0.287c0.071-0.058-0.028-0.337,0.113-0.315c0.069,0.178,0.04-0.102,0.125,0.088
			c0.017,0.068-0.022,0.068-0.039,0.1l0.036,0.021c0.201-0.068-0.067-0.221-0.043-0.391c0.093-0.092,0.158,0.069,0.212,0.141
			c0.034,0.021,0.071-0.039,0.073-0.101c-0.006,0.141-0.18-0.021-0.209-0.143c0.156,0.152,0.164-0.089,0.15-0.181
			c-0.267-0.092-0.109,0.062-0.378-0.051c0.017,0.07,0.117,0.23-0.009,0.223c0.005-0.116-0.061-0.089-0.092-0.104
			c0.074,0.082-0.035,0.078-0.038,0.135c-0.07-0.061-0.081-0.25-0.196-0.229l0.123,0.229c-0.057-0.011-0.088-0.17-0.128-0.068
			c-0.032-0.141-0.124-0.169-0.046-0.271c-0.239-0.107-0.12,0.224-0.161,0.362c0.002-0.021-0.019-0.049-0.019-0.07
			c0.019,0.07-0.021,0.091-0.039,0.122c-0.094-0.008-0.017-0.132-0.069-0.18l-0.097,0.071c-0.006-0.006-0.01-0.01-0.014-0.014
			c-0.006,0.046-0.02,0.081-0.064,0.035c-0.018-0.09-0.051-0.168-0.068-0.238l-0.007,0.22c-0.035-0.076-0.168-0.063-0.128-0.164
			l-0.137,0.134l-0.111-0.134c-0.021,0.052,0,0.083,0.055,0.065c-0.074,0.006-0.055,0.423-0.223,0.12
			c-0.037,0.207-0.112,0.191-0.203,0.37c0.018-0.214-0.245-0.069-0.17-0.22c-0.111-0.011-0.02,0.151-0.057,0.217
			c-0.094-0.021-0.172-0.177-0.155-0.271l-0.019,0.113l-0.02-0.029l0.002,0.121c-0.113-0.03-0.115-0.132-0.191-0.104l0.075,0.134
			l-0.094-0.042c0.058,0.046,0.039,0.099,0.001,0.141l-0.021-0.026l-0.035,0.063c-0.002-0.117-0.068,0.011-0.11-0.096
			c-0.054,0.026-0.054,0.031-0.118,0.117l0.078,0.071c-0.055,0.154-0.1-0.122-0.193-0.063l0.08,0.093
			c-0.248-0.063-0.14,0.264-0.312,0.23c0.034-0.066-0.063-0.165-0.042-0.137c-0.051,0.099-0.2,0.178-0.192,0.359
			c-0.138-0.113-0.176-0.149-0.31-0.144c-0.055,0.058-0.055,0.079-0.01,0.175c-0.102-0.005-0.15,0.164-0.23,0.067
			c0.05,0.088-0.066,0.025-0.045,0.12l-0.04-0.035l0.081,0.089c-0.275-0.125-0.078,0.264-0.334,0.167l-0.003-0.04l-0.015,0.074
			c-0.041-0.036-0.043-0.075-0.086-0.132l-0.213,0.158l0.098,0.034c-0.033,0.046,0.013,0.162-0.084,0.147
			c-0.032-0.209-0.067,0.053-0.172-0.044l0.014-0.073c-0.051,0.06-0.051,0.06,0.031,0.148c-0.049,0.101-0.201-0.133-0.188,0.03
			l0.054-0.039c0.062,0.04,0.088,0.15,0.055,0.177c-0.021-0.008-0.08-0.027-0.063-0.063c-0.03,0.09-0.159,0.121-0.155,0.181
			c-0.06,0-0.104-0.076-0.106-0.115c-0.06,0.192-0.073,0.031-0.134,0.227l-0.043-0.055l0.01,0.101l-0.157-0.056l0.081,0.049
			c-0.034,0.046-0.029,0.104-0.105,0.118l-0.045-0.096c-0.082,0.146-0.25-0.009-0.269,0.199c-0.022-0.006-0.024-0.046-0.026-0.066
			c0.002,0.215-0.197-0.065-0.17,0.176c-0.017-0.031-0.057-0.052-0.068-0.077l-0.006,0.092l-0.088-0.106l0.098,0.188l-0.122-0.08
			l0.024,0.066c-0.225-0.151-0.162,0.063-0.363-0.021l0.127,0.119c0.068,0.428-0.529,0.214-0.627,0.533l-0.088-0.104l0.022,0.198
			c-0.119-0.035-0.051-0.109-0.112-0.148c-0.041,0.141,0.1,0.185,0.02,0.313c-0.117-0.018-0.051-0.094-0.059-0.153
			c-0.057,0.145-0.146,0.342-0.269,0.353c0.011,0.016,0.022,0.038,0.03,0.04c-0.022,0.108-0.151,0.146-0.217,0.224
			c-0.041-0.048-0.029-0.073-0.021-0.101c-0.032,0.019-0.099,0.021-0.075,0.089l-0.055-0.114c-0.07,0.038-0.105,0.22-0.211,0.13
			c0.042,0.032,0.111,0.111,0.059,0.153c-0.169-0.129-0.068,0.188-0.224,0.183c-0.024-0.045,0.024-0.106,0.007-0.095
			c-0.075-0.004-0.045,0.103-0.031,0.183l-0.049-0.071l-0.1,0.259c-0.17-0.127-0.146,0.185-0.24,0.063
			c-0.068,0.058,0.115,0.016,0.055,0.111c-0.082-0.043-0.041,0.104-0.134,0.001l-0.002-0.021l-0.047,0.063l-0.06-0.132
			c-0.027,0.069,0.028,0.199,0.101,0.276c-0.099-0.009-0.119,0.101-0.224,0.032l-0.008-0.04c-0.09,0.166-0.47-0.056-0.408,0.211
			c-0.021-0.007-0.043-0.031-0.025-0.047l-0.084,0.073l-0.051-0.092l-0.023,0.243l-0.046-0.051c-0.104,0.064-0.213,0.227-0.31,0.354
			L24.85,20.21c-0.047,0.199-0.16,0.073-0.194,0.216c-0.013-0.017-0.015-0.024-0.015-0.03l-0.074,0.082l-0.03-0.063
			c0.047,0.165-0.3,0.034-0.177,0.087c0.015,0.079,0.015,0.195,0.063,0.265c-0.079,0.092-0.082-0.042-0.176-0.028
			c-0.067,0.061,0.006,0.155-0.12,0.197l-0.047-0.05c-0.03,0.049-0.021,0.108-0.066,0.174l-0.008-0.04
			c0.016,0.193-0.253-0.028-0.111,0.257c-0.076,0-0.115,0.103-0.209,0.002c-0.047,0.178-0.104,0.295-0.17,0.448
			c-0.179-0.14-0.014,0.036-0.17,0.016l0.092,0.081c-0.142,0.173-0.528,0.149-0.663,0.364l-0.092-0.08l0.063,0.13
			c-0.223,0.153-0.492,0.37-0.634,0.526c-0.001,0.095,0.032,0.273-0.072,0.323l-0.004-0.02c-0.077,0.189-0.177,0.371-0.369,0.478
			c-0.026-0.042-0.067-0.055-0.076-0.094c0.064,0.13-0.076,0.096-0.111,0.125l0.103,0.022c0.045,0.125-0.094,0.11-0.18,0.071
			l0.031,0.159c-0.013-0.007-0.031-0.014-0.047-0.023l0.034,0.058l-0.149-0.072c0.008,0.04-0.045,0.158,0.04,0.292
			c-0.044-0.028-0.134-0.062-0.11-0.13l-0.254,0.156h0.075c0.093,0,0.081,0.271,0.004,0.273c-0.023-0.119-0.121-0.089-0.205-0.125
			c0.018,0.077,0.105,0.057,0.137,0.12c0.022,0.1-0.03,0.227-0.092,0.215l-0.013-0.057c-0.021,0.09-0.199-0.023-0.245,0.039
			c0.024,0.117-0.075,0.099,0.085,0.229c-0.035,0.104-0.128-0.067-0.165-0.057c0.041,0.103-0.101,0.166-0.189,0.109
			c0.188,0.248-0.262,0.134-0.086,0.321l-0.162-0.035c0.05,0.05,0.152,0.164,0.127,0.233c-0.098-0.002-0.175-0.094-0.24-0.128
			l0.159,0.205c-0.111,0.022-0.208,0.07-0.293,0.13l-0.063,0.05c-0.018,0.011-0.018,0.005-0.025,0.009
			c-0.013,0.004-0.022,0.011-0.032,0.018c-0.04,0.021-0.081,0.051-0.154-0.038c0.014,0.066,0.034,0.225-0.004,0.212l-0.005-0.044
			c-0.003,0.003-0.037-0.064-0.036-0.066c0,0,0.011,0.034,0.02,0.066c0.014,0.033,0.022,0.065,0.022,0.065
			c0.003,0.042,0.01,0.111,0.003,0.111c-0.047-0.076-0.073-0.202-0.091-0.128c-0.004,0.011-0.009,0.025-0.016,0.056
			c-0.018,0.202-0.022,0.103-0.017-0.008c0.003-0.112,0.013-0.229-0.009-0.09c0.005-0.045,0.01-0.087,0.017-0.131
			c-0.024,0.117-0.042,0.178-0.116,0.354c0.087-0.345-0.019-0.013,0.028-0.189l-0.039,0.136c0.018-0.092,0.015-0.132,0.047-0.227
			c0,0-0.017,0.039-0.031,0.077c-0.018,0.035-0.034,0.072-0.034,0.072l0.048-0.13c-0.004-0.021-0.083,0.04,0.042-0.193
			c-0.056,0.077-0.094,0.084-0.111,0.068c-0.004-0.004-0.008-0.009-0.01-0.017c0.005,0.005-0.017-0.022-0.028-0.039L19.21,25.52
			c-0.054-0.074-0.104-0.153-0.151-0.224c-0.106,0.029-0.175-0.037-0.234-0.09l0.053-0.158c-0.085-0.028-0.275,0.029-0.253-0.089
			c0.014-0.01,0.023-0.016,0.033-0.02c-0.073-0.039-0.068-0.15-0.214-0.114c-0.051-0.069-0.051-0.188,0.067-0.257
			c-0.184,0.155-0.099-0.162-0.099-0.162s-2.517-3.782-4.203-3.732c-0.111,0.052-0.237,0.025-0.315,0.15
			c-0.084-0.028,0.046-0.196-0.052-0.131c0.013,0.136-0.248,0.182-0.29,0.36l-0.067-0.03c-0.071,0.045,0.13,0.004,0.005,0.095
			l0.177-0.136c0.013,0.064-0.002,0.117-0.046,0.183c0.099-0.02,0.34-0.195,0.325-0.018l-0.031-0.017
			c0.07,0.07-0.067,0.143-0.078,0.183l-0.014-0.018l-0.027,0.139c0.013-0.099-0.19-0.057-0.144-0.022
			c0.032,0.132,0.02-0.062,0.099-0.011c0.045,0.034-0.055,0.104-0.106,0.146l0.07,0.068c-0.079,0.066-0.04-0.053-0.092,0.048
			l0.161,0.021c-0.178,0.192,0.184,0.018,0.038,0.227c-0.105-0.024-0.061,0.064-0.131,0.112l0.157,0.156
			c-0.014,0.039-0.098,0.01-0.068,0.022c-0.023,0.08,0.092,0.012,0.107,0.027c-0.041,0.063,0.111,0.122-0.023,0.236
			c0.014,0.188,0.203-0.104,0.222,0.068c-0.067,0.085-0.091-0.066-0.131,0.053l0.122,0.084c-0.046,0.022-0.143,0.093-0.162,0.035
			c0.155,0.389-0.115,0.918,0.222,1.093c-0.061,0.121-0.086,0.026-0.172,0.058c0.294,0.082,0.037,0.46,0.194,0.613l0.078-0.067
			c-0.036,0.445,0.349,0.598,0.476,0.949l0.025-0.082c0.106-0.028,0.162,0.021,0.235,0.033c-0.032,0.042-0.19,0.116-0.092,0.165
			c0.014-0.042,0.016-0.102,0.061-0.123c-0.004,0.405,0.458,0.834,0.685,1.291c0.246,0.223,0.451,0.503,0.652,0.784
			c0.099,0.14,0.201,0.279,0.303,0.414l0.08,0.099l0.134,0.156c0.104,0.118,0.209,0.233,0.314,0.344
			c-0.128-0.136,0.091-0.272,0.139-0.127c-0.013,0.313,0.117,0.436,0.245,0.526c0.13,0.095,0.257,0.162,0.324,0.462
			c0.265,0.199,0.117,0.514,0.333,0.812c0.212,0.296,0.332,0.576,0.332,0.59v0.185c0,0.155,0.426,0.056,0.498,0.116l0.167,0.048
			c0.064,0.105,0.224,0.176,0.291,0.229c0.099-0.15,0.228-0.3,0.287-0.315l0.017-0.207c0.091-0.126,0.068,0.097,0.156-0.132
			l0.011,0.103l0.095-0.315c0.025,0.343,0.267-0.287,0.364-0.232c0.115-0.204,0.308-0.599,0.505-0.757
			c0.081,0.097,0.31-0.183,0.484-0.288c0.135-0.184,0.295-0.397,0.471-0.612c0.088-0.111,0.18-0.219,0.273-0.327l0.141-0.156
			l0.073-0.075c0.022-0.021,0.029-0.024,0.046-0.04l-0.12-0.103l0.042-0.064c0.023,0.021,0.045,0.028,0.05,0.05
			c0.168,0.073,0.076-0.169,0.198-0.141c-0.128-0.067-0.051,0.022-0.083,0.057c-0.097-0.004-0.167-0.15-0.056-0.16l0.023,0.021
			l-0.023-0.099c0.094,0.078,0.17,0.076,0.263,0.153c0.145-0.207,0.104-0.476,0.316-0.633c0.081,0.11,0.098-0.16,0.238,0.035
			c0.037-0.175-0.157-0.109-0.233-0.274c0.033-0.028,0.015-0.109,0.083-0.055c0.026,0.055,0.129,0.07,0.121,0.109l0.055-0.088
			c0.021,0.005,0.029,0.043,0.033,0.063c0.041-0.248,0.363-0.174,0.388-0.408c-0.056-0.068-0.068,0.04-0.122-0.028
			c0.001-0.26,0.225-0.021,0.253-0.237l0.062,0.109c-0.021-0.099-0.078-0.188,0.057-0.193c0.111,0.084,0.027,0.141,0.045,0.217
			c0.048-0.045,0.132-0.189,0.006-0.242c0.02-0.088,0.129-0.021,0.184-0.028c-0.021-0.021-0.115-0.009-0.131-0.088
			c0.127-0.021,0.235-0.146,0.332-0.231c0.023,0.021,0.067,0.054,0.072,0.071C24.352,25.538,24.568,25.76,24.635,25.628z"/>
		<path fill="#3C3C3C" d="M28.914,20.194l-0.051,0.022c0.021,0.021,0.043,0.05,0.049,0.091L28.914,20.194z"/>
		<path fill="#3C3C3C" d="M27.1,21.867c0.004,0.013,0.006,0.021,0.015,0.038C27.118,21.895,27.109,21.879,27.1,21.867z"/>
		<path fill="#3C3C3C" d="M26.85,22.468c0.01-0.054-0.041-0.052-0.082-0.062C26.786,22.426,26.809,22.452,26.85,22.468z"/>
		<path fill="#3C3C3C" d="M29.682,18.963c0.002,0.018,0.012,0.036,0.03,0.057C29.706,18.993,29.695,18.977,29.682,18.963z"/>
		<path fill="#3C3C3C" d="M32.645,16.526c-0.008-0.003-0.015-0.003-0.024-0.008C32.626,16.525,32.637,16.528,32.645,16.526z"/>
		<path fill="#3C3C3C" d="M32.348,16.489c-0.009,0.006-0.018,0.019-0.022,0.044C32.346,16.525,32.35,16.507,32.348,16.489z"/>
		<path fill="#3C3C3C" d="M29.032,19.64c-0.009,0.014-0.011,0.03-0.001,0.062C29.044,19.682,29.04,19.663,29.032,19.64z"/>
		<path fill="#3C3C3C" d="M32.311,16.584l-0.051,0.021c0.006,0.007,0.01,0.014,0.018,0.021L32.311,16.584z"/>
		<path fill="#3C3C3C" d="M32.706,16.499c-0.019,0.009-0.041,0.026-0.063,0.028C32.688,16.541,32.705,16.526,32.706,16.499z"/>
		<path fill="#3C3C3C" d="M30.616,17.879c0,0.002-0.002,0.005-0.003,0.007C30.62,17.958,30.625,17.921,30.616,17.879z"/>
		<polygon fill="#3C3C3C" points="32.277,16.92 32.268,16.92 32.28,16.96 		"/>
		<path fill="#3C3C3C" d="M32.92,16.401c-0.007,0.008-0.011,0.019-0.007,0.035c0.012,0,0.022-0.002,0.034-0.005
			C32.934,16.417,32.926,16.409,32.92,16.401z"/>
		<path fill="#3C3C3C" d="M31.359,17.509c-0.023-0.049-0.039-0.079-0.057-0.101C31.29,17.421,31.297,17.448,31.359,17.509z"/>
	</g>
	<path fill="#8CC63F" d="M36.145,32.443c-0.424,0.084-0.781,0.323-0.992,0.667c-0.637,1.039-1.791,4.251-0.502,5.731
		c1.541,1.768,5.082,0.206,5.67-0.624c1.07-1.514,0.779-4.51-0.995-5.43C38.166,32.184,36.889,32.297,36.145,32.443z"/>
	<path fill="#8CC63F" d="M26.033,39.888c-0.29,0.061-0.536,0.225-0.682,0.459c-0.436,0.714-1.23,2.921-0.345,3.938
		c1.058,1.216,3.492,0.145,3.896-0.425c0.736-1.042,0.537-3.101-0.684-3.731C27.422,39.71,26.545,39.785,26.033,39.888z"/>
	<path fill="#8CC63F" d="M16.142,40.048c-0.291,0.061-0.536,0.224-0.682,0.459c-0.436,0.714-1.229,2.921-0.344,3.937
		c1.058,1.218,3.491,0.146,3.896-0.427c0.736-1.041,0.534-3.1-0.684-3.729C17.532,39.867,16.653,39.945,16.142,40.048z"/>
	<path fill="#8CC63F" d="M7.772,37.207c-0.211,0.042-0.391,0.162-0.497,0.336c-0.32,0.518-0.898,2.127-0.251,2.874
		C7.797,41.3,9.57,40.52,9.863,40.104c0.536-0.758,0.39-2.258-0.498-2.721C8.785,37.078,8.146,37.133,7.772,37.207z"/>
	<path fill="#8CC63F" d="M3.057,29.602c-0.152,0.03-0.275,0.115-0.348,0.234c-0.224,0.366-0.631,1.496-0.177,2.016
		c0.54,0.619,1.785,0.071,1.99-0.22c0.376-0.531,0.273-1.584-0.35-1.905C3.766,29.511,3.317,29.551,3.057,29.602z"/>
</g>
</svg>
