<?xml version="1.0" encoding="utf-8"?>
<!-- Generator: Adobe Illustrator 16.0.3, SVG Export Plug-In . SVG Version: 6.00 Build 0)  -->
<!DOCTYPE svg PUBLIC "-//W3C//DTD SVG 1.1//EN" "http://www.w3.org/Graphics/SVG/1.1/DTD/svg11.dtd">
<svg version="1.1" id="Layer_3" xmlns="http://www.w3.org/2000/svg" xmlns:xlink="http://www.w3.org/1999/xlink" x="0px" y="0px"
	 width="45px" height="45px" viewBox="0 0 45 45" enable-background="new 0 0 45 45" xml:space="preserve">
<g>
	<path fill-rule="evenodd" clip-rule="evenodd" fill="#8691BF" d="M36.084,16.875c0,0,0.125-1.25,0.125-1.375s0.375-1,0.375-1
		l1.305-0.978l0.028-0.022l2.333-0.083c0,0,1.449,1.268,1.631,1.53c1.092-1.259,4.819-7.32-8.214-11.613
		C19.5-1.333-0.833,4.5,1.167,18.834c2,14.333,24.334,30.165,30,18.999c0.544-1.071,0.95-2.046,1.257-2.945l-0.132,0.154L30,35.709
		l-1.65-0.162l-0.975-0.505l0.084-15.167l4.833,0.167l0.958,0.917l0.085,5.797c0.078-2.398,0.684-4.675,4.318-8.178l-0.778-0.411
		L36.084,16.875z M15.852,19.313l-0.27,11.125c0,0-3.229-0.063-3.229-0.188s-0.27-10.75-0.27-10.75l-3.669-0.106l0.041-3.198
		c0,0,10.169-0.602,10.263-0.602s0.656,0.625,0.656,0.625l0.047,2.625L15.852,19.313z M33.167,14.833l-1,1.667L31,17h-1.583
		l-1.156-0.099l-0.782-0.807l0.146-4.906l0.834-0.438l1.291-0.417l1.209,0.167l1.25,0.708l1.125,1.542L33.167,14.833z"/>
</g>
<g>
	<path fill-rule="evenodd" clip-rule="evenodd" fill="#3E3C3C" d="M25.014,5.765c-0.008-1.495-0.457-1.467-1.533-1.296
		c-1.107,0.176-2.205,0.383-3.313,0.563c-1.932,0.313-3.867,0.586-5.794,0.927c-3.165,0.559-6.318,1.167-9.481,1.738
		C3.705,7.91,2.937,8.795,2.92,9.998c-0.039,2.625-0.055,5.252-0.143,7.876C2.562,24.318,2.648,30.76,2.936,37.199
		c0.044,0.994,0.731,1.779,1.411,1.908C5.9,39.402,7.461,39.66,9.02,39.932c4.626,0.803,9.228,1.6,13.852,2.41
		C24.091,42.555,25,41.797,25,40.555c0-5.799,0-11.596,0-17.396C25,17.361,25.043,11.563,25.014,5.765z M3.653,10.206
		C3.682,9.139,4.028,8.59,5.334,8.343C5.482,8.315,5.63,8.289,5.778,8.261C4.859,8.876,4.131,9.75,3.642,10.763
		C3.646,10.577,3.648,10.392,3.653,10.206z M8.401,39.115c-1.222-0.211-2.403-0.418-3.625-0.625
		c-0.618-0.105-1.119-0.797-1.146-1.59c-0.171-4.924-0.386-9.846-0.233-14.775c0.102-3.255,0.143-6.512,0.208-9.767
		C4.155,9.938,6.042,7.92,8.69,7.814C8.792,7.81,8.851,7.752,8.888,7.681c2.303-0.433,4.606-0.87,6.913-1.287
		c1.218-0.221,2.452-0.349,3.676-0.539c1.309-0.203,2.45-0.418,3.754-0.646c0.843-0.146,0.957-0.158,0.957,0.728
		c0,5.714,0.063,11.537,0.063,17.25c0,5.34-0.063,10.597-0.063,15.938c-0.436,1.226-1.504,2.165-3.245,2.105
		c-0.056-0.002-0.089,0.026-0.125,0.051C16.67,40.559,12.564,39.835,8.401,39.115z M22.577,41.588
		c-0.074-0.013-0.146-0.025-0.219-0.038c0.734-0.234,1.265-0.684,1.642-1.27C23.993,41.413,23.704,41.783,22.577,41.588z"/>
	<path fill="#3E3C3C" d="M23.272,42.503C23.272,42.503,23.272,42.503,23.272,42.503c-0.138,0-0.279-0.013-0.422-0.038
		c-3.938-0.69-7.86-1.371-11.795-2.053l-3.313-0.574c-1.122-0.192-2.282-0.392-3.42-0.607c-0.705-0.134-1.463-0.928-1.512-2.025
		c-0.31-6.934-0.362-13.259-0.159-19.336c0.067-2.003,0.093-4.043,0.118-6.017c0.008-0.619,0.016-1.238,0.025-1.857
		C2.813,8.748,3.627,7.797,4.87,7.573c1.357-0.245,2.713-0.497,4.069-0.749c1.773-0.33,3.606-0.67,5.413-0.989
		c1.224-0.216,2.47-0.408,3.675-0.595c0.707-0.109,1.415-0.218,2.121-0.333c0.521-0.084,1.039-0.175,1.556-0.265
		c0.585-0.102,1.17-0.204,1.757-0.297c0.281-0.044,0.531-0.082,0.742-0.082c0.685,0,0.93,0.393,0.936,1.5
		c0.019,3.637,0.008,7.333-0.002,10.909c-0.006,2.162-0.012,4.323-0.012,6.485v17.396c0,0.569-0.18,1.058-0.52,1.411
		C24.273,42.312,23.8,42.503,23.272,42.503z M24.203,4.514c-0.193,0-0.433,0.036-0.703,0.079c-0.586,0.093-1.169,0.195-1.753,0.297
		c-0.519,0.09-1.038,0.181-1.559,0.266c-0.708,0.114-1.415,0.224-2.123,0.333c-1.204,0.186-2.449,0.378-3.669,0.594
		C12.589,6.4,10.756,6.741,8.984,7.07c-1.356,0.252-2.712,0.504-4.07,0.749C3.777,8.023,3.061,8.859,3.045,10
		c-0.009,0.619-0.017,1.237-0.025,1.856c-0.025,1.974-0.051,4.015-0.118,6.022c-0.203,6.07-0.151,12.389,0.159,19.315
		c0.043,0.961,0.713,1.678,1.309,1.791c1.135,0.216,2.294,0.415,3.415,0.607l3.313,0.573c3.935,0.683,7.857,1.363,11.795,2.054
		c0.129,0.022,0.256,0.034,0.379,0.034l0,0c0.466,0,0.864-0.159,1.153-0.46c0.294-0.307,0.449-0.734,0.449-1.238V23.158
		c0-2.162,0.006-4.324,0.012-6.485c0.01-3.575,0.021-7.272,0.002-10.908C24.883,4.604,24.601,4.514,24.203,4.514z M23.076,41.763
		c-0.151,0-0.321-0.017-0.521-0.052l-0.723-0.125l0.487-0.155c0.661-0.211,1.19-0.62,1.574-1.218l0.232-0.361l-0.002,0.43
		C24.119,41.17,23.939,41.763,23.076,41.763z M22.826,41.497c0.686,0.079,0.96-0.101,1.03-0.81
		C23.568,41.034,23.224,41.305,22.826,41.497z M20.795,41.404c-1.536-0.268-3.066-0.535-4.596-0.803
		c-2.6-0.455-5.198-0.91-7.819-1.363l-1.108-0.191c-0.837-0.146-1.667-0.289-2.517-0.434c-0.683-0.116-1.22-0.851-1.25-1.709
		l-0.056-1.59c-0.154-4.321-0.313-8.79-0.177-13.193c0.072-2.318,0.115-4.677,0.156-6.958c0.017-0.936,0.034-1.872,0.052-2.808
		c0.611-2.701,2.701-4.566,5.205-4.667C8.721,7.688,8.75,7.676,8.777,7.623l0.028-0.054l1.279-0.24
		c1.897-0.357,3.794-0.714,5.694-1.058c0.736-0.133,1.489-0.234,2.217-0.333c0.488-0.065,0.976-0.131,1.462-0.207
		c0.931-0.144,1.77-0.294,2.658-0.452c0.356-0.063,0.718-0.128,1.093-0.193c0.237-0.041,0.441-0.077,0.594-0.077
		c0.476,0,0.51,0.35,0.51,0.927c0,2.856,0.016,5.789,0.031,8.625c0.016,2.836,0.031,5.769,0.031,8.625
		c0,2.67-0.016,5.364-0.031,7.969s-0.031,5.299-0.031,7.969l-0.007,0.042c-0.495,1.393-1.664,2.191-3.208,2.191
		c-0.053,0-0.106-0.001-0.16-0.003l0,0c-0.007,0-0.013,0.004-0.037,0.02l-0.042,0.029H20.795z M8.965,7.794
		C8.884,7.907,8.776,7.936,8.695,7.939C6.306,8.035,4.31,9.821,3.728,12.386c-0.016,0.91-0.033,1.846-0.049,2.782
		c-0.041,2.282-0.083,4.641-0.156,6.961c-0.137,4.395,0.022,8.859,0.177,13.177l0.056,1.591c0.025,0.729,0.483,1.375,1.042,1.471
		c0.85,0.144,1.68,0.288,2.517,0.433l1.108,0.192c2.621,0.453,5.219,0.908,7.819,1.362c1.514,0.266,3.028,0.53,4.547,0.795
		c0.04-0.023,0.086-0.044,0.147-0.044c0.061,0.002,0.111,0.003,0.161,0.003c1.423,0,2.502-0.73,2.964-2.005
		c0-2.664,0.016-5.351,0.031-7.949c0.016-2.604,0.031-5.298,0.031-7.967c0-2.856-0.016-5.789-0.031-8.624
		c-0.016-2.836-0.031-5.769-0.031-8.626c0-0.677-0.081-0.677-0.26-0.677c-0.131,0-0.325,0.034-0.551,0.073
		c-0.375,0.065-0.736,0.13-1.092,0.193c-0.89,0.159-1.73,0.309-2.664,0.453c-0.488,0.076-0.977,0.141-1.467,0.207
		c-0.725,0.098-1.476,0.199-2.206,0.331c-1.899,0.343-3.796,0.7-5.693,1.057L8.965,7.794z M3.503,11.337l0.024-1.135
		C3.556,9.182,3.863,8.494,5.312,8.22l1.043-0.195l-0.507,0.34c-0.878,0.588-1.602,1.436-2.092,2.452L3.503,11.337z M5.266,8.484
		c-1.222,0.253-1.462,0.785-1.488,1.725l0,0.032C4.174,9.558,4.679,8.962,5.266,8.484z"/>
</g>
<g>
	<path fill-rule="evenodd" clip-rule="evenodd" fill="#3E3C3C" d="M26.997,19.605c0.805,0,1.551,0,2.297,0
		c0.887,0,1.772-0.003,2.66,0.001c1.029,0.005,1.784,0.739,1.784,1.757c0.007,3.783,0.012,7.568,0,11.352
		c-0.004,1.65-1.448,3.174-3.095,3.225c-0.912,0.027-1.839-0.004-2.741-0.133c-0.739-0.105-0.903-0.416-0.904-1.182
		c-0.001-3.697-0.001-7.396-0.001-11.096C26.997,22.252,26.997,20.976,26.997,19.605z M27.714,20.321c0,0.245,0,0.428,0,0.612
		c0,3.102,0.001,6.207,0.001,9.311c0,1.432,0.004,2.863-0.005,4.297c-0.002,0.287,0.039,0.512,0.379,0.539
		c0.689,0.057,1.38,0.154,2.07,0.16c1.745,0.016,2.866-1.129,2.866-2.879c0-2.217,0-4.434,0-6.65c0-1.365,0.004-2.729-0.002-4.093
		c-0.003-0.833-0.469-1.295-1.286-1.296c-1.142-0.002-2.285-0.001-3.427-0.001C28.127,20.321,27.944,20.321,27.714,20.321z"/>
	<path fill="#3E3C3C" d="M30.047,36.073c-0.77,0-1.497-0.048-2.162-0.143c-0.854-0.122-1.011-0.535-1.012-1.306L26.872,19.48
		l4.032-0.001c0.35,0,0.7,0,1.051,0.002c1.105,0.006,1.908,0.797,1.908,1.882c0.007,3.627,0.012,7.491,0,11.352
		c-0.004,1.731-1.507,3.297-3.216,3.35C30.447,36.07,30.247,36.073,30.047,36.073z M27.122,19.73l0.001,14.895
		c0.001,0.75,0.165,0.968,0.797,1.058c0.824,0.119,1.769,0.162,2.72,0.132c1.58-0.049,2.97-1.497,2.974-3.1
		c0.012-3.86,0.007-7.725,0-11.352c0-0.94-0.698-1.627-1.66-1.632c-0.35-0.002-0.699-0.002-1.049-0.002L27.122,19.73z
		 M30.194,35.365h-0.036c-0.483-0.004-0.972-0.053-1.444-0.101c-0.212-0.021-0.424-0.043-0.635-0.06
		c-0.498-0.04-0.495-0.462-0.494-0.665c0.007-1.096,0.006-2.191,0.005-3.286l-0.001-11.058l4.148,0.001
		c0.894,0,1.408,0.518,1.411,1.42c0.004,0.975,0.003,1.949,0.003,2.923l-0.001,7.82C33.15,34.187,31.99,35.365,30.194,35.365z
		 M27.839,20.446l0.001,10.808c0.001,1.096,0.002,2.191-0.005,3.288c-0.002,0.312,0.052,0.396,0.264,0.413
		c0.214,0.018,0.427,0.039,0.641,0.061c0.467,0.047,0.949,0.096,1.421,0.1h0.034c1.644,0,2.706-1.081,2.706-2.754l0.001-7.821
		c0-0.974,0.001-1.947-0.003-2.921c-0.003-0.766-0.404-1.171-1.161-1.171L27.839,20.446z"/>
</g>
<g>
	<path fill-rule="evenodd" clip-rule="evenodd" fill="#3E3C3C" d="M42.361,24.325c-0.004-0.155-0.005-0.311-0.01-0.466
		c-0.021-0.675-0.7-1.32-1.377-1.33c-1.736-0.025-3.474-0.008-5.239-0.008c-0.023,0.109-0.042,0.158-0.042,0.205
		c-0.003,3.086-0.007,6.17,0,9.254c0,0.453,0.207,0.834,0.679,0.889c0.906,0.105,1.822,0.203,2.733,0.193
		c0.808-0.008,1.488-0.247,2.026-0.686c0.014-0.008,0.026-0.02,0.039-0.03c0.397-0.336,0.717-0.781,0.936-1.341
		c0.211-0.539,0.272-1.156,0.291-1.754C42.697,27.646,42.611,25.951,42.361,24.325z M38.887,32.355
		c-0.707-0.004-1.418-0.078-2.121-0.17c-0.135-0.018-0.343-0.258-0.344-0.396c-0.021-2.824-0.016-5.652-0.016-8.554
		c1.49,0,2.919-0.019,4.347,0.01c0.48,0.01,0.842,0.284,0.894,0.81c0.041,0.422,0.052,0.848,0.055,1.271
		c0.006,1.398,0.004,2.795,0.002,4.193c-0.001,0.324-0.059,0.625-0.144,0.908c-0.044,0.125-0.089,0.25-0.139,0.374
		C40.983,31.748,40.063,32.361,38.887,32.355z"/>
	<path fill="#3E3C3C" d="M38.979,33.188c-0.874,0-1.738-0.093-2.621-0.195c-0.494-0.058-0.789-0.436-0.789-1.013
		c-0.006-2.828-0.004-5.655-0.001-8.485l0.001-0.769c0-0.045,0.01-0.086,0.023-0.138l0.043-0.192h0.101
		c0.515,0,1.026-0.001,1.536-0.003c1.239-0.005,2.473-0.008,3.705,0.011c0.747,0.011,1.477,0.716,1.5,1.451
		c0.003,0.09,0.004,0.179,0.006,0.269l0.004,0.198c0.291,1.887,0.303,3.513,0.034,4.952c-0.015,0.502-0.063,1.177-0.298,1.777
		c-0.221,0.564-0.547,1.032-0.971,1.391c-0.022,0.019-0.04,0.033-0.058,0.043c-0.555,0.454-1.263,0.694-2.088,0.702L38.979,33.188z
		 M35.835,22.646c-0.001,0-0.001,0.001-0.001,0.002c-0.009,0.037-0.016,0.063-0.016,0.078l-0.001,0.769
		c-0.003,2.83-0.005,5.657,0.001,8.485c0,0.21,0.056,0.705,0.568,0.765c0.875,0.102,1.731,0.193,2.592,0.193l0.126-0.001
		c0.767-0.008,1.422-0.229,1.948-0.657l0.111,0.072l-0.081-0.095c0.398-0.338,0.701-0.771,0.907-1.298
		c0.221-0.563,0.267-1.211,0.282-1.712c0.266-1.431,0.254-3.029-0.035-4.904l-0.005-0.216c-0.002-0.088-0.003-0.177-0.006-0.265
		c-0.02-0.602-0.64-1.2-1.254-1.209c-1.231-0.019-2.46-0.015-3.7-0.011C36.795,22.645,36.315,22.646,35.835,22.646z M38.903,32.48
		c-0.778-0.004-1.524-0.089-2.154-0.171c-0.197-0.025-0.451-0.317-0.452-0.52c-0.018-2.368-0.017-4.691-0.016-7.152V23.11h0.125
		c0.426,0,0.848-0.002,1.265-0.003c1.046-0.005,2.064-0.008,3.085,0.013c0.571,0.012,0.96,0.365,1.015,0.922
		c0.044,0.453,0.053,0.903,0.056,1.283c0.006,1.396,0.004,2.791,0.002,4.188c-0.001,0.312-0.05,0.62-0.148,0.951
		c-0.047,0.132-0.093,0.259-0.143,0.385C41.063,31.872,40.08,32.48,38.903,32.48z M36.531,23.36v1.277
		c-0.001,2.46-0.002,4.783,0.016,7.15c0.001,0.075,0.163,0.264,0.235,0.273c0.621,0.081,1.358,0.165,2.105,0.169
		c1.092,0,1.991-0.554,2.42-1.481c0.047-0.116,0.091-0.239,0.134-0.362c0.091-0.302,0.136-0.588,0.137-0.867
		c0.002-1.403,0.004-2.797-0.002-4.192c-0.003-0.375-0.011-0.817-0.054-1.261c-0.043-0.434-0.324-0.688-0.772-0.696
		c-1.017-0.021-2.036-0.019-3.078-0.013C37.295,23.358,36.915,23.36,36.531,23.36z"/>
</g>
<g>
	<path fill-rule="evenodd" clip-rule="evenodd" fill="#3E3C3C" d="M26.997,13.833c0-0.716-0.026-1.433,0.015-2.147
		c0.013-0.24,0.132-0.534,0.305-0.695c1.503-1.411,3.831-1.345,5.297,0.125c1.452,1.453,1.494,3.793,0.098,5.313
		c-1.363,1.483-3.718,1.634-5.271,0.348c-0.308-0.254-0.479-0.524-0.452-0.951C27.025,15.165,26.997,14.498,26.997,13.833z
		 M27.714,13.836c0,0.579,0.025,1.159-0.01,1.736c-0.021,0.376,0.137,0.591,0.426,0.789c1.674,1.141,3.802,0.519,4.631-1.362
		c0.52-1.181,0.209-2.612-0.747-3.448c-1.104-0.963-2.533-1.127-3.683-0.435c-0.438,0.263-0.693,0.577-0.63,1.139
		C27.76,12.775,27.714,13.308,27.714,13.836z"/>
	<path fill="#3E3C3C" d="M29.889,17.775c-0.929,0-1.826-0.32-2.529-0.901c-0.375-0.31-0.523-0.625-0.497-1.055
		c0.026-0.459,0.021-0.931,0.015-1.388c-0.002-0.199-0.005-0.398-0.005-0.598c0-0.201-0.002-0.402-0.004-0.603
		c-0.006-0.508-0.011-1.034,0.019-1.551c0.016-0.283,0.157-0.604,0.345-0.779c0.723-0.679,1.665-1.053,2.652-1.053
		c1.059,0,2.059,0.419,2.818,1.18c1.502,1.503,1.546,3.913,0.101,5.486C32.066,17.316,31.004,17.775,29.889,17.775z M29.884,10.098
		c-0.924,0-1.805,0.35-2.481,0.985c-0.143,0.132-0.254,0.389-0.266,0.61c-0.029,0.509-0.024,1.03-0.019,1.535
		c0.002,0.202,0.004,0.404,0.004,0.605c0,0.198,0.003,0.396,0.005,0.594c0.006,0.461,0.012,0.938-0.015,1.406
		c-0.021,0.351,0.092,0.588,0.406,0.848c0.658,0.544,1.5,0.844,2.37,0.844c1.046,0,2.041-0.43,2.73-1.18
		c1.354-1.475,1.313-3.732-0.095-5.141C31.813,10.491,30.875,10.098,29.884,10.098z M29.927,17.058L29.927,17.058
		c-0.651,0-1.297-0.206-1.867-0.594c-0.253-0.173-0.508-0.415-0.48-0.899c0.024-0.402,0.02-0.814,0.015-1.213
		c-0.003-0.172-0.005-0.343-0.005-0.515c0-0.162,0.004-0.325,0.009-0.487c0.009-0.357,0.02-0.727-0.021-1.081
		c-0.079-0.697,0.305-1.028,0.689-1.26c0.479-0.289,1.025-0.442,1.577-0.442c0.795,0,1.595,0.316,2.252,0.889
		c1.004,0.878,1.324,2.355,0.779,3.593C32.329,16.288,31.199,17.058,29.927,17.058z M29.844,10.816
		c-0.507,0-1.008,0.141-1.448,0.406c-0.462,0.278-0.621,0.563-0.57,1.018c0.042,0.371,0.032,0.75,0.022,1.115
		c-0.005,0.161-0.009,0.321-0.009,0.481c0,0.17,0.002,0.341,0.005,0.512c0.005,0.404,0.01,0.821-0.015,1.232
		c-0.018,0.297,0.083,0.481,0.371,0.678c0.528,0.36,1.125,0.55,1.727,0.55c1.172,0,2.214-0.712,2.72-1.86
		c0.501-1.139,0.207-2.498-0.715-3.304C31.32,11.11,30.578,10.816,29.844,10.816z"/>
</g>
<g>
	<path fill-rule="evenodd" clip-rule="evenodd" fill="#3E3C3C" d="M42.111,14.252c-0.429-0.57-1.267-1.021-2.039-1.198
		c-0.317-0.103-0.647-0.175-0.998-0.179c-1.848-0.022-3.373,1.465-3.383,3.298c-0.009,1.897,1.447,3.391,3.322,3.405
		c1.775,0.013,3.228-1.349,3.373-3.08C42.61,15.745,42.624,14.934,42.111,14.252z M39.017,18.861c-1.456-0.01-2.62-1.219-2.609-2.71
		c0.011-1.371,1.26-2.573,2.661-2.561c1.375,0.012,2.62,1.249,2.629,2.61C41.707,17.625,40.45,18.872,39.017,18.861z"/>
	<path fill="#3E3C3C" d="M39.039,19.703L39.039,19.703h-0.026c-1.941-0.015-3.455-1.565-3.446-3.531
		c0.01-1.887,1.565-3.423,3.467-3.423l0.043,0c0.327,0.004,0.656,0.063,1.034,0.185c0.852,0.195,1.681,0.683,2.101,1.242
		c0.474,0.629,0.573,1.422,0.296,2.357C42.36,18.3,40.836,19.703,39.039,19.703z M39.033,12.999c-1.765,0-3.207,1.424-3.217,3.174
		c-0.009,1.826,1.396,3.266,3.198,3.28l0.024,0.125v-0.125c1.668,0,3.083-1.302,3.223-2.965c0.259-0.879,0.173-1.598-0.25-2.161
		c-0.381-0.507-1.172-0.97-1.968-1.151c-0.364-0.118-0.67-0.172-0.972-0.176L39.033,12.999z M39.034,18.986
		c-0.757-0.005-1.447-0.303-1.962-0.838c-0.515-0.535-0.796-1.244-0.79-1.998c0.011-1.43,1.304-2.685,2.765-2.685h0.022
		c1.432,0.013,2.744,1.316,2.753,2.734c0.005,0.704-0.294,1.412-0.82,1.942C40.469,18.679,39.752,18.986,39.034,18.986z
		 M39.047,13.591v0.125c-1.329,0-2.505,1.139-2.515,2.437c-0.005,0.688,0.251,1.335,0.72,1.822c0.468,0.486,1.096,0.757,1.766,0.762
		l0,0c0.668,0,1.32-0.281,1.807-0.77c0.479-0.483,0.752-1.126,0.748-1.764c-0.009-1.29-1.202-2.475-2.505-2.486L39.047,13.591z"/>
</g>
<g>
	<path fill-rule="evenodd" clip-rule="evenodd" fill="#3E3C3C" d="M11.808,19.8c-0.962,0-1.862-0.004-2.762,0.001
		c-0.96,0.007-1.119-0.139-1.121-1.074c-0.001-0.597-0.003-1.194,0-1.791c0.005-0.75,0.19-0.974,0.949-1.037
		c1.036-0.085,2.075-0.135,3.112-0.199c2.194-0.134,4.389-0.268,6.582-0.402c0.187-0.011,0.376-0.029,0.562-0.021
		c0.568,0.025,0.863,0.282,0.885,0.849c0.03,0.749,0.031,1.5,0.001,2.25c-0.027,0.622-0.36,0.951-1.009,1.003
		c-0.914,0.073-1.832,0.105-2.823,0.16c0,0.221,0,0.417,0,0.615c-0.005,3.24-0.011,6.479-0.016,9.719
		c-0.002,0.918-0.23,1.133-1.161,1.102c-0.647-0.021-1.295-0.033-1.941-0.061c-0.745-0.033-1.152-0.424-1.226-1.168
		c-0.025-0.256-0.03-0.512-0.03-0.768c-0.001-2.898,0-5.797,0-8.695C11.808,20.102,11.808,19.92,11.808,19.8z M8.688,16.623
		c0,0.868,0,1.657,0,2.399c1.288,0,2.527,0,3.835,0c0,0.163,0,0.362,0,0.561c0,3.187-0.003,6.374,0.005,9.56
		c0.001,0.268,0.059,0.539,0.135,0.795c0.031,0.104,0.178,0.242,0.275,0.244c0.826,0.021,1.652,0.012,2.545,0.012
		c0-3.775,0-7.549,0-11.334c0.217-0.016,0.368-0.029,0.52-0.037c0.936-0.045,1.873-0.074,2.806-0.146
		c0.171-0.013,0.464-0.194,0.471-0.31c0.042-0.775,0.022-1.555,0.022-2.389C15.731,16.194,12.221,16.408,8.688,16.623z"/>
	<path fill="#3E3C3C" d="M15.166,31.104c-0.053,0-0.107-0.001-0.165-0.003c-0.248-0.009-0.497-0.015-0.746-0.021
		c-0.399-0.012-0.798-0.022-1.197-0.039c-0.801-0.036-1.266-0.479-1.345-1.28c-0.027-0.275-0.03-0.549-0.03-0.78
		c-0.001-2.07-0.001-4.141,0-6.211v-2.844l-1.552-0.001c-0.364,0-0.724,0-1.083,0.003H8.985c-0.973,0-1.183-0.213-1.186-1.199
		c-0.001-0.598-0.003-1.195,0-1.792c0.006-0.823,0.254-1.094,1.063-1.161c0.74-0.061,1.493-0.104,2.22-0.146
		c0.298-0.018,0.596-0.035,0.894-0.053l6.694-0.409c0.155-0.011,0.31-0.021,0.463-0.014c0.651,0.029,0.979,0.346,1.004,0.969
		c0.03,0.757,0.03,1.518,0.001,2.26c-0.03,0.688-0.408,1.065-1.124,1.123c-0.634,0.051-1.264,0.082-1.931,0.114
		c-0.255,0.013-0.513,0.025-0.777,0.04l-0.017,10.215C16.29,30.817,16.026,31.104,15.166,31.104z M10.13,19.674l1.802,0.001v3.094
		c0,2.07,0,4.141,0,6.211c0,0.226,0.003,0.491,0.029,0.756c0.067,0.68,0.429,1.024,1.107,1.055c0.397,0.017,0.795,0.027,1.193,0.039
		c0.249,0.007,0.499,0.014,0.747,0.021c0.846,0.033,1.03-0.115,1.032-0.977l0.017-10.452l0.118-0.007
		c0.305-0.017,0.603-0.031,0.896-0.045c0.665-0.033,1.293-0.063,1.924-0.114c0.585-0.047,0.87-0.328,0.894-0.884
		c0.029-0.735,0.029-1.489-0.001-2.24c-0.019-0.488-0.248-0.706-0.765-0.729c-0.148-0.006-0.29,0.003-0.436,0.013l-0.835,0.052
		l-5.86,0.358c-0.298,0.018-0.597,0.035-0.895,0.053c-0.727,0.042-1.478,0.085-2.214,0.146c-0.681,0.056-0.829,0.218-0.834,0.913
		c-0.003,0.596-0.001,1.192,0,1.789c0.002,0.853,0.099,0.95,0.936,0.95h0.06C9.406,19.674,9.766,19.674,10.13,19.674z M14.248,30.32
		c-0.443,0-0.877-0.002-1.311-0.014c-0.158-0.003-0.348-0.187-0.392-0.334c-0.094-0.313-0.14-0.586-0.141-0.83
		c-0.006-2.526-0.006-5.054-0.006-7.582l0-2.414H8.563v-2.642l10.866-0.662v0.133c0,0.208,0.001,0.411,0.002,0.613
		c0.004,0.615,0.007,1.197-0.024,1.783c-0.013,0.218-0.398,0.414-0.586,0.428c-0.678,0.053-1.367,0.083-2.034,0.112
		c-0.258,0.011-0.517,0.022-0.776,0.035c-0.101,0.005-0.203,0.013-0.324,0.022l-0.077,0.006v11.343L14.248,30.32z M8.813,18.897
		h3.835l0,2.664c0,2.528,0,5.055,0.006,7.582c0.001,0.22,0.043,0.468,0.13,0.759c0.018,0.059,0.118,0.15,0.159,0.155
		c0.432,0.012,0.863,0.014,1.304,0.014l1.112-0.002V18.743l0.308-0.023c0.124-0.009,0.227-0.017,0.331-0.022
		c0.259-0.012,0.518-0.024,0.777-0.035c0.665-0.029,1.352-0.059,2.025-0.111c0.125-0.01,0.334-0.145,0.358-0.203
		c0.03-0.568,0.026-1.146,0.022-1.757c-0.001-0.159-0.002-0.319-0.002-0.481L8.813,16.741V18.897z"/>
</g>
</svg>
