<?xml version="1.0" encoding="utf-8"?>
<svg version="1.1" xmlns="http://www.w3.org/2000/svg" xmlns:xlink="http://www.w3.org/1999/xlink" x="0px" y="0px" width="100%" height="100%" viewBox="0 0 188 7">
<g>
	<path d="M187.465,3.305l0.438,0.082C188.182,2.996,187.808,3.259,187.465,3.305z"/>
	<path d="M187.465,3.305l-0.31-0.06C187.238,3.311,187.348,3.319,187.465,3.305z"/>
	<path d="M184.582,3.034c0.664-0.308,1.453,0.117,1.868-0.358C185.781,2.393,184.748,2.512,184.582,3.034z"/>
	<polygon points="185.661,3.082 185.08,3.486 185.578,3.341 	"/>
	<polygon points="185.384,3.636 185.001,3.747 185.653,3.636 185.993,3.579 185.91,3.483 	"/>
	<path d="M182.839,2.348c-0.872-0.165-0.041,0.308-0.498,0.499l0.664-0.072c0.622,0.354-0.411,0.476,0.005,0.713
		c0.829-0.002,0.285-0.737,1.323-0.621C184.25,2.535,182.673,2.871,182.839,2.348z"/>
	<path d="M172.18,2.264c-0.188-0.048-0.344-0.016-0.482,0.046C171.816,2.388,171.969,2.403,172.18,2.264z"/>
	<path d="M165.754,2.27l0.045-0.013C165.77,2.211,165.754,2.203,165.754,2.27z"/>
	<path d="M142.375,5.536C142.413,5.67,142.676,5.601,142.375,5.536L142.375,5.536z"/>
	<path d="M145.752,4.99c-0.108-0.007-0.218-0.015-0.331-0.022C145.526,4.994,145.633,5.02,145.752,4.99z"/>
	<path d="M158.483,5.179c-0.022-0.011-0.039-0.02-0.061-0.03C158.404,5.225,158.453,5.214,158.483,5.179z"/>
	<path d="M145.114,4.961l0.307,0.006C145.326,4.942,145.229,4.922,145.114,4.961z"/>
	<path d="M182.175,2.538c-0.457-0.048-1.408-0.188-1.241,0.121l0.166,0.071c-0.028,0.132-0.156,0.206-0.273,0.271h0.447
		c-0.125,0-0.255,0.464-0.336,0.526c0.232,0.018,0.366,0.079,0.479-0.049c0.205-0.234,0.335-0.495,0.846-0.449
		C181.847,2.91,181.926,2.727,182.175,2.538z"/>
	<path d="M180.685,3.086c0.038-0.029,0.089-0.057,0.142-0.086h-0.486C180.391,3.051,180.486,3.086,180.685,3.086z"/>
	<path d="M171.811,2.587c0.009,0.014,0.006,0.024,0.013,0.037c0.028-0.006,0.057-0.013,0.084-0.019L171.811,2.587z"/>
	<path d="M180.27,2.611c-1.037-0.116-0.085,0.736-1.034,0.713l-0.124-0.46c-0.228,0.095-0.506,0.122-0.75,0.131
		c0.027-0.021,0.063-0.033,0.086-0.058c-0.499-0.214,0.284-0.339,0.494-0.578l-1.573,0.532c-0.125-0.143-0.585-0.625-0.872-0.244
		l0.125,0.044c-0.625,0.119-0.457,0.556-0.996,0.414c-0.083-0.095,0.083-0.256,0.125-0.327c-0.499-0.096-0.416,0.24-0.748,0.335
		c-0.498-0.093,0.249-0.426-0.166-0.543c-0.577,0.404-0.913-0.413-1.413-0.388C173.608,2.695,171.984,3,172.248,3h-0.696
		c0.199,0,0.39-0.151,0.271-0.376c-0.549,0.127-1.189,0.285-1.572-0.028c0.132,0.011,0.287,0.028,0.518,0.065
		c0.354,0.153,0.585-0.194,0.929-0.351c-0.325-0.207-0.423-0.87-0.842-0.143l0.084,0.098c-0.252-0.167-0.624,0.119-0.914,0.142
		c0.017,0.038,0.038,0.065,0.058,0.097c-0.448-0.02-0.372,0.098-1.303-0.255l0.166,0.679c-0.492-0.148-0.657-0.484-0.683-0.611
		l0.018-0.001c-0.02-0.056-0.027-0.045-0.021-0.008c-0.294,0.042-0.559,0.031-0.83,0.003c0.071-0.098,0.174-0.183,0.351-0.218
		c-0.377-0.366-0.486-0.228-0.619-0.034c-0.204,0.167-0.514,0.145-0.825,0.139l0.282-0.245c-0.193,0.055-0.426,0.126-0.447,0.246
		c-0.131,0.002-0.254,0.017-0.372,0.058c0.084,0.114,0.291,0.499,0.739,0.67c-1.161-0.259-2.07-0.117-3.066-0.661
		c0.037-0.19,0.452-0.428,0.328-0.452c-0.498-0.095-1.038,0.238-0.993,0.523c-0.113,0.019-0.199,0.025-0.274,0.028
		c-0.095-0.164-0.211-0.339-0.448-0.368c-0.054-0.06-0.145-0.112-0.314-0.133c-0.166,0.522-1.12,0.261-1.327,0.499
		c0.226,0.054,0.501,0.05,0.78,0.032c-0.4,0.349-0.758,0.748-1.067,0.467c0.742-0.333-0.793-0.545,0.327-0.689
		c-0.788-0.664-0.41,0.475-1.245,0.24l-0.539-0.262c0.084-0.38,0.872-0.19,0.747-0.333l-0.374,0.047
		c0.374-0.285,1.785-0.098,2.653-0.525l-1.743-0.212c-2.196,0.453-4.936-0.067-6.799,0.767l0.078-0.011
		c-0.032,0.037-0.048,0.108-0.074,0.253l-0.083-0.095l-0.37,0.287c-0.419-0.356-1.204-0.427-1.872-0.71
		c0.419,0.236,0.419,0.236,0.461,0.521c-0.083,0.381-0.147,0.542-0.771,0.402c-0.006-0.27,0.379-0.263-0.082-0.478
		c0.238,0.133,0.026,0.323-0.245,0.357c-0.351-0.175-0.936-0.212-0.942-0.484c0.162-0.073,0.293,0.02,0.402,0.06
		c0.163-0.072-0.659-0.244-0.177-0.466l-0.634,0.078c-0.37-0.227,0.245-0.356,0.099-0.501c-1.054,0.184-1.593,0.806-2.548,0.99
		c0.046-0.144,0.056-0.747,0.046-0.572c-0.525-0.13-1.104,0.26-1.696,0.511c-0.992-0.089-1.777-0.149-2.773-0.219V1.758
		c-1-0.104-2.797-0.236-4.254-0.571l-0.642,0.593l-0.637-0.395c-2.52-0.379-4.459,0.004-6.855,0.182
		c-0.748,0.037-0.452-0.414-0.804-0.581c-1.637-0.067-2.037,0.603-3.601,0.736c0.216-0.182,0.582-0.693-0.09-0.718
		c-0.125,0.172-0.208,0.44-0.633,0.335l0.217-0.182c-0.389-0.267-0.763-0.015-1.565-0.128c-1.419,0.012-2.773,0.432-3.94,1.088
		c-1.255-0.06,0.131-0.639-0.108-0.767c0.885,0.217,0.614-0.105,0.808-0.311c-0.469,0.168-1.034,0.271-1.275-0.153
		c-0.653,0.026-0.947,0.006-1.592,0.292c0.324-0.143,0.603,0.085,0.299,0.277c-0.533-0.147-1.892,0.014-1.815-0.515
		c-3.091,0.104-6.547-0.008-9.856,0.017c-0.559,0.273,0.423,0.105,0.117,0.298c-0.812,0.355-0.642-0.185-1.291,0.099l0.269-0.289
		c-0.966-0.043-1.992,0.492-2.928,0.759c0.154-0.329-0.771-0.273,0.008-0.468c-0.457,0.055-1.014-1.417-1.366-1.116l0.515,1.371
		c-0.024,0.134-0.665,0.052-0.602,0.143c-0.399-0.271-0.891-0.589-1.168-0.587c-0.134-0.347,0.561-0.272,0.941-0.265
		C100.207,0.323,98.867,0.53,99.418,0c-0.814,0.095,0.117,0.297-0.371,0.511l-0.711-0.124l0.548,0.194
		c-0.593,0.174-0.797,0.614-1.59,0.291l-0.822,0.565c-0.083-0.457-0.6-0.083-1.023-0.19l0.265-0.292
		c-0.563,0.014-0.78-0.064-1.131-0.232c0.316-0.401,0.508,0.097,0.645-0.283l-0.618-0.134c0.003,0.258-0.391,0.461,0.053,0.618
		c-0.574,0.482-0.888,0.883-2.325,0.843c-0.648-0.443,0.699-0.393,0.429-0.829c-1.493-0.188-1.824,1.15-2.696,1.096
		c-1.112-0.181-1.048,0.228-2.177,0.257c0.358-0.302-0.788-0.323-0.996-0.61l0.445-0.312c-0.343,0.093-0.672-0.025-0.569-0.245
		c0.063,0.408-1.464,0.381-2.242,0.575l0.137,0.348c-0.608,0.116-1.449,0.335-2.095,0.246c-0.958,0.112-0.74,0.419-1.479,0.799
		c-0.408-0.314-0.362-0.685-0.227-1.065c0.257,0.178,0.69,0.074,1.112,0.182c1.212-0.3,2.153-1.033,3.362-0.864
		c0.524-0.843-0.815,0.098-1.403-0.199c0.019-0.05,0.06-0.066,0.105-0.075c-0.053-0.001-0.099-0.006-0.147-0.024
		c0.434-0.104,1.14-0.238,1.257-0.668c-0.725,0.087-0.524,0.841-1.427,0.48c-0.667,0.235-1.211-0.428-1.615-0.487
		c-0.444,0.315-0.463,0.991-1.558,0.861l0.479-0.473c-1.237-0.009-0.581,0.692-1.728,0.671c0.403,0.056-0.39,0.463,0.377,0.476
		c-0.377,0.252-1.212,0.3-1.834,0.163c-0.162,0.073-0.034,0.161-0.064,0.321c0.69,0.328,1.091-0.318,1.657,0.153l0.478-0.509
		c0.642,0.184,0.706,0.594,0.313,0.794c0.182-0.021,0.34-0.092,0.473-0.003c0.109,0.767-0.771-0.272-0.992,0.377l0.452-0.055
		c0.072,0.184-0.055,0.291-0.271,0.352c-0.369,0.104-1.003,0.072-1.371,0.051c-0.055-0.019-0.104-0.033-0.157-0.051
		c-0.593-0.194-1.11-0.297-1.151-0.627L78.1,2.717c-0.459-0.288-1.132,0.169-1.648,0.155c-0.034-0.05-0.083-0.087-0.144-0.113
		c0.026,0.032,0.041,0.064,0.041,0.1c-0.109-0.018-0.206-0.062-0.289-0.148c-0.453-0.019-1.118,0.202-1.54,0.087l0.053,0.322
		l0.057-0.181c0.415,0.013,0.978,0.21,0.664,0.45c-0.936,0.224-1.124-0.396-1.347-0.676c0.215-0.494,0.913,0.005,1.389-0.164
		c-0.287-0.487-0.952-0.051-1.917-0.374c0.385-0.536,1.12,0.008,1.332-0.486c-0.777-0.091-0.981,0.289-1.8,0.153
		c0.104-0.249,0.902-0.271,0.85-0.59L73.274,1.1c1.29-0.031-0.227-0.666,0.781-0.796c-0.476-0.219-0.664,0.436-1.34,0.097
		c0.188,0.233,0.729,0.657,0.082,0.866l-0.73-0.157c-0.306-0.258,0.762-0.569,0.286-0.788l-0.766,0.182
		c0.026,0.159,0.393,0.24,0.162,0.459c-0.441-0.172-0.725,0.616-1.246,0.852c-0.413-0.012-0.742-0.045-0.89-0.231
		c-1.044,0.472-2.37,0.455-3.331,0.904c0.656-0.321-0.026-0.546-0.419-0.787c0.756-0.067,0.762-0.567,0.709-0.889
		c-0.46,0.054-0.762,0.569-0.529,0.737c-0.77-0.205-0.531,0.348-1.206,0.01c-0.438-0.173,0.218-0.494,0.067-0.682
		c-0.829-0.023-0.226,0.608-1.128,0.49c0.049-0.066,0.133-0.086,0.061-0.18c-0.487-0.105-1.011,0.13-1.116,0.378
		c-0.518-0.652-1.461,0.07-1.359-0.563c-1.177,0.169,0.176,0.346-0.057,0.567c-0.481,0.281-1.373,0.051-1.652-0.05
		c0.29-0.014,0.559-0.188,0.838-0.089l-0.248-0.44c-1.465-0.314-0.93,0.997-2.345,0.614c0.729-0.229,0.241-0.333,0.604-0.644
		c-0.219,0.11-1.328-0.013-0.657,0.324c-0.531-0.037-0.901-0.116-1.268-0.196c-0.472,0.169-0.984,0.291-1.259,0.579
		c-0.744-0.046-1.296-0.358-1.651-0.55c-1.564,0.318-3.01-0.226-4.658,0.114l0.121,0.026c-1.279-0.082,0.565,0.586-0.764,0.57
		c0.178-0.541-0.795-0.365-1.226-0.65c-1.63-0.277-2.819,0.395-4.32,0.031c0.012-0.113,0.109-0.248,0.4-0.261
		c-1.147-0.17-2.071-0.062-3.105-0.091l0.045-0.066c-1.657-0.437-3.162,0.089-4.879,0.219c0.14-0.068,0.176-0.271,0.283-0.343
		c-0.863-0.122-2.237-0.2-2.844,0.292C31.776,0.468,32,1.004,31,0.694v0.029c0-0.028-0.173-0.051-0.278-0.094
		c-0.075-0.1,0.127-0.093,0.215-0.115c-0.649-0.186-1.112-0.128-1.769-0.194c-1.448,0.359-1.809,1.086-3.491,0.867
		c-0.087-0.768,1.034-0.19,1.071-0.801c-0.336,0.136-0.627,0.292-1.091,0.11c0.279-0.3,0.06-0.188,0.253-0.469
		c-0.355-0.202-1.431,0.8-1.423,0.727c-0.019,0.148,0.103,0.229,0.436,0.208C24.529,1.433,23.27,1,22.454,1.191
		c0.265,0.013,1.098,0.163,0.785,0.526c-1.095-0.163-1.458,0.575-2.223,0.88c-1.008-0.347,0.743-0.645,0.555-1.182
		c-0.17-0.196-0.574-0.626-0.15-0.836c-0.906-0.114-1.56,0.346-2.366,0.463l0.022-0.152c-1.129,0.063-2.332,0.727-3.278,0.421
		L16.3,1.485c-0.186,0.091-0.755,0.047-1.067,0.357c0.033-0.253-0.702-0.48-0.4-0.688c-0.502,0.81-2.565,0.491-3.127,1.257
		c-0.303-0.203-0.061-0.53,0.029-0.715c0.713,0.07,0.954,0.23,1.328-0.092c-0.593,0.011-1.025-0.197-0.936-0.382
		c-0.592,0.503-2.003,0.703-2.302,1.206C9.392,2.175,8.979,2.039,9.131,1.619c-1.818,0.262,0.898,1.295-1.154,1.289
		C7.041,2.501,8.89,2.357,7.599,2.219l0.238-0.066C6.905,1.072,7.184,2.924,6.127,2.888c-0.14-0.589,0.736-0.42,0.007-0.842
		C5.169,2.194,4.747,3.067,3.781,2.878l0.151-0.25C3.313,2.674,2.113,2.554,1.498,2.601c-0.03-0.117,0.061-0.1,0.178-0.131
		C0.536,2.247,1.2,2.77,0.268,2.363L0,2.649C0.468,2.852,1.374,3.14,1.966,2.804c-0.43,0.244,0.247,0.527,0.542,0.854
		C2.62,3.783,2.681,3.913,2.6,4.051l0.117-0.202c1.546,0.864,3.539,0.972,5.501,1.296c1.238-0.602,2.104,0.242,3.434-0.173
		c0.207-0.688,0.248-0.139,1.388-0.277c-0.604,0.086-0.072,0.523,0.31,0.616c0.223-0.178,0.495-0.243,0.766-0.305
		c0.23,0.235,1.668,0.789,2.192,0.322c0.694,0.221-0.162,0.221-0.314,0.363c0.283,0.353,0.566-0.276,0.797-0.04
		c0,0-0.011,0.075-0.084,0.109C17.769,5.734,18.401,5.914,19.508,6c0.09-0.675,1.086-0.254,1.577-0.495
		c-0.159,0.217,0.622,0.252,0.935,0.38l0.593-0.501c0.585-0.427,0.815,0.299,1.571,0.069l-0.183-0.121
		c0.555-0.202,2.019,0.203,2.563,0.567C28.229,5.468,30,5.4,31,5.487c3,0.172,5.228,0.75,8.86,0.52
		c0.351-0.194-0.262-0.327,0.015-0.614c0.547-0.074,0.669-0.047,1.167-0.057c-0.44-0.173-0.371,0.042-0.314-0.138l-0.763,0.182
		c-0.037-0.048,0.046-0.067-0.026-0.159c-0.256,0.06-0.559,0.188-0.888,0.155c0.473-0.167,0.604-0.644,1.251-0.462
		C40.253,4.979,40.169,5,39.999,5.041c0.532,0.038,0.558-0.19,0.959-0.064c0.489,0.106,0.369-0.041,0.434,0.166l1.52,0.256
		c0.76-0.569,1.694-0.027,1.94,0.026c-0.166,0.427-1.007,0.131-1.381,0.551l0.548,0.312l0.033-0.342l0.78,0.094l-0.044,0.065
		c0.093-0.133,0.188-0.266,0.388-0.148c0.034,0.048,0.109,0.141,0.023,0.161l0.559-0.188c-0.325,0.354,0.487,0.105,0.406,0.513
		c1.818,0.205,2.313-0.55,3.913,0.006c-0.26-0.192,0.506-0.644,0.998-0.568c0.285,0.099,0.357,0.192,0.176,0.347l0.645-0.208
		c0.808,0.637,1.597,0.227,2.781,0.444l-0.063,0.18c0.439-0.213,0.911-0.383,1.571-0.316l-0.121,0.359
		c0.807,0.253,0.615-0.754,1.506-0.524c-0.005-0.387-0.565-0.585-0.652-0.951c0.211,0.393,1.165,0.451,0.942,0.171
		c0.888-0.158,0.615,0.01,0.691,0.104l0.521-0.236c0.622,0.019,0.198,0.507-0.031,0.728c0.581-0.416,1.216-0.123,1.875-0.058
		L60.65,6.094l0.866,0.07c0.566-0.302,1.359-0.325,2.091-0.166l-0.506,0.509c0.514,0.265,0.264-0.176,0.4-0.263
		c0.812-0.248,0.984,0.097,1.413,0.384c1.3-0.531,2.587,0.834,3.7,0.071L68.75,7c1.518-0.639,3.257,0.277,4.464-0.621
		c1.847,1.055,1.211-0.944,2.906,0l-0.057-0.15c5.568,0.177,11.477,0.729,16.685,0.22l-0.012,0.211
		c8.392,0.362,16.564-0.081,24.881,0.085c0.776-0.195,0.309-0.66,0.977-0.896c0.291,0.019,0.946-0.007,0.95,0.252
		c-0.562,0.143-0.244,0.372-0.437,0.474c0.935-0.027,2.143,0.273,2.977-0.044l-0.698-0.334c0.324-0.141,0.834-0.045,1.128-0.029
		c-0.124,0.172,0.303,0.538,0.05,0.619c1.76-0.833,1.373,0.357,2.855,0.029c0.294-0.711,2.15-1.294,3.374-1.802l0.641,0.185
		c-0.853-0.004,0.016,0.519-1.041,0.485c0.883,0.206,1.702-0.1,2.535,0.014c-0.162-0.178-0.121-0.412,0.215-0.492
		c0.514,0.097,0.559,0.455,1.145,0.49l-0.578,0.223c0.389,0.267,0.725-0.085,1.086-0.128c0.117,0.297,0.993,0.352,0.839,0.683
		c0.788-0.405,1.067-0.177,1.916-0.434c-0.883-0.313,0.227-0.392,0.128-0.639l-0.996,0.118c1.404,0.199-0.455,0.053-0.35,0.561
		c-0.661-0.234,0.905-0.836-0.2-0.757c1.32-0.258,1.6-0.031,2.95-0.451c-0.814,0.096,0.154-0.331-0.283-0.485
		c1.034-0.02,0.257,0.177,0.577,0.503c0.563-0.015,0.771,0.273,1.287-0.101c0.913,0.153-0.137,0.381,0.324,0.587
		c-0.338,0.35-2.54-0.431-2.29,0.685c-0.476,0.012-1.057,0.438-1.743,0.416c0.6,0.146,1.456,0.513,2.195,0.259l0.038-0.629
		c0.563-0.016,0.679-0.442,1.083-0.387c-0.215,0.182,0.173,0.447,0.626,0.395c-0.128-0.089-0.31-0.068-0.26-0.178
		c0.838-0.048,0.955-0.476,1.95-0.594c-0.822-0.163-0.992-0.351-1.762-0.624c0.207-0.44,0.543-0.064,0.996-0.118
		c-0.067,0.06-0.162,0.072-0.03,0.159l0.482-0.211c1.027,0.19-0.092,0.638,0.754,0.851C141.461,5.67,142,5.427,142,5.366v0.219
		c0-0.022,0.158-0.022,0.275,0.035c-0.029-0.041-0.08-0.084-0.104-0.117c0.1,0.008,0.16,0.019,0.213,0.033
		c-0.003-0.011-0.011-0.02-0.011-0.033c0.543-0.067,1.126-0.03,1.28-0.374c0.057,0.156,0.474-0.045,0.651-0.152
		c0.304-0.138,1.03-0.543,1.482,0.009c-0.012,0.004-0.023,0-0.035,0.003c0.679,0.066,1.207,0.239,1.061,0.425l1.095,0.138L147.79,6
		c0.996-0.122,0.897-0.382,1.581-0.845c0.713,0.266,1.963,0.052,2.434-0.114c0.079,0.017,0.199,0.019,0.397-0.005l-0.417-0.176
		c0.742,0.018,0.736-0.149,1.174-0.167C152.961,4.696,153,4.699,153,4.702V4.694c0,0.007,0.119,0.001,0.248,0.004
		c0.035,0.006,0.049,0.009,0.081,0.011c-0.03,0.029-0.089,0.018-0.191-0.002l0.117,0.143c0.623,0.476,0.968-0.272,1.633-0.106
		c-0.064,0.017-0.165,0.046-0.233,0.041c0.374,0.121,0.913,0.753,1.067,0.366c0.087,0.05,0.221-0.028,0.349-0.125l0.275,0.067
		c-0.112-0.021-0.198-0.044-0.27-0.069c0.17-0.128,0.332-0.287,0.354-0.192l0.954,0.08c0.182,0.064,0.427,0.009,0.627-0.054
		l0.162,0.186c0.348-0.028,0.352,0.082,0.31,0.134c1.207,0.644,1.868-0.33,3.173,0.229c0.249-0.31-0.29-0.451-0.332-0.617
		c0.204-0.239,0.951-0.452,1.324-0.621c0.581,0.428,2.366,0.806,2.079,1.424c1.076,0.047-0.335-0.38,0.204-0.594l0.122,0.024
		c-0.372-0.071-0.661-0.283-0.87-0.521c-0.082-0.333,0.868-0.43,1.159-0.335l-0.204,0.158C165.909,4.196,165.96,4,166.232,3h0.786
		c0.049,0-0.009,0.768,0.089,1.014l0.893,0.2V4.57c1-0.095,0.6-0.428,1.348-0.288c-0.539,0.336,1.09,0.332,0.343,0.784
		c0.416,0.119,0.519-0.57,0.731-0.095c0.287-0.381-0.38-0.19-0.59-0.309c-0.169-0.546,0.906-0.262,1.404-0.405
		c0.042,0.283-0.334,0.333,0.252,0.522c0.12-0.214,0.493-0.381,0.824-0.119c0-0.356,0.663-0.072,0.995-0.05
		c-0.373-0.069-0.913-0.33-0.669-0.638c0.291-0.143,0.541-0.215,1.204-0.167l-0.455-0.484C173.39,3.32,173.391,3,173.393,3h0.834
		c0.253,0,0.532,0.612,0.904,0.533c-0.333,0.214-0.54,0.374-0.831,0.635c0.374-0.167,1.08-0.349,1.66-0.515l0.664,0.56
		c0.083-0.262,0.748,0.042,0.748-0.313c0.825,0.239-0.665,0.438-0.748,0.699c1.038,0.236,0.831-0.588,1.826-0.043l-0.331,0.335
		c0.331,0.024,0.996-0.165,1.037,0.001c0-0.12-0.166-0.39-0.373-0.39C178.98,3.808,180.233,4,180.186,3h0.154
		C180.232,2.892,180.354,2.708,180.27,2.611z M76.007,3.265c0.051,0.068,0.041,0.149,0.016,0.235
		c-0.035,0.116-0.104,0.24-0.129,0.361c-0.699,0.004-0.646-0.056-0.543-0.361c0.036-0.108,0.079-0.246,0.098-0.425
		c0.143-0.061,0.358-0.011,0.563,0.031c-0.05,0.045,0.003,0.105,0.067,0.176C76.056,3.277,76.027,3.27,76.007,3.265z M100.991,2.129
		c-0.075-0.011-0.286-0.157-0.542-0.33c0.015,0.008,0.019,0.014,0.043,0.024c0.179-0.279,0.586,0.038,0.798-0.145
		C101.731,1.834,101.248,2.047,100.991,2.129z M144.061,2.23c0.119-0.172,0.448-0.115,0.697-0.188
		C144.526,2.139,144.294,2.216,144.061,2.23z"/>
	<path d="M171.907,2.605l0.857,0.163C172.699,2.464,172.343,2.508,171.907,2.605z"/>
	<path d="M152.921,4.742h0.228c-0.141,0-0.207-0.021-0.228-0.04V4.742z"/>
	<path d="M180.938,4.557l-0.249,0.072l0.498,0.213c0.83-0.238,0.871-0.546,1.075-0.903c-0.744,0.333-1.2,0.167-2.155,0.263
		L180.938,4.557z"/>
	<path d="M180.1,1.826l-0.125,0.216l0.54,0.141C180.432,2.088,180.224,1.85,180.1,1.826z"/>
	<path d="M170.683,1.142l0.788,0.19C171.72,1.142,170.806,0.809,170.683,1.142z"/>
	<path d="M173.642,4.753c0.496-0.143,0.123,0.144,0.537,0.144l0.416-0.239C174.222,4.469,173.724,4.493,173.642,4.753z"/>
	<path d="M168.564,1.097c-0.245,0.428-0.788-0.19-0.95,0.214C167.822,1.192,168.527,1.524,168.564,1.097z"/>
	<path d="M169.12,5.162c0.249,0.404,0.664,0.047,1.161,0.143C169.867,5.305,169.286,4.877,169.12,5.162z"/>
	<path d="M164.341,2.31c0.04-0.306,0.371-0.284,0.745-0.213c-0.124,0.095-0.208,0.237-0.374,0.285
		c0.623-0.237,0.665-0.19,1.163-0.333c-0.498-0.214-1.246-0.354-1.166-0.734C164.341,1.6,163.883,2.027,164.341,2.31z"/>
	<path d="M168.249,5.117l0.206-0.356c-0.539-0.262,0.212,0.473-0.535,0.452c0.414,0.118,0.664,0.401,1.162,0.378
		C168.995,5.376,168.829,5.067,168.249,5.117z"/>
	<path d="M163.962,1.053c-0.702,0.024-1.573,0.215-1.905,0.43l0.25,0.165C162.887,1.362,163.634,1.505,163.962,1.053z"/>
	<path d="M165.883,4.549l-0.079,0.499c0.581,0.069-0.042-0.167,0.166-0.286c0.166,0.072,0.415,0.117,0.535,0.022
		C165.845,4.858,166.463,4.382,165.883,4.549z"/>
	<path d="M163.978,5.098l-0.744,0.213l0.581,0.545C164.686,5.666,163.856,5.546,163.978,5.098z"/>
	<path d="M161.864,5.407c0.664-0.309,0.706-0.262,1.198-0.642l-0.083-0.095L161.864,5.407z"/>
	<path d="M149.786,1.766c0.125-0.177-0.747-0.454-0.249-0.242C149.413,1.738,150.065,2.004,149.786,1.766z"/>
	<path d="M150.39,5.808c0.544-0.104,1.891,0,1.815-0.29C151.888,5.357,150.847,5.661,150.39,5.808z"/>
</g>
</svg>
