<?xml version="1.0" encoding="utf-8"?>
<!-- Generator: Adobe Illustrator 16.0.3, SVG Export Plug-In . SVG Version: 6.00 Build 0)  -->
<!DOCTYPE svg PUBLIC "-//W3C//DTD SVG 1.1//EN" "http://www.w3.org/Graphics/SVG/1.1/DTD/svg11.dtd">
<svg version="1.1" id="Layer_1" xmlns="http://www.w3.org/2000/svg" xmlns:xlink="http://www.w3.org/1999/xlink" x="0px" y="0px"
	 width="23px" height="2px" viewBox="0 21.662 23 2" enable-background="new 0 21.662 23 2" xml:space="preserve">
<g>
	<path fill="none" d="M4.566,22.541c0.004,0.051,0.015,0.09,0.023,0.121c0.025,0.087,0.038,0.104-0.132,0.103
		c-0.006-0.034-0.023-0.07-0.032-0.103c-0.006-0.024-0.009-0.048,0.003-0.067c-0.004,0.001-0.012,0.003-0.017,0.004
		c0.016-0.02,0.028-0.037,0.016-0.05C4.478,22.538,4.53,22.523,4.566,22.541z"/>
	<path d="M0.439,22.167c0.158-0.126-0.171-0.112-0.105-0.237c0.365-0.054,0.446,0.329,0.659,0.313
		c0.272-0.051,0.256,0.065,0.532,0.073c-0.087-0.086,0.193-0.092,0.243-0.174l-0.108-0.089c0.083,0.027,0.165-0.007,0.139-0.07
		c-0.015,0.116,0.358,0.109,0.548,0.164l-0.034,0.1c0.148,0.033,0.354,0.096,0.512,0.07c0.234,0.032,0.182,0.12,0.362,0.228
		c0.1-0.089,0.089-0.196,0.055-0.304c-0.063,0.051-0.168,0.021-0.272,0.052c-0.296-0.086-0.525-0.295-0.821-0.247
		c-0.128-0.241,0.2,0.028,0.343-0.057c-0.005-0.014-0.014-0.019-0.025-0.021c0.013,0,0.024-0.002,0.036-0.007
		c-0.106-0.03-0.278-0.068-0.308-0.191c0.178,0.025,0.128,0.24,0.349,0.137c0.164,0.068,0.296-0.122,0.396-0.139
		c0.108,0.09,0.113,0.283,0.38,0.246l-0.117-0.135c0.302-0.003,0.142,0.198,0.422,0.192c-0.099,0.016,0.095,0.132-0.092,0.136
		c0.092,0.072,0.296,0.085,0.448,0.046c0.04,0.021,0.009,0.046,0.016,0.092c-0.168,0.094-0.267-0.091-0.405,0.043l-0.117-0.145
		c-0.157,0.053-0.172,0.169-0.077,0.227c-0.044-0.005-0.083-0.026-0.115,0c-0.026,0.219,0.188-0.078,0.243,0.107l-0.111-0.016
		c-0.018,0.053,0.014,0.083,0.066,0.101c0.09,0.03,0.245,0.021,0.335,0.015c0.014-0.005,0.025-0.009,0.038-0.015
		c0.146-0.055,0.271-0.085,0.281-0.179l-0.216-0.045c0.112-0.082,0.276,0.048,0.403,0.044c0.008-0.014,0.021-0.025,0.036-0.032
		c-0.007,0.009-0.01,0.018-0.01,0.028c0.026-0.005,0.05-0.018,0.07-0.042c0.111-0.005,0.274,0.058,0.376,0.025l-0.013,0.092
		l-0.014-0.052c-0.101,0.003-0.239,0.06-0.162,0.129c0.229,0.063,0.274-0.114,0.329-0.194c-0.052-0.141-0.223,0.002-0.339-0.046
		c0.07-0.139,0.233-0.015,0.469-0.107c-0.094-0.152-0.274,0.002-0.325-0.139c0.19-0.025,0.239,0.083,0.44,0.044
		c-0.026-0.071-0.221-0.078-0.208-0.168l0.128-0.043c-0.315-0.009,0.056-0.19-0.191-0.228c0.117-0.063,0.163,0.125,0.328,0.028
		c-0.046,0.066-0.178,0.188-0.02,0.247l0.178-0.045c0.075-0.073-0.187-0.163-0.069-0.225l0.187,0.052
		c-0.007,0.045-0.096,0.069-0.04,0.131c0.108-0.049,0.177,0.176,0.304,0.244c0.101-0.003,0.181-0.013,0.217-0.066
		c0.255,0.135,0.58,0.13,0.814,0.258c-0.16-0.091,0.006-0.156,0.103-0.225c-0.185-0.019-0.186-0.162-0.173-0.254
		c0.112,0.016,0.186,0.163,0.129,0.211c0.188-0.059,0.13,0.099,0.294,0.002c0.107-0.049-0.053-0.141-0.016-0.195
		c0.203-0.006,0.055,0.174,0.275,0.14c-0.012-0.019-0.032-0.024-0.015-0.051c0.12-0.03,0.247,0.037,0.272,0.107
		c0.127-0.186,0.357,0.021,0.333-0.161c0.288,0.048-0.043,0.099,0.013,0.162c0.118,0.081,0.336,0.015,0.404-0.014
		c-0.071-0.004-0.137-0.054-0.205-0.025l0.061-0.125c0.358-0.09,0.228,0.285,0.573,0.175c-0.178-0.066-0.059-0.095-0.147-0.184
		c0.054,0.032,0.325-0.004,0.161,0.093c0.129-0.011,0.219-0.033,0.309-0.056c0.116,0.048,0.241,0.083,0.308,0.165
		c0.182-0.013,0.317-0.102,0.403-0.157c0.382,0.091,0.736-0.064,1.138,0.033l-0.029,0.007c0.313-0.023-0.138,0.168,0.187,0.163
		c-0.043-0.154,0.194-0.104,0.299-0.186c0.398-0.08,0.689,0.113,1.056,0.009c-0.003-0.032-0.026-0.071-0.098-0.075
		c0.28-0.048,0.506-0.018,0.759-0.026l-0.011-0.019c0.405-0.125,0.772,0.025,1.192,0.063c-0.035-0.02-0.042-0.078-0.069-0.098
		c0.211-0.035,0.547-0.057,0.695,0.083c0.231-0.14,0.176,0.013,0.42-0.076v0.009c0-0.008,0.042-0.015,0.068-0.027
		c0.018-0.029-0.032-0.027-0.053-0.033c0.159-0.053,0.271-0.036,0.432-0.056c0.354,0.103,0.442,0.311,0.853,0.248
		c0.021-0.219-0.252-0.054-0.261-0.229c0.082,0.038,0.153,0.083,0.267,0.031c-0.068-0.085-0.015-0.054-0.062-0.133
		c0.087-0.059,0.349,0.229,0.348,0.208c0.004,0.042-0.025,0.065-0.106,0.059c0.096,0.135,0.404,0.011,0.603,0.065
		c-0.064,0.003-0.268,0.046-0.192,0.15c0.268-0.047,0.356,0.165,0.543,0.251c0.247-0.099-0.182-0.184-0.135-0.337
		c0.041-0.056,0.14-0.179,0.036-0.239c0.222-0.033,0.381,0.099,0.578,0.132l-0.005-0.043c0.276,0.017,0.57,0.207,0.801,0.12
		l-0.122,0.05c0.045,0.026,0.185,0.013,0.261,0.102c-0.008-0.072,0.171-0.137,0.098-0.196c0.123,0.231,0.626,0.14,0.764,0.359
		c0.074-0.058,0.015-0.152-0.007-0.204c-0.174,0.02-0.233,0.065-0.325-0.026c0.145,0.003,0.25-0.056,0.229-0.109
		c0.145,0.144,0.49,0.201,0.563,0.344c0.106-0.072,0.207-0.11,0.169-0.23c0.444,0.074-0.219,0.37,0.282,0.368
		c0.229-0.117-0.223-0.157,0.093-0.197l-0.058-0.019c0.228-0.309,0.159,0.221,0.417,0.21c0.034-0.168-0.18-0.12-0.001-0.241
		c0.236,0.042,0.339,0.292,0.575,0.238l-0.037-0.072c0.15,0.014,0.443-0.021,0.594-0.007c0.007-0.033-0.015-0.029-0.043-0.038
		c0.278-0.063,0.117,0.086,0.344-0.03L23,22.419c-0.114,0.058-0.336,0.141-0.48,0.044c0.105,0.069-0.06,0.15-0.132,0.244
		c-0.027,0.036-0.042,0.073-0.023,0.112l-0.028-0.058c-0.378,0.247-0.865,0.278-1.344,0.37c-0.302-0.172-0.514,0.069-0.838-0.049
		c-0.051-0.197-0.061-0.04-0.339-0.079c0.147,0.024,0.018,0.149-0.075,0.176c-0.055-0.051-0.122-0.069-0.188-0.087
		c-0.056,0.066-0.407,0.225-0.535,0.092c-0.17,0.063,0.04,0.063,0.077,0.104c-0.069,0.102-0.138-0.079-0.195-0.012
		c0,0,0.002,0.022,0.021,0.031c-0.26-0.007-0.414,0.045-0.684,0.069c-0.022-0.193-0.266-0.073-0.386-0.142
		c0.039,0.061-0.152,0.071-0.229,0.107l-0.145-0.142c-0.143-0.123-0.2,0.085-0.384,0.019l0.044-0.034
		c-0.136-0.058-0.493,0.059-0.626,0.162c-0.407-0.123-0.84-0.143-1.084-0.118c-0.733,0.05-1.277,0.215-2.165,0.148
		c-0.086-0.055,0.064-0.094-0.003-0.175c-0.134-0.021-0.164-0.014-0.286-0.017c0.107-0.05,0.091,0.013,0.077-0.039l0.187,0.052
		c0.008-0.014-0.012-0.019,0.005-0.045c0.063,0.017,0.137,0.054,0.217,0.044c-0.115-0.048-0.147-0.184-0.306-0.132
		c0.012,0.019,0.033,0.024,0.074,0.036c-0.13,0.011-0.136-0.055-0.234-0.019c-0.12,0.03-0.09-0.012-0.106,0.048l-0.371,0.073
		c-0.186-0.163-0.414-0.008-0.474,0.007c0.041,0.122,0.247,0.038,0.337,0.158l-0.134,0.09l-0.008-0.099l-0.19,0.026l0.011,0.019
		c-0.022-0.038-0.046-0.075-0.095-0.042c-0.008,0.014-0.026,0.04-0.005,0.046l-0.136-0.054c0.079,0.101-0.12,0.031-0.099,0.147
		c-0.444,0.059-0.566-0.158-0.956,0.001c0.063-0.055-0.124-0.185-0.245-0.162c-0.069,0.028-0.087,0.054-0.043,0.098l-0.157-0.058
		c-0.198,0.182-0.391,0.065-0.68,0.126l0.015,0.051c-0.107-0.061-0.222-0.108-0.383-0.09l0.029,0.103
		c-0.197,0.072-0.15-0.216-0.368-0.15c0.001-0.109,0.138-0.166,0.159-0.271c-0.052,0.112-0.285,0.129-0.23,0.049
		c-0.217-0.045-0.15,0.003-0.168,0.029l-0.127-0.067c-0.152,0.006-0.048,0.146,0.008,0.209c-0.142-0.12-0.297-0.035-0.458-0.017
		l0.065,0.049L7.97,23.424c-0.138-0.087-0.332-0.093-0.511-0.048l0.124,0.146c-0.125,0.075-0.064-0.051-0.098-0.076
		c-0.198-0.069-0.24,0.028-0.345,0.109c-0.318-0.151-0.632,0.239-0.904,0.021l-0.033,0.086c-0.371-0.183-0.796,0.079-1.09-0.177
		c-0.452,0.301-0.296-0.271-0.71,0l0.014-0.043c-1.361,0.05-2.804,0.208-4.077,0.063l0.003,0.06C0.227,23.57,0.114,23.569,0,23.573
		v-1.527C0.091,22.123,0.201,22.175,0.439,22.167z M4.429,22.595c-0.012,0.019-0.01,0.042-0.003,0.067
		c0.009,0.033,0.025,0.069,0.032,0.103c0.17,0.001,0.158-0.016,0.132-0.103c-0.009-0.031-0.02-0.07-0.023-0.121
		c-0.036-0.018-0.088-0.003-0.138,0.009c0.012,0.013,0,0.03-0.016,0.05C4.417,22.599,4.424,22.596,4.429,22.595z"/>
</g>
</svg>
