<?xml version="1.0" encoding="utf-8"?>
<!-- Generator: Adobe Illustrator 16.0.3, SVG Export Plug-In . SVG Version: 6.00 Build 0)  -->
<!DOCTYPE svg PUBLIC "-//W3C//DTD SVG 1.1//EN" "http://www.w3.org/Graphics/SVG/1.1/DTD/svg11.dtd">
<svg version="1.1" id="Layer_1" xmlns="http://www.w3.org/2000/svg" xmlns:xlink="http://www.w3.org/1999/xlink" x="0px" y="0px"
	 width="32px" height="3px" viewBox="0 0 32 3" enable-background="new 0 0 32 3" xml:space="preserve">
<g>
	<path fill="#00D9C2" d="M18.274,0.306c0.072,0.077,0.117,0.163,0.151,0.247C18.375,0.357,18.857,0.288,18.274,0.306z"/>
	<path fill="#00D9C2" d="M32,0.549l-0.387,0.04l-0.171-0.221l0.445-0.013c-0.253-0.208-0.412-0.025-0.592,0.102
		c-0.042-0.118-0.116-0.2-0.221-0.244l-0.52,0.435c-0.063-0.178,0.233-0.354-0.115-0.452c-0.243,0.203,0.233,0.399-0.169,0.532
		c-0.253-0.206-0.18-0.375-0.476-0.199c-0.041-0.117,0.021-0.192,0.139-0.243c-0.264,0.14-0.698,0.059-0.835,0.302
		c-0.264-0.256-0.892,0.065-0.865-0.365c-0.083,0.103-0.466,0.338-0.708,0.356c0.443-0.516-0.908-0.031-0.791-0.583
		c-0.328,0.464-1.185,0.206-1.765,0.463c0.031-0.037,0.096-0.111,0.147-0.088c-0.327-0.038-0.422-0.178-0.633-0.266
		c-0.042,0.383-0.551,0.471-0.825,0.707c-0.4-0.37,0.243-0.45,0.118-0.805c0.021,0.311-0.697,0.31-0.561,0.569
		c-0.307-0.229-0.264-0.111-0.422-0.429c-0.054,0.479-0.285,0.082-0.539,0.375c-0.444-0.236-0.115-0.449-0.602-0.303
		c-0.232-0.147,0.201-0.317,0.201-0.317c-0.496-0.008-0.232,0.354-0.338,0.561c-0.593,0.103-0.274-0.266-0.476-0.45
		c-0.37,0.095-0.653,0.427-0.93,0.412c-0.021-0.059-0.073-0.081-0.011-0.155c-0.391,0.287-1.16,0.014-1.616,0.375
		c-0.033-0.033-0.051-0.062-0.06-0.09c0.074,0.181,0.085,0.365,0.07,0.496c-0.223,0.006-0.413,0.228-0.496-0.008
		c0.137,0.007,0.147-0.089,0.212-0.162l-0.234,0.103c-0.209-0.34,0.318-0.118,0.318-0.37c-0.454,0.111-0.983,0.392-1.332,0.296
		c-0.072-0.332,0.814-0.111,0.35-0.407l0.539,0.126c-0.412-0.523,0.327,0.037-0.051-0.523c-0.71-0.096-0.793,0.169-1.501,0.073
		c-0.158,0.184,0.054,0.273-0.106,0.457c-1.005,0.331-0.791-0.835-1.53-0.392c-0.191,0.22-0.266,0.64-0.792,0.419l0.18-0.376
		c-0.687-0.037-0.392,0.54-1.11,0.287c0.127-0.147,0.539-0.124,0.436-0.169c-0.466-0.296-0.329,0.213-0.688,0.213l-0.074-0.332
		c-0.73,0.052-1.536,0.292-2.346,0.353c0.045-0.099,0.184-0.203-0.006-0.305C9.244,0.502,8.086,0.294,7.102,0.098L6.726,0.384
		c-0.088-0.003-0.163-0.13-0.068-0.185C6.273,0.09,6.638,0.381,6.453,0.494c-0.219,0.02-0.288-0.165-0.15-0.251
		C5.626,0.486,4.374,0.767,3.66,0.46l0.139-0.085C3.244,0.258,3.173,0.963,2.657,0.694L0.719,0.425c0.207,0.186,0,0.596-0.424,0.159
		C0.226,0.512,0.096,0.564,0,0.549v1.404v0.602c0.744,0.057,1.494,0.303,2.228-0.029c-0.014,0.06-0.038,0.181-0.174,0.196
		c0.395,0.011,1.525,0.28,1.382-0.287C3.445,2.804,4.3,2.471,4.752,2.308l-0.07,0.273C5.063,2.232,5.075,2.137,5.608,2.04
		c0.094,0.027,0.108,0.133,0.043,0.159c0.291,0.036,0.281-0.252,0.739-0.123L6.2,2.25c0.433,0.021,0.398-0.049,0.637-0.252
		C6.885,1.979,6.948,2,7.009,2h0.118c0.262,0,0.551,0.14,0.596,0.313c0.059-0.15,0.296-0.363,0.551-0.292
		c0.034,0.094-0.059,0.145-0.104,0.174c0.724,0.185,1.076-0.32,1.574-0.053c0.011,0.091,0.043,0.135,0.085,0.162
		C9.252,2.298,8.789,2.282,8.832,2.262c0,0.251,0.465,0.295,0.095,0.642C9.3,2.714,9.938,2.303,10.391,2.42
		c0.022,0.025,0.044,0.049,0.061,0.087l-0.047,0.029c0.104,0.024,0.198,0.002,0.286-0.041c0.145,0.042,0.236,0.072,0.376,0.075
		c0.053,0.208,0.532,0.112,0.764,0.123c-0.02-0.275,0.284-0.231,0-0.458c0.037,0.02-0.044,0.033-0.197,0.045
		c0.022-0.007,0.034-0.019,0.063-0.021c-0.031-0.024-0.062-0.021-0.092-0.038C11.662,2.137,11.721,2,11.775,2h0.368
		c0.323,0,0.729,0.413,0.798,0.604c0.708-0.154,1.667-0.113,2.111-0.63c0.201-0.066,0.231,0.143,0.307,0.224
		c-0.116,0.052-0.254,0.064-0.317,0.139C15.422,2.212,16.136,2,16.3,2h0.151c0.224,0-0.328,0.247,0.291,0.194l-0.095,0.123
		C17.567,2.703,18.26,2,19.072,2h0.881c0.143,0,0.287,0.049,0.442,0.124c-0.105-0.045-0.157-0.078-0.18-0.138
		c1.732,0.325,3.57-0.289,5.28,0.229C25.92,2.306,26.021,2,26.236,2h0.119l0.081,0.227L26.774,2h0.967
		c0.397,0,0.808,0.424,1.357,0.139L29.016,2h0.937c0.007,0,0.015,0.03,0.01,0.051C29.971,2.042,29.984,2,29.999,2H30.2l0.007,0.104
		L30.52,2h0.757C31.358,2,31.338,2.557,32,2.578"/>
</g>
</svg>
