<?xml version="1.0" encoding="utf-8"?>
<!-- Generator: Adobe Illustrator 16.0.3, SVG Export Plug-In . SVG Version: 6.00 Build 0)  -->
<!DOCTYPE svg PUBLIC "-//W3C//DTD SVG 1.1//EN" "http://www.w3.org/Graphics/SVG/1.1/DTD/svg11.dtd">
<svg version="1.1" id="Layer_1" xmlns="http://www.w3.org/2000/svg" xmlns:xlink="http://www.w3.org/1999/xlink" x="0px" y="0px"
	 width="45px" height="6px" viewBox="0 0 45 6" enable-background="new 0 0 45 6" xml:space="preserve">
<g>
	<path fill="#00D9C2" d="M18.274,0.709c0.072,0.154,0.117,0.326,0.151,0.494C18.375,0.812,18.857,0.673,18.274,0.709z"/>
	<path fill="#3C3C3C" d="M45,1.194l-0.544,0.08l-0.24-0.441l0.626-0.026c-0.355-0.417-0.578-0.05-0.832,0.204
		c-0.06-0.235-0.162-0.399-0.311-0.487l-0.73,0.869c-0.087-0.355,0.328-0.707-0.16-0.903c-0.344,0.405,0.327,0.798-0.238,1.063
		c-0.356-0.412-0.252-0.75-0.67-0.397c-0.058-0.234,0.031-0.384,0.195-0.486c-0.371,0.28-0.981,0.118-1.175,0.604
		c-0.37-0.512-1.253,0.131-1.216-0.729c-0.117,0.206-0.656,0.676-0.996,0.712c0.624-1.031-1.275-0.062-1.111-1.166
		c-0.463,0.928-1.666,0.412-2.481,0.926c0.044-0.073,0.135-0.222,0.208-0.176c-0.461-0.076-0.594-0.355-0.891-0.531
		c-0.06,0.766-0.775,0.941-1.16,1.413c-0.563-0.739,0.342-0.899,0.166-1.609c0.028,0.622-0.98,0.62-0.789,1.138
		c-0.432-0.458-0.371-0.222-0.594-0.857c-0.076,0.959-0.399,0.163-0.759,0.751c-0.623-0.472-0.161-0.897-0.846-0.605
		c-0.327-0.294-0.037-0.261-0.037-0.261c-0.696-0.016-0.006,0.335-0.155,0.749c-0.833,0.205-0.385-0.532-0.668-0.9
		c-0.521,0.19-0.919,0.854-1.308,0.824c-0.028-0.118-0.103-0.162-0.017-0.311c-0.549,0.574-1.631,0.028-2.271,0.75
		c-0.046-0.065-0.071-0.124-0.083-0.18c0.104,0.362,0.119,0.729,0.099,0.991c-0.313,0.013-0.58,0.456-0.697-0.016
		c0.191,0.014,0.207-0.178,0.297-0.324l-0.328,0.206c-0.294-0.68,0.447-0.235,0.447-0.739c-0.639,0.222-1.383,0.783-1.873,0.592
		c-0.103-0.664,1.146-0.223,0.492-0.813l0.758,0.253c-0.58-1.047,0.459,0.074-0.071-1.047c-0.998-0.192-1.115,0.338-2.11,0.146
		C22.701,0.825,23,1.003,22.774,1.371c-1.412,0.662-1.112-1.67-2.151-0.784c-0.27,0.44-0.374,1.28-1.114,0.838l0.253-0.752
		C18.796,0.6,19.211,1.753,18.2,1.247c0.179-0.294,0.759-0.248,0.612-0.338c-0.654-0.592-0.462,0.426-0.966,0.426l-0.105-0.664
		c-1.026,0.104-2.159,0.584-3.299,0.706c0.064-0.198,0.259-0.406-0.008-0.609C13,1.101,11.371,0.686,9.987,0.293L9.458,0.865
		c-0.123-0.006-0.229-0.26-0.096-0.37c-0.54-0.218-0.027,0.364-0.287,0.59c-0.308,0.04-0.405-0.33-0.211-0.502
		C7.912,1.069,6.151,1.631,5.147,1.017l0.195-0.17c-0.78-0.233-0.88,1.176-1.605,0.639L1.01,0.947c0.291,0.371,0,1.191-0.596,0.317
		C0.317,1.121,0.135,1.225,0,1.194v2.808v1.204c1.046,0.112,2.101,0.604,3.133-0.06C3.113,5.268,3.079,5.509,2.888,5.54
		c0.555,0.021,0.979-1.79,1.943-0.574c0.013,0.738,1.215,0.072,1.851-0.254L6.583,5.259C7.121,4.563,7.137,4.37,7.887,4.178
		c0.131,0.055,0.152,0.266,0.06,0.317c0.409,0.071,0.396-0.505,1.04-0.246L8.719,4.598c0.608,0.043,0.56-0.146,0.896-0.553
		C9.682,4.008,9.771,4,9.856,4h0.166c0.368,0,0.775,0.328,0.838,0.676c0.083-0.301,0.417-0.701,0.775-0.561
		c0.048,0.188-0.083,0.302-0.147,0.359c1.018,0.369,1.514-0.634,2.215-0.1c0.014,0.182,0.06,0.271,0.119,0.327
		c-0.811-0.015-1.462-0.044-1.401-0.085c0,0.502,1.636,0.271,1.115,0.966c0.524-0.379,0.441-0.882,1.076-0.647
		c0.032,0.051,0.062,0.099,0.085,0.174l-0.065,0.06c0.147,0.049,0.278,0.004,0.403-0.082c0.202,0.084,0.332,0.146,0.528,0.149
		c0.074,0.416,0.748,0.226,1.074,0.246c-0.028-0.551,0.398-0.463,0-0.916c0.051,0.039-0.063,0.066-0.277,0.091
		c0.03-0.015,0.047-0.037,0.089-0.041c-0.044-0.05-0.087-0.093-0.129-0.125C16.4,4.32,16.482,4,16.56,4h0.517
		c0.456,0,1.026,0.875,1.123,1.258c0.995-0.309,2.344-0.203,2.969-1.236c0.282-0.131,0.325,0.299,0.432,0.461
		c-0.163,0.104-0.357,0.086-0.447,0.233C21.687,4.466,22.691,4,22.922,4h0.212c0.315,0-0.461,0.543,0.409,0.438L23.411,4.66
		c1.293,0.771,2.342-0.117,3.483-0.117L28.061,4c0.199,0,0.402,0.146,0.621,0.297c-0.147-0.09-0.222-0.133-0.252-0.252
		c2.156-1.045,4.031,0.58,7.426,0.421C36.449,4.646,36.593,4,36.895,4h0.168l0.113,0.453L37.65,4h1.359
		c0.561,0,1.289,1.111,2.063,0.542L40.803,4l1.151-0.333c0.01,0,0.188,0.394,0.18,0.435C42.146,4.084,42.166,4,42.188,4h0.281
		l-0.047,0.917l0.879-1.25L43.982,4C44.098,4,44.068,5.162,45,5.205"/>
</g>
</svg>
