<?xml version="1.0" encoding="utf-8"?>
<!-- Generator: Adobe Illustrator 16.0.3, SVG Export Plug-In . SVG Version: 6.00 Build 0)  -->
<!DOCTYPE svg PUBLIC "-//W3C//DTD SVG 1.1//EN" "http://www.w3.org/Graphics/SVG/1.1/DTD/svg11.dtd">
<svg version="1.1" id="Layer_1" xmlns="http://www.w3.org/2000/svg" xmlns:xlink="http://www.w3.org/1999/xlink" x="0px" y="0px"
	 width="32px" height="3px" viewBox="0 0 32 3" enable-background="new 0 0 32 3" xml:space="preserve">
<g>
	<path fill="#DDDDDD" d="M18.273,0.306c0.072,0.077,0.117,0.163,0.15,0.247C18.375,0.357,18.857,0.288,18.273,0.306z"/>
	<path fill="#DDDDDD" d="M32,0.549l-0.387,0.04l-0.172-0.221l0.445-0.013c-0.254-0.208-0.412-0.025-0.593,0.102
		c-0.042-0.118-0.114-0.2-0.222-0.244l-0.52,0.435c-0.063-0.178,0.232-0.354-0.115-0.452c-0.244,0.203,0.232,0.399-0.17,0.532
		c-0.252-0.206-0.18-0.375-0.476-0.199c-0.041-0.117,0.021-0.192,0.14-0.243c-0.265,0.14-0.699,0.059-0.836,0.302
		c-0.264-0.256-0.892,0.065-0.865-0.365c-0.082,0.103-0.465,0.338-0.707,0.356c0.442-0.516-0.907-0.031-0.791-0.583
		c-0.328,0.464-1.186,0.206-1.766,0.463C25,0.422,25.064,0.348,25.116,0.371c-0.327-0.038-0.423-0.178-0.634-0.266
		c-0.041,0.383-0.551,0.471-0.824,0.707c-0.4-0.37,0.242-0.45,0.117-0.805c0.021,0.311-0.696,0.31-0.562,0.569
		c-0.307-0.229-0.264-0.111-0.422-0.429c-0.054,0.479-0.285,0.082-0.539,0.375c-0.442-0.236-0.114-0.449-0.603-0.303
		c-0.231-0.147,0.201-0.317,0.201-0.317c-0.496-0.008-0.231,0.354-0.338,0.561c-0.594,0.103-0.273-0.266-0.477-0.45
		c-0.37,0.095-0.653,0.427-0.93,0.412c-0.021-0.059-0.073-0.081-0.012-0.155c-0.392,0.287-1.16,0.014-1.615,0.375
		c-0.033-0.033-0.051-0.062-0.062-0.09c0.074,0.181,0.085,0.365,0.069,0.496c-0.223,0.006-0.412,0.228-0.495-0.008
		c0.137,0.007,0.146-0.089,0.212-0.162l-0.232,0.103c-0.209-0.34,0.316-0.118,0.316-0.37c-0.454,0.111-0.982,0.392-1.332,0.296
		c-0.07-0.332,0.813-0.111,0.352-0.407l0.539,0.126c-0.412-0.523,0.325,0.037-0.053-0.523c-0.71-0.096-0.793,0.169-1.501,0.073
		c-0.158,0.184,0.054,0.273-0.106,0.457c-1.005,0.331-0.791-0.835-1.53-0.392c-0.191,0.22-0.266,0.64-0.792,0.419l0.18-0.376
		c-0.687-0.037-0.392,0.54-1.11,0.287c0.127-0.147,0.539-0.124,0.436-0.169c-0.466-0.296-0.329,0.213-0.688,0.213L12.61,0.286
		c-0.73,0.052-1.536,0.292-2.346,0.353c0.045-0.099,0.184-0.203-0.006-0.305c-1.017,0.168-2.175-0.04-3.159-0.236L6.726,0.384
		c-0.088-0.003-0.163-0.13-0.068-0.185C6.273,0.09,6.638,0.381,6.453,0.494c-0.219,0.02-0.288-0.165-0.15-0.251
		C5.626,0.486,4.374,0.767,3.66,0.46l0.139-0.085C3.244,0.258,3.173,0.963,2.657,0.694L0.719,0.425c0.207,0.186,0,0.596-0.424,0.159
		C0.226,0.512,0.096,0.564,0,0.549v1.404v0.602c0.744,0.057,1.494,0.303,2.228-0.029C2.214,2.586,2.19,2.707,2.054,2.723
		c0.395,0.01,1.525,0.279,1.382-0.287C3.445,2.805,4.3,2.471,4.752,2.309l-0.07,0.272C5.063,2.232,5.075,2.137,5.608,2.04
		c0.094,0.026,0.108,0.133,0.043,0.159C5.942,2.234,5.932,1.947,6.39,2.076L6.2,2.25c0.433,0.021,0.398-0.049,0.637-0.252
		C6.885,1.979,6.948,2,7.009,2h0.118c0.262,0,0.551,0.141,0.596,0.313C7.782,2.163,8.019,1.95,8.274,2.021
		C8.308,2.115,8.215,2.166,8.17,2.195c0.724,0.185,1.076-0.32,1.574-0.053c0.011,0.09,0.043,0.135,0.085,0.162
		c-0.577-0.008-1.04-0.022-0.997-0.044c0,0.253,0.465,0.296,0.095,0.644C9.3,2.714,9.938,2.303,10.391,2.42
		c0.022,0.025,0.044,0.049,0.061,0.087l-0.047,0.029c0.104,0.024,0.198,0.002,0.286-0.041c0.145,0.042,0.236,0.071,0.376,0.075
		c0.053,0.207,0.532,0.111,0.764,0.123c-0.02-0.275,0.284-0.231,0-0.459c0.037,0.021-0.044,0.033-0.197,0.045
		c0.022-0.006,0.034-0.019,0.063-0.021c-0.031-0.023-0.062-0.021-0.092-0.037C11.662,2.137,11.721,2,11.775,2h0.368
		c0.323,0,0.729,0.413,0.798,0.604c0.708-0.152,1.667-0.111,2.111-0.628c0.201-0.066,0.231,0.143,0.307,0.223
		c-0.116,0.053-0.254,0.063-0.317,0.14C15.422,2.212,16.136,2,16.3,2h0.151c0.224,0-0.328,0.247,0.291,0.193l-0.096,0.123
		C17.566,2.703,18.26,2,19.072,2h0.881c0.143,0,0.287,0.049,0.441,0.124c-0.104-0.045-0.156-0.078-0.181-0.138
		c1.731,0.325,3.57-0.289,5.28,0.229C25.92,2.307,26.021,2,26.236,2h0.119l0.08,0.227L26.773,2h0.968
		c0.397,0,0.808,0.424,1.356,0.139L29.016,2h0.938c0.007,0,0.015,0.029,0.01,0.051C29.971,2.042,29.984,2,29.999,2H30.2l0.007,0.104
		L30.52,2h0.758c0.08,0,0.062,0.557,0.724,0.578"/>
</g>
</svg>
