<?xml version="1.0" encoding="utf-8"?>
<!-- Generator: Adobe Illustrator 16.0.3, SVG Export Plug-In . SVG Version: 6.00 Build 0)  -->
<!DOCTYPE svg PUBLIC "-//W3C//DTD SVG 1.1//EN" "http://www.w3.org/Graphics/SVG/1.1/DTD/svg11.dtd">
<svg version="1.1" id="Layer_1" xmlns="http://www.w3.org/2000/svg" xmlns:xlink="http://www.w3.org/1999/xlink" x="0px" y="0px"
	 width="480px" height="486px" viewBox="0 0 480 486" enable-background="new 0 0 480 486" xml:space="preserve">
<g>
	<path fill="#FBF094" d="M342.074,0.609c32.203-3.854,63.845,11.089,90.153,30.073c17.648,12.734,34.462,28.313,41.948,48.76
		c3.591,9.811,4.866,20.313,5.493,30.741c0.77,12.793,0.527,26.021-4.388,37.855c-6.983,16.812-22.246,28.411-36.094,40.216
		c-35.22,30.023-65.681,67.571-78.826,111.966c-5.387,18.188-7.762,37.108-11.463,55.716c-5.549,27.906-14.323,55.64-30.289,79.182
		c-15.969,23.541-39.821,42.647-67.646,48.48c-19.889,4.169-40.478,1.472-60.797,1.585c-16.596,0.094-33.312,2.067-49.709-0.484
		c-14.139-2.203-27.575-7.719-40.264-14.338c-37.471-19.557-70.09-50.059-87.386-88.648c-17.296-38.595-17.845-85.479,3.074-122.23
		c15.148-26.611,40.205-46.427,67.346-60.577c27.142-14.147,56.589-23.175,85.648-32.778c17.481-5.777,35.831-12.429,47.443-26.729
		c12.736-15.685,14.745-37.27,22.713-55.842C256.335,43.235,297.896,5.897,342.074,0.609z"/>
	<rect x="248.85" y="201.41" fill="#E3D586" width="31.937" height="56.341"/>
	<rect x="280.785" y="215.494" fill="#E3D586" width="35.931" height="42.257"/>
	<rect x="131.688" y="205.401" fill="#E3D586" width="39.152" height="52.351"/>
	<path fill="#C6B965" d="M304.898,236.228c-2.185,0.144-4.646,0.199-6.241-1.173c-0.65-0.558-1.085-1.308-1.759-1.843
		c-0.346-0.271-0.741-0.48-1.097-0.74c-1.797-1.309-2.172-3.968-0.799-5.652c0.284-0.349,0.638-0.666,0.806-1.071
		c0.131-0.316,0.141-0.665,0.225-0.995c0.246-0.968,1.13-1.72,2.119-2.131c0.992-0.413,2.091-0.538,3.172-0.659
		c1.736-0.193,3.588-0.373,5.164,0.325c0.349,0.153,0.678,0.35,1.045,0.453c1.256,0.356,2.625-0.396,3.906-0.125
		c0.944,0.198,1.646,0.908,2.25,1.603c0.574,0.658,1.138,1.356,1.377,2.17c0.238,0.814,0.096,1.772-0.582,2.344
		c-0.217,0.181-0.48,0.319-0.652,0.538c-0.465,0.588-0.068,1.392,0.07,2.105c0.311,1.586-0.816,3.172-2.303,4.036
		c-1.486,0.865-3.273,1.158-5.009,1.436c-0.231,0.039,0.449,16.212,0.365,17.744c-0.172,3.101-2.548,1.856-2.198-0.473
		c0.422-2.809,0.569-5.498,0.407-8.336C304.982,242.601,304.634,239.412,304.898,236.228z"/>
	<rect x="314.721" y="163.848" fill="#E3D586" width="29.941" height="93.903"/>
	<path fill="none" stroke="#DED685" stroke-width="3.7191" stroke-miterlimit="10" d="M133.095,236.334
		c0.677,4.063,1.356,8.129,2.032,12.193c0.226,1.354,0.459,2.732,0.993,3.928c1.728,3.865,5.744,4.385,9.153,4.463
		c41.472,0.938,82.946,1.876,124.42,2.814c6.095,0.139,52.433-1.766,69.709-3.509c2.984-0.301,6.453-1.035,7.88-4.497
		c0.707-1.713,0.735-3.75,0.745-5.697c0.209-35.146,0.416-70.29,0.625-105.435c0.035-6.079-0.139-12.863-3.412-17.151
		c-2.93-3.833-7.428-4.438-11.547-4.811c-61.995-5.605-124.172-7.711-186.303-6.313c-5.164,0.116-10.953,0.614-14.407,5.672
		c-2.188,34.322-2.297,69.111-1.307,103.53C131.826,226.747,132.244,231.229,133.095,236.334z"/>
	<g>
		<rect x="328.693" y="239.77" fill="#C6B965" width="3.992" height="3.995"/>
		<g>
			<rect x="320.708" y="167.844" fill="#C6B965" width="3.993" height="3.997"/>
			<rect x="328.693" y="167.844" fill="#C6B965" width="3.992" height="3.997"/>
			<rect x="336.68" y="167.844" fill="#C6B965" width="3.99" height="3.997"/>
			<rect x="320.708" y="175.836" fill="#C6B965" width="3.993" height="3.996"/>
			<rect x="328.693" y="175.836" fill="#C6B965" width="3.992" height="3.996"/>
			<rect x="336.68" y="175.836" fill="#C6B965" width="3.99" height="3.996"/>
			<rect x="320.708" y="183.827" fill="#C6B965" width="3.993" height="3.995"/>
			<rect x="328.693" y="183.827" fill="#C6B965" width="3.992" height="3.995"/>
			<rect x="336.68" y="183.827" fill="#C6B965" width="3.99" height="3.995"/>
			<rect x="320.708" y="191.819" fill="#C6B965" width="3.993" height="3.995"/>
			<rect x="328.693" y="191.819" fill="#C6B965" width="3.992" height="3.995"/>
			<rect x="336.68" y="191.819" fill="#C6B965" width="3.99" height="3.995"/>
			<rect x="320.708" y="199.811" fill="#C6B965" width="3.993" height="3.996"/>
			<rect x="328.693" y="199.811" fill="#C6B965" width="3.992" height="3.996"/>
			<rect x="336.68" y="199.811" fill="#C6B965" width="3.99" height="3.996"/>
			<rect x="320.708" y="207.803" fill="#C6B965" width="3.993" height="3.996"/>
			<rect x="328.693" y="207.803" fill="#C6B965" width="3.992" height="3.996"/>
			<rect x="336.68" y="207.803" fill="#C6B965" width="3.99" height="3.996"/>
			<rect x="320.708" y="215.794" fill="#C6B965" width="3.993" height="3.997"/>
			<rect x="328.693" y="215.794" fill="#C6B965" width="3.992" height="3.997"/>
			<rect x="336.68" y="215.794" fill="#C6B965" width="3.99" height="3.997"/>
			<rect x="320.708" y="223.786" fill="#C6B965" width="3.993" height="3.994"/>
			<rect x="328.693" y="223.786" fill="#C6B965" width="3.992" height="3.994"/>
			<rect x="336.68" y="223.786" fill="#C6B965" width="3.99" height="3.994"/>
			<rect x="320.708" y="231.778" fill="#C6B965" width="3.993" height="3.995"/>
			<rect x="328.693" y="231.778" fill="#C6B965" width="3.992" height="3.995"/>
			<rect x="336.68" y="231.778" fill="#C6B965" width="3.99" height="3.995"/>
			<rect x="320.708" y="239.77" fill="#C6B965" width="3.993" height="3.995"/>
			<rect x="336.68" y="239.77" fill="#C6B965" width="3.99" height="3.995"/>
		</g>
	</g>
	<g>
		<g>
			<rect x="139.701" y="210.653" fill="#C6B965" width="3.992" height="3.994"/>
			<rect x="147.684" y="210.653" fill="#C6B965" width="3.993" height="3.994"/>
			<rect x="155.669" y="210.653" fill="#C6B965" width="3.992" height="3.994"/>
			<rect x="139.701" y="218.644" fill="#C6B965" width="3.992" height="3.997"/>
			<rect x="147.684" y="218.644" fill="#C6B965" width="3.993" height="3.997"/>
			<rect x="155.669" y="218.644" fill="#C6B965" width="3.992" height="3.997"/>
			<rect x="139.701" y="226.636" fill="#C6B965" width="3.992" height="3.994"/>
			<rect x="147.684" y="226.636" fill="#C6B965" width="3.993" height="3.994"/>
			<rect x="155.669" y="226.636" fill="#C6B965" width="3.992" height="3.994"/>
			<rect x="139.701" y="234.627" fill="#C6B965" width="3.992" height="3.997"/>
			<rect x="147.684" y="234.627" fill="#C6B965" width="3.993" height="3.997"/>
			<rect x="155.669" y="234.627" fill="#C6B965" width="3.992" height="3.997"/>
			<rect x="139.701" y="242.619" fill="#C6B965" width="3.992" height="3.997"/>
			<rect x="147.684" y="242.619" fill="#C6B965" width="3.993" height="3.997"/>
			<rect x="155.669" y="242.619" fill="#C6B965" width="3.992" height="3.997"/>
		</g>
	</g>
</g>
<g>
	<path fill="#FFFFFF" d="M125,83.041c0,0.002,164.506,0.402,246.705,0.413c10.688,0.001,21.221,1.56,31.846,2.48
		c4.777,0.415,4.766-7.031,0.026-7.441c-9.778-0.848-19.481-2.415-29.315-2.48c-10.273-0.067-20.541-0.007-30.816-0.018
		c-20.553-0.021-41.098-0.063-61.648-0.111c-41.1-0.095-82.301-0.216-123.402-0.265C147.297,75.607,136,75.6,125,75.6
		C121,75.6,121,83.041,125,83.041C125,83.041,121,83.041,125,83.041z"/>
	<g>
		<path fill="#232323" d="M102.133,84.46l76.102-0.368l76.103-0.215l152.204-0.185l-0.767,0.768l-0.008-6.992l0.773,0.773
			l-152.204-0.168l-76.103-0.208l-76.102-0.363l0.034-0.034L102.133,84.46z M102.133,84.46l-0.034-6.992v-0.034h0.034l76.102-0.363
			l76.103-0.208l152.204-0.168l0.772-0.001v0.774l-0.006,6.992v0.768h-0.768l-152.204-0.184l-76.103-0.215L102.133,84.46z"/>
	</g>
	<path fill="#FFFFFF" d="M130.401,271.78c-5.06-0.33-6.932,7.141-4.558,11.624c3.393,6.414,10.786,9.484,15.874,14.653
		c3.686,3.746,6.094,8.533,8.441,13.234c3.502,7.012,7.004,14.021,10.506,21.034c5.272,10.56,11.086,21.708,21.309,27.597
		c8.385,4.831,18.524,5.363,28.194,5.03c8.746-0.299,17.471-1.202,26.094-2.706c5.818-1.017,20.782,0.656,25.265-3.194
		c6.285-5.399,5-20.771,4.584-29.049c-1.736-34.315,4.789-61.85,20.33-91.455c7.896-15.051,10.897-32.305,13.666-49.078
		c2.768-16.773,13.361-29.606-1.92-49.811c-9.109-12.043-19.025-26.664-19.713-41.754c-0.308-6.719,4.836-14.164,0.618-19.4
		c-3.187-3.957-12.653-5.269-17.46-3.63c-1.87,0.637-4.701-2.978-6.216-1.722c-2.379,1.974-2.504,9.417-3.817,12.231
		c-0.097,0.204-0.765-0.765-1.527-1.529c-0.541-0.542-4.35-0.936-4.584,0c-0.477,1.906,3.66,8.539,4.197,10.415
		c1.022,3.58,4.114,6.093,6.774,8.699c13.295,13.021,18.089,32.222,21.901,50.445c1.162,5.556,2.063,8.248,0.73,13.765
		c-1.281,5.307-5.713,11.824-9.164,16.054c-8.878,10.876-17.477,22.462-22.773,35.468c-1.59,3.898-4.182,8.876-8.308,8.054
		c-0.952-0.189-1.813-0.701-2.569-1.313c-5.271-4.271-5.134-12.498-2.686-18.829c2.448-6.329,6.681-11.955,8.313-18.543
		c4.013-16.204-10.403-32.899-26.885-35.463c-11.391-1.771-24.068,2.36-30.523,11.919c-5.682,8.414-5.839,19.264-5.797,29.417
		c0.045,10.478,0.673,22.308,8.54,29.216c3.617,3.175,8.322,4.83,12.164,7.728c3.843,2.896,6.865,8.003,4.963,12.425
		c-0.834,1.939-2.47,3.395-3.997,4.851c-16.707,15.93-25.2,40.068-22.154,62.962c-6.972,0.976-10.694-7.729-12.716-14.479
		c-3.598-12.01-9.343-23.371-16.882-33.383c-1.715-2.279-3.662-4.589-6.351-5.53c-4.968-1.738-10.188,1.822-13.755,5.694
		c-5.261,5.716-9.353,14.037-6.1,21.095"/>
	<path fill="#FFFFFF" d="M381,85c0,0,0,8.422,0,12.654c0,2.841,0.002,3.812,2.074,5.707c4.217,3.861,8.396,7.729,11.853,12.322
		c2.896,3.852,6.882,10.1,4.47,15.124c-1.351,2.811-7.018,3.438-9.592,3.979c-5.15,1.083-10.459,1.752-15.722,1.856
		c-3.394,0.067-8.401,0.127-10.45-3.167c-2.076-3.335-0.299-8.602,0.756-11.964c1.676-5.351,4.043-10.518,6.539-15.521
		c1.5-3.005,3.053-6.09,5.03-8.813c2.037-2.807,6.731-0.087,4.668,2.758c-5.288,7.28-9.341,16.673-11.702,25.332
		c-0.41,1.5-0.947,3.435-0.73,4.946c0.133,0.918-0.129,0.27,0.125,0.408c0.217,0.117,1.127,0.313,1.576,0.373
		c4.651,0.627,9.603-0.018,14.209-0.718c3.502-0.533,8.012-1.006,11.054-2.757c-0.16,0.094-0.531,0.479-0.554,0.654
		c0.066-0.535,0.033-1.105-0.054-1.637c-0.219-1.321-0.78-2.545-1.388-3.722c-1.424-2.753-3.443-5.166-5.496-7.456
		c-1.835-2.049-3.816-3.967-5.824-5.844c-1.645-1.538-3.594-2.939-4.877-4.819c-1.279-1.874-1.341-4.038-1.373-6.239
		c-0.066-4.517-0.005-8.46-0.005-13.46C375.587,81,381,81,381,85C381,85,381,81,381,85z"/>
	<g>
		<path fill="none" stroke="#525252" stroke-width="1.5481" stroke-miterlimit="10" d="M265.816,191.819"/>
	</g>
	<path fill="#DDDDDD" d="M130.139,250.072c1.113-0.753,2.334-1.502,3.679-1.492c1.064,0.01,2.064,0.496,2.979,1.04
		c6.661,3.962,10.592,11.151,15.805,16.891c2.008,2.209,4.253,4.258,5.752,6.838c0.461,0.792,0.854,1.659,0.877,2.574
		c0.026,1.003-0.442,1.937-0.858,2.848c-1.349,2.956-9.333,8.949-12.202,10.438c-0.866,0.451-1.902,0.575-2.866,0.429
		c-1.352-0.206-2.453-1.158-3.466-2.077c-7.692-6.973-15.095-14.267-22.182-21.853c-0.658-0.706-1.06-3.139-0.555-3.958
		c0.948-1.536,3.533-4.073,4.823-5.15C124.615,254.355,127.243,252.037,130.139,250.072z"/>
	<path fill="#F2F2F2" d="M151.12,268.705c-2.044,3.676-4.983,6.852-8.491,9.171c-0.693,0.457-1.408,0.885-2.077,1.376
		c-1.018,0.751-1.971,1.639-3.167,2.046c-1.214-0.938-2.429-1.877-3.644-2.815c-0.867-0.669-1.738-1.341-2.498-2.132
		c-0.792-0.821-1.455-1.762-2.112-2.693c-1.106-1.569-2.193-3.279-3.055-4.998c4.507-4.187,9.544-7.797,14.955-10.721
		C144.971,260.886,148.905,264.313,151.12,268.705z"/>
	<path fill="#333333" d="M138.858,250.638c-5.574,4.854-11.147,9.708-16.719,14.563c-0.834,0.726-1.605,1.55-2.267,2.437
		c-0.838-0.821-1.61-1.709-2.311-2.65c-0.636-0.856-1.167-1.723-1.087-2.786c3.295-3.313,6.703-6.51,10.213-9.592
		c0.664-0.583,1.332-1.16,2.031-1.698c1.527-1.18,3.202-2.164,4.972-2.928c0.847-0.364,1.818,0.175,2.643,0.585
		c0.48,0.241,0.908,0.576,1.331,0.908C137.995,249.736,138.527,250.377,138.858,250.638z"/>
	<path fill="#333333" d="M139.062,287.719c1.163,1.281,3.459,1.875,5.061,2.528c6.916-2.528,8.618-5.419,12.498-8.809
		c1.658-1.449,3.4-3.259,3.284-5.459c-0.069-1.296-1.242-2.145-2.076-3.139c-1.248,0.768-2.521,1.764-3.659,2.688
		C149.388,279.413,139,287.77,139.062,287.719z"/>
	<g>
		<g>
			<path fill="#333333" d="M375.035,101.28c0.568-1.328,0.396-2.813,0.121-4.188l-0.871-4.171c-0.133-0.698-0.295-1.394-0.354-2.105
				c-0.051-0.354-0.064-0.711-0.057-1.068c-0.014-0.358,0.014-0.714,0.047-1.069c0.042-0.713,0.16-1.414,0.242-2.121l0.3-2.11
				l0.009-0.063l0.059-0.015l0.996-0.257l1.015-0.167c0.683-0.075,1.364-0.11,2.049-0.109c0.685,0.008,1.366,0.038,2.048,0.094
				c0.68,0.063,1.357,0.142,2.033,0.234l0.166,0.022l-0.016,0.173c-0.23,2.629-0.469,5.259-0.617,7.888
				c-0.034,0.656-0.081,1.313-0.091,1.97c-0.023,0.656-0.032,1.311-0.017,1.963c0.023,1.303,0.145,2.614,0.211,3.945l-0.132-0.289
				l1.845,1.733l1.781,1.802c0.592,0.604,1.143,1.246,1.715,1.866c0.575,0.62,1.092,1.291,1.643,1.936
				c0.555,0.639,1.042,1.334,1.563,2c0.528,0.664,0.99,1.375,1.48,2.066c0.501,0.686,0.93,1.419,1.379,2.14
				c0.461,0.713,0.855,1.465,1.271,2.206c0.428,0.733,0.785,1.506,1.164,2.267c0.394,0.755,0.709,1.546,1.051,2.326
				c0.354,0.773,0.623,1.584,0.926,2.38c0.316,0.792,0.529,1.62,0.793,2.431c0.271,0.811,0.43,1.651,0.648,2.477
				c0.211,0.828,0.33,1.676,0.498,2.514c0.142,0.842,0.229,1.695,0.328,2.544c0.063,0.854,0.09,1.709,0.137,2.563l0.033,0.604
				l-0.592,0.145l-2.279,0.553l-2.299,0.463c-1.539,0.273-3.084,0.502-4.635,0.672c-1.551,0.167-3.105,0.292-4.662,0.362
				c-1.556,0.069-3.111,0.112-4.667,0.081c-3.11-0.052-6.212-0.259-9.296-0.575c-1.543-0.153-3.082-0.341-4.615-0.551l-2.301-0.327
				l-1.152-0.175c-0.416-0.082-0.813-0.185-1.213-0.4c-0.197-0.109-0.4-0.249-0.563-0.473c-0.175-0.21-0.228-0.58-0.175-0.81
				l0.189-1.143c0.111-0.761,0.276-1.525,0.447-2.287c0.329-1.524,0.749-3.017,1.217-4.496c0.93-2.96,2.122-5.819,3.352-8.656
				C369.675,112.41,372.557,106.94,375.035,101.28z M375.035,101.28c-2.414,5.688-5.232,11.196-7.646,16.879
				c-1.219,2.836-2.268,5.743-3.117,8.699c-0.42,1.479-0.795,2.977-1.071,4.479c-0.146,0.75-0.285,1.5-0.375,2.271l-0.156,1.148
				c-0.015,0.147-0.004,0.191,0.065,0.289c0.066,0.088,0.188,0.177,0.33,0.248c0.58,0.299,1.356,0.328,2.131,0.428l2.297,0.257
				c1.531,0.163,3.064,0.304,4.6,0.411c3.069,0.222,6.145,0.335,9.211,0.295c3.066-0.029,6.131-0.184,9.165-0.557
				c1.519-0.185,3.026-0.426,4.526-0.71l2.238-0.479l2.215-0.564l-0.559,0.747c-0.055-0.819-0.09-1.641-0.16-2.458
				c-0.115-0.814-0.168-1.636-0.302-2.446c-0.153-0.808-0.256-1.626-0.45-2.426c-0.203-0.797-0.346-1.611-0.6-2.396
				c-0.246-0.787-0.441-1.59-0.74-2.359c-0.283-0.774-0.533-1.563-0.869-2.318c-0.324-0.76-0.621-1.532-0.994-2.271
				c-0.36-0.744-0.699-1.5-1.108-2.22c-0.396-0.727-0.772-1.465-1.215-2.166c-0.435-0.707-0.841-1.429-1.308-2.115
				c-0.459-0.689-0.891-1.4-1.389-2.064c-0.492-0.668-0.949-1.364-1.477-2.007c-0.521-0.647-1.008-1.323-1.558-1.949
				c-0.545-0.627-1.067-1.276-1.633-1.888l-1.704-1.827l-1.77-1.767l-0.129-0.128l-0.004-0.161
				c-0.025-1.308-0.108-2.631-0.095-3.968c0.005-0.668,0.032-1.333,0.076-1.996c0.028-0.665,0.097-1.323,0.149-1.981
				c0.228-2.639,0.543-5.261,0.854-7.885l0.15,0.196c-1.336-0.225-2.68-0.407-4.029-0.442c-0.676-0.01-1.35,0.018-2.021,0.084
				l-0.998,0.151l-0.98,0.24l0.066-0.078l-0.322,2.106c-0.09,0.702-0.217,1.403-0.266,2.108c-0.037,0.353-0.067,0.705-0.059,1.058
				c-0.013,0.354-0.002,0.706,0.044,1.057c0.05,0.705,0.203,1.4,0.328,2.098l0.824,4.182
				C375.464,98.463,375.619,99.958,375.035,101.28z"/>
			<path fill="#333333" d="M370.971,130.667c1.75-0.154,3.502-0.26,5.26-0.334l5.252-0.249l2.615-0.159
				c0.868-0.071,1.733-0.166,2.6-0.248c0.861-0.111,1.717-0.249,2.572-0.372l2.532-0.526l-0.502,0.771l-0.817-3.038
				c-0.149-0.501-0.24-1.021-0.438-1.507l-0.573-1.465l-0.563-1.469c-0.197-0.484-0.344-0.991-0.604-1.449l-1.421-2.811
				c-0.243-0.464-0.448-0.95-0.751-1.382l-0.836-1.336l-0.832-1.339c-0.281-0.436-0.545-0.92-0.842-1.313
				c-0.316-0.414-0.614-0.903-0.947-1.255c-0.342-0.362-0.615-0.792-1.011-1.104c-0.384-0.32-0.715-0.708-1.134-0.984l-1.244-0.85
				l0.693,0.002l-0.566,0.397c-0.196,0.121-0.383,0.263-0.546,0.45c-0.343,0.346-0.702,0.672-0.989,1.092
				c-0.309,0.395-0.617,0.79-0.873,1.236c-0.271,0.431-0.563,0.852-0.794,1.314c-0.237,0.458-0.512,0.895-0.72,1.371l-0.658,1.411
				c-0.406,0.958-0.801,1.924-1.146,2.911c-0.188,0.488-0.34,0.988-0.504,1.485c-0.168,0.497-0.326,0.995-0.466,1.5
				c-0.309,1.001-0.587,2.012-0.845,3.03c-0.249,1.019-0.471,2.046-0.643,3.082c-0.063,0.519-0.174,1.037-0.207,1.56
				C370.956,129.616,370.954,130.138,370.971,130.667z M370.971,130.667c-0.07-0.522-0.125-1.054-0.111-1.583
				c-0.024-0.533,0.041-1.06,0.067-1.59c0.093-1.058,0.234-2.108,0.405-3.156c0.186-1.044,0.373-2.09,0.625-3.123
				c0.117-0.519,0.254-1.032,0.398-1.543c0.144-0.512,0.272-1.027,0.44-1.533c0.306-1.02,0.659-2.025,1.029-3.028l0.608-1.485
				c0.192-0.5,0.457-0.976,0.684-1.463c0.221-0.491,0.501-0.959,0.775-1.43c0.262-0.477,0.588-0.923,0.918-1.366
				c0.303-0.46,0.709-0.863,1.103-1.274c0.183-0.215,0.407-0.4,0.655-0.568l0.722-0.521l0.326-0.235l0.366,0.237l1.422,0.919
				c0.479,0.3,0.863,0.726,1.295,1.089c0.443,0.354,0.768,0.831,1.154,1.244c0.396,0.428,0.654,0.858,0.988,1.288
				c0.348,0.458,0.596,0.914,0.896,1.371l0.867,1.371l0.863,1.375c0.305,0.446,0.516,0.95,0.764,1.432l1.44,2.913
				c0.263,0.475,0.413,1,0.613,1.504l0.563,1.526l0.556,1.527c0.19,0.507,0.274,1.05,0.417,1.572l0.768,3.161l0.159,0.655
				l-0.661,0.114c-0.88,0.153-1.762,0.299-2.642,0.433c-0.886,0.085-1.769,0.184-2.652,0.256c-0.884,0.042-1.769,0.097-2.649,0.127
				l-2.645,0.037c-1.76,0.007-3.516-0.071-5.27-0.119L370.971,130.667z"/>
		</g>
	</g>
	<path fill="none" stroke="#333333" stroke-width="1.5481" stroke-miterlimit="10" d="M175.989,356.646"/>
	<g>
		<path fill="#333333" d="M176.312,296.761c0,0,0.617,0.378,1.676,1.066c0.53,0.343,1.16,0.783,1.909,1.24
			c0.776,0.406,1.647,0.86,2.577,1.376c0.907,0.55,2.018,0.941,3.116,1.471c1.097,0.545,2.326,0.951,3.572,1.426
			c1.232,0.513,2.573,0.854,3.906,1.279c1.324,0.459,2.732,0.718,4.107,1.082c1.383,0.337,2.788,0.59,4.163,0.869
			c1.392,0.188,2.745,0.489,4.077,0.631c1.329,0.164,2.613,0.347,3.84,0.447c1.224,0.133,2.385,0.21,3.458,0.295
			c2.146,0.136,3.944,0.243,5.203,0.248c1.261,0.031,1.984,0.025,1.984,0.025s-0.711,0.143-1.97,0.274
			c-1.259,0.129-3.064,0.305-5.239,0.34c-1.087,0.014-2.268,0.037-3.513-0.029c-1.248-0.025-2.562-0.117-3.918-0.246
			c-1.358-0.105-2.753-0.319-4.172-0.513c-1.407-0.268-2.846-0.505-4.265-0.836c-1.404-0.391-2.837-0.674-4.192-1.159
			c-1.366-0.444-2.711-0.878-3.961-1.44c-1.266-0.521-2.485-1.029-3.577-1.653c-1.102-0.604-2.175-1.094-3.07-1.748
			c-0.919-0.604-1.743-1.175-2.469-1.679c-0.691-0.545-1.262-1.058-1.748-1.46C176.848,297.247,176.312,296.761,176.312,296.761z"/>
	</g>
	<g>
		<path fill="#333333" d="M210.582,193.159c-0.016-0.002,0.118-0.051,0.127-0.204c0.016-0.163-0.101-0.377-0.214-0.703
			c-0.021-0.123-0.048-0.159-0.046-0.288c-0.004-0.124,0.015-0.242,0.048-0.354c0.067-0.229,0.208-0.452,0.408-0.645
			c0.177-0.201,0.531-0.331,0.74-0.408c0.138-0.04,0.317-0.062,0.486-0.084c0.152-0.002,0.309-0.004,0.468-0.006
			c0.167,0.019,0.269,0.012,0.501,0.055c0.144,0.029,0.289,0.061,0.437,0.09c0.295,0.067,0.599,0.137,0.912,0.207
			c0.314,0.091,0.653,0.265,0.995,0.403c0.337,0.146,0.711,0.303,1.022,0.533c0.188,0.132,0.37,0.29,0.534,0.496l0.118,0.168
			l0.057,0.086l0.014,0.021l0.051,0.125l0.011,0.031l0.087,0.255c0.127,0.273,0.163,1.061,0.144,1.317
			c-0.01,0.732-0.02,1.479-0.029,2.224c-0.028,0.745-0.056,1.489-0.083,2.224l-0.026,0.596l-0.071,0.545
			c-0.059,0.394-0.145,0.786-0.272,1.172c-0.09,0.209-0.126,0.349-0.263,0.605l-0.273,0.431c-0.245,0.313-0.521,0.632-0.765,0.843
			c-0.494,0.471-0.989,0.819-1.384,1.172c-0.411,0.35-0.711,0.699-0.953,1.044c-0.22,0.379-0.466,0.788-0.82,0.972
			c-0.379,0.171-0.687,0.04-0.827-0.083c-0.137-0.145-0.118-0.254-0.131-0.247c0.008-0.008,0.035,0.103,0.18,0.179
			c0.138,0.07,0.418,0.054,0.61-0.106c0.202-0.186,0.303-0.522,0.453-0.967c0.182-0.457,0.459-0.962,0.845-1.402
			c0.368-0.465,0.803-0.896,1.19-1.355c0.213-0.239,0.337-0.445,0.49-0.673l0.23-0.455l0.115-0.359
			c0.07-0.283,0.115-0.592,0.14-0.911l0.03-0.535l0.008-0.498c0.01-0.733,0.02-1.479,0.03-2.225
			c0.027-0.744,0.056-1.488,0.083-2.223l0.011-0.273l0.002-0.067c0,0.006,0.002-0.063,0.001,0.006l-0.001-0.021L216,193.781
			c0-0.109,0.04-0.203-0.031-0.403l-0.067-0.261l-0.009-0.032l-0.002-0.008c0.02,0.046-0.046-0.114,0.043,0.101l-0.004-0.006
			l-0.018-0.025l-0.029-0.054c-0.05-0.075-0.128-0.162-0.219-0.237c-0.236-0.21-0.504-0.315-0.762-0.481
			c-0.266-0.146-0.492-0.323-0.778-0.446c-0.302-0.111-0.595-0.219-0.878-0.322c-0.141-0.055-0.279-0.107-0.415-0.161
			c-0.05-0.023-0.232-0.063-0.34-0.095c-0.119-0.02-0.236-0.038-0.351-0.057c-0.098,0.002-0.181-0.017-0.293-0.016
			c-0.283,0.048-0.407,0.045-0.577,0.154c-0.155,0.093-0.273,0.22-0.359,0.352c-0.044,0.07-0.071,0.134-0.089,0.19
			c-0.028,0.049-0.016,0.187-0.026,0.224c0.029,0.307,0.07,0.6-0.006,0.782C210.697,193.17,210.572,193.143,210.582,193.159z"/>
	</g>
	<g>
		<path d="M184.498,181.675c0,0-0.103-0.001-0.294-0.003c-0.199-0.017-0.457,0.044-0.776,0.148
			c-0.323,0.096-0.681,0.315-1.084,0.564c-0.409,0.26-0.816,0.608-1.381,0.941c-0.26,0.156-0.531,0.321-0.812,0.491
			c-0.287,0.165-0.637,0.293-0.971,0.448c-0.34,0.163-0.695,0.283-1.063,0.392c-0.366,0.112-0.739,0.242-1.136,0.298
			c-0.412,0.063-0.754,0.155-1.244,0.198l-0.146,0.012c-0.093-0.006-0.192-0.019-0.289-0.034c-0.098-0.018-0.195-0.039-0.289-0.064
			c0.102,0.055-0.158-0.079-0.134-0.066l-0.008-0.005l-0.016-0.011l-0.031-0.02l-0.063-0.039c-0.092-0.008-0.556-0.476-0.633-0.653
			l-0.162-0.252l-0.176-0.36c-0.125-0.253-0.168-0.47-0.244-0.708c-0.105-0.473-0.154-0.953-0.124-1.429
			c0.046-0.479,0.113-0.925,0.309-1.398l0.22-0.563c0.1-0.201,0.225-0.414,0.338-0.617c0.48-0.816,1-1.376,1.661-1.971
			c0.604-0.474,1.113-0.966,1.76-1.338c0.651-0.36,1.256-0.725,1.841-0.962c0.597-0.206,1.146-0.375,1.627-0.523
			c0.478-0.161,0.938-0.147,1.29-0.209c0.718-0.08,1.118-0.107,1.118-0.107s-0.38,0.147-1.046,0.408
			c-0.324,0.141-0.74,0.229-1.166,0.469c-0.428,0.233-0.904,0.495-1.426,0.759c-0.497,0.304-0.969,0.709-1.508,1.063
			c-0.272,0.155-0.517,0.445-0.779,0.693c-0.258,0.259-0.535,0.509-0.81,0.771c-0.213,0.178-0.452,0.525-0.68,0.784
			c-0.179,0.297-0.441,0.597-0.57,0.879l-0.238,0.434l-0.208,0.566c-0.115,0.271-0.163,0.641-0.188,0.963
			c-0.03,0.333,0.001,0.663,0.06,0.979c0.046,0.144,0.08,0.328,0.138,0.435l0.073,0.186l0.156,0.255l0.038,0.063l0.02,0.032
			l0.01,0.016c-0.054-0.08-0.014-0.021-0.025-0.039c0.006,0.002,0.007,0.007,0.005,0.014c0.003,0.01-0.015,0.017-0.001,0.036
			l0.121,0.085l0.061,0.043l0.03,0.021l0.015,0.011l0.008,0.005c0.029,0.018-0.225-0.116-0.117-0.061
			c0.003-0.007,0.002-0.011,0.001-0.008c0,0.002-0.005,0.011,0,0.021l0.146-0.001c0.288-0.005,0.705-0.072,1.045-0.103
			c0.361-0.02,0.699-0.13,1.042-0.187c0.345-0.061,0.677-0.132,0.979-0.24c0.312-0.102,0.611-0.176,0.914-0.291
			c0.304-0.125,0.597-0.246,0.878-0.361c0.52-0.212,1.035-0.492,1.509-0.676c0.478-0.187,0.915-0.318,1.293-0.341
			c0.182-0.03,0.356-0.016,0.502,0.001c0.146,0.005,0.259,0.033,0.35,0.067C184.4,181.646,184.498,181.675,184.498,181.675z"/>
	</g>
	<g>
		<path d="M186.611,166.126c0,0-0.859,0.744-2.246,1.678c-0.349,0.229-0.728,0.476-1.138,0.717c-0.402,0.24-0.827,0.494-1.267,0.756
			c-0.422,0.285-0.917,0.577-1.313,0.879c-0.406,0.302-0.833,0.588-1.192,0.958c-0.188,0.174-0.398,0.329-0.573,0.511l-0.486,0.569
			c-0.358,0.375-0.598,0.759-0.611,0.946c-0.006,0.042-0.003,0.067-0.002,0.096l-0.001,0.001c0.031,0.059-0.043-0.077-0.033-0.062
			l0.005,0.011l0.012,0.021l0.023,0.042l0.046,0.083c0.009,0.001-0.002-0.015-0.012-0.005c0.051,0.074,0.198,0.16,0.37,0.214
			c0.087,0.026,0.178,0.051,0.274,0.066c0.007,0.021,0.199,0.017,0.287,0.031c0.225,0.021,0.442,0.042,0.65,0.062
			c0.366-0.038,0.72,0.004,1.04-0.06c0.314-0.065,0.617-0.07,0.842-0.147c0.459-0.132,0.744-0.2,0.744-0.2s-0.211,0.179-0.62,0.481
			c-0.201,0.16-0.484,0.275-0.805,0.438c-0.317,0.167-0.736,0.254-1.185,0.377c-0.207,0.027-0.423,0.056-0.647,0.086
			c-0.136,0.012-0.171,0.035-0.395,0.028c-0.136,0-0.277-0.012-0.424-0.03c-0.291-0.044-0.624-0.122-0.959-0.373
			c-0.096-0.082-0.196-0.187-0.271-0.278l-0.055-0.078l-0.026-0.04l-0.014-0.02l-0.007-0.01l-0.039-0.072l-0.005-0.01
			c-0.098-0.208-0.153-0.436-0.158-0.655c0.023-0.87,0.436-1.437,0.795-1.862l0.563-0.7c0.202-0.221,0.43-0.411,0.646-0.616
			c0.434-0.412,0.938-0.734,1.422-1.063c0.484-0.349,0.962-0.527,1.423-0.79c0.51-0.254,0.957-0.409,1.409-0.598
			c0.442-0.185,0.87-0.339,1.266-0.483C185.507,166.415,186.611,166.126,186.611,166.126z"/>
	</g>
	<g>
		<path d="M188.525,166.077c-0.135-0.13-0.264-0.263-0.379-0.398l-0.364-0.324c-0.246-0.212-0.5-0.39-0.744-0.567
			c-0.26-0.163-0.517-0.312-0.773-0.458c-0.137-0.062-0.266-0.131-0.396-0.199c-0.114-0.043-0.322-0.14-0.349-0.159
			c-0.322-0.105-0.641-0.227-0.954-0.354c-0.279-0.072-0.557-0.158-0.842-0.272c-0.311-0.082-0.626-0.167-0.946-0.286
			c-0.326-0.083-0.656-0.192-0.998-0.33l-0.132-0.053l0.027-0.054l0.113-0.223l0.09,0.232l-0.104-0.106
			c0.337-0.135,0.686-0.244,1.038-0.324c0.355-0.063,0.717-0.088,1.083-0.112c0.381,0.014,0.77,0.061,1.155,0.12
			c0.329,0.089,0.652,0.189,0.973,0.303c0.279,0.129,0.377,0.181,0.567,0.285c0.161,0.105,0.323,0.211,0.478,0.326
			c0.304,0.237,0.574,0.517,0.804,0.824c0.232,0.31,0.405,0.658,0.534,1.014c0.049,0.195,0.101,0.383,0.127,0.567
			C188.542,165.707,188.536,165.891,188.525,166.077z"/>
	</g>
	<g>
		<path d="M181.924,161.414c0,0,0.23-0.293,0.65-0.787c0.227-0.233,0.43-0.575,0.813-0.842c0.359-0.287,0.768-0.634,1.244-0.968
			c0.495-0.277,1.035-0.589,1.626-0.884c0.613-0.22,1.257-0.502,1.95-0.687c0.35-0.078,0.706-0.157,1.066-0.237
			c0.36-0.088,0.727-0.163,1.104-0.18c0.748-0.067,1.51-0.158,2.272-0.123l1.142,0.041c0.377,0.046,0.751,0.093,1.123,0.139
			c0.758,0.068,1.448,0.257,2.122,0.396c0.667,0.154,1.313,0.305,1.925,0.446c0.603,0.115,1.173,0.244,1.699,0.31
			c0.531,0.1,1.01,0.079,1.45,0.128c0.425-0.037,0.813-0.03,1.127-0.069c0.614-0.124,0.992-0.188,0.992-0.188
			s-0.314,0.181-0.911,0.484c-0.306,0.124-0.694,0.231-1.146,0.361c-0.454,0.054-0.985,0.187-1.553,0.17
			c-0.575,0.032-1.188,0-1.835-0.054c-0.638-0.067-1.314-0.138-1.982-0.246c-0.682-0.101-1.387-0.198-2.07-0.255
			c-0.346-0.035-0.694-0.069-1.045-0.104l-1.057-0.012c-0.707-0.053-1.407,0.018-2.1,0.061c-0.695,0.026-1.357,0.18-2.017,0.256
			c-0.643,0.136-1.256,0.308-1.852,0.44c-0.563,0.214-1.104,0.409-1.612,0.585c-0.473,0.236-0.906,0.453-1.29,0.646
			c-0.406,0.168-0.707,0.447-0.982,0.612C182.24,161.218,181.924,161.414,181.924,161.414z"/>
	</g>
	<g>
		<path d="M205.354,157.48c0,0-0.063-0.098-0.146-0.268c-0.098-0.166-0.243-0.301-0.419-0.484c-0.094-0.079-0.196-0.165-0.304-0.255
			c-0.1-0.089-0.237-0.166-0.353-0.256c-0.124-0.086-0.254-0.174-0.385-0.265c-0.075-0.03-0.301-0.184-0.441-0.274
			c-0.156-0.115-0.316-0.231-0.443-0.297c-0.136-0.078-0.263-0.169-0.387-0.263c-0.117-0.102-0.269-0.174-0.393-0.266
			c-0.132-0.08-0.253-0.175-0.367-0.267c-0.473-0.291-0.824-0.619-0.824-0.619s0.102-0.047,0.284-0.103
			c0.182-0.05,0.453-0.122,0.776-0.137c0.158,0.002,0.333,0.007,0.515,0.034c0.182,0.03,0.38,0.023,0.577,0.104
			c0.197,0.066,0.404,0.143,0.606,0.234c0.223,0.086,0.374,0.196,0.533,0.301c0.175,0.128,0.271,0.19,0.502,0.379
			c0.162,0.15,0.309,0.313,0.435,0.486c0.245,0.353,0.422,0.733,0.474,1.092c0.058,0.346,0.001,0.689-0.081,0.858
			C205.422,157.386,205.354,157.48,205.354,157.48z"/>
	</g>
	<g>
		<path d="M201.783,152.137c0,0,0.33-0.112,0.911-0.284c0.287-0.094,0.646-0.175,1.073-0.239c0.425-0.083,0.909-0.157,1.436-0.172
			c0.529-0.052,1.104-0.047,1.713-0.008c0.611,0.016,1.248,0.124,1.908,0.231c0.646,0.161,1.335,0.279,1.991,0.542
			c0.687,0.218,1.287,0.518,2.001,0.84c0.592,0.354,1.176,0.665,1.77,1.112c0.613,0.395,1.098,0.887,1.604,1.322
			c0.468,0.479,0.926,0.935,1.289,1.427c0.383,0.476,0.719,0.941,0.98,1.404c0.293,0.44,0.509,0.875,0.684,1.268
			c0.191,0.382,0.333,0.725,0.425,1.019c0.198,0.58,0.294,0.91,0.294,0.91s-0.217-0.279-0.565-0.766
			c-0.163-0.25-0.396-0.53-0.656-0.852c-0.253-0.326-0.549-0.681-0.894-1.049c-0.325-0.382-0.718-0.757-1.123-1.157
			c-0.394-0.41-0.882-0.767-1.335-1.182c-0.492-0.372-1.001-0.763-1.525-1.097c-0.489-0.362-1.127-0.682-1.717-1.019
			c-0.532-0.245-1.149-0.581-1.748-0.781c-0.595-0.248-1.202-0.432-1.79-0.621c-0.6-0.132-1.173-0.326-1.735-0.411
			c-0.561-0.101-1.093-0.206-1.593-0.25c-0.501-0.069-0.957-0.107-1.365-0.125c-0.408-0.027-0.774-0.058-1.078-0.046
			C202.131,152.153,201.783,152.137,201.783,152.137z"/>
	</g>
	<g>
		<path d="M221.853,161.958c0,0,0.003,0.021,0.007,0.066c-0.021,0.038-0.079,0.122-0.193,0.096
			c-0.113-0.019-0.183-0.157-0.219-0.282c-0.033-0.12-0.07-0.258-0.112-0.413c-0.077-0.308-0.171-0.683-0.277-1.112
			c-0.1-0.434-0.225-0.912-0.312-1.464c-0.102-0.568-0.163-1.169-0.026-1.938c0.034-0.151,0.069-0.306,0.105-0.46
			c0.066-0.18,0.159-0.379,0.249-0.569c0.079-0.206,0.223-0.354,0.354-0.521c0.126-0.171,0.275-0.325,0.474-0.445
			c0.729-0.598,1.777-0.671,2.609-0.387c0.432,0.139,0.806,0.332,1.185,0.639c0.142,0.12,0.274,0.214,0.422,0.354l0.455,0.491
			c0.249,0.326,0.476,0.646,0.667,0.968l0.148,0.241l0.145,0.263l0.252,0.472c0.336,0.63,0.658,1.234,0.934,1.875
			c0.273,0.642,0.512,1.273,0.739,1.866c0.228,0.593,0.366,1.172,0.522,1.697c0.323,1.047,0.468,1.953,0.583,2.58
			c0.108,0.629,0.156,0.99,0.156,0.99s-0.173-0.325-0.45-0.897c-0.134-0.287-0.296-0.635-0.481-1.034
			c-0.17-0.404-0.414-0.84-0.64-1.326c-0.243-0.479-0.475-1.016-0.752-1.555c-0.287-0.533-0.592-1.091-0.879-1.679
			c-0.292-0.587-0.708-1.173-1.04-1.795l-0.264-0.464l-0.119-0.205l-0.14-0.214c-0.181-0.292-0.385-0.553-0.574-0.798l-0.266-0.315
			c-0.106-0.112-0.264-0.234-0.394-0.35c-0.171-0.152-0.438-0.31-0.682-0.388c-0.495-0.171-1.014-0.185-1.359,0.083
			c-0.105,0.04-0.193,0.119-0.27,0.217c-0.076,0.09-0.189,0.162-0.232,0.265l-0.193,0.287c-0.055,0.148-0.109,0.297-0.162,0.442
			c-0.126,0.44-0.207,1.027-0.195,1.533c0.01,1.065,0.026,1.98,0.011,2.616c0.015,0.321-0.063,0.582,0.056,0.654
			c0.056,0.037,0.113,0.003,0.145-0.019C221.848,161.98,221.853,161.958,221.853,161.958z"/>
	</g>
	<g>
		<path d="M231.173,164.855c-0.321-0.49-0.499-1.041-0.518-1.653c-0.001-0.153,0.021-0.314,0.034-0.477
			c0.022-0.163,0.089-0.327,0.139-0.493c0.072-0.162,0.176-0.319,0.272-0.479c0.125-0.142,0.265-0.275,0.405-0.405l0.891-0.825
			l0.291,1.243c0.083,0.358,0.157,0.721,0.205,1.085c0.004,0.368-0.023,0.737-0.063,1.097c-0.101,0.358-0.206,0.707-0.347,1.037
			c-0.193,0.319-0.394,0.625-0.657,0.882c-0.096-0.381-0.128-0.713-0.152-1.03c-0.07-0.325-0.106-0.631-0.137-0.928
			c-0.067-0.3-0.123-0.589-0.147-0.879c-0.079-0.281-0.133-0.564-0.177-0.854l1.181,0.418c-0.05,0.046-0.107,0.082-0.168,0.123
			c-0.047,0.059-0.105,0.104-0.161,0.169c-0.1,0.138-0.214,0.305-0.308,0.51c-0.089,0.207-0.183,0.437-0.274,0.682
			C231.393,164.318,231.299,164.585,231.173,164.855z"/>
	</g>
	<g>
		<path d="M234.604,164.864c0,0,0.007,0.202,0.06,0.571c0.096,0.355,0.334,0.836,0.8,1.338c0.459,0.518,1.138,0.982,1.892,1.661
			c0.349,0.347,0.756,0.655,1.119,1.092c0.348,0.441,0.785,0.887,1.096,1.412c0.7,1.017,1.344,2.196,1.871,3.498
			c0.545,1.295,1.018,2.697,1.408,4.16c0.406,1.485,0.778,2.949,1.088,4.542c0.158,0.785,0.264,1.587,0.398,2.386
			c0.075,0.813,0.196,1.62,0.23,2.441c0.017,0.823,0.074,1.643,0.002,2.467l-0.065,1.229l-0.181,1.217
			c-0.219,1.603-0.77,3.204-1.361,4.563c-0.665,1.45-1.441,2.704-2.259,3.846c-0.806,1.146-1.65,2.152-2.443,3.063
			c-1.598,1.812-2.982,3.25-4.01,4.227c-0.515,0.483-0.954,0.821-1.266,1.036c-0.303,0.223-0.465,0.341-0.465,0.341
			s0.143-0.142,0.411-0.404c0.278-0.25,0.644-0.66,1.103-1.182c0.91-1.046,2.09-2.679,3.534-4.575
			c0.708-0.96,1.455-2.009,2.176-3.149c0.724-1.135,1.391-2.405,1.947-3.692c0.562-1.401,0.941-2.783,1.156-4.301l0.154-1.129
			l0.048-1.15c0.063-0.768-0.008-1.546-0.026-2.321c-0.022-0.777-0.131-1.555-0.193-2.33c-0.122-0.771-0.215-1.547-0.359-2.306
			c-0.281-1.498-0.587-3.061-0.936-4.478c-0.348-1.441-0.715-2.819-1.166-4.086c-0.223-0.635-0.458-1.245-0.726-1.813
			c-0.234-0.59-0.537-1.113-0.819-1.625c-0.575-0.999-1.206-1.846-1.879-2.579c-0.621-0.698-1.295-1.283-1.71-1.868
			c-0.442-0.575-0.605-1.146-0.652-1.525C234.582,165.064,234.604,164.864,234.604,164.864z"/>
	</g>
	<g>
		<path d="M208.115,190.984c-0.479,0.521-0.505,1.23-0.503,1.886c0.001,0.335,0.059,0.661,0.085,1.008l0.102,1.019
			c0.03,0.341,0.063,0.683,0.144,1.006l0.199,0.982l0.188,0.998c0.027,0.14,0.087,0.419,0.008,0.701
			c-0.008,0.133-0.139,0.3-0.238,0.43c-0.234,0.18-0.128,0.118-0.345,0.22c-0.09,0.03-0.121,0.057-0.263,0.078l-0.126,0.021
			l-0.253,0.042c-0.144,0.044-0.405,0.015-0.618,0.006c-0.235-0.001-0.426-0.069-0.623-0.13c-0.203-0.048-0.391-0.136-0.569-0.248
			l-0.272-0.158l-0.033-0.021l-0.079-0.07l-0.046-0.044l-0.093-0.088c-0.123-0.121-0.246-0.229-0.37-0.36
			c-0.241-0.343-0.516-0.731-0.637-1.058c-0.327-0.685-0.505-1.348-0.735-1.951c-0.114-0.297-0.231-0.589-0.382-0.827
			c-0.119-0.28-0.329-0.435-0.482-0.653l0.943,0.042c-0.545,0.433-1.123,0.825-1.753,1.111c-0.629,0.285-1.282,0.513-1.95,0.646
			c-0.665,0.157-1.344,0.225-2.019,0.243c-0.675,0.023-1.351-0.015-2.016-0.112c-0.666-0.097-1.32-0.253-1.963-0.446
			c-0.642-0.201-1.264-0.456-1.871-0.749c-0.599-0.313-1.181-0.658-1.717-1.078l-0.395-0.323c-0.076-0.063-0.109-0.084-0.22-0.185
			l-0.168-0.168l-0.671-0.676c-0.447-0.51-0.881-1.018-1.265-1.513c-0.396-0.498-0.765-1.007-1.163-1.473
			c-0.385-0.486-0.808-0.91-1.233-1.335l-0.686-0.563c-0.233-0.181-0.498-0.302-0.747-0.46l-0.19-0.111l-0.048-0.028
			c0.03,0.011-0.023-0.01-0.03-0.014l-0.11-0.044c-0.144-0.054-0.302-0.132-0.433-0.163l-0.391-0.101l-0.413-0.044
			c-0.142-0.03-0.27,0.019-0.408,0.021c-0.054,0.004-0.172,0.017-0.173,0.012l-0.224,0.079c-0.334,0.088-0.515,0.248-0.752,0.392
			c-0.901,0.766-1.386,1.995-1.81,3.175c0.22-1.235,0.524-2.53,1.463-3.556c0.27-0.23,0.578-0.486,0.855-0.59l0.213-0.104
			c0.148-0.057,0.19-0.051,0.292-0.078c0.174-0.028,0.353-0.102,0.528-0.09c0.177-0.003,0.355-0.011,0.534,0l0.537,0.093
			c0.179,0.032,0.311,0.088,0.468,0.131l0.113,0.035l0.081,0.025l0.057,0.027l0.229,0.106c0.301,0.152,0.626,0.275,0.908,0.458
			l0.831,0.576c0.499,0.436,0.996,0.88,1.428,1.361c0.453,0.468,0.858,0.96,1.279,1.427c0.409,0.489,0.815,0.925,1.216,1.354
			l0.688,0.645l0.174,0.161l0.15,0.111l0.349,0.264c0.477,0.34,0.988,0.631,1.512,0.9c0.536,0.249,1.086,0.467,1.654,0.638
			c0.569,0.163,1.148,0.294,1.734,0.371c0.586,0.072,1.176,0.127,1.764,0.108c0.587-0.01,1.176-0.059,1.741-0.188
			c0.573-0.105,1.123-0.293,1.647-0.521c0.528-0.226,1.013-0.524,1.473-0.859l0.585-0.426l0.358,0.468
			c0.25,0.327,0.558,0.646,0.702,1.003c0.195,0.352,0.317,0.698,0.437,1.043c0.232,0.675,0.38,1.345,0.607,1.907
			c0.103,0.321,0.239,0.485,0.343,0.729c0.101,0.123,0.228,0.249,0.34,0.374l0.087,0.094l0.044,0.047l0.011,0.013l0.005,0.006
			l0.003,0.003c-0.023-0.021,0.058,0.051-0.053-0.046l0.021,0.013l0.165,0.105c0.105,0.081,0.22,0.146,0.352,0.181
			c0.126,0.049,0.255,0.104,0.365,0.108c0.125,0.01,0.203,0.075,0.397,0.042l0.255-0.021l0.128-0.011
			c-0.058,0.015-0.01,0.003-0.018,0.013c-0.049,0.064,0.2-0.105,0.098-0.024c-0.021-0.02,0.009,0.036,0.006-0.011
			c0.007-0.021,0.024-0.049,0.02-0.104c0.009-0.035,0.003-0.115-0.01-0.206l-0.104-1.026l-0.088-1.041
			c-0.042-0.348-0.033-0.688-0.023-1.028l0.02-1.023c0.015-0.335-0.003-0.688,0.037-1.036
			C207.367,192.18,207.564,191.419,208.115,190.984z"/>
	</g>
	<g>
		<path d="M208.817,190.165c0,0,0.103-0.111,0.294-0.32c0.185-0.21,0.493-0.507,0.934-0.819c0.438-0.313,1.016-0.641,1.733-0.909
			c0.723-0.254,1.574-0.449,2.56-0.416c0.431,0.006,0.966,0.071,1.482,0.191c0.509,0.122,1.021,0.308,1.522,0.554
			c0.994,0.487,1.987,1.242,2.695,2.235c0.174,0.211,0.344,0.456,0.507,0.74c0.163,0.269,0.341,0.547,0.468,0.812
			c0.288,0.539,0.536,1.07,0.783,1.63c0.475,1.089,0.974,2.174,1.414,3.33c0.472,1.132,0.789,2.337,1.144,3.499
			c0.231,1.197,0.479,2.423,0.545,3.535c0.103,1.143,0.162,2.189,0.403,3.125c0.236,0.933,0.631,1.723,1.197,2.307
			c0.116,0.103,0.331,0.292,0.479,0.393c0.163,0.094,0.297,0.208,0.477,0.292c0.336,0.187,0.683,0.331,1.02,0.444
			c0.676,0.229,1.3,0.364,1.815,0.474c0.506,0.119,0.902,0.112,1.14-0.027c0.232-0.142,0.22-0.34,0.233-0.326
			c-0.02-0.013,0.044,0.18-0.184,0.395c-0.22,0.203-0.704,0.317-1.23,0.259c-0.528-0.034-1.174-0.077-1.921-0.215
			c-0.373-0.068-0.771-0.168-1.184-0.324c-0.208-0.06-0.422-0.194-0.64-0.302c-0.22-0.127-0.35-0.219-0.589-0.391
			c-0.784-0.637-1.385-1.596-1.723-2.65c-0.355-1.052-0.511-2.188-0.647-3.289c-0.11-1.145-0.428-2.189-0.639-3.321
			c-0.355-1.098-0.667-2.223-1.138-3.313c-0.398-1.102-0.889-2.213-1.346-3.305c-0.229-0.526-0.458-1.071-0.693-1.568
			c-0.113-0.267-0.242-0.479-0.362-0.707l-0.182-0.339l-0.243-0.351c-0.575-0.867-1.317-1.534-2.141-2.023
			c-0.409-0.245-0.84-0.427-1.266-0.578c-0.419-0.143-0.813-0.246-1.284-0.303c-0.818-0.103-1.626-0.049-2.315,0.086
			c-0.69,0.15-1.277,0.378-1.736,0.615c-0.451,0.242-0.811,0.444-1.033,0.626C208.939,190.075,208.817,190.165,208.817,190.165z"/>
	</g>
	<g>
		<path d="M178.659,189.731c0,0,0.044,0.222,0.095,0.604c0.023,0.19,0.057,0.425,0.075,0.689c0.03,0.265,0.036,0.569,0.076,0.888
			c0.116,0.637,0.131,1.352,0.267,2.124c0.063,0.387,0.12,0.783,0.168,1.188c0.057,0.403,0.16,0.803,0.23,1.208
			c0.059,0.409,0.147,0.811,0.261,1.195c0.111,0.386,0.174,0.786,0.291,1.148c0.128,0.36,0.232,0.719,0.336,1.062
			c0.089,0.351,0.259,0.634,0.361,0.934c0.129,0.281,0.202,0.577,0.327,0.799c0.125,0.223,0.223,0.43,0.309,0.6
			c0.168,0.344,0.259,0.557,0.259,0.557s-0.183-0.119-0.493-0.356c-0.154-0.12-0.346-0.268-0.555-0.45
			c-0.217-0.178-0.393-0.428-0.609-0.689c-0.199-0.271-0.479-0.542-0.641-0.892c-0.188-0.338-0.391-0.696-0.58-1.079
			c-0.184-0.384-0.306-0.803-0.451-1.223c-0.158-0.419-0.258-0.858-0.332-1.302c-0.069-0.442-0.174-0.884-0.201-1.322
			c-0.025-0.44-0.039-0.873-0.046-1.291c-0.025-0.415,0.037-0.827,0.076-1.211c0.035-0.386,0.091-0.744,0.142-1.073
			c0.046-0.328,0.15-0.609,0.219-0.868c0.07-0.257,0.147-0.479,0.207-0.662C178.574,189.939,178.659,189.731,178.659,189.731z"/>
	</g>
	<g>
		<path d="M181.477,202.916c0,0,0.12,0.25,0.304,0.693c0.162,0.455,0.38,1.135,0.49,1.96c0.132,0.827,0.182,1.81,0.128,2.844
			c-0.036,1.036-0.189,2.121-0.35,3.188c-0.175,1.066-0.375,2.115-0.556,3.094c-0.036,0.237-0.094,0.499-0.135,0.704
			c-0.022,0.147-0.027,0.179-0.036,0.18c-0.005,0.01-0.005-0.007-0.011-0.013c-0.02-0.026,0.016,0.035-0.057-0.06
			c0.038,0.056,0.084,0.103,0.04,0.056c-0.047-0.018,0.063,0.057,0.163,0.102c0.105,0.055,0.21,0.107,0.313,0.161
			c0.19,0.104,0.374,0.208,0.551,0.306c0.662,0.39,1.259,0.519,1.721,0.475c0.457-0.027,0.727-0.119,0.727-0.119
			s-0.057,0.039-0.162,0.113c-0.106,0.073-0.269,0.183-0.502,0.274c-0.23,0.091-0.536,0.186-0.902,0.189
			c-0.362,0.005-0.778-0.059-1.188-0.181c-0.194-0.063-0.398-0.124-0.608-0.19l-0.306-0.084c-0.109-0.034-0.221-0.032-0.458-0.183
			c-0.148-0.103-0.179-0.146-0.218-0.178c-0.114-0.138-0.091-0.137-0.14-0.214c-0.03-0.062-0.062-0.127-0.071-0.179
			c-0.069-0.229-0.052-0.443-0.058-0.539c0.01-0.278,0.006-0.512,0.022-0.775c0.054-1.03,0.19-2.112,0.349-3.178
			c0.17-1.051,0.34-2.103,0.499-3.088c0.147-0.979,0.266-1.887,0.339-2.677c0.071-0.792,0.093-1.45,0.106-1.927
			C181.465,203.193,181.477,202.916,181.477,202.916z"/>
	</g>
	<g>
		<path d="M204.627,225.658c0,0,0.946,0.756,2.217,2.023c0.635,0.64,1.355,1.413,2.037,2.333c0.346,0.453,0.682,0.948,0.997,1.467
			c0.287,0.539,0.607,1.07,0.839,1.658c0.256,0.573,0.416,1.191,0.587,1.791c0.112,0.617,0.228,1.229,0.207,1.832
			c-0.008,0.301,0.027,0.596-0.02,0.882c-0.046,0.284-0.092,0.563-0.136,0.833c-0.07,0.542-0.305,1.018-0.443,1.46
			c-0.177,0.435-0.415,0.797-0.593,1.125c-0.162,0.337-0.414,0.567-0.569,0.781c-0.341,0.412-0.542,0.631-0.542,0.631
			s0.095-0.295,0.273-0.782c0.078-0.249,0.229-0.521,0.299-0.875c0.076-0.348,0.199-0.724,0.281-1.139
			c0.032-0.428,0.153-0.869,0.147-1.348c0.014-0.479,0.015-0.974-0.059-1.484c-0.014-0.513-0.206-1.024-0.297-1.553
			c-0.168-0.52-0.32-1.049-0.563-1.557c-0.186-0.525-0.468-1.021-0.712-1.521c-0.288-0.482-0.525-0.985-0.824-1.439
			c-0.555-0.932-1.128-1.785-1.6-2.54C205.176,226.746,204.627,225.658,204.627,225.658z"/>
	</g>
	<g>
		<path d="M232.121,211.134c0,0-0.016,0.075-0.046,0.217c-0.044,0.141-0.041,0.354-0.058,0.599c0,0.259,0.028,0.566,0.078,0.919
			c0.061,0.352,0.146,0.741,0.258,1.167c0.233,0.846,0.571,1.815,0.977,2.844c0.419,1.021,0.878,2.111,1.396,3.174
			c0.244,0.538,0.502,1.07,0.768,1.589c0.277,0.511,0.516,1.034,0.788,1.518c0.528,0.975,1.042,1.873,1.523,2.614
			c0.485,0.737,0.931,1.324,1.301,1.684c0.364,0.364,0.652,0.496,0.652,0.496s-0.076-0.013-0.22-0.034
			c-0.144-0.024-0.361-0.082-0.607-0.208c-0.503-0.238-1.153-0.709-1.814-1.375c-0.671-0.657-1.354-1.509-2.001-2.471
			c-0.656-0.958-1.251-2.041-1.789-3.152c-0.511-1.124-0.971-2.273-1.284-3.396c-0.32-1.117-0.518-2.2-0.564-3.146
			c-0.034-0.47-0.011-0.909,0.027-1.293c0.039-0.386,0.125-0.717,0.21-0.981C231.913,211.352,232.134,211.147,232.121,211.134z"/>
	</g>
	<g>
		<path d="M206.354,247.109l2.855-0.014c0.949-0.07,1.895-0.18,2.841-0.267c1.885-0.263,3.753-0.628,5.612-1.031
			c3.718-0.81,7.426-1.719,10.944-3.095c0.871-0.362,1.747-0.711,2.58-1.147c0.857-0.388,1.652-0.887,2.462-1.354
			c0.366-0.207,0.772-0.529,1.156-0.788c0.385-0.277,0.798-0.537,1.127-0.85l1.043-0.895c0.347-0.298,0.647-0.659,0.973-0.984
			c0.67-0.64,1.195-1.399,1.776-2.111c0.278-0.363,0.491-0.771,0.74-1.154c0.243-0.389,0.496-0.771,0.663-1.194l0.567-1.238
			c0.156-0.424,0.272-0.86,0.412-1.29l0.203-0.646c0.047-0.22,0.07-0.444,0.107-0.666l0.207-1.332l0.613,0.808
			c-0.86-0.147-1.729,0.032-2.543,0.501c-0.82,0.44-1.563,1.135-2.266,1.863c-0.702,0.74-1.358,1.558-2.035,2.379
			c-0.782,0.832-1.426,1.585-2.225,2.348l-1.238,1.093c-0.406,0.372-0.825,0.726-1.277,1.022c-0.889,0.622-1.751,1.281-2.713,1.784
			l-1.407,0.806l-1.47,0.68c-0.966,0.482-1.989,0.827-3.006,1.178c-1.001,0.4-2.071,0.577-3.104,0.863
			c-1.043,0.252-2.116,0.355-3.169,0.54c-1.085,0.071-2.12,0.174-3.194,0.185l-1.607-0.057l-0.802-0.029
			c-0.286-0.025-0.528-0.095-0.796-0.136c-1.05-0.191-2.057-0.617-3.089-0.757c-1.016-0.218-2.155,0.024-2.95,0.706
			c-0.771,0.683-1.187,1.894-0.664,2.852C204.177,246.644,205.318,247.056,206.354,247.109z M206.354,247.109
			c-1.035-0.044-2.187-0.441-2.697-1.415c-0.54-0.968-0.132-2.206,0.65-2.91c0.812-0.708,1.948-0.998,3.01-0.805
			c1.075,0.117,2.066,0.508,3.106,0.667c0.258,0.035,0.536,0.09,0.777,0.101l0.79-0.011l1.575-0.019
			c1.044-0.058,2.122-0.215,3.148-0.332c1.027-0.231,2.07-0.382,3.077-0.677c0.997-0.33,2.027-0.549,2.983-0.986
			c0.974-0.389,1.947-0.768,2.86-1.281l1.388-0.723l1.317-0.842c0.901-0.524,1.697-1.199,2.519-1.833
			c0.202-0.162,0.416-0.313,0.612-0.479l0.562-0.522l1.123-1.043c0.719-0.719,1.437-1.604,2.09-2.331
			c0.664-0.822,1.33-1.67,2.08-2.479c0.759-0.799,1.573-1.595,2.619-2.178c1.019-0.604,2.346-0.888,3.583-0.646l0.723,0.142
			l-0.107,0.666l-0.242,1.488c-0.043,0.247-0.074,0.497-0.131,0.74l-0.229,0.717c-0.159,0.474-0.292,0.959-0.479,1.421l-0.658,1.34
			c-0.199,0.459-0.482,0.866-0.758,1.278c-0.279,0.406-0.525,0.84-0.836,1.223c-0.64,0.749-1.229,1.544-1.976,2.186
			c-0.363,0.331-0.693,0.69-1.083,0.995l-1.171,0.91c-0.385,0.322-0.794,0.551-1.194,0.813c-0.417,0.253-0.77,0.515-1.24,0.761
			c-0.861,0.445-1.707,0.919-2.604,1.276c-0.877,0.405-1.787,0.721-2.691,1.047c-1.822,0.604-3.67,1.115-5.538,1.517
			c-1.863,0.425-3.74,0.748-5.611,1.105c-0.939,0.162-1.873,0.35-2.815,0.491c-0.944,0.128-1.884,0.284-2.829,0.401
			c-0.95,0.079-1.898,0.178-2.848,0.24L206.354,247.109z"/>
	</g>
	<g>
		<path d="M246.066,225.791c0,0,0.33-0.461,0.937-1.242c0.321-0.378,0.651-0.878,1.013-1.451c0.185-0.282,0.379-0.584,0.586-0.901
			c0.188-0.33,0.383-0.68,0.59-1.043c0.432-0.711,0.813-1.53,1.244-2.381c0.426-0.853,0.801-1.79,1.225-2.739
			c0.395-0.968,0.783-1.971,1.169-3.002c0.401-1.021,0.763-2.084,1.144-3.138c0.385-1.058,0.77-2.115,1.146-3.156
			c0.365-1.047,0.795-2.061,1.177-3.049c0.41-0.981,0.802-1.932,1.231-2.812c0.41-0.889,0.824-1.714,1.252-2.455
			c0.21-0.372,0.396-0.735,0.599-1.067c0.214-0.326,0.416-0.636,0.606-0.927c0.373-0.583,0.709-1.083,1.021-1.473
			c0.604-0.791,0.963-1.226,0.963-1.226s-0.247,0.516-0.707,1.384c-0.243,0.427-0.495,0.968-0.772,1.594
			c-0.287,0.618-0.596,1.321-0.907,2.101c-0.331,0.77-0.646,1.621-0.985,2.519c-0.354,0.891-0.654,1.862-1.021,2.843
			c-0.686,1.994-1.414,4.121-2.145,6.247c-0.4,1.06-0.781,2.123-1.207,3.159c-0.396,1.044-0.879,2.04-1.32,3.013
			c-0.469,0.962-0.942,1.884-1.448,2.728c-0.503,0.847-0.989,1.638-1.517,2.318c-0.256,0.346-0.488,0.683-0.729,0.99
			c-0.263,0.294-0.51,0.571-0.743,0.835c-0.461,0.526-0.865,0.971-1.238,1.293C246.497,225.422,246.066,225.791,246.066,225.791z"/>
	</g>
	<g>
		<path d="M263.85,193.872l1.202,0.067c0.399,0.03,0.796,0.138,1.199,0.203c0.796,0.174,1.58,0.395,2.345,0.663
			c0.775,0.245,1.514,0.568,2.262,0.862l2.216,0.894l1.106,0.401c0.326,0.115,0.752,0.225,1.125,0.338
			c0.776,0.254,1.508,0.372,2.26,0.552c0.771,0.107,1.533,0.262,2.313,0.302c0.771,0.096,1.551,0.112,2.329,0.138
			c0.778-0.005,1.562-0.005,2.339-0.069c0.78-0.046,1.561-0.108,2.338-0.214c0.778-0.081,1.553-0.233,2.326-0.36
			c0.77-0.163,1.547-0.287,2.313-0.48c1.539-0.352,3.061-0.789,4.578-1.249c1.516-0.476,3.021-0.993,4.521-1.535l-0.206,0.437
			l-0.174-0.569l-0.269-0.545l-0.35-0.506l-0.424-0.455l-0.489-0.395l-0.544-0.324l-0.589-0.253l-0.63-0.158l0.656,0.051
			l0.647,0.154l0.618,0.264l0.578,0.354l0.525,0.438l0.463,0.513l0.385,0.584l0.291,0.646l0.125,0.276l-0.33,0.16
			c-1.451,0.696-2.916,1.378-4.43,1.949c-1.508,0.584-3.041,1.114-4.613,1.525c-0.781,0.227-1.576,0.404-2.371,0.581
			c-0.803,0.144-1.602,0.312-2.414,0.406c-0.809,0.116-1.623,0.204-2.442,0.248c-0.815,0.057-1.641,0.048-2.46,0.041
			c-0.822-0.037-1.644-0.065-2.461-0.179c-0.82-0.077-1.626-0.271-2.436-0.418c-0.797-0.226-1.646-0.396-2.375-0.693
			c-0.385-0.146-0.731-0.256-1.149-0.432l-1.123-0.493c-1.469-0.696-2.864-1.472-4.293-2.161c-0.708-0.357-1.44-0.666-2.183-0.931
			c-0.375-0.115-0.745-0.256-1.135-0.354L263.85,193.872z"/>
	</g>
	<path fill="none" stroke="#000000" stroke-width="1.5481" stroke-miterlimit="10" d="M267.652,190.488
		c-2.012,0.555-3.924,1.468-5.618,2.687"/>
	<g>
		<path d="M301.167,194.858c0,0-0.099,0.664-0.283,1.909c-0.092,0.622-0.204,1.392-0.339,2.293c-0.152,0.899-0.381,1.926-0.613,3.08
			c-0.215,1.159-0.533,2.423-0.898,3.794c-0.18,0.688-0.364,1.402-0.557,2.145c-0.229,0.73-0.467,1.488-0.711,2.271
			c-0.937,3.148-2.302,6.602-3.951,10.296c-0.446,0.907-0.902,1.834-1.369,2.777c-0.234,0.472-0.471,0.947-0.711,1.427
			c-0.262,0.468-0.525,0.94-0.793,1.417c-0.529,0.948-1.069,1.912-1.617,2.893c-0.535,0.963-0.98,1.959-1.387,3.024
			c-0.809,2.118-1.396,4.399-2.06,6.74c-0.333,1.17-0.685,2.356-1.118,3.54c-0.423,1.162-0.85,2.335-1.279,3.519
			c-1.717,4.732-3.489,9.622-5.291,14.592c-1.787,4.985-3.84,9.964-5.578,15.012c-1.771,5.01-3.152,10.193-4.252,15.33
			c-1.096,5.143-1.924,10.261-2.508,15.244c-1.176,9.969-1.799,19.345-2.377,27.378c-0.279,4.019-0.586,7.699-0.888,10.959
			c-0.274,3.256-0.601,6.128-1.276,8.4c-0.646,2.287-1.672,3.898-2.514,4.835c-0.429,0.464-0.779,0.798-1.041,0.993
			c-0.253,0.204-0.384,0.31-0.384,0.31s0.126-0.11,0.369-0.325c0.252-0.205,0.587-0.555,0.991-1.031
			c0.8-0.964,1.716-2.595,2.287-4.859c0.594-2.262,0.823-5.097,0.991-8.364c0.177-3.266,0.378-6.949,0.595-10.971
			c0.449-8.037,0.783-17.441,1.912-27.479c0.555-5.019,1.354-10.187,2.428-15.387c1.08-5.204,2.432-10.43,4.209-15.557
			c1.793-5.093,3.871-10.037,5.682-14.99c1.834-4.955,3.641-9.833,5.387-14.554c0.438-1.18,0.873-2.349,1.303-3.507
			c0.418-1.139,0.791-2.292,1.144-3.444c0.704-2.305,1.343-4.61,2.224-6.792c0.435-1.082,0.941-2.157,1.517-3.143
			c0.565-0.966,1.123-1.917,1.672-2.854c0.272-0.466,0.543-0.928,0.812-1.386c0.246-0.47,0.489-0.936,0.73-1.396
			c0.479-0.926,0.949-1.833,1.41-2.724c1.688-3.633,3.156-7.01,4.189-10.104c0.27-0.771,0.528-1.517,0.779-2.235
			c0.215-0.73,0.422-1.437,0.621-2.113c0.408-1.354,0.768-2.601,1.018-3.745c0.271-1.142,0.514-2.159,0.725-3.047
			c0.173-0.896,0.318-1.657,0.438-2.274C301.04,195.518,301.167,194.858,301.167,194.858z"/>
	</g>
	<g>
		<path d="M144.128,296.103c0,0,3.131,8.104,7.827,20.259c1.173,3.037,2.498,6.304,3.923,9.748c1.45,3.434,3.025,7.031,4.706,10.729
			c1.704,3.686,3.555,7.448,5.566,11.202c1.025,1.865,2.061,3.744,3.168,5.592l0.408,0.695l0.205,0.35l0.051,0.088
			c-0.026-0.039,0.025,0.037,0.034,0.05c0.035,0.049,0.083,0.129,0.107,0.151c0.2,0.25,0.61,0.575,1.019,0.807
			c0.843,0.487,1.833,0.829,2.832,1.086c1.004,0.25,2.039,0.421,3.061,0.479c0.509,0.025,1.016,0.021,1.494-0.03
			c0.235-0.03,0.465-0.07,0.666-0.129c0.21-0.068,0.509-0.167,0.691-0.251c1.8-0.753,3.293-2.296,4.808-3.793
			c3.055-2.999,5.923-6.013,8.444-9.174c2.514-3.157,4.735-6.383,6.725-9.527c1.995-3.138,3.812-6.178,5.459-8.972
			c1.62-2.819,2.991-5.443,4.16-7.824c1.17-2.38,2.301-4.419,3.415-5.975c1.096-1.567,2.145-2.65,2.867-3.366
			c0.744-0.697,1.141-1.068,1.141-1.068s-0.375,0.393-1.079,1.128c-0.685,0.75-1.648,1.893-2.674,3.479
			c-1.038,1.582-2.07,3.636-3.137,6.052c-1.065,2.419-2.373,5.136-3.951,7.994c-1.599,2.854-3.355,5.903-5.277,9.122
			c-1.93,3.204-4.043,6.569-6.602,9.787c-2.528,3.231-5.449,6.35-8.469,9.366c-1.497,1.49-3.031,3.195-5.25,4.169
			c-0.312,0.138-0.527,0.208-0.831,0.312c-0.318,0.095-0.623,0.146-0.925,0.188c-0.6,0.069-1.18,0.074-1.754,0.049
			c-1.146-0.058-2.265-0.238-3.365-0.523c-1.098-0.292-2.183-0.662-3.219-1.266c-0.523-0.32-1.007-0.643-1.482-1.245
			c-0.064-0.08-0.083-0.119-0.126-0.182l-0.078-0.119l-0.051-0.088l-0.203-0.354l-0.407-0.707c-1.103-1.874-2.132-3.778-3.15-5.669
			c-1.998-3.801-3.83-7.606-5.515-11.327s-3.163-7.381-4.532-10.86c-1.345-3.488-2.591-6.796-3.691-9.864
			c-2.227-6.129-3.9-11.299-5.13-14.896C144.812,298.164,144.128,296.103,144.128,296.103z"/>
	</g>
	<g>
		<path d="M179.423,324.271c-0.313-0.796-0.568-1.618-0.902-2.398c-0.319-0.786-0.651-1.562-1.039-2.316
			c-0.356-0.769-0.779-1.502-1.167-2.25c-0.433-0.728-0.842-1.463-1.301-2.171c-1.787-2.865-3.875-5.525-5.93-8.254
			c-1.03-1.362-2.068-2.736-3.002-4.203c-0.475-0.718-0.924-1.501-1.341-2.231l-1.25-2.232c-0.835-1.483-1.66-2.971-2.525-4.435
			c-0.831-1.483-1.731-2.926-2.602-4.389l-0.104-0.174l0.023-0.175c0.117-0.889,0.271-1.772,0.359-2.668
			c0.095-0.895,0.208-1.788,0.286-2.688c0.094-0.896,0.161-1.799,0.234-2.7c0.036-0.452,0.078-0.896,0.058-1.339
			c-0.022-0.438-0.127-0.888-0.421-1.239c0.339,0.309,0.518,0.767,0.602,1.219c0.09,0.458,0.083,0.921,0.094,1.369
			c0.018,0.905,0.04,1.813,0.036,2.72c0.011,0.908-0.004,1.817-0.045,2.727c-0.024,0.909-0.115,1.817-0.17,2.729l-0.08-0.35
			c0.952,1.424,1.923,2.837,2.832,4.288c0.925,1.443,1.791,2.92,2.675,4.386l1.293,2.208c0.436,0.746,0.847,1.439,1.32,2.142
			c0.931,1.392,1.926,2.762,2.937,4.134c2.026,2.736,4.042,5.551,5.679,8.598c0.432,0.747,0.778,1.545,1.156,2.318
			c0.332,0.799,0.705,1.577,0.965,2.403c0.3,0.807,0.546,1.637,0.773,2.467C179.123,322.586,179.242,323.434,179.423,324.271z"/>
	</g>
	<g>
		<path d="M182.086,301.447c0,0-0.039,0.329-0.131,0.898c-0.051,0.283-0.111,0.626-0.182,1.021c-0.063,0.394-0.19,0.833-0.233,1.314
			c-0.095,0.973-0.315,2.043-0.44,3.245c-0.073,0.599-0.127,1.22-0.222,1.844c-0.104,0.622-0.14,1.268-0.206,1.907
			c-0.072,0.64-0.164,1.275-0.223,1.906c-0.044,0.634-0.133,1.254-0.195,1.854c-0.145,1.203-0.242,2.331-0.385,3.298
			c-0.224,1.935-0.446,3.24-0.446,3.24s-0.299-1.294-0.442-3.262c-0.058-0.981-0.125-2.132-0.087-3.36
			c0.023-0.613,0.021-1.251,0.066-1.896c0.042-0.646,0.115-1.299,0.174-1.952c0.086-0.652,0.142-1.308,0.265-1.945
			c0.104-0.64,0.246-1.264,0.361-1.87c0.098-0.604,0.29-1.188,0.452-1.738c0.158-0.552,0.327-1.063,0.482-1.534
			c0.132-0.481,0.36-0.869,0.519-1.236c0.175-0.36,0.326-0.674,0.451-0.933C181.924,301.736,182.086,301.447,182.086,301.447z"/>
	</g>
	<g>
		<path d="M265.729,193.553c1.067-0.723,1.848-1.772,2.459-2.869c0.305-0.552,0.473-1.148,0.674-1.767l0.59-1.832
			c0.822-2.437,1.689-4.86,2.703-7.232c1.027-2.364,2.193-4.679,3.537-6.891c1.322-2.228,2.855-4.301,4.076-6.496
			c0.291-0.563,0.604-1.097,0.813-1.657c0.197-0.523,0.332-1.116,0.385-1.695c0.105-1.169-0.059-2.37-0.488-3.469
			c-0.108-0.273-0.232-0.541-0.369-0.801l-0.438-0.873c-0.28-0.58-0.592-1.129-0.849-1.735c-0.537-1.191-1.062-2.388-1.521-3.59
			c-0.96-2.399-1.802-4.834-2.621-7.272c-0.809-2.441-1.589-4.892-2.348-7.343c-1.54-4.896-2.939-9.826-4.51-14.697
			c-0.78-2.437-1.594-4.86-2.455-7.265c-0.451-1.192-0.864-2.402-1.348-3.582l-0.709-1.775l-0.162-0.407l-0.211-0.432
			c-0.158-0.267-0.258-0.449-0.457-0.688c-1.467-1.83-3.842-2.964-5.965-4.491c-1.091-0.81-2.007-1.671-2.961-2.584
			c-0.933-0.917-1.816-1.939-2.451-3.132c-0.317-0.54-0.584-1.185-0.841-1.794c-0.229-0.612-0.452-1.223-0.649-1.834l-1.215-3.651
			l-2.367-7.32l-0.063-0.19l0.167-0.089c1.419-0.757,3.207-0.642,4.498,0.27c0.302,0.214,0.606,0.501,0.837,0.802
			c0.237,0.306,0.434,0.644,0.58,0.999c0.295,0.709,0.402,1.495,0.281,2.246l-0.012,0.077l-0.03-0.071l-0.308-0.74l0.349,0.722
			l-0.042,0.007c0.077-0.747-0.071-1.506-0.393-2.172c-0.16-0.333-0.363-0.644-0.604-0.921c-0.247-0.281-0.502-0.513-0.824-0.723
			c-0.603-0.39-1.331-0.6-2.05-0.613c-0.723-0.015-1.443,0.162-2.055,0.523l0.105-0.279l2.664,7.219l1.305,3.618
			c0.213,0.604,0.442,1.192,0.68,1.774c0.257,0.563,0.484,1.105,0.832,1.665c0.599,1.062,1.433,1.986,2.347,2.841
			c0.916,0.837,1.901,1.709,2.89,2.402c1.028,0.7,2.145,1.323,3.246,2.026c1.096,0.704,2.215,1.483,3.092,2.602
			c0.219,0.249,0.442,0.627,0.605,0.912l0.216,0.43l0.2,0.482l0.732,1.791c0.5,1.19,0.926,2.405,1.392,3.606
			c0.89,2.417,1.728,4.85,2.531,7.291c1.593,4.888,3.116,9.79,4.583,14.7c0.736,2.454,1.494,4.898,2.277,7.333
			c0.793,2.429,1.608,4.85,2.535,7.22c0.446,1.196,0.943,2.354,1.449,3.504c0.237,0.579,0.555,1.151,0.827,1.729l0.417,0.849
			c0.159,0.309,0.303,0.625,0.427,0.948c0.489,1.294,0.691,2.702,0.523,4.084c-0.085,0.693-0.248,1.36-0.519,2.029
			c-0.259,0.638-0.613,1.205-0.925,1.771c-1.336,2.258-2.917,4.277-4.269,6.428c-1.375,2.139-2.582,4.382-3.658,6.695
			c-1.09,2.308-2.063,4.673-2.979,7.061l-0.666,1.806c-0.219,0.592-0.438,1.227-0.789,1.783
			C267.741,191.921,266.844,192.911,265.729,193.553z"/>
	</g>
	<g>
		<path d="M252.664,84.228c0,0-0.112-1.096-0.077-2.713c0.002-0.81,0.047-1.749,0.214-2.755c0.137-1.011,0.329-2.072,0.538-3.152
			c0.132-0.544,0.294-1.137,0.627-1.71c0.175-0.286,0.392-0.563,0.677-0.779l0.217-0.155l0.055-0.037l0.014-0.009l0.074-0.043
			l0.021-0.011l0.088-0.038c0.119-0.052,0.209-0.104,0.426-0.159c0.74-0.206,1.297-0.07,1.813,0.092
			c0.504,0.167,0.938,0.423,1.267,0.694c0.323,0.235,0.61,0.497,0.86,0.723c0.243,0.217,0.457,0.407,0.631,0.563
			c0.367,0.276,0.588,0.457,0.588,0.457s-0.262-0.054-0.738-0.188c-0.467-0.169-1.064-0.458-1.794-0.789
			c-0.345-0.167-0.718-0.272-1.104-0.341c-0.367-0.067-0.815-0.022-1.043,0.065c-0.033-0.006-0.162,0.07-0.271,0.135l-0.083,0.047
			l-0.021,0.012c-0.058,0.032,0.07-0.041,0.057-0.032l-0.002,0.003l-0.006,0.005l-0.021,0.022l-0.089,0.082
			c-0.115,0.113-0.212,0.263-0.313,0.424c-0.188,0.35-0.31,0.805-0.414,1.304c-0.229,1.02-0.442,2.063-0.703,3.022
			c-0.131,0.484-0.256,0.951-0.373,1.394c-0.096,0.452-0.205,0.877-0.309,1.27C253.064,83.199,252.664,84.228,252.664,84.228z"/>
	</g>
	<g>
		<path d="M262.134,74.724c0,0,0.147-0.185,0.429-0.482c0.151-0.141,0.319-0.335,0.563-0.504c0.243-0.191,0.49-0.361,0.916-0.529
			c0.169-0.053,0.323-0.117,0.521-0.165c0.231-0.025,0.491-0.054,0.744-0.036c0.242,0.053,0.51,0.059,0.76,0.182
			c0.127,0.062,0.254,0.128,0.381,0.202c0.072,0.05,0.104,0.045,0.209,0.143l0.119,0.104c0.146,0.112,0.394,0.411,0.508,0.55
			c0.146,0.171,0.275,0.336,0.389,0.44c0.115,0.131,0.209,0.151,0.232,0.169c0.021,0.011,0.029-0.018,0.043,0.007
			c0.068-0.009-0.094,0.013-0.074,0.01l0.006-0.001l0.012-0.002l0.021-0.004l0.042-0.009l0.083-0.018l0.168-0.034
			c0.246-0.08,0.639-0.254,1.042-0.447c0.412-0.19,0.813-0.394,1.318-0.533c0.11-0.04,0.256-0.063,0.396-0.083l0.207-0.029
			l0.025-0.003l0.014-0.001l0.09-0.003h0.005l0.038,0.005l0.077,0.011c0.112,0.019,0.183,0.017,0.323,0.051
			c0.156,0.042,0.308,0.094,0.447,0.149c0.479,0.246,0.787,0.569,1.002,0.885c0.229,0.306,0.371,0.609,0.492,0.876
			c0.121,0.261,0.19,0.528,0.269,0.627c0.103,0.135,0.219,0.228,0.304,0.222c0.091-0.004,0.116-0.089,0.122-0.078
			c-0.015-0.01,0.021,0.073-0.091,0.156c-0.118,0.075-0.333,0.053-0.533-0.064c-0.242-0.151-0.373-0.343-0.564-0.536
			c-0.19-0.193-0.408-0.405-0.646-0.597c-0.234-0.2-0.527-0.336-0.762-0.41c-0.047,0.001-0.086-0.004-0.123-0.019
			c-0.053-0.01-0.189,0.009-0.282,0.012l-0.077,0.005l-0.039,0.002h-0.005c0.166-0.005,0.045,0,0.081-0.001l-0.007,0.002
			l-0.013,0.006l-0.1,0.034c-0.064,0.021-0.129,0.035-0.214,0.081c-0.31,0.127-0.683,0.36-1.071,0.568
			c-0.394,0.216-0.818,0.455-1.447,0.633l-0.414,0.071c-0.209-0.009-0.438-0.012-0.629-0.082c-0.402-0.139-0.682-0.396-0.858-0.604
			c-0.202-0.216-0.326-0.421-0.448-0.596c-0.15-0.21-0.16-0.265-0.32-0.451c-0.205-0.233-0.395-0.356-0.686-0.465
			c-0.133-0.039-0.259-0.04-0.395-0.083c-0.166-0.01-0.359,0.013-0.527,0.018c-0.225,0.031-0.563,0.093-0.801,0.18
			c-0.256,0.074-0.479,0.171-0.668,0.237C262.354,74.641,262.134,74.724,262.134,74.724z"/>
	</g>
	<g>
		<path d="M276.055,76.919c0,0,0.063-0.104,0.18-0.264c0.051-0.083,0.146-0.164,0.293-0.243c0.147-0.097,0.32-0.164,0.505-0.194
			c0.384-0.104,0.848-0.046,1.304,0.119c0.221,0.097,0.451,0.208,0.646,0.377c0.103,0.08,0.209,0.156,0.291,0.263l0.131,0.152
			l0.065,0.077l0.032,0.039l0.016,0.02l0.059,0.093c0.091,0.183,0.186,0.362,0.264,0.546c0.09,0.155,0.139,0.441,0.184,0.664
			c0.041,0.229,0.086,0.473,0.063,0.654c-0.002,0.19-0.022,0.372-0.046,0.537c-0.033,0.33-0.139,0.591-0.201,0.779
			c-0.07,0.187-0.126,0.293-0.126,0.293s-0.075-0.097-0.181-0.264c-0.109-0.164-0.229-0.412-0.372-0.682
			c-0.072-0.135-0.147-0.28-0.207-0.434c-0.056-0.168-0.16-0.268-0.218-0.406c-0.076-0.136-0.09-0.248-0.221-0.434
			c-0.108-0.168-0.205-0.347-0.305-0.523l-0.004-0.009l-0.002-0.004c-0.042-0.069,0.056,0.091,0.045,0.073l-0.001-0.001l-0.008-0.01
			l-0.017-0.02l-0.033-0.04l-0.063-0.082c-0.037-0.059-0.086-0.11-0.138-0.159c-0.093-0.112-0.203-0.198-0.31-0.299
			c-0.218-0.181-0.449-0.342-0.678-0.438c-0.121-0.052-0.227-0.101-0.318-0.123c-0.096-0.031-0.211-0.067-0.313-0.051
			C276.175,76.931,276.055,76.919,276.055,76.919z"/>
	</g>
	<g>
		<path d="M279.542,82.28c0,0,0.058,0.355,0.134,0.977c0.061,0.624,0.199,1.502,0.205,2.577c0.028,1.072,0.036,2.339-0.045,3.664
			c-0.042,0.665-0.063,1.356-0.127,2.048c-0.061,0.693-0.119,1.397-0.18,2.103c-0.123,1.399-0.278,2.802-0.379,4.106
			c-0.037,0.654-0.146,1.288-0.164,1.887c-0.022,0.599-0.065,1.167-0.106,1.694c-0.05,0.527-0.065,1.01-0.067,1.438
			c-0.016,0.433-0.027,0.809-0.039,1.118c-0.029,0.624-0.062,0.986-0.062,0.986s-0.099-0.342-0.244-0.953
			c-0.067-0.307-0.151-0.679-0.247-1.107c-0.099-0.43-0.193-0.917-0.229-1.453c-0.059-0.534-0.117-1.116-0.159-1.733
			c-0.06-0.618-0.043-1.265-0.043-1.938c0.011-0.671-0.015-1.371,0.053-2.067c0.05-0.7,0.099-1.412,0.147-2.123
			c0.154-1.409,0.308-2.822,0.492-4.13c0.093-0.655,0.184-1.287,0.269-1.888c0.073-0.597,0.163-1.16,0.246-1.684
			c0.176-1.043,0.26-1.938,0.373-2.552C279.471,82.633,279.542,82.28,279.542,82.28z"/>
	</g>
	<g>
		<path d="M278.712,104.878c0,0,0.541,0.954,1.488,2.623c0.93,1.678,2.257,4.075,3.851,6.951c0.799,1.434,1.663,2.987,2.577,4.632
			c0.899,1.649,1.894,3.359,2.913,5.147c0.99,1.806,2.085,3.607,3.171,5.457c1.063,1.858,2.251,3.7,3.429,5.535
			c2.348,3.689,4.762,7.373,6.719,11.025c0.992,1.817,1.86,3.629,2.596,5.385c0.727,1.76,1.32,3.462,1.791,5.055
			c0.396,1.456,1.454,2.751,1.501,4.248c-0.062,1.426-0.438,2.526-0.778,3.441c-0.359,0.902-0.785,1.553-1.146,1.926
			c-0.178,0.188-0.331,0.316-0.445,0.385c-0.111,0.071-0.17,0.108-0.17,0.108s0.246-0.141,0.563-0.539
			c0.322-0.396,0.672-1.065,0.955-1.969c0.266-0.889,0.582-2.067,0.521-3.313c-0.142-1.248-1.265-2.343-1.845-4.021
			c-0.537-1.535-1.199-3.168-1.994-4.854c-0.814-1.677-1.741-3.411-2.748-5.182c-2.038-3.529-4.445-7.173-6.813-10.868
			c-1.173-1.863-2.346-3.717-3.409-5.61c-1.063-1.891-2.115-3.75-3.06-5.569c-1.919-3.629-3.581-7.111-5.065-10.041
			c-0.75-1.464-1.34-2.854-1.912-4.061c-0.56-1.213-1.047-2.271-1.448-3.142C279.161,105.878,278.712,104.878,278.712,104.878z"/>
	</g>
	<path d="M211.203,201.444c0.095,0.496,1.11,0.664,1.716,0.396c0.606-0.265,0.882-0.774,1.106-1.25
		c0.316-0.666,0.616-1.354,0.59-2.055c-0.027-0.703-0.435-1.434-1.271-1.824c-0.837-0.393-2.13-0.319-2.698,0.261
		c-0.676,0.688-0.075,1.647,0.746,2.254C210.774,199.938,211.046,200.62,211.203,201.444z"/>
	<g>
		<path fill="#333333" d="M212.244,199.661c0,0-0.074,0.491-0.214,1.414c-0.172,0.916-0.467,2.268-1.07,3.909
			c-0.584,1.651-1.475,3.59-2.646,5.727c-1.195,2.145-2.574,4.472-4.312,6.948c-0.826,1.26-1.834,2.458-2.798,3.763
			c-0.529,0.615-1.067,1.241-1.614,1.876c-0.274,0.317-0.551,0.638-0.829,0.96c-0.299,0.303-0.6,0.608-0.903,0.916
			c-2.353,2.535-5.242,4.842-8.476,6.822c-0.839,0.47-1.685,0.942-2.537,1.42c-0.869,0.376-1.745,0.755-2.626,1.137
			c-0.854,0.417-1.841,0.662-2.777,0.986l-1.426,0.462c-0.478,0.144-0.963,0.234-1.445,0.354c-3.855,0.996-7.876,1.442-11.874,1.682
			c-8.017,0.423-15.973-0.139-23.374,0.3c-0.928,0.022-1.838,0.129-2.743,0.202c-0.904,0.088-1.805,0.133-2.682,0.271
			c-0.88,0.118-1.751,0.235-2.612,0.352c-0.854,0.15-1.689,0.34-2.519,0.504c-0.414,0.084-0.826,0.168-1.234,0.252
			c-0.399,0.116-0.796,0.229-1.19,0.346c-0.789,0.229-1.565,0.453-2.329,0.675c-1.515,0.523-2.898,1.121-4.192,1.813
			c-2.531,1.435-4.572,3.294-5.623,5.424c-1.04,2.109-1.064,4.325-0.658,5.967c0.409,1.665,1.225,2.817,1.907,3.437
			c0.684,0.631,1.163,0.82,1.145,0.845c0.017-0.024-0.471-0.186-1.201-0.782c-0.721-0.586-1.651-1.707-2.143-3.421
			c-0.492-1.688-0.584-3.976,0.43-6.294c1.006-2.304,3.093-4.38,5.709-5.931c1.319-0.755,2.779-1.43,4.292-1.995
			c0.775-0.248,1.564-0.5,2.364-0.756c0.401-0.129,0.805-0.258,1.212-0.388c0.415-0.097,0.833-0.192,1.254-0.292
			c3.352-0.886,6.986-1.302,10.731-1.566c3.751-0.265,7.622-0.244,11.541-0.265c3.92,0.006,7.883,0.003,11.826-0.237
			c3.939-0.2,7.875-0.604,11.619-1.539c0.468-0.111,0.946-0.197,1.403-0.331l1.354-0.427c0.899-0.304,1.805-0.505,2.685-0.924
			c0.885-0.373,1.764-0.745,2.636-1.112c0.804-0.443,1.602-0.884,2.394-1.319c3.117-1.905,5.995-4.037,8.36-6.461
			c0.305-0.293,0.608-0.584,0.908-0.873c0.281-0.309,0.561-0.614,0.837-0.919c0.554-0.609,1.099-1.21,1.635-1.8
			c0.98-1.258,2.011-2.417,2.854-3.634c0.865-1.199,1.703-2.344,2.437-3.494c0.762-1.137,1.461-2.201,2.085-3.236
			c1.252-2.064,2.215-3.94,2.863-5.548c0.658-1.604,1.049-2.909,1.268-3.816C212.141,200.148,212.244,199.661,212.244,199.661z"/>
	</g>
	<g>
		<path fill="#1A1A1A" d="M188.588,224.131c0,0-0.232,0.351-0.658,0.946c-0.216,0.295-0.479,0.651-0.78,1.063
			c-0.316,0.398-0.621,0.885-1.065,1.335c-0.444,0.451-0.93,0.943-1.462,1.449c-0.266,0.256-0.538,0.519-0.816,0.787
			c-0.283,0.262-0.613,0.471-0.929,0.714c-0.645,0.465-1.292,0.979-1.99,1.44c-0.726,0.411-1.463,0.83-2.2,1.25
			c-0.734,0.432-1.53,0.712-2.28,1.068c-0.752,0.356-1.516,0.641-2.255,0.9c-1.476,0.546-2.864,0.985-4.066,1.331
			c-2.389,0.718-4.028,1.091-4.028,1.091s1.447-0.856,3.712-1.921c1.131-0.532,2.459-1.128,3.866-1.762
			c0.354-0.156,0.712-0.315,1.076-0.478c0.353-0.18,0.712-0.354,1.077-0.524c0.718-0.36,1.491-0.652,2.184-1.079
			c0.716-0.387,1.432-0.771,2.137-1.152c0.672-0.432,1.333-0.857,1.973-1.27c0.318-0.21,0.646-0.4,0.941-0.611
			c0.288-0.224,0.569-0.441,0.843-0.653c0.545-0.431,1.079-0.823,1.575-1.188c0.489-0.374,0.889-0.8,1.275-1.126
			c0.382-0.338,0.715-0.631,0.988-0.872C188.26,224.394,188.588,224.131,188.588,224.131z"/>
	</g>
	<g>
		<path d="M306.632,166.961c0,0-0.343,1.773-1.05,4.368c-0.348,1.299-0.782,2.805-1.281,4.405c-0.248,0.798-0.505,1.62-0.766,2.457
			c-0.271,0.837-0.546,1.688-0.82,2.538c-0.23,0.845-0.462,1.688-0.689,2.52c-0.109,0.417-0.229,0.828-0.353,1.232
			c-0.112,0.429-0.226,0.853-0.336,1.269c-0.054,0.202-0.106,0.402-0.157,0.603l-0.096,0.352l-0.127,0.276
			c-0.168,0.368-0.332,0.729-0.492,1.079c-0.333,0.698-0.576,1.364-0.846,1.988c-0.174,0.618-0.402,1.169-0.521,1.696
			c-0.117,0.523-0.268,0.978-0.332,1.361c-0.164,0.771-0.258,1.209-0.258,1.209s-0.027-0.446-0.05-1.24
			c-0.019-0.397,0.024-0.877,0.058-1.433c0.021-0.555,0.151-1.185,0.262-1.878c0.172-0.642,0.33-1.374,0.6-2.092
			c0.123-0.363,0.25-0.737,0.38-1.119l0.099-0.287c-0.015,0.007,0.029-0.172,0.043-0.249c0.039-0.202,0.08-0.406,0.121-0.611
			c0.08-0.399,0.162-0.808,0.244-1.219c0.096-0.429,0.199-0.861,0.313-1.297c0.221-0.872,0.445-1.757,0.669-2.643
			c0.293-0.846,0.585-1.69,0.873-2.522c0.278-0.824,0.603-1.655,0.899-2.436c0.603-1.565,1.193-3.017,1.729-4.25
			C305.8,168.565,306.632,166.961,306.632,166.961z"/>
	</g>
	<g>
		<path fill="#1A1A1A" d="M203.849,245.31c0,0-0.616,0.712-1.721,1.934c-1.116,1.209-2.678,2.968-4.609,5.021
			c-0.975,1.024-1.97,2.132-3.064,3.34c-0.543,0.598-1.101,1.211-1.671,1.838c-0.286,0.313-0.575,0.629-0.867,0.947
			c-0.245,0.249-0.534,0.656-0.803,0.98c-0.552,0.688-1.114,1.389-1.607,2.116c-0.519,0.72-1.033,1.453-1.521,2.229l-0.747,1.149
			l-0.698,1.192c-0.48,0.789-0.914,1.609-1.343,2.433c-0.883,1.633-1.675,3.314-2.41,4.992c-0.724,1.683-1.415,3.352-2.026,4.989
			c-0.604,1.642-1.179,3.235-1.688,4.761c-0.503,1.526-0.98,2.974-1.396,4.316c-1.653,5.389-2.755,8.98-2.755,8.98
			s0.155-0.929,0.466-2.546c0.335-1.609,0.759-3.928,1.433-6.673c0.656-2.748,1.512-5.94,2.656-9.299
			c0.582-1.675,1.199-3.404,1.937-5.12c0.733-1.717,1.524-3.445,2.415-5.126c0.447-0.839,0.9-1.675,1.401-2.479l0.729-1.219
			l0.78-1.176c0.501-0.79,1.058-1.544,1.625-2.278c0.548-0.756,1.128-1.436,1.698-2.104c0.303-0.345,0.521-0.652,0.887-1.021
			c0.305-0.307,0.606-0.61,0.905-0.911c0.6-0.601,1.187-1.188,1.758-1.759c0.572-0.569,1.128-1.125,1.667-1.661
			c0.558-0.524,1.097-1.031,1.614-1.52c2.055-1.931,3.813-3.492,5.023-4.607C203.137,245.926,203.849,245.31,203.849,245.31z"/>
	</g>
	<g>
		<path fill="#1A1A1A" d="M143.561,296.742c-0.6-0.486-1.182-1.003-1.796-1.465c-0.636-0.434-1.215-0.925-1.893-1.291
			c-0.653-0.396-1.305-0.787-2.003-1.097c-0.338-0.165-0.681-0.35-1.014-0.499l-1.067-0.45l-2.145-0.835
			c-0.718-0.295-1.449-0.571-2.162-0.927c-0.718-0.328-1.427-0.719-2.099-1.174c-0.326-0.246-0.671-0.466-0.981-0.738l-0.903-0.854
			l-0.743-0.97c-0.115-0.155-0.236-0.302-0.348-0.467l-0.303-0.56c-0.196-0.375-0.404-0.755-0.577-1.134l-0.415-1.142
			c-0.291-0.766-0.434-1.522-0.643-2.33l-0.405-2.278l-0.403-2.263c-0.145-0.729-0.262-1.541-0.429-2.207
			c-0.229-0.732-0.428-1.488-0.66-2.212l-0.835-2.041l-0.353-0.861l0.814-0.106l0.574-0.076l0.571,0.011
			c0.374,0.04,0.736,0.117,1.08,0.233c0.684,0.241,1.289,0.606,1.829,1.033c0.338,0.271,0.485,0.455,0.737,0.687
			c0.227,0.22,0.458,0.43,0.665,0.723l0.627,0.817c0.179,0.282,0.332,0.573,0.498,0.859c0.354,0.56,0.555,1.186,0.833,1.772
			c0.202,0.614,0.443,1.219,0.586,1.845c0.351,1.236,0.573,2.491,0.817,3.735l-0.155-0.104c0.357-0.035,0.714-0.021,1.065,0.016
			l0.52,0.104c0.167,0.057,0.329,0.129,0.489,0.19c-0.171-0.041-0.336-0.089-0.503-0.121l-0.514-0.03
			c-0.345,0.012-0.681,0.053-1.014,0.112l-0.117,0.021l-0.039-0.125c-0.369-1.211-0.718-2.43-1.182-3.594
			c-0.204-0.595-0.493-1.146-0.723-1.723c-0.305-0.534-0.537-1.114-0.903-1.603c-0.171-0.25-0.333-0.511-0.51-0.75l-0.565-0.661
			c-0.164-0.227-0.413-0.432-0.654-0.64l-0.358-0.313l-0.179-0.156c-0.014-0.012-0.094-0.085-0.055-0.045l-0.089-0.062
			c-0.471-0.333-0.983-0.601-1.505-0.752c-0.261-0.076-0.521-0.121-0.778-0.144l-0.379,0.006l-0.366,0.061l0.461-0.969l0.985,2.216
			c0.266,0.735,0.481,1.47,0.713,2.208c0.22,0.826,0.32,1.55,0.486,2.33l0.434,2.291l0.392,2.28
			c0.175,0.687,0.311,1.456,0.567,2.136l0.364,1.039c0.144,0.322,0.311,0.62,0.457,0.937l0.222,0.472
			c0.098,0.158,0.22,0.314,0.329,0.473l0.632,0.894l0.756,0.76c0.261,0.246,0.566,0.451,0.847,0.681
			c0.595,0.422,1.216,0.826,1.885,1.172c0.651,0.369,1.352,0.679,2.044,1.007l2.11,0.99l1.032,0.525
			c0.357,0.194,0.682,0.4,1.022,0.603c0.682,0.39,1.311,0.859,1.934,1.331c0.645,0.438,1.199,1.01,1.79,1.511
			C142.542,295.577,143.026,296.184,143.561,296.742z"/>
	</g>
	<g>
		<path fill="#1A1A1A" d="M140.941,253.146c0.129-0.251,0.263-0.498,0.407-0.734c0.138-0.241,0.336-0.45,0.508-0.685
			c0.177-0.233,0.388-0.42,0.591-0.624c0.198-0.212,0.422-0.389,0.655-0.558l0.346-0.261c0.076-0.051,0.075-0.074,0.215-0.146
			l0.177-0.102c0.132-0.066,0.204-0.139,0.386-0.2c0.187-0.062,0.38-0.113,0.575-0.158l0.146-0.032l0.19-0.001l0.204,0.004
			c0.242,0.049,0.53,0.104,0.716,0.238c0.211,0.104,0.397,0.283,0.55,0.505l0.057,0.079l0.007,0.011l0.003,0.005l0.043,0.092
			l0.005,0.012l0.009,0.022l0.038,0.095c0.021,0.035,0.063,0.179,0.089,0.318l0.032,0.203l0.004,0.143
			c0.001,0.095,0.001,0.189-0.007,0.267l-0.01,0.121l-0.01,0.099l-0.008,0.052l-0.032,0.199l-0.142,0.803
			c-0.065,0.277-0.167,0.571-0.251,0.854c-0.088,0.287-0.188,0.563-0.327,0.814c-0.131,0.258-0.247,0.52-0.389,0.768
			c-0.152,0.243-0.323,0.476-0.482,0.71c-0.074,0.104-0.167,0.253-0.263,0.347c-0.084,0.099-0.193,0.209-0.316,0.318
			c-0.223,0.224-0.538,0.357-0.834,0.402l0.069-0.087l-0.122,0.344l-0.074-0.357l-0.006-0.027l0.075-0.06
			c0.206-0.162,0.346-0.345,0.446-0.563c0.05-0.101,0.098-0.209,0.147-0.35c0.054-0.133,0.076-0.229,0.122-0.369
			c0.162-0.505,0.328-0.991,0.435-1.499c0.067-0.25,0.131-0.491,0.16-0.734l0.139-0.727l0.096-0.809l0.027-0.201l0.007-0.051
			c-0.008,0.063-0.001-0.006-0.002-0.003l0.004-0.081c0.006-0.061,0.002-0.1,0-0.14l0.001-0.063c-0.002-0.002-0.002,0.002,0,0.003
			c0.006,0.006,0.031,0.014-0.01-0.074l-0.036-0.095l-0.009-0.024l-0.005-0.012c-0.009-0.021,0.077,0.163,0.041,0.086l0,0h-0.001
			h-0.007c-0.007,0,0-0.022-0.04-0.04c-0.028-0.044-0.027-0.006-0.036-0.055l-0.203-0.021l-0.051-0.008l-0.025-0.003l-0.013-0.001
			l-0.003-0.001c0.168,0.001,0.046,0.001,0.083,0.001l-0.003,0.001l-0.052,0.014c-0.07,0.014-0.141,0.02-0.219,0.019
			c-0.082-0.002-0.241,0.084-0.358,0.121l-0.19,0.073c0.015-0.018-0.095,0.042-0.137,0.059l-0.35,0.162
			c-0.241,0.099-0.463,0.228-0.694,0.35c-0.232,0.121-0.472,0.239-0.687,0.382C141.883,252.527,141.429,252.86,140.941,253.146z"/>
	</g>
	<g>
		<path fill="#1A1A1A" d="M144.74,256.814c0,0,0.125-0.283,0.364-0.764c0.253-0.479,0.558-1.154,1.109-1.949
			c0.281-0.39,0.625-0.816,1.133-1.166c0.27-0.18,0.511-0.312,0.901-0.443c0.072-0.02,0.119-0.037,0.211-0.057
			c0.106-0.017,0.226-0.034,0.326-0.033c0.2-0.003,0.407,0.011,0.631,0.082c0.218,0.059,0.463,0.198,0.664,0.408
			c0.054,0.047,0.09,0.114,0.133,0.175l0.059,0.096l0.028,0.049l0.014,0.022c-0.027-0.077,0.044,0.12,0.038,0.103l0.002,0.007
			l0.065,0.208c0.096,0.56,0.074,0.738,0.07,1.094c-0.02,0.658-0.069,1.228-0.057,1.781c-0.001,0.271,0.016,0.523,0.052,0.749
			l0.065,0.249c0.064,0.136,0.137,0.288,0.181,0.322c0.215,0.302,0.639,0.739,1.051,1.113c0.208,0.203,0.434,0.399,0.633,0.652
			c0.088,0.111,0.169,0.198,0.26,0.326c0.091,0.148,0.181,0.298,0.27,0.442c0.303,0.566,0.28,1.267,0.195,1.735
			c-0.026,0.13-0.051,0.257-0.076,0.381c-0.034,0.104-0.067,0.205-0.099,0.304c-0.068,0.197-0.133,0.385-0.194,0.561
			c-0.099,0.353-0.269,0.656-0.406,0.897c-0.269,0.484-0.431,0.738-0.431,0.738s0.044-0.313,0.135-0.825
			c0.052-0.253,0.108-0.551,0.122-0.931c0.013-0.186,0.027-0.383,0.042-0.591c0.009-0.104,0.019-0.21,0.029-0.318
			c-0.009-0.047-0.005-0.188-0.008-0.282c-0.014-0.19-0.024-0.442-0.082-0.572c-0.024-0.075-0.02-0.143-0.088-0.272l-0.078-0.174
			l-0.02-0.045l-0.01-0.021l-0.002-0.006c0.01,0.024-0.027-0.063,0.023,0.055l-0.006-0.007l-0.047-0.052
			c-0.062-0.068-0.121-0.137-0.175-0.209c-0.074-0.08-0.192-0.178-0.289-0.268c-0.169-0.15-0.369-0.316-0.587-0.486
			c-0.441-0.367-0.938-0.676-1.421-1.343c-0.146-0.198-0.198-0.319-0.269-0.45c-0.122-0.265-0.138-0.4-0.205-0.609
			c-0.074-0.368-0.106-0.719-0.111-1.053c0.007-0.655,0.081-1.292,0.111-1.823c0.008-0.694,0.099-0.818-0.017-0.843
			c-0.042-0.025-0.119-0.039-0.197-0.048c-0.04-0.007-0.057,0-0.089-0.009c-0.044-0.001-0.13,0.015-0.192,0.021
			c-0.133,0.027-0.385,0.098-0.563,0.188c-0.382,0.192-0.739,0.471-1.057,0.759c-0.621,0.592-1.147,1.184-1.529,1.55
			C144.97,256.607,144.74,256.814,144.74,256.814z"/>
	</g>
	<g>
		<path d="M182.573,205.401c0,0,0.078-0.067,0.217-0.164c0.069-0.045,0.153-0.104,0.25-0.153c0.105-0.048,0.187-0.137,0.283-0.195
			c0.096-0.072,0.186-0.132,0.29-0.199c0.105-0.078,0.211-0.163,0.325-0.228c0.114-0.063,0.221-0.162,0.34-0.229
			c0.117-0.07,0.238-0.14,0.353-0.228c0.482-0.288,0.995-0.601,1.467-0.791c0.441-0.221,0.858-0.313,0.858-0.313
			s-0.004,0.41-0.212,0.922c-0.115,0.247-0.266,0.531-0.485,0.792c-0.221,0.261-0.489,0.511-0.809,0.702
			c-0.153,0.103-0.318,0.189-0.495,0.252c-0.174,0.064-0.336,0.141-0.517,0.165c-0.35,0.063-0.687,0.089-0.992,0.028
			c-0.302-0.024-0.489-0.146-0.641-0.221C182.658,205.462,182.573,205.401,182.573,205.401z"/>
	</g>
	<g>
		<path d="M180.813,200.151c0,0,0.328-0.354,0.874-0.688c0.136-0.086,0.282-0.179,0.443-0.255c0.153-0.089,0.359-0.138,0.557-0.192
			c0.404-0.104,0.852-0.186,1.301-0.232c0.436,0.016,0.873,0.061,1.275,0.133c0.2,0.041,0.395,0.067,0.57,0.148
			c0.178,0.066,0.342,0.148,0.49,0.228c0.598,0.3,0.929,0.627,0.929,0.627s-0.472,0.176-1.077,0.25
			c-0.152,0.021-0.315,0.042-0.482,0.044c-0.167-0.002-0.349,0.062-0.528,0.073c-0.363,0.044-0.741,0.058-1.121,0.043
			c-0.363,0.042-0.728,0.051-1.084,0.028c-0.181,0.002-0.352-0.055-0.534-0.037c-0.178,0.015-0.352,0.007-0.513-0.002
			C181.274,200.297,180.813,200.151,180.813,200.151z"/>
	</g>
	<g>
		<path fill="#CCCCCC" d="M182.938,204.606c-0.003-0.013,0.051,0.03-0.034,0.062c-0.016,0.032-0.107-0.035-0.119-0.038
			c-0.029-0.012-0.059-0.027-0.09-0.046c-0.064-0.037-0.146-0.08-0.223-0.138c-0.081-0.049-0.16-0.179-0.234-0.312
			c-0.088-0.146-0.135-0.294-0.158-0.459c-0.041-0.168-0.047-0.354-0.007-0.545l0.025-0.147l0.017-0.072l0.002-0.011l0.041-0.079
			l0.004-0.012l0.01-0.022c0.023-0.064,0.049-0.128,0.079-0.189c0.064-0.101,0.19-0.254,0.313-0.355l0.097-0.08l0.012-0.01
			l0.007-0.005l0.003-0.003l0.121-0.062l0.012-0.005l0.024-0.01l0.098-0.036l0.199-0.062l0.05-0.016l0.006-0.002l0.15-0.043h0.003
			l0.014-0.001l0.025-0.004l0.103-0.01c0.137-0.015,0.273-0.016,0.406-0.014c0.261,0.01,0.521,0.037,0.778,0.135
			c0.487,0.156,0.743,0.404,0.743,0.404s-0.3,0.276-0.645,0.479c-0.162,0.097-0.379,0.213-0.629,0.332
			c-0.123,0.053-0.25,0.104-0.383,0.142l-0.099,0.028l-0.025,0.009l-0.012,0.004l-0.004,0.001c-0.032,0.009,0.277-0.081,0.146-0.042
			h-0.001l-0.006,0.003l-0.049,0.018l-0.194,0.073l-0.101,0.03l-0.024,0.008l-0.013,0.004l0.119-0.062h0.002l0.002-0.001
			l0.021-0.009c0.023-0.007,0.04-0.074,0.017-0.07c-0.039,0.057-0.083,0.108-0.127,0.16l-0.017,0.021l-0.008,0.01l-0.002,0.002
			l-0.001,0.002c0.017-0.033-0.039,0.073,0.037-0.072l-0.001,0.003l-0.013,0.021c-0.008,0.015-0.021,0.027-0.032,0.041
			c-0.047,0.055-0.115,0.113-0.145,0.188c-0.038,0.073-0.099,0.149-0.125,0.209c-0.023,0.066-0.097,0.137-0.101,0.238
			c-0.004,0.097-0.021,0.187-0.033,0.26c-0.005,0.035-0.011,0.068-0.02,0.1c0.003,0.041-0.05,0.002-0.034,0.034
			C182.917,204.629,182.946,204.615,182.938,204.606z"/>
	</g>
	<g>
		<path d="M191.459,221.893c0,0,0.974,1.377,2.26,3.504c0.16,0.274,0.339,0.531,0.522,0.793c0.173,0.273,0.375,0.525,0.589,0.773
			c0.193,0.275,0.458,0.457,0.698,0.672c0.051,0.04,0.144,0.135,0.16,0.132l0.242,0.15c0.177,0.126,0.283,0.132,0.42,0.205
			c0.584,0.244,1.289,0.273,1.981,0.194c0.155-0.017,0.391-0.068,0.481-0.087l0.591-0.182c0.428-0.108,0.685-0.292,1.038-0.426
			c0.69-0.342,1.425-0.737,2.086-1.151c0.688-0.438,1.4-0.824,2.06-1.229c0.621-0.434,1.239-0.827,1.826-1.208
			c0.597-0.368,1.078-0.821,1.58-1.179c0.471-0.389,0.975-0.682,1.311-1.049c0.367-0.343,0.687-0.642,0.95-0.888
			c0.55-0.488,0.863-0.769,0.863-0.769s-0.217,0.354-0.626,0.964c-0.21,0.306-0.466,0.676-0.758,1.1
			c-0.274,0.449-0.711,0.831-1.142,1.299c-0.452,0.443-0.891,0.994-1.473,1.437c-0.564,0.462-1.161,0.953-1.798,1.44
			c-0.645,0.443-1.302,0.903-1.992,1.344c-0.716,0.468-1.434,0.881-2.225,1.287c-0.421,0.163-0.893,0.402-1.273,0.487l-0.596,0.169
			c-0.311,0.068-0.48,0.095-0.73,0.124c-0.926,0.098-1.879-0.038-2.717-0.44c-0.205-0.111-0.469-0.236-0.597-0.347l-0.23-0.168
			c-0.146-0.103-0.17-0.162-0.259-0.245c-0.292-0.312-0.599-0.603-0.786-0.937c-0.453-0.628-0.735-1.292-0.983-1.859
			c-0.494-1.16-0.848-2.134-1.1-2.823C191.587,222.293,191.459,221.893,191.459,221.893z"/>
	</g>
	<g>
		<path d="M185.382,216.456c0,0,0.188,0.003,0.514,0.022c0.325,0.043,0.807,0.118,1.343,0.356c0.268,0.12,0.564,0.267,0.845,0.494
			c0.276,0.211,0.577,0.537,0.773,0.893c0.204,0.401,0.302,0.67,0.435,0.827l0.098,0.106c0.066,0.069,0.129,0.129,0.155,0.145
			c0.084,0.061,0.113,0.07,0.101,0.061c-0.025,0.021,0.331-0.041,0.643-0.138c0.327-0.092,0.674-0.182,1.011-0.253l0.286-0.052
			l0.254-0.035c0.172-0.016,0.34-0.029,0.503-0.044c0.283-0.011,0.521-0.049,0.756-0.109c0.459-0.141,0.871-0.332,1.146-0.484
			c0.29-0.146,0.455-0.23,0.455-0.23s-0.092,0.159-0.272,0.438c-0.18,0.276-0.481,0.645-0.972,1.01
			c-0.256,0.162-0.566,0.329-0.893,0.431c-0.139,0.044-0.282,0.089-0.429,0.135c-0.062,0.02-0.148,0.058-0.223,0.084
			c-0.022,0.012-0.113,0.039-0.081,0.037l-0.11,0.06c-0.301,0.144-0.607,0.292-0.948,0.43c-0.353,0.109-0.697,0.342-1.441,0.235
			c-0.367-0.081-0.645-0.284-0.821-0.464c-0.105-0.105-0.165-0.179-0.217-0.241c-0.086-0.104-0.161-0.205-0.226-0.313
			c-0.259-0.438-0.332-0.854-0.4-1.066c-0.082-0.261-0.183-0.458-0.353-0.672c-0.16-0.204-0.333-0.409-0.522-0.573
			c-0.368-0.351-0.73-0.602-0.986-0.791C185.533,216.569,185.382,216.456,185.382,216.456z"/>
	</g>
	<g>
		<path d="M190.548,221.714c0,0,0.084-0.013,0.215-0.017c0.063,0,0.145-0.003,0.225,0.008c0.086,0.02,0.17-0.017,0.241-0.024
			c0.078-0.018,0.138-0.032,0.207-0.042c0.079-0.018,0.156-0.042,0.224-0.044c0.069-0.003,0.138-0.04,0.201-0.04
			c0.007-0.003,0.12-0.006,0.038-0.006l0.163-0.025l0.31-0.021c0.079-0.011,0.16-0.006,0.244,0.002
			c0.077,0.008,0.206,0.019,0.301,0.034c0.101,0.008,0.2,0.033,0.292,0.061c0.367,0.093,0.647,0.288,0.647,0.288
			s-0.146,0.308-0.418,0.57c-0.066,0.067-0.14,0.141-0.223,0.196c-0.089,0.063-0.151,0.129-0.275,0.185
			c-0.117,0.058-0.243,0.112-0.375,0.153c-0.139,0.051-0.224,0.05-0.34,0.07l-0.165,0.013c-0.19,0.016-0.186-0.017-0.287-0.022
			c-0.15-0.031-0.301-0.054-0.428-0.125c-0.251-0.133-0.47-0.295-0.609-0.511c-0.16-0.189-0.148-0.357-0.174-0.487
			C190.547,221.799,190.548,221.714,190.548,221.714z"/>
	</g>
	<g>
		<path fill="#82BA41" d="M140.963,277.16c-0.023,0.009-0.046,0.018-0.069,0.026c-3.248,1.075-5.449-2.812-6.087-4.257
			c-1.687-3.828-2.116-8.471-0.19-9.557c0.22-0.123,0.445-0.191,0.672-0.212c-1.101,1.173-1.495,3.972-0.519,6.906
			c1.133,3.422,3.04,7.165,4.331,6.94c-1.057-0.502-2.01-1.802-2.828-4.269c-1.352-4.078-0.72-9.998,1.226-10.644
			c1.946-0.644,4.663,2.15,6.015,6.229c1.353,4.076-0.273,8.098-2.219,8.742C141.183,277.103,141.073,277.136,140.963,277.16"/>
	</g>
</g>
</svg>
